<?xml version="1.0" encoding="iso-8859-1"?>
<!-- Generator: Adobe Illustrator 19.0.0, SVG Export Plug-In . SVG Version: 6.00 Build 0)  -->
<svg xmlns="http://www.w3.org/2000/svg" xmlns:xlink="http://www.w3.org/1999/xlink" version="1.1" id="Layer_1" x="0px" y="0px" viewBox="0 0 512.002 512.002" style="enable-background:new 0 0 512.002 512.002;" xml:space="preserve">
<g>
	<g>
		<path d="M497.098,407.176h-36.047c-0.738-18.289-3.845-36.305-9.272-53.671c-1.406-4.503-6.197-7.012-10.701-5.604    c-4.503,1.406-7.012,6.198-5.604,10.701c4.912,15.717,7.749,32.02,8.477,48.576h-13.944v-85.902    c45.931-5.225,81.996-52.137,81.996-109.055c0-22.795-5.734-44.658-16.582-63.227c-1.532-2.622-4.34-4.233-7.375-4.233H354.882    c-3.036,0-5.844,1.612-7.375,4.233c-10.848,18.568-16.582,40.431-16.582,63.227c0,23.902,6.23,46.605,18.015,65.658    c2.483,4.011,7.747,5.253,11.758,2.77c4.011-2.482,5.251-7.746,2.771-11.758c-10.114-16.35-15.46-35.945-15.46-56.67    c0-1.642,0.046-3.277,0.114-4.905h146.681c0.067,1.629,0.114,3.263,0.114,4.905c0,50.984-32.951,92.464-73.454,92.464    c-15.079,0-29.581-5.742-41.939-16.607c-3.543-3.115-8.94-2.767-12.055,0.776c-3.115,3.543-2.767,8.94,0.776,12.055    c13.214,11.617,28.518,18.552,44.677,20.364v85.907H61.698c1.551-35.278,12.694-69.143,32.475-98.422    c2.641-3.909,1.613-9.218-2.296-11.859c-3.91-2.64-9.219-1.613-11.86,2.296c-21.697,32.114-33.858,69.284-35.419,107.985H8.542    c-4.717,0-8.542,3.824-8.542,8.542v15.645c0,25.283,20.569,45.852,45.852,45.852h97.64c4.717,0,8.542-3.824,8.542-8.542    c0-4.717-3.824-8.542-8.542-8.542h-97.64c-15.863-0.002-28.769-12.908-28.769-28.772v-7.103h395.838v10.249h-8.542    c-15.89,0-29.281,10.905-33.083,25.624H175.948c-4.717,0-8.542,3.824-8.542,8.542s3.824,8.542,8.542,8.542h202.809h81.029h4.382    c1.158,0,2.261-0.233,3.267-0.65c21.652-3.654,38.203-22.526,38.203-45.202v-15.645C505.639,411,501.815,407.176,497.098,407.176z     M350.115,190.23c1.953-10.038,5.243-19.606,9.809-28.388h123.078c4.566,8.782,7.855,18.35,9.809,28.388H350.115z     M389.592,460.131c2.958-5.101,8.479-8.54,14.788-8.54h34.165c6.309,0,11.831,3.438,14.788,8.54H389.592z M488.556,431.362    c0,11.906-7.271,22.146-17.604,26.513c-4.53-13.562-17.341-23.368-32.406-23.368h-8.542v-10.249h58.551V431.362z"/>
	</g>
</g>
<g>
	<g>
		<path d="M309.977,215.25c-8.798-2.503-17.762-4.401-26.829-5.724c5.073-6.513,8.107-14.69,8.107-23.567    c0-21.193-17.243-38.436-38.436-38.436s-38.436,17.243-38.436,38.436c0,8.864,3.025,17.031,8.085,23.54    c-44.146,6.405-84.894,26.741-117.009,58.855c-3.336,3.336-3.336,8.743,0,12.079c1.667,1.668,3.854,2.502,6.039,2.502    c2.186,0,4.372-0.834,6.039-2.502c36.136-36.136,84.182-56.036,135.284-56.036c17.837,0,35.493,2.451,52.48,7.285    c4.536,1.292,9.261-1.34,10.553-5.878S314.515,216.542,309.977,215.25z M252.819,207.313c-11.774,0-21.353-9.579-21.353-21.353    c0.001-11.775,9.579-21.353,21.353-21.353s21.353,9.579,21.353,21.353S264.593,207.313,252.819,207.313z"/>
	</g>
</g>
<g>
	<g>
		<path d="M154.202,209.006L114.593,41.362c-0.91-3.855-4.352-6.577-8.313-6.577c-3.961,0-7.403,2.723-8.313,6.578L18.788,376.52    c-1.085,4.591,1.758,9.192,6.348,10.277c0.661,0.156,1.321,0.231,1.971,0.231c3.87,0,7.378-2.649,8.305-6.579l36.282-153.575    c9.88-4.663,36.346-18.098,60.107-38.389l5.776,24.45c1.085,4.591,5.688,7.433,10.276,6.348    C152.445,218.199,155.288,213.598,154.202,209.006z M76.851,205.055l29.433-124.58l21.047,89.081    C110.5,185.42,90.48,197.666,76.851,205.055z"/>
	</g>
</g>
<g>
</g>
<g>
</g>
<g>
</g>
<g>
</g>
<g>
</g>
<g>
</g>
<g>
</g>
<g>
</g>
<g>
</g>
<g>
</g>
<g>
</g>
<g>
</g>
<g>
</g>
<g>
</g>
<g>
</g>
</svg>
