<?xml version="1.0" encoding="iso-8859-1"?>
<!-- Generator: Adobe Illustrator 19.0.0, SVG Export Plug-In . SVG Version: 6.00 Build 0)  -->
<svg xmlns="http://www.w3.org/2000/svg" xmlns:xlink="http://www.w3.org/1999/xlink" version="1.1" id="Layer_1" x="0px" y="0px" viewBox="0 0 511.999 511.999" style="enable-background:new 0 0 511.999 511.999;" xml:space="preserve">
<g>
	<g>
		<path d="M379.456,124.55L302.91,79.355c-3.991-2.357-9.138-1.031-11.495,2.961c-2.357,3.992-1.032,9.139,2.96,11.495    l64.303,37.966L225.786,210.24V53.314l40.308,23.799c3.994,2.357,9.14,1.031,11.495-2.961c2.357-3.992,1.032-9.139-2.96-11.495    l-48.844-28.838V8.394c0-4.636-3.757-8.394-8.394-8.394h-31.896c-4.637,0-8.394,3.758-8.394,8.394v477.724    c-19.447-6.848-31.896-16.822-31.896-26.16c0-6.725,6.633-14.114,18.198-20.27c4.092-2.178,5.643-7.261,3.465-11.354    c-2.178-4.093-7.259-5.645-11.354-3.465c-12.361,6.58-27.096,18.01-27.096,35.088c0,19.555,20.542,36.607,54.956,45.613    c10.355,2.705,21.561,4.583,33.299,5.58c6.54,0.563,13.278,0.848,20.025,0.848c27.811,0,54.086-4.789,73.985-13.486    c22.108-9.662,34.284-23.354,34.284-38.556c0-15.202-12.175-28.894-34.284-38.556c-19.899-8.697-46.175-13.486-73.985-13.486    c-3.651,0-7.296,0.091-10.912,0.256V300.883c0-4.636-3.757-8.394-8.394-8.394c-4.637,0-8.394,3.758-8.394,8.394v192.553    c-5.202-0.68-10.249-1.553-15.109-2.616V16.788h15.109v256.118c0,4.636,3.757,8.394,8.394,8.394c4.637,0,8.394-3.758,8.394-8.394    v-43.169l153.67-90.73c2.556-1.51,4.126-4.258,4.126-7.228S382.012,126.059,379.456,124.55z M225.785,424.983    c3.612-0.178,7.257-0.279,10.912-0.279c25.549,0,49.436,4.29,67.264,12.081c15.165,6.628,24.219,15.29,24.219,23.172    c0,7.882-9.054,16.545-24.219,23.172c-17.827,7.791-41.714,12.082-67.264,12.082c-3.655,0-7.3-0.101-10.912-0.28V424.983z"/>
	</g>
</g>
<g>
</g>
<g>
</g>
<g>
</g>
<g>
</g>
<g>
</g>
<g>
</g>
<g>
</g>
<g>
</g>
<g>
</g>
<g>
</g>
<g>
</g>
<g>
</g>
<g>
</g>
<g>
</g>
<g>
</g>
</svg>
