<?xml version="1.0" encoding="iso-8859-1"?>
<!-- Generator: Adobe Illustrator 19.0.0, SVG Export Plug-In . SVG Version: 6.00 Build 0)  -->
<svg xmlns="http://www.w3.org/2000/svg" xmlns:xlink="http://www.w3.org/1999/xlink" version="1.1" id="Layer_1" x="0px" y="0px" viewBox="0 0 512 512" style="enable-background:new 0 0 512 512;" xml:space="preserve">
<g>
	<g>
		<path d="M368.417,202.366c-3.256-3.434-8.68-3.581-12.114-0.322c-3.434,3.256-3.578,8.679-0.322,12.114    c24.357,25.691,37.772,59.344,37.772,94.762c0,75.958-61.796,137.754-137.754,137.754s-137.754-61.796-137.754-137.754    s61.796-137.754,137.754-137.754c30.305,0,59.052,9.649,83.134,27.904c3.772,2.858,9.147,2.119,12.005-1.652    s2.118-9.145-1.652-12.005c-27.086-20.531-59.412-31.384-93.486-31.384c-85.408,0-154.893,69.484-154.893,154.891    s69.484,154.891,154.891,154.891s154.891-69.484,154.891-154.891C410.891,269.095,395.807,231.254,368.417,202.366z"/>
	</g>
</g>
<g>
	<g>
		<path d="M366.824,105.837H61.487c-4.732,0-8.569,3.836-8.569,8.569v318.193c0,4.732,3.835,8.569,8.569,8.569    c4.732,0,8.568-3.836,8.568-8.569V122.974h296.768c4.732,0,8.568-3.836,8.568-8.569S371.556,105.837,366.824,105.837z"/>
	</g>
</g>
<g>
	<g>
		<path d="M450.513,105.837H397.67c-4.732,0-8.569,3.836-8.569,8.569s3.836,8.569,8.569,8.569h44.274v371.889H70.056v-32.56    c0-4.732-3.836-8.569-8.568-8.569c-4.732,0-8.569,3.836-8.569,8.569v41.129c0,4.732,3.836,8.568,8.569,8.568h389.026    c4.732,0,8.569-3.836,8.569-8.568V114.406C459.081,109.674,455.245,105.837,450.513,105.837z"/>
	</g>
</g>
<g>
	<g>
		<path d="M217.157,71.977h-20.411c1.456-3.192,3.714-6.012,6.61-8.129l5.723-4.181c9.709-7.095,15.504-18.509,15.504-30.534v-5.712    C224.583,10.506,214.077,0,201.162,0c-12.913,0-23.421,10.506-23.421,23.421v5.712c0,4.732,3.836,8.568,8.568,8.568    s8.569-3.836,8.569-8.568v-5.712c0-3.465,2.818-6.284,6.284-6.284c3.465,0,6.284,2.818,6.284,6.284v5.712    c-0.001,6.575-3.17,12.817-8.478,16.697l-5.723,4.181c-9.709,7.095-15.503,18.509-15.503,30.534c0,4.732,3.836,8.569,8.568,8.569    h30.847c4.732,0,8.569-3.836,8.569-8.569S221.889,71.977,217.157,71.977z"/>
	</g>
</g>
<g>
	<g>
		<path d="M273.138,71.977h-20.411c1.456-3.192,3.714-6.012,6.61-8.129l5.723-4.181c9.709-7.095,15.504-18.509,15.504-30.534v-5.712    C280.564,10.506,270.058,0,257.143,0c-12.913,0-23.421,10.506-23.421,23.421v5.712c0,4.732,3.836,8.568,8.569,8.568    s8.569-3.836,8.569-8.568v-5.712c0-3.465,2.818-6.284,6.284-6.284c3.465,0,6.284,2.818,6.284,6.284v5.712    c-0.001,6.575-3.17,12.817-8.478,16.697l-5.723,4.181c-9.709,7.095-15.503,18.509-15.503,30.534c0,4.732,3.836,8.569,8.569,8.569    h30.847c4.732,0,8.569-3.836,8.569-8.569S277.87,71.977,273.138,71.977z"/>
	</g>
</g>
<g>
	<g>
		<path d="M310.267,0c-13.229,0-23.992,10.762-23.992,23.992v41.129c0,13.23,10.763,23.992,23.992,23.992    c13.23,0,23.992-10.762,23.992-23.992V23.992C334.259,10.762,323.496,0,310.267,0z M317.122,65.121    c0,3.78-3.076,6.855-6.855,6.855s-6.855-3.074-6.855-6.855V23.992c0-3.78,3.074-6.855,6.855-6.855c3.78,0,6.855,3.074,6.855,6.855    V65.121z"/>
	</g>
</g>
<g>
	<g>
		<path d="M190.879,279.786c-16.064,0-29.133,13.069-29.133,29.133s13.069,29.133,29.133,29.133s29.133-13.069,29.133-29.133    S206.943,279.786,190.879,279.786z M190.879,320.915c-6.615,0-11.996-5.381-11.996-11.996s5.381-11.996,11.996-11.996    c6.615,0,11.996,5.381,11.996,11.996S197.494,320.915,190.879,320.915z"/>
	</g>
</g>
<g>
	<g>
		<path d="M321.12,279.786c-16.064,0-29.133,13.069-29.133,29.133s13.069,29.133,29.133,29.133s29.133-13.069,29.133-29.133    S337.184,279.786,321.12,279.786z M321.12,320.915c-6.615,0-11.996-5.381-11.996-11.996s5.381-11.996,11.996-11.996    c6.615,0,11.996,5.381,11.996,11.996S327.735,320.915,321.12,320.915z"/>
	</g>
</g>
<g>
</g>
<g>
</g>
<g>
</g>
<g>
</g>
<g>
</g>
<g>
</g>
<g>
</g>
<g>
</g>
<g>
</g>
<g>
</g>
<g>
</g>
<g>
</g>
<g>
</g>
<g>
</g>
<g>
</g>
</svg>
