<?xml version="1.0" encoding="iso-8859-1"?>
<!-- Generator: Adobe Illustrator 19.0.0, SVG Export Plug-In . SVG Version: 6.00 Build 0)  -->
<svg xmlns="http://www.w3.org/2000/svg" xmlns:xlink="http://www.w3.org/1999/xlink" version="1.1" id="Layer_1" x="0px" y="0px" viewBox="0 0 512.001 512.001" style="enable-background:new 0 0 512.001 512.001;" xml:space="preserve">
<g>
	<g>
		<path d="M184.658,221.43c-10.695-22.278-19.932-41.52-19.932-58.19c0-23.194,3.686-44.34,7.249-64.789    c2.981-17.106,5.798-33.265,5.798-48.155c0-20.703-9.915-32.788-18.232-39.279C150.702,4.118,139.02,0,128.293,0    c-10.728,0-22.411,4.118-31.249,11.018c-8.317,6.491-18.232,18.576-18.232,39.279c0,14.89,2.817,31.047,5.798,48.155    c3.563,20.45,7.249,41.595,7.249,64.789c0,16.672-9.238,35.915-19.934,58.196c-2.644,5.507-5.378,11.201-8.097,17.114    c-2.009,4.369-0.095,9.54,4.274,11.548c4.373,2.011,9.542,0.096,11.55-4.274c2.659-5.782,5.359-11.41,7.973-16.853    c0.935-1.948,1.854-3.867,2.764-5.774h75.809c0.909,1.904,1.827,3.822,2.761,5.767c15.081,31.415,32.175,67.023,32.175,112.046    c0,67.42-29.744,135.367-38.331,153.572H93.778c-8.591-18.193-38.328-86.049-38.328-153.572c0-22.794,4.249-44.852,13.374-69.418    c1.673-4.508-0.623-9.52-5.132-11.194c-4.513-1.678-9.52,0.623-11.196,5.13c-9.731,26.204-14.461,50.895-14.461,75.482    c0,82.707,40.818,162.894,42.556,166.266c1.493,2.899,4.479,4.719,7.74,4.719h79.916c3.261,0,6.247-1.822,7.74-4.719    c1.738-3.373,42.556-83.559,42.556-166.266C218.547,292.026,199.757,252.883,184.658,221.43z M98.381,205.786    c2.018-4.683,3.838-9.267,5.392-13.778h49.041c1.553,4.51,3.374,9.094,5.392,13.778H98.381z M148.271,174.593h-39.958    c0.618-3.806,0.96-7.584,0.96-11.353c0-7.895-0.41-15.6-1.08-23.096h40.197c-0.669,7.495-1.08,15.202-1.08,23.096    C147.311,167.01,147.652,170.787,148.271,174.593z M106.18,122.729c-0.654-4.699-1.37-9.291-2.11-13.778h48.444    c-0.74,4.486-1.457,9.079-2.111,13.778H106.18z M155.499,91.537h-54.416c-2.58-14.885-4.858-28.936-4.858-41.24    c0-10.982,3.88-19.579,11.532-25.551c6.932-5.41,15.395-7.331,20.535-7.331c8.319,0,32.066,6.041,32.066,32.882    C160.358,62.601,158.08,76.653,155.499,91.537z"/>
	</g>
</g>
<g>
	<g>
		<path d="M306.783,177.633c-37.506,0-72.942,12.132-102.481,35.084c-3.798,2.951-4.484,8.421-1.533,12.218    c2.949,3.798,8.421,4.484,12.217,1.534c26.456-20.557,58.197-31.421,91.797-31.421c82.583,0,149.769,67.186,149.769,149.769    c0,49.833-24.688,96.263-66.036,124.197c-3.986,2.692-5.033,8.105-2.342,12.089c1.682,2.492,4.427,3.835,7.224,3.835    c1.676,0,3.372-0.484,4.866-1.493c46.151-31.177,73.702-83.001,73.702-138.628C473.967,252.631,398.97,177.633,306.783,177.633z"/>
	</g>
</g>
<g>
	<g>
		<path d="M380.213,485.565c-1.991-4.379-7.151-6.316-11.53-4.326c-19.487,8.855-40.313,13.346-61.9,13.346    c-33.042,0-64.368-10.545-90.593-30.496c-3.828-2.913-9.29-2.17-12.202,1.658c-2.912,3.828-2.17,9.29,1.658,12.202    c29.282,22.277,64.254,34.052,101.137,34.052c24.088,0,47.337-5.016,69.104-14.906    C380.265,495.105,382.202,489.943,380.213,485.565z"/>
	</g>
</g>
<g>
	<g>
		<path d="M393.56,264.365c-3.404,2.776-4.183,7.91-1.717,11.557c1.959,3.055,5.868,4.486,9.355,3.613    c3.532-0.884,6.183-3.967,6.554-7.589C408.527,264.345,399.404,259.599,393.56,264.365z"/>
	</g>
</g>
<g>
	<g>
		<path d="M355.031,280.835c-3.172-1.69-7.166-1.218-9.865,1.155c-3.21,2.822-3.881,7.787-1.483,11.346    c4.329,6.493,14.689,4.16,15.855-3.549C360.08,286.198,358.233,282.54,355.031,280.835z"/>
	</g>
</g>
<g>
	<g>
		<path d="M399.788,306.746c-1.485-3.044-4.717-4.971-8.099-4.875c-3.933,0.113-7.346,2.969-8.207,6.792    c-0.923,4.102,1.298,8.32,5.156,9.949C395.896,321.522,403.249,313.841,399.788,306.746z"/>
	</g>
</g>
<g>
</g>
<g>
</g>
<g>
</g>
<g>
</g>
<g>
</g>
<g>
</g>
<g>
</g>
<g>
</g>
<g>
</g>
<g>
</g>
<g>
</g>
<g>
</g>
<g>
</g>
<g>
</g>
<g>
</g>
</svg>
