<?xml version="1.0" encoding="iso-8859-1"?>
<!-- Generator: Adobe Illustrator 19.0.0, SVG Export Plug-In . SVG Version: 6.00 Build 0)  -->
<svg xmlns="http://www.w3.org/2000/svg" xmlns:xlink="http://www.w3.org/1999/xlink" version="1.1" id="Layer_1" x="0px" y="0px" viewBox="0 0 512 512" style="enable-background:new 0 0 512 512;" xml:space="preserve">
<g>
	<g>
		<path d="M470.525,116.251c-26.431-40.497-63.554-72.588-107.354-92.806c-4.82-2.221-10.52-0.12-12.741,4.694    c-2.222,4.814-0.122,10.519,4.693,12.741c40.52,18.704,74.865,48.395,99.324,85.867c25.091,38.44,38.353,83.136,38.353,129.253    c0,130.571-106.226,236.799-236.799,236.799c-130.571,0-236.799-106.228-236.799-236.799    c0-130.57,106.228-236.798,236.798-236.798c21.344,0,42.498,2.838,62.872,8.433c5.118,1.406,10.396-1.601,11.801-6.715    c1.404-5.113-1.603-10.396-6.715-11.8C301.927,3.068,279.062,0,255.999,0C114.84,0,0,114.84,0,255.999S114.84,512,255.999,512    S512,397.158,512,255.999C512,206.146,497.658,157.821,470.525,116.251z"/>
	</g>
</g>
<g>
	<g>
		<path d="M255.999,52.831c-112.028,0-203.168,91.141-203.168,203.168c0,55.82,22.176,107.862,62.445,146.542    c3.824,3.673,9.902,3.55,13.574-0.274c3.674-3.824,3.551-9.902-0.273-13.574c-36.462-35.023-56.545-82.149-56.545-132.694    c0-101.44,82.527-183.967,183.967-183.967s183.967,82.527,183.967,183.967s-82.528,183.967-183.967,183.967    c-36.867,0-72.432-10.863-102.851-31.414c-4.395-2.967-10.361-1.814-13.331,2.581c-2.967,4.395-1.811,10.364,2.582,13.331    c33.605,22.704,72.888,34.703,113.6,34.703c112.028,0,203.168-91.142,203.168-203.168S368.029,52.831,255.999,52.831z"/>
	</g>
</g>
<g>
	<g>
		<path d="M377.376,329.851l-73.849-73.848l43.893-43.893c13.098-13.102,13.098-34.419-0.003-47.521    c-13.103-13.103-34.419-13.101-47.522,0l-64.324,64.325c-1.247,0.942-2.44,1.971-3.564,3.095    c-4.544,4.544-7.509,10.079-8.901,15.915l-103.75,20.47c-5.202,1.027-8.587,6.075-7.56,11.278    c0.902,4.575,4.916,7.745,9.409,7.745c0.616,0,1.242-0.059,1.869-0.183l101.136-19.954c1.623,4.473,4.218,8.67,7.8,12.251    l43.493,43.494c3.749,3.749,9.827,3.749,13.578,0c3.749-3.749,3.749-9.829,0-13.577l-43.494-43.495    c-2.72-2.72-4.218-6.335-4.218-10.182c0-3.847,1.498-7.463,4.218-10.183s6.336-4.217,10.182-4.217    c3.845,0,7.463,1.498,10.182,4.217l97.844,97.843c5.615,5.614,5.615,14.749,0.001,20.364c-5.616,5.616-14.752,5.613-20.365,0    l-33.229-33.229c-3.749-3.749-9.827-3.751-13.578,0c-3.749,3.749-3.749,9.829,0,13.577l33.23,33.23    c6.55,6.55,15.155,9.825,23.76,9.825c8.605,0,17.21-3.276,23.761-9.826C390.475,364.27,390.475,342.953,377.376,329.851z     M279.529,232.009c-3.493-3.493-7.622-6.116-12.124-7.774l46.068-46.068c5.612-5.612,14.751-5.615,20.365,0    c5.616,5.615,5.616,14.751,0.001,20.366l-43.893,43.893L279.529,232.009z"/>
	</g>
</g>
<g>
</g>
<g>
</g>
<g>
</g>
<g>
</g>
<g>
</g>
<g>
</g>
<g>
</g>
<g>
</g>
<g>
</g>
<g>
</g>
<g>
</g>
<g>
</g>
<g>
</g>
<g>
</g>
<g>
</g>
</svg>
