<?xml version="1.0" encoding="iso-8859-1"?>
<!-- Generator: Adobe Illustrator 19.0.0, SVG Export Plug-In . SVG Version: 6.00 Build 0)  -->
<svg xmlns="http://www.w3.org/2000/svg" xmlns:xlink="http://www.w3.org/1999/xlink" version="1.1" id="Layer_1" x="0px" y="0px" viewBox="0 0 512.001 512.001" style="enable-background:new 0 0 512.001 512.001;" xml:space="preserve">
<g>
	<g>
		<path d="M414.15,209.526c-4.786,0-8.664,3.879-8.664,8.664v231.908c-22.815,3.699-40.877,21.758-44.576,44.575h-7.899    c-4.786,0-8.664,3.879-8.664,8.664c0,4.785,3.878,8.664,8.664,8.664h15.868c4.786,0,8.664-3.879,8.664-8.664    c0-20.185,16.422-36.606,36.606-36.606c4.786,0,8.664-3.879,8.664-8.664V218.19C422.814,213.404,418.936,209.526,414.15,209.526z"/>
	</g>
</g>
<g>
	<g>
		<path d="M324.238,301.828c-4.786,0-8.664,3.879-8.664,8.664v58.555c0,13.358-10.867,24.225-24.225,24.225    c-13.358,0-24.226-10.867-24.226-24.225V204.604c0-4.785-3.879-8.664-8.664-8.664c-4.786,0-8.664,3.879-8.664,8.664v164.444    c0,22.912,18.642,41.553,41.554,41.553c22.912,0,41.553-18.64,41.553-41.553v-58.555    C332.902,305.707,329.024,301.828,324.238,301.828z"/>
	</g>
</g>
<g>
	<g>
		<path d="M324.236,195.94c-4.786,0-8.664,3.879-8.664,8.664v73.945c0,4.785,3.879,8.664,8.664,8.664    c4.786,0,8.664-3.879,8.664-8.664v-73.945C332.9,199.819,329.022,195.94,324.236,195.94z"/>
	</g>
</g>
<g>
	<g>
		<path d="M389.722,393.267c-6.478,0-12.561-2.518-17.129-7.098c-4.577-4.576-7.098-10.66-7.098-17.129V204.601    c0.001-4.785-3.877-8.664-8.663-8.664s-8.664,3.879-8.664,8.664v164.439c0,11.098,4.323,21.533,12.166,29.376    c7.837,7.853,18.274,12.178,29.388,12.178c4.786,0,8.664-3.879,8.664-8.664C398.386,397.146,394.508,393.267,389.722,393.267z"/>
	</g>
</g>
<g>
	<g>
		<path d="M225.858,337.606c-4.786,0-8.664,3.879-8.664,8.664v22.77c0,13.359-10.862,24.227-24.214,24.227    c-4.786,0-8.664,3.879-8.664,8.664c0,4.785,3.878,8.664,8.664,8.664c22.907,0,41.542-18.642,41.542-41.555v-22.77    C234.522,341.485,230.644,337.606,225.858,337.606z"/>
	</g>
</g>
<g>
	<g>
		<path d="M225.858,195.938c-4.786,0-8.664,3.879-8.664,8.664v109.724c0,4.785,3.879,8.664,8.664,8.664    c4.786,0,8.664-3.879,8.664-8.664V204.602C234.522,199.818,230.644,195.938,225.858,195.938z"/>
	</g>
</g>
<g>
	<g>
		<path d="M403.056,52.718c-0.668-19.976-17.127-36.022-37.262-36.022c-4.227,0-8.397,0.722-12.347,2.116    C343.852,7.051,329.327,0,313.927,0c-7.88,0-15.587,1.81-22.574,5.272C284.364,1.81,276.652,0,268.764,0    c-15.4,0-29.925,7.051-39.52,18.813c-3.95-1.396-8.119-2.116-12.347-2.116c-20.14,0-36.602,16.05-37.265,36.031    c-5.48,1.607-10.687,4.135-15.348,7.479c-3.888,2.789-4.78,8.202-1.992,12.09c2.789,3.888,8.204,4.779,12.09,1.99    c4.571-3.279,9.931-5.366,15.502-6.036c2.395-0.288,4.561-1.562,5.978-3.513c1.416-1.952,1.955-4.406,1.487-6.773    c-0.271-1.37-0.409-2.711-0.409-3.984c0-11.003,8.953-19.956,19.956-19.956c3.751,0,7.425,1.07,10.621,3.094    c1.992,1.26,4.412,1.655,6.699,1.093c2.288-0.561,4.251-2.032,5.432-4.072c6.006-10.369,17.162-16.811,29.115-16.811    c6.387,0,12.594,1.794,17.95,5.189c2.831,1.795,6.446,1.795,9.278,0c5.356-3.395,11.558-5.189,17.936-5.189    c11.953,0,23.109,6.441,29.114,16.811c1.181,2.04,3.142,3.51,5.431,4.072c2.29,0.563,4.709,0.168,6.699-1.093    c3.2-2.024,6.872-3.094,10.623-3.094c11.003,0,19.955,8.953,19.955,19.956c0,1.33-0.133,2.648-0.395,3.92    c-0.49,2.374,0.038,4.844,1.454,6.811c1.416,1.967,3.59,3.251,5.997,3.54c16.849,2.026,29.555,16.366,29.555,33.356    c0,8.993-3.492,17.364-9.7,23.624H170.037c-6.203-6.261-9.692-14.633-9.692-23.624c0-2.767,0.335-5.515,0.997-8.17    c1.158-4.644-1.668-9.346-6.312-10.502c-4.636-1.156-9.346,1.669-10.502,6.311c-1.003,4.025-1.512,8.183-1.512,12.361    c0,14.646,6.105,28.204,16.866,37.865v30.567c-9.304-8.405-21.624-13.532-35.121-13.532c-2.266,0-4.494,0.161-6.685,0.441    c-0.271,0.022-0.538,0.057-0.802,0.102c-25.386,3.646-44.962,25.528-44.962,51.906v75.888c0,29.333,17.3,56.028,44.075,68.009    l43.302,19.377c-1.765,16.389-15.678,29.193-32.528,29.193c-4.786,0-8.664,3.879-8.664,8.664c0,4.785,3.878,8.664,8.664,8.664    c12.503,0,23.94-4.619,32.721-12.226v51.541c0,4.785,3.878,8.664,8.664,8.664c20.185,0,36.606,16.421,36.606,36.606    c0,4.785,3.878,8.664,8.664,8.664H324.13c4.786,0,8.664-3.879,8.664-8.664c0-4.785-3.878-8.664-8.664-8.664H221.784    c-3.699-22.815-21.76-40.876-44.575-44.575v-307.54h228.275v46.751c0,4.785,3.878,8.664,8.664,8.664    c4.786,0,8.664-3.879,8.664-8.664v-49.838c10.769-9.659,16.876-23.217,16.876-37.865    C439.689,78.686,424.428,58.946,403.056,52.718z M110.1,328.657c-12.751-10.702-20.46-26.667-20.46-43.814v-75.888    c0-14.134,8.397-26.335,20.46-31.901V328.657z M159.883,353.333l-32.454-14.523V173.947c18.123,1.368,32.454,16.541,32.454,35.009    V353.333z"/>
	</g>
</g>
<g>
	<g>
		<path d="M379.517,420.838H203.177c-4.786,0-8.664,3.879-8.664,8.664c0,4.785,3.879,8.664,8.664,8.664h176.339    c4.786,0,8.664-3.879,8.664-8.664C388.181,424.717,384.303,420.838,379.517,420.838z"/>
	</g>
</g>
<g>
</g>
<g>
</g>
<g>
</g>
<g>
</g>
<g>
</g>
<g>
</g>
<g>
</g>
<g>
</g>
<g>
</g>
<g>
</g>
<g>
</g>
<g>
</g>
<g>
</g>
<g>
</g>
<g>
</g>
</svg>
