<?xml version="1.0" encoding="iso-8859-1"?>
<!-- Generator: Adobe Illustrator 19.0.0, SVG Export Plug-In . SVG Version: 6.00 Build 0)  -->
<svg xmlns="http://www.w3.org/2000/svg" xmlns:xlink="http://www.w3.org/1999/xlink" version="1.1" id="Layer_1" x="0px" y="0px" viewBox="0 0 512 512" style="enable-background:new 0 0 512 512;" xml:space="preserve">
<g>
	<g>
		<path d="M503.495,367.226H490.71V107.95c0-20.406-16.603-37.009-37.009-37.009H120.771c-4.697,0-8.505,3.808-8.505,8.505    c0,4.697,3.808,8.505,8.505,8.505h332.931c11.026,0,19.998,8.971,19.998,19.998v259.275H314.547H197.453H38.3V107.95    c0-11.026,8.971-19.998,19.998-19.998H92.42c4.697,0,8.505-3.808,8.505-8.505c0-4.697-3.808-8.505-8.505-8.505H58.298    c-20.406,0-37.009,16.603-37.009,37.009v259.275H8.505c-4.697,0-8.505,3.808-8.505,8.505v22.789    c0,23.456,19.083,42.538,42.538,42.538h285.754c4.697,0,8.505-3.808,8.505-8.505c0-4.697-3.808-8.505-8.505-8.505H42.538    c-14.076,0-25.528-11.452-25.528-25.528v-14.283h12.784h159.227c1.11,17.796,15.932,31.935,34.002,31.935h65.952    c18.07,0,32.892-14.141,34.002-31.935h159.227h12.784v14.283c0,14.076-11.452,25.528-25.528,25.528H356.644    c-4.697,0-8.505,3.808-8.505,8.505c0,4.697,3.808,8.505,8.505,8.505h112.818c23.456,0,42.538-19.083,42.538-42.538v-22.789    C512,371.034,508.192,367.226,503.495,367.226z M288.976,399.161h-65.952c-8.685,0-15.876-6.521-16.933-14.924h99.816    C304.85,392.64,297.661,399.161,288.976,399.161z"/>
	</g>
</g>
<g>
	<g>
		<path d="M446.721,201.171c4.697,0,8.505-3.808,8.505-8.505v-76.389c0-5.431-4.418-9.849-9.849-9.849H66.625    c-5.431,0-9.849,4.418-9.849,9.849v223.971c0,4.697,3.808,8.505,8.505,8.505h381.44c4.697,0,8.505-3.808,8.505-8.505V221.017    c0-4.697-3.808-8.505-8.505-8.505c-4.697,0-8.505,3.808-8.505,8.505v110.724H73.785V123.437h364.429v69.227    C438.215,197.363,442.022,201.171,446.721,201.171z"/>
	</g>
</g>
<g>
	<g>
		<path d="M294.801,270.967c-21.394-21.394-56.206-21.395-77.602,0c-3.322,3.322-3.322,8.706,0,12.028    c3.322,3.323,8.707,3.322,12.028,0c14.764-14.762,38.785-14.762,53.547,0c1.66,1.66,3.838,2.492,6.014,2.492    c2.176,0,4.354-0.83,6.014-2.492C298.122,279.673,298.122,274.288,294.801,270.967z"/>
	</g>
</g>
<g>
	<g>
		<path d="M323.687,242.082c-18.079-18.08-42.119-28.037-67.688-28.037c-25.568,0-49.608,9.957-67.688,28.037    c-3.322,3.322-3.322,8.707,0,12.028c3.322,3.322,8.707,3.322,12.028,0c14.867-14.867,34.634-23.055,55.659-23.055    c21.025,0,40.792,8.188,55.659,23.055c1.662,1.661,3.84,2.492,6.016,2.492c2.176,0,4.354-0.83,6.014-2.492    C327.009,250.788,327.009,245.402,323.687,242.082z"/>
	</g>
</g>
<g>
	<g>
		<path d="M352.78,212.989c-53.364-53.364-140.195-53.365-193.56,0c-3.322,3.322-3.322,8.707,0,12.028    c3.322,3.322,8.707,3.322,12.028,0c46.733-46.732,122.773-46.731,169.503,0c1.661,1.661,3.838,2.492,6.015,2.492    c2.176,0,4.354-0.83,6.014-2.492C356.102,221.695,356.102,216.309,352.78,212.989z"/>
	</g>
</g>
<g>
</g>
<g>
</g>
<g>
</g>
<g>
</g>
<g>
</g>
<g>
</g>
<g>
</g>
<g>
</g>
<g>
</g>
<g>
</g>
<g>
</g>
<g>
</g>
<g>
</g>
<g>
</g>
<g>
</g>
</svg>
