<?xml version="1.0" encoding="iso-8859-1"?>
<!-- Generator: Adobe Illustrator 19.0.0, SVG Export Plug-In . SVG Version: 6.00 Build 0)  -->
<svg xmlns="http://www.w3.org/2000/svg" xmlns:xlink="http://www.w3.org/1999/xlink" version="1.1" id="Layer_1" x="0px" y="0px" viewBox="0 0 512 512" style="enable-background:new 0 0 512 512;" xml:space="preserve">
<g>
	<g>
		<path d="M238.213,59.523c4.81,0,8.707-3.899,8.707-8.707v-3.601c0-12.418-10.103-22.521-22.521-22.521h-59.508V8.707    c0-4.809-3.897-8.707-8.707-8.707H88.846c-4.81,0-8.707,3.899-8.707,8.707v69.079H54.016c-4.81,0-8.708,3.899-8.708,8.707v45.859    h-0.846c-24.311,0-44.091,19.779-44.091,44.09v252.902c0.001,4.809,3.899,8.708,8.709,8.708c4.81,0,8.708-3.899,8.708-8.708    V176.444c0-14.709,11.966-26.675,26.675-26.675h156.105c14.709,0,26.675,11.966,26.675,26.675v140.873    c0,4.809,3.897,8.707,8.708,8.707c4.81,0,8.707-3.899,8.707-8.707V176.444c0-24.311-19.779-44.09-44.09-44.09h-0.846V86.494    c0-4.809-3.897-8.707-8.708-8.707h-26.122V42.108h59.508c2.817,0,5.106,2.291,5.106,5.106v3.601    C229.505,55.625,233.403,59.523,238.213,59.523z M97.555,17.415h49.923v60.372H97.555V17.415z M182.307,95.202v37.152H62.725    V95.202H182.307z"/>
	</g>
</g>
<g>
	<g>
		<path d="M502.922,305.128c4.81,0,8.707-3.899,8.707-8.707V175.954c0-20.911-17.011-37.922-37.922-37.922h-84.639    c-20.911,0-37.922,17.012-37.922,37.922v318.631h-86.172c-4.81,0-8.707,3.899-8.707,8.708s3.897,8.707,8.707,8.707h237.947    c4.81,0,8.707-3.899,8.707-8.707V327.766c0-4.809-3.897-8.708-8.707-8.708c-4.81,0-8.708,3.899-8.708,8.708v166.819H368.562    V258.903h29.674c4.81,0,8.707-3.899,8.707-8.708s-3.897-8.707-8.707-8.707h-29.674v-65.534c0-11.308,9.2-20.507,20.507-20.507    h84.639c11.307,0,20.507,9.2,20.507,20.507v65.534h-66.955c-4.81,0-8.707,3.899-8.707,8.707s3.897,8.708,8.707,8.708h66.955    v37.518C494.214,301.229,498.112,305.128,502.922,305.128z"/>
	</g>
</g>
<g>
	<g>
		<path d="M331.715,425.68H166.749c0-0.058-0.005-0.116-0.005-0.174c0-4.326,0.904-8.565,2.637-12.467    c4.497-0.504,8.862-1.862,12.83-4.008c4.021,2.038,8.489,3.123,13.046,3.123c8.368,0,16.1-3.546,21.494-9.585    c2.474,0.547,5.009,0.823,7.587,0.823c5.322,0,10.522-1.205,15.237-3.477c5.35,5.494,12.78,8.756,20.698,8.756    c10.459,0,19.639-5.587,24.712-13.932h46.73c4.81,0,8.707-3.899,8.707-8.708s-3.897-8.707-8.707-8.707h-42.656    c-1.249-14.789-13.678-26.444-28.785-26.444c-1.718,0-3.431,0.156-5.114,0.461c-6.022-11.061-17.652-18.214-30.821-18.214    c-4.126,0-8.159,0.712-11.963,2.091c-5.4-6.435-13.484-10.384-22.145-10.384c-12.018,0-22.538,7.536-26.826,18.23    c-18.403,1.086-33.041,16.401-33.041,35.071c0,14.501,8.832,26.976,21.397,32.334c-1.585,4.825-2.431,9.889-2.431,15.037    c0,0.058,0.005,0.116,0.005,0.174h-10.559c-4.81,0-8.707,3.899-8.707,8.708v17.357c0,16.744,6.871,31.91,17.934,42.841H17.787    v-36.214c0-4.809-3.897-8.707-8.708-8.707c-4.81,0-8.707,3.899-8.707,8.707v44.92c0,4.809,3.897,8.707,8.707,8.707H235.95    c4.81,0,8.707-3.899,8.707-8.707s-3.897-8.708-8.707-8.708h-45.627c-23.623,0-42.841-19.218-42.841-42.841v-8.649h184.233    c4.81,0,8.707-3.899,8.707-8.707C340.423,429.578,336.525,425.68,331.715,425.68z M147.777,378.137    c0-9.769,7.948-17.719,17.718-17.719c1.016,0,2.063,0.094,3.114,0.28c2.414,0.428,4.902-0.186,6.844-1.688    c1.941-1.502,3.159-3.755,3.352-6.201c0.468-5.921,5.487-10.558,11.427-10.558c4.75,0,9.065,3,10.737,7.466    c0.945,2.528,3.01,4.473,5.589,5.269c2.583,0.795,5.382,0.349,7.586-1.207c2.997-2.115,6.523-3.233,10.195-3.233    c8.32,0,15.419,5.656,17.266,13.755c0.616,2.705,2.487,4.954,5.033,6.056c2.545,1.102,5.464,0.924,7.859-0.478    c1.79-1.048,3.734-1.58,5.778-1.58c6.331,0,11.481,5.15,11.481,11.48c0,6.331-5.15,11.481-11.481,11.481    c-4.505,0-8.613-2.667-10.468-6.794c-1.137-2.528-3.406-4.364-6.116-4.946c-2.709-0.582-5.534,0.16-7.606,1.999    c-3.244,2.877-7.415,4.461-11.747,4.461c-2.574,0-5.061-0.544-7.393-1.617c-4.271-1.966-9.326-0.188-11.428,4.014    c-1.964,3.928-5.897,6.367-10.26,6.367c-3.478,0-5.961-1.492-7.429-2.745c-3.201-2.727-7.893-2.777-11.15-0.121    c-3.192,2.602-7.059,3.978-11.183,3.978C155.725,395.854,147.777,387.906,147.777,378.137z"/>
	</g>
</g>
<g>
</g>
<g>
</g>
<g>
</g>
<g>
</g>
<g>
</g>
<g>
</g>
<g>
</g>
<g>
</g>
<g>
</g>
<g>
</g>
<g>
</g>
<g>
</g>
<g>
</g>
<g>
</g>
<g>
</g>
</svg>
