<?xml version="1.0" encoding="iso-8859-1"?>
<!-- Generator: Adobe Illustrator 19.0.0, SVG Export Plug-In . SVG Version: 6.00 Build 0)  -->
<svg version="1.1" id="Layer_1" xmlns="http://www.w3.org/2000/svg" xmlns:xlink="http://www.w3.org/1999/xlink" x="0px" y="0px"
	 viewBox="0 0 512 512" style="enable-background:new 0 0 512 512;" xml:space="preserve">
<g transform="translate(1 1)">
	<g>
		<g>
			<path d="M404.333,217.453c-7.68-5.12-16.213-5.973-23.04-4.267c-5.12,0.853-10.24,4.267-12.8,9.387
				c-5.12,6.827-11.947,14.507-13.653,15.36c-11.947,7.68-21.333,6.827-31.573-3.413l-47.787-47.787
				c-10.24-10.24-11.093-18.773-3.413-30.72c1.707-1.707,8.533-8.533,15.36-13.653c4.267-3.413,7.68-7.68,9.387-12.8
				c1.707-6.827,0-15.36-4.267-23.04c-2.56-4.267-24.747-41.813-46.08-52.907c-11.947-6.827-26.453-4.267-35.84,5.12L196.973,73.24
				c-29.867,29.867-49.493,80.213,22.187,151.893l65.707,65.707c35.84,36.693,66.56,49.493,92.16,49.493
				c25.6,0,45.227-11.947,60.587-26.453l14.507-14.507c9.387-9.387,11.093-23.893,5.12-35.84
				C446.147,242.2,408.6,220.013,404.333,217.453z M438.467,287.427l-14.507,14.507c-18.773,18.773-39.253,25.6-62.293,20.48
				c-20.48-5.12-42.667-19.627-65.707-42.667l-65.707-65.707c-49.493-49.493-57.173-93.013-22.187-128l14.507-14.507
				c2.56-2.56,5.973-4.267,9.387-4.267c2.56,0,4.267,0.853,6.827,2.56c14.507,7.68,33.28,35.84,39.253,46.08
				c2.56,4.267,3.413,7.68,2.56,10.24c0,0.853-20.48,17.92-23.04,21.333c-1.784,2.616-3.276,5.216-4.496,7.797
				c-2.367-6.001-4.16-12.615-4.891-19.743c-0.853-5.12-4.267-8.533-9.387-7.68s-8.533,5.12-7.68,9.387
				c2.506,23.059,14.139,41.692,23.659,53.322c2.073,3.337,4.705,6.615,7.915,9.825l47.787,47.787
				c4.71,4.71,9.565,8.187,14.541,10.448c11.584,7.73,30.451,17.705,54.579,20.272c4.267,0,7.68-3.413,8.533-6.827
				c0-5.12-3.413-8.533-7.68-9.387c-8.529-0.875-16.38-2.987-23.348-5.638c2.083-1.071,4.176-2.313,6.282-3.749
				c3.413-2.56,11.947-11.093,17.92-18.773c0,0,5.12-10.24,13.653-1.707c10.24,5.973,38.4,24.747,46.08,39.253
				C443.587,277.187,442.733,283.16,438.467,287.427z"/>
			<path d="M468.333-1H144.067H75.8C61.293-1,50.2,10.093,50.2,24.6v0.825c-19.681,3.86-34.133,20.878-34.133,41.841
				c0,20.963,14.452,37.981,34.133,41.841v10.184c-19.681,3.86-34.133,20.878-34.133,41.841c0,20.963,14.452,37.981,34.133,41.841
				v10.184c-19.681,3.86-34.133,20.878-34.133,41.841c0,20.963,14.452,37.981,34.133,41.841v10.184
				c-19.681,3.86-34.133,20.878-34.133,41.841c0,20.963,14.452,37.981,34.133,41.841v10.184
				c-19.681,3.86-34.133,20.878-34.133,41.841c0,20.963,14.452,37.981,34.133,41.841v0.825c0,14.507,11.093,25.6,25.6,25.6h68.267
				h324.267c14.507,0,25.6-11.093,25.6-25.6V24.6C493.933,10.093,482.84-1,468.333-1z M33.133,67.267
				c0-11.491,6.963-20.833,17.067-24.224v48.448C40.097,88.1,33.133,78.757,33.133,67.267z M33.133,161.133
				c0-11.491,6.963-20.833,17.067-24.224v48.448C40.097,181.967,33.133,172.624,33.133,161.133z M33.133,255
				c0-11.491,6.963-20.833,17.067-24.224v48.448C40.097,275.833,33.133,266.491,33.133,255z M33.133,348.867
				c0-11.491,6.963-20.833,17.067-24.224v48.448C40.097,369.7,33.133,360.357,33.133,348.867z M33.133,442.733
				c0-11.491,6.963-20.833,17.067-24.224v48.448C40.097,463.567,33.133,454.224,33.133,442.733z M67.267,485.4v-66.891
				c10.103,3.391,17.067,12.734,17.067,24.224c0,5.12,3.413,8.533,8.533,8.533s8.533-3.413,8.533-8.533
				c0-20.963-14.452-37.981-34.133-41.841v-76.25c10.103,3.391,17.067,12.734,17.067,24.224c0,5.12,3.413,8.533,8.533,8.533
				s8.533-3.413,8.533-8.533c0-20.963-14.452-37.981-34.133-41.841v-76.25C77.37,234.167,84.333,243.509,84.333,255
				c0,5.12,3.413,8.533,8.533,8.533S101.4,260.12,101.4,255c0-20.963-14.452-37.981-34.133-41.841v-76.25
				c10.103,3.391,17.067,12.734,17.067,24.224c0,5.12,3.413,8.533,8.533,8.533s8.533-3.413,8.533-8.533
				c0-20.963-14.452-37.981-34.133-41.841v-76.25c10.103,3.391,17.067,12.734,17.067,24.224c0,5.12,3.413,8.533,8.533,8.533
				s8.533-3.413,8.533-8.533c0-20.963-14.452-37.981-34.133-41.841V24.6c0-5.12,4.267-8.533,8.533-8.533h59.733v477.867H75.8
				C70.68,493.933,67.267,490.52,67.267,485.4z M476.867,485.4c0,5.12-3.413,8.533-8.533,8.533H152.6V16.067h315.733
				c5.12,0,8.533,3.413,8.533,8.533V485.4z"/>
			<path d="M263.533,374.467h-68.267c-5.12,0-8.533,3.413-8.533,8.533s3.413,8.533,8.533,8.533h68.267
				c5.12,0,8.533-3.413,8.533-8.533S268.653,374.467,263.533,374.467z"/>
			<path d="M434.2,374.467H297.667c-5.12,0-8.533,3.413-8.533,8.533s3.413,8.533,8.533,8.533H434.2c5.12,0,8.533-3.413,8.533-8.533
				S439.32,374.467,434.2,374.467z"/>
			<path d="M434.2,408.6h-42.667c-5.12,0-8.533,3.413-8.533,8.533s3.413,8.533,8.533,8.533H434.2c5.12,0,8.533-3.413,8.533-8.533
				S439.32,408.6,434.2,408.6z"/>
			<path d="M246.467,417.133c0,5.12,3.413,8.533,8.533,8.533h102.4c5.12,0,8.533-3.413,8.533-8.533s-3.413-8.533-8.533-8.533H255
				C249.88,408.6,246.467,412.013,246.467,417.133z"/>
			<path d="M434.2,442.733h-85.333c-5.12,0-8.533,3.413-8.533,8.533c0,5.12,3.413,8.533,8.533,8.533H434.2
				c5.12,0,8.533-3.413,8.533-8.533C442.733,446.147,439.32,442.733,434.2,442.733z"/>
			<path d="M314.733,442.733H195.267c-5.12,0-8.533,3.413-8.533,8.533c0,5.12,3.413,8.533,8.533,8.533h119.467
				c5.12,0,8.533-3.413,8.533-8.533C323.267,446.147,319.853,442.733,314.733,442.733z"/>
			<path d="M195.267,425.667h25.6c5.12,0,8.533-3.413,8.533-8.533s-3.413-8.533-8.533-8.533h-25.6c-5.12,0-8.533,3.413-8.533,8.533
				S190.147,425.667,195.267,425.667z"/>
		</g>
	</g>
</g>
<g>
</g>
<g>
</g>
<g>
</g>
<g>
</g>
<g>
</g>
<g>
</g>
<g>
</g>
<g>
</g>
<g>
</g>
<g>
</g>
<g>
</g>
<g>
</g>
<g>
</g>
<g>
</g>
<g>
</g>
</svg>
