<?xml version="1.0" encoding="iso-8859-1"?>
<!-- Generator: Adobe Illustrator 19.0.0, SVG Export Plug-In . SVG Version: 6.00 Build 0)  -->
<svg version="1.1" id="Layer_1" xmlns="http://www.w3.org/2000/svg" xmlns:xlink="http://www.w3.org/1999/xlink" x="0px" y="0px"
	 viewBox="0 0 512 512" style="enable-background:new 0 0 512 512;" xml:space="preserve">
<g transform="translate(1 1)">
	<g>
		<path d="M487.107,295.96l-44.373-170.667c-0.853-3.413-1.707-6.827-2.56-10.24c-3.413-14.507-6.827-29.867-15.36-43.52
			c-25.366-42.55-75.058-70.174-127.253-72.374C295.388-0.994,293.25-1,290.84-1h-70.827c-2.558,0-4.814,0.004-7.311,0.188
			c-51.98,2.383-101.43,29.956-127.516,72.346c-8.533,13.653-11.947,29.013-15.36,43.52c-0.853,3.413-1.707,6.827-2.56,10.24
			L22.893,295.96c-3.413,13.653,4.267,28.16,17.92,31.573l33.28,8.533c13.653,3.413,28.16-4.267,31.573-17.92l35.84-130.56
			c0.853-1.707,2.56-0.853,2.56,0V255C134.68,255,127,262.68,127,272.067v17.067c0,9.387,7.68,17.067,17.067,17.067v179.2
			c0,14.507,11.093,25.6,25.6,25.6h170.667c14.507,0,25.6-11.093,25.6-25.6V306.2c9.387,0,17.067-7.68,17.067-17.067v-17.067
			c0-9.387-7.68-17.067-17.067-17.067v-67.413c0-0.853,2.56-0.853,2.56,0l35.84,130.56c3.413,11.093,13.653,18.773,24.747,18.773
			c2.56,0,4.267-0.853,6.827-0.853l33.28-8.533C482.84,323.267,490.52,309.613,487.107,295.96z M289.987,16.067
			c0.284,0,0.566,0.012,0.85,0.014L255,145.773L220.013,16.067H289.987z M280.6,272.067v25.6v25.6h-17.067v-51.2H280.6z
			 M246.467,331.8v25.6H229.4v-59.733v-25.6h6.827h1.707h8.533V331.8z M143.213,167.96c-8.533,0-15.36,5.973-17.92,13.653
			l-35.84,130.56c-0.853,4.267-5.973,6.827-10.24,5.973l-33.28-8.533c-4.267-0.853-6.827-5.973-5.973-10.24l44.373-170.667
			c0.853-3.413,1.707-6.827,2.56-10.24c3.413-13.653,5.973-26.453,12.8-38.4c21.112-33.93,60.214-57.852,102.586-62.965
			l43.698,161.843L230.765,255h-9.899h-59.733v-69.12C161.133,176.493,153.453,167.96,143.213,167.96z M144.067,272.067h8.533
			h59.733v17.067H152.6h-8.533V272.067z M348.867,485.4c0,5.12-3.413,8.533-8.533,8.533H169.667c-5.12,0-8.533-3.413-8.533-8.533
			V306.2h51.2v51.2c0,9.387,7.68,17.067,17.067,17.067h17.067c9.387,0,17.067-7.68,17.067-17.067v-17.067H280.6
			c9.387,0,17.067-7.68,17.067-17.067V306.2h51.2V485.4z M365.933,289.133H357.4h-59.733v-17.067H357.4h8.533V289.133z
			 M464.067,311.32l-33.28,8.533c-4.267,0.853-9.387-1.707-10.24-5.973l-35.84-130.56c-2.56-8.533-9.387-13.653-17.92-13.653
			c-9.387,0-17.92,8.533-17.92,17.92V255h-59.733H255h-6.485l15.019-75.093l44.16-162.739c42.728,5.276,81.491,29.323,101.76,64.606
			c6.827,11.093,10.24,24.747,13.653,38.4c0.853,3.413,1.707,6.827,2.56,10.24L470.04,301.08
			C470.893,305.347,468.333,310.467,464.067,311.32z"/>
	</g>
</g>
<g>
</g>
<g>
</g>
<g>
</g>
<g>
</g>
<g>
</g>
<g>
</g>
<g>
</g>
<g>
</g>
<g>
</g>
<g>
</g>
<g>
</g>
<g>
</g>
<g>
</g>
<g>
</g>
<g>
</g>
</svg>
