<?xml version="1.0" encoding="iso-8859-1"?>
<!-- Generator: Adobe Illustrator 19.0.0, SVG Export Plug-In . SVG Version: 6.00 Build 0)  -->
<svg version="1.1" id="Layer_1" xmlns="http://www.w3.org/2000/svg" xmlns:xlink="http://www.w3.org/1999/xlink" x="0px" y="0px"
	 viewBox="0 0 503.607 503.607" style="enable-background:new 0 0 503.607 503.607;" xml:space="preserve">
<g transform="translate(1 1)">
	<g>
		<path d="M477.426,242.41h-1.651L437.977,51.879c-2.518-10.911-12.59-19.305-24.341-19.305H87.971
			c-11.751,0-21.823,8.393-24.341,20.144L25.845,242.41H24.18C9.911,242.41-1,253.321-1,267.59v92.328v16.787v41.967v16.787v8.393
			c0,14.269,10.911,25.18,25.18,25.18h57.075c9.233,0,17.626-5.036,21.823-14.269l9.877-19.305h275.305l9.428,19.305
			c4.197,9.233,13.43,14.269,22.662,14.269h57.075c14.269,0,25.18-10.911,25.18-25.18v-8.393v-16.787v-41.967v-16.787V267.59
			C502.607,253.321,491.695,242.41,477.426,242.41z M79.577,56.075c0.839-4.197,4.197-6.715,8.393-6.715h325.666
			c4.197,0,7.554,3.357,8.393,6.715l36.931,186.334h-15.614c-5.095-42.262-48.217-75.541-100.216-75.541
			c-41.156,0-76.746,20.85-92.328,50.499c-15.582-29.648-51.172-50.499-92.328-50.499c-51.999,0-95.121,33.279-100.216,75.541
			H42.646L79.577,56.075z M426.226,242.41h-166.19c5.036-32.734,40.289-58.754,83.095-58.754S421.19,209.675,426.226,242.41z
			 M241.57,242.41H75.38c5.036-32.734,40.289-58.754,83.095-58.754C201.282,183.656,236.534,209.675,241.57,242.41z M88.81,447.21
			c-1.679,3.357-4.197,5.036-7.554,5.036H24.18c-5.036,0-8.393-3.357-8.393-8.393v-8.393h78.898L88.81,447.21z M485.82,443.852
			c0,5.036-3.357,8.393-8.393,8.393h-57.075c-3.357,0-5.875-2.518-7.554-5.036l-5.875-11.751h78.898V443.852z M485.82,418.672
			H380.062H121.544H15.787v-41.967H485.82V418.672z M15.787,359.918v-25.18h25.18c5.036,0,8.393-3.357,8.393-8.393
			c0-5.036-3.357-8.393-8.393-8.393h-25.18v-16.787h25.18c5.036,0,8.393-3.357,8.393-8.393s-3.357-8.393-8.393-8.393h-25.18V267.59
			c0-5.036,3.357-8.393,8.393-8.393h33.574H242.41h16.787h184.656h33.574c5.036,0,8.393,3.357,8.393,8.393v16.787h-33.574
			c-5.036,0-8.393,3.357-8.393,8.393s3.357,8.393,8.393,8.393h33.574v16.787h-33.574c-5.036,0-8.393,3.357-8.393,8.393
			c0,5.036,3.357,8.393,8.393,8.393h33.574v25.18H15.787z"/>
	</g>
</g>
<g>
</g>
<g>
</g>
<g>
</g>
<g>
</g>
<g>
</g>
<g>
</g>
<g>
</g>
<g>
</g>
<g>
</g>
<g>
</g>
<g>
</g>
<g>
</g>
<g>
</g>
<g>
</g>
<g>
</g>
</svg>
