<?xml version="1.0" encoding="iso-8859-1"?>
<!-- Generator: Adobe Illustrator 19.0.0, SVG Export Plug-In . SVG Version: 6.00 Build 0)  -->
<svg version="1.1" id="Layer_1" xmlns="http://www.w3.org/2000/svg" xmlns:xlink="http://www.w3.org/1999/xlink" x="0px" y="0px"
	 viewBox="0 0 512 512" style="enable-background:new 0 0 512 512;" xml:space="preserve">
<g transform="translate(1 1)">
	<g>
		<g>
			<path d="M58.733,459.8h102.4c5.12,0,8.533-3.413,8.533-8.533v-102.4c0-5.12-3.413-8.533-8.533-8.533h-102.4
				c-5.12,0-8.533,3.413-8.533,8.533v102.4C50.2,456.387,53.613,459.8,58.733,459.8z M152.6,442.733h-34.133V357.4H152.6V442.733z
				 M67.267,357.4H101.4v85.333H67.267V357.4z"/>
			<path d="M348.867,459.8h102.4c5.12,0,8.533-3.413,8.533-8.533v-102.4c0-5.12-3.413-8.533-8.533-8.533h-102.4
				c-5.12,0-8.533,3.413-8.533,8.533v102.4C340.333,456.387,343.747,459.8,348.867,459.8z M442.733,442.733H408.6V357.4h34.133
				V442.733z M357.4,357.4h34.133v85.333H357.4V357.4z"/>
			<path d="M161.133,169.667h-102.4c-5.12,0-8.533,3.413-8.533,8.533v102.4c0,5.12,3.413,8.533,8.533,8.533h102.4
				c5.12,0,8.533-3.413,8.533-8.533V178.2C169.667,173.08,166.253,169.667,161.133,169.667z M152.6,186.733v34.133H67.267v-34.133
				H152.6z M67.267,272.067v-34.133H101.4v8.533c0,5.12,3.413,8.533,8.533,8.533s8.533-3.413,8.533-8.533v-8.533H152.6v34.133
				H67.267z"/>
			<path d="M451.267,169.667h-102.4c-5.12,0-8.533,3.413-8.533,8.533v102.4c0,5.12,3.413,8.533,8.533,8.533h102.4
				c5.12,0,8.533-3.413,8.533-8.533V178.2C459.8,173.08,456.387,169.667,451.267,169.667z M442.733,186.733v34.133H357.4v-34.133
				H442.733z M357.4,272.067v-34.133h34.133v8.533c0,5.12,3.413,8.533,8.533,8.533c5.12,0,8.533-3.413,8.533-8.533v-8.533h34.133
				v34.133H357.4z"/>
			<path d="M306.2,169.667H203.8c-5.12,0-8.533,3.413-8.533,8.533v102.4c0,5.12,3.413,8.533,8.533,8.533h102.4
				c5.12,0,8.533-3.413,8.533-8.533V178.2C314.733,173.08,311.32,169.667,306.2,169.667z M297.667,186.733v34.133h-85.333v-34.133
				H297.667z M212.333,272.067v-34.133h34.133v8.533c0,5.12,3.413,8.533,8.533,8.533s8.533-3.413,8.533-8.533v-8.533h34.133v34.133
				H212.333z"/>
			<path d="M502.467,306.2h-8.533V152.6h8.533c5.12,0,8.533-3.413,8.533-8.533c0-5.12-3.413-8.533-8.533-8.533h-8.533v-17.067v-25.6
				c0-1.213-0.03-2.418-0.075-3.62c-0.005-0.118-0.008-0.235-0.013-0.353C491.78,38.703,450.788-1,400.067-1H109.933
				C59.212-1,18.22,38.703,16.155,88.894c-0.005,0.118-0.009,0.235-0.013,0.353c-0.045,1.201-0.075,2.407-0.075,3.62v25.6v17.067
				H7.533c-5.12,0-8.533,3.413-8.533,8.533c0,5.12,3.413,8.533,8.533,8.533h8.533v153.6H7.533c-5.12,0-8.533,3.413-8.533,8.533
				s3.413,8.533,8.533,8.533h8.533v179.2c0,5.12,3.413,8.533,8.533,8.533h170.667h119.467H485.4c5.12,0,8.533-3.413,8.533-8.533
				v-179.2h8.533c5.12,0,8.533-3.413,8.533-8.533S507.587,306.2,502.467,306.2z M33.133,152.6h443.733v153.6H33.133V152.6z
				 M451.267,50.2h12.795c0.571,0.859,1.13,1.726,1.667,2.609c0.095,0.155,0.183,0.313,0.276,0.468
				c0.548,0.916,1.083,1.842,1.593,2.783c0.032,0.058,0.063,0.117,0.095,0.175c5.21,9.665,8.402,20.601,9.045,32.26
				c0.013,0.24,0.027,0.479,0.038,0.718c0.056,1.211,0.091,2.427,0.091,3.652v8.533h-25.6V50.2z M33.225,89.214
				c0.011-0.24,0.025-0.479,0.038-0.718c0.643-11.658,3.835-22.594,9.045-32.26c0.032-0.058,0.063-0.117,0.095-0.175
				c0.51-0.94,1.044-1.865,1.591-2.78c0.094-0.157,0.183-0.316,0.279-0.473c0.537-0.883,1.096-1.75,1.666-2.608h12.795v51.2h-25.6
				v-8.533C33.133,91.641,33.169,90.425,33.225,89.214z M58.733,118.467c9.387,0,17.067-7.68,17.067-17.067V50.2
				c0-8.542-6.366-15.65-14.585-16.864c13.222-10.808,30.161-17.27,48.718-17.27h290.133c18.557,0,35.496,6.462,48.718,17.27
				C440.567,34.55,434.2,41.658,434.2,50.2v51.2c0,9.387,7.68,17.067,17.067,17.067h25.6v17.067H33.133v-17.067H58.733z
				 M246.467,434.2v59.733H203.8V357.4h42.667v59.733c-5.12,0-8.533,3.413-8.533,8.533S241.347,434.2,246.467,434.2z
				 M263.533,493.933V434.2c5.12,0,8.533-3.413,8.533-8.533s-3.413-8.533-8.533-8.533V357.4H306.2v136.533H263.533z
				 M476.867,493.933h-153.6V348.867c0-5.12-3.413-8.533-8.533-8.533H195.267c-5.12,0-8.533,3.413-8.533,8.533v145.067h-153.6
				V323.267h443.733V493.933z"/>
			<path d="M229.4,118.467h51.2c9.387,0,17.067-7.68,17.067-17.067V50.2c0-9.387-7.68-17.067-17.067-17.067h-51.2
				c-9.387,0-17.067,7.68-17.067,17.067v51.2C212.333,110.787,220.013,118.467,229.4,118.467z M229.4,50.2h51.2v51.2h-51.2V50.2z"/>
			<path d="M118.467,118.467h51.2c9.387,0,17.067-7.68,17.067-17.067V50.2c0-9.387-7.68-17.067-17.067-17.067h-51.2
				c-9.387,0-17.067,7.68-17.067,17.067v51.2C101.4,110.787,109.08,118.467,118.467,118.467z M118.467,50.2h51.2v51.2h-51.2V50.2z"
				/>
			<path d="M340.333,118.467h51.2c9.387,0,17.067-7.68,17.067-17.067V50.2c0-9.387-7.68-17.067-17.067-17.067h-51.2
				c-9.387,0-17.067,7.68-17.067,17.067v51.2C323.267,110.787,330.947,118.467,340.333,118.467z M340.333,50.2h51.2v51.2h-51.2V50.2
				z"/>
		</g>
	</g>
</g>
<g>
</g>
<g>
</g>
<g>
</g>
<g>
</g>
<g>
</g>
<g>
</g>
<g>
</g>
<g>
</g>
<g>
</g>
<g>
</g>
<g>
</g>
<g>
</g>
<g>
</g>
<g>
</g>
<g>
</g>
</svg>
