<?xml version="1.0" encoding="iso-8859-1"?>
<!-- Generator: Adobe Illustrator 19.0.0, SVG Export Plug-In . SVG Version: 6.00 Build 0)  -->
<svg version="1.1" id="Layer_1" xmlns="http://www.w3.org/2000/svg" xmlns:xlink="http://www.w3.org/1999/xlink" x="0px" y="0px"
	 viewBox="0 0 512 512" style="enable-background:new 0 0 512 512;" xml:space="preserve">
<g transform="translate(1 1)">
	<g>
		<path d="M365.933,459.8h-14.841l6.307-29.013c5.973-25.6,8.533-51.2,8.533-77.653c0-20.48-2.56-40.96-5.973-60.587
			c-16.213-85.333-58.88-158.72-120.32-206.507c-17.3-13.368-38.229-24.555-61.44-32.907V7.533c0-5.12-3.413-8.533-8.533-8.533
			c-5.12,0-8.533,3.413-8.533,8.533v51.2V459.8h-17.067c-5.12,0-8.533,3.413-8.533,8.533v34.133c0,5.12,3.413,8.533,8.533,8.533
			h221.867c5.12,0,8.533-3.413,8.533-8.533v-34.133C374.467,463.213,371.053,459.8,365.933,459.8z M178.2,70.68
			c19.627,7.68,36.693,17.067,51.2,28.16c58.027,45.227,98.987,114.347,114.347,196.267c3.413,19.627,5.12,38.4,5.12,58.027
			c0,24.747-3.413,50.347-8.533,74.24l-6.827,32.427h-25.287l9.927-50.347c1.525-7.627,2.691-15.259,3.534-22.962
			c0.466-1.039,0.732-2.212,0.732-3.491c0-0.697-0.069-1.359-0.191-1.989c0.683-7.752,1.044-15.594,1.044-23.611
			c0-17.92-2.56-45.227-5.973-61.44c-2.802-14.773-6.599-29.161-11.309-43.06c-0.157-0.761-0.395-1.472-0.719-2.118
			c-11.046-31.845-26.939-61.051-46.852-86.236c-1.707-2.56-4.267-3.413-6.827-3.413h-39.253c-5.12,0-8.533,3.413-8.533,8.533V459.8
			h-25.6V70.68z M302.123,306.2c1.075,7.62,2.086,16.64,2.832,25.6h-84.088v-25.6H302.123z M306.2,357.4
			c0,5.778-0.212,11.452-0.603,17.067h-84.73v-25.6h85.156C306.138,351.871,306.2,354.739,306.2,357.4z M220.867,391.533h82.912
			c-0.737,5.137-1.623,10.25-2.699,15.36l-1.982,10.24h-78.231V391.533z M220.867,289.133v-25.6h70.569
			c2.775,8.373,5.226,16.914,7.325,25.6H220.867z M220.867,246.467v-25.6h52.858c4.191,8.279,8.026,16.829,11.504,25.6H220.867z
			 M220.867,203.8v-25.6h26.453c6.086,8.114,11.772,16.675,17.052,25.6H220.867z M220.867,434.2h74.928l-4.955,25.6h-69.973V434.2z
			 M357.4,493.933H152.6v-17.067h17.067h42.667h85.333h42.667H357.4V493.933z"/>
	</g>
</g>
<g>
</g>
<g>
</g>
<g>
</g>
<g>
</g>
<g>
</g>
<g>
</g>
<g>
</g>
<g>
</g>
<g>
</g>
<g>
</g>
<g>
</g>
<g>
</g>
<g>
</g>
<g>
</g>
<g>
</g>
</svg>
