<?xml version="1.0" encoding="iso-8859-1"?>
<!-- Generator: Adobe Illustrator 19.0.0, SVG Export Plug-In . SVG Version: 6.00 Build 0)  -->
<svg version="1.1" id="Layer_1" xmlns="http://www.w3.org/2000/svg" xmlns:xlink="http://www.w3.org/1999/xlink" x="0px" y="0px"
	 viewBox="0 0 512 512" style="enable-background:new 0 0 512 512;" xml:space="preserve">
<g transform="translate(1 1)">
	<g>
		<g>
			<path d="M437.042,75.472c-0.324-0.482-0.701-0.944-1.135-1.378s-0.896-0.812-1.378-1.135C388.233,27.293,324.764-1,255-1
				C114.2-1-1,114.2-1,255c0,69.764,28.293,133.233,73.958,179.528c0.324,0.482,0.701,0.944,1.135,1.378
				c0.494,0.494,0.99,0.907,1.504,1.258C121.882,482.757,185.299,511,255,511c140.8,0,256-115.2,256-256
				C511,185.236,482.707,121.767,437.042,75.472z M255,16.067c62.685,0,119.922,24.477,162.657,64.33l-40.337,40.337l-2.854-9.946
				v-0.853c-6.827-15.36-22.187-25.6-39.253-25.6H174.787c-17.067,0-32.427,10.24-39.253,25.6v0.853l-29.867,104.107
				c-1.707,3.413-5.12,5.973-8.533,5.973h-4.267c-14.507,0-25.6,11.093-25.6,25.6v93.867c0,14.507,11.093,25.6,25.6,25.6v39.253
				l-12.471,12.471C40.544,374.922,16.067,317.685,16.067,255C16.067,123.587,123.587,16.067,255,16.067z M365.933,365.933h34.133
				V408.6c0,5.12-3.413,8.533-8.533,8.533h-17.067c-5.12,0-8.533-3.413-8.533-8.533V365.933z M408.6,348.867h-51.2H173.08
				l68.267-68.267h47.787c5.12,0,8.533-3.413,8.533-8.533c0-5.12-3.413-8.533-8.533-8.533h-30.72l42.667-42.667h36.693
				c5.12,0,10.24-2.56,13.653-6.827s4.267-10.24,2.56-15.36l-7.089-23.631l22.077-22.077l19.145,66.188
				c3.413,11.093,13.653,18.773,24.747,18.773h4.267c5.12,0,8.533,3.413,8.533,8.533v93.867c0,5.12-3.413,8.533-8.533,8.533H408.6z
				 M144.067,377.88v30.72c0,5.12-3.413,8.533-8.533,8.533h-17.067c-4.047,0-7.02-2.139-8.092-5.562L144.067,377.88z
				 M109.933,388.12v-22.187h22.187L109.933,388.12z M333.244,188.703l4.529,15.097h-19.627L333.244,188.703z M294.253,203.8H173.08
				l20.48-68.267h123.733l10.437,34.79L294.253,203.8z M341.384,156.67l-7.877-26.256c-1.707-6.827-8.533-11.947-16.213-11.947
				H193.56c-7.68,0-13.653,4.267-16.213,11.947l-20.48,68.267c-1.707,5.12-0.853,11.093,2.56,15.36s8.533,6.827,13.653,6.827
				h104.107l-42.667,42.667h-13.653c-5.12,0-8.533,3.413-8.533,8.533c0,4.048,2.139,7.02,5.562,8.092l-68.708,68.708H101.4h-8.533
				c-5.12,0-8.533-3.413-8.533-8.533v-93.867c0-5.12,3.413-8.533,8.533-8.533h4.267c11.093,0,21.333-7.68,24.747-18.773
				l29.867-103.253c4.267-8.533,12.8-14.507,23.04-14.507h160.427c9.387,0,18.773,5.12,23.04,14.507l5.361,18.533L341.384,156.67z
				 M255,493.933c-62.685,0-119.922-24.477-162.657-64.33l5.513-5.513c4.6,6.205,12.004,10.11,20.61,10.11h17.067
				c14.507,0,25.6-11.093,25.6-25.6v-42.667h187.733V408.6c0,14.507,11.093,25.6,25.6,25.6h17.067c14.507,0,25.6-11.093,25.6-25.6
				v-42.667c14.507,0,25.6-11.093,25.6-25.6v-93.867c0-14.507-11.093-25.6-25.6-25.6h-4.267c-4.267,0-7.68-2.56-8.533-5.973
				L382.647,139.3l46.957-46.957c39.853,42.735,64.33,99.972,64.33,162.657C493.933,386.413,386.413,493.933,255,493.933z"/>
			<path d="M109.933,289.133c0,18.773,15.36,34.133,34.133,34.133c18.773,0,34.133-15.36,34.133-34.133
				c0-18.773-15.36-34.133-34.133-34.133C125.293,255,109.933,270.36,109.933,289.133z M161.133,289.133
				c0,9.387-7.68,17.067-17.067,17.067c-9.387,0-17.067-7.68-17.067-17.067s7.68-17.067,17.067-17.067
				C153.453,272.067,161.133,279.747,161.133,289.133z"/>
			<path d="M365.933,255c-18.773,0-34.133,15.36-34.133,34.133c0,18.773,15.36,34.133,34.133,34.133s34.133-15.36,34.133-34.133
				C400.067,270.36,384.707,255,365.933,255z M365.933,306.2c-9.387,0-17.067-7.68-17.067-17.067s7.68-17.067,17.067-17.067
				S383,279.747,383,289.133S375.32,306.2,365.933,306.2z"/>
			<path d="M272.067,297.667h-34.133c-5.12,0-8.533,3.413-8.533,8.533s3.413,8.533,8.533,8.533h34.133
				c5.12,0,8.533-3.413,8.533-8.533S277.187,297.667,272.067,297.667z"/>
		</g>
	</g>
</g>
<g>
</g>
<g>
</g>
<g>
</g>
<g>
</g>
<g>
</g>
<g>
</g>
<g>
</g>
<g>
</g>
<g>
</g>
<g>
</g>
<g>
</g>
<g>
</g>
<g>
</g>
<g>
</g>
<g>
</g>
</svg>
