<?xml version="1.0" encoding="iso-8859-1"?>
<!-- Generator: Adobe Illustrator 19.0.0, SVG Export Plug-In . SVG Version: 6.00 Build 0)  -->
<svg version="1.1" id="Layer_1" xmlns="http://www.w3.org/2000/svg" xmlns:xlink="http://www.w3.org/1999/xlink" x="0px" y="0px"
	 viewBox="0 0 512.527 512.527" style="enable-background:new 0 0 512.527 512.527;" xml:space="preserve">
<g transform="translate(1 1)">
	<g>
		<path d="M306.446,323.793c0-19.627,7.68-38.4,21.333-52.907L483.086,107.9c2.56-2.56,3.413-5.973,1.707-9.387
			c-0.853-3.413-4.267-5.12-7.68-5.12H362.536l19.003-52.907l81.067-24.747c5.12-0.853,7.68-5.973,5.973-10.24
			c-0.853-5.12-5.973-7.68-10.24-5.973l-85.333,25.6c-3.413,0.853-5.12,2.56-5.973,5.12L344.3,93.393H160.823
			c-4.235-33.555-33.054-59.733-67.71-59.733c-37.547,0-68.267,30.72-68.267,68.267c0,37.547,30.72,68.267,68.267,68.267
			c12.679,0,24.772-3.497,35.328-9.994l52.17,54.75c0.129,0.162,0.255,0.331,0.395,0.471l52.907,55.467
			c12.767,13.565,20.308,30.862,21.233,49.097c-0.485,1.118-0.753,2.395-0.753,3.809v93.867c0,28.16-16.213,52.907-42.667,63.147
			l-36.693,14.507c-3.413,1.707-5.973,5.12-5.12,9.387c0.853,4.267,4.267,6.827,8.533,6.827h204.8c4.267,0,7.68-2.56,6.827-7.68
			c0.853-4.267-1.707-7.68-5.12-9.387l-36.693-14.507c-25.6-10.24-42.667-34.987-42.667-63.147v-88.979
			C306.142,326.659,306.446,325.303,306.446,323.793z M457.486,110.46l-57.621,60.398c-17.759-0.757-35.314,6.038-49.045,18.962
			c-8.073,7.497-18.094,12.254-27.958,14.031l33.545-93.391H457.486z M304.669,203.48c-6.094-1.608-13.065-5.289-17.849-12.806
			c-9.387-11.947-22.187-19.627-37.547-20.48c-16.213-0.853-34.133,6.827-46.933,19.627c-4.243,3.637-8.492,6.829-13.041,9.299
			l-52.134-54.319c-0.375-0.706-0.83-1.358-1.385-1.913l-31.573-32.427h48.64h185.31L304.669,203.48z M93.113,153.127
			c-28.16,0-51.2-23.04-51.2-51.2c0-28.16,23.04-51.2,51.2-51.2c25.6,0,46.08,18.773,50.347,42.667h-58.88
			c-3.413,0-6.827,1.707-7.68,5.12c-0.641,1.283-0.921,2.565-0.884,3.757c0.048,2.072,0.981,4.02,2.591,5.629l37.456,39.308
			C109.258,151.433,101.608,153.127,93.113,153.127z M251.873,264.895c-1.627-2.048-3.347-4.035-5.16-5.955l-45.107-46.997
			c5.066-2.553,9.301-5.943,13.533-10.176c9.387-10.24,22.187-15.36,34.133-14.507c9.387,0,18.773,5.12,24.747,12.8
			c6.036,8.719,14.716,15.313,25.195,18.573l-8.981,24.948c-1.707,4.267,0.853,9.387,5.12,11.093
			c0.853,0.853,1.707,0.853,2.56,0.853c3.413,0,6.827-2.56,8.533-5.973l10.242-28.515c16.281-0.182,33.147-6.939,46.931-19.272
			c5.12-5.12,11.093-8.533,17.067-11.093l-64.853,68.267c-14.507,15.36-23.893,34.987-25.6,56.32h-17.92
			c-1.76-14.667-6.343-28.527-13.75-40.748c-1.347-2.222-2.787-4.39-4.32-6.499C253.476,266.959,252.686,265.919,251.873,264.895z
			 M339.726,494.46H222.819c29.867-13.653,49.493-43.52,50.347-77.653v-84.48h17.067v84.48
			C290.233,450.94,309.006,480.807,339.726,494.46z"/>
	</g>
</g>
<g>
</g>
<g>
</g>
<g>
</g>
<g>
</g>
<g>
</g>
<g>
</g>
<g>
</g>
<g>
</g>
<g>
</g>
<g>
</g>
<g>
</g>
<g>
</g>
<g>
</g>
<g>
</g>
<g>
</g>
</svg>
