<?xml version="1.0" encoding="iso-8859-1"?>
<!-- Generator: Adobe Illustrator 19.0.0, SVG Export Plug-In . SVG Version: 6.00 Build 0)  -->
<svg version="1.1" id="Layer_1" xmlns="http://www.w3.org/2000/svg" xmlns:xlink="http://www.w3.org/1999/xlink" x="0px" y="0px"
	 viewBox="0 0 512 512" style="enable-background:new 0 0 512 512;" xml:space="preserve">
<g transform="translate(1 1)">
	<g>
		<g>
			<path d="M216.6-1c-5.12,0-8.533,3.413-8.533,8.533V127c0,15.83-10.921,29.232-25.6,33.046V7.533c0-5.12-3.413-8.533-8.533-8.533
				S165.4,2.413,165.4,7.533v152.512c-14.679-3.814-25.6-17.216-25.6-33.046V7.533c0-5.12-3.413-8.533-8.533-8.533
				s-8.533,3.413-8.533,8.533V127c0,25.253,18.533,46.375,42.667,50.47V255c-23.893,0-42.667,18.773-42.667,42.667v170.667
				c0,23.893,18.773,42.667,42.667,42.667h17.067c23.893,0,42.667-18.773,42.667-42.667V297.667
				c0-23.893-18.773-42.667-42.667-42.667v-77.53c24.134-4.095,42.667-25.217,42.667-50.47V7.533C225.133,2.413,221.72-1,216.6-1z
				 M208.067,297.667v170.667c0,14.507-11.093,25.6-25.6,25.6H165.4c-14.507,0-25.6-11.093-25.6-25.6V297.667
				c0-14.507,11.093-25.6,25.6-25.6h17.067C196.973,272.067,208.067,283.16,208.067,297.667z"/>
			<path d="M336.067,374.467c-5.12,0-8.533,3.413-8.533,8.533s3.413,8.533,8.533,8.533S344.6,388.12,344.6,383
				S341.187,374.467,336.067,374.467z"/>
			<path d="M361.667,258.449V16.067C361.667,6.68,353.987-1,344.6-1c-13.653,0-26.453,6.827-34.987,17.067
				c-16.213,20.48-24.747,45.227-24.747,71.68v63.147c0,38.099,10.214,74.153,28.803,106.347
				c-16.903,5.645-28.803,21.408-28.803,40.427v170.667c0,23.893,18.773,42.667,42.667,42.667H344.6
				c23.893,0,42.667-18.773,42.667-42.667V297.667C387.267,279.873,376.851,264.925,361.667,258.449z M301.933,87.747
				c0-22.187,7.68-44.373,21.333-61.44c5.12-6.827,12.8-10.24,21.333-10.24V255h-11.947c-20.48-31.573-30.72-67.413-30.72-104.107
				V87.747z M370.2,468.333c0,14.507-11.093,25.6-25.6,25.6h-17.067c-14.507,0-25.6-11.093-25.6-25.6V297.667
				c0-14.507,11.093-25.6,25.6-25.6H344.6c14.507,0,25.6,11.093,25.6,25.6V468.333z"/>
			<path d="M173.933,374.467c-5.12,0-8.533,3.413-8.533,8.533s3.413,8.533,8.533,8.533s8.533-3.413,8.533-8.533
				S179.053,374.467,173.933,374.467z"/>
		</g>
	</g>
</g>
<g>
</g>
<g>
</g>
<g>
</g>
<g>
</g>
<g>
</g>
<g>
</g>
<g>
</g>
<g>
</g>
<g>
</g>
<g>
</g>
<g>
</g>
<g>
</g>
<g>
</g>
<g>
</g>
<g>
</g>
</svg>
