<?xml version="1.0" encoding="iso-8859-1"?>
<!-- Generator: Adobe Illustrator 19.0.0, SVG Export Plug-In . SVG Version: 6.00 Build 0)  -->
<svg version="1.1" id="Layer_1" xmlns="http://www.w3.org/2000/svg" xmlns:xlink="http://www.w3.org/1999/xlink" x="0px" y="0px"
	 viewBox="0 0 512.362 512.362" style="enable-background:new 0 0 512.362 512.362;" xml:space="preserve">
<g transform="translate(1 1)">
	<g>
		<g>
			<path d="M273.101-0.638c-33.28-2.56-64.853,8.533-89.6,30.72c-23.893,22.187-38.4,53.76-39.253,86.187
				c0,17.92,11.093,33.28,28.16,36.693c10.24,1.707,20.48-0.853,28.16-7.68s11.947-16.213,11.947-26.453
				c0-15.36,6.827-29.867,18.773-40.107c11.947-9.387,27.307-13.653,42.667-10.24c20.48,4.267,36.693,20.48,40.107,40.96
				c3.413,21.333-5.12,41.813-23.04,52.907c-27.307,17.92-93.867,49.493-121.173,62.293c-24.747,11.093-40.96,34.133-42.667,58.88
				c0,1.707,0,4.267,0,5.973v179.2c0,23.893,18.773,42.667,42.667,42.667h170.667c23.893,0,42.667-18.773,42.667-42.667V122.242
				C383.181,59.949,332.834,4.482,273.101-0.638z M366.968,469.549c0,14.507-11.093,25.6-25.6,25.6H170.701
				c-14.507,0-25.6-11.093-25.6-25.6v-179.2c0-1.707,0-3.413,0-5.12c1.707-19.627,13.653-36.693,32.427-45.227
				c34.133-16.213,95.573-46.08,122.88-63.147c23.893-15.36,35.84-42.667,30.72-69.973c-5.12-27.307-26.453-49.493-53.76-54.613
				c-4.267-0.853-9.387-1.707-13.653-1.707c-15.36,0-30.72,5.12-43.52,15.36c-15.36,13.653-24.747,32.427-24.747,52.907
				c0,5.12-2.56,10.24-5.973,13.653c-4.267,3.413-9.387,4.267-14.507,3.413c-7.68-1.707-13.653-9.387-13.653-18.773
				c0.853-29.013,12.8-54.613,33.28-74.24c21.333-18.773,48.64-28.16,76.8-26.453c51.2,4.267,94.72,52.053,95.573,105.813V469.549z"
				/>
			<path d="M161.314,298.029v136.533c0,5.12,3.413,8.533,8.533,8.533h170.667c5.12,0,8.533-3.413,8.533-8.533V298.029
				c0-5.12-3.413-8.533-8.533-8.533H169.848C164.728,289.496,161.314,292.909,161.314,298.029z M178.381,306.562h153.6v119.467
				h-153.6V306.562z"/>
			<path d="M306.381,323.629h-102.4c-5.12,0-8.533,3.413-8.533,8.533c0,5.12,3.413,8.533,8.533,8.533h102.4
				c5.12,0,8.533-3.413,8.533-8.533C314.914,327.042,311.501,323.629,306.381,323.629z"/>
			<path d="M306.381,357.762h-42.667c-5.12,0-8.533,3.413-8.533,8.533s3.413,8.533,8.533,8.533h42.667
				c5.12,0,8.533-3.413,8.533-8.533S311.501,357.762,306.381,357.762z"/>
			<path d="M203.981,374.829h25.6c5.12,0,8.533-3.413,8.533-8.533s-3.413-8.533-8.533-8.533h-25.6c-5.12,0-8.533,3.413-8.533,8.533
				S198.861,374.829,203.981,374.829z"/>
			<path d="M263.714,391.895h-59.733c-5.12,0-8.533,3.413-8.533,8.533c0,5.12,3.413,8.533,8.533,8.533h59.733
				c5.12,0,8.533-3.413,8.533-8.533C272.248,395.309,268.834,391.895,263.714,391.895z"/>
			<path d="M306.381,391.895h-8.533c-5.12,0-8.533,3.413-8.533,8.533c0,5.12,3.413,8.533,8.533,8.533h8.533
				c5.12,0,8.533-3.413,8.533-8.533C314.914,395.309,311.501,391.895,306.381,391.895z"/>
		</g>
	</g>
</g>
<g>
</g>
<g>
</g>
<g>
</g>
<g>
</g>
<g>
</g>
<g>
</g>
<g>
</g>
<g>
</g>
<g>
</g>
<g>
</g>
<g>
</g>
<g>
</g>
<g>
</g>
<g>
</g>
<g>
</g>
</svg>
