<?xml version="1.0" encoding="iso-8859-1"?>
<!-- Generator: Adobe Illustrator 19.0.0, SVG Export Plug-In . SVG Version: 6.00 Build 0)  -->
<svg version="1.1" id="Layer_1" xmlns="http://www.w3.org/2000/svg" xmlns:xlink="http://www.w3.org/1999/xlink" x="0px" y="0px"
	 viewBox="0 0 512 512" style="enable-background:new 0 0 512 512;" xml:space="preserve">
<g transform="translate(1 1)">
	<g>
		<g>
			<path d="M374.467-1H135.533c-14.507,0-25.6,11.093-25.6,25.6v460.8c0,14.507,11.093,25.6,25.6,25.6h238.933
				c14.507,0,25.6-11.093,25.6-25.6V24.6C400.067,10.093,388.973-1,374.467-1z M383,485.4c0,5.12-3.413,8.533-8.533,8.533H135.533
				c-5.12,0-8.533-3.413-8.533-8.533V24.6c0-5.12,4.267-8.533,8.533-8.533h238.933c5.12,0,8.533,3.413,8.533,8.533V485.4z"/>
			<path d="M255,323.267c37.547,0,68.267-30.72,68.267-68.267c0-37.547-30.72-68.267-68.267-68.267
				c-37.547,0-68.267,30.72-68.267,68.267S217.453,323.267,255,323.267z M255,203.8c28.16,0,51.2,23.04,51.2,51.2
				c0,28.16-23.04,51.2-51.2,51.2c-28.16,0-51.2-23.04-51.2-51.2C203.8,226.84,226.84,203.8,255,203.8z"/>
			<path d="M272.067,50.2c-4.267-5.12-10.24-8.533-17.067-8.533c-6.827,0-12.8,3.413-17.067,8.533l-56.32,75.093
				c-4.267,5.12-4.267,11.947-1.707,17.92c2.56,5.973,8.533,9.387,15.36,9.387h119.467c6.827,0,11.947-3.413,15.36-9.387
				c2.56-5.973,2.56-12.8-1.707-17.92L272.067,50.2z M195.267,135.533l56.32-75.093c0.853-1.707,2.56-1.707,3.413-1.707
				s2.56,0,3.413,1.707l56.32,75.093H195.267z"/>
			<path d="M314.733,357.4H195.267c-5.973,0-11.947,3.413-15.36,9.387c-2.56,5.973-2.56,12.8,1.707,17.92l56.32,75.093
				c4.267,5.12,10.24,8.533,17.067,8.533c6.827,0,12.8-2.56,17.067-7.68l56.32-75.947c4.267-5.12,4.267-11.947,1.707-17.92
				S321.56,357.4,314.733,357.4z M258.413,449.56c-1.707,1.707-2.56,1.707-3.413,1.707s-1.707,0-3.413-0.853l-56.32-75.947h119.467
				L258.413,449.56z"/>
		</g>
	</g>
</g>
<g>
</g>
<g>
</g>
<g>
</g>
<g>
</g>
<g>
</g>
<g>
</g>
<g>
</g>
<g>
</g>
<g>
</g>
<g>
</g>
<g>
</g>
<g>
</g>
<g>
</g>
<g>
</g>
<g>
</g>
</svg>
