<?xml version="1.0" encoding="iso-8859-1"?>
<!-- Generator: Adobe Illustrator 19.0.0, SVG Export Plug-In . SVG Version: 6.00 Build 0)  -->
<svg version="1.1" id="Layer_1" xmlns="http://www.w3.org/2000/svg" xmlns:xlink="http://www.w3.org/1999/xlink" x="0px" y="0px"
	 viewBox="0 0 512.143 512.143" style="enable-background:new 0 0 512.143 512.143;" xml:space="preserve">
<g transform="translate(1 1)">
	<g>
		<g>
			<path d="M511.071,163.765c-0.853-36.693-33.28-66.56-70.827-66.56h-94.72c-11.093,0-22.187,5.12-29.013,13.653l-78.507,93.034
				v-38.42c0-21.874-11.429-40.797-28.713-51.2c17.283-10.403,28.713-29.326,28.713-51.2c0-33.28-26.453-59.733-59.733-59.733
				c-33.28,0-59.733,26.453-59.733,59.733c0,21.874,11.429,40.797,28.713,51.2c-17.283,10.403-28.713,29.326-28.713,51.2v179.993
				l-18.773,22.247c-0.853,1.707-3.413,2.56-5.973,2.56H69.898c-38.4,0-69.973,29.867-70.827,66.56
				c-0.853,17.92,5.973,35.84,19.627,49.493c12.8,12.8,29.867,20.48,48.64,20.48h80.213c11.093,0,22.187-5.12,29.013-13.653
				l212.48-256c2.56-1.707,5.12-3.413,8.533-3.413h45.227c18.773,0,35.84-7.68,48.64-20.48
				C505.098,199.605,511.925,182.538,511.071,163.765z M135.605,63.071c0-23.893,18.773-42.667,42.667-42.667
				s42.667,18.773,42.667,42.667c0,23.893-18.773,42.667-42.667,42.667S135.605,86.965,135.605,63.071z M135.605,325.045V165.471
				c0-23.893,18.773-42.667,42.667-42.667s42.667,18.773,42.667,42.667v58.645l-46.664,55.299L135.605,325.045z M479.498,201.311
				c-9.387,10.24-23.04,15.36-36.693,15.36h-45.227c-8.533,0-16.213,4.267-21.333,10.24l-212.48,255.147
				c-4.267,5.12-10.24,7.68-16.213,7.68H67.338c-13.653,0-27.307-5.12-36.693-15.36c-9.387-10.24-14.507-23.893-14.507-37.547
				c0.853-27.307,24.747-49.493,53.76-49.493h23.893c7.68,0,14.507-3.413,19.627-9.387l215.893-256
				c4.267-5.12,10.24-7.68,16.213-7.68h94.72c29.013,0,52.907,22.187,53.76,49.493C494.005,178.271,488.885,191.071,479.498,201.311
				z"/>
			<path d="M424.638,323.091c-1.395-2.509-4.034-4.02-7.434-4.02s-6.038,1.511-7.434,4.02l-58.273,58.273
				c-3.413,3.413-3.413,8.533,0,11.947c3.413,3.413,8.533,3.413,11.947,0l45.227-45.227v150.187c0,5.12,3.413,8.533,8.533,8.533
				s8.533-3.413,8.533-8.533V348.085l45.227,45.227c1.707,1.707,3.413,2.56,5.973,2.56s4.267-0.853,5.973-2.56
				c3.413-3.413,3.413-8.533,0-11.947L424.638,323.091z"/>
		</g>
	</g>
</g>
<g>
</g>
<g>
</g>
<g>
</g>
<g>
</g>
<g>
</g>
<g>
</g>
<g>
</g>
<g>
</g>
<g>
</g>
<g>
</g>
<g>
</g>
<g>
</g>
<g>
</g>
<g>
</g>
<g>
</g>
</svg>
