<?xml version="1.0" encoding="iso-8859-1"?>
<!-- Generator: Adobe Illustrator 19.0.0, SVG Export Plug-In . SVG Version: 6.00 Build 0)  -->
<svg version="1.1" id="Layer_1" xmlns="http://www.w3.org/2000/svg" xmlns:xlink="http://www.w3.org/1999/xlink" x="0px" y="0px"
	 viewBox="0 0 512 512" style="enable-background:new 0 0 512 512;" xml:space="preserve">
<g transform="translate(1 1)">
	<g>
		<g>
			<path d="M365.933,289.133C446.147,289.133,511,224.28,511,144.067S446.147-1,365.933-1S220.867,63.853,220.867,144.067
				S285.72,289.133,365.933,289.133z M365.933,16.067c70.827,0,128,57.173,128,128s-57.173,128-128,128s-128-57.173-128-128
				S295.107,16.067,365.933,16.067z"/>
			<path d="M144.067,220.867C63.853,220.867-1,285.72-1,365.933S63.853,511,144.067,511s145.067-64.853,145.067-145.067
				S224.28,220.867,144.067,220.867z M144.067,493.933c-70.827,0-128-57.173-128-128s57.173-128,128-128s128,57.173,128,128
				S214.893,493.933,144.067,493.933z"/>
			<path d="M493.933,272.067c-5.12,0-8.533,3.413-8.533,8.533c0,112.64-92.16,204.8-204.8,204.8c-5.12,0-8.533,3.413-8.533,8.533
				s3.413,8.533,8.533,8.533c122.027,0,221.867-99.84,221.867-221.867C502.467,275.48,499.053,272.067,493.933,272.067z"/>
			<path d="M16.067,237.933c5.12,0,8.533-3.413,8.533-8.533c0-112.64,92.16-204.8,204.8-204.8c5.12,0,8.533-3.413,8.533-8.533
				s-3.413-8.533-8.533-8.533C107.373,7.533,7.533,107.373,7.533,229.4C7.533,234.52,10.947,237.933,16.067,237.933z"/>
			<path d="M357.4,152.037v68.284c-10.65-1.381-19.848-5.345-25.6-11.209v-22.38c0-5.12-3.413-8.533-8.533-8.533
				s-8.533,3.413-8.533,8.533v24.427c-0.054,0.568-0.052,1.143,0,1.713v25.06c0,5.12,3.413,8.533,8.533,8.533
				s8.533-3.413,8.533-8.533v-7.945c7.352,3.95,16.029,6.543,25.6,7.509v8.97c0,5.12,3.413,8.533,8.533,8.533
				s8.533-3.413,8.533-8.533v-9.096c26.196-3.398,51.2-22.153,51.2-50.637s-25.004-47.239-51.2-50.637V67.774
				c11.005,1.343,19.877,5.319,25.6,11.232V101.4c0,5.12,3.413,8.533,8.533,8.533s8.533-3.413,8.533-8.533V76.973
				c0.054-0.568,0.052-1.144,0-1.713V50.2c0-5.12-3.413-8.533-8.533-8.533s-8.533,3.413-8.533,8.533v7.576
				c-7.352-3.907-16.029-6.303-25.6-7.182v-8.928c0-5.12-3.413-8.533-8.533-8.533s-8.533,3.413-8.533,8.533v9.096
				c-26.196,3.398-51.2,22.153-51.2,50.637C306.2,129.884,331.204,148.639,357.4,152.037z M408.6,186.733
				c0,18.382-16.474,30.42-34.133,33.401v-66.759C392.126,156.517,408.6,169.087,408.6,186.733z M357.4,68.042v66.759
				c-17.66-2.981-34.133-15.019-34.133-33.401C323.267,83.753,339.74,71.184,357.4,68.042z"/>
			<path d="M212.333,408.6c-5.12,0-8.533,3.413-8.533,8.533c0,11.947-5.12,17.067-17.067,17.067h-68.267
				c5.973-8.533,8.533-18.773,8.533-25.6v-42.667h25.6c5.12,0,8.533-3.413,8.533-8.533s-3.413-8.533-8.533-8.533H127V306.2
				c0-14.507,11.093-25.6,25.6-25.6c14.507,0,25.6,11.093,25.6,25.6c0,5.12,3.413,8.533,8.533,8.533s8.533-3.413,8.533-8.533
				c0-23.893-18.773-42.667-42.667-42.667c-23.893,0-42.667,18.773-42.667,42.667v42.667h-25.6c-5.12,0-8.533,3.413-8.533,8.533
				s3.413,8.533,8.533,8.533h25.6V408.6c0,2.56-1.707,25.6-25.6,25.6c-5.12,0-8.533,3.413-8.533,8.533s3.413,8.533,8.533,8.533
				h102.4c21.333,0,34.133-12.8,34.133-34.133C220.867,412.013,217.453,408.6,212.333,408.6z"/>
		</g>
	</g>
</g>
<g>
</g>
<g>
</g>
<g>
</g>
<g>
</g>
<g>
</g>
<g>
</g>
<g>
</g>
<g>
</g>
<g>
</g>
<g>
</g>
<g>
</g>
<g>
</g>
<g>
</g>
<g>
</g>
<g>
</g>
</svg>
