<?xml version="1.0" encoding="iso-8859-1"?>
<!-- Generator: Adobe Illustrator 19.0.0, SVG Export Plug-In . SVG Version: 6.00 Build 0)  -->
<svg version="1.1" id="Layer_1" xmlns="http://www.w3.org/2000/svg" xmlns:xlink="http://www.w3.org/1999/xlink" x="0px" y="0px"
	 viewBox="0 0 503.607 503.607" style="enable-background:new 0 0 503.607 503.607;" xml:space="preserve">
<g transform="translate(1 1)">
	<g>
		<path d="M485.82,82.92H376.705V46.109l54.557-31.176c4.197-2.518,5.875-7.554,3.357-11.751s-7.554-5.036-11.751-3.357
			l-58.754,33.574c-0.418,0.251-0.794,0.533-1.147,0.831c-1.922,1.465-3.05,3.81-3.05,6.723V82.92H250.803
			c-9.233,0-16.787,7.554-16.787,16.787v33.574c0,6.308,3.529,11.829,8.709,14.696l1.666,33.32
			c-20.724-3.946-43.922-6.048-69.129-6.048C69.505,175.248-1,212.179-1,267.576v8.393c0,9.233,7.554,16.787,16.787,16.787h8.393
			v18.997c-12.177,3.394-21.682,12.859-24.341,25.489c-1.679,9.233,0.839,18.466,6.715,26.02c4.225,5.432,10.622,9.55,17.626,11.754
			v9.251C10.294,384.717-1,396.277-1,410.264v15.948c0,13.987,11.294,25.547,25.18,25.998v25.202c0,14.269,10.911,25.18,25.18,25.18
			h251.803h151.921c13.43,0,24.341-10.911,25.18-24.341l15.649-330.285c5.17-2.87,8.692-8.384,8.692-14.686V99.707
			C502.607,90.474,495.052,82.92,485.82,82.92z M250.803,99.707H485.82v33.574H250.803V99.707z M40.967,384.245v-8.446
			c5.448-1.186,10.649-3.6,15.108-7.501c4.197-4.197,7.554-10.072,9.233-16.787h26.02c4.197,14.269,16.787,25.18,32.734,25.18
			c15.948,0,29.377-10.911,32.734-25.18h36.092c4.197,14.269,16.787,25.18,32.734,25.18c15.948,0,29.377-10.911,32.734-25.18h26.859
			c1.679,6.715,4.197,12.59,9.233,16.787c4.259,3.651,9.404,6.411,15.108,7.658v8.289H40.967z M338.692,316.947
			c-3.615-2.959-7.811-5.23-12.348-6.564v-17.626h8.393c9.233,0,16.787-7.554,16.787-16.787v-8.393c0-1.129-0.037-2.25-0.092-3.365
			c-0.005-0.089-0.009-0.178-0.014-0.267c-0.56-10.565-3.6-20.524-9.646-29.875c-0.369-0.588-0.756-1.171-1.146-1.752
			c8.389-4.192,17.617-6.708,27.683-6.708c32.734,0,58.754,26.02,58.754,58.754s-26.02,58.754-58.754,58.754
			c-5.875,0-10.911-0.839-16.787-2.518C350.966,331.104,345.945,322.728,338.692,316.947z M15.787,267.576
			c0-44.485,65.469-75.541,159.475-75.541c76.159,0,133.582,20.385,152.643,51.778c4.549,7.698,6.832,15.73,6.832,23.762v8.393
			h-16.787H32.574H15.787V267.576z M309.557,292.756v16.787H40.967v-16.787H309.557z M19.984,352.349
			c-2.518-2.518-4.197-6.715-3.357-12.59c0.839-7.554,9.233-13.43,17.626-13.43h283.698c8.253,0,16.487,8.115,16.761,16.366
			c-0.274,8.224-8.522,15.544-17.6,16.369c-0.979,0-1.909,0.236-2.765,0.639c-3.17-0.406-5.659-1.509-8.147-3.997
			c-3.357-2.518-5.036-7.554-5.036-12.59c0-5.036-3.357-8.393-8.393-8.393h-41.967c-5.036,0-8.393,3.357-8.393,8.393
			c0,9.233-7.554,16.787-16.787,16.787s-16.787-7.554-16.787-16.787c0-5.036-3.357-8.393-8.393-8.393h-50.361
			c-5.036,0-8.393,3.357-8.393,8.393c0,9.233-7.554,16.787-16.787,16.787s-16.787-7.554-16.787-16.787
			c0-5.036-3.357-8.393-8.393-8.393H57.754c-5.036,0-8.393,3.357-8.393,8.393c0,5.036-1.679,10.072-5.036,11.751
			c-2.518,3.357-6.715,4.197-10.911,4.197C28.377,359.064,23.341,356.546,19.984,352.349z M15.787,427.051v-15.948
			c0-10.911,9.233-10.072,9.233-10.072h7.554h285.377h8.393c5.036,0,9.233,4.197,9.233,9.233v15.948
			c0,5.036-4.197,9.233-9.233,9.233h-8.393H32.574H25.02C19.984,435.445,15.787,431.248,15.787,427.051z M40.967,477.412v-25.18
			h268.59v25.18c0,5.036-3.357,8.393-8.393,8.393H49.361C44.325,485.805,40.967,482.448,40.967,477.412z M461.479,477.412
			c0,5.036-4.197,8.393-8.393,8.393H324.991c0.631-1.881,1.055-3.87,1.241-5.947c0.068-0.536,0.112-1.071,0.112-1.607v-0.839
			v-24.341c11.206-0.659,20.338-7.532,23.744-17.363c1.277-2.949,2.079-6.151,2.276-9.496v-15.948
			c0-14.269-11.751-26.02-26.02-26.02v-7.904c10.101-2.746,18.231-9.898,22.313-19.034c6.339,1.818,12.802,2.597,19.654,2.597
			c41.967,0,75.541-33.574,76.38-76.38c0-41.967-33.574-75.541-75.541-75.541c-14.46,0-27.671,3.747-39.64,11.22
			c-15.491-14.839-38.644-26.471-67.803-34.032l-1.672-35.103h217.39L461.479,477.412z"/>
	</g>
</g>
<g>
</g>
<g>
</g>
<g>
</g>
<g>
</g>
<g>
</g>
<g>
</g>
<g>
</g>
<g>
</g>
<g>
</g>
<g>
</g>
<g>
</g>
<g>
</g>
<g>
</g>
<g>
</g>
<g>
</g>
</svg>
