<?xml version="1.0" encoding="iso-8859-1"?>
<!-- Generator: Adobe Illustrator 19.0.0, SVG Export Plug-In . SVG Version: 6.00 Build 0)  -->
<svg version="1.1" id="Layer_1" xmlns="http://www.w3.org/2000/svg" xmlns:xlink="http://www.w3.org/1999/xlink" x="0px" y="0px"
	 viewBox="0 0 512.277 512.277" style="enable-background:new 0 0 512.277 512.277;" xml:space="preserve">
<g transform="translate(1 1)">
	<g>
		<path d="M472.848,49.513l35.73-35.73c3.413-3.413,3.413-8.533,0-11.947c-3.413-3.413-8.533-3.413-11.947,0L460.978,37.49
			c-22.356-20.255-50.793-33.838-82.106-37.36c-21.333-2.56-42.667-0.853-63.147,5.973C222.712,35.97,139.938,50.477,60.578,50.477
			h-10.24c-28.16,0-51.2,23.04-51.2,51.2v102.4c0,28.16,23.04,51.2,51.2,51.2h25.6h19.627c42.738,0,87.111,4.574,133.716,13.91
			l-193.45,193.45c-3.413,3.413-3.413,8.533,0,11.947c1.707,1.707,3.413,2.56,5.973,2.56s4.267-0.853,5.973-2.56l201.195-201.195
			c5.431,1.227,10.89,2.514,16.383,3.868L216.738,407.17c-14.507,39.253,5.973,84.48,45.227,98.987
			c9.387,3.413,17.92,5.12,27.307,5.12c30.72,0,60.587-18.773,70.827-49.493l67.833-179.214
			c16.807-8.304,32.038-19.802,44.807-34.119c28.16-32.427,41.813-73.387,36.693-116.907
			C505.932,100.439,492.686,71.994,472.848,49.513z M50.338,238.21c-18.773,0-34.133-15.36-34.133-34.133v-102.4
			c0-18.773,15.36-34.133,34.133-34.133h10.24c2.56,0,5.12,0,6.827,0V238.21H50.338z M95.565,238.21H84.472V67.121
			c73.942-2.573,151.762-17.087,237.227-44.805c17.92-5.973,36.693-7.68,56.32-5.12c26.854,3.069,51.463,14.765,71.119,32.134
			L244.043,254.425C191.977,243.536,142.819,238.21,95.565,238.21z M314.643,290.861c1.214,0.37,2.425,0.733,3.642,1.109
			c14.507,4.267,29.013,5.973,43.52,5.973c1.615,0,3.224-0.034,4.83-0.085l-19.337,51.285c-5.12,12.8-20.48,20.48-33.28,15.36
			c-7.68-2.56-12.8-8.533-15.36-16.213c-1.707-5.12-1.707-11.947,0.853-17.92L314.643,290.861z M345.592,454.957
			c-11.093,30.72-46.08,46.933-76.8,34.987c-30.72-11.093-46.933-46.08-34.987-76.8l49.443-131.279
			c5.061,1.358,10.15,2.769,15.266,4.233l-14.362,38.299c-4.267,10.24-4.267,20.48-1.707,29.013c3.413,12.8,12.8,23.04,25.6,27.307
			c5.12,1.707,10.24,2.56,15.36,2.56c17.92,0,34.133-11.093,40.107-27.307l22.915-60.053c7.24-1.198,14.345-2.917,21.264-5.141
			L345.592,454.957z M461.645,236.503c-11.691,12.86-25.522,23.219-40.672,30.69c-1.206-0.019-2.454,0.26-3.702,0.884
			c-11.699,5.571-23.764,9.311-36.191,11.245c-0.693-0.1-1.426-0.152-2.209-0.152c-6.827,0.853-11.947,0.853-17.067,0.853
			c-13.653,0-26.453-2.56-38.4-5.973c-1.707,0-4.267-0.853-6.827-1.707l-3.381-0.676c-16.831-4.839-33.351-9.151-49.579-12.924
			l197.47-197.47c17.571,19.861,29.497,44.864,32.983,71.977C498.338,171.65,487.245,208.343,461.645,236.503z"/>
	</g>
</g>
<g>
</g>
<g>
</g>
<g>
</g>
<g>
</g>
<g>
</g>
<g>
</g>
<g>
</g>
<g>
</g>
<g>
</g>
<g>
</g>
<g>
</g>
<g>
</g>
<g>
</g>
<g>
</g>
<g>
</g>
</svg>
