<?xml version="1.0" encoding="iso-8859-1"?>
<!-- Generator: Adobe Illustrator 19.0.0, SVG Export Plug-In . SVG Version: 6.00 Build 0)  -->
<svg version="1.1" id="Layer_1" xmlns="http://www.w3.org/2000/svg" xmlns:xlink="http://www.w3.org/1999/xlink" x="0px" y="0px"
	 viewBox="0 0 503.607 503.607" style="enable-background:new 0 0 503.607 503.607;" xml:space="preserve">
<g transform="translate(1 1)">
	<g>
		<g>
			<path d="M343.131,217.229h-50.361c-5.036,0-8.393,3.357-8.393,8.393v83.934h-67.148v-83.934c0-5.036-3.357-8.393-8.393-8.393
				h-50.361c-5.036,0-8.393,3.357-8.393,8.393v235.016c0,5.036,3.357,8.393,8.393,8.393h50.361c5.036,0,8.393-3.357,8.393-8.393
				v-83.934h67.148v83.934c0,5.036,3.357,8.393,8.393,8.393h50.361c5.036,0,8.393-3.357,8.393-8.393V225.623
				C351.525,220.587,348.167,217.229,343.131,217.229z M334.738,452.246h-33.574v-83.934c0-5.036-3.357-8.393-8.393-8.393h-83.934
				c-5.036,0-8.393,3.357-8.393,8.393v83.934h-33.574v-218.23h33.574v83.934c0,5.036,3.357,8.393,8.393,8.393h83.934
				c5.036,0,8.393-3.357,8.393-8.393v-83.934h33.574V452.246z"/>
			<path d="M469.033-1H32.574C14.108-1-1,14.108-1,32.574v436.459c0,18.466,15.108,33.574,33.574,33.574h436.459
				c18.466,0,33.574-15.108,33.574-33.574V32.574C502.607,14.108,487.498-1,469.033-1z M485.82,469.033
				c0,9.233-7.554,16.787-16.787,16.787H32.574c-9.233,0-16.787-7.554-16.787-16.787V32.574c0-9.233,7.554-16.787,16.787-16.787
				h436.459c9.233,0,16.787,7.554,16.787,16.787V469.033z"/>
			<path d="M215.551,119.866l-15.108,44.485c-0.839,3.357,0,6.715,3.357,9.233c3.357,2.518,7.554,2.518,10.072,0l36.931-29.377
				l36.931,29.377c1.679,0.839,3.357,1.679,5.036,1.679c1.679,0,3.357-0.839,4.197-1.679c3.357-1.679,4.197-5.875,3.357-9.233
				l-15.108-44.485l37.77-30.216c2.518-2.518,3.357-5.875,2.518-9.233c-0.839-3.357-4.197-5.875-7.554-5.875h-44.485L258.357,37.61
				c-0.839-3.357-4.197-5.036-7.554-5.036s-6.715,2.518-8.393,5.036l-14.269,36.931h-44.485c-3.357,0-6.715,2.518-8.393,5.875
				c-1.679,3.357,0,6.715,2.518,9.233L215.551,119.866z M234.016,91.328c3.357,0,6.715-1.679,7.554-5.036l9.233-22.662l9.233,22.662
				c0.839,3.357,4.197,5.036,7.554,5.036h26.859l-23.502,18.466c-2.518,2.518-3.357,5.875-2.518,9.233l7.554,23.502l-20.144-15.948
				c-1.679-0.839-3.357-1.679-5.036-1.679s-3.357,0.839-5.036,1.679l-20.144,15.948l8.393-23.502c1.679-3.357,0-6.715-2.518-9.233
				l-23.502-18.466H234.016z"/>
		</g>
	</g>
</g>
<g>
</g>
<g>
</g>
<g>
</g>
<g>
</g>
<g>
</g>
<g>
</g>
<g>
</g>
<g>
</g>
<g>
</g>
<g>
</g>
<g>
</g>
<g>
</g>
<g>
</g>
<g>
</g>
<g>
</g>
</svg>
