<?xml version="1.0" encoding="iso-8859-1"?>
<!-- Generator: Adobe Illustrator 19.0.0, SVG Export Plug-In . SVG Version: 6.00 Build 0)  -->
<svg version="1.1" id="Layer_1" xmlns="http://www.w3.org/2000/svg" xmlns:xlink="http://www.w3.org/1999/xlink" x="0px" y="0px"
	 viewBox="0 0 512 512" style="enable-background:new 0 0 512 512;" xml:space="preserve">
<g transform="translate(1 1)">
	<g>
		<g>
			<path d="M464.067-1c-14.332,0-27.323,6.689-35.986,17.067H7.533C2.413,16.067-1,19.48-1,24.6v42.667
				c0,5.12,3.413,8.533,8.533,8.533H75.8v42.667H33.133C14.36,118.467-1,133.827-1,152.6v324.267C-1,495.64,14.36,511,33.133,511
				h384c18.773,0,34.133-15.36,34.133-34.133V152.6c0-18.773-15.36-34.133-34.133-34.133H383V75.8h45.081
				c8.663,10.378,21.654,17.067,35.986,17.067c25.6,0,46.933-21.333,46.933-46.933C511,20.333,489.667-1,464.067-1z M434.2,152.6
				v324.267c0,9.387-7.68,17.067-17.067,17.067h-384c-9.387,0-17.067-7.68-17.067-17.067V152.6c0-9.387,7.68-17.067,17.067-17.067
				h384C426.52,135.533,434.2,143.213,434.2,152.6z M365.933,118.467H92.867V75.8h273.067V118.467z M418.84,58.733H16.067v-25.6
				H418.84c-0.122,0.609-0.243,1.218-0.362,1.827c-0.741,3.004-1.185,6.113-1.301,9.296c-0.027,0.559-0.044,1.118-0.044,1.677
				s0.016,1.118,0.044,1.677c0.116,3.183,0.56,6.292,1.301,9.296C418.597,57.515,418.718,58.124,418.84,58.733z M464.067,75.8
				c-9.791,0-18.643-4.984-24.124-12.499c-0.177-0.398-0.378-0.786-0.623-1.154c-0.594-0.742-1.117-1.552-1.608-2.388
				c-1.734-3.231-2.89-6.795-3.32-10.548c-0.017-0.159-0.037-0.318-0.052-0.477c-0.031-0.316-0.054-0.633-0.075-0.951
				c-0.036-0.615-0.066-1.231-0.066-1.848c0-0.616,0.03-1.232,0.066-1.847c0.021-0.324,0.045-0.647,0.076-0.969
				c0.013-0.143,0.031-0.285,0.046-0.428c1.672-14.749,14.56-26.622,29.678-26.622c16.213,0,29.867,13.653,29.867,29.867
				C493.933,62.147,480.28,75.8,464.067,75.8z"/>
			<path d="M109.933,476.867h51.2c5.12,0,8.533-3.413,8.533-8.533V348.867h119.467v119.467c0,5.12,3.413,8.533,8.533,8.533h51.2
				c5.12,0,8.533-3.413,8.533-8.533v-307.2c0-5.12-3.413-8.533-8.533-8.533h-51.2c-5.12,0-8.533,3.413-8.533,8.533V280.6H169.667
				V161.133c0-5.12-3.413-8.533-8.533-8.533h-51.2c-5.12,0-8.533,3.413-8.533,8.533v307.2
				C101.4,473.453,104.813,476.867,109.933,476.867z M118.467,169.667H152.6v119.467c0,5.12,3.413,8.533,8.533,8.533h136.533
				c5.12,0,8.533-3.413,8.533-8.533V169.667h34.133V459.8H306.2V340.333c0-5.12-3.413-8.533-8.533-8.533H161.133
				c-5.12,0-8.533,3.413-8.533,8.533V459.8h-34.133V169.667z"/>
		</g>
	</g>
</g>
<g>
</g>
<g>
</g>
<g>
</g>
<g>
</g>
<g>
</g>
<g>
</g>
<g>
</g>
<g>
</g>
<g>
</g>
<g>
</g>
<g>
</g>
<g>
</g>
<g>
</g>
<g>
</g>
<g>
</g>
</svg>
