<?xml version="1.0" encoding="iso-8859-1"?>
<!-- Generator: Adobe Illustrator 19.0.0, SVG Export Plug-In . SVG Version: 6.00 Build 0)  -->
<svg version="1.1" id="Layer_1" xmlns="http://www.w3.org/2000/svg" xmlns:xlink="http://www.w3.org/1999/xlink" x="0px" y="0px"
	 viewBox="0 0 503.607 503.607" style="enable-background:new 0 0 503.607 503.607;" xml:space="preserve">
<g transform="translate(1 1)">
	<g>
		<g>
			<path d="M477.426,141.689h-99.043c-31.895-37.771-78.059-58.754-127.58-58.754s-95.685,20.984-127.58,58.754H24.18
				C9.911,141.689-1,152.6-1,166.869v167.869c0,14.269,10.911,25.18,25.18,25.18h99.043c31.895,37.771,78.059,58.754,127.58,58.754
				s95.685-20.984,127.58-58.754h99.043c14.269,0,25.18-10.911,25.18-25.18V166.869C502.607,152.6,491.695,141.689,477.426,141.689z
				 M485.82,334.738c0,5.036-3.357,8.393-8.393,8.393H375.866c-2.518,0-5.036,1.679-6.715,3.357
				c-29.377,35.252-72.184,55.397-117.508,55.397c-46.164,0-88.971-20.144-117.508-55.397c-1.679-2.518-4.197-3.357-6.715-3.357
				H24.18c-5.036,0-8.393-3.357-8.393-8.393V166.869c0-5.036,4.197-8.393,8.393-8.393H127.42c2.518,0,5.036-0.839,5.875-3.357
				c29.377-35.252,72.184-55.397,117.508-55.397s88.131,20.144,116.669,55.397c1.679,2.518,4.197,3.357,6.715,3.357h103.239
				c5.036,0,8.393,3.357,8.393,8.393V334.738z"/>
			<path d="M452.246,175.262h-89.81l-7.554-9.233c-26.02-31.895-63.79-49.521-104.079-49.521s-78.059,17.626-104.079,49.521
				l-7.554,9.233h-89.81c-9.233,0-16.787,7.554-16.787,16.787v117.508c0,9.233,7.554,16.787,16.787,16.787h89.81l7.554,9.233
				c26.02,31.895,63.79,49.521,104.079,49.521s78.898-17.626,104.079-49.521l7.554-9.233h89.81c9.233,0,16.787-7.554,16.787-16.787
				V192.049C469.033,182.816,461.479,175.262,452.246,175.262z M452.246,308.718h-93.167c-2.518,0-5.036,1.679-6.715,3.357
				l-10.072,12.59c-22.662,27.698-56.236,43.646-91.489,43.646s-68.826-15.948-90.649-42.807l-10.072-12.59
				c-1.679-2.518-4.197-3.357-6.715-3.357H49.361V192.049h94.007c2.518,0,5.036-1.679,6.715-3.357l9.233-11.751
				c22.662-27.698,56.236-43.646,91.489-43.646s68.826,15.948,90.649,42.807l10.072,12.59c1.679,2.518,4.197,3.357,6.715,3.357
				h94.007V308.718z"/>
			<path d="M317.951,166.869h-33.574c-5.036,0-8.393,3.357-8.393,8.393v50.361h-50.361v-50.361c0-5.036-3.357-8.393-8.393-8.393
				h-33.574c-5.036,0-8.393,3.357-8.393,8.393v151.082c0,5.036,3.357,8.393,8.393,8.393h33.574c5.036,0,8.393-3.357,8.393-8.393
				v-50.361h50.361v50.361c0,5.036,3.357,8.393,8.393,8.393h33.574c5.036,0,8.393-3.357,8.393-8.393V175.262
				C326.344,170.226,322.987,166.869,317.951,166.869z M309.557,317.951h-16.787V267.59c0-5.036-3.357-8.393-8.393-8.393h-67.148
				c-5.036,0-8.393,3.357-8.393,8.393v50.361h-16.787V183.656h16.787v50.361c0,5.036,3.357,8.393,8.393,8.393h67.148
				c5.036,0,8.393-3.357,8.393-8.393v-50.361h16.787V317.951z"/>
		</g>
	</g>
</g>
<g>
</g>
<g>
</g>
<g>
</g>
<g>
</g>
<g>
</g>
<g>
</g>
<g>
</g>
<g>
</g>
<g>
</g>
<g>
</g>
<g>
</g>
<g>
</g>
<g>
</g>
<g>
</g>
<g>
</g>
</svg>
