<?xml version="1.0" encoding="iso-8859-1"?>
<!-- Generator: Adobe Illustrator 19.0.0, SVG Export Plug-In . SVG Version: 6.00 Build 0)  -->
<svg version="1.1" id="Layer_1" xmlns="http://www.w3.org/2000/svg" xmlns:xlink="http://www.w3.org/1999/xlink" x="0px" y="0px"
	 viewBox="0 0 512 512" style="enable-background:new 0 0 512 512;" xml:space="preserve">
<g transform="translate(1 1)">
	<g>
		<g>
			<path d="M502.467,493.933h-8.533v-332.8c0-5.12-3.413-8.533-8.533-8.533h-128V7.533c0-5.12-3.413-8.533-8.533-8.533H161.133
				c-5.12,0-8.533,3.413-8.533,8.533V152.6h-128c-5.12,0-8.533,3.413-8.533,8.533v332.8H7.533c-5.12,0-8.533,3.413-8.533,8.533
				S2.413,511,7.533,511H24.6h136.533H203.8h102.4h42.667H485.4h17.067c5.12,0,8.533-3.413,8.533-8.533
				S507.587,493.933,502.467,493.933z M33.133,169.667H152.6v324.267H33.133V169.667z M169.667,161.133V16.067h170.667v145.067
				v332.8h-25.6v-76.8c0-5.12-3.413-8.533-8.533-8.533H203.8c-5.12,0-8.533,3.413-8.533,8.533v76.8h-25.6V161.133z M212.333,425.667
				h34.133v68.267h-34.133V425.667z M263.533,493.933v-68.267h34.133v68.267H263.533z M357.4,493.933V169.667h119.467v324.267H357.4
				z"/>
			<path d="M195.267,186.733H229.4c5.12,0,8.533-3.413,8.533-8.533v-42.667h34.133V178.2c0,5.12,3.413,8.533,8.533,8.533h34.133
				c5.12,0,8.533-3.413,8.533-8.533V41.667c0-5.12-3.413-8.533-8.533-8.533H280.6c-5.12,0-8.533,3.413-8.533,8.533v42.667h-34.133
				V41.667c0-5.12-3.413-8.533-8.533-8.533h-34.133c-5.12,0-8.533,3.413-8.533,8.533V178.2
				C186.733,183.32,190.147,186.733,195.267,186.733z M203.8,50.2h17.067v42.667c0,5.12,3.413,8.533,8.533,8.533h51.2
				c5.12,0,8.533-3.413,8.533-8.533V50.2H306.2v119.467h-17.067V127c0-5.12-3.413-8.533-8.533-8.533h-51.2
				c-5.12,0-8.533,3.413-8.533,8.533v42.667H203.8V50.2z"/>
			<path d="M127,186.733H58.733c-5.12,0-8.533,3.413-8.533,8.533V229.4c0,5.12,3.413,8.533,8.533,8.533H127
				c5.12,0,8.533-3.413,8.533-8.533v-34.133C135.533,190.147,132.12,186.733,127,186.733z M118.467,220.867h-51.2V203.8h51.2
				V220.867z"/>
			<path d="M297.667,203.8h-85.333c-5.12,0-8.533,3.413-8.533,8.533v34.133c0,5.12,3.413,8.533,8.533,8.533h85.333
				c5.12,0,8.533-3.413,8.533-8.533v-34.133C306.2,207.213,302.787,203.8,297.667,203.8z M289.133,237.933h-68.267v-17.067h68.267
				V237.933z"/>
			<path d="M297.667,272.067h-85.333c-5.12,0-8.533,3.413-8.533,8.533v34.133c0,5.12,3.413,8.533,8.533,8.533h85.333
				c5.12,0,8.533-3.413,8.533-8.533V280.6C306.2,275.48,302.787,272.067,297.667,272.067z M289.133,306.2h-68.267v-17.067h68.267
				V306.2z"/>
			<path d="M297.667,340.333h-85.333c-5.12,0-8.533,3.413-8.533,8.533V383c0,5.12,3.413,8.533,8.533,8.533h85.333
				c5.12,0,8.533-3.413,8.533-8.533v-34.133C306.2,343.747,302.787,340.333,297.667,340.333z M289.133,374.467h-68.267V357.4h68.267
				V374.467z"/>
			<path d="M127,255H58.733c-5.12,0-8.533,3.413-8.533,8.533v34.133c0,5.12,3.413,8.533,8.533,8.533H127
				c5.12,0,8.533-3.413,8.533-8.533v-34.133C135.533,258.413,132.12,255,127,255z M118.467,289.133h-51.2v-17.067h51.2V289.133z"/>
			<path d="M127,323.267H58.733c-5.12,0-8.533,3.413-8.533,8.533v34.133c0,5.12,3.413,8.533,8.533,8.533H127
				c5.12,0,8.533-3.413,8.533-8.533V331.8C135.533,326.68,132.12,323.267,127,323.267z M118.467,357.4h-51.2v-17.067h51.2V357.4z"/>
			<path d="M127,391.533H58.733c-5.12,0-8.533,3.413-8.533,8.533V434.2c0,5.12,3.413,8.533,8.533,8.533H127
				c5.12,0,8.533-3.413,8.533-8.533v-34.133C135.533,394.947,132.12,391.533,127,391.533z M118.467,425.667h-51.2V408.6h51.2
				V425.667z"/>
			<path d="M451.267,186.733H383c-5.12,0-8.533,3.413-8.533,8.533V229.4c0,5.12,3.413,8.533,8.533,8.533h68.267
				c5.12,0,8.533-3.413,8.533-8.533v-34.133C459.8,190.147,456.387,186.733,451.267,186.733z M442.733,220.867h-51.2V203.8h51.2
				V220.867z"/>
			<path d="M451.267,255H383c-5.12,0-8.533,3.413-8.533,8.533v34.133c0,5.12,3.413,8.533,8.533,8.533h68.267
				c5.12,0,8.533-3.413,8.533-8.533v-34.133C459.8,258.413,456.387,255,451.267,255z M442.733,289.133h-51.2v-17.067h51.2V289.133z"
				/>
			<path d="M451.267,323.267H383c-5.12,0-8.533,3.413-8.533,8.533v34.133c0,5.12,3.413,8.533,8.533,8.533h68.267
				c5.12,0,8.533-3.413,8.533-8.533V331.8C459.8,326.68,456.387,323.267,451.267,323.267z M442.733,357.4h-51.2v-17.067h51.2V357.4z
				"/>
			<path d="M451.267,391.533H383c-5.12,0-8.533,3.413-8.533,8.533V434.2c0,5.12,3.413,8.533,8.533,8.533h68.267
				c5.12,0,8.533-3.413,8.533-8.533v-34.133C459.8,394.947,456.387,391.533,451.267,391.533z M442.733,425.667h-51.2V408.6h51.2
				V425.667z"/>
		</g>
	</g>
</g>
<g>
</g>
<g>
</g>
<g>
</g>
<g>
</g>
<g>
</g>
<g>
</g>
<g>
</g>
<g>
</g>
<g>
</g>
<g>
</g>
<g>
</g>
<g>
</g>
<g>
</g>
<g>
</g>
<g>
</g>
</svg>
