<?xml version="1.0" encoding="iso-8859-1"?>
<!-- Generator: Adobe Illustrator 19.0.0, SVG Export Plug-In . SVG Version: 6.00 Build 0)  -->
<svg version="1.1" id="Layer_1" xmlns="http://www.w3.org/2000/svg" xmlns:xlink="http://www.w3.org/1999/xlink" x="0px" y="0px"
	 viewBox="0 0 511.787 511.787" style="enable-background:new 0 0 511.787 511.787;" xml:space="preserve">
<g transform="translate(1 1)">
	<g>
		<g>
			<path d="M220.651,212.12c0-5.12-3.413-8.533-8.533-8.533h-51.2c-5.12,0-8.533,3.413-8.533,8.533v238.933
				c0,5.12,3.413,8.533,8.533,8.533h51.2c5.12,0,8.533-3.413,8.533-8.533V365.72h68.267v85.333c0,5.12,3.413,8.533,8.533,8.533h51.2
				c5.12,0,8.533-3.413,8.533-8.533V212.12c0-5.12-3.413-8.533-8.533-8.533h-51.2c-5.12,0-8.533,3.413-8.533,8.533v85.333h-68.267
				V212.12z M297.451,314.52c5.12,0,8.533-3.413,8.533-8.533v-85.333h34.133V442.52h-34.133v-85.333c0-5.12-3.413-8.533-8.533-8.533
				h-85.333c-5.12,0-8.533,3.413-8.533,8.533v85.333h-34.133V220.653h34.133v85.333c0,5.12,3.413,8.533,8.533,8.533H297.451z"/>
			<path d="M490.305,222.36L275.265,7.32c-11.093-11.093-29.867-11.093-40.96,0L20.118,222.36
				c-11.947,11.093-12.8,29.013-2.56,40.96c5.12,5.973,12.8,10.24,21.333,10.24h0.853c7.68,0,15.36-3.413,20.48-8.533l6.827-6.827
				v226.987c0,14.507,11.093,25.6,25.6,25.6h324.267c14.507,0,25.6-11.093,25.6-25.6V258.2l6.827,6.827
				c5.973,5.973,13.653,8.533,22.187,8.533s16.213-3.413,21.333-10.24C502.251,251.373,501.398,233.453,490.305,222.36z
				 M425.451,241.133v244.053c0,5.12-3.413,8.533-8.533,8.533H92.651c-5.12,0-8.533-3.413-8.533-8.533V241.133L246.251,79
				c4.267-5.12,11.947-5.12,17.067,0L425.451,241.133z M480.065,252.227c-2.56,2.56-5.973,4.267-9.387,4.267
				c-3.413,0.853-6.827-0.853-9.387-3.413L275.265,67.053c-11.093-11.093-29.867-11.093-40.96,0L69.611,231.747L48.278,253.08
				c-2.56,2.56-5.973,3.413-9.387,3.413c-3.413,0-6.827-1.707-9.387-4.267c-4.267-5.12-3.413-12.8,1.707-17.92l215.04-215.04
				c2.56-2.56,5.12-3.413,8.533-3.413s5.973,0.853,8.533,3.413l215.04,215.04C483.478,239.427,484.331,247.107,480.065,252.227z"/>
		</g>
	</g>
</g>
<g>
</g>
<g>
</g>
<g>
</g>
<g>
</g>
<g>
</g>
<g>
</g>
<g>
</g>
<g>
</g>
<g>
</g>
<g>
</g>
<g>
</g>
<g>
</g>
<g>
</g>
<g>
</g>
<g>
</g>
</svg>
