<?xml version="1.0" encoding="iso-8859-1"?>
<!-- Generator: Adobe Illustrator 19.0.0, SVG Export Plug-In . SVG Version: 6.00 Build 0)  -->
<svg version="1.1" id="Layer_1" xmlns="http://www.w3.org/2000/svg" xmlns:xlink="http://www.w3.org/1999/xlink" x="0px" y="0px"
	 viewBox="0 0 503.607 503.607" style="enable-background:new 0 0 503.607 503.607;" xml:space="preserve">
<g transform="translate(1 1)">
	<g>
		<g>
			<path d="M494.213,364.115h-25.18V103.918c0-14.269-10.911-25.18-25.18-25.18H57.754c-14.269,0-25.18,10.911-25.18,25.18v260.197
				H7.393c-5.036,0-8.393,3.357-8.393,8.393v25.18c0,14.269,10.911,25.18,25.18,25.18h453.246c14.269,0,25.18-10.911,25.18-25.18
				v-25.18C502.607,367.472,499.249,364.115,494.213,364.115z M49.361,103.918c0-5.036,4.197-8.393,8.393-8.393h386.098
				c5.036,0,8.393,3.357,8.393,8.393v260.197H317.951c-5.036,0-8.393,3.357-8.393,8.393v8.393H192.049v-8.393
				c0-5.036-3.357-8.393-8.393-8.393H49.361V103.918z M485.82,397.689c0,5.036-3.357,8.393-8.393,8.393H24.18
				c-5.036,0-8.393-3.357-8.393-8.393v-16.787h25.18h134.295v8.393c0,5.036,3.357,8.393,8.393,8.393h134.295
				c5.036,0,8.393-3.357,8.393-8.393v-8.393h134.295h25.18V397.689z"/>
			<path d="M351.525,196.246c1.679,1.679,3.357,2.518,5.875,2.518c2.518,0,4.197-0.839,6.715-2.518
				c3.357-3.357,3.357-8.393,0-11.751c-62.112-62.112-163.672-62.112-225.784,0c-3.357,3.357-3.357,8.393,0,11.751
				c3.357,3.357,8.393,3.357,11.751,0C205.479,140.849,296.128,140.849,351.525,196.246z"/>
			<path d="M322.148,225.623c1.679,1.679,3.357,2.518,5.875,2.518s4.197-0.839,5.875-2.518c3.357-3.357,3.357-8.393,0-11.751
				c-21.823-21.823-52.039-34.413-83.095-34.413s-61.272,12.59-83.095,34.413c-3.357,3.357-3.357,8.393,0,11.751
				c3.357,3.357,8.393,3.357,11.751,0c19.305-19.305,44.485-29.377,71.344-29.377S302.843,207.157,322.148,225.623z"/>
			<path d="M197.925,243.249c-3.357,3.357-3.357,8.393,0,11.751c3.357,3.357,8.393,3.357,11.751,0
				c22.662-22.662,60.433-22.662,83.095,0c1.679,1.679,3.357,2.518,5.875,2.518c1.679,0,4.197-0.839,5.875-2.518
				c3.357-3.357,3.357-8.393,0-11.751C275.144,213.872,227.302,213.872,197.925,243.249z"/>
			<path d="M250.803,263.393c-18.466,0-33.574,15.108-33.574,33.574s15.108,33.574,33.574,33.574s33.574-15.108,33.574-33.574
				S269.269,263.393,250.803,263.393z M250.803,313.754c-9.233,0-16.787-7.554-16.787-16.787s7.554-16.787,16.787-16.787
				c9.233,0,16.787,7.554,16.787,16.787S260.036,313.754,250.803,313.754z"/>
		</g>
	</g>
</g>
<g>
</g>
<g>
</g>
<g>
</g>
<g>
</g>
<g>
</g>
<g>
</g>
<g>
</g>
<g>
</g>
<g>
</g>
<g>
</g>
<g>
</g>
<g>
</g>
<g>
</g>
<g>
</g>
<g>
</g>
</svg>
