<?xml version="1.0" encoding="iso-8859-1"?>
<!-- Generator: Adobe Illustrator 19.0.0, SVG Export Plug-In . SVG Version: 6.00 Build 0)  -->
<svg version="1.1" id="Layer_1" xmlns="http://www.w3.org/2000/svg" xmlns:xlink="http://www.w3.org/1999/xlink" x="0px" y="0px"
	 viewBox="0 0 512 512" style="enable-background:new 0 0 512 512;" xml:space="preserve">
<g transform="translate(1 1)">
	<g>
		<g>
			<path d="M284.956,161.133c0-52.053-41.813-93.867-93.867-93.867s-93.867,41.813-93.867,93.867S139.036,255,191.09,255
				C242.29,255,284.956,213.187,284.956,161.133z M191.09,237.933c-42.667,0-76.8-34.133-76.8-76.8c0-42.667,34.133-76.8,76.8-76.8
				c41.813,0,76.8,34.133,76.8,76.8C267.89,203.8,233.757,237.933,191.09,237.933z"/>
			<path d="M191.09,101.4c-33.28,0-59.733,26.453-59.733,59.733c0,5.12,3.413,8.533,8.533,8.533c4.267,0,8.533-3.413,8.533-8.533
				c0-23.893,18.773-42.667,42.667-42.667c5.12,0,8.533-3.413,8.533-8.533S196.21,101.4,191.09,101.4z"/>
			<path d="M472.69,272.067h-68.267c-5.12,0-8.533,3.413-8.533,8.533v68.267h-68.267V280.6c0-5.12-3.413-8.533-8.533-8.533h-3.092
				l19.305-39.253c25.6-50.347,23.04-109.227-6.827-157.013S248.263-1,191.09-1S82.716,28.013,52.85,75.8
				c-29.013,47.787-32.427,106.667-6.827,157.013L183.41,505.88c1.707,3.413,4.267,5.12,7.68,5.12c2.56,0,5.973-1.707,6.827-5.12
				l44.373-88.122v84.708c0,5.12,3.413,8.533,8.533,8.533h68.267c5.12,0,8.533-3.413,8.533-8.533V434.2h68.267v68.267
				c0,5.12,3.413,8.533,8.533,8.533h68.267c5.12,0,8.533-3.413,8.533-8.533V280.6C481.223,275.48,477.81,272.067,472.69,272.067z
				 M191.09,483.693L62.237,225.133c-23.04-45.227-20.48-98.133,5.973-140.8c26.453-42.667,71.68-68.267,122.88-68.267
				c50.347,0,95.573,25.6,122.88,68.267c26.453,43.52,28.16,95.573,5.973,140.8l-23.893,46.933h-45.227
				c-5.12,0-8.533,3.413-8.533,8.533v99.84L191.09,483.693z M464.156,493.933h-51.2v-68.267c0-5.12-3.413-8.533-8.533-8.533H319.09
				c-5.12,0-8.533,3.413-8.533,8.533v68.267h-51.2V382.147v-93.013h42.667h8.533V357.4c0,5.12,3.413,8.533,8.533,8.533h85.333
				c5.12,0,8.533-3.413,8.533-8.533v-68.267h51.2V493.933z"/>
		</g>
	</g>
</g>
<g>
</g>
<g>
</g>
<g>
</g>
<g>
</g>
<g>
</g>
<g>
</g>
<g>
</g>
<g>
</g>
<g>
</g>
<g>
</g>
<g>
</g>
<g>
</g>
<g>
</g>
<g>
</g>
<g>
</g>
</svg>
