<?xml version="1.0" encoding="iso-8859-1"?>
<!-- Generator: Adobe Illustrator 19.0.0, SVG Export Plug-In . SVG Version: 6.00 Build 0)  -->
<svg version="1.1" id="Layer_1" xmlns="http://www.w3.org/2000/svg" xmlns:xlink="http://www.w3.org/1999/xlink" x="0px" y="0px"
	 viewBox="0 0 512 512" style="enable-background:new 0 0 512 512;" xml:space="preserve">
<g transform="translate(1 1)">
	<g>
		<path d="M485.4,442.733h-25.6V178.2c0-61.44-49.493-110.933-110.933-110.933h-25.6V50.2c0-9.387-7.68-17.067-17.067-17.067
			h-17.067C289.133,14.36,273.773-1,255-1s-34.133,15.36-34.133,34.133H203.8c-9.387,0-17.067,7.68-17.067,17.067v17.067h-25.6
			C99.693,67.267,50.2,116.76,50.2,178.2v264.533H24.6c-5.12,0-8.533,3.413-8.533,8.533c0,5.12,3.413,8.533,8.533,8.533h34.133
			h13.148c-2.927,5.029-4.615,10.859-4.615,17.067C67.267,495.64,82.627,511,101.4,511c18.773,0,34.133-15.36,34.133-34.133
			c0-6.208-1.688-12.037-4.615-17.067H255h124.081c-2.927,5.029-4.615,10.859-4.615,17.067c0,18.773,15.36,34.133,34.133,34.133
			c18.773,0,34.133-15.36,34.133-34.133c0-6.208-1.688-12.037-4.615-17.067h13.148H485.4c5.12,0,8.533-3.413,8.533-8.533
			C493.933,446.147,490.52,442.733,485.4,442.733z M255,16.067c9.387,0,17.067,7.68,17.067,17.067h-34.133
			C237.933,23.747,245.613,16.067,255,16.067z M203.8,50.2h25.6h51.2h25.6v17.067H203.8V50.2z M144.067,212.333h68.267h8.533v51.2
			h-85.333v-51.2H144.067z M154.307,195.267c3.413-10.24,13.653-17.067,24.747-17.067s20.48,6.827,23.893,17.067H154.307z
			 M127,280.6h102.4h17.067v34.133v34.133v17.067H109.933V280.6H127z M280.6,237.933c0-28.16,23.04-51.2,51.2-51.2
			c28.16,0,51.2,23.04,51.2,51.2s-23.04,51.2-51.2,51.2C303.64,289.133,280.6,266.093,280.6,237.933z M400.067,340.333H263.533
			v-25.6c0-5.12,3.413-8.533,8.533-8.533h119.467c5.12,0,8.533,3.413,8.533,8.533V340.333z M109.933,383H127v8.533
			c0,5.12,3.413,8.533,8.533,8.533s8.533-3.413,8.533-8.533V383h102.4v59.733H109.933V383z M118.467,476.867
			c0,9.387-7.68,17.067-17.067,17.067c-9.387,0-17.067-7.68-17.067-17.067S92.013,459.8,101.4,459.8
			C110.787,459.8,118.467,467.48,118.467,476.867z M263.533,374.467V357.4h102.4v8.533c0,5.12,3.413,8.533,8.533,8.533
			s8.533-3.413,8.533-8.533V357.4h17.067v85.333H263.533V374.467z M425.667,476.867c0,9.387-7.68,17.067-17.067,17.067
			c-9.387,0-17.067-7.68-17.067-17.067s7.68-17.067,17.067-17.067C417.987,459.8,425.667,467.48,425.667,476.867z M417.133,442.733
			v-93.867v-34.133c0-14.507-11.093-25.6-25.6-25.6h-14.728c14.233-12.535,23.261-30.859,23.261-51.2
			c0-37.547-30.72-68.267-68.267-68.267c-37.547,0-68.267,30.72-68.267,68.267c0,20.341,9.028,38.665,23.261,51.2h-14.728
			c-3.016,0-5.881,0.486-8.533,1.376v-18.443c0-5.12-3.413-8.533-8.533-8.533h-17.067V203.8c0-5.12-3.413-8.533-8.533-8.533h-9.359
			c-3.86-19.681-20.878-34.133-41.841-34.133c-20.963,0-37.981,14.452-41.841,34.133H127c-5.12,0-8.533,3.413-8.533,8.533v59.733
			H101.4c-5.12,0-8.533,3.413-8.533,8.533v102.4v68.267h-25.6V178.2c0-52.053,41.813-93.867,93.867-93.867h34.133h119.467h34.133
			c52.053,0,93.867,41.813,93.867,93.867v264.533H417.133z"/>
	</g>
</g>
<g>
</g>
<g>
</g>
<g>
</g>
<g>
</g>
<g>
</g>
<g>
</g>
<g>
</g>
<g>
</g>
<g>
</g>
<g>
</g>
<g>
</g>
<g>
</g>
<g>
</g>
<g>
</g>
<g>
</g>
</svg>
