<?xml version="1.0" encoding="iso-8859-1"?>
<!-- Generator: Adobe Illustrator 19.0.0, SVG Export Plug-In . SVG Version: 6.00 Build 0)  -->
<svg version="1.1" id="Layer_1" xmlns="http://www.w3.org/2000/svg" xmlns:xlink="http://www.w3.org/1999/xlink" x="0px" y="0px"
	 viewBox="0 0 512 512" style="enable-background:new 0 0 512 512;" xml:space="preserve">
<g transform="translate(1 1)">
	<g>
		<path d="M357.4,169.667h-17.067c0-5.12-3.413-8.533-8.533-8.533s-8.533,3.413-8.533,8.533H306.2V48.824
			c10.103-3.391,17.067-12.734,17.067-24.224c0-14.507-11.093-25.6-25.6-25.6h-85.333c-14.507,0-25.6,11.093-25.6,25.6
			c0,11.362,7.329,20.629,17.067,24.113v120.954h-17.067c0-5.12-3.413-8.533-8.533-8.533s-8.533,3.413-8.533,8.533H152.6
			c-14.507,0-25.6,11.093-25.6,25.6v273.067c0,14.507,11.093,25.6,25.6,25.6h25.6v8.533c0,5.12,3.413,8.533,8.533,8.533
			s8.533-3.413,8.533-8.533v-8.533h119.467v8.533c0,5.12,3.413,8.533,8.533,8.533s8.533-3.413,8.533-8.533v-8.533h25.6
			c14.507,0,25.6-11.093,25.6-25.6V195.267C383,180.76,371.907,169.667,357.4,169.667z M212.333,16.067h85.333
			c5.12,0,8.533,3.413,8.533,8.533s-3.413,8.533-8.533,8.533h-85.333c-5.12,0-8.533-3.413-8.533-8.533
			S208.067,16.067,212.333,16.067z M220.867,50.2h68.267v119.467h-68.267V50.2z M152.6,186.733h59.733h85.333H357.4
			c5.12,0,8.533,3.413,8.533,8.533v25.6h-68.267h-84.48h-69.12v-25.6C144.067,190.147,147.48,186.733,152.6,186.733z
			 M221.72,237.933h68.267v7.68c0,5.12-4.267,9.387-9.387,9.387h-49.493c-5.12,0-9.387-4.267-9.387-9.387V237.933z M357.4,476.867
			H152.6c-5.12,0-8.533-3.413-8.533-8.533V459.8h25.6c5.12,0,8.533-3.413,8.533-8.533c0-5.12-3.413-8.533-8.533-8.533h-25.6v-17.067
			h25.6c5.12,0,8.533-3.413,8.533-8.533s-3.413-8.533-8.533-8.533h-25.6V237.933h60.587v7.68c0,14.507,11.947,26.453,26.453,26.453
			H280.6c13.653,0,25.6-11.947,25.6-26.453v-7.68h59.733v230.4C365.933,473.453,362.52,476.867,357.4,476.867z"/>
	</g>
</g>
<g>
</g>
<g>
</g>
<g>
</g>
<g>
</g>
<g>
</g>
<g>
</g>
<g>
</g>
<g>
</g>
<g>
</g>
<g>
</g>
<g>
</g>
<g>
</g>
<g>
</g>
<g>
</g>
<g>
</g>
</svg>
