<?xml version="1.0" encoding="iso-8859-1"?>
<!-- Generator: Adobe Illustrator 19.0.0, SVG Export Plug-In . SVG Version: 6.00 Build 0)  -->
<svg version="1.1" id="Layer_1" xmlns="http://www.w3.org/2000/svg" xmlns:xlink="http://www.w3.org/1999/xlink" x="0px" y="0px"
	 viewBox="0 0 512 512" style="enable-background:new 0 0 512 512;" xml:space="preserve">
<g transform="translate(1 1)">
	<g>
		<path d="M391.533,289.133h-51.2c0-5.12-3.413-8.533-8.533-8.533s-8.533,3.413-8.533,8.533H306.2V48.824
			c10.103-3.391,17.067-12.734,17.067-24.224c0-14.507-11.093-25.6-25.6-25.6h-85.333c-14.507,0-25.6,11.093-25.6,25.6
			c0,11.491,6.963,20.833,17.067,24.224v240.309h-17.067c0-5.12-3.413-8.533-8.533-8.533s-8.533,3.413-8.533,8.533h-51.2
			c-14.507,0-25.6,11.093-25.6,25.6v153.6c0,14.507,11.093,25.6,25.6,25.6h17.067v8.533c0,5.12,3.413,8.533,8.533,8.533
			s8.533-3.413,8.533-8.533v-8.533h204.8v8.533c0,5.12,3.413,8.533,8.533,8.533s8.533-3.413,8.533-8.533v-8.533h17.067
			c14.507,0,25.6-11.093,25.6-25.6v-153.6C417.133,300.227,406.04,289.133,391.533,289.133z M212.333,16.067h85.333
			c5.12,0,8.533,3.413,8.533,8.533s-3.413,8.533-8.533,8.533h-85.333c-5.12,0-8.533-3.413-8.533-8.533
			S207.213,16.067,212.333,16.067z M220.867,50.2h68.267v238.933h-68.267V50.2z M118.467,306.2h93.867h85.333h93.867
			c5.12,0,8.533,3.413,8.533,8.533v25.6h-102.4h-84.48H109.933v-25.6C109.933,309.613,113.347,306.2,118.467,306.2z M222.573,357.4
			h67.413v7.68c0,5.12-4.267,9.387-9.387,9.387h-48.64c-5.12,0-9.387-4.267-9.387-9.387V357.4z M391.533,476.867H118.467
			c-5.12,0-8.533-3.413-8.533-8.533V459.8h25.6c5.12,0,8.533-3.413,8.533-8.533c0-5.12-3.413-8.533-8.533-8.533h-25.6v-17.067h25.6
			c5.12,0,8.533-3.413,8.533-8.533s-3.413-8.533-8.533-8.533h-25.6v-51.2h94.72v7.68c0,14.507,11.947,26.453,26.453,26.453H280.6
			c14.507,0,26.453-11.947,25.6-26.453v-7.68h93.867v110.933C400.067,473.453,396.653,476.867,391.533,476.867z"/>
	</g>
</g>
<g>
</g>
<g>
</g>
<g>
</g>
<g>
</g>
<g>
</g>
<g>
</g>
<g>
</g>
<g>
</g>
<g>
</g>
<g>
</g>
<g>
</g>
<g>
</g>
<g>
</g>
<g>
</g>
<g>
</g>
</svg>
