<?xml version="1.0" encoding="iso-8859-1"?>
<!-- Generator: Adobe Illustrator 19.0.0, SVG Export Plug-In . SVG Version: 6.00 Build 0)  -->
<svg version="1.1" id="Layer_1" xmlns="http://www.w3.org/2000/svg" xmlns:xlink="http://www.w3.org/1999/xlink" x="0px" y="0px"
	 viewBox="0 0 512 512" style="enable-background:new 0 0 512 512;" xml:space="preserve">
<g transform="translate(1 1)">
	<g>
		<path d="M485.4,442.733h-25.6V178.2c0-61.44-49.493-110.933-110.933-110.933h-25.6V50.2c0-9.387-7.68-17.067-17.067-17.067
			h-17.067C289.133,14.36,273.773-1,255-1s-34.133,15.36-34.133,34.133H203.8c-9.387,0-17.067,7.68-17.067,17.067v17.067h-25.6
			C99.693,67.267,50.2,116.76,50.2,178.2v264.533H24.6c-5.12,0-8.533,3.413-8.533,8.533c0,5.12,3.413,8.533,8.533,8.533h34.133
			h13.148c-2.927,5.029-4.615,10.859-4.615,17.067C67.267,495.64,82.627,511,101.4,511c18.773,0,34.133-15.36,34.133-34.133
			c0-6.208-1.688-12.037-4.615-17.067H152.6h204.8h21.681c-2.927,5.029-4.615,10.859-4.615,17.067
			c0,18.773,15.36,34.133,34.133,34.133c18.773,0,34.133-15.36,34.133-34.133c0-6.208-1.688-12.037-4.615-17.067h13.148H485.4
			c5.12,0,8.533-3.413,8.533-8.533C493.933,446.147,490.52,442.733,485.4,442.733z M255,16.067c9.387,0,17.067,7.68,17.067,17.067
			h-34.133C237.933,23.747,245.613,16.067,255,16.067z M203.8,50.2h25.6h51.2h25.6v17.067H203.8V50.2z M101.4,493.933
			c-9.387,0-17.067-7.68-17.067-17.067S92.013,459.8,101.4,459.8c9.387,0,17.067,7.68,17.067,17.067S110.787,493.933,101.4,493.933z
			 M160.403,289.133H203.8h102.4h43.397c3.623,21.355,20.581,38.313,41.937,41.937v69.727
			c-21.355,3.623-38.313,20.581-41.937,41.937H160.403c-3.623-21.355-20.581-38.313-41.937-41.937V331.07
			C139.822,327.447,156.78,310.489,160.403,289.133z M118.467,313.88v-16.213c0-5.12,3.413-8.533,8.533-8.533h16.213
			C139.8,301.08,130.413,310.467,118.467,313.88z M297.667,272.067h-85.333v-25.6c0-5.12,3.413-8.533,8.533-8.533h68.267
			c5.12,0,8.533,3.413,8.533,8.533V272.067z M391.533,313.88c-11.947-3.413-21.333-12.8-24.747-24.747H383
			c5.12,0,8.533,3.413,8.533,8.533V313.88z M127,442.733c-5.12,0-8.533-3.413-8.533-8.533v-16.213
			c11.947,3.413,21.333,12.8,24.747,24.747H127z M391.533,417.987V434.2c0,5.12-3.413,8.533-8.533,8.533h-16.213
			C370.2,430.787,379.587,421.4,391.533,417.987z M425.667,476.867c0,9.387-7.68,17.067-17.067,17.067
			c-9.387,0-17.067-7.68-17.067-17.067s7.68-17.067,17.067-17.067C417.987,459.8,425.667,467.48,425.667,476.867z M407.224,442.733
			c0.89-2.652,1.376-5.517,1.376-8.533v-25.6v-85.333v-25.6c0-14.507-11.093-25.6-25.6-25.6h-25.6h-42.667v-25.6
			c0-14.507-11.093-25.6-25.6-25.6h-68.267c-14.507,0-25.6,11.093-25.6,25.6v25.6H152.6H127c-14.507,0-25.6,11.093-25.6,25.6v25.6
			V408.6v25.6c0,3.016,0.486,5.881,1.376,8.533H67.267V178.2c0-52.053,41.813-93.867,93.867-93.867h34.133h119.467h34.133
			c52.053,0,93.867,41.813,93.867,93.867v264.533H407.224z"/>
	</g>
</g>
<g>
</g>
<g>
</g>
<g>
</g>
<g>
</g>
<g>
</g>
<g>
</g>
<g>
</g>
<g>
</g>
<g>
</g>
<g>
</g>
<g>
</g>
<g>
</g>
<g>
</g>
<g>
</g>
<g>
</g>
</svg>
