<?xml version="1.0" encoding="iso-8859-1"?>
<!-- Generator: Adobe Illustrator 19.0.0, SVG Export Plug-In . SVG Version: 6.00 Build 0)  -->
<svg version="1.1" id="Layer_1" xmlns="http://www.w3.org/2000/svg" xmlns:xlink="http://www.w3.org/1999/xlink" x="0px" y="0px"
	 viewBox="0 0 512 512" style="enable-background:new 0 0 512 512;" xml:space="preserve">
<g transform="translate(1 1)">
	<g>
		<g>
			<path d="M485.4,442.733h-25.6V178.2c0-61.44-49.493-110.933-110.933-110.933h-25.6V50.2c0-9.387-7.68-17.067-17.067-17.067
				h-17.067C289.133,14.36,273.773-1,255-1s-34.133,15.36-34.133,34.133H203.8c-9.387,0-17.067,7.68-17.067,17.067v17.067h-25.6
				C99.693,67.267,50.2,116.76,50.2,178.2v264.533H24.6c-5.12,0-8.533,3.413-8.533,8.533c0,5.12,3.413,8.533,8.533,8.533h34.133
				h13.148c-2.927,5.029-4.615,10.859-4.615,17.067C67.267,495.64,82.627,511,101.4,511c18.773,0,34.133-15.36,34.133-34.133
				c0-6.208-1.688-12.037-4.615-17.067h4.615H255h42.667h81.415c-2.927,5.029-4.615,10.859-4.615,17.067
				c0,18.773,15.36,34.133,34.133,34.133c18.773,0,34.133-15.36,34.133-34.133c0-6.208-1.688-12.037-4.615-17.067h13.148H485.4
				c5.12,0,8.533-3.413,8.533-8.533C493.933,446.147,490.52,442.733,485.4,442.733z M255,16.067c9.387,0,17.067,7.68,17.067,17.067
				h-34.133C237.933,23.747,245.613,16.067,255,16.067z M203.8,50.2h25.6h51.2h25.6v17.067H203.8V50.2z M186.733,195.267h-33.28
				v-20.48c0-2.56,2.56-5.12,5.12-5.12h23.04c2.56,0,5.12,2.56,5.12,5.12V195.267z M144.067,212.333h51.2h2.56l-15.36,25.6H157.72
				l-15.36-25.6H144.067z M131.655,228.624l13.265,22.109c1.707,2.56,4.267,4.267,7.68,4.267h34.133c3.413,0,5.973-1.707,7.68-4.267
				l12.685-21.142l12.062,85.142h-83.627h-15.36L131.655,228.624z M110.787,331.8h15.36c-3.413,11.947-12.8,21.333-24.747,24.747
				V331.8H110.787z M143.337,331.8H229.4h17.797c3.623,21.356,20.581,38.314,41.937,41.937v27.06
				c-21.356,3.623-38.313,20.581-41.937,41.937h-103.86c-3.623-21.355-20.581-38.313-41.937-41.937v-27.06
				C122.756,370.114,139.714,353.156,143.337,331.8z M289.133,356.547c-11.947-3.413-21.333-12.8-24.747-24.747h24.747V356.547z
				 M101.4,417.987c11.947,3.413,21.333,12.8,24.747,24.747H101.4V417.987z M118.467,476.867c0,9.387-7.68,17.067-17.067,17.067
				c-9.387,0-17.067-7.68-17.067-17.067S92.013,459.8,101.4,459.8C110.787,459.8,118.467,467.48,118.467,476.867z M289.133,417.987
				v24.747h-24.747C267.8,430.787,277.187,421.4,289.133,417.987z M306.2,408.6v-42.667v-42.667c0-5.12-3.413-8.533-8.533-8.533
				h-25.6V237.08c0-9.387,7.68-16.213,16.213-16.213h17.92h68.267h17.067c9.387,0,17.067,7.68,17.067,17.067V426.52
				c0,9.387-7.68,16.213-16.213,16.213H306.2V408.6z M314.733,135.533h51.2V203.8h-51.2V135.533z M425.667,476.867
				c0,9.387-7.68,17.067-17.067,17.067c-9.387,0-17.067-7.68-17.067-17.067s7.68-17.067,17.067-17.067
				C417.987,459.8,425.667,467.48,425.667,476.867z M421.63,442.733c2.581-4.762,4.037-10.273,4.037-16.213V237.933
				c0-18.773-15.36-34.133-34.133-34.133H383v-68.267h8.533c5.12,0,8.533-3.413,8.533-8.533s-3.413-8.533-8.533-8.533h-17.067H306.2
				h-17.067c-5.12,0-8.533,3.413-8.533,8.533s3.413,8.533,8.533,8.533h8.533V203.8h-9.387c-18.773,0-33.28,15.36-33.28,33.28v77.653
				h-18.164l-15.662-109.636c0.321-1.905-0.059-3.911-1.161-5.564c-1.55-2.326-3.813-3.932-6.771-4.209
				c-0.297-0.034-0.598-0.057-0.904-0.057c-0.002,0-0.003,0-0.005,0h-9.387v-20.48c0-11.947-9.387-22.187-22.187-22.187h-23.04
				c-11.947,0-22.187,9.387-22.187,22.187v20.48H127c-0.002,0-0.003,0-0.005,0c-0.307,0-0.607,0.023-0.904,0.057
				c-2.959,0.278-5.221,1.884-6.771,4.209c-1.11,1.665-1.485,3.689-1.151,5.607l-14.873,109.593H92.867
				c-5.12,0-8.533,3.413-8.533,8.533v42.667V408.6v34.133H67.267V178.2c0-52.053,41.813-93.867,93.867-93.867h34.133h119.467h34.133
				c52.053,0,93.867,41.813,93.867,93.867v264.533H421.63z"/>
			<path d="M383,237.933h-85.333c-5.12,0-8.533,3.413-8.533,8.533V280.6c0,5.12,3.413,8.533,8.533,8.533H383
				c5.12,0,8.533-3.413,8.533-8.533v-34.133C391.533,241.347,388.12,237.933,383,237.933z M374.467,272.067H306.2V255h68.267
				V272.067z"/>
		</g>
	</g>
</g>
<g>
</g>
<g>
</g>
<g>
</g>
<g>
</g>
<g>
</g>
<g>
</g>
<g>
</g>
<g>
</g>
<g>
</g>
<g>
</g>
<g>
</g>
<g>
</g>
<g>
</g>
<g>
</g>
<g>
</g>
</svg>
