<?xml version="1.0" encoding="iso-8859-1"?>
<!-- Generator: Adobe Illustrator 19.0.0, SVG Export Plug-In . SVG Version: 6.00 Build 0)  -->
<svg version="1.1" id="Layer_1" xmlns="http://www.w3.org/2000/svg" xmlns:xlink="http://www.w3.org/1999/xlink" x="0px" y="0px"
	 viewBox="0 0 512 512" style="enable-background:new 0 0 512 512;" xml:space="preserve">
<g transform="translate(1 1)">
	<g>
		<g>
			<path d="M220.867,237.933h-85.333c-5.12,0-8.533,3.413-8.533,8.533V280.6c0,5.12,3.413,8.533,8.533,8.533h85.333
				c5.12,0,8.533-3.413,8.533-8.533v-34.133C229.4,241.347,225.987,237.933,220.867,237.933z M212.333,272.067h-68.267V255h68.267
				V272.067z"/>
			<path d="M289.133,357.4h85.333c5.12,0,8.533-3.413,8.533-8.533v-34.133c0-5.12-3.413-8.533-8.533-8.533h-85.333
				c-5.12,0-8.533,3.413-8.533,8.533v34.133C280.6,353.987,284.013,357.4,289.133,357.4z M297.667,323.267h68.267v17.067h-68.267
				V323.267z"/>
			<path d="M485.4,442.733h-25.6V178.2c0-61.44-49.493-110.933-110.933-110.933h-25.6V50.2c0-9.387-7.68-17.067-17.067-17.067
				h-17.067C289.133,14.36,273.773-1,255-1s-34.133,15.36-34.133,34.133H203.8c-9.387,0-17.067,7.68-17.067,17.067v17.067h-25.6
				C99.693,67.267,50.2,116.76,50.2,178.2v264.533H24.6c-5.12,0-8.533,3.413-8.533,8.533c0,5.12,3.413,8.533,8.533,8.533h34.133
				h13.148c-2.927,5.029-4.615,10.859-4.615,17.067C67.267,495.64,82.627,511,101.4,511c18.773,0,34.133-15.36,34.133-34.133
				c0-6.208-1.688-12.037-4.615-17.067h99.335h49.493h99.335c-2.927,5.029-4.615,10.859-4.615,17.067
				c0,18.773,15.36,34.133,34.133,34.133c18.773,0,34.133-15.36,34.133-34.133c0-6.208-1.688-12.037-4.615-17.067h13.148H485.4
				c5.12,0,8.533-3.413,8.533-8.533C493.933,446.147,490.52,442.733,485.4,442.733z M255,16.067c9.387,0,17.067,7.68,17.067,17.067
				h-34.133C237.933,23.747,245.613,16.067,255,16.067z M203.8,50.2h25.6h51.2h25.6v17.067H203.8V50.2z M101.4,493.933
				c-9.387,0-17.067-7.68-17.067-17.067S92.013,459.8,101.4,459.8c9.387,0,17.067,7.68,17.067,17.067S110.787,493.933,101.4,493.933
				z M126.147,442.733c-9.387,0-16.213-7.68-16.213-16.213V237.08c0-9.387,7.68-16.213,16.213-16.213h17.92h68.267H229.4
				c9.387,0,17.067,7.68,17.067,17.067v67.413V426.52c0,9.387-7.68,16.213-16.213,16.213H126.147z M152.6,135.533h51.2V203.8h-51.2
				V135.533z M306.2,203.8h51.2v68.267h-51.2V203.8z M297.667,289.133h68.267H383c9.387,0,17.067,7.68,17.067,17.067v120.32
				c0,9.386-7.679,16.213-16.212,16.213H279.745c-9.386-0.001-16.212-7.68-16.212-16.213V305.347c0-9.387,7.68-16.213,16.213-16.213
				H297.667z M425.667,476.867c0,9.387-7.68,17.067-17.067,17.067c-9.387,0-17.067-7.68-17.067-17.067s7.68-17.067,17.067-17.067
				C417.987,459.8,425.667,467.48,425.667,476.867z M413.096,442.733c2.581-4.762,4.037-10.273,4.037-16.213V306.2
				c0-18.773-15.36-34.133-34.133-34.133h-8.533V203.8H383c5.12,0,8.533-3.413,8.533-8.533s-3.413-8.533-8.533-8.533h-17.067
				h-68.267H280.6c-5.12,0-8.533,3.413-8.533,8.533s3.413,8.533,8.533,8.533h8.533v68.267h-9.387
				c-5.941,0-11.452,1.542-16.213,4.212v-38.346c0-18.773-15.36-34.133-34.133-34.133h-8.533v-68.267h8.533
				c5.12,0,8.533-3.413,8.533-8.533s-3.413-8.533-8.533-8.533h-17.067h-68.267H127c-5.12,0-8.533,3.413-8.533,8.533
				s3.413,8.533,8.533,8.533h8.533V203.8h-9.387c-18.773,0-33.28,15.36-33.28,33.28v189.44c0,5.941,1.542,11.452,4.212,16.213
				H67.267V178.2c0-52.053,41.813-93.867,93.867-93.867h34.133h119.467h34.133c52.053,0,93.867,41.813,93.867,93.867v264.533
				H413.096z"/>
		</g>
	</g>
</g>
<g>
</g>
<g>
</g>
<g>
</g>
<g>
</g>
<g>
</g>
<g>
</g>
<g>
</g>
<g>
</g>
<g>
</g>
<g>
</g>
<g>
</g>
<g>
</g>
<g>
</g>
<g>
</g>
<g>
</g>
</svg>
