<?xml version="1.0" encoding="iso-8859-1"?>
<!-- Generator: Adobe Illustrator 19.0.0, SVG Export Plug-In . SVG Version: 6.00 Build 0)  -->
<svg version="1.1" id="Layer_1" xmlns="http://www.w3.org/2000/svg" xmlns:xlink="http://www.w3.org/1999/xlink" x="0px" y="0px"
	 viewBox="0 0 511.707 511.707" style="enable-background:new 0 0 511.707 511.707;" xml:space="preserve">
<g transform="translate(1 1)">
	<g>
		<g>
			<path d="M365.896,84.04h-34.133v-76.8c0-2.56-1.707-5.973-4.267-6.827c-2.56-1.707-5.973-1.707-8.533-0.853l-179.2,85.333
				c-3.413,1.707-5.12,5.12-4.267,9.387v407.893c0,5.12,3.413,8.533,8.533,8.533h221.867c5.12,0,8.533-3.413,8.533-8.533v-409.6
				C374.429,87.454,371.016,84.04,365.896,84.04z M314.696,20.894V84.04h-133.12L314.696,20.894z M357.362,493.641h-204.8V101.107
				h170.667h34.133V493.641z"/>
			<path d="M314.696,442.441H195.229c-5.12,0-8.533,3.413-8.533,8.533c0,5.12,3.413,8.533,8.533,8.533h119.467
				c5.12,0,8.533-3.413,8.533-8.533C323.229,445.854,319.816,442.441,314.696,442.441z"/>
			<path d="M280.562,425.374c5.12,0,8.533-3.413,8.533-8.533s-3.413-8.533-8.533-8.533h-51.2c-5.12,0-8.533,3.413-8.533,8.533
				s3.413,8.533,8.533,8.533H280.562z"/>
			<path d="M314.696,212.041c0-12.8-6.827-23.893-17.067-29.867c0-1.707,0-2.56,0-4.267c0-10.24-7.68-14.507-12.8-17.067
				c-1.707-1.707-4.267-2.56-5.12-4.267c-10.24-16.213-21.333-33.28-34.987-29.013c-12.8,3.413-15.36,26.453-15.36,43.52
				c-10.24,3.413-17.067,12.8-17.067,23.893v0.853c-14.507,4.267-25.6,17.067-25.6,33.28c0,4.267,0.853,8.533,2.56,12.8
				c-6.827,5.12-11.093,12.8-11.093,21.333c0,3.016,0.486,5.881,1.376,8.533h-1.376c-5.12,0-8.533,3.413-8.533,8.533
				s3.413,8.533,8.533,8.533h1.382l13.125,64.853c1.707,11.947,12.8,20.48,24.747,20.48h75.093c11.947,0,22.187-8.533,24.747-20.48
				l13.125-64.853h1.382c5.12,0,8.533-3.413,8.533-8.533s-3.413-8.533-8.533-8.533h-8.33c5.25-7.09,8.33-15.924,8.33-25.6
				C331.762,232.521,324.936,219.721,314.696,212.041z M202.909,254.707c3.413,0,5.973-2.56,7.68-5.973
				c0.853-2.56,0.853-5.973-1.707-8.533s-4.267-6.827-4.267-11.093c0-9.387,6.827-17.067,17.067-17.067c0,0,6.827-0.853,8.533-3.413
				c1.707-3.413,1.707-6.827,0-9.387c0-1.707-0.853-2.56-0.853-4.267c0-5.12,3.413-8.533,8.533-8.533
				c2.56,0,4.267-0.853,5.973-3.413c1.707-1.707,2.56-3.413,2.56-5.973c0-12.8,0.853-27.307,3.413-32.427
				c2.56,1.707,7.68,6.827,15.36,20.48c3.413,5.12,8.533,8.533,11.947,10.24c0.853,0.853,3.413,1.707,3.413,2.56
				c0,1.707,0,3.413-0.853,5.12c-1.707,2.56-1.707,5.12-0.853,7.68s3.413,4.267,5.973,5.12c7.68,1.707,12.8,8.533,12.8,16.213
				c0,1.707,0,2.56,0,3.413c-0.853,3.413,0.853,6.827,4.267,8.533c7.68,4.267,12.8,12.8,12.8,22.187c0,14.507-11.093,25.6-25.6,25.6
				h-85.333c-5.12,0-8.533-3.413-8.533-8.533C195.229,258.974,198.642,255.561,202.909,254.707z M300.189,350.281
				c-0.853,4.267-4.267,6.827-8.533,6.827h-74.24c-4.267,0-7.68-2.56-8.533-6.827l-11.947-61.44h6.827h85.333h23.04L300.189,350.281
				z"/>
			<path d="M257.522,218.014c1.707,1.707,3.413,2.56,5.973,2.56s4.267-0.853,5.973-2.56c3.413-3.413,3.413-8.533,0-11.947
				l-8.533-8.533c-3.413-3.413-8.533-3.413-11.947,0s-3.413,8.533,0,11.947L257.522,218.014z"/>
			<path d="M257.522,240.201c-3.413,3.413-3.413,8.533,0,11.947l8.533,8.533c1.707,1.707,3.413,2.56,5.973,2.56
				s4.267-0.853,5.973-2.56c3.413-3.413,3.413-8.533,0-11.947l-8.533-8.533C266.056,236.787,260.936,236.787,257.522,240.201z"/>
			<path d="M229.362,246.174c5.12,0,8.533-3.413,8.533-8.533s-3.413-8.533-8.533-8.533c-5.12,0-8.533,3.413-8.533,8.533
				S224.242,246.174,229.362,246.174z"/>
		</g>
	</g>
</g>
<g>
</g>
<g>
</g>
<g>
</g>
<g>
</g>
<g>
</g>
<g>
</g>
<g>
</g>
<g>
</g>
<g>
</g>
<g>
</g>
<g>
</g>
<g>
</g>
<g>
</g>
<g>
</g>
<g>
</g>
</svg>
