<?xml version="1.0" encoding="iso-8859-1"?>
<!-- Generator: Adobe Illustrator 19.0.0, SVG Export Plug-In . SVG Version: 6.00 Build 0)  -->
<svg version="1.1" id="Layer_1" xmlns="http://www.w3.org/2000/svg" xmlns:xlink="http://www.w3.org/1999/xlink" x="0px" y="0px"
	 viewBox="0 0 512 512" style="enable-background:new 0 0 512 512;" xml:space="preserve">
<g transform="translate(1 1)">
	<g>
		<g>
			<path d="M485.4-1H255H24.6C15.213-1,7.533,6.68,7.533,16.067v477.867C7.533,503.32,15.213,511,24.6,511H255h230.4
				c9.387,0,17.067-7.68,17.067-17.067V16.067C502.467,6.68,494.787-1,485.4-1z M24.6,16.067h221.867v477.867H24.6V16.067z
				 M485.4,493.933H263.533V16.067H485.4V493.933z"/>
			<path d="M74.947,118.467H196.12c5.12,0,8.533-3.413,8.533-8.533c0-38.4-30.72-68.267-69.12-68.267
				c-38.4,0-69.12,30.72-69.12,68.267C66.413,115.053,69.827,118.467,74.947,118.467z M135.533,58.733
				c25.6,0,46.933,17.92,51.2,42.667h-102.4C87.747,76.653,109.08,58.733,135.533,58.733z"/>
			<path d="M67.267,152.6H203.8c5.12,0,8.533-3.413,8.533-8.533c0-5.12-3.413-8.533-8.533-8.533H67.267
				c-5.12,0-8.533,3.413-8.533,8.533C58.733,149.187,62.147,152.6,67.267,152.6z"/>
			<path d="M144.067,203.8H50.2c-5.12,0-8.533,3.413-8.533,8.533c0,5.12,3.413,8.533,8.533,8.533h93.867
				c5.12,0,8.533-3.413,8.533-8.533C152.6,207.213,149.187,203.8,144.067,203.8z"/>
			<path d="M220.867,203.8h-25.6c-5.12,0-8.533,3.413-8.533,8.533c0,5.12,3.413,8.533,8.533,8.533h25.6
				c5.12,0,8.533-3.413,8.533-8.533C229.4,207.213,225.987,203.8,220.867,203.8z"/>
			<path d="M144.067,280.6H50.2c-5.12,0-8.533,3.413-8.533,8.533s3.413,8.533,8.533,8.533h93.867c5.12,0,8.533-3.413,8.533-8.533
				S149.187,280.6,144.067,280.6z"/>
			<path d="M220.867,280.6h-25.6c-5.12,0-8.533,3.413-8.533,8.533s3.413,8.533,8.533,8.533h25.6c5.12,0,8.533-3.413,8.533-8.533
				S225.987,280.6,220.867,280.6z"/>
			<path d="M144.067,357.4H50.2c-5.12,0-8.533,3.413-8.533,8.533s3.413,8.533,8.533,8.533h93.867c5.12,0,8.533-3.413,8.533-8.533
				S149.187,357.4,144.067,357.4z"/>
			<path d="M220.867,357.4h-25.6c-5.12,0-8.533,3.413-8.533,8.533s3.413,8.533,8.533,8.533h25.6c5.12,0,8.533-3.413,8.533-8.533
				S225.987,357.4,220.867,357.4z"/>
			<path d="M144.067,434.2H50.2c-5.12,0-8.533,3.413-8.533,8.533s3.413,8.533,8.533,8.533h93.867c5.12,0,8.533-3.413,8.533-8.533
				S149.187,434.2,144.067,434.2z"/>
			<path d="M220.867,434.2h-25.6c-5.12,0-8.533,3.413-8.533,8.533s3.413,8.533,8.533,8.533h25.6c5.12,0,8.533-3.413,8.533-8.533
				S225.987,434.2,220.867,434.2z"/>
			<path d="M289.133,220.867H383c5.12,0,8.533-3.413,8.533-8.533c0-5.12-3.413-8.533-8.533-8.533h-93.867
				c-5.12,0-8.533,3.413-8.533,8.533C280.6,217.453,284.013,220.867,289.133,220.867z"/>
			<path d="M434.2,220.867h25.6c5.12,0,8.533-3.413,8.533-8.533c0-5.12-3.413-8.533-8.533-8.533h-25.6
				c-5.12,0-8.533,3.413-8.533,8.533C425.667,217.453,429.08,220.867,434.2,220.867z"/>
			<path d="M289.133,297.667H383c5.12,0,8.533-3.413,8.533-8.533S388.12,280.6,383,280.6h-93.867c-5.12,0-8.533,3.413-8.533,8.533
				S284.013,297.667,289.133,297.667z"/>
			<path d="M434.2,297.667h25.6c5.12,0,8.533-3.413,8.533-8.533s-3.413-8.533-8.533-8.533h-25.6c-5.12,0-8.533,3.413-8.533,8.533
				S429.08,297.667,434.2,297.667z"/>
			<path d="M289.133,144.067H383c5.12,0,8.533-3.413,8.533-8.533S388.12,127,383,127h-93.867c-5.12,0-8.533,3.413-8.533,8.533
				S284.013,144.067,289.133,144.067z"/>
			<path d="M434.2,144.067h25.6c5.12,0,8.533-3.413,8.533-8.533S464.92,127,459.8,127h-25.6c-5.12,0-8.533,3.413-8.533,8.533
				S429.08,144.067,434.2,144.067z"/>
			<path d="M289.133,67.267H383c5.12,0,8.533-3.413,8.533-8.533S388.12,50.2,383,50.2h-93.867c-5.12,0-8.533,3.413-8.533,8.533
				S284.013,67.267,289.133,67.267z"/>
			<path d="M434.2,67.267h25.6c5.12,0,8.533-3.413,8.533-8.533S464.92,50.2,459.8,50.2h-25.6c-5.12,0-8.533,3.413-8.533,8.533
				S429.08,67.267,434.2,67.267z"/>
			<path d="M289.133,374.467H383c5.12,0,8.533-3.413,8.533-8.533S388.12,357.4,383,357.4h-93.867c-5.12,0-8.533,3.413-8.533,8.533
				S284.013,374.467,289.133,374.467z"/>
			<path d="M434.2,374.467h25.6c5.12,0,8.533-3.413,8.533-8.533s-3.413-8.533-8.533-8.533h-25.6c-5.12,0-8.533,3.413-8.533,8.533
				S429.08,374.467,434.2,374.467z"/>
			<path d="M289.133,451.267H383c5.12,0,8.533-3.413,8.533-8.533S388.12,434.2,383,434.2h-93.867c-5.12,0-8.533,3.413-8.533,8.533
				S284.013,451.267,289.133,451.267z"/>
			<path d="M434.2,451.267h25.6c5.12,0,8.533-3.413,8.533-8.533s-3.413-8.533-8.533-8.533h-25.6c-5.12,0-8.533,3.413-8.533,8.533
				S429.08,451.267,434.2,451.267z"/>
		</g>
	</g>
</g>
<g>
</g>
<g>
</g>
<g>
</g>
<g>
</g>
<g>
</g>
<g>
</g>
<g>
</g>
<g>
</g>
<g>
</g>
<g>
</g>
<g>
</g>
<g>
</g>
<g>
</g>
<g>
</g>
<g>
</g>
</svg>
