<?xml version="1.0" encoding="iso-8859-1"?>
<!-- Generator: Adobe Illustrator 19.0.0, SVG Export Plug-In . SVG Version: 6.00 Build 0)  -->
<svg version="1.1" id="Layer_1" xmlns="http://www.w3.org/2000/svg" xmlns:xlink="http://www.w3.org/1999/xlink" x="0px" y="0px"
	 viewBox="0 0 511.707 511.707" style="enable-background:new 0 0 511.707 511.707;" xml:space="preserve">
<g transform="translate(1 1)">
	<g>
		<g>
			<path d="M276.296,194.974l-14.507-37.547c-0.853-3.413-4.267-5.12-7.68-5.12s-5.973,1.707-7.68,5.12l-14.507,37.547h-45.227
				c-3.413,0-6.827,2.56-8.533,6.827c-1.707,3.413,0,6.827,2.56,9.387l38.4,29.867l-15.36,45.227c-0.853,3.413,0,6.827,3.413,9.387
				s7.68,2.56,10.24,0l37.547-29.867l37.547,29.867c1.707,0.853,3.413,1.707,5.12,1.707s3.413-0.853,4.267-2.56
				c3.413-1.707,4.267-5.973,3.413-9.387l-15.36-45.227l38.4-29.867c2.56-2.56,3.413-5.973,2.56-9.387s-4.267-5.973-7.68-5.973
				H276.296z M275.442,230.814c-2.56,2.56-3.413,5.973-2.56,9.387l7.68,23.893l-20.48-16.213c-1.707-0.853-3.413-1.707-5.12-1.707
				s-3.413,0.853-5.12,1.707l-20.48,16.213l8.533-23.893c1.707-3.413,0-6.827-2.56-9.387l-23.893-18.773h26.453
				c3.413,0,6.827-1.707,7.68-5.12l9.387-23.04l9.387,23.04c0.853,3.413,4.267,5.12,7.68,5.12h27.307L275.442,230.814z"/>
			<path d="M365.896,84.04h-34.133v-76.8c0-2.56-1.707-5.973-4.267-6.827c-2.56-1.707-5.973-1.707-8.533-0.853l-179.2,85.333
				c-3.413,1.707-5.12,5.12-4.267,9.387v407.893c0,5.12,3.413,8.533,8.533,8.533h221.867c5.12,0,8.533-3.413,8.533-8.533v-409.6
				C374.429,87.454,371.016,84.04,365.896,84.04z M314.696,20.894V84.04h-133.12L314.696,20.894z M357.362,493.641h-204.8V101.107
				h170.667h34.133V493.641z"/>
			<path d="M314.696,442.441H195.229c-5.12,0-8.533,3.413-8.533,8.533c0,5.12,3.413,8.533,8.533,8.533h119.467
				c5.12,0,8.533-3.413,8.533-8.533C323.229,445.854,319.816,442.441,314.696,442.441z"/>
			<path d="M280.562,425.374c5.12,0,8.533-3.413,8.533-8.533s-3.413-8.533-8.533-8.533h-51.2c-5.12,0-8.533,3.413-8.533,8.533
				s3.413,8.533,8.533,8.533H280.562z"/>
		</g>
	</g>
</g>
<g>
</g>
<g>
</g>
<g>
</g>
<g>
</g>
<g>
</g>
<g>
</g>
<g>
</g>
<g>
</g>
<g>
</g>
<g>
</g>
<g>
</g>
<g>
</g>
<g>
</g>
<g>
</g>
<g>
</g>
</svg>
