<?xml version="1.0" encoding="iso-8859-1"?>
<!-- Generator: Adobe Illustrator 19.0.0, SVG Export Plug-In . SVG Version: 6.00 Build 0)  -->
<svg version="1.1" id="Layer_1" xmlns="http://www.w3.org/2000/svg" xmlns:xlink="http://www.w3.org/1999/xlink" x="0px" y="0px"
	 viewBox="0 0 511.707 511.707" style="enable-background:new 0 0 511.707 511.707;" xml:space="preserve">
<g transform="translate(1 1)">
	<g>
		<g>
			<path d="M365.896,84.04h-34.133v-76.8c0-2.56-1.707-5.973-4.267-6.827c-2.56-1.707-5.973-1.707-8.533-0.853l-179.2,85.333
				c-3.413,1.707-5.12,5.12-4.267,9.387v407.893c0,5.12,3.413,8.533,8.533,8.533h221.867c5.12,0,8.533-3.413,8.533-8.533v-409.6
				C374.429,87.454,371.016,84.04,365.896,84.04z M314.696,20.894V84.04h-133.12L314.696,20.894z M357.362,493.641h-204.8V101.107
				h170.667h34.133V493.641z"/>
			<path d="M314.696,442.441H195.229c-5.12,0-8.533,3.413-8.533,8.533c0,5.12,3.413,8.533,8.533,8.533h119.467
				c5.12,0,8.533-3.413,8.533-8.533C323.229,445.854,319.816,442.441,314.696,442.441z"/>
			<path d="M229.362,408.307c-5.12,0-8.533,3.413-8.533,8.533s3.413,8.533,8.533,8.533h51.2c5.12,0,8.533-3.413,8.533-8.533
				s-3.413-8.533-8.533-8.533H229.362z"/>
			<path d="M229.362,374.174h51.2c9.387,0,17.067-7.68,17.067-17.067v-51.199c0,0,0-0.001,0-0.001v-51.2c0,0,0-0.001,0-0.001
				v-42.665c0-6.827-2.56-12.8-6.827-17.067c-1.707-1.707-4.267-2.56-6.827-4.267c-0.853,0-2.56-0.853-3.413-1.707v-36.693
				c0-9.387-7.68-17.067-17.067-17.067h-17.067c-9.387,0-17.067,7.68-17.067,17.067v36.693c-0.853,0-2.56,0.853-3.413,1.707
				c-2.56,0.853-5.12,2.56-6.827,4.267c-4.267,5.12-6.827,11.093-6.827,17.067v42.667v51.2v51.2
				C212.296,366.494,219.976,374.174,229.362,374.174z M229.362,357.107v-42.667h51.2v42.667H229.362z M229.362,263.241h51.2v34.133
				h-51.2V263.241z M231.069,207.774c0.853,0,2.56-0.853,3.413-1.707c5.12-3.413,11.947-6.827,11.947-14.507v-39.253h17.067v38.4
				c0,7.68,6.827,11.093,11.947,14.507c1.707,0.853,2.56,0.853,3.413,1.707c0.853,1.707,1.707,3.413,1.707,5.12v34.133h-51.2
				v-34.133C229.362,210.334,230.216,208.627,231.069,207.774z"/>
		</g>
	</g>
</g>
<g>
</g>
<g>
</g>
<g>
</g>
<g>
</g>
<g>
</g>
<g>
</g>
<g>
</g>
<g>
</g>
<g>
</g>
<g>
</g>
<g>
</g>
<g>
</g>
<g>
</g>
<g>
</g>
<g>
</g>
</svg>
