<?xml version="1.0" encoding="iso-8859-1"?>
<!-- Generator: Adobe Illustrator 19.0.0, SVG Export Plug-In . SVG Version: 6.00 Build 0)  -->
<svg version="1.1" id="Layer_1" xmlns="http://www.w3.org/2000/svg" xmlns:xlink="http://www.w3.org/1999/xlink" x="0px" y="0px"
	 viewBox="0 0 512 512" style="enable-background:new 0 0 512 512;" xml:space="preserve">
<g transform="translate(1 1)">
	<g>
		<g>
			<path d="M417.133-1H92.867c-14.507,0-25.6,11.093-25.6,25.6v460.8c0,14.507,11.093,25.6,25.6,25.6h324.267
				c14.507,0,25.6-11.093,25.6-25.6V24.6C442.733,10.093,431.64-1,417.133-1z M425.667,485.4c0,5.12-3.413,8.533-8.533,8.533H92.867
				c-5.12,0-8.533-3.413-8.533-8.533V24.6c0-5.12,4.267-8.533,8.533-8.533h324.267c5.12,0,8.533,3.413,8.533,8.533V485.4z"/>
			<path d="M255,58.733c-70.827,0-128,57.173-128,128s57.173,128,128,128s128-57.173,128-128S325.827,58.733,255,58.733z
				 M365.613,178.2h-51.001c-1.133-41.118-10.425-75.63-24.685-96.821C331.578,95.105,362.184,132.75,365.613,178.2z
				 M246.467,78.334V178.2h-34.005C214.018,125.978,229.707,88.179,246.467,78.334z M246.467,195.267v99.866
				c-16.76-9.845-32.449-47.643-34.005-99.866H246.467z M263.533,295.132v-99.866h34.005
				C295.982,247.489,280.293,285.288,263.533,295.132z M263.533,178.2V78.334c16.76,9.845,32.449,47.643,34.005,99.866H263.533z
				 M220.073,81.379c-14.261,21.191-23.553,55.704-24.685,96.821h-51.001C147.816,132.75,178.422,95.105,220.073,81.379z
				 M144.388,195.267h51.001c1.133,41.118,10.425,75.63,24.685,96.821C178.422,278.361,147.816,240.717,144.388,195.267z
				 M289.927,292.088c14.261-21.192,23.553-55.704,24.685-96.821h51.001C362.184,240.717,331.578,278.361,289.927,292.088z"/>
			<path d="M289.133,374.467h-153.6c-5.12,0-8.533,3.413-8.533,8.533s3.413,8.533,8.533,8.533h153.6c5.12,0,8.533-3.413,8.533-8.533
				S294.253,374.467,289.133,374.467z"/>
			<path d="M272.067,408.6H135.533c-5.12,0-8.533,3.413-8.533,8.533s3.413,8.533,8.533,8.533h136.533
				c5.12,0,8.533-3.413,8.533-8.533S277.187,408.6,272.067,408.6z"/>
			<path d="M255,442.733H135.533c-5.12,0-8.533,3.413-8.533,8.533c0,5.12,3.413,8.533,8.533,8.533H255
				c5.12,0,8.533-3.413,8.533-8.533C263.533,446.147,260.12,442.733,255,442.733z"/>
		</g>
	</g>
</g>
<g>
</g>
<g>
</g>
<g>
</g>
<g>
</g>
<g>
</g>
<g>
</g>
<g>
</g>
<g>
</g>
<g>
</g>
<g>
</g>
<g>
</g>
<g>
</g>
<g>
</g>
<g>
</g>
<g>
</g>
</svg>
