<?xml version="1.0" encoding="iso-8859-1"?>
<!-- Generator: Adobe Illustrator 19.0.0, SVG Export Plug-In . SVG Version: 6.00 Build 0)  -->
<svg version="1.1" id="Layer_1" xmlns="http://www.w3.org/2000/svg" xmlns:xlink="http://www.w3.org/1999/xlink" x="0px" y="0px"
	 viewBox="0 0 503.607 503.607" style="enable-background:new 0 0 503.607 503.607;" xml:space="preserve">
<g transform="translate(1 1)">
	<g>
		<g>
			<path d="M468.193,66.148H35.092C14.948,66.148-1,82.095-1,101.4v31.895v83.934v182.977c0,19.305,15.948,35.252,36.092,35.252
				h432.262c20.144,0,35.253-15.948,35.253-35.252V217.229v-83.934V101.4C502.607,82.095,487.498,66.148,468.193,66.148z
				 M15.787,150.082H485.82v50.361H15.787V150.082z M486.659,400.207c0,10.072-8.393,18.466-18.466,18.466H35.092
				c-10.911,0-19.305-8.393-19.305-18.466V217.229h470.872V400.207z M15.787,133.295V101.4c0-10.072,8.393-18.466,19.305-18.466
				h432.262c10.911,0,18.466,8.393,19.305,18.466v31.895H15.787z"/>
			<path d="M124.902,376.705c23.691,0,43.857-13.634,53.196-33.574h97.886v33.574c0,5.036,3.357,8.393,8.393,8.393
				c5.036,0,8.393-3.357,8.393-8.393v-33.574h16.787v16.787c0,5.036,3.357,8.393,8.393,8.393c5.036,0,8.393-3.357,8.393-8.393
				v-16.787h8.393c14.269,0,25.18-10.911,25.18-25.18s-10.911-25.18-25.18-25.18h-156.64c-9.338-19.94-29.504-33.574-53.196-33.574
				c-32.734,0-58.754,26.02-58.754,58.754S92.167,376.705,124.902,376.705z M334.738,309.557c5.036,0,8.393,3.357,8.393,8.393
				s-3.357,8.393-8.393,8.393H183.063c0.115-0.826,0.222-1.654,0.304-2.492c0.282-1.998,0.289-4.151,0.289-5.902
				c0-2.854-0.21-5.654-0.593-8.393H334.738z M124.902,275.984c23.502,0,41.967,18.466,41.967,41.967s-18.466,41.967-41.967,41.967
				c-23.502,0-41.967-18.466-41.967-41.967S101.4,275.984,124.902,275.984z"/>
			<path d="M396.01,365.793c1.679,1.679,3.357,2.518,5.875,2.518c2.518,0,4.197-0.839,5.875-2.518l41.967-41.967
				c3.357-3.357,3.357-8.393,0-11.751l-41.967-41.967c-3.357-3.357-8.393-3.357-11.751,0c-3.357,3.357-3.357,8.393,0,11.751
				l36.092,36.092l-36.092,36.092C392.652,357.4,392.652,362.436,396.01,365.793z"/>
		</g>
	</g>
</g>
<g>
</g>
<g>
</g>
<g>
</g>
<g>
</g>
<g>
</g>
<g>
</g>
<g>
</g>
<g>
</g>
<g>
</g>
<g>
</g>
<g>
</g>
<g>
</g>
<g>
</g>
<g>
</g>
<g>
</g>
</svg>
