<?xml version="1.0" encoding="iso-8859-1"?>
<!-- Generator: Adobe Illustrator 19.0.0, SVG Export Plug-In . SVG Version: 6.00 Build 0)  -->
<svg version="1.1" id="Layer_1" xmlns="http://www.w3.org/2000/svg" xmlns:xlink="http://www.w3.org/1999/xlink" x="0px" y="0px"
	 viewBox="0 0 503.607 503.607" style="enable-background:new 0 0 503.607 503.607;" xml:space="preserve">
<g transform="translate(1 1)">
	<g>
		<g>
			<path d="M301.164,57.754c-51.2,0-95.685,32.734-111.633,81.416c-1.679,5.036,0.839,9.233,5.036,10.911c0.839,0,1.679,0,2.518,0
				c4.197,0,7.554-2.518,8.393-5.875c13.43-41.967,52.039-69.666,95.685-69.666c5.036,0,8.393-3.357,8.393-8.393
				C309.557,61.111,306.2,57.754,301.164,57.754z"/>
			<path d="M494.213,410.279c5.036,0,8.393-3.357,8.393-8.393V208.836c0-5.036-3.357-8.393-8.393-8.393h-16.787v-75.541V92.167
				v-0.839c0-0.068-0.007-0.133-0.008-0.201c-0.086-6.368-1.004-12.736-4.188-19.104c-3.357-5.875-4.197-10.911-4.197-15.108V40.967
				v-25.18C469.033,6.554,461.479-1,452.246-1h-33.574c-9.233,0-16.787,7.554-16.787,16.787v25.18v15.948
				c0,1.967-0.131,3.806-0.487,5.666c-25.845-23.119-57.56-36.318-91.841-38.169V7.393c0-5.036-3.357-8.393-8.393-8.393
				s-8.393,3.357-8.393,8.393v17.026c-76.17,4.224-137.752,65.548-142.396,141.61h-0.293c-3.357,0-5.875,1.679-7.554,4.197
				c-0.839,2.518-1.679,5.875,0,8.393l10.911,21.823H134.05l-25.936-86.452c-1.679-3.357-5.036-5.875-8.393-5.875H54.708
				c-5.921-5.214-13.672-8.393-22.134-8.393C14.108,99.721-1,114.83-1,133.295s15.108,33.574,33.574,33.574
				c8.462,0,16.213-3.179,22.134-8.393h13.958l14.269,52.879v190.531c0,5.036,3.357,8.393,8.393,8.393h25.18v17.02
				c-18.98,2.065-33.574,17.974-33.574,37.537c0,20.984,16.787,37.771,37.771,37.771c20.984,0,37.77-16.787,37.77-37.771
				c0-7.788-2.316-14.995-6.298-20.984h281.185c-3.981,5.988-6.298,13.195-6.298,20.984c0,20.984,16.787,37.771,37.771,37.771
				s37.771-16.787,37.771-37.771c0-19.563-14.594-35.473-33.574-37.537v-17.02H494.213z M457.282,78.738
				c0.799,1.331,1.412,2.75,1.9,4.197h-47.143c0.233-0.562,0.48-1.121,0.758-1.679c0.13-0.519,0.236-1.037,0.32-1.553
				c0.17-0.323,0.331-0.65,0.52-0.965c3.357-7.554,5.036-15.108,5.036-21.823v-7.554h33.574v7.554
				C452.246,64.469,453.925,71.184,457.282,78.738z M460.639,99.721v16.787h-50.361V99.721H460.639z M413.324,200.443
				c-0.862-0.481-1.951-0.839-3.045-0.839v-24.341v-0.839v-41.128h50.361v67.148H413.324z M418.672,15.787h33.574v16.787h-33.574
				V15.787z M301.164,40.967c35.251,0,68.824,13.429,94.004,38.607c-0.889,3.497-1.461,7.167-1.618,10.687
				c-0.035,0.347-0.057,0.701-0.057,1.066v0.839v32.734v41.128H166.939C172.374,95.926,230.104,40.967,301.164,40.967z
				 M163.511,183.656h229.98v16.787H171.905L163.511,183.656z M15.787,133.295c0-9.233,7.554-16.787,16.787-16.787
				c4.534,0,8.657,1.828,11.685,4.776c0.257,0.381,0.554,0.749,0.905,1.099c1.362,1.362,3.275,4.38,3.949,8.16
				c0.012,0.069,0.021,0.139,0.032,0.209c0.061,0.371,0.108,0.75,0.143,1.135c0.039,0.466,0.072,0.933,0.072,1.408
				s-0.032,0.943-0.072,1.408c-0.035,0.384-0.082,0.763-0.143,1.135c-0.011,0.07-0.021,0.14-0.032,0.209
				c-0.674,3.779-2.588,6.798-3.949,8.16c-0.35,0.35-0.647,0.719-0.905,1.099c-3.029,2.948-7.151,4.776-11.685,4.776
				C23.341,150.082,15.787,142.528,15.787,133.295z M75.38,141.689H65.308c0.839-2.518,0.839-5.875,0.839-8.393
				c0-2.518,0-5.875-0.839-8.393h28.538l22.662,75.541H98.043l-14.269-52.879C82.095,144.207,79.577,141.689,75.38,141.689z
				 M99.721,217.229h27.698h39.449h243.41h50.361h25.18v176.262h-25.18h-16.787v-8.393c0-5.036-3.357-8.393-8.393-8.393
				c-5.036,0-8.393,3.357-8.393,8.393v8.393h-16.787v-50.361c0-5.036-3.357-8.393-8.393-8.393c-5.036,0-8.393,3.357-8.393,8.393
				v50.361h-16.787v-16.787c0-5.036-3.357-8.393-8.393-8.393s-8.393,3.357-8.393,8.393v16.787H234.016v-25.18
				c0-5.036-3.357-8.393-8.393-8.393c-5.036,0-8.393,3.357-8.393,8.393v25.18h-16.787v-16.787c0-5.036-3.357-8.393-8.393-8.393
				s-8.393,3.357-8.393,8.393v16.787h-16.787v-50.361c0-5.036-3.357-8.393-8.393-8.393s-8.393,3.357-8.393,8.393v50.361h-16.787
				v-8.393c0-5.036-3.357-8.393-8.393-8.393s-8.393,3.357-8.393,8.393v8.393H99.721V217.229z M120.705,485.82
				c-11.751,0-20.984-9.233-20.984-20.984s9.233-20.984,20.984-20.984c11.751,0,20.984,9.233,20.984,20.984
				S132.456,485.82,120.705,485.82z M485.82,464.836c0,11.751-9.233,20.984-20.984,20.984s-20.984-9.233-20.984-20.984
				s9.233-20.984,20.984-20.984S485.82,453.085,485.82,464.836z M452.246,427.066H133.295v-16.787h318.951V427.066z"/>
		</g>
	</g>
</g>
<g>
</g>
<g>
</g>
<g>
</g>
<g>
</g>
<g>
</g>
<g>
</g>
<g>
</g>
<g>
</g>
<g>
</g>
<g>
</g>
<g>
</g>
<g>
</g>
<g>
</g>
<g>
</g>
<g>
</g>
</svg>
