<?xml version="1.0" encoding="iso-8859-1"?>
<!-- Generator: Adobe Illustrator 19.0.0, SVG Export Plug-In . SVG Version: 6.00 Build 0)  -->
<svg version="1.1" id="Layer_1" xmlns="http://www.w3.org/2000/svg" xmlns:xlink="http://www.w3.org/1999/xlink" x="0px" y="0px"
	 viewBox="0 0 511.801 511.801" style="enable-background:new 0 0 511.801 511.801;" xml:space="preserve">
<g transform="translate(1)">
	<g>
		<g>
			<path d="M482.74,278.841c-1.707-12.8-11.947-23.04-25.6-23.04h-22.187l11.093-22.187c1.707-2.56,1.707-5.973,0-8.533
				s-5.12-4.267-7.68-4.267h-4.124c2.628-4.83,4.124-10.355,4.124-16.213c0-18.773-16.213-34.987-34.987-34.133
				c-4.267-14.507-17.067-25.6-33.28-25.6c-5.973,0-11.093,1.707-16.213,4.267c-1.753-2.504-3.88-4.629-6.259-6.398l52.339-23.468
				c4.267-1.707,5.973-6.827,4.267-11.093C388.02,70.627,357.3,41.614,318.9,27.107c-35.76-13.509-74.477-12.951-109.955,0.282
				l-3.791-8.529l6.226-2.846c4.267-1.707,5.973-6.827,4.267-11.093s-6.827-5.973-11.093-4.267l-29.867,13.653
				c-4.267,1.707-5.973,6.827-4.267,11.093c1.707,3.413,4.267,5.12,7.68,5.12c0.853,0,2.56-0.853,3.413-0.853l8.353-3.819
				l3.656,8.226c-33.846,16.926-59.94,46.019-73.449,81.779c-14.24,37.693-13.668,78.671,2.498,115.678
				c0.021,0.125,0.036,0.249,0.062,0.375c0.335,1.675,1.069,3.082,2.09,4.179l9.857,19.714h-22.187
				c-13.653,0-24.747,10.24-25.6,23.04l-7.857,62.293H52.66L37.3,262.627c-0.853-4.267-4.267-6.827-8.533-6.827H11.7
				c-5.12,0-8.533,3.413-8.533,8.533s3.413,8.533,8.533,8.533h10.24l15.36,78.507c0.853,4.267,4.267,6.827,8.533,6.827h30.951
				L62.9,468.281c0,2.56,0,5.12,1.707,6.827s4.267,2.56,6.827,2.56h18.443c-0.89,2.652-1.376,5.517-1.376,8.533
				c0,14.507,11.093,25.6,25.6,25.6c14.507,0,25.6-11.093,25.6-25.6c0-3.016-0.486-5.881-1.376-8.533H431.21
				c-0.89,2.652-1.376,5.517-1.376,8.533c0,14.507,11.093,25.6,25.6,25.6c14.507,0,25.6-11.093,25.6-25.6
				c0-3.016-0.486-5.881-1.376-8.533H498.1c2.56,0,5.12-0.853,6.827-2.56c0.853-1.707,1.707-4.267,1.707-6.827L482.74,278.841z
				 M327.434,152.547c7.68,0,13.653,4.267,16.213,11.093c0.853,2.56,3.413,4.267,5.973,5.12s5.973,0,7.68-2.56
				c3.413-3.413,7.68-5.12,12.8-5.12c9.387,0,17.067,7.68,17.067,17.067c0,0.853,0,1.707,0,1.707c0,3.413,0.853,5.973,3.413,7.68
				c1.707,1.707,5.12,1.707,7.68,0.853s4.267-0.853,5.973-0.853c9.387,0,17.067,7.68,17.067,17.067
				c0,7.542-4.963,13.974-11.781,16.213H173.496l152.25-68.267H327.434z M136.287,121.827c12.8-34.133,38.4-60.587,71.68-75.947
				c17.92-7.68,36.693-11.947,55.467-11.947c49.493,0,96.427,27.307,121.173,72.533l-248.32,111.787
				C124.34,187.534,124.34,153.401,136.287,121.827z M144.82,238.734h259.413h20.48l-8.533,17.067H153.354L144.82,238.734z
				 M114.1,494.734c-5.12,0-8.533-3.413-8.533-8.533s3.413-8.533,8.533-8.533c5.12,0,8.533,3.413,8.533,8.533
				S119.22,494.734,114.1,494.734z M463.967,486.201c0,5.12-3.413,8.533-8.533,8.533s-8.533-3.413-8.533-8.533
				s3.413-8.533,8.533-8.533S463.967,481.081,463.967,486.201z M445.94,460.601l-16.107-128.853c-0.853-5.12-4.267-8.533-9.387-7.68
				c-5.12,0.853-8.533,5.12-7.68,9.387l15.893,127.147h-59.04l-8.053-128.853c-0.853-4.267-5.12-7.68-9.387-7.68
				c-4.267,0.853-7.68,4.267-7.68,9.387l7.947,127.147H293.3v-128c0-5.12-3.413-8.533-8.533-8.533s-8.533,3.413-8.533,8.533v128
				h-59.147l7.947-127.147c0.853-5.12-2.56-9.387-7.68-9.387c-5.12-0.853-9.387,2.56-9.387,7.68l-8.053,128.853h-59.04
				l15.893-127.147c0-4.267-3.413-8.533-7.68-9.387c-4.267,0-8.533,3.413-9.387,7.68l-16.107,128.853H80.82l13.74-107.375
				c0.486-1.057,0.767-2.251,0.767-3.559c0-0.529-0.045-1.035-0.116-1.526l8.649-67.594c0.853-4.267,4.267-7.68,8.533-7.68h35.84
				H421.3h34.987c4.267,0,7.68,2.56,8.533,7.68l23.04,180.053H445.94z"/>
			<path d="M153.354,190.947h0.853c5.12-0.853,8.533-5.12,7.68-9.387c-5.12-44.373,18.773-87.04,59.733-104.96
				c4.267-1.707,5.973-6.827,4.267-11.093s-6.827-5.973-11.093-4.267c-47.787,21.333-75.947,69.973-69.973,122.027
				C145.674,187.534,149.087,190.947,153.354,190.947z"/>
		</g>
	</g>
</g>
<g>
</g>
<g>
</g>
<g>
</g>
<g>
</g>
<g>
</g>
<g>
</g>
<g>
</g>
<g>
</g>
<g>
</g>
<g>
</g>
<g>
</g>
<g>
</g>
<g>
</g>
<g>
</g>
<g>
</g>
</svg>
