<?xml version="1.0" encoding="iso-8859-1"?>
<!-- Generator: Adobe Illustrator 19.0.0, SVG Export Plug-In . SVG Version: 6.00 Build 0)  -->
<svg version="1.1" id="Layer_1" xmlns="http://www.w3.org/2000/svg" xmlns:xlink="http://www.w3.org/1999/xlink" x="0px" y="0px"
	 viewBox="0 0 503.607 503.607" style="enable-background:new 0 0 503.607 503.607;" xml:space="preserve">
<g transform="translate(1 1)">
	<g>
		<g>
			<path d="M477.426,116.508H24.18C9.911,116.508-1,127.42-1,141.689v218.229c0,14.269,10.911,25.18,25.18,25.18h453.246
				c14.269,0,25.18-10.911,25.18-25.18v-16.787v-67.148v-50.361v-67.148v-16.787C502.607,127.42,491.695,116.508,477.426,116.508z
				 M485.82,301.164h-8.393c0-5.036-3.357-8.393-8.393-8.393s-8.393,3.357-8.393,8.393v16.787c0,5.036,3.357,8.393,8.393,8.393
				s8.393-3.357,8.393-8.393h8.393v16.787h-16.787c-14.269,0-25.18-10.911-25.18-25.18s10.911-25.18,25.18-25.18h16.787V301.164z
				 M485.82,183.656h-8.393c0-5.036-3.357-8.393-8.393-8.393s-8.393,3.357-8.393,8.393v16.787c0,5.036,3.357,8.393,8.393,8.393
				s8.393-3.357,8.393-8.393h8.393v16.787h-16.787c-14.269,0-25.18-10.911-25.18-25.18s10.911-25.18,25.18-25.18h16.787V183.656z
				 M477.426,368.311H24.18c-5.036,0-8.393-3.357-8.393-8.393V141.689c0-5.036,4.197-8.393,8.393-8.393h453.246
				c5.036,0,8.393,3.357,8.393,8.393v8.393h-16.787c-23.502,0-41.967,18.466-41.967,41.967s18.466,41.967,41.967,41.967h16.787
				v33.574h-16.787c-23.502,0-41.967,18.466-41.967,41.967s18.466,41.967,41.967,41.967h16.787v8.393
				C485.82,364.954,482.462,368.311,477.426,368.311z"/>
			<path d="M301.164,175.262H82.934c-14.269,0-25.18,10.911-25.18,25.18v100.721c0,14.269,10.911,25.18,25.18,25.18h218.23
				c14.269,0,25.18-10.911,25.18-25.18V200.443C326.344,186.174,315.433,175.262,301.164,175.262z M309.557,301.164
				c0,5.036-3.357,8.393-8.393,8.393H82.934c-5.036,0-8.393-3.357-8.393-8.393V200.443c0-5.036,4.197-8.393,8.393-8.393h218.23
				c5.036,0,8.393,3.357,8.393,8.393V301.164z"/>
			<path d="M150.082,208.836H99.721c-5.036,0-8.393,3.357-8.393,8.393v67.148c0,5.036,3.357,8.393,8.393,8.393h50.361
				c5.036,0,8.393-3.357,8.393-8.393v-67.148C158.475,212.193,155.118,208.836,150.082,208.836z M141.689,275.984h-33.574v-50.361
				h33.574V275.984z"/>
			<path d="M200.443,208.836h-16.787c-5.036,0-8.393,3.357-8.393,8.393s3.357,8.393,8.393,8.393h16.787
				c5.036,0,8.393-3.357,8.393-8.393S205.479,208.836,200.443,208.836z"/>
			<path d="M242.41,208.836h-16.787c-5.036,0-8.393,3.357-8.393,8.393s3.357,8.393,8.393,8.393h16.787
				c5.036,0,8.393-3.357,8.393-8.393S247.446,208.836,242.41,208.836z"/>
			<path d="M284.377,208.836H267.59c-5.036,0-8.393,3.357-8.393,8.393s3.357,8.393,8.393,8.393h16.787
				c5.036,0,8.393-3.357,8.393-8.393S289.413,208.836,284.377,208.836z"/>
			<path d="M200.443,242.41h-16.787c-5.036,0-8.393,3.357-8.393,8.393s3.357,8.393,8.393,8.393h16.787
				c5.036,0,8.393-3.357,8.393-8.393S205.479,242.41,200.443,242.41z"/>
			<path d="M242.41,242.41h-16.787c-5.036,0-8.393,3.357-8.393,8.393s3.357,8.393,8.393,8.393h16.787
				c5.036,0,8.393-3.357,8.393-8.393S247.446,242.41,242.41,242.41z"/>
			<path d="M284.377,242.41H267.59c-5.036,0-8.393,3.357-8.393,8.393s3.357,8.393,8.393,8.393h16.787
				c5.036,0,8.393-3.357,8.393-8.393S289.413,242.41,284.377,242.41z"/>
			<path d="M200.443,275.984h-16.787c-5.036,0-8.393,3.357-8.393,8.393s3.357,8.393,8.393,8.393h16.787
				c5.036,0,8.393-3.357,8.393-8.393S205.479,275.984,200.443,275.984z"/>
			<path d="M242.41,275.984h-16.787c-5.036,0-8.393,3.357-8.393,8.393s3.357,8.393,8.393,8.393h16.787
				c5.036,0,8.393-3.357,8.393-8.393S247.446,275.984,242.41,275.984z"/>
			<path d="M284.377,275.984H267.59c-5.036,0-8.393,3.357-8.393,8.393s3.357,8.393,8.393,8.393h16.787
				c5.036,0,8.393-3.357,8.393-8.393S289.413,275.984,284.377,275.984z"/>
		</g>
	</g>
</g>
<g>
</g>
<g>
</g>
<g>
</g>
<g>
</g>
<g>
</g>
<g>
</g>
<g>
</g>
<g>
</g>
<g>
</g>
<g>
</g>
<g>
</g>
<g>
</g>
<g>
</g>
<g>
</g>
<g>
</g>
</svg>
