<?xml version="1.0" encoding="iso-8859-1"?>
<!-- Generator: Adobe Illustrator 19.0.0, SVG Export Plug-In . SVG Version: 6.00 Build 0)  -->
<svg version="1.1" id="Layer_1" xmlns="http://www.w3.org/2000/svg" xmlns:xlink="http://www.w3.org/1999/xlink" x="0px" y="0px"
	 viewBox="0 0 512 512" style="enable-background:new 0 0 512 512;" xml:space="preserve">
<g transform="translate(1 1)">
	<g>
		<g>
			<path d="M127-1C61.293-1,7.533,52.76,7.533,118.467v76.8V229.4c0,11.491,6.963,20.833,17.067,24.224V408.6
				C24.6,464.92,70.68,511,127,511s102.4-46.08,102.4-102.4V253.624c10.103-3.391,17.067-12.734,17.067-24.224v-34.133v-76.8
				C246.467,52.76,192.707-1,127-1z M212.333,408.6c0,46.933-38.4,85.333-85.333,85.333c-46.933,0-85.333-38.4-85.333-85.333V255
				h170.667V408.6z M229.4,229.4c0,5.12-3.413,8.533-8.533,8.533H33.133c-5.12,0-8.533-3.413-8.533-8.533v-25.6h204.8V229.4z
				 M229.4,186.733H24.6v-68.267c0-56.32,46.08-102.4,102.4-102.4s102.4,46.08,102.4,102.4V186.733z"/>
			<path d="M383-1c-65.707,0-119.467,53.76-119.467,119.467v76.8V229.4c0,11.491,6.963,20.833,17.067,24.224V408.6
				c0,56.32,46.08,102.4,102.4,102.4s102.4-46.08,102.4-102.4V253.624c10.103-3.391,17.067-12.734,17.067-24.224v-34.133v-76.8
				C502.467,52.76,448.707-1,383-1z M383,16.067c56.32,0,102.4,46.08,102.4,102.4v68.267H280.6v-68.267
				C280.6,62.147,326.68,16.067,383,16.067z M468.333,408.6c0,46.933-38.4,85.333-85.333,85.333s-85.333-38.4-85.333-85.333V255
				h170.667V408.6z M485.4,229.4c0,5.12-3.413,8.533-8.533,8.533H289.133c-5.12,0-8.533-3.413-8.533-8.533v-25.6h204.8V229.4z"/>
		</g>
	</g>
</g>
<g>
</g>
<g>
</g>
<g>
</g>
<g>
</g>
<g>
</g>
<g>
</g>
<g>
</g>
<g>
</g>
<g>
</g>
<g>
</g>
<g>
</g>
<g>
</g>
<g>
</g>
<g>
</g>
<g>
</g>
</svg>
