<?xml version="1.0" encoding="iso-8859-1"?>
<!-- Generator: Adobe Illustrator 19.0.0, SVG Export Plug-In . SVG Version: 6.00 Build 0)  -->
<svg version="1.1" id="Layer_1" xmlns="http://www.w3.org/2000/svg" xmlns:xlink="http://www.w3.org/1999/xlink" x="0px" y="0px"
	 viewBox="0 0 512 512" style="enable-background:new 0 0 512 512;" xml:space="preserve">
<g transform="translate(1 1)">
	<g>
		<g>
			<path d="M348.867,476.867h-0.853c-46.933-0.853-84.48-38.4-84.48-85.333V118.467h13.653l13.047,13.046
				c1.395,2.509,4.034,4.02,7.434,4.02h17.067c5.12,0,8.533-3.413,8.533-8.533s-3.413-8.533-8.533-8.533H301.08l-11.947-11.947
				V84.333H357.4c18.773,0,34.133-15.36,34.133-34.133c0-18.773-15.36-34.133-34.133-34.133H152.6
				c-18.773,0-34.133,15.36-34.133,34.133c0,18.773,15.36,34.133,34.133,34.133h68.267v34.133h25.6v273.067
				c0,23.04-8.533,44.373-24.747,60.587s-37.547,24.747-60.587,24.747c-5.12,0-8.533,3.413-8.533,8.533s3.413,8.533,8.533,8.533
				c0.853,0,0.853,0,1.707,0h186.027c5.12,0,8.533-3.413,8.533-8.533S353.987,476.867,348.867,476.867z M152.6,67.267
				c-9.387,0-17.067-7.68-17.067-17.067c0-9.387,7.68-17.067,17.067-17.067h204.8c9.387,0,17.067,7.68,17.067,17.067
				c0,9.387-7.68,17.067-17.067,17.067h-68.267h-68.267H152.6z M237.933,84.333h34.133V101.4h-34.133V84.333z M217.453,476.867
				c16.213-11.093,29.867-26.453,37.547-44.373c5.12,11.947,11.947,23.04,21.333,31.573c4.267,5.12,9.387,9.387,15.36,12.8H217.453z
				"/>
			<path d="M135.533,195.267H121.88l-11.947-11.947v-22.187h8.533c18.773,0,34.133-15.36,34.133-34.133s-15.36-34.133-34.133-34.133
				H33.133C14.36,92.867-1,108.227-1,127s15.36,34.133,34.133,34.133h8.533v34.133h25.6V434.2c0,15.36-25.6,42.667-34.133,42.667
				c-5.12,0-8.533,3.413-8.533,8.533s3.413,8.533,8.533,8.533h85.333c5.12,0,8.533-3.413,8.533-8.533s-3.413-8.533-8.533-8.533
				c-8.533,0-34.133-27.307-34.133-42.667V195.267h13.653l13.046,13.046c1.395,2.509,4.034,4.02,7.434,4.02h17.067
				c5.12,0,8.533-3.413,8.533-8.533S140.653,195.267,135.533,195.267z M89.453,476.867H62.147c5.12-5.12,10.24-11.093,13.653-17.067
				C79.213,465.773,84.333,471.747,89.453,476.867z M33.133,144.067c-9.387,0-17.067-7.68-17.067-17.067s7.68-17.067,17.067-17.067
				h85.333c9.387,0,17.067,7.68,17.067,17.067s-7.68,17.067-17.067,17.067h-8.533H41.667H33.133z M58.733,161.133h34.133V178.2
				H58.733V161.133z"/>
			<path d="M493.933,203.8H480.28l-11.947-11.947v-22.187h8.533c18.773,0,34.133-15.36,34.133-34.133S495.64,101.4,476.867,101.4
				h-85.333c-18.773,0-34.133,15.36-34.133,34.133s15.36,34.133,34.133,34.133h8.533V203.8h25.6v230.4
				c0,15.36-25.6,42.667-34.133,42.667c-5.12,0-8.533,3.413-8.533,8.533s3.413,8.533,8.533,8.533h85.333
				c5.12,0,8.533-3.413,8.533-8.533s-3.413-8.533-8.533-8.533c-8.533,0-34.133-27.307-34.133-42.667V203.8h13.653l13.047,13.046
				c1.395,2.509,4.034,4.02,7.434,4.02h17.067c5.12,0,8.533-3.413,8.533-8.533S499.053,203.8,493.933,203.8z M447.853,476.867
				h-27.307c5.12-5.12,10.24-11.093,13.653-17.067C437.613,465.773,442.733,471.747,447.853,476.867z M391.533,152.6
				c-9.387,0-17.067-7.68-17.067-17.067s7.68-17.067,17.067-17.067h85.333c9.387,0,17.067,7.68,17.067,17.067
				s-7.68,17.067-17.067,17.067h-8.533h-68.267H391.533z M417.133,169.667h34.133v17.067h-34.133V169.667z"/>
		</g>
	</g>
</g>
<g>
</g>
<g>
</g>
<g>
</g>
<g>
</g>
<g>
</g>
<g>
</g>
<g>
</g>
<g>
</g>
<g>
</g>
<g>
</g>
<g>
</g>
<g>
</g>
<g>
</g>
<g>
</g>
<g>
</g>
</svg>
