<?xml version="1.0" encoding="iso-8859-1"?>
<!-- Generator: Adobe Illustrator 19.0.0, SVG Export Plug-In . SVG Version: 6.00 Build 0)  -->
<svg version="1.1" id="Layer_1" xmlns="http://www.w3.org/2000/svg" xmlns:xlink="http://www.w3.org/1999/xlink" x="0px" y="0px"
	 viewBox="0 0 503.607 503.607" style="enable-background:new 0 0 503.607 503.607;" xml:space="preserve">
<g transform="translate(1 1)">
	<g>
		<g>
			<path d="M443.852,116.508h-218.23c-14.269,0-25.18,10.911-25.18,25.18v50.361c0,14.269,10.911,25.18,25.18,25.18h218.23
				c14.269,0,25.18-10.911,25.18-25.18v-50.361C469.033,127.42,458.121,116.508,443.852,116.508z M452.246,192.049
				c0,5.036-3.357,8.393-8.393,8.393h-218.23c-5.036,0-8.393-3.357-8.393-8.393v-50.361c0-5.036,3.357-8.393,8.393-8.393h218.23
				c5.036,0,8.393,3.357,8.393,8.393V192.049z"/>
			<path d="M259.197,234.016h-33.574c-9.233,0-16.787,7.554-16.787,16.787v33.574c0,9.233,7.554,16.787,16.787,16.787h33.574
				c9.233,0,16.787-7.554,16.787-16.787v-33.574C275.984,241.57,268.43,234.016,259.197,234.016z M259.197,284.377h-33.574v-33.574
				h33.574V284.377z"/>
			<path d="M259.197,317.951h-33.574c-9.233,0-16.787,7.554-16.787,16.787v33.574c0,9.233,7.554,16.787,16.787,16.787h33.574
				c9.233,0,16.787-7.554,16.787-16.787v-33.574C275.984,325.505,268.43,317.951,259.197,317.951z M259.197,368.311h-33.574v-33.574
				h33.574V368.311z"/>
			<path d="M259.197,401.885h-33.574c-9.233,0-16.787,7.554-16.787,16.787v33.574c0,9.233,7.554,16.787,16.787,16.787h33.574
				c9.233,0,16.787-7.554,16.787-16.787v-33.574C275.984,409.439,268.43,401.885,259.197,401.885z M259.197,452.246h-33.574v-33.574
				h33.574V452.246z"/>
			<path d="M351.525,234.016h-33.574c-9.233,0-16.787,7.554-16.787,16.787v33.574c0,9.233,7.554,16.787,16.787,16.787h33.574
				c9.233,0,16.787-7.554,16.787-16.787v-33.574C368.311,241.57,360.757,234.016,351.525,234.016z M351.525,284.377h-33.574v-33.574
				h33.574V284.377z"/>
			<path d="M351.525,317.951h-33.574c-9.233,0-16.787,7.554-16.787,16.787v33.574c0,9.233,7.554,16.787,16.787,16.787h33.574
				c9.233,0,16.787-7.554,16.787-16.787v-33.574C368.311,325.505,360.757,317.951,351.525,317.951z M351.525,368.311h-33.574
				v-33.574h33.574V368.311z"/>
			<path d="M351.525,401.885h-33.574c-9.233,0-16.787,7.554-16.787,16.787v33.574c0,9.233,7.554,16.787,16.787,16.787h33.574
				c9.233,0,16.787-7.554,16.787-16.787v-33.574C368.311,409.439,360.757,401.885,351.525,401.885z M351.525,452.246h-33.574
				v-33.574h33.574V452.246z"/>
			<path d="M443.852,234.016h-33.574c-9.233,0-16.787,7.554-16.787,16.787v33.574c0,9.233,7.554,16.787,16.787,16.787h33.574
				c9.233,0,16.787-7.554,16.787-16.787v-33.574C460.639,241.57,453.085,234.016,443.852,234.016z M443.852,284.377h-33.574v-33.574
				h33.574V284.377z"/>
			<path d="M443.852,317.951h-33.574c-9.233,0-16.787,7.554-16.787,16.787v33.574c0,9.233,7.554,16.787,16.787,16.787h33.574
				c9.233,0,16.787-7.554,16.787-16.787v-33.574C460.639,325.505,453.085,317.951,443.852,317.951z M443.852,368.311h-33.574
				v-33.574h33.574V368.311z"/>
			<path d="M443.852,401.885h-33.574c-9.233,0-16.787,7.554-16.787,16.787v33.574c0,9.233,7.554,16.787,16.787,16.787h33.574
				c9.233,0,16.787-7.554,16.787-16.787v-33.574C460.639,409.439,453.085,401.885,443.852,401.885z M443.852,452.246h-33.574
				v-33.574h33.574V452.246z"/>
			<path d="M437.138,82.934H175.262V40.967C175.262,17.466,156.797-1,133.295-1H82.934C59.433-1,40.967,17.466,40.967,40.967v46.417
				C16.344,96.795-1,121.149-1,148.403v288.734c0,36.092,29.377,65.469,65.469,65.469h372.669c36.092,0,65.469-29.377,65.469-64.63
				V148.403C502.607,112.311,473.229,82.934,437.138,82.934z M57.754,40.967c0-14.269,11.751-25.18,25.18-25.18h50.361
				c14.269,0,25.18,10.911,25.18,25.18v50.361v335.738c0,14.269-10.911,25.18-25.18,25.18H82.934
				c-14.269,0-25.18-10.911-25.18-25.18V93.007V40.967z M486.659,437.138c0,26.859-21.823,48.682-48.682,48.682H64.469
				c-26.859,0-48.682-21.823-48.682-47.843V148.403c0-18.466,10.072-34.413,25.18-42.807v321.469
				c0,23.502,18.466,41.967,41.967,41.967h50.361c23.502,0,41.967-18.466,41.967-41.967V99.721h262.715
				c26.859,0,48.682,21.823,48.682,48.682V437.138z"/>
			<path d="M256.679,144.207c-3.357-3.357-8.393-3.357-11.751,0l-16.787,16.787c-3.357,3.357-3.357,8.393,0,11.751
				c1.679,1.679,3.357,2.518,5.875,2.518c2.518,0,4.197-0.839,5.875-2.518l16.787-16.787
				C260.036,152.6,260.036,147.564,256.679,144.207z"/>
			<path d="M429.584,160.993l-16.787,16.787c-3.357,3.357-3.357,8.393,0,11.751c1.679,1.679,3.357,2.518,5.875,2.518
				s4.197-0.839,5.875-2.518l16.787-16.787c3.357-3.357,3.357-8.393,0-11.751C437.977,157.636,432.941,157.636,429.584,160.993z"/>
			<path d="M307.039,144.207c-3.357-3.357-8.393-3.357-11.751,0l-33.574,33.574c-3.357,3.357-3.357,8.393,0,11.751
				c1.679,1.679,3.357,2.518,5.875,2.518c2.518,0,4.197-0.839,5.875-2.518l33.574-33.574
				C310.397,152.6,310.397,147.564,307.039,144.207z"/>
			<path d="M357.4,144.207c-3.357-3.357-8.393-3.357-11.751,0l-33.574,33.574c-3.357,3.357-3.357,8.393,0,11.751
				c1.679,1.679,3.357,2.518,5.875,2.518c2.518,0,4.197-0.839,5.875-2.518l33.574-33.574
				C360.757,152.6,360.757,147.564,357.4,144.207z"/>
			<path d="M407.761,144.207c-3.357-3.357-8.393-3.357-11.751,0l-33.574,33.574c-3.357,3.357-3.357,8.393,0,11.751
				c1.679,1.679,3.357,2.518,5.875,2.518s4.197-0.839,5.875-2.518l33.574-33.574C411.118,152.6,411.118,147.564,407.761,144.207z"/>
		</g>
	</g>
</g>
<g>
</g>
<g>
</g>
<g>
</g>
<g>
</g>
<g>
</g>
<g>
</g>
<g>
</g>
<g>
</g>
<g>
</g>
<g>
</g>
<g>
</g>
<g>
</g>
<g>
</g>
<g>
</g>
<g>
</g>
</svg>
