<?xml version="1.0" encoding="iso-8859-1"?>
<!-- Generator: Adobe Illustrator 19.0.0, SVG Export Plug-In . SVG Version: 6.00 Build 0)  -->
<svg version="1.1" id="Layer_1" xmlns="http://www.w3.org/2000/svg" xmlns:xlink="http://www.w3.org/1999/xlink" x="0px" y="0px"
	 viewBox="0 0 503.641 503.641" style="enable-background:new 0 0 503.641 503.641;" xml:space="preserve">
<g transform="translate(1)">
	<g>
		<g>
			<path d="M437.155,151.116h-1.679V8.427c0-5.036-3.357-8.393-8.393-8.393h-167.41c-0.963-0.085-1.905,0.025-2.805,0.309
				c-1.13,0.323-2.095,0.904-3.031,1.743c-0.169,0.148-0.336,0.303-0.498,0.466l-50.361,50.361
				c-0.163,0.163-0.317,0.329-0.466,0.498c-0.839,0.936-1.42,1.901-1.743,3.031c-0.285,0.9-0.394,1.842-0.309,2.805v91.869h-25.18
				V92.362c0-23.502-18.466-41.967-41.967-41.967H82.951c-23.502,0-41.967,18.466-41.967,41.967v60.79
				c-23.979,9.784-41.967,36.362-41.967,65.112v219.908c0,36.092,29.377,65.469,65.469,65.469h372.669
				c36.092,0,65.469-29.377,65.469-64.63V216.585C502.624,180.493,473.246,151.116,437.155,151.116z M250.82,28.572v21.823h-21.823
				L250.82,28.572z M217.246,67.182h41.967c5.036,0,8.393-3.357,8.393-8.393V16.821h151.082v134.295H217.246V67.182z M57.771,92.362
				c0-14.269,10.911-25.18,25.18-25.18h50.361c14.269,0,25.18,10.911,25.18,25.18v67.148V428.1c0,14.269-10.911,25.18-25.18,25.18
				H82.951c-14.269,0-25.18-10.911-25.18-25.18v-268.59V92.362z M486.676,438.172c0,26.859-21.823,48.682-48.682,48.682H64.486
				c-26.859,0-48.682-21.823-48.682-48.682V218.263c0-18.466,10.072-36.931,25.18-46.164v256c0,23.502,18.466,41.967,41.967,41.967
				h50.361c23.502,0,41.967-18.466,41.967-41.967V167.903h33.574h218.23h10.911c26.859,0,48.682,21.823,48.682,48.682V438.172z"/>
			<path d="M309.574,58.788h41.967c5.036,0,8.393-3.357,8.393-8.393s-3.357-8.393-8.393-8.393h-41.967
				c-5.036,0-8.393,3.357-8.393,8.393S304.538,58.788,309.574,58.788z"/>
			<path d="M276.001,117.542h-25.18c-5.036,0-8.393,3.357-8.393,8.393s3.357,8.393,8.393,8.393h25.18
				c5.036,0,8.393-3.357,8.393-8.393S281.037,117.542,276.001,117.542z"/>
			<path d="M385.115,117.542h-75.541c-5.036,0-8.393,3.357-8.393,8.393s3.357,8.393,8.393,8.393h75.541
				c5.036,0,8.393-3.357,8.393-8.393S390.151,117.542,385.115,117.542z"/>
			<path d="M385.115,83.968h-25.18c-5.036,0-8.393,3.357-8.393,8.393s3.357,8.393,8.393,8.393h25.18
				c5.036,0,8.393-3.357,8.393-8.393S390.151,83.968,385.115,83.968z"/>
			<path d="M250.82,100.755h75.541c5.036,0,8.393-3.357,8.393-8.393s-3.357-8.393-8.393-8.393H250.82
				c-5.036,0-8.393,3.357-8.393,8.393S245.784,100.755,250.82,100.755z"/>
			<path d="M418.689,184.69H217.246c-5.036,0-8.393,3.357-8.393,8.393v50.361c0,5.036,3.357,8.393,8.393,8.393h201.443
				c5.036,0,8.393-3.357,8.393-8.393v-50.361C427.083,188.047,423.725,184.69,418.689,184.69z M410.296,235.05H225.64v-33.574
				h184.656V235.05z"/>
			<path d="M267.607,268.624h-33.574c-5.036,0-8.393,3.357-8.393,8.393v33.574c0,5.036,3.357,8.393,8.393,8.393h33.574
				c5.036,0,8.393-3.357,8.393-8.393v-33.574C276.001,271.982,272.643,268.624,267.607,268.624z M259.214,302.198h-16.787v-16.787
				h16.787V302.198z"/>
			<path d="M334.755,268.624h-33.574c-5.036,0-8.393,3.357-8.393,8.393v33.574c0,5.036,3.357,8.393,8.393,8.393h33.574
				c5.036,0,8.393-3.357,8.393-8.393v-33.574C343.148,271.982,339.791,268.624,334.755,268.624z M326.361,302.198h-16.787v-16.787
				h16.787V302.198z"/>
			<path d="M401.902,268.624h-33.574c-5.036,0-8.393,3.357-8.393,8.393v33.574c0,5.036,3.357,8.393,8.393,8.393h33.574
				c5.036,0,8.393-3.357,8.393-8.393v-33.574C410.296,271.982,406.938,268.624,401.902,268.624z M393.509,302.198h-16.787v-16.787
				h16.787V302.198z"/>
			<path d="M267.607,335.772h-33.574c-5.036,0-8.393,3.357-8.393,8.393v33.574c0,5.036,3.357,8.393,8.393,8.393h33.574
				c5.036,0,8.393-3.357,8.393-8.393v-33.574C276.001,339.129,272.643,335.772,267.607,335.772z M259.214,369.345h-16.787v-16.787
				h16.787V369.345z"/>
			<path d="M334.755,335.772h-33.574c-5.036,0-8.393,3.357-8.393,8.393v33.574c0,5.036,3.357,8.393,8.393,8.393h33.574
				c5.036,0,8.393-3.357,8.393-8.393v-33.574C343.148,339.129,339.791,335.772,334.755,335.772z M326.361,369.345h-16.787v-16.787
				h16.787V369.345z"/>
			<path d="M401.902,335.772h-33.574c-5.036,0-8.393,3.357-8.393,8.393v33.574c0,5.036,3.357,8.393,8.393,8.393h33.574
				c5.036,0,8.393-3.357,8.393-8.393v-33.574C410.296,339.129,406.938,335.772,401.902,335.772z M393.509,369.345h-16.787v-16.787
				h16.787V369.345z"/>
			<path d="M267.607,402.919h-33.574c-5.036,0-8.393,3.357-8.393,8.393v33.574c0,5.036,3.357,8.393,8.393,8.393h33.574
				c5.036,0,8.393-3.357,8.393-8.393v-33.574C276.001,406.277,272.643,402.919,267.607,402.919z M259.214,436.493h-16.787v-16.787
				h16.787V436.493z"/>
			<path d="M334.755,402.919h-33.574c-5.036,0-8.393,3.357-8.393,8.393v33.574c0,5.036,3.357,8.393,8.393,8.393h33.574
				c5.036,0,8.393-3.357,8.393-8.393v-33.574C343.148,406.277,339.791,402.919,334.755,402.919z M326.361,436.493h-16.787v-16.787
				h16.787V436.493z"/>
			<path d="M401.902,402.919h-33.574c-5.036,0-8.393,3.357-8.393,8.393v33.574c0,5.036,3.357,8.393,8.393,8.393h33.574
				c5.036,0,8.393-3.357,8.393-8.393v-33.574C410.296,406.277,406.938,402.919,401.902,402.919z M393.509,436.493h-16.787v-16.787
				h16.787V436.493z"/>
		</g>
	</g>
</g>
<g>
</g>
<g>
</g>
<g>
</g>
<g>
</g>
<g>
</g>
<g>
</g>
<g>
</g>
<g>
</g>
<g>
</g>
<g>
</g>
<g>
</g>
<g>
</g>
<g>
</g>
<g>
</g>
<g>
</g>
</svg>
