<?xml version="1.0" encoding="iso-8859-1"?>
<!-- Generator: Adobe Illustrator 19.0.0, SVG Export Plug-In . SVG Version: 6.00 Build 0)  -->
<svg xmlns="http://www.w3.org/2000/svg" xmlns:xlink="http://www.w3.org/1999/xlink" version="1.1" id="Layer_1" x="0px" y="0px" viewBox="0 0 512 512" style="enable-background:new 0 0 512 512;" xml:space="preserve">
<g>
	<g>
		<path d="M502.922,161.753H361.618l-79.583-79.582c2.018-3.966,3.164-8.448,3.164-13.194c0-16.1-13.098-29.2-29.199-29.2    s-29.199,13.098-29.199,29.2c0,4.746,1.145,9.227,3.163,13.192l-79.573,79.584H9.078c-5.015,0-9.078,4.065-9.078,9.078v39.014    c0,5.014,4.064,9.078,9.078,9.078c5.015,0,9.078-4.065,9.078-9.078V179.91h475.686v274.155h-70.862    c-5.015,0-9.078,4.065-9.078,9.078s4.063,9.078,9.078,9.078h79.94c5.015,0,9.078-4.065,9.078-9.078V170.832    C512,165.818,507.936,161.753,502.922,161.753z M256.001,57.935c6.089,0,11.042,4.953,11.042,11.043    c0,6.089-4.953,11.042-11.042,11.042s-11.042-4.953-11.042-11.042C244.959,62.888,249.912,57.935,256.001,57.935z     M176.068,161.755l66.735-66.745c3.967,2.019,8.45,3.167,13.199,3.167c4.747,0,9.23-1.146,13.195-3.164l66.742,66.742H176.068z"/>
	</g>
</g>
<g>
	<g>
		<path d="M392.72,454.065H18.157V242.529c0-5.014-4.064-9.078-9.078-9.078c-5.015,0-9.078,4.065-9.078,9.078v220.614    c0,5.014,4.064,9.078,9.078,9.078H392.72c5.015,0,9.078-4.065,9.078-9.078S397.735,454.065,392.72,454.065z"/>
	</g>
</g>
<g>
	<g>
		<path d="M134.659,267.9c-17.416,0-31.586,14.17-31.586,31.586v35.007c0,17.416,14.17,31.586,31.586,31.586    s31.586-14.17,31.586-31.586v-35.007C166.245,282.07,152.075,267.9,134.659,267.9z M148.088,334.492    c0,7.404-6.024,13.429-13.429,13.429s-13.429-6.024-13.429-13.429v-35.007c0-7.404,6.024-13.429,13.429-13.429    s13.429,6.024,13.429,13.429V334.492z"/>
	</g>
</g>
<g>
	<g>
		<path d="M213.36,267.898h-19.387c-5.015,0-9.078,4.065-9.078,9.078V357c0,5.014,4.064,9.078,9.078,9.078s9.078-4.065,9.078-9.078    v-19.706h10.308c19.133,0,34.698-15.565,34.698-34.698C248.058,283.463,232.492,267.898,213.36,267.898z M213.36,319.136h-10.308    v-33.082h10.308c9.121,0,16.541,7.42,16.541,16.541C229.901,311.716,222.48,319.136,213.36,319.136z"/>
	</g>
</g>
<g>
	<g>
		<path d="M317.358,347.92h-35.936v-21.511h21.612c5.015,0,9.078-4.065,9.078-9.078s-4.063-9.078-9.078-9.078h-21.612v-22.195    h35.936v0c5.015,0,9.078-4.065,9.078-9.078s-4.064-9.078-9.078-9.078h-45.015c-5.015,0-9.078,4.065-9.078,9.078v80.02    c0,5.014,4.063,9.078,9.078,9.078h45.015c5.015,0,9.078-4.065,9.078-9.078S322.373,347.92,317.358,347.92z"/>
	</g>
</g>
<g>
	<g>
		<path d="M399.849,267.902c-5.015,0-9.078,4.065-9.078,9.078v47.293l-31.236-51.97c-2.101-3.496-6.275-5.161-10.209-4.071    c-3.93,1.091-6.651,4.669-6.651,8.748v80.02c0,5.014,4.064,9.078,9.078,9.078s9.078-4.066,9.078-9.08v-47.293l31.236,51.97    c1.672,2.78,4.654,4.402,7.782,4.402c0.805,0,1.622-0.108,2.427-0.33c3.93-1.091,6.651-4.669,6.651-8.748v-80.02    C408.928,271.967,404.864,267.902,399.849,267.902z"/>
	</g>
</g>
<g>
	<g>
		<path d="M472.661,235.542c-18.995,0-34.449-15.454-34.449-34.449c0-5.014-4.064-9.078-9.078-9.078H197.836    c-5.015,0-9.078,4.065-9.078,9.078s4.064,9.078,9.078,9.078h223.002c3.798,21.747,20.997,38.945,42.744,42.744v128.146    c-21.747,3.798-38.945,20.997-42.744,42.744H91.162c-3.798-21.748-20.997-38.947-42.744-42.745V252.914    c21.747-3.798,38.945-20.997,42.744-42.744h76.413c5.014,0.001,9.077-4.064,9.077-9.077s-4.064-9.078-9.078-9.078H82.867    c-5.015,0-9.078,4.065-9.078,9.078c0,18.995-15.454,34.449-34.449,34.449c-5.015,0-9.078,4.065-9.078,9.078v144.735    c0,5.014,4.064,9.078,9.078,9.078c18.995,0,34.449,15.454,34.449,34.449c0,5.014,4.063,9.078,9.078,9.078h346.267    c5.015,0,9.078-4.065,9.078-9.078c0-18.995,15.454-34.449,34.449-34.449c5.015,0,9.078-4.065,9.078-9.078V244.62    C481.74,239.607,477.676,235.542,472.661,235.542z"/>
	</g>
</g>
<g>
</g>
<g>
</g>
<g>
</g>
<g>
</g>
<g>
</g>
<g>
</g>
<g>
</g>
<g>
</g>
<g>
</g>
<g>
</g>
<g>
</g>
<g>
</g>
<g>
</g>
<g>
</g>
<g>
</g>
</svg>
