<?xml version="1.0" encoding="iso-8859-1"?>
<!-- Generator: Adobe Illustrator 19.0.0, SVG Export Plug-In . SVG Version: 6.00 Build 0)  -->
<svg xmlns="http://www.w3.org/2000/svg" xmlns:xlink="http://www.w3.org/1999/xlink" version="1.1" id="Layer_1" x="0px" y="0px" viewBox="0 0 512.001 512.001" style="enable-background:new 0 0 512.001 512.001;" xml:space="preserve">
<g>
	<g>
		<path d="M470.042,115.514c-26.75-40.676-64.266-72.768-108.493-92.808c-4.328-1.962-9.431-0.044-11.394,4.288    c-1.962,4.329-0.042,9.431,4.288,11.394c41.255,18.694,76.255,48.635,101.214,86.586c25.597,38.923,39.126,84.231,39.126,131.026    c0,131.666-107.118,238.784-238.784,238.784S17.217,387.666,17.217,256.001S124.335,17.217,256.001,17.217    c24.579,0,48.808,3.718,72.016,11.049c4.533,1.432,9.369-1.081,10.802-5.615c1.432-4.534-1.082-9.369-5.616-10.802    C308.315,3.986,282.34,0,256.001,0C187.62,0,123.333,26.629,74.981,74.981C26.629,123.333,0,187.62,0,256.001    s26.629,132.667,74.981,181.02c48.352,48.352,112.64,74.981,181.02,74.981s132.667-26.629,181.02-74.981    c48.352-48.352,74.981-112.64,74.981-181.02C512,205.833,497.492,157.254,470.042,115.514z"/>
	</g>
</g>
<g>
	<g>
		<path d="M420.933,124.08c-1.53-1.911-3.802-3.08-6.245-3.215c-2.433-0.125-4.83,0.778-6.561,2.509L123.372,408.127    c-1.731,1.731-2.643,4.116-2.509,6.561c0.135,2.444,1.304,4.715,3.214,6.245c21.964,17.59,46.749,30.419,73.665,38.132    c4.567,1.307,9.337-1.334,10.647-5.904c1.31-4.571-1.334-9.337-5.904-10.647c-21.629-6.197-41.763-15.997-59.976-29.177    l162.218-162.218h16.198v37.877H280.59c-4.754,0-8.608,3.854-8.608,8.608s3.854,8.608,8.608,8.608h48.898    c0.015,0,0.03,0.002,0.045,0.002c0.015,0,0.03-0.002,0.045-0.002h86.039c4.754,0,8.608-3.854,8.608-8.608v-55.094    c0-4.754-3.854-8.608-8.608-8.608h-93.672l91.393-91.393c24.013,33.141,36.654,72.177,36.654,113.492    c0,106.968-87.023,193.991-193.991,193.991c-7.103,0-14.259-0.388-21.272-1.152c-4.72-0.513-8.976,2.898-9.491,7.625    c-0.515,4.727,2.898,8.976,7.625,9.491c7.629,0.832,15.415,1.255,23.138,1.255c116.461,0,211.208-94.747,211.208-211.208    C467.208,207.501,451.207,161.883,420.933,124.08z M338.144,251.119h68.867v37.877h-68.867V251.119z"/>
	</g>
</g>
<g>
	<g>
		<path d="M391.136,97.313c-0.135-2.445-1.304-4.716-3.215-6.246c-37.801-30.273-83.419-46.274-131.922-46.274    c-116.461,0-211.208,94.747-211.208,211.208c0,48.502,16.001,94.12,46.276,131.922c1.53,1.911,3.802,3.08,6.245,3.215    c0.158,0.008,0.316,0.013,0.474,0.013c2.276,0,4.468-0.903,6.087-2.522l284.754-284.754    C390.358,102.143,391.27,99.758,391.136,97.313z M179.157,288.996H141.88v-37.877h75.154L179.157,288.996z M234.251,233.902    H105.726c-4.754,0-8.608,3.854-8.608,8.608v55.094c0,4.754,3.854,8.608,8.608,8.608h56.214l-63.278,63.278    C74.65,336.35,62.008,297.314,62.008,255.999c0-106.966,87.023-193.991,193.991-193.991c41.315,0,80.35,12.641,113.49,36.652    L234.251,233.902z M124.663,251.119v37.877h-10.329v-37.877H124.663z"/>
	</g>
</g>
<g>
	<g>
		<path d="M144.578,156.885c0-4.118,0.901-5.769,2.392-8.504c1.897-3.477,4.495-8.239,4.495-16.746c0-4.754-3.854-8.608-8.608-8.608    c-4.754,0-8.608,3.854-8.608,8.608c0,4.117-0.901,5.768-2.392,8.503c-1.897,3.477-4.495,8.24-4.495,16.747    c0,8.508,2.597,13.271,4.495,16.747c1.491,2.735,2.392,4.386,2.392,8.504c0,4.116-0.9,5.766-2.392,8.502    c-1.897,3.477-4.495,8.239-4.495,16.746c0,4.754,3.854,8.608,8.608,8.608c4.754,0,8.608-3.854,8.608-8.608    c0-4.116,0.9-5.766,2.392-8.502c1.897-3.477,4.495-8.239,4.495-16.746c0-8.509-2.597-13.271-4.495-16.747    C145.479,162.654,144.578,161.003,144.578,156.885z"/>
	</g>
</g>
<g>
</g>
<g>
</g>
<g>
</g>
<g>
</g>
<g>
</g>
<g>
</g>
<g>
</g>
<g>
</g>
<g>
</g>
<g>
</g>
<g>
</g>
<g>
</g>
<g>
</g>
<g>
</g>
<g>
</g>
</svg>
