<?xml version="1.0" encoding="iso-8859-1"?>
<!-- Generator: Adobe Illustrator 19.0.0, SVG Export Plug-In . SVG Version: 6.00 Build 0)  -->
<svg xmlns="http://www.w3.org/2000/svg" xmlns:xlink="http://www.w3.org/1999/xlink" version="1.1" id="Layer_1" x="0px" y="0px" viewBox="0 0 512 512" style="enable-background:new 0 0 512 512;" xml:space="preserve">
<g>
	<g>
		<path d="M502.77,238.588H388.342v-54.59c0-5.098-4.131-9.23-9.23-9.23h-63.82c-5.099,0-9.23,4.133-9.23,9.23v54.59h-18.422V79.874    c0-5.393,4.386-9.78,9.779-9.78s9.78,4.387,9.78,9.78v38.021c0,5.097,4.131,9.23,9.23,9.23h43.453c5.099,0,9.23-4.133,9.23-9.23    V79.874c0-39.531-32.162-71.693-71.694-71.693c-39.531,0-71.693,32.162-71.693,71.693v47.479c0,5.098,4.131,9.23,9.23,9.23    s9.23-4.133,9.23-9.23V79.874c0-29.352,23.879-53.232,53.232-53.232c29.353,0,53.233,23.88,53.233,53.232v28.791h-24.993V79.874    c0-15.572-12.669-28.241-28.241-28.241c-15.571,0-28.239,12.669-28.239,28.241v158.713h-24.993V158.12    c0-5.097-4.131-9.23-9.23-9.23s-9.23,4.133-9.23,9.23v80.467h-19.788v-54.59c0-5.098-4.131-9.23-9.23-9.23h-63.82    c-5.099,0-9.23,4.133-9.23,9.23v54.59H9.23c-5.099,0-9.23,4.133-9.23,9.23c0,141.159,114.841,256.001,256.001,256.001    c55.251,0,107.861-17.323,152.145-50.098c4.097-3.032,4.96-8.813,1.927-12.91c-3.031-4.098-8.812-4.961-12.91-1.928    c-41.083,30.404-89.896,46.476-141.163,46.476c-127.886,0-232.492-101.595-237.363-228.31h114.251h63.82h118.583h63.82h114.253    c-0.617,16.315-2.883,32.325-6.691,47.853h-134.26c-5.099,0-9.23,4.133-9.23,9.23c0,5.097,4.131,9.23,9.23,9.23h128.939    c-11.752,35.192-31.779,67.343-59.105,94.123c-3.642,3.568-3.701,9.411-0.132,13.053c3.569,3.643,9.412,3.699,13.052,0.132    C484.714,382.116,512,317.177,512,247.818C512,242.72,507.869,238.588,502.77,238.588z M187.478,238.588h-45.359v-45.359h45.359    V238.588z M369.881,238.588h-45.359v-45.359h45.359V238.588z"/>
	</g>
</g>
<g>
	<g>
		<path d="M318.468,304.901H57.754c-5.099,0-9.23,4.133-9.23,9.23c0,5.098,4.131,9.23,9.23,9.23h260.714    c5.099,0,9.23-4.133,9.23-9.23S323.567,304.901,318.468,304.901z"/>
	</g>
</g>
<g>
</g>
<g>
</g>
<g>
</g>
<g>
</g>
<g>
</g>
<g>
</g>
<g>
</g>
<g>
</g>
<g>
</g>
<g>
</g>
<g>
</g>
<g>
</g>
<g>
</g>
<g>
</g>
<g>
</g>
</svg>
