<?xml version="1.0" encoding="iso-8859-1"?>
<!-- Generator: Adobe Illustrator 19.0.0, SVG Export Plug-In . SVG Version: 6.00 Build 0)  -->
<svg xmlns="http://www.w3.org/2000/svg" xmlns:xlink="http://www.w3.org/1999/xlink" version="1.1" id="Layer_1" x="0px" y="0px" viewBox="0 0 512 512" style="enable-background:new 0 0 512 512;" xml:space="preserve">
<g>
	<g>
		<path d="M502.861,325.869c5.049,0,9.139-4.092,9.139-9.139V72.096c0-32.723-26.623-59.347-59.346-59.347H59.347    C26.623,12.749,0,39.373,0,72.096v145.645c0,5.047,4.092,9.139,9.139,9.139s9.139-4.092,9.139-9.139V72.096    c0-22.645,18.424-41.068,41.068-41.068s41.068,18.424,41.068,41.068v77.241V265.95H18.279v-14.764    c0-5.047-4.092-9.139-9.139-9.139S0,246.138,0,251.186v23.904c0,5.047,4.092,9.139,9.139,9.139h91.274v205.883    c0,3.301,1.78,6.345,4.656,7.965c2.877,1.618,6.402,1.561,9.225-0.152l44.422-26.962l44.422,26.962    c2.915,1.768,6.57,1.768,9.484,0l44.422-26.962l44.42,26.962c2.914,1.768,6.569,1.768,9.484,0l44.422-26.962l44.42,26.962    c2.914,1.768,6.569,1.768,9.484,0l44.422-26.962l44.421,26.962c1.455,0.883,3.098,1.326,4.743,1.326    c1.545,0,3.089-0.391,4.483-1.175c2.876-1.62,4.656-4.663,4.656-7.965V350.175c0-5.047-4.091-9.139-9.139-9.139    c-5.049,0-9.139,4.092-9.139,9.139v123.698l-35.281-21.415c-2.916-1.768-6.572-1.768-9.484,0l-44.422,26.962l-44.421-26.962    c-2.916-1.768-6.572-1.768-9.484,0l-44.422,26.962l-44.421-26.962c-2.916-1.768-6.57-1.768-9.484,0l-44.422,26.962l-44.422-26.962    c-2.915-1.768-6.571-1.768-9.484,0l-35.282,21.415V275.089V149.338V72.096c0-15.927-6.318-30.397-16.566-41.068h350.527    c22.645,0,41.067,18.424,41.067,41.068V316.73C493.721,321.779,497.812,325.869,502.861,325.869z"/>
	</g>
</g>
<g>
	<g>
		<path d="M281.103,100.065H172.348c-5.047,0-9.139,4.092-9.139,9.139V256c0,5.047,4.092,9.139,9.139,9.139h108.755    c5.049,0,9.139-4.092,9.139-9.139V109.204C290.242,104.157,286.152,100.065,281.103,100.065z M271.964,246.861h-90.476V118.343    h90.476V246.861z"/>
	</g>
</g>
<g>
	<g>
		<path d="M450.606,283.56H324.855c-5.049,0-9.139,4.092-9.139,9.139v73.397c0,5.047,4.091,9.139,9.139,9.139h125.75    c5.049,0,9.139-4.092,9.139-9.139V292.7C459.745,287.652,455.653,283.56,450.606,283.56z M441.467,356.957H333.995v-55.118    h107.472V356.957z"/>
	</g>
</g>
<g>
	<g>
		<path d="M450.606,100.065H324.855c-5.049,0-9.139,4.092-9.139,9.139s4.091,9.139,9.139,9.139h125.75    c5.049,0,9.139-4.092,9.139-9.139S455.653,100.065,450.606,100.065z"/>
	</g>
</g>
<g>
	<g>
		<path d="M450.606,246.861H324.855c-5.049,0-9.139,4.092-9.139,9.139s4.091,9.139,9.139,9.139h125.75    c5.049,0,9.139-4.092,9.139-9.139S455.653,246.861,450.606,246.861z"/>
	</g>
</g>
<g>
	<g>
		<path d="M450.606,210.162h-46.822c-5.049,0-9.139,4.092-9.139,9.139s4.091,9.139,9.139,9.139h46.822    c5.049,0,9.139-4.092,9.139-9.139S455.653,210.162,450.606,210.162z"/>
	</g>
</g>
<g>
	<g>
		<path d="M370.339,210.162h-45.484c-5.049,0-9.139,4.092-9.139,9.139s4.092,9.139,9.139,9.139h45.484    c5.049,0,9.139-4.092,9.139-9.139S375.387,210.162,370.339,210.162z"/>
	</g>
</g>
<g>
	<g>
		<path d="M450.606,173.463H324.855c-5.049,0-9.139,4.092-9.139,9.139s4.091,9.139,9.139,9.139h125.75    c5.049,0,9.139-4.092,9.139-9.139S455.653,173.463,450.606,173.463z"/>
	</g>
</g>
<g>
	<g>
		<path d="M281.103,364.186H172.348c-5.047,0-9.139,4.092-9.139,9.139c0,5.047,4.092,9.139,9.139,9.139h108.755    c5.049,0,9.139-4.092,9.139-9.139C290.242,368.278,286.152,364.186,281.103,364.186z"/>
	</g>
</g>
<g>
	<g>
		<path d="M281.103,327.487h-39.192c-5.047,0-9.139,4.092-9.139,9.139s4.092,9.139,9.139,9.139h39.192    c5.049,0,9.139-4.092,9.139-9.139S286.152,327.487,281.103,327.487z"/>
	</g>
</g>
<g>
	<g>
		<path d="M208.468,327.487h-36.12c-5.047,0-9.139,4.092-9.139,9.139s4.092,9.139,9.139,9.139h36.12    c5.047,0,9.139-4.092,9.139-9.139S213.515,327.487,208.468,327.487z"/>
	</g>
</g>
<g>
	<g>
		<path d="M281.103,290.789H172.348c-5.047,0-9.139,4.092-9.139,9.139c0,5.047,4.092,9.139,9.139,9.139h108.755    c5.049,0,9.139-4.092,9.139-9.139C290.242,294.881,286.152,290.789,281.103,290.789z"/>
	</g>
</g>
<g>
	<g>
		<path d="M450.606,136.764h-8.027c-5.049,0-9.139,4.092-9.139,9.139s4.091,9.139,9.139,9.139h8.027    c5.049,0,9.139-4.092,9.139-9.139S455.653,136.764,450.606,136.764z"/>
	</g>
</g>
<g>
	<g>
		<path d="M409.135,136.764h-84.28c-5.049,0-9.139,4.092-9.139,9.139s4.092,9.139,9.139,9.139h84.28    c5.049,0,9.139-4.092,9.139-9.139S414.183,136.764,409.135,136.764z"/>
	</g>
</g>
<g>
</g>
<g>
</g>
<g>
</g>
<g>
</g>
<g>
</g>
<g>
</g>
<g>
</g>
<g>
</g>
<g>
</g>
<g>
</g>
<g>
</g>
<g>
</g>
<g>
</g>
<g>
</g>
<g>
</g>
</svg>
