<?xml version="1.0" encoding="iso-8859-1"?>
<!-- Generator: Adobe Illustrator 19.0.0, SVG Export Plug-In . SVG Version: 6.00 Build 0)  -->
<svg xmlns="http://www.w3.org/2000/svg" xmlns:xlink="http://www.w3.org/1999/xlink" version="1.1" id="Layer_1" x="0px" y="0px" viewBox="0 0 512 512" style="enable-background:new 0 0 512 512;" xml:space="preserve">
<g>
	<g>
		<path d="M499.797,374.775h-28.079c5.381-7.185,8.57-16.102,8.57-25.748V210.45c0-4.776-3.871-8.649-8.649-8.649    s-8.649,3.872-8.649,8.649v138.577c0,14.198-11.551,25.748-25.748,25.748H74.757c-14.196,0-25.748-11.55-25.748-25.748V121.459    c0-14.198,11.551-25.748,25.748-25.748h362.487c14.198,0,25.748,11.55,25.748,25.748v59.009c0,4.776,3.871,8.649,8.649,8.649    s8.649-3.872,8.649-8.649v-59.009c0-23.735-19.31-43.045-43.045-43.045h-79.766V26.834C357.477,12.038,345.44,0,330.642,0H181.356    c-14.797,0-26.834,12.038-26.834,26.834v51.581H74.757c-23.735,0-43.045,19.31-43.045,43.045v227.568    c0,9.647,3.19,18.562,8.57,25.748H12.203c-4.777,0-8.649,3.872-8.649,8.649v42.667c0,4.776,3.871,8.649,8.649,8.649h35.449    c-6.714,8.165-10.751,18.611-10.751,29.982C36.901,490.79,58.111,512,84.18,512s47.279-21.21,47.279-47.279    c0-11.371-4.037-21.816-10.751-29.982h34.967c4.778,0,8.649-3.872,8.649-8.649s-3.871-8.649-8.649-8.649H20.851v-25.369h470.297    v25.369H190.27c-4.778,0-8.649,3.872-8.649,8.649s3.871,8.649,8.649,8.649h201.021c-6.714,8.165-10.751,18.611-10.751,29.982    c0,26.069,21.21,47.279,47.279,47.279s47.279-21.21,47.279-47.279c0-11.371-4.037-21.816-10.751-29.982h35.449    c4.778,0,8.649-3.872,8.649-8.649v-42.667C508.446,378.647,504.575,374.775,499.797,374.775z M201.018,78.414V61.117h109.964    v17.297H201.018z M171.82,26.834c0-5.258,4.278-9.537,9.537-9.537h149.287c5.26,0,9.538,4.278,9.538,9.537v51.581h-11.901V52.468    c0-4.776-3.871-8.649-8.649-8.649H192.369c-4.778,0-8.649,3.872-8.649,8.649v25.946H171.82V26.834z M84.18,434.739    c16.533,0,29.982,13.45,29.982,29.982c0,16.532-13.449,29.982-29.982,29.982s-29.982-13.45-29.982-29.982    C54.198,448.189,67.647,434.739,84.18,434.739z M427.82,494.703c-16.533,0-29.982-13.45-29.982-29.982    c0-16.532,13.449-29.982,29.982-29.982s29.982,13.45,29.982,29.982C457.802,481.252,444.353,494.703,427.82,494.703z"/>
	</g>
</g>
<g>
	<g>
		<path d="M206.758,198.671l-21.569-64.527c-0.728-2.175-2.289-3.973-4.342-4.997s-4.426-1.191-6.604-0.464l-91.868,30.708    c-4.53,1.514-6.974,6.414-5.46,10.945l21.569,64.527c0.728,2.175,2.289,3.973,4.342,4.997c1.211,0.604,2.534,0.91,3.862,0.91    c0.924,0,1.85-0.148,2.742-0.446l14.955-4.999c4.53-1.514,6.975-6.414,5.46-10.945s-6.41-6.974-10.945-5.46l-6.752,2.257    l-16.084-48.121l75.462-25.225l16.084,48.122l-38.969,13.026c-4.528,1.514-6.974,6.414-5.46,10.945    c1.514,4.531,6.415,6.975,10.945,5.46l47.171-15.768C205.827,208.102,208.272,203.202,206.758,198.671z"/>
	</g>
</g>
<g>
</g>
<g>
</g>
<g>
</g>
<g>
</g>
<g>
</g>
<g>
</g>
<g>
</g>
<g>
</g>
<g>
</g>
<g>
</g>
<g>
</g>
<g>
</g>
<g>
</g>
<g>
</g>
<g>
</g>
</svg>
