<?xml version="1.0" encoding="iso-8859-1"?>
<!-- Generator: Adobe Illustrator 19.0.0, SVG Export Plug-In . SVG Version: 6.00 Build 0)  -->
<svg xmlns="http://www.w3.org/2000/svg" xmlns:xlink="http://www.w3.org/1999/xlink" version="1.1" id="Layer_1" x="0px" y="0px" viewBox="0 0 512.003 512.003" style="enable-background:new 0 0 512.003 512.003;" xml:space="preserve">
<g>
	<g>
		<path d="M240.606,494.025H92.101c-13.715,0-26.789-4.319-37.809-12.489c-11.014-8.166-18.947-19.419-22.939-32.54    c-2.68-8.82-3.412-18.304-2.116-27.424l4.573-32.11c0.7-4.915-2.717-9.465-7.63-10.166c-4.908-0.698-9.465,2.717-10.166,7.63    l-4.573,32.112c-1.662,11.704-0.724,23.869,2.714,35.186c5.122,16.837,15.3,31.273,29.432,41.751    c14.14,10.484,30.917,16.025,48.515,16.025h148.505c4.964,0,8.988-4.024,8.988-8.988    C249.595,498.05,245.57,494.025,240.606,494.025z"/>
	</g>
</g>
<g>
	<g>
		<path d="M497.761,440.298l-28.688-21.476l-2.313-35.76c-0.17-2.623-1.479-5.041-3.582-6.615l-28.688-21.476l-2.313-35.76    c-0.084-1.297-0.447-2.559-1.067-3.701l-22.882-42.25l0.821-0.445c4.365-2.365,5.986-7.819,3.622-12.184l-24.017-44.346    c7.914-15.538,12.309-32.796,12.751-50.224c0.125-4.963-3.795-9.088-8.758-9.214c-5.017-0.144-9.089,3.795-9.214,8.757    c-0.41,16.174-4.842,32.175-12.814,46.276c-1.523,2.694-1.554,5.983-0.079,8.704l22.044,40.702L350.5,284.083l-16.694-30.824    c-2.365-4.365-7.817-5.987-12.184-3.623c-4.365,2.365-5.986,7.819-3.622,12.184l16.694,30.824l-25.799,13.972    c-0.004,0.002-0.007,0.004-0.012,0.006c-0.005,0.002-0.007,0.005-0.011,0.006l-0.809,0.437l-22.046-40.702    c-1.473-2.722-4.245-4.494-7.333-4.689c-34.183-2.17-64.307-21.405-80.581-51.455c-12.546-23.166-15.321-49.83-7.813-75.082    c7.07-23.776,22.462-43.613,43.573-56.324c3.656,8.26,6.648,16.121,8.86,22.653c-5.634,4.713-9.77,10.973-11.911,18.175    c-2.877,9.679-1.814,19.899,2.995,28.778c6.836,12.622,19.866,19.794,33.304,19.793c6.075,0,12.234-1.466,17.94-4.556    c18.328-9.927,25.162-32.915,15.237-51.244c-8.201-15.141-25.314-22.427-41.353-18.911c-2.018-5.695-5.035-13.636-8.981-22.502    c20.099-7.645,42.027-8.521,62.986-2.288c25.251,7.509,46.068,24.401,58.614,47.567c3.006,5.547,5.483,11.381,7.366,17.339    c1.497,4.733,6.542,7.358,11.279,5.863c4.733-1.496,7.358-6.546,5.863-11.278c-2.225-7.044-5.153-13.937-8.701-20.485    c-14.833-27.388-39.443-47.36-69.297-56.236c-25.308-7.526-51.815-6.311-75.985,3.268c-1.17-2.215-2.385-4.435-3.652-6.649    c-14.832-25.918-39.204-55.046-71.114-46.619c-16.369,4.324-23.039,14.279-25.751,21.869    c-7.802,21.832,6.718,52.145,17.291,69.969h-42.416c-33.396,0-62.142,24.938-66.867,58.011L19.805,360.307    c-0.7,4.915,2.717,9.466,7.632,10.166c0.43,0.061,0.857,0.091,1.279,0.091c4.402,0,8.249-3.237,8.888-7.721l29.764-208.969    c3.467-24.271,24.563-42.573,49.071-42.573h64.007c-2.953,5.965-5.447,12.208-7.384,18.718    c-8.877,29.854-5.597,61.379,9.236,88.767c18.44,34.046,51.911,56.351,90.224,60.408l24.017,44.341    c1.626,3.004,4.719,4.71,7.912,4.71c1.445,0,2.912-0.35,4.272-1.086l0.82-0.445l33.912,62.613l4.589,32.235    c0.422,2.985,0.635,5.998,0.635,8.952c0,6.258-0.924,12.478-2.749,18.481c-8.191,26.935-32.605,45.031-60.749,45.031h-14.611    c-4.965,0-8.988,4.024-8.988,8.988s4.023,8.988,8.988,8.988h14.611c36.114,0,67.438-23.218,77.948-57.78    c2.185-7.192,3.35-14.625,3.497-22.115l34.964,64.557c1.25,2.308,3.447,3.955,6.013,4.506l49.355,10.623    c0.632,0.137,1.266,0.201,1.892,0.201c3.102,0,6.042-1.611,7.693-4.342l33.527-55.513    C502.455,448.188,501.458,443.067,497.761,440.298z M248.043,124.768c1.509-5.077,4.905-9.26,9.561-11.783    c2.994-1.621,6.222-2.39,9.41-2.39c7.047,0,13.881,3.762,17.467,10.381c5.206,9.613,1.622,21.67-7.991,26.876    c-9.614,5.206-21.67,1.621-26.876-7.991C247.092,135.205,246.534,129.845,248.043,124.768z M180.087,93.321v0.001    C167.9,75.243,152.946,44.9,158.495,29.395c1.185-3.313,3.866-8.009,13.41-10.531c21.219-5.603,40.409,18.058,54.094,43.746    c-13.631,7.954-25.304,18.383-34.528,30.711H180.087z M459.271,484.917l-49.756-91.869c-2.365-4.365-7.819-5.987-12.184-3.623    c-4.365,2.365-5.986,7.819-3.622,12.184l47.931,88.501l-26.213-5.642L325.35,318.152l17.906-9.698l35.272,65.126    c1.626,3.004,4.719,4.71,7.912,4.71c1.445,0,2.912-0.35,4.272-1.086c4.365-2.365,5.986-7.819,3.622-12.184l-35.272-65.126    l33.362-18.069l21.943,40.515l2.452,37.926c0.17,2.623,1.479,5.041,3.582,6.615l28.688,21.476l2.313,35.76    c0.17,2.623,1.479,5.041,3.582,6.615l25.49,19.081L459.271,484.917z"/>
	</g>
</g>
<g>
</g>
<g>
</g>
<g>
</g>
<g>
</g>
<g>
</g>
<g>
</g>
<g>
</g>
<g>
</g>
<g>
</g>
<g>
</g>
<g>
</g>
<g>
</g>
<g>
</g>
<g>
</g>
<g>
</g>
</svg>
