<?xml version="1.0" encoding="iso-8859-1"?>
<!-- Generator: Adobe Illustrator 19.0.0, SVG Export Plug-In . SVG Version: 6.00 Build 0)  -->
<svg xmlns="http://www.w3.org/2000/svg" xmlns:xlink="http://www.w3.org/1999/xlink" version="1.1" id="Layer_1" x="0px" y="0px" viewBox="0 0 512 512" style="enable-background:new 0 0 512 512;" xml:space="preserve">
<g>
	<g>
		<path d="M450.806,181.178l-186.34-63.106V88.339c0-4.676-3.79-8.467-8.467-8.467c-17.352,0-31.469-14.116-31.469-31.469    c0-17.353,14.118-31.469,31.47-31.469s31.469,14.117,31.469,31.469c0,4.676,3.79,8.467,8.467,8.467    c4.677,0,8.467-3.791,8.467-8.467C304.402,21.714,282.69,0,256,0c-26.689,0-48.403,21.714-48.403,48.404    c0,23.802,17.269,43.646,39.936,47.662v22.006L61.198,181.176c-8.569,2.896-15.879,8.307-21.138,15.649    c-5.261,7.345-8.043,16.002-8.043,25.037c0,23.683,19.267,42.949,42.949,42.949h25.215v122.967c0,4.676,3.791,8.467,8.467,8.467    h41.557c4.676,0,8.467-3.791,8.467-8.467c0-4.676-3.791-8.467-8.467-8.467h-33.09V264.812h53.298v238.721    c0,4.676,3.791,8.467,8.467,8.467h30.942c4.676,0,8.467-3.791,8.467-8.467c0-4.676-3.791-8.467-8.467-8.467h-22.475V254.048    c0-6.909-1.975-13.364-5.381-18.841h194.075c10.388,0,18.841,8.452,18.841,18.841v92.256c0,4.676,3.79,8.467,8.467,8.467    s8.467-3.791,8.467-8.467v-81.492h25.214c11.48,0,22.268-4.466,30.377-12.575s12.574-18.896,12.574-30.376    C479.983,203.429,468.256,187.079,450.806,181.178z M118.175,247.877c2.563-7.362,9.556-12.67,17.781-12.67h15.617    c8.227,0,15.219,5.307,17.782,12.67H118.175z M455.434,240.263c-4.91,4.91-11.445,7.614-18.402,7.614h-25.758    c-2.934-16.794-17.61-29.605-35.231-29.605H135.957c-17.621,0-32.297,12.81-35.23,29.605H74.968    c-14.345,0-26.014-11.67-26.014-26.014c0-5.476,1.686-10.723,4.875-15.175c3.18-4.441,7.605-7.714,12.798-9.47l189.375-64.134    l189.378,64.135c10.569,3.576,17.67,13.478,17.67,24.644C463.048,228.818,460.344,235.353,455.434,240.263z"/>
	</g>
</g>
<g>
	<g>
		<path d="M403.351,367.062c-4.677,0-8.467,3.791-8.467,8.467v119.536H241.387c-4.676,0-8.467,3.791-8.467,8.467    c0,4.676,3.791,8.467,8.467,8.467h161.964c4.677,0,8.467-3.791,8.467-8.467V375.529    C411.818,370.852,408.027,367.062,403.351,367.062z"/>
	</g>
</g>
<g>
</g>
<g>
</g>
<g>
</g>
<g>
</g>
<g>
</g>
<g>
</g>
<g>
</g>
<g>
</g>
<g>
</g>
<g>
</g>
<g>
</g>
<g>
</g>
<g>
</g>
<g>
</g>
<g>
</g>
</svg>
