<?xml version="1.0" encoding="iso-8859-1"?>
<!-- Generator: Adobe Illustrator 19.0.0, SVG Export Plug-In . SVG Version: 6.00 Build 0)  -->
<svg xmlns="http://www.w3.org/2000/svg" xmlns:xlink="http://www.w3.org/1999/xlink" version="1.1" id="Layer_1" x="0px" y="0px" viewBox="0 0 511.996 511.996" style="enable-background:new 0 0 511.996 511.996;" xml:space="preserve">
<g>
	<g>
		<path d="M511.258,125.765C486.634,70.015,442.371,25.752,386.622,1.13c-2.105-0.93-4.494-0.984-6.64-0.149    c-2.145,0.834-3.871,2.488-4.795,4.596c-16.55,37.749-42.189,71.464-74.147,97.499l-27.942,22.764    c-17.565,14.31-28.348,35.49-29.585,58.11c-0.492,8.994,0.564,17.917,2.984,26.427c-5.889,0.578-11.349,3.15-15.587,7.387    c-4.84,4.841-7.506,11.279-7.504,18.128c0.001,3.845,0.871,7.548,2.466,10.925l-31.785,31.785    c-49.744,49.745-101.492,94.46-153.803,132.904c-8.159,5.995-15.153,11.892-20.787,17.526    c-6.942,6.941-12.526,15.746-16.598,26.173c-6.046,15.488-2.486,32.426,9.292,44.205c7.984,7.984,18.338,12.193,29.006,12.193    c5.07,0,10.213-0.951,15.203-2.899c10.409-4.067,19.211-9.654,26.16-16.605c5.667-5.666,11.566-12.657,17.536-20.779    c21.509-29.269,45.102-58.529,70.124-86.967c3.16-3.591,2.812-9.067-0.782-12.227c-3.592-3.16-9.067-2.81-12.227,0.782    c-25.354,28.817-49.269,58.475-71.078,88.151c-5.451,7.417-10.775,13.739-15.824,18.788c-5.248,5.249-12.049,9.528-20.213,12.717    c-10.735,4.192-20.29-0.044-25.652-5.405c-5.362-5.361-9.597-14.915-5.405-25.651c3.195-8.182,7.471-14.986,12.71-20.223    c5.017-5.017,11.339-10.339,18.795-15.816c53.016-38.962,105.433-84.253,155.797-134.615l30.706-30.706l14.408,14.408    l-30.707,30.706c-14.869,14.87-29.432,30.052-43.283,45.124c-3.238,3.523-3.007,9.003,0.517,12.241    c1.663,1.529,3.765,2.285,5.859,2.285c2.339,0,4.674-0.943,6.381-2.801c13.687-14.894,28.079-29.898,42.777-44.596l31.504-31.504    c3.648,1.934,7.742,2.968,12.009,2.977c6.848-0.014,13.278-2.681,18.107-7.512c4.268-4.267,6.841-9.774,7.395-15.706    c7.001,1.943,14.25,2.954,21.558,2.954c12.443,0,25.043-2.864,36.806-8.75c4.279-2.141,6.011-7.346,3.871-11.624    c-2.142-4.28-7.347-6.013-11.624-3.871c-24.913,12.466-54.536,7.764-73.711-11.702c-12.476-12.666-19.074-30.117-18.102-47.879    c0.971-17.76,9.439-34.39,23.229-45.625l27.942-22.764c31.793-25.902,57.723-58.929,75.39-95.93    c5.477,2.667,10.819,5.548,16.028,8.623c-2.822,4.171-5.729,8.333-8.712,12.437c-2.814,3.871-1.956,9.288,1.914,12.102    c1.538,1.118,3.32,1.656,5.086,1.656c2.678,0,5.319-1.238,7.014-3.57c3.177-4.37,6.27-8.803,9.271-13.246    c8.345,5.83,16.275,12.194,23.729,19.062L365.647,133.7c-3.383,3.383-3.383,8.869,0,12.251c1.692,1.691,3.91,2.538,6.127,2.538    s4.435-0.846,6.127-2.538l76.08-76.08c7.157,7.69,13.78,15.887,19.822,24.535c-18.568,12.544-36.674,26.746-53.921,42.315    c-3.552,3.206-3.832,8.684-0.626,12.236c1.711,1.894,4.067,2.858,6.433,2.858c2.07,0,4.147-0.737,5.802-2.233    c16.548-14.938,33.903-28.568,51.689-40.605c3.077,5.211,5.959,10.558,8.629,16.038c-37.003,17.668-70.03,43.597-95.931,75.39    l-22.027,27.038c-3.022,3.709-2.465,9.167,1.244,12.189c3.71,3.024,9.167,2.464,12.189-1.244l22.027-27.038    c26.034-31.957,59.75-57.596,97.499-74.148c2.108-0.924,3.762-2.649,4.596-4.795C512.241,130.26,512.188,127.87,511.258,125.765z     M266.574,244.934c4.731,4.803,9.961,8.897,15.542,12.272l0.259,0.263c1.566,1.568,2.43,3.653,2.43,5.872    c-0.001,2.221-0.866,4.31-2.44,5.883c-1.565,1.566-3.656,2.432-5.853,2.436c-2.232-0.005-4.323-0.87-5.89-2.437l-0.791-0.792    l-26.655-26.655c-0.002-0.002-0.003-0.003-0.006-0.006c-0.001-0.001-0.002-0.002-0.003-0.003c-1.57-1.571-2.434-3.658-2.435-5.88    c-0.001-2.219,0.862-4.304,2.43-5.872c1.571-1.571,3.663-2.437,5.89-2.437c2.216,0,4.301,0.865,5.874,2.44l0.26,0.259    C258.389,235.542,262.185,240.477,266.574,244.934z"/>
	</g>
</g>
<g>
	<g>
		<path d="M410.515,157.323c-3.406-3.358-8.893-3.32-12.25,0.088c-5.974,6.06-11.87,12.347-17.526,18.688    c-3.185,3.57-2.87,9.047,0.699,12.232c1.652,1.473,3.711,2.198,5.763,2.198c2.383,0,4.757-0.978,6.47-2.897    c5.463-6.126,11.16-12.202,16.932-18.057C413.962,166.167,413.922,160.681,410.515,157.323z"/>
	</g>
</g>
<g>
	<g>
		<path d="M389.221,63.258c-3.691-3.044-9.15-2.522-12.197,1.17c-15.903,19.279-33.486,37.545-52.265,54.294    c-3.571,3.185-3.884,8.661-0.699,12.232c1.712,1.92,4.085,2.897,6.47,2.897c2.05,0,4.112-0.724,5.763-2.198    c19.435-17.333,37.637-36.241,54.1-56.199C393.437,71.762,392.912,66.302,389.221,63.258z"/>
	</g>
</g>
<g>
</g>
<g>
</g>
<g>
</g>
<g>
</g>
<g>
</g>
<g>
</g>
<g>
</g>
<g>
</g>
<g>
</g>
<g>
</g>
<g>
</g>
<g>
</g>
<g>
</g>
<g>
</g>
<g>
</g>
</svg>
