<?xml version="1.0" encoding="iso-8859-1"?>
<!-- Generator: Adobe Illustrator 19.0.0, SVG Export Plug-In . SVG Version: 6.00 Build 0)  -->
<svg xmlns="http://www.w3.org/2000/svg" xmlns:xlink="http://www.w3.org/1999/xlink" version="1.1" id="Layer_1" x="0px" y="0px" viewBox="0 0 512 512" style="enable-background:new 0 0 512 512;" xml:space="preserve">
<g>
	<g>
		<path d="M244.014,476.641H91.31V353.944c0-4.559-3.695-8.254-8.254-8.254c-4.559,0-8.254,3.695-8.254,8.254v45.114H38.139    c-4.559,0-8.254,3.695-8.254,8.254v96.424c0,4.559,3.695,8.254,8.254,8.254h44.915c4.559,0,8.254-3.695,8.254-8.254v-10.588    h152.707c4.559,0,8.254-3.695,8.254-8.254C252.268,480.336,248.573,476.641,244.014,476.641z M74.801,495.482H46.394v-79.916    h28.407V495.482z"/>
	</g>
</g>
<g>
	<g>
		<path d="M444.621,444.135h-45.449V405.52c0-4.559-3.695-8.254-8.254-8.254c-4.559,0-8.254,3.695-8.254,8.254v38.615h-21.536    V141.729h21.536v236.28c0,4.559,3.695,8.254,8.254,8.254c4.559,0,8.254-3.695,8.254-8.254V110.541    C399.173,49.588,349.584,0,288.632,0S178.09,49.589,178.09,110.541v49.026h-3.939c-12.5,0-22.669,10.17-22.669,22.669v9.429    h-22.887c-29.661,0-53.791,24.13-53.791,53.791v80.976c0,4.559,3.695,8.254,8.254,8.254c4.559,0,8.254-3.695,8.254-8.254v-54.471    h174.162c4.559,0,8.254-3.695,8.254-8.254c0-4.559-3.695-8.254-8.254-8.254H91.31v-9.999c0-20.558,16.724-37.283,37.283-37.283    h149.223c20.558,0,37.283,16.724,37.283,37.283v9.999h-22.116c-4.559,0-8.254,3.695-8.254,8.254c0,4.559,3.695,8.254,8.254,8.254    h22.116v21.458h-52.594c-16.567,0-30.046,13.479-30.046,30.046v63.703c0,16.567,13.479,30.046,30.046,30.046h52.594v26.918    h-14.837c-20.674,0-37.492,16.819-37.492,37.494v22.119c0,4.559,3.695,8.254,8.254,8.254h202.837c4.559,0,8.254-3.695,8.254-8.254    v-22.119C482.114,460.953,465.295,444.135,444.621,444.135z M315.097,400.71h-52.59c-7.466,0-13.54-6.074-13.54-13.54v-63.703    c0-7.466,6.074-13.54,13.54-13.54h52.59V400.71z M194.597,110.541c0-51.851,42.183-94.034,94.034-94.034    s94.034,42.183,94.034,94.034v14.681h-21.536v-14.681c0-39.981-32.522-72.51-72.498-72.51c-39.976,0-72.498,32.527-72.498,72.51    v49.026h-21.536V110.541z M238.416,191.666h-70.43v-9.429c0-3.398,2.765-6.163,6.163-6.163h58.105    c3.398,0,6.162,2.765,6.162,6.163V191.666z M277.816,191.666h-22.893v-9.429c0-12.37-9.963-22.441-22.284-22.651v-49.045    c0-30.88,25.117-56.002,55.992-56.002c30.874,0,55.992,25.122,55.992,56.002v288.518h-13.016V245.456    C331.607,215.797,307.477,191.666,277.816,191.666z M344.623,415.565v28.569h-13.016v-28.569H344.623z M465.607,495.494h-186.33    v-13.865c0-11.572,9.415-20.986,20.986-20.986h144.359c11.571,0,20.986,9.415,20.986,20.986V495.494z"/>
	</g>
</g>
<g>
</g>
<g>
</g>
<g>
</g>
<g>
</g>
<g>
</g>
<g>
</g>
<g>
</g>
<g>
</g>
<g>
</g>
<g>
</g>
<g>
</g>
<g>
</g>
<g>
</g>
<g>
</g>
<g>
</g>
</svg>
