<?xml version="1.0" encoding="iso-8859-1"?>
<!-- Generator: Adobe Illustrator 19.0.0, SVG Export Plug-In . SVG Version: 6.00 Build 0)  -->
<svg xmlns="http://www.w3.org/2000/svg" xmlns:xlink="http://www.w3.org/1999/xlink" version="1.1" id="Layer_1" x="0px" y="0px" viewBox="0 0 512 512" style="enable-background:new 0 0 512 512;" xml:space="preserve">
<g>
	<g>
		<path d="M466.808,356.875c-2.156-111.604-91.447-202.234-202.518-206.551v-14.323c20.79-3.902,36.576-22.178,36.576-44.084    c0-7.583-1.93-15.081-5.579-21.682c-2.215-4.007-7.258-5.458-11.266-3.243c-4.007,2.215-5.458,7.259-3.243,11.266    c2.296,4.153,3.509,8.875,3.509,13.66c0,15.596-12.689,28.286-28.286,28.286s-28.285-12.689-28.285-28.286    S240.404,63.632,256,63.632c3.861,0,7.599,0.762,11.111,2.264c4.21,1.801,9.082-0.153,10.881-4.362s-0.154-9.081-4.363-10.881    c-5.584-2.387-11.515-3.599-17.629-3.599c-24.738,0-44.864,20.126-44.864,44.865c0,21.905,15.784,40.183,36.575,44.084v14.321    c-27.564,1.053-54.18,7.348-79.228,18.79c-4.165,1.902-5.998,6.82-4.096,10.984c1.901,4.165,6.818,5.998,10.984,4.096    c25.375-11.59,52.502-17.467,80.63-17.467c104.465,0,189.921,82.879,194.106,186.335c-2.255-0.224-4.54-0.343-6.853-0.343H68.747    c-2.311,0-4.595,0.118-6.848,0.343c2.538-62.794,35.024-120.239,88.026-154.849c3.833-2.503,4.912-7.64,2.408-11.473    c-2.503-3.834-7.64-4.911-11.473-2.408c-58.778,38.382-94.304,102.646-95.656,172.542C18.857,366.505,0,391.823,0,421.464v35.193    c0,4.578,3.711,8.29,8.29,8.29H503.71c4.578,0,8.29-3.711,8.29-8.29v-35.193C512,391.828,493.148,366.512,466.808,356.875z     M495.421,448.368H16.579v-26.903c0-28.766,23.402-52.168,52.168-52.168h374.505c25.944,0,47.518,19.039,51.502,43.878h-65.227    c-4.578,0-8.29,3.712-8.29,8.29c0,4.578,3.711,8.29,8.29,8.29h65.893V448.368z"/>
	</g>
</g>
<g>
	<g>
		<path d="M400.791,413.175H149.894c-4.578,0-8.29,3.712-8.29,8.29c0,4.578,3.711,8.29,8.29,8.29h250.897    c4.578,0,8.289-3.711,8.289-8.29C409.08,416.886,405.369,413.175,400.791,413.175z"/>
	</g>
</g>
<g>
	<g>
		<path d="M123.238,413.175H52.63c-4.578,0-8.29,3.712-8.29,8.29c0,4.578,3.712,8.29,8.29,8.29h70.608c4.578,0,8.29-3.711,8.29-8.29    C131.527,416.886,127.817,413.175,123.238,413.175z"/>
	</g>
</g>
<g>
</g>
<g>
</g>
<g>
</g>
<g>
</g>
<g>
</g>
<g>
</g>
<g>
</g>
<g>
</g>
<g>
</g>
<g>
</g>
<g>
</g>
<g>
</g>
<g>
</g>
<g>
</g>
<g>
</g>
</svg>
