<?xml version="1.0" encoding="iso-8859-1"?>
<!-- Generator: Adobe Illustrator 19.0.0, SVG Export Plug-In . SVG Version: 6.00 Build 0)  -->
<svg xmlns="http://www.w3.org/2000/svg" xmlns:xlink="http://www.w3.org/1999/xlink" version="1.1" id="Layer_1" x="0px" y="0px" viewBox="0 0 512 512" style="enable-background:new 0 0 512 512;" xml:space="preserve">
<g>
	<g>
		<path d="M481.462,85.333H379.449c-4.713,0-8.533,3.821-8.533,8.533c0,4.713,3.821,8.533,8.533,8.533h102.013    c7.429,0,13.471,6.044,13.471,13.471v18.386H137.671v-18.386c0-7.427,6.044-13.471,13.471-13.471h199.862    c4.713,0,8.533-3.821,8.533-8.533c0-4.713-3.821-8.533-8.533-8.533H151.142c-16.838,0-30.538,13.7-30.538,30.538v50.244H30.533    C13.698,166.116,0,179.813,0,196.649v138.427c0,4.713,3.821,8.533,8.533,8.533c4.713,0,8.533-3.821,8.533-8.533v-46.08h357.262    v107.138c0,7.425-6.042,13.467-13.467,13.467H30.533c-7.425,0-13.467-6.042-13.467-13.467V363.52c0-4.713-3.821-8.533-8.533-8.533    c-4.713,0-8.533,3.821-8.533,8.533v32.613c0,16.836,13.698,30.533,30.533,30.533h330.329c16.836,0,30.533-13.698,30.533-30.533    V196.649c0-16.836-13.698-30.533-30.533-30.533H137.671v-14.791h357.262v39.822h-84.764c-4.713,0-8.533,3.821-8.533,8.533    c0,4.713,3.821,8.533,8.533,8.533h84.764v107.133c0,7.427-6.044,13.471-13.471,13.471h-70.155c-4.713,0-8.533,3.821-8.533,8.533    c0,4.713,3.821,8.533,8.533,8.533h70.155c16.839,0,30.538-13.7,30.538-30.538V115.871C512,99.033,498.3,85.333,481.462,85.333z     M360.862,183.182c7.425,0,13.467,6.042,13.467,13.467v18.391H62.009c-4.713,0-8.533,3.821-8.533,8.533    c0,4.713,3.821,8.533,8.533,8.533h312.32v39.822H17.067v-39.822h16.498c4.713,0,8.533-3.821,8.533-8.533    c0-4.713-3.821-8.533-8.533-8.533H17.067v-18.391c0-7.425,6.042-13.467,13.467-13.467H360.862z"/>
	</g>
</g>
<g>
	<g>
		<path d="M116.622,309.476c-5.902,0-11.71,1.239-17.055,3.578c-5.234-2.295-11.007-3.578-17.078-3.578    c-23.527,0-42.667,19.14-42.667,42.667s19.14,42.667,42.667,42.667c6.07,0,11.844-1.283,17.077-3.578    c5.346,2.34,11.155,3.578,17.056,3.578c23.527,0,42.667-19.14,42.667-42.667S140.149,309.476,116.622,309.476z M82.489,377.742    c-14.116,0-25.6-11.484-25.6-25.6c0-14.116,11.484-25.6,25.6-25.6s25.6,11.484,25.6,25.6    C108.089,366.259,96.605,377.742,82.489,377.742z M116.622,377.742c-0.008,0-0.015-0.001-0.023-0.001    c5.369-7.136,8.556-16.002,8.556-25.599c0-9.597-3.187-18.464-8.556-25.599c0.008,0,0.015-0.001,0.023-0.001    c14.116,0,25.6,11.484,25.6,25.6C142.222,366.259,130.739,377.742,116.622,377.742z"/>
	</g>
</g>
<g>
	<g>
		<path d="M341.492,308.634H215.205c-4.713,0-8.533,3.821-8.533,8.533c0,4.713,3.821,8.533,8.533,8.533h126.286    c4.713,0,8.533-3.821,8.533-8.533C350.025,312.454,346.204,308.634,341.492,308.634z"/>
	</g>
</g>
<g>
</g>
<g>
</g>
<g>
</g>
<g>
</g>
<g>
</g>
<g>
</g>
<g>
</g>
<g>
</g>
<g>
</g>
<g>
</g>
<g>
</g>
<g>
</g>
<g>
</g>
<g>
</g>
<g>
</g>
</svg>
