<?xml version="1.0" encoding="iso-8859-1"?>
<!-- Generator: Adobe Illustrator 19.0.0, SVG Export Plug-In . SVG Version: 6.00 Build 0)  -->
<svg xmlns="http://www.w3.org/2000/svg" xmlns:xlink="http://www.w3.org/1999/xlink" version="1.1" id="Layer_1" x="0px" y="0px" viewBox="0 0 512 512" style="enable-background:new 0 0 512 512;" xml:space="preserve">
<g>
	<g>
		<path d="M365.428,417.456c-4.532,0-8.206,3.674-8.206,8.206v42.039c0,15.377-12.511,27.888-27.888,27.888h-146.67    c-15.377,0-27.888-12.511-27.888-27.888V117.634c0-27.031,10.53-52.448,29.652-71.57c9.3-9.299,20.125-16.6,32.175-21.699    c4.174-1.766,6.126-6.581,4.36-10.755c-1.766-4.174-6.582-6.126-10.755-4.36c-14.006,5.927-26.585,14.408-37.385,25.209    c-22.222,22.222-34.46,51.76-34.46,83.174v350.068c0,24.426,19.873,44.299,44.299,44.299h146.67    c24.426,0,44.299-19.873,44.299-44.299v-42.039C373.634,421.13,369.96,417.456,365.428,417.456z"/>
	</g>
</g>
<g>
	<g>
		<path d="M341.747,211.869l-81.323-28.544c-27.847-9.771-46.556-36.17-46.556-65.691c0-11.258,4.383-21.835,12.349-29.791    c7.948-7.958,18.527-12.341,29.785-12.341c11.258,0,21.835,4.383,29.79,12.348c7.958,7.948,12.341,18.527,12.341,29.785v3.917    c-0.001,20.819,16.932,37.756,37.744,37.756c10.086,0,19.568-3.927,26.698-11.058c7.13-7.13,11.057-16.612,11.057-26.698v-3.917    C373.634,52.77,320.864,0,256,0c-5.256,0-10.542,0.351-15.715,1.043c-4.492,0.601-7.646,4.729-7.046,9.221    c0.601,4.491,4.723,7.649,9.221,7.046c4.455-0.595,9.011-0.897,13.541-0.897c55.815,0,101.223,45.408,101.223,101.223v3.917    c0,5.703-2.22,11.064-6.25,15.095c-4.032,4.031-9.391,6.25-15.095,6.25c-11.763,0-21.334-9.575-21.334-21.345v-3.917    c0-15.645-6.092-30.346-17.147-41.388c-11.049-11.062-25.751-17.155-41.395-17.155c-15.645,0-30.347,6.093-41.389,17.148    c-11.062,11.049-17.155,25.75-17.155,41.395c0,36.479,23.121,69.102,57.532,81.176l81.323,28.544    c12.507,4.388,20.911,16.239,20.911,29.488v140.923c0,4.532,3.674,8.206,8.206,8.206c4.532,0,8.205-3.674,8.205-8.206V256.842    C373.635,236.635,360.82,218.561,341.747,211.869z"/>
	</g>
</g>
<g>
	<g>
		<path d="M319.823,275.041c-17.048-17.048-39.713-26.437-63.823-26.437s-46.776,9.389-63.823,26.437    c-15.549,15.549-24.874,36.185-26.258,58.109c-0.286,4.523,3.15,8.421,7.673,8.707c4.514,0.293,8.42-3.15,8.707-7.673    c1.131-17.934,8.76-34.816,21.482-47.538c13.948-13.948,32.494-21.63,52.22-21.63s38.27,7.681,52.219,21.63    c13.948,13.948,21.631,32.494,21.631,52.22c0,19.726-7.681,38.271-21.631,52.22c-13.948,13.948-32.494,21.63-52.219,21.63    c-19.726,0-38.271-7.681-52.22-21.63c-7.441-7.442-13.095-16.156-16.804-25.904c-1.612-4.236-6.351-6.364-10.587-4.752    c-4.235,1.612-6.362,6.352-4.75,10.587c4.538,11.926,11.448,22.581,20.538,31.671c17.048,17.048,39.713,26.437,63.823,26.437    c24.11,0,46.776-9.389,63.823-26.437c17.049-17.048,26.437-39.715,26.437-63.823C346.26,314.756,336.871,292.089,319.823,275.041z    "/>
	</g>
</g>
<g>
	<g>
		<path d="M309.013,313.735c-1.142-2.411-3.386-4.116-6.015-4.571c-2.631-0.454-5.315,0.396-7.202,2.283l-67.212,67.212    c-1.887,1.887-2.738,4.573-2.283,7.202s2.16,4.873,4.571,6.015c7.998,3.791,16.558,5.631,25.06,5.631    c15.257,0,30.316-5.931,41.549-17.164C314.972,362.853,319.607,336.084,309.013,313.735z M285.876,368.739    c-9.602,9.6-23.081,13.823-36.077,11.913l47.99-47.99C299.7,345.659,295.477,359.139,285.876,368.739z"/>
	</g>
</g>
<g>
	<g>
		<path d="M285.699,291.869c-0.455-2.63-2.16-4.873-4.571-6.016c-22.35-10.594-49.118-5.958-66.608,11.533    c-17.492,17.491-22.126,44.259-11.533,66.609c1.142,2.411,3.386,4.116,6.015,4.571c0.467,0.081,0.934,0.12,1.399,0.12    c2.158,0,4.25-0.851,5.802-2.404l67.212-67.212C285.303,297.184,286.155,294.498,285.699,291.869z M214.211,345.067    c-1.911-12.996,2.312-26.476,11.913-36.077c8.092-8.092,18.936-12.363,29.927-12.363c2.05,0,4.106,0.149,6.15,0.45    L214.211,345.067z"/>
	</g>
</g>
<g>
</g>
<g>
</g>
<g>
</g>
<g>
</g>
<g>
</g>
<g>
</g>
<g>
</g>
<g>
</g>
<g>
</g>
<g>
</g>
<g>
</g>
<g>
</g>
<g>
</g>
<g>
</g>
<g>
</g>
</svg>
