<?xml version="1.0" encoding="iso-8859-1"?>
<!-- Generator: Adobe Illustrator 19.0.0, SVG Export Plug-In . SVG Version: 6.00 Build 0)  -->
<svg version="1.1" id="Layer_1" xmlns="http://www.w3.org/2000/svg" xmlns:xlink="http://www.w3.org/1999/xlink" x="0px" y="0px"
	 viewBox="0 0 512.003 512.003" style="enable-background:new 0 0 512.003 512.003;" xml:space="preserve">
<g>
	<g>
		<g>
			<path d="M395.926,233.095c-3.558-2.022-7.373-2.859-9.856-2.202c-0.828,0.239-1.903,0.717-2.85,2.389l-0.888,1.297
				c-6.118,7.339-14.14,16.58-17.63,18.953c-2.287,1.545-4.565,2.859-6.844,3.977c6.955,2.637,14.797,4.745,23.364,5.632
				c4.685,0.495,8.09,4.685,7.603,9.378c-0.452,4.386-4.156,7.654-8.482,7.654c-0.29,0-0.589-0.017-0.887-0.043
				c-39.356-4.096-65.195-29.15-66.278-30.216c-0.299-0.299-0.427-0.674-0.666-0.998c-0.23-0.213-0.461-0.375-0.683-0.597
				l-43.11-43.102c-0.128-0.102-0.29-0.137-0.418-0.239c-1.314-1.084-32.282-27.016-36.42-66.867
				c-0.486-4.693,2.918-8.883,7.603-9.37c4.77-0.358,8.883,2.927,9.37,7.603c0.734,7.031,2.569,13.551,4.949,19.516
				c1.254-2.842,2.739-5.692,4.676-8.559c2.364-3.482,11.614-11.503,18.953-17.63l1.28-0.887c1.681-0.939,2.167-2.014,2.398-2.85
				c0.683-2.492-0.179-6.298-2.261-9.95c-5.956-10.155-24.764-38.443-39.339-46.165c-1.988-1.05-4.13-1.562-6.255-1.562
				c-3.447,0-6.835,1.348-9.421,3.925l-14.097,14.106c-18.918,18.91-25.54,39.202-20.267,62.029
				c4.71,20.369,18.935,42.539,42.291,65.886l66.04,66.039c23.347,23.356,45.517,37.581,65.886,42.291
				c22.818,5.291,43.119-1.348,62.029-20.267l14.114-14.106c4.164-4.164,5.111-10.453,2.355-15.667
				C434.471,257.918,406.175,239.111,395.926,233.095z"/>
			<path d="M51.202,25.603v0.862C31.754,30.433,17.068,47.671,17.068,68.27s14.686,37.837,34.133,41.805v10.257
				c-19.448,3.968-34.133,21.205-34.133,41.805c0,20.599,14.686,37.837,34.133,41.805v10.257
				c-19.448,3.968-34.133,21.205-34.133,41.805c0,20.599,14.686,37.837,34.133,41.805v10.257
				c-19.448,3.968-34.133,21.205-34.133,41.805s14.686,37.837,34.133,41.805v10.257c-19.448,3.968-34.133,21.205-34.133,41.805
				s14.686,37.837,34.133,41.805v0.862c0,14.114,11.486,25.6,25.6,25.6h59.733v-512H76.802
				C62.688,0.003,51.202,11.489,51.202,25.603z M51.202,467.767c-9.907-3.533-17.067-12.919-17.067-24.03
				c0-11.11,7.159-20.497,17.067-24.03V467.767z M51.202,373.9c-9.907-3.533-17.067-12.919-17.067-24.03
				c0-11.11,7.159-20.497,17.067-24.03V373.9z M51.202,280.033c-9.907-3.533-17.067-12.919-17.067-24.03s7.159-20.497,17.067-24.03
				V280.033z M51.202,186.167c-9.907-3.533-17.067-12.919-17.067-24.03c0-11.11,7.159-20.497,17.067-24.03V186.167z M51.202,92.3
				c-9.907-3.533-17.067-12.919-17.067-24.03s7.159-20.497,17.067-24.03V92.3z"/>
			<path d="M469.335,0H153.602v512h315.733c14.114,0,25.6-11.477,25.6-25.6V25.6C494.935,11.486,483.449,0,469.335,0z
				 M315.735,460.8H196.268c-4.71,0-8.533-3.814-8.533-8.533c0-4.71,3.823-8.533,8.533-8.533h119.467
				c4.71,0,8.533,3.823,8.533,8.533C324.268,456.986,320.445,460.8,315.735,460.8z M264.535,392.533h-68.267
				c-4.71,0-8.533-3.814-8.533-8.533c0-4.71,3.823-8.533,8.533-8.533h68.267c4.71,0,8.533,3.823,8.533,8.533
				C273.068,388.719,269.245,392.533,264.535,392.533z M358.402,409.6c4.71,0,8.533,3.823,8.533,8.533
				c0,4.719-3.823,8.533-8.533,8.533h-102.4c-4.71,0-8.533-3.814-8.533-8.533c0-4.71,3.823-8.533,8.533-8.533H358.402z
				 M196.268,409.6h25.6c4.71,0,8.533,3.823,8.533,8.533c0,4.719-3.823,8.533-8.533,8.533h-25.6c-4.71,0-8.533-3.814-8.533-8.533
				C187.735,413.423,191.558,409.6,196.268,409.6z M435.202,460.8h-85.333c-4.71,0-8.533-3.814-8.533-8.533
				c0-4.71,3.823-8.533,8.533-8.533h85.333c4.719,0,8.533,3.823,8.533,8.533C443.735,456.986,439.921,460.8,435.202,460.8z
				 M435.202,426.667h-42.667c-4.71,0-8.533-3.814-8.533-8.533c0-4.71,3.823-8.533,8.533-8.533h42.667
				c4.719,0,8.533,3.823,8.533,8.533C443.735,422.852,439.921,426.667,435.202,426.667z M435.202,392.533H298.668
				c-4.71,0-8.533-3.814-8.533-8.533c0-4.71,3.823-8.533,8.533-8.533h136.533c4.719,0,8.533,3.823,8.533,8.533
				C443.735,388.719,439.921,392.533,435.202,392.533z M451.893,300.237l-14.106,14.097c-17.98,17.98-37.854,27.025-59.29,27.025
				c-6.093,0-12.314-0.734-18.662-2.193c-23.526-5.444-48.461-21.205-74.103-46.857l-66.039-66.039
				c-25.643-25.651-41.404-50.586-46.848-74.112c-6.622-28.629,1.732-54.852,24.823-77.935l14.106-14.114
				c9.489-9.498,23.859-11.665,35.721-5.376c21.47,11.375,43.674,48.512,46.131,52.71c4.489,7.876,5.871,16.034,3.934,23.04
				c-1.493,5.376-4.847,9.771-9.737,12.749c-6.417,5.367-13.961,12.066-15.317,13.79c-7.953,11.75-7.049,20.796,3.243,31.087
				l48.145,48.145c10.308,10.3,19.354,11.196,31.232,3.14c1.587-1.254,8.277-8.789,13.653-15.206
				c2.97-4.881,7.356-8.243,12.723-9.737c7.014-1.937,15.164-0.572,22.963,3.866c4.292,2.517,41.438,24.721,52.804,46.191
				C463.549,276.386,461.391,290.748,451.893,300.237z"/>
		</g>
	</g>
</g>
<g>
</g>
<g>
</g>
<g>
</g>
<g>
</g>
<g>
</g>
<g>
</g>
<g>
</g>
<g>
</g>
<g>
</g>
<g>
</g>
<g>
</g>
<g>
</g>
<g>
</g>
<g>
</g>
<g>
</g>
</svg>
