<?xml version="1.0" encoding="iso-8859-1"?>
<!-- Generator: Adobe Illustrator 19.0.0, SVG Export Plug-In . SVG Version: 6.00 Build 0)  -->
<svg version="1.1" id="Layer_1" xmlns="http://www.w3.org/2000/svg" xmlns:xlink="http://www.w3.org/1999/xlink" x="0px" y="0px"
	 viewBox="0 0 512 512" style="enable-background:new 0 0 512 512;" xml:space="preserve">
<g>
	<g>
		<g>
			<path d="M293.408,0.068C292.7,0.06,292,0,291.292,0h-70.588c-1.203,0-2.406,0.094-3.618,0.119l38.784,145.357L293.408,0.068z"/>
			<path d="M488.047,296.568L443.46,125.858c-0.879-3.379-1.69-6.767-2.5-10.129c-3.507-14.541-7.134-29.568-15.539-43.375
				C401.741,33.647,358.093,7.031,310.733,1.22l-46.404,179.712L249.335,256h-17.399l15.309-76.646L199.765,1.399
				c-46.788,6.187-89.762,32.657-113.186,70.955c-8.405,13.807-12.032,28.834-15.539,43.375c-0.811,3.362-1.621,6.75-2.5,10.112
				L23.953,296.576c-3.541,13.568,4.608,27.554,18.15,31.181l33.22,8.909c13.44,3.618,27.546-4.395,31.292-17.877l36.164-130.193
				c0.307-1.135,2.287-0.853,2.287,0.307V256c-9.412,0-17.067,7.654-17.067,17.067v17.067c0,9.412,7.654,17.067,17.067,17.067v179.2
				c0,14.114,11.486,25.6,25.6,25.6h170.667c14.114,0,25.6-11.486,25.6-25.6V307.2c9.412,0,17.067-7.654,17.067-17.067v-17.067
				c0-9.412-7.654-17.067-17.067-17.067v-67.098c0-1.161,1.988-1.434,2.287-0.316l36.164,130.202
				c3.14,11.298,13.5,18.748,24.704,18.748c2.176,0,4.395-0.282,6.588-0.87l33.22-8.909
				C483.439,324.13,491.588,310.144,488.047,296.568z M213.333,290.133H153.6h-8.533v-17.067h8.533h59.733V290.133z M247.467,332.8
				v25.6H230.4v-59.733v-25.6h8.542h8.525V332.8z M281.6,298.667v25.6h-17.067v-51.2H281.6V298.667z M366.933,290.133H358.4h-59.733
				v-17.067H358.4h8.533V290.133z"/>
		</g>
	</g>
</g>
<g>
</g>
<g>
</g>
<g>
</g>
<g>
</g>
<g>
</g>
<g>
</g>
<g>
</g>
<g>
</g>
<g>
</g>
<g>
</g>
<g>
</g>
<g>
</g>
<g>
</g>
<g>
</g>
<g>
</g>
</svg>
