<?xml version="1.0" encoding="iso-8859-1"?>
<!-- Generator: Adobe Illustrator 19.0.0, SVG Export Plug-In . SVG Version: 6.00 Build 0)  -->
<svg version="1.1" id="Layer_1" xmlns="http://www.w3.org/2000/svg" xmlns:xlink="http://www.w3.org/1999/xlink" x="0px" y="0px"
	 viewBox="0 0 503.61 503.61" style="enable-background:new 0 0 503.61 503.61;" xml:space="preserve">
<g>
	<g>
		<g>
			<path d="M0.003,377.707v41.967v16.787v8.393c0,13.883,11.298,25.18,25.18,25.18h56.773c9.602,0,18.231-5.338,22.52-13.916
				l9.829-19.657h275.003l9.829,19.657c4.289,8.578,12.918,13.916,22.52,13.916h56.773c13.883,0,25.18-11.298,25.18-25.18v-8.393
				v-16.787v-41.967H0.003z M89.461,448.606c-1.427,2.862-4.306,4.642-7.504,4.642H25.184c-4.625,0-8.393-3.76-8.393-8.393v-8.393
				h78.747L89.461,448.606z M486.823,444.854c0,4.633-3.769,8.393-8.393,8.393h-56.773c-3.198,0-6.077-1.779-7.504-4.642
				l-6.077-12.145h78.747V444.854z"/>
			<path d="M503.607,335.739h-50.361c-4.633,0-8.393-3.752-8.393-8.393c0-4.642,3.76-8.393,8.393-8.393h50.361v-16.787h-50.361
				c-4.633,0-8.393-3.752-8.393-8.393c0-4.642,3.76-8.393,8.393-8.393h50.361v-16.787c0-13.883-11.289-25.18-25.18-25.18h-1.494
				L439.22,53.174c-2.619-11.541-12.716-19.599-24.551-19.599H88.945c-11.835,0-21.932,8.058-24.61,19.825L26.683,243.411H25.18
				c-13.883,0-25.18,11.298-25.18,25.18v16.787h41.967c4.642,0,8.393,3.752,8.393,8.393c0,4.642-3.752,8.393-8.393,8.393H0v16.787
				h41.967c4.642,0,8.393,3.752,8.393,8.393c0,4.642-3.752,8.393-8.393,8.393H0v25.18h503.607V335.739z M76.196,243.411
				c5.179-33.07,40.557-58.754,83.28-58.754c42.731,0,78.109,25.684,83.288,58.754H76.196z M260.851,243.411
				c5.179-33.07,40.557-58.754,83.28-58.754c42.731,0,78.109,25.684,83.288,58.754H260.851z M344.131,167.87
				c-41.271,0-76.783,20.816-92.328,50.495c-15.536-29.679-51.049-50.495-92.328-50.495c-52.132,0-95.14,33.188-100.209,75.541
				H43.797L80.753,56.892c0.873-3.844,4.247-6.53,8.192-6.53H414.67c3.945,0,7.311,2.686,8.133,6.303l37.015,186.746h-15.469
				C439.271,201.058,396.271,167.87,344.131,167.87z"/>
		</g>
	</g>
</g>
<g>
</g>
<g>
</g>
<g>
</g>
<g>
</g>
<g>
</g>
<g>
</g>
<g>
</g>
<g>
</g>
<g>
</g>
<g>
</g>
<g>
</g>
<g>
</g>
<g>
</g>
<g>
</g>
<g>
</g>
</svg>
