<?xml version="1.0" encoding="iso-8859-1"?>
<!-- Generator: Adobe Illustrator 19.0.0, SVG Export Plug-In . SVG Version: 6.00 Build 0)  -->
<svg version="1.1" id="Layer_1" xmlns="http://www.w3.org/2000/svg" xmlns:xlink="http://www.w3.org/1999/xlink" x="0px" y="0px"
	 viewBox="0 0 503.607 503.607" style="enable-background:new 0 0 503.607 503.607;" xml:space="preserve">
<g>
	<g>
		<path d="M444.852,193.049H181.97c1.687-3.651,2.686-7.672,2.686-11.952v-9.669c0-15.847-12.892-28.739-28.739-28.739h-60.03
			c-15.847,0-28.739,12.892-28.739,28.739v9.669c0,4.281,0.999,8.301,2.686,11.952H50.361V67.148
			c0-9.258-7.529-16.787-16.787-16.787H16.787C7.529,50.361,0,57.89,0,67.148v134.295v235.016c0,9.258,7.529,16.787,16.787,16.787
			h16.787c9.258,0,16.787-7.529,16.787-16.787V327.344h67.148V209.836h16.787v117.508h318.951v109.115
			c0,9.258,7.529,16.787,16.787,16.787h16.787c9.258,0,16.787-7.529,16.787-16.787V251.803
			C503.607,219.413,477.251,193.049,444.852,193.049z M167.869,181.097c0,6.589-5.363,11.952-11.952,11.952h-30.015H95.887
			c-6.589,0-11.952-5.363-11.952-11.952v-9.669c0-6.589,5.363-11.952,11.952-11.952h60.03c6.589,0,11.952,5.363,11.952,11.952
			V181.097z"/>
	</g>
</g>
<g>
</g>
<g>
</g>
<g>
</g>
<g>
</g>
<g>
</g>
<g>
</g>
<g>
</g>
<g>
</g>
<g>
</g>
<g>
</g>
<g>
</g>
<g>
</g>
<g>
</g>
<g>
</g>
<g>
</g>
</svg>
