<?xml version="1.0" encoding="iso-8859-1"?>
<!-- Generator: Adobe Illustrator 19.0.0, SVG Export Plug-In . SVG Version: 6.00 Build 0)  -->
<svg version="1.1" id="Layer_1" xmlns="http://www.w3.org/2000/svg" xmlns:xlink="http://www.w3.org/1999/xlink" x="0px" y="0px"
	 viewBox="0 0 503.608 503.608" style="enable-background:new 0 0 503.608 503.608;" xml:space="preserve">
<g>
	<g>
		<g>
			<path d="M453.248,285.378h50.361v-16.787c0-13.883-11.298-25.18-25.18-25.18h-1.502L439.222,53.173
				c-2.627-11.541-12.724-19.599-24.559-19.599H88.939c-11.835,0-21.932,8.058-24.601,19.825L26.676,243.411h-1.494
				c-13.883,0-25.18,11.298-25.18,25.18v16.787h41.967c4.633,0,8.393,3.752,8.393,8.393c0,4.642-3.76,8.393-8.393,8.393H0.002
				v16.787h41.967c4.633,0,8.393,3.752,8.393,8.393c0,4.642-3.76,8.393-8.393,8.393H0.002v25.18h503.607v-25.18h-50.361
				c-4.633,0-8.393-3.752-8.393-8.393c0-4.642,3.76-8.393,8.393-8.393h50.361v-16.787h-50.361c-4.633,0-8.393-3.752-8.393-8.393
				C444.854,289.13,448.614,285.378,453.248,285.378z M100.656,243.411c21.496-64.772,82.155-109.115,151.149-109.115
				c68.986,0,129.654,44.343,151.149,109.115H100.656z M420.387,243.411c-22.167-74.416-90.481-125.902-168.582-125.902
				S105.381,168.994,83.223,243.411H43.799L80.755,56.892c0.873-3.844,4.239-6.53,8.184-6.53h325.724
				c3.945,0,7.319,2.686,8.142,6.303l37.007,186.746H420.387z"/>
			<path d="M0,419.673v16.787v8.393c0,13.883,11.298,25.18,25.18,25.18h56.773c9.602,0,18.231-5.338,22.52-13.916l9.829-19.657
				h275.003l9.829,19.657c4.289,8.578,12.918,13.916,22.52,13.916h56.773c13.883,0,25.18-11.298,25.18-25.18v-8.393v-16.787v-41.967
				H0V419.673z M486.82,436.46v8.393c0,4.633-3.769,8.393-8.393,8.393h-56.773c-3.198,0-6.077-1.779-7.504-4.642l-6.077-12.145
				H486.82z M16.787,436.46h78.747l-6.077,12.145c-1.427,2.862-4.306,4.642-7.504,4.642H25.18c-4.625,0-8.393-3.76-8.393-8.393
				V436.46z"/>
		</g>
	</g>
</g>
<g>
</g>
<g>
</g>
<g>
</g>
<g>
</g>
<g>
</g>
<g>
</g>
<g>
</g>
<g>
</g>
<g>
</g>
<g>
</g>
<g>
</g>
<g>
</g>
<g>
</g>
<g>
</g>
<g>
</g>
</svg>
