<?xml version="1.0" encoding="iso-8859-1"?>
<!-- Generator: Adobe Illustrator 19.0.0, SVG Export Plug-In . SVG Version: 6.00 Build 0)  -->
<svg version="1.1" id="Layer_1" xmlns="http://www.w3.org/2000/svg" xmlns:xlink="http://www.w3.org/1999/xlink" x="0px" y="0px"
	 viewBox="0 0 503.607 503.607" style="enable-background:new 0 0 503.607 503.607;" xml:space="preserve">
<g>
	<g>
		<path d="M495.213,369.311h-75.541v-16.787h58.754c4.642,0,8.393-3.76,8.393-8.393c0-133.573-98.875-238.76-226.623-243.2V83.934
			h33.574c4.642,0,8.393-3.76,8.393-8.393s-3.752-8.393-8.393-8.393h-83.934c-4.633,0-8.393,3.76-8.393,8.393
			s3.76,8.393,8.393,8.393h33.574v16.997c-127.74,4.44-226.623,109.627-226.623,243.2c0,2.224,0.89,4.365,2.459,5.934
			c1.578,1.578,3.71,2.459,5.934,2.459h58.754v16.787H8.393c-4.633,0-8.393,3.76-8.393,8.393v50.361c0,4.633,3.76,8.393,8.393,8.393
			h486.82c4.642,0,8.393-3.76,8.393-8.393v-50.361C503.607,373.072,499.855,369.311,495.213,369.311z M74.853,287.66
			c-1.041,3.702-4.407,6.119-8.066,6.119c-0.755,0-1.519-0.109-2.283-0.319c-4.465-1.259-7.059-5.901-5.791-10.357
			c21.613-76.573,82.189-132.423,158.074-145.769c4.549-0.823,8.905,2.241,9.72,6.807c0.789,4.566-2.258,8.922-6.824,9.728
			C150.209,166.089,94.72,217.357,74.853,287.66z"/>
	</g>
</g>
<g>
</g>
<g>
</g>
<g>
</g>
<g>
</g>
<g>
</g>
<g>
</g>
<g>
</g>
<g>
</g>
<g>
</g>
<g>
</g>
<g>
</g>
<g>
</g>
<g>
</g>
<g>
</g>
<g>
</g>
</svg>
