<?xml version="1.0" encoding="iso-8859-1"?>
<!-- Generator: Adobe Illustrator 19.0.0, SVG Export Plug-In . SVG Version: 6.00 Build 0)  -->
<svg version="1.1" id="Layer_1" xmlns="http://www.w3.org/2000/svg" xmlns:xlink="http://www.w3.org/1999/xlink" x="0px" y="0px"
	 viewBox="0 0 512 512" style="enable-background:new 0 0 512 512;" xml:space="preserve">
<g>
	<g>
		<g>
			<path d="M503.467,307.2h-8.533V153.6h8.533c4.71,0,8.533-3.823,8.533-8.533c0-4.71-3.823-8.533-8.533-8.533h-8.533v-17.067
				h-42.667c-9.412,0-17.067-7.654-17.067-17.067V51.2c0-9.412,7.654-17.067,17.067-17.067h21.154
				C456.183,13.303,430.148,0,401.067,0H110.933C81.852,0,55.817,13.303,38.579,34.133h21.154c9.412,0,17.067,7.654,17.067,17.067
				v51.2c0,9.412-7.654,17.067-17.067,17.067H17.067v17.067H8.533c-4.71,0-8.533,3.823-8.533,8.533c0,4.71,3.823,8.533,8.533,8.533
				h8.533v153.6H8.533c-4.71,0-8.533,3.823-8.533,8.533s3.823,8.533,8.533,8.533h8.533v179.2c0,4.71,3.823,8.533,8.533,8.533
				h162.133V349.867c0-4.71,3.823-8.533,8.533-8.533h119.467c4.71,0,8.533,3.823,8.533,8.533V512H486.4
				c4.71,0,8.533-3.823,8.533-8.533v-179.2h8.533c4.71,0,8.533-3.823,8.533-8.533S508.177,307.2,503.467,307.2z M170.667,452.267
				c0,4.71-3.823,8.533-8.533,8.533h-102.4c-4.71,0-8.533-3.823-8.533-8.533v-102.4c0-4.71,3.823-8.533,8.533-8.533h102.4
				c4.71,0,8.533,3.823,8.533,8.533V452.267z M170.667,281.6c0,4.71-3.823,8.533-8.533,8.533h-102.4
				c-4.71,0-8.533-3.823-8.533-8.533V179.2c0-4.71,3.823-8.533,8.533-8.533h102.4c4.71,0,8.533,3.823,8.533,8.533V281.6z
				 M187.733,102.4c0,9.412-7.654,17.067-17.067,17.067h-51.2c-9.412,0-17.067-7.654-17.067-17.067V51.2
				c0-9.412,7.654-17.067,17.067-17.067h51.2c9.412,0,17.067,7.654,17.067,17.067V102.4z M213.333,51.2
				c0-9.412,7.654-17.067,17.067-17.067h51.2c9.412,0,17.067,7.654,17.067,17.067v51.2c0,9.412-7.654,17.067-17.067,17.067h-51.2
				c-9.412,0-17.067-7.654-17.067-17.067V51.2z M315.733,281.6c0,4.71-3.823,8.533-8.533,8.533H204.8
				c-4.71,0-8.533-3.823-8.533-8.533V179.2c0-4.71,3.823-8.533,8.533-8.533h102.4c4.71,0,8.533,3.823,8.533,8.533V281.6z
				 M324.267,102.4V51.2c0-9.412,7.654-17.067,17.067-17.067h51.2c9.412,0,17.067,7.654,17.067,17.067v51.2
				c0,9.412-7.654,17.067-17.067,17.067h-51.2C331.921,119.467,324.267,111.812,324.267,102.4z M460.8,452.267
				c0,4.71-3.823,8.533-8.533,8.533h-102.4c-4.71,0-8.533-3.823-8.533-8.533v-102.4c0-4.71,3.823-8.533,8.533-8.533h102.4
				c4.71,0,8.533,3.823,8.533,8.533V452.267z M460.8,281.6c0,4.71-3.823,8.533-8.533,8.533h-102.4c-4.71,0-8.533-3.823-8.533-8.533
				V179.2c0-4.71,3.823-8.533,8.533-8.533h102.4c4.71,0,8.533,3.823,8.533,8.533V281.6z"/>
			<path d="M59.733,51.2H27.426c-6.571,12.817-10.359,27.298-10.359,42.667v8.533h42.667V51.2z"/>
			<rect x="119.463" y="51.2" width="51.2" height="51.2"/>
			<path d="M452.267,102.4h42.667v-8.533c0-15.369-3.789-29.85-10.359-42.667h-32.307V102.4z"/>
			<rect x="230.397" y="51.2" width="51.2" height="51.2"/>
			<rect x="341.33" y="51.2" width="51.2" height="51.2"/>
			<rect x="213.33" y="187.733" width="85.333" height="34.133"/>
			<path d="M119.467,247.467c0,4.71-3.823,8.533-8.533,8.533s-8.533-3.823-8.533-8.533v-8.533H68.267v34.133H153.6v-34.133h-34.133
				V247.467z"/>
			<path d="M264.533,247.467c0,4.71-3.823,8.533-8.533,8.533c-4.71,0-8.533-3.823-8.533-8.533v-8.533h-34.133v34.133h85.333v-34.133
				h-34.133V247.467z"/>
			<rect x="68.263" y="187.733" width="85.333" height="34.133"/>
			<path d="M409.6,247.462c0,4.71-3.823,8.533-8.533,8.533c-4.71,0-8.533-3.823-8.533-8.533v-8.533H358.4v34.133h85.333v-34.133
				H409.6V247.462z"/>
			<rect x="358.397" y="187.733" width="85.333" height="34.133"/>
			<rect x="68.263" y="358.4" width="34.133" height="85.333"/>
			<rect x="119.463" y="358.4" width="34.133" height="85.333"/>
			<rect x="358.397" y="358.4" width="34.133" height="85.333"/>
			<rect x="409.597" y="358.4" width="34.133" height="85.333"/>
			<path d="M204.8,512h42.667v-8.533V435.2c-4.71,0-8.533-3.823-8.533-8.533s3.823-8.533,8.533-8.533V358.4H204.8V512z"/>
			<path d="M264.533,418.133c4.71,0,8.533,3.823,8.533,8.533s-3.823,8.533-8.533,8.533v68.267V512H307.2V358.4h-42.667V418.133z"/>
		</g>
	</g>
</g>
<g>
</g>
<g>
</g>
<g>
</g>
<g>
</g>
<g>
</g>
<g>
</g>
<g>
</g>
<g>
</g>
<g>
</g>
<g>
</g>
<g>
</g>
<g>
</g>
<g>
</g>
<g>
</g>
<g>
</g>
</svg>
