<?xml version="1.0" encoding="iso-8859-1"?>
<!-- Generator: Adobe Illustrator 19.0.0, SVG Export Plug-In . SVG Version: 6.00 Build 0)  -->
<svg version="1.1" id="Layer_1" xmlns="http://www.w3.org/2000/svg" xmlns:xlink="http://www.w3.org/1999/xlink" x="0px" y="0px"
	 viewBox="0 0 503.607 503.607" style="enable-background:new 0 0 503.607 503.607;" xml:space="preserve">
<g>
	<g>
		<g>
			<path d="M495.213,453.246h-25.18V8.393c0-4.642-3.752-8.393-8.393-8.393H41.967c-4.642,0-8.393,3.752-8.393,8.393v444.852H8.393
				c-4.642,0-8.393,3.752-8.393,8.393v33.574c0,4.642,3.752,8.393,8.393,8.393h486.82c4.642,0,8.393-3.752,8.393-8.393v-33.574
				C503.607,456.998,499.855,453.246,495.213,453.246z M335.738,50.361c0-4.642,3.752-8.393,8.393-8.393h67.148
				c4.642,0,8.393,3.752,8.393,8.393v50.361c0,4.642-3.752,8.393-8.393,8.393h-67.148c-4.642,0-8.393-3.752-8.393-8.393V50.361z
				 M335.738,142.689c0-4.642,3.752-8.393,8.393-8.393h67.148c4.642,0,8.393,3.752,8.393,8.393v50.361
				c0,4.642-3.752,8.393-8.393,8.393h-67.148c-4.642,0-8.393-3.752-8.393-8.393V142.689z M335.738,235.016
				c0-4.642,3.752-8.393,8.393-8.393h67.148c4.642,0,8.393,3.752,8.393,8.393v50.361c0,4.642-3.752,8.393-8.393,8.393h-67.148
				c-4.642,0-8.393-3.752-8.393-8.393V235.016z M209.836,50.361c0-4.642,3.752-8.393,8.393-8.393h67.148
				c4.642,0,8.393,3.752,8.393,8.393v50.361c0,4.642-3.752,8.393-8.393,8.393H218.23c-4.642,0-8.393-3.752-8.393-8.393V50.361z
				 M209.836,142.689c0-4.642,3.752-8.393,8.393-8.393h67.148c4.642,0,8.393,3.752,8.393,8.393v50.361
				c0,4.642-3.752,8.393-8.393,8.393H218.23c-4.642,0-8.393-3.752-8.393-8.393V142.689z M209.836,235.016
				c0-4.642,3.752-8.393,8.393-8.393h67.148c4.642,0,8.393,3.752,8.393,8.393v50.361c0,4.642-3.752,8.393-8.393,8.393H218.23
				c-4.642,0-8.393-3.752-8.393-8.393V235.016z M201.443,318.951h100.721c4.642,0,8.393,3.752,8.393,8.393
				c0,4.642-3.752,8.393-8.393,8.393H201.443c-4.642,0-8.393-3.752-8.393-8.393C193.049,322.703,196.801,318.951,201.443,318.951z
				 M176.262,360.918c0-4.642,3.752-8.393,8.393-8.393h67.148h67.148c4.642,0,8.393,3.752,8.393,8.393v92.328h-16.787v-83.934
				h-50.361v83.934H243.41v-83.934h-50.361v83.934h-16.787V360.918z M83.934,50.361c0-4.642,3.752-8.393,8.393-8.393h67.148
				c4.642,0,8.393,3.752,8.393,8.393v50.361c0,4.642-3.752,8.393-8.393,8.393H92.328c-4.642,0-8.393-3.752-8.393-8.393V50.361z
				 M83.934,142.689c0-4.642,3.752-8.393,8.393-8.393h67.148c4.642,0,8.393,3.752,8.393,8.393v50.361
				c0,4.642-3.752,8.393-8.393,8.393H92.328c-4.642,0-8.393-3.752-8.393-8.393V142.689z M83.934,235.016
				c0-4.642,3.752-8.393,8.393-8.393h67.148c4.642,0,8.393,3.752,8.393,8.393v50.361c0,4.642-3.752,8.393-8.393,8.393H92.328
				c-4.642,0-8.393-3.752-8.393-8.393V235.016z M486.82,486.82H16.787v-16.787h25.18h142.689h134.295h142.689h25.18V486.82z"/>
			<rect x="226.62" y="58.754" width="50.361" height="33.574"/>
			<rect x="226.62" y="243.41" width="50.361" height="33.574"/>
			<rect x="226.62" y="151.082" width="50.361" height="33.574"/>
			<rect x="100.718" y="58.754" width="50.361" height="33.574"/>
			<rect x="100.718" y="151.082" width="50.361" height="33.574"/>
			<rect x="100.718" y="243.41" width="50.361" height="33.574"/>
			<rect x="352.521" y="243.41" width="50.361" height="33.574"/>
			<rect x="352.521" y="58.754" width="50.361" height="33.574"/>
			<rect x="352.521" y="151.082" width="50.361" height="33.574"/>
		</g>
	</g>
</g>
<g>
</g>
<g>
</g>
<g>
</g>
<g>
</g>
<g>
</g>
<g>
</g>
<g>
</g>
<g>
</g>
<g>
</g>
<g>
</g>
<g>
</g>
<g>
</g>
<g>
</g>
<g>
</g>
<g>
</g>
</svg>
