<?xml version="1.0" encoding="iso-8859-1"?>
<!-- Generator: Adobe Illustrator 19.0.0, SVG Export Plug-In . SVG Version: 6.00 Build 0)  -->
<svg version="1.1" id="Layer_1" xmlns="http://www.w3.org/2000/svg" xmlns:xlink="http://www.w3.org/1999/xlink" x="0px" y="0px"
	 viewBox="0 0 512 512" style="enable-background:new 0 0 512 512;" xml:space="preserve">
<g>
	<g>
		<path d="M503.468,494.933h-8.533v-51.2v-68.267V179.2v-68.267V8.533c0-4.719-3.814-8.533-8.533-8.533
			c-4.71,0-8.533,3.814-8.533,8.533V102.4H458.08c1.707-3.712,2.722-7.799,2.722-12.151v-9.83c0-16.111-13.107-29.218-29.21-29.218
			h-214.64c-16.102,0-29.218,13.107-29.218,29.218v9.83c0,4.352,1.024,8.439,2.731,12.151h-22.519
			c1.707-3.712,2.722-7.799,2.722-12.151v-9.83c0-16.111-13.107-29.218-29.21-29.218H80.419
			C64.316,51.2,51.201,64.307,51.201,80.418v9.83c0,4.352,1.024,8.439,2.731,12.151H34.133V8.533C34.133,3.814,30.32,0,25.6,0
			c-4.71,0-8.533,3.814-8.533,8.533v102.4V179.2v196.267v68.267v51.2H8.534c-4.71,0-8.533,3.814-8.533,8.533S3.823,512,8.534,512
			h290.133h119.467h85.333c4.719,0,8.533-3.814,8.533-8.533C512,498.748,508.187,494.933,503.468,494.933z M68.268,80.418
			c0-6.699,5.453-12.151,12.151-12.151h61.039c6.699,0,12.143,5.453,12.143,12.151v9.83c0,6.699-5.444,12.151-12.143,12.151H80.419
			c-6.699,0-12.151-5.453-12.151-12.151V80.418z M290.133,494.933h-256v-42.667h256V494.933z M68.268,354.782v-9.83
			c0-6.699,5.453-12.151,12.151-12.151h61.039c6.699,0,12.143,5.453,12.143,12.151v9.83c0,6.699-5.444,12.151-12.143,12.151H80.419
			C73.719,366.933,68.268,361.481,68.268,354.782z M290.133,366.933h-73.182c-6.699,0-12.151-5.453-12.151-12.151v-9.83
			c0-6.699,5.453-12.151,12.151-12.151h73.182V366.933z M290.133,315.733h-73.182c-16.102,0-29.218,13.107-29.218,29.218v9.83
			c0,4.352,1.024,8.439,2.731,12.151h-22.519c1.707-3.712,2.722-7.799,2.722-12.151v-9.83c0-16.111-13.107-29.218-29.21-29.218
			H80.419c-16.102,0-29.218,13.107-29.218,29.218v9.83c0,4.352,1.024,8.439,2.731,12.151H34.133v-179.2h256V315.733z
			 M409.601,494.933h-102.4v-25.6h102.4V494.933z M409.601,443.733v8.533h-102.4v-8.533V435.2h102.4V443.733z M409.601,418.133
			h-102.4v-17.067h102.4V418.133z M409.601,375.467V384h-102.4v-8.533v-8.533h102.4V375.467z M409.601,349.867h-102.4V332.8h102.4
			V349.867z M409.601,315.733h-102.4v-17.067h102.4V315.733z M409.601,281.6h-102.4v-17.067h102.4V281.6z M409.601,247.467h-102.4
			V230.4h102.4V247.467z M409.601,213.333h-102.4v-17.067h102.4V213.333z M409.601,179.2h-102.4v-17.067h102.4V179.2z
			 M409.601,145.067h-102.4v-25.6h102.4V145.067z M298.667,102.4h-81.715c-6.699,0-12.151-5.453-12.151-12.151v-9.83
			c0-6.699,5.453-12.151,12.151-12.151h214.638c6.699,0,12.143,5.453,12.143,12.151v9.83c0,6.699-5.444,12.151-12.143,12.151
			h-13.457H298.667z M426.667,187.734h51.2v179.199h-19.788c1.707-3.712,2.722-7.799,2.722-12.151v-9.83
			c0-16.111-13.107-29.218-29.21-29.218h-4.924V187.734z M443.734,344.951v9.83c0,6.699-5.444,12.151-12.143,12.151h-4.924V332.8
			h4.924C438.291,332.8,443.734,338.253,443.734,344.951z M477.867,494.933h-51.2v-42.667h51.2V494.933z"/>
	</g>
</g>
<g>
</g>
<g>
</g>
<g>
</g>
<g>
</g>
<g>
</g>
<g>
</g>
<g>
</g>
<g>
</g>
<g>
</g>
<g>
</g>
<g>
</g>
<g>
</g>
<g>
</g>
<g>
</g>
<g>
</g>
</svg>
