<?xml version="1.0" encoding="iso-8859-1"?>
<!-- Generator: Adobe Illustrator 19.0.0, SVG Export Plug-In . SVG Version: 6.00 Build 0)  -->
<svg version="1.1" id="Layer_1" xmlns="http://www.w3.org/2000/svg" xmlns:xlink="http://www.w3.org/1999/xlink" x="0px" y="0px"
	 viewBox="0 0 503.607 503.607" style="enable-background:new 0 0 503.607 503.607;" xml:space="preserve">
<g>
	<g>
		<g>
			<rect x="184.652" y="293.77" width="33.574" height="33.574"/>
			<rect x="285.374" y="386.098" width="33.574" height="33.574"/>
			<rect x="285.374" y="293.77" width="33.574" height="33.574"/>
			<rect x="184.652" y="201.443" width="33.574" height="33.574"/>
			<rect x="83.931" y="386.098" width="33.574" height="33.574"/>
			<path d="M478.426,50.361h-0.848c-3.903-19.129-20.858-33.574-41.12-33.574c-20.262,0-37.216,14.445-41.119,33.574h-10.089
				c-3.903-19.129-20.858-33.574-41.119-33.574s-37.217,14.445-41.12,33.574h-10.089c-3.903-19.129-20.858-33.574-41.12-33.574
				s-37.216,14.445-41.119,33.574h-10.089c-3.903-19.129-20.858-33.574-41.119-33.574c-20.262,0-37.217,14.445-41.12,33.574h-10.089
				c-3.903-19.129-20.858-33.574-41.119-33.574s-37.217,14.445-41.12,33.574H25.18C11.298,50.361,0,61.658,0,75.541v58.754h503.607
				V75.541C503.607,61.658,492.309,50.361,478.426,50.361z M43.512,50.361c3.475-9.745,12.708-16.787,23.636-16.787
				c10.928,0,20.161,7.042,23.636,16.787H43.512z M135.839,50.361c3.475-9.745,12.708-16.787,23.636-16.787
				c10.928,0,20.161,7.042,23.636,16.787H135.839z M228.167,50.361c3.475-9.745,12.708-16.787,23.636-16.787
				c10.928,0,20.161,7.042,23.636,16.787H228.167z M320.495,50.361c3.475-9.745,12.708-16.787,23.636-16.787
				s20.161,7.042,23.636,16.787H320.495z M412.823,50.361c3.475-9.745,12.708-16.787,23.636-16.787
				c10.928,0,20.161,7.042,23.636,16.787H412.823z"/>
			<rect x="83.931" y="293.77" width="33.574" height="33.574"/>
			<rect x="83.931" y="201.443" width="33.574" height="33.574"/>
			<rect x="184.652" y="386.098" width="33.574" height="33.574"/>
			<rect x="386.095" y="201.443" width="33.574" height="33.574"/>
			<rect x="386.095" y="386.098" width="33.574" height="33.574"/>
			<path d="M0,461.639c0,13.883,11.298,25.18,25.18,25.18h453.246c13.883,0,25.18-11.298,25.18-25.18V151.082H0V461.639z
				 M369.311,193.049c0-4.642,3.76-8.393,8.393-8.393h50.361c4.633,0,8.393,3.752,8.393,8.393v50.361
				c0,4.642-3.76,8.393-8.393,8.393h-50.361c-4.633,0-8.393-3.752-8.393-8.393V193.049z M369.311,285.377
				c0-4.642,3.76-8.393,8.393-8.393h50.361c4.633,0,8.393,3.752,8.393,8.393v50.361c0,4.642-3.76,8.393-8.393,8.393h-50.361
				c-4.633,0-8.393-3.752-8.393-8.393V285.377z M369.311,377.705c0-4.642,3.76-8.393,8.393-8.393h50.361
				c4.633,0,8.393,3.752,8.393,8.393v50.361c0,4.642-3.76,8.393-8.393,8.393h-50.361c-4.633,0-8.393-3.752-8.393-8.393V377.705z
				 M268.59,193.049c0-4.642,3.76-8.393,8.393-8.393h50.361c4.633,0,8.393,3.752,8.393,8.393v50.361c0,4.642-3.76,8.393-8.393,8.393
				h-50.361c-4.633,0-8.393-3.752-8.393-8.393V193.049z M268.59,285.377c0-4.642,3.76-8.393,8.393-8.393h50.361
				c4.633,0,8.393,3.752,8.393,8.393v50.361c0,4.642-3.76,8.393-8.393,8.393h-50.361c-4.633,0-8.393-3.752-8.393-8.393V285.377z
				 M268.59,377.705c0-4.642,3.76-8.393,8.393-8.393h50.361c4.633,0,8.393,3.752,8.393,8.393v50.361c0,4.642-3.76,8.393-8.393,8.393
				h-50.361c-4.633,0-8.393-3.752-8.393-8.393V377.705z M167.869,193.049c0-4.642,3.76-8.393,8.393-8.393h50.361
				c4.633,0,8.393,3.752,8.393,8.393v50.361c0,4.642-3.76,8.393-8.393,8.393h-50.361c-4.633,0-8.393-3.752-8.393-8.393V193.049z
				 M167.869,285.377c0-4.642,3.76-8.393,8.393-8.393h50.361c4.633,0,8.393,3.752,8.393,8.393v50.361
				c0,4.642-3.76,8.393-8.393,8.393h-50.361c-4.633,0-8.393-3.752-8.393-8.393V285.377z M167.869,377.705
				c0-4.642,3.76-8.393,8.393-8.393h50.361c4.633,0,8.393,3.752,8.393,8.393v50.361c0,4.642-3.76,8.393-8.393,8.393h-50.361
				c-4.633,0-8.393-3.752-8.393-8.393V377.705z M67.148,193.049c0-4.642,3.76-8.393,8.393-8.393h50.361
				c4.633,0,8.393,3.752,8.393,8.393v50.361c0,4.642-3.76,8.393-8.393,8.393H75.541c-4.633,0-8.393-3.752-8.393-8.393V193.049z
				 M67.148,285.377c0-4.642,3.76-8.393,8.393-8.393h50.361c4.633,0,8.393,3.752,8.393,8.393v50.361c0,4.642-3.76,8.393-8.393,8.393
				H75.541c-4.633,0-8.393-3.752-8.393-8.393V285.377z M67.148,377.705c0-4.642,3.76-8.393,8.393-8.393h50.361
				c4.633,0,8.393,3.752,8.393,8.393v50.361c0,4.642-3.76,8.393-8.393,8.393H75.541c-4.633,0-8.393-3.752-8.393-8.393V377.705z"/>
			<rect x="285.374" y="201.443" width="33.574" height="33.574"/>
			<rect x="386.095" y="293.77" width="33.574" height="33.574"/>
		</g>
	</g>
</g>
<g>
</g>
<g>
</g>
<g>
</g>
<g>
</g>
<g>
</g>
<g>
</g>
<g>
</g>
<g>
</g>
<g>
</g>
<g>
</g>
<g>
</g>
<g>
</g>
<g>
</g>
<g>
</g>
<g>
</g>
</svg>
