<?xml version="1.0" encoding="iso-8859-1"?>
<!-- Generator: Adobe Illustrator 19.0.0, SVG Export Plug-In . SVG Version: 6.00 Build 0)  -->
<svg version="1.1" id="Layer_1" xmlns="http://www.w3.org/2000/svg" xmlns:xlink="http://www.w3.org/1999/xlink" x="0px" y="0px"
	 viewBox="0 0 512.003 512.003" style="enable-background:new 0 0 512.003 512.003;" xml:space="preserve">
<g>
	<g>
		<g>
			<path d="M418.133,349.871c4.71,0,8.533-3.823,8.533-8.533v-93.867c0-4.71-3.823-8.533-8.533-8.533h-4.25
				c-11.315,0-21.436-7.595-24.585-18.466l-19.285-66.415l-22.323,22.323l7.057,23.526c1.57,5.214,0.597,10.718-2.654,15.087
				c-3.251,4.369-8.243,6.878-13.696,6.878h-36.198l-42.667,42.667h30.601c4.719,0,8.533,3.814,8.533,8.533
				c0,4.719-3.814,8.533-8.533,8.533h-47.667l-68.267,68.267H358.4h51.2H418.133z M273.067,315.737h-34.133
				c-4.719,0-8.533-3.814-8.533-8.533s3.814-8.533,8.533-8.533h34.133c4.719,0,8.533,3.814,8.533,8.533
				S277.786,315.737,273.067,315.737z M366.933,324.271c-18.825,0-34.133-15.309-34.133-34.133s15.309-34.133,34.133-34.133
				s34.133,15.309,34.133,34.133S385.758,324.271,366.933,324.271z"/>
			<path d="M366.933,273.07c-9.412,0-17.067,7.654-17.067,17.067c0,9.412,7.654,17.067,17.067,17.067S384,299.549,384,290.137
				C384,280.725,376.346,273.07,366.933,273.07z"/>
			<path d="M375.467,418.137h17.067c4.71,0,8.533-3.823,8.533-8.533v-42.667h-34.133v42.667
				C366.933,414.314,370.756,418.137,375.467,418.137z"/>
			<path d="M93.867,366.936c-14.114,0-25.6-11.486-25.6-25.6V247.47c0-14.114,11.486-25.6,25.6-25.6h4.25
				c3.772,0,7.142-2.534,8.201-6.153l30.14-103.782c0.102-0.35,0.23-0.7,0.375-1.033c6.793-15.531,22.135-25.566,39.091-25.566
				h160.154c16.956,0,32.299,10.035,39.091,25.566c0.145,0.333,0.273,0.683,0.375,1.033l2.799,9.66l52.412-52.412
				C384.973,26.32,323.516,0.003,256,0.003c-141.158,0-256,114.842-256,256c0,67.516,26.317,128.973,69.18,174.754l24.687-24.687
				V366.936z"/>
			<path d="M442.824,81.246l-59.051,59.051l21.914,75.418c1.058,3.618,4.42,6.153,8.201,6.153h4.25c14.114,0,25.6,11.486,25.6,25.6
				v93.867c0,14.123-11.486,25.6-25.6,25.6V409.6c0,14.123-11.486,25.6-25.6,25.6H375.47c-14.123,0-25.6-11.477-25.6-25.6v-42.667
				H162.137V409.6c0,14.123-11.486,25.6-25.6,25.6H119.47c-8.337,0-15.684-4.062-20.361-10.24l-17.869,17.869
				C127.031,485.684,188.479,512,256.003,512c141.158,0,256-114.842,256-256C512.003,188.485,485.678,127.036,442.824,81.246z"/>
			<polygon points="173.603,204.804 295.135,204.804 328.423,171.515 317.919,136.537 194.083,136.537 			"/>
			<path d="M334.268,131.639l7.851,26.18l22.46-22.46l-5.257-18.091c-4.173-9.045-13.244-14.865-23.245-14.865H175.923
				c-10.001,0-19.072,5.82-23.245,14.865L122.701,220.48c-3.149,10.863-13.269,18.458-24.585,18.458h-4.25
				c-4.71,0-8.533,3.823-8.533,8.533v93.867c0,4.71,3.823,8.533,8.533,8.533h8.533h47.667l68.864-68.864
				c-3.26-1.203-5.598-4.267-5.598-7.936c0-4.719,3.814-8.533,8.533-8.533h13.534l42.667-42.667H173.602
				c-5.453,0-10.445-2.509-13.696-6.878c-3.251-4.369-4.224-9.873-2.654-15.087l20.48-68.267c2.15-7.168,8.875-12.169,16.35-12.169
				h123.836C325.393,119.471,332.117,124.471,334.268,131.639z M179.2,290.137c0,18.825-15.309,34.133-34.133,34.133
				c-18.825,0-34.133-15.309-34.133-34.133s15.309-34.133,34.133-34.133C163.891,256.004,179.2,271.313,179.2,290.137z"/>
			<path d="M128,290.137c0,9.412,7.654,17.067,17.067,17.067c9.412,0,17.067-7.654,17.067-17.067
				c0-9.412-7.654-17.067-17.067-17.067C135.654,273.07,128,280.725,128,290.137z"/>
		</g>
	</g>
</g>
<g>
</g>
<g>
</g>
<g>
</g>
<g>
</g>
<g>
</g>
<g>
</g>
<g>
</g>
<g>
</g>
<g>
</g>
<g>
</g>
<g>
</g>
<g>
</g>
<g>
</g>
<g>
</g>
<g>
</g>
</svg>
