<?xml version="1.0" encoding="iso-8859-1"?>
<!-- Generator: Adobe Illustrator 19.0.0, SVG Export Plug-In . SVG Version: 6.00 Build 0)  -->
<svg version="1.1" id="Layer_1" xmlns="http://www.w3.org/2000/svg" xmlns:xlink="http://www.w3.org/1999/xlink" x="0px" y="0px"
	 viewBox="0 0 503.609 503.609" style="enable-background:new 0 0 503.609 503.609;" xml:space="preserve">
<g>
	<g>
		<path d="M495.215,241.522h-16.787c-13.883,0-25.18,11.298-25.18,25.18v43.856H339.601c-9.233-10.274-22.57-16.787-37.435-16.787
			c-1.578,0-3.139,0.092-4.684,0.235l-29.738-29.738l97.775-97.767c3.248-3.248,3.282-8.503,0.084-11.784l-17.651-18.13
			L306.17,178.37c-1.645,1.637-3.794,2.459-5.934,2.459c-2.149,0-4.297-0.823-5.934-2.459c-3.282-3.282-3.282-8.586,0-11.868
			l41.934-41.934l-11.717-12.028l-30.216,30.225c-1.645,1.637-3.794,2.459-5.934,2.459c-2.149,0-4.297-0.823-5.943-2.459
			c-3.273-3.282-3.273-8.595,0-11.868l30.384-30.384L274.61,61.298c-1.561-1.603-3.685-2.518-5.909-2.543h-0.109
			c-2.191,0-4.297,0.865-5.867,2.392L23.588,294.779c-1.603,1.57-2.51,3.71-2.526,5.951c-0.017,2.249,0.865,4.407,2.459,5.985
			l5.934,5.934l-16.468,16.46c-1.578,1.57-2.459,3.702-2.459,5.934c0,2.233,0.881,4.365,2.459,5.934l5.934,5.943l-16.46,16.46
			c-3.282,3.282-3.282,8.586,0,11.868l47.482,47.482c1.578,1.578,3.71,2.459,5.934,2.459c2.233,0,4.365-0.881,5.934-2.459
			l16.46-16.468l5.934,5.934c1.645,1.645,3.785,2.459,5.934,2.459c2.149,0,4.297-0.814,5.934-2.459l16.468-16.46l5.934,5.934
			c1.645,1.645,3.785,2.459,5.934,2.459c2.149,0,4.297-0.814,5.934-2.459l89.927-89.919l31.576,31.576
			c-0.008,0.269-0.042,0.537-0.042,0.806c0,27.774,22.587,50.361,50.361,50.361c14.865,0,28.202-6.513,37.435-16.787h113.647v41.967
			c0,13.883,11.298,25.18,25.18,25.18h16.787c4.642,0,8.393-3.752,8.393-8.393V249.916
			C503.609,245.283,499.857,241.522,495.215,241.522z M90.139,394.392l-59.35-59.35l10.534-10.525l59.35,59.35L90.139,394.392z
			 M256.103,323.854l-23.963-23.972l23.737-23.745l23.258,23.258C268.936,304.666,260.77,313.303,256.103,323.854z M453.248,360.919
			H349.589c0.906-2.552,1.62-5.179,2.107-7.898c0.05-0.311,0.092-0.621,0.143-0.932c0.411-2.594,0.688-5.246,0.688-7.957
			c0-2.711-0.277-5.363-0.688-7.957c-0.05-0.311-0.092-0.621-0.143-0.932c-0.487-2.719-1.2-5.347-2.107-7.898h103.659V360.919z"/>
	</g>
</g>
<g>
</g>
<g>
</g>
<g>
</g>
<g>
</g>
<g>
</g>
<g>
</g>
<g>
</g>
<g>
</g>
<g>
</g>
<g>
</g>
<g>
</g>
<g>
</g>
<g>
</g>
<g>
</g>
<g>
</g>
</svg>
