<?xml version="1.0" encoding="iso-8859-1"?>
<!-- Generator: Adobe Illustrator 19.0.0, SVG Export Plug-In . SVG Version: 6.00 Build 0)  -->
<svg version="1.1" id="Layer_1" xmlns="http://www.w3.org/2000/svg" xmlns:xlink="http://www.w3.org/1999/xlink" x="0px" y="0px"
	 viewBox="0 0 511.996 511.996" style="enable-background:new 0 0 511.996 511.996;" xml:space="preserve">
<g>
	<g>
		<g>
			<path d="M485.707,99.041c-1.348-3.14-4.429-5.18-7.842-5.18H361.64l20.395-52.796l81.212-24.363
				c4.514-1.348,7.074-6.11,5.726-10.624c-1.348-4.514-6.101-7.057-10.624-5.726l-85.333,25.6c-2.594,0.785-4.668,2.739-5.581,5.282
				l-24.149,62.626H161.534c-4.215-33.621-32.922-59.733-67.669-59.733c-37.641,0-68.267,30.626-68.267,68.267
				c0,37.641,30.626,68.267,68.267,68.267c12.595,0,24.576-3.576,35.226-10.069l44.638,46.771l10.428-5.137
				c7.475-2.867,13.764-6.861,19.447-12.186c13.03-13.21,30.31-20.369,47.164-19.277c15.027,0.922,28.467,8.132,37.837,20.292
				c6.349,9.609,15.582,12.561,22.281,13.431c13.978,1.852,29.602-3.635,41.813-14.575c13.875-13.448,33.468-20.591,52.301-18.867
				l19.14-0.009l59.896-62.746C486.398,105.817,487.055,102.182,485.707,99.041z M85.331,93.862c-3.422,0-6.502,2.039-7.851,5.18
				c-1.34,3.14-0.683,6.776,1.681,9.25l37.905,39.714c-7.151,3.678-15.027,5.589-23.202,5.589c-28.237,0-51.2-22.963-51.2-51.2
				c0-28.228,22.963-51.2,51.2-51.2c25.327,0,46.413,18.483,50.483,42.667H85.331z"/>
			<path d="M364.329,202.394c-16.111,14.438-36.813,21.444-55.646,19.021c-14.473-1.886-26.53-9.156-33.963-20.463
				c-5.956-7.68-14.959-12.535-25.003-13.15c-11.938-0.751-24.405,4.531-34.21,14.455c-7.552,7.091-15.735,12.262-24.559,15.599
				l-4.898,2.415l48.734,51.063c11.691,12.245,18.85,27.776,20.693,44.399h52.233c1.843-16.623,9.003-32.154,20.693-44.399
				l79.462-83.251h-3.644C389.554,186.752,374.928,192.137,364.329,202.394z"/>
			<path d="M387.167,495.544l-36.975-14.797c-26.121-10.445-42.999-35.371-42.999-63.497v-84.454h-51.2v84.454
				c0,28.126-16.87,53.052-42.991,63.505l-36.975,14.788c-3.797,1.519-5.982,5.513-5.214,9.532c0.777,4.019,4.292,6.921,8.38,6.921
				h204.8c4.096,0,7.612-2.901,8.38-6.921C393.149,501.056,390.964,497.063,387.167,495.544z"/>
		</g>
	</g>
</g>
<g>
</g>
<g>
</g>
<g>
</g>
<g>
</g>
<g>
</g>
<g>
</g>
<g>
</g>
<g>
</g>
<g>
</g>
<g>
</g>
<g>
</g>
<g>
</g>
<g>
</g>
<g>
</g>
<g>
</g>
</svg>
