<?xml version="1.0" encoding="iso-8859-1"?>
<!-- Generator: Adobe Illustrator 19.0.0, SVG Export Plug-In . SVG Version: 6.00 Build 0)  -->
<svg version="1.1" id="Layer_1" xmlns="http://www.w3.org/2000/svg" xmlns:xlink="http://www.w3.org/1999/xlink" x="0px" y="0px"
	 viewBox="0 0 511.937 511.937" style="enable-background:new 0 0 511.937 511.937;" xml:space="preserve">
<g>
	<g>
		<g>
			<path d="M281.792,212.583c2.782-1.963,4.139-5.393,3.439-8.721c-17.664-84.557-75.836-152.09-155.375-180.548
				c-21.086-8.277-43.682-8.175-64.196-0.017l3.089,1.212c90.564,41.429,121.779,110.566,88.303,194.867
				c-23.637,58.974-14.353,110.199,26.138,144.265c3.61,3.038,4.07,8.414,1.041,12.023c-1.69,2.005-4.104,3.038-6.536,3.038
				c-1.937,0-3.883-0.657-5.487-2.005c-46.592-39.185-57.6-97.306-31.002-163.644c30.029-75.631,2.671-135.407-79.121-172.843
				l-15.923-6.229C32.03,44.391,21.338,58.932,15.365,76.203l-3.925,11.332C-27.916,213.641,37.56,355.977,157.47,404.856
				c5.495,2.176,11.255,3.823,17.118,4.898c0.521,0.094,1.033,0.137,1.536,0.137c2.005,0,3.968-0.708,5.521-2.022
				c1.954-1.655,3.055-4.096,3.012-6.656C183.42,326.785,219.729,256.265,281.792,212.583z"/>
			<path d="M339.747,307.929h0.623c83.285,0,129.818-44.561,131.081-125.551v-17.34c-15.002-9.378-32.631-13.943-50.995-12.928
				l-11.657,0.529c-40.269,1.544-77.978,12.416-111.113,30.302c1.587,5.734,3.021,11.537,4.25,17.425
				c2.091,10.01-1.954,20.275-10.308,26.163c-57.446,40.439-91.051,105.626-89.907,174.404c0.017,0.87-0.171,1.698-0.239,2.552
				C221.322,341.456,268.869,307.98,339.747,307.929z"/>
			<path d="M488.513,179.19v3.319c-1.417,90.633-55.39,142.49-148.113,142.49h-0.666c-81.374,0.051-126.797,47.573-131.345,137.412
				v18.688c13.781,8.943,29.722,13.696,46.345,13.696c1.323,0,2.662-0.026,3.985-0.085l11.716-0.538
				c0.085,0,0.171-0.009,0.265-0.017c131.925-10.061,240.145-124.501,241.237-255.181
				C511.912,216.224,503.575,195.232,488.513,179.19z"/>
		</g>
	</g>
</g>
<g>
</g>
<g>
</g>
<g>
</g>
<g>
</g>
<g>
</g>
<g>
</g>
<g>
</g>
<g>
</g>
<g>
</g>
<g>
</g>
<g>
</g>
<g>
</g>
<g>
</g>
<g>
</g>
<g>
</g>
</svg>
