<?xml version="1.0" encoding="iso-8859-1"?>
<!-- Generator: Adobe Illustrator 19.0.0, SVG Export Plug-In . SVG Version: 6.00 Build 0)  -->
<svg version="1.1" id="Layer_1" xmlns="http://www.w3.org/2000/svg" xmlns:xlink="http://www.w3.org/1999/xlink" x="0px" y="0px"
	 viewBox="0 0 512 512" style="enable-background:new 0 0 512 512;" xml:space="preserve">
<g>
	<g>
		<g>
			<path d="M217.6,0c-4.719,0-8.533,3.823-8.533,8.533V128c0,15.855-10.923,29.107-25.6,32.922V8.533
				c0-4.71-3.814-8.533-8.533-8.533S166.4,3.823,166.4,8.533v152.388c-14.677-3.814-25.6-17.067-25.6-32.922V8.533
				c0-4.71-3.814-8.533-8.533-8.533s-8.533,3.823-8.533,8.533V128c0,25.318,18.492,46.345,42.667,50.432V256
				c-23.526,0-42.667,19.14-42.667,42.667v170.667c0,23.526,19.14,42.667,42.667,42.667h17.067c23.526,0,42.667-19.14,42.667-42.667
				V298.667c0-23.526-19.14-42.667-42.667-42.667v-77.568c24.175-4.087,42.667-25.114,42.667-50.432V8.533
				C226.133,3.823,222.319,0,217.6,0z M174.933,392.533c-4.71,0-8.533-3.823-8.533-8.533s3.823-8.533,8.533-8.533
				c4.71,0,8.533,3.823,8.533,8.533S179.644,392.533,174.933,392.533z"/>
			<path d="M362.667,259.618V17.067C362.667,7.654,355.012,0,345.6,0c-13.542,0-26.138,6.067-34.577,16.657
				c-16.222,20.352-25.148,45.901-25.131,71.927l0.051,63.283c0.017,37.666,10.027,74.232,28.868,106.598
				c-16.776,5.751-28.945,21.504-28.945,40.201v170.667c0,23.526,19.14,42.667,42.667,42.667H345.6
				c23.526,0,42.667-19.14,42.667-42.667V298.667C388.267,281.216,377.711,266.223,362.667,259.618z M337.067,392.533
				c-4.71,0-8.533-3.823-8.533-8.533s3.823-8.533,8.533-8.533c4.71,0,8.533,3.823,8.533,8.533S341.777,392.533,337.067,392.533z
				 M345.6,256h-12.425c-19.738-31.223-30.14-67.132-30.165-104.141l-0.051-63.283c-0.017-22.178,7.595-43.947,21.419-61.286
				c5.171-6.494,12.902-10.223,21.222-10.223V256z"/>
		</g>
	</g>
</g>
<g>
</g>
<g>
</g>
<g>
</g>
<g>
</g>
<g>
</g>
<g>
</g>
<g>
</g>
<g>
</g>
<g>
</g>
<g>
</g>
<g>
</g>
<g>
</g>
<g>
</g>
<g>
</g>
<g>
</g>
</svg>
