<?xml version="1.0" encoding="iso-8859-1"?>
<!-- Generator: Adobe Illustrator 19.0.0, SVG Export Plug-In . SVG Version: 6.00 Build 0)  -->
<svg version="1.1" id="Layer_1" xmlns="http://www.w3.org/2000/svg" xmlns:xlink="http://www.w3.org/1999/xlink" x="0px" y="0px"
	 viewBox="0 0 512.009 512.009" style="enable-background:new 0 0 512.009 512.009;" xml:space="preserve">
<g transform="translate(0 -1)">
	<g>
		<g>
			<path d="M273.651,1.35c-33.263-2.5-65.033,8.465-89.532,30.78c-24.175,22.016-38.4,53.367-39.023,86.007
				c-0.341,17.86,11.375,32.964,27.861,35.917c10.12,1.792,20.369-0.887,28.134-7.381c7.791-6.511,12.245-16.06,12.245-26.197
				c0-15.334,6.818-29.747,18.705-39.543c11.861-9.762,27.452-13.645,42.854-10.641c20.352,3.977,36.437,20.429,40.021,40.934
				c3.627,20.719-5.41,41.327-23.031,52.514c-27.605,17.519-93.969,49.34-121.208,62.208c-24.09,11.366-40.346,33.911-42.411,58.82
				c-0.179,2.108-0.265,4.241-0.265,6.374v179.2c0,23.526,19.14,42.667,42.667,42.667h170.667c23.526,0,42.667-19.14,42.667-42.667
				V123.607C384.004,61.783,333.47,5.796,273.651,1.35z M256.004,463.31c-51.755,0-93.867-42.112-93.867-93.867
				c0-51.755,42.112-93.867,93.867-93.867c51.755,0,93.867,42.112,93.867,93.867C349.871,421.198,307.759,463.31,256.004,463.31z"/>
			<path d="M256.004,292.645c-42.351,0-76.8,34.449-76.8,76.8c0,42.351,34.449,76.8,76.8,76.8s76.8-34.449,76.8-76.8
				C332.804,327.095,298.355,292.645,256.004,292.645z M213.338,325.277h85.333c4.719,0,8.533,3.814,8.533,8.533
				c0,4.719-3.814,8.533-8.533,8.533h-85.333c-4.719,0-8.533-3.814-8.533-8.533C204.804,329.091,208.619,325.277,213.338,325.277z
				 M196.271,367.944c0-4.719,3.814-8.533,8.533-8.533h25.6c4.719,0,8.533,3.814,8.533,8.533s-3.814,8.533-8.533,8.533h-25.6
				C200.085,376.477,196.271,372.663,196.271,367.944z M256.004,410.61h-42.667c-4.719,0-8.533-3.814-8.533-8.533
				c0-4.719,3.814-8.533,8.533-8.533h42.667c4.719,0,8.533,3.814,8.533,8.533C264.538,406.796,260.723,410.61,256.004,410.61z
				 M298.671,410.61h-8.533c-4.719,0-8.533-3.814-8.533-8.533c0-4.719,3.814-8.533,8.533-8.533h8.533
				c4.719,0,8.533,3.814,8.533,8.533C307.204,406.796,303.39,410.61,298.671,410.61z M315.738,367.944
				c0,4.719-3.814,8.533-8.533,8.533h-42.667c-4.719,0-8.533-3.814-8.533-8.533s3.814-8.533,8.533-8.533h42.667
				C311.923,359.41,315.738,363.225,315.738,367.944z"/>
		</g>
	</g>
</g>
<g>
</g>
<g>
</g>
<g>
</g>
<g>
</g>
<g>
</g>
<g>
</g>
<g>
</g>
<g>
</g>
<g>
</g>
<g>
</g>
<g>
</g>
<g>
</g>
<g>
</g>
<g>
</g>
<g>
</g>
</svg>
