<?xml version="1.0" encoding="iso-8859-1"?>
<!-- Generator: Adobe Illustrator 19.0.0, SVG Export Plug-In . SVG Version: 6.00 Build 0)  -->
<svg version="1.1" id="Layer_1" xmlns="http://www.w3.org/2000/svg" xmlns:xlink="http://www.w3.org/1999/xlink" x="0px" y="0px"
	 viewBox="0 0 512.021 512.021" style="enable-background:new 0 0 512.021 512.021;" xml:space="preserve">
<g transform="translate(0 -1)">
	<g>
		<g>
			<path d="M179.21,427.687h153.6V308.221h-153.6V427.687z M307.21,410.621h-8.533c-4.71,0-8.533-3.814-8.533-8.533
				c0-4.719,3.823-8.533,8.533-8.533h8.533c4.71,0,8.533,3.814,8.533,8.533C315.744,406.806,311.921,410.621,307.21,410.621z
				 M307.21,376.487h-42.667c-4.71,0-8.533-3.814-8.533-8.533s3.823-8.533,8.533-8.533h42.667c4.71,0,8.533,3.814,8.533,8.533
				S311.921,376.487,307.21,376.487z M204.81,325.287h102.4c4.71,0,8.533,3.814,8.533,8.533c0,4.719-3.823,8.533-8.533,8.533h-102.4
				c-4.71,0-8.533-3.814-8.533-8.533C196.277,329.102,200.1,325.287,204.81,325.287z M204.81,359.421h25.6
				c4.71,0,8.533,3.814,8.533,8.533s-3.823,8.533-8.533,8.533h-25.6c-4.71,0-8.533-3.814-8.533-8.533S200.1,359.421,204.81,359.421z
				 M204.81,393.554h59.733c4.71,0,8.533,3.814,8.533,8.533c0,4.719-3.823,8.533-8.533,8.533H204.81
				c-4.71,0-8.533-3.814-8.533-8.533C196.277,397.368,200.1,393.554,204.81,393.554z"/>
			<path d="M273.657,1.362c-33.237-2.551-65.024,8.457-89.532,30.771c-24.175,22.025-38.4,53.367-39.031,86.016
				c-0.341,17.852,11.383,32.964,27.878,35.917c10.086,1.801,20.352-0.879,28.134-7.39c7.774-6.502,12.237-16.06,12.237-26.189
				c0-15.343,6.818-29.747,18.714-39.543c11.861-9.762,27.486-13.645,42.837-10.641c20.361,3.977,36.446,20.429,40.038,40.934
				c3.627,20.719-5.419,41.327-23.04,52.506c-27.648,17.553-93.978,49.357-121.208,62.208
				c-24.098,11.366-40.346,33.92-42.411,58.854c-0.179,2.099-0.265,4.224-0.265,6.349v179.2c0,23.526,19.14,42.667,42.667,42.667
				h170.667c23.526,0,42.667-19.14,42.667-42.667V123.619C384.01,61.795,333.476,5.808,273.657,1.362z M349.877,436.221
				c0,4.719-3.823,8.533-8.533,8.533H170.677c-4.71,0-8.533-3.814-8.533-8.533V299.687c0-4.719,3.823-8.533,8.533-8.533h170.667
				c4.71,0,8.533,3.814,8.533,8.533V436.221z"/>
		</g>
	</g>
</g>
<g>
</g>
<g>
</g>
<g>
</g>
<g>
</g>
<g>
</g>
<g>
</g>
<g>
</g>
<g>
</g>
<g>
</g>
<g>
</g>
<g>
</g>
<g>
</g>
<g>
</g>
<g>
</g>
<g>
</g>
</svg>
