<?xml version="1.0" encoding="iso-8859-1"?>
<!-- Generator: Adobe Illustrator 19.0.0, SVG Export Plug-In . SVG Version: 6.00 Build 0)  -->
<svg version="1.1" id="Layer_1" xmlns="http://www.w3.org/2000/svg" xmlns:xlink="http://www.w3.org/1999/xlink" x="0px" y="0px"
	 viewBox="0 0 512 512" style="enable-background:new 0 0 512 512;" xml:space="preserve">
<g>
	<g>
		<g>
			<path d="M396.8,256h-59.733V34.133C337.067,15.309,321.758,0,302.933,0H115.2C96.375,0,81.067,15.309,81.067,34.133v392.533
				h42.667c4.71,0,8.533,3.814,8.533,8.533s-3.823,8.533-8.533,8.533H81.067V460.8H140.8c4.71,0,8.533,3.814,8.533,8.533
				s-3.823,8.533-8.533,8.533H81.067C81.067,496.691,96.375,512,115.2,512h187.733c18.825,0,34.133-15.309,34.133-34.133v-153.6
				H396.8c18.825,0,34.133-15.309,34.133-34.133S415.625,256,396.8,256z M115.2,125.047v-11.162
				c0-15.744,12.809-28.553,28.552-28.553h130.628c15.744,0,28.553,12.809,28.553,28.553v11.162
				c0,15.744-12.809,28.553-28.553,28.553H143.753C128.009,153.6,115.2,140.792,115.2,125.047z M209.067,358.4
				c-37.641,0-68.267-30.626-68.267-68.267c0-37.641,30.626-68.267,68.267-68.267c24.277,0,46.72,13.295,58.854,34.133h-20.796
				c-9.583-10.658-23.407-17.067-38.059-17.067c-28.237,0-51.2,22.963-51.2,51.2c0,28.237,22.963,51.2,51.2,51.2
				c14.652,0,28.476-6.409,38.059-17.067h20.796C255.787,345.105,233.344,358.4,209.067,358.4z M396.8,307.2h-68.267h-65.562
				h-28.305c-9.412,0-17.067-7.654-17.067-17.067c0-9.412,7.654-17.067,17.067-17.067h28.305h65.562H396.8
				c9.412,0,17.067,7.654,17.067,17.067C413.867,299.546,406.212,307.2,396.8,307.2z"/>
			<path d="M285.869,125.047v-11.162c0-6.332-5.154-11.486-11.486-11.486H143.747c-6.332,0-11.477,5.154-11.477,11.486v11.162
				c0,6.332,5.146,11.486,11.477,11.486h130.637C280.715,136.533,285.869,131.379,285.869,125.047z"/>
		</g>
	</g>
</g>
<g>
</g>
<g>
</g>
<g>
</g>
<g>
</g>
<g>
</g>
<g>
</g>
<g>
</g>
<g>
</g>
<g>
</g>
<g>
</g>
<g>
</g>
<g>
</g>
<g>
</g>
<g>
</g>
<g>
</g>
</svg>
