<?xml version="1.0" encoding="iso-8859-1"?>
<!-- Generator: Adobe Illustrator 19.0.0, SVG Export Plug-In . SVG Version: 6.00 Build 0)  -->
<svg version="1.1" id="Layer_1" xmlns="http://www.w3.org/2000/svg" xmlns:xlink="http://www.w3.org/1999/xlink" x="0px" y="0px"
	 viewBox="0 0 512.009 512.009" style="enable-background:new 0 0 512.009 512.009;" xml:space="preserve">
<g transform="translate(0 -1)">
	<g>
		<g>
			<path d="M208.123,427.889c13.141,10.522,29.773,16.853,47.881,16.853c42.351,0,76.8-34.449,76.8-76.8
				c0-18.108-6.332-34.739-16.853-47.881L208.123,427.889z"/>
			<path d="M256.005,291.141c-42.351,0-76.8,34.449-76.8,76.8c0,18.108,6.332,34.739,16.853,47.881l107.827-107.827
				C290.744,297.473,274.113,291.141,256.005,291.141z"/>
			<path d="M273.651,1.35c-33.237-2.5-65.033,8.465-89.532,30.771c-24.175,22.025-38.4,53.367-39.023,86.016
				c-0.341,17.852,11.375,32.964,27.861,35.917c10.129,1.792,20.369-0.887,28.134-7.39c7.791-6.502,12.245-16.06,12.245-26.189
				c0-15.334,6.818-29.747,18.705-39.543c11.861-9.762,27.46-13.645,42.854-10.641c20.352,3.977,36.437,20.429,40.021,40.934
				c3.627,20.719-5.41,41.327-23.031,52.506c-27.605,17.527-93.969,49.348-121.208,62.208c-24.09,11.366-40.346,33.92-42.411,58.829
				c-0.179,2.108-0.265,4.241-0.265,6.374v179.2c0,23.526,19.14,42.667,42.667,42.667h170.667c23.526,0,42.667-19.14,42.667-42.667
				V123.607C384.004,61.783,333.47,5.796,273.651,1.35z M256.004,461.809c-51.755,0-93.867-42.112-93.867-93.867
				s42.112-93.867,93.867-93.867c25.771,0,49.143,10.453,66.125,27.324c0.077,0.068,0.179,0.094,0.247,0.171
				c0.077,0.068,0.102,0.171,0.171,0.247c16.87,16.981,27.324,40.354,27.324,66.125
				C349.871,419.697,307.759,461.809,256.004,461.809z"/>
		</g>
	</g>
</g>
<g>
</g>
<g>
</g>
<g>
</g>
<g>
</g>
<g>
</g>
<g>
</g>
<g>
</g>
<g>
</g>
<g>
</g>
<g>
</g>
<g>
</g>
<g>
</g>
<g>
</g>
<g>
</g>
<g>
</g>
</svg>
