<?xml version="1.0" encoding="iso-8859-1"?>
<!-- Generator: Adobe Illustrator 19.0.0, SVG Export Plug-In . SVG Version: 6.00 Build 0)  -->
<svg version="1.1" id="Layer_1" xmlns="http://www.w3.org/2000/svg" xmlns:xlink="http://www.w3.org/1999/xlink" x="0px" y="0px"
	 viewBox="0 0 512.013 512.013" style="enable-background:new 0 0 512.013 512.013;" xml:space="preserve">
<g>
	<g>
		<g>
			<path d="M511.981,164.307c-1.101-36.48-32.845-66.167-70.75-66.167h-94.643c-11.298,0-21.922,4.983-29.124,13.619l-78.524,93.022
				v-38.374c0-21.743-11.716-40.747-29.124-51.2c17.408-10.453,29.124-29.457,29.124-51.2c0-32.93-26.803-59.733-59.733-59.733
				s-59.733,26.803-59.733,59.733c0,21.743,11.716,40.747,29.124,51.2c-17.408,10.453-29.124,29.457-29.124,51.2v179.891
				l-18.517,21.931c-1.596,1.894-3.934,2.978-6.4,2.978H70.782c-37.905,0-69.649,29.687-70.75,66.167
				c-0.563,18.645,6.272,36.275,19.243,49.63c12.971,13.38,30.37,20.736,48.998,20.736h80.077c11.298,0,21.931-4.983,29.175-13.67
				l212.813-255.582c2.022-2.423,4.983-3.814,8.141-3.814h45.261c18.628,0,36.028-7.356,48.998-20.736
				C505.709,200.583,512.544,182.953,511.981,164.307z M221.873,224.997L136.54,326.082V166.407
				c0-23.526,19.14-42.667,42.667-42.667c23.526,0,42.667,19.14,42.667,42.667V224.997z"/>
			<path d="M471.839,433.44l-45.167,45.167V328.54c0-4.719-3.814-8.533-8.533-8.533s-8.533,3.814-8.533,8.533v150.067
				l-45.167-45.167c-3.337-3.337-8.73-3.337-12.066,0s-3.337,8.73,0,12.066l59.725,59.725c0.785,0.794,1.732,1.417,2.782,1.852
				c1.041,0.435,2.15,0.657,3.26,0.657c1.109,0,2.219-0.222,3.26-0.657c1.05-0.435,1.997-1.058,2.782-1.852l59.725-59.725
				c3.336-3.337,3.336-8.73,0-12.066C480.569,430.104,475.176,430.104,471.839,433.44z"/>
		</g>
	</g>
</g>
<g>
</g>
<g>
</g>
<g>
</g>
<g>
</g>
<g>
</g>
<g>
</g>
<g>
</g>
<g>
</g>
<g>
</g>
<g>
</g>
<g>
</g>
<g>
</g>
<g>
</g>
<g>
</g>
<g>
</g>
</svg>
