<?xml version="1.0" encoding="iso-8859-1"?>
<!-- Generator: Adobe Illustrator 19.0.0, SVG Export Plug-In . SVG Version: 6.00 Build 0)  -->
<svg version="1.1" id="Layer_1" xmlns="http://www.w3.org/2000/svg" xmlns:xlink="http://www.w3.org/1999/xlink" x="0px" y="0px"
	 viewBox="0 0 512.004 512.004" style="enable-background:new 0 0 512.004 512.004;" xml:space="preserve">
<g transform="translate(0 -1)">
	<g>
		<g>
			<path d="M494.935,274.071c-4.71,0-8.533,3.814-8.533,8.533c0,112.922-91.878,204.8-204.8,204.8c-4.71,0-8.533,3.814-8.533,8.533
				s3.823,8.533,8.533,8.533c122.334,0,221.867-99.524,221.867-221.867C503.469,277.885,499.646,274.071,494.935,274.071z"/>
			<path d="M17.069,239.938c4.71,0,8.533-3.814,8.533-8.533c0-112.922,91.878-204.8,204.8-204.8c4.71,0,8.533-3.814,8.533-8.533
				s-3.823-8.533-8.533-8.533c-122.334,0-221.867,99.524-221.867,221.867C8.535,236.123,12.358,239.938,17.069,239.938z"/>
			<path d="M358.402,136.779V70.057c-17.724,3.149-34.133,15.744-34.133,33.348C324.269,121.573,340.721,133.75,358.402,136.779z"/>
			<path d="M409.602,188.738c0-17.604-16.41-30.199-34.133-33.348v66.722C393.15,219.091,409.602,206.905,409.602,188.738z"/>
			<path d="M366.935,291.133c79.991,0,145.067-65.067,145.067-145.067C512.002,66.075,446.927,1,366.935,1
				S221.869,66.075,221.869,146.067C221.869,226.067,286.944,291.133,366.935,291.133z M358.402,52.823v-9.156
				c0-4.71,3.823-8.533,8.533-8.533s8.533,3.823,8.533,8.533v8.969c9.626,0.922,18.261,3.43,25.6,7.373V52.2
				c0-4.71,3.823-8.533,8.533-8.533s8.533,3.823,8.533,8.533v51.2c0,4.719-3.823,8.533-8.533,8.533s-8.533-3.814-8.533-8.533V81.111
				c-5.888-6.093-14.729-9.967-25.6-11.29v68.335c26.01,3.413,51.2,22.076,51.2,50.577c0,28.51-25.19,47.172-51.2,50.586v9.148
				c0,4.719-3.823,8.533-8.533,8.533s-8.533-3.814-8.533-8.533v-8.977c-9.54-0.956-18.227-3.499-25.6-7.45v7.893
				c0,4.719-3.823,8.533-8.533,8.533c-4.71,0-8.533-3.814-8.533-8.533v-51.2c0-4.71,3.823-8.533,8.533-8.533
				c4.71,0,8.533,3.823,8.533,8.533v22.281c5.803,5.922,14.891,9.882,25.6,11.264v-68.292c-26.01-3.413-51.2-22.076-51.2-50.586
				C307.202,74.899,332.393,56.236,358.402,52.823z"/>
			<path d="M145.069,222.871c-79.992,0-145.067,65.075-145.067,145.067s65.075,145.067,145.067,145.067
				s145.067-65.075,145.067-145.067S225.06,222.871,145.069,222.871z M187.735,453.271h-102.4c-4.71,0-8.533-3.814-8.533-8.533
				c0-4.719,3.823-8.533,8.533-8.533c23.706,0,25.481-23.296,25.609-25.958v-42.308H85.335c-4.71,0-8.533-3.814-8.533-8.533
				s3.823-8.533,8.533-8.533h25.6v-42.667c0-23.526,19.14-42.667,42.667-42.667c23.526,0,42.667,19.14,42.667,42.667
				c0,4.719-3.823,8.533-8.533,8.533s-8.533-3.814-8.533-8.533c0-14.114-11.486-25.6-25.6-25.6s-25.6,11.486-25.6,25.6v42.667h25.6
				c4.71,0,8.533,3.814,8.533,8.533s-3.823,8.533-8.533,8.533h-25.6v42.667c-0.256,7.1-2.56,17.084-8.38,25.6h68.113
				c11.964,0,17.067-5.103,17.067-17.067c0-4.719,3.823-8.533,8.533-8.533c4.71,0,8.533,3.814,8.533,8.533
				C221.869,440.514,209.112,453.271,187.735,453.271z"/>
		</g>
	</g>
</g>
<g>
</g>
<g>
</g>
<g>
</g>
<g>
</g>
<g>
</g>
<g>
</g>
<g>
</g>
<g>
</g>
<g>
</g>
<g>
</g>
<g>
</g>
<g>
</g>
<g>
</g>
<g>
</g>
<g>
</g>
</svg>
