<?xml version="1.0" encoding="iso-8859-1"?>
<!-- Generator: Adobe Illustrator 19.0.0, SVG Export Plug-In . SVG Version: 6.00 Build 0)  -->
<svg version="1.1" id="Layer_1" xmlns="http://www.w3.org/2000/svg" xmlns:xlink="http://www.w3.org/1999/xlink" x="0px" y="0px"
	 viewBox="0 0 512 512" style="enable-background:new 0 0 512 512;" xml:space="preserve">
<g>
	<g>
		<path d="M494.933,85.335H384V47.618l55.432-31.675c4.096-2.338,5.521-7.544,3.174-11.64c-2.338-4.087-7.552-5.521-11.64-3.174
			l-59.733,34.132c-0.316,0.179-0.512,0.486-0.802,0.699c-0.478,0.359-0.93,0.709-1.331,1.161c-0.359,0.418-0.623,0.862-0.896,1.331
			c-0.273,0.47-0.529,0.921-0.709,1.451c-0.196,0.563-0.273,1.126-0.35,1.723c-0.043,0.359-0.214,0.674-0.214,1.041v42.666H256.001
			c-9.404,0-17.067,7.654-17.067,17.067v34.133c0,6.408,3.593,11.93,8.824,14.848l1.622,34.065
			c-21.077-4.036-44.587-6.246-70.178-6.246c-107.179,0-179.199,37.725-179.199,93.866v8.431c0,9.472,7.705,17.169,17.169,17.169
			h8.431v18.568c-12.595,3.533-22.494,13.406-24.977,26.188c-1.851,9.583,0.443,19.114,6.468,26.821
			c4.71,6.025,11.221,10.291,18.508,12.365v9.975c-14.157,0.239-25.6,11.793-25.6,26.001v16.162c0,14.217,11.444,25.762,25.6,26.009
			V486.4c0,14.114,11.486,25.599,25.6,25.599H307.2h154.419c13.67,0,24.9-10.7,25.549-24.362l16.008-336.255
			c5.231-2.919,8.824-8.439,8.824-14.848v-34.133C512,92.99,504.346,85.335,494.933,85.335z M42.668,298.667h273.065v17.067H42.668
			V298.667z M42.668,383.258c1.118-0.247,2.21-0.598,3.285-0.964c0.392-0.128,0.794-0.247,1.177-0.392
			c1.612-0.614,3.149-1.391,4.642-2.261c0.47-0.273,0.921-0.555,1.383-0.853c1.587-1.041,3.123-2.176,4.531-3.508
			c4.719-4.48,8.021-10.385,9.583-16.879h27.682c3.789,14.703,17.178,25.6,33.05,25.6c15.88,0,29.26-10.897,33.05-25.6h36.301
			c3.789,14.703,17.178,25.6,33.05,25.6c15.88,0,29.26-10.897,33.05-25.6h27.682c1.562,6.493,4.873,12.399,9.583,16.879
			c1.34,1.263,2.799,2.356,4.3,3.362c0.418,0.273,0.845,0.529,1.28,0.794c1.255,0.751,2.552,1.408,3.891,1.979
			c0.342,0.154,0.674,0.324,1.024,0.461c1.476,0.563,2.978,1.041,4.523,1.383v9.275H42.668V383.258z M315.735,486.4h-0.001
			c0,4.702-3.823,8.533-8.533,8.533H51.202c-4.71,0-8.533-3.832-8.533-8.533v-25.6h273.065V486.4z M470.119,486.826
			c-0.214,4.549-3.951,8.107-8.499,8.107H331.341c0.264-0.734,0.402-1.511,0.598-2.278c0.119-0.486,0.282-0.948,0.375-1.442
			c0.299-1.562,0.486-3.166,0.486-4.813v-25.6c14.157-0.247,25.6-11.836,25.6-26.052v-16.162c0-14.217-11.444-25.805-25.6-26.044
			v-9.882c9.976-2.799,18.005-9.702,22.263-18.577c6.639,1.851,13.466,2.85,20.403,2.85c42.351,0,76.8-34.449,76.8-76.8
			c0-42.342-34.449-76.8-76.8-76.8c-13.969,0-27.392,3.789-39.296,10.939c-1.553-1.502-3.2-2.961-4.906-4.395
			c-0.717-0.598-1.4-1.203-2.133-1.783c-2.577-2.048-5.291-4.028-8.183-5.939c-1.16-0.759-2.415-1.476-3.626-2.218
			c-1.809-1.109-3.644-2.193-5.564-3.251c-1.732-0.956-3.49-1.894-5.316-2.807c-1.245-0.623-2.56-1.212-3.857-1.818
			c-4.642-2.176-9.531-4.215-14.686-6.11c-0.231-0.085-0.443-0.171-0.674-0.256c-3.209-1.169-6.52-2.261-9.916-3.311
			c-3.49-1.076-6.989-2.142-10.658-3.098l-1.698-35.686h221.029L470.119,486.826z M357.743,264.406
			c-0.043-0.324-0.068-0.657-0.12-0.981c-0.094-0.614-0.239-1.22-0.35-1.826c-0.512-2.782-1.169-5.512-2.048-8.183
			c-0.068-0.204-0.111-0.418-0.179-0.623c-0.99-2.902-2.253-5.718-3.678-8.491c-0.299-0.581-0.623-1.144-0.938-1.723
			c-0.948-1.715-1.971-3.413-3.08-5.077c8.635-4.659,18.21-7.099,28.117-7.099c32.939,0,59.733,26.794,59.733,59.733
			s-26.794,59.733-59.733,59.733c-5.837,0-11.588-0.853-17.169-2.552c-0.051-0.546-0.204-1.076-0.273-1.612
			c-0.111-0.853-0.239-1.69-0.418-2.517c-0.214-0.964-0.478-1.894-0.768-2.824c-0.256-0.794-0.495-1.587-0.802-2.356
			c-0.367-0.921-0.802-1.809-1.245-2.696c-0.358-0.725-0.709-1.451-1.126-2.15c-0.512-0.87-1.101-1.69-1.682-2.509
			c-0.461-0.649-0.905-1.315-1.408-1.929c-0.657-0.802-1.383-1.536-2.099-2.278c-0.538-0.555-1.041-1.126-1.612-1.647
			c-0.802-0.734-1.672-1.365-2.535-2.022c-0.581-0.435-1.126-0.913-1.732-1.315c-0.99-0.666-2.048-1.212-3.106-1.775
			c-0.538-0.282-1.049-0.623-1.604-0.879c-1.639-0.759-3.337-1.408-5.086-1.894v-18.244h8.431c9.472,0,17.169-7.697,17.169-17.169
			v-8.431C358.401,270.124,358.135,267.247,357.743,264.406z"/>
	</g>
</g>
<g>
</g>
<g>
</g>
<g>
</g>
<g>
</g>
<g>
</g>
<g>
</g>
<g>
</g>
<g>
</g>
<g>
</g>
<g>
</g>
<g>
</g>
<g>
</g>
<g>
</g>
<g>
</g>
<g>
</g>
</svg>
