<?xml version="1.0" encoding="iso-8859-1"?>
<!-- Generator: Adobe Illustrator 19.0.0, SVG Export Plug-In . SVG Version: 6.00 Build 0)  -->
<svg version="1.1" id="Layer_1" xmlns="http://www.w3.org/2000/svg" xmlns:xlink="http://www.w3.org/1999/xlink" x="0px" y="0px"
	 viewBox="0 0 512 512" style="enable-background:new 0 0 512 512;" xml:space="preserve">
<g>
	<g>
		<path d="M386.17,129.249V69.424c0-4.799-3.879-8.678-8.678-8.678h-22.181c2.924-5.025,4.721-10.769,4.79-16.983
			c20.393,1.501,43.424,7.402,43.424,16.983c0,4.799,3.879,8.678,8.678,8.678c4.799,0,8.678-3.879,8.678-8.678
			c0-26.572-38.712-32.829-59.097-34.278c4.599-3.089,18.753-9.112,59.097-9.112c4.799,0,8.678-3.879,8.678-8.678
			c0-4.799-3.879-8.678-8.678-8.678c-48.007,0-66.812,8.504-73.954,16.349c-5.936-4.729-13.347-7.671-21.504-7.671
			c-12.713,0-23.734,6.942-29.783,17.174c-14.744-0.425-63.019,0.955-98.034,33.185c-24.593,22.623-37.064,55.313-37.064,97.166
			v138.846v43.39v52.068c0,0.304,0.017,0.616,0.052,0.911c0.929,8.86,1.449,36.508-8.097,47.113c-0.2,0.226-0.425,0.382-0.633,0.581
			v-5.215c0-4.374-3.263-8.07-7.602-8.609l-69.424-8.678c-2.447-0.278-4.955,0.46-6.821,2.1c-1.866,1.649-2.933,4.018-2.933,6.508
			v52.068c0,2.491,1.067,4.86,2.933,6.508c1.588,1.406,3.645,2.169,5.745,2.169c0.356,0,0.72-0.026,1.076-0.069l69.424-8.678
			c4.339-0.538,7.602-4.235,7.602-8.609v-10.04c5.163-1.51,9.797-4.261,13.555-8.444c15.924-17.738,13.078-53.994,12.479-60.069
			v-42.939h26.034v69.424h242.982V234.304C446.915,189.456,422.418,150.293,386.17,129.249z M134.51,460.945l-52.068,6.508v-32.404
			l52.068,6.508V460.945z M325.424,26.034c9.572,0,17.356,7.784,17.356,17.356c0,9.572-7.784,17.356-17.356,17.356
			c-9.572,0-17.355-7.784-17.355-17.356C308.069,33.818,315.853,26.034,325.424,26.034z M368.814,78.102v42.748
			c-1.163-0.451-2.352-0.764-3.515-1.18c-1.796-0.625-3.575-1.258-5.406-1.805c-2.178-0.642-4.382-1.172-6.587-1.692
			c-1.484-0.356-2.951-0.746-4.452-1.041c-2.664-0.521-5.354-0.894-8.062-1.232c-1.163-0.148-2.308-0.365-3.489-0.486
			c-3.922-0.382-7.88-0.599-11.88-0.599c-4,0-7.958,0.217-11.88,0.599c-1.18,0.121-2.326,0.338-3.489,0.486
			c-2.708,0.338-5.398,0.712-8.062,1.232c-1.501,0.295-2.968,0.686-4.452,1.041c-2.204,0.521-4.408,1.05-6.587,1.692
			c-1.831,0.547-3.61,1.18-5.406,1.805c-1.163,0.417-2.352,0.729-3.515,1.18V78.102H368.814z M360.136,199.592
			c0,4.799-3.879,8.678-8.678,8.678H299.39c-4.799,0-8.678-3.879-8.678-8.678c0-4.799,3.879-8.678,8.678-8.678h52.068
			C356.257,190.914,360.136,194.793,360.136,199.592z M203.934,329.761H177.9v-26.034h26.034V329.761z M264.679,69.424v59.826
			c-36.248,21.044-60.746,60.208-60.746,105.054v52.068H177.9V156.202c0-36.742,10.552-65.111,31.353-84.315
			c27.153-25.053,65.206-28.438,81.477-28.663c0,0.061-0.017,0.104-0.017,0.165c0,6.352,1.84,12.227,4.825,17.356h-22.181
			C268.558,60.746,264.679,64.625,264.679,69.424z M325.424,373.151c-4.79,0-8.678-3.888-8.678-8.678s3.888-8.678,8.678-8.678
			s8.678,3.888,8.678,8.678S330.215,373.151,325.424,373.151z M334.102,329.761c0,4.799-3.879,8.678-8.678,8.678
			c-4.799,0-8.678-3.879-8.678-8.678v-43.39c0-4.799,3.879-8.678,8.678-8.678c4.799,0,8.678,3.879,8.678,8.678V329.761z
			 M368.814,242.982h-86.779c-4.799,0-8.678-3.879-8.678-8.678s3.879-8.678,8.678-8.678h86.779c4.799,0,8.678,3.879,8.678,8.678
			S373.613,242.982,368.814,242.982z"/>
	</g>
</g>
<g>
	<g>
		<path d="M203.934,468.61v17.2c0,14.44,11.75,26.19,26.19,26.19h190.602c14.44,0,26.19-11.75,26.19-26.19v-17.2H203.934z"/>
	</g>
</g>
<g>
	<g>
		<rect x="203.93" y="433.895" width="242.983" height="17.356"/>
	</g>
</g>
<g>
</g>
<g>
</g>
<g>
</g>
<g>
</g>
<g>
</g>
<g>
</g>
<g>
</g>
<g>
</g>
<g>
</g>
<g>
</g>
<g>
</g>
<g>
</g>
<g>
</g>
<g>
</g>
<g>
</g>
</svg>
