<?xml version="1.0" encoding="iso-8859-1"?>
<!-- Generator: Adobe Illustrator 19.0.0, SVG Export Plug-In . SVG Version: 6.00 Build 0)  -->
<svg version="1.1" id="Layer_1" xmlns="http://www.w3.org/2000/svg" xmlns:xlink="http://www.w3.org/1999/xlink" x="0px" y="0px"
	 viewBox="0 0 512.004 512.004" style="enable-background:new 0 0 512.004 512.004;" xml:space="preserve">
<g transform="translate(0 -1)">
	<g>
		<g>
			<path d="M511.049,133.275c-3.089-27.827-14.182-53.427-30.746-74.598l-4.369,5.333c-17.664,20.489-28.45,45.039-31.351,71.151
				c-4.13,37.154,6.955,73.139,31.215,101.333l5.069,4.855C504.649,210.613,515.427,172.707,511.049,133.275z"/>
			<path d="M51.2,52.213c-28.237,0-51.2,22.963-51.2,51.2v102.4c0,28.237,22.963,51.2,51.2,51.2h17.067V52.067
				c-2.159,0.017-4.352,0.145-6.502,0.145H51.2z"/>
			<path d="M427.616,133.274c3.285-29.551,15.471-57.301,35.251-80.247l6.084-7.415c-23.219-23.569-54.118-39.561-88.371-43.554
				h-0.008c-21.683-2.526-43.017-0.495-63.42,6.025c-83.712,26.76-159.795,41.02-231.817,43.597v205.338h10.82
				c54.093,0,110.498,7.33,171.085,22.101l-48.956,130.014c-7.236,19.191-6.562,40.064,1.903,58.752
				c8.465,18.68,23.697,32.956,42.897,40.183c8.883,3.345,17.997,4.932,26.974,4.932c31.061,0,60.382-18.995,71.962-49.741
				l67.721-179.831c14.694-7.45,28.262-17.195,39.936-29.21l-6.255-5.999C435.476,215.8,422.957,175.19,427.616,133.274z
				 M315.736,94.883h68.267c4.71,0,8.533,3.814,8.533,8.533c0,4.71-3.823,8.533-8.533,8.533h-68.267
				c-4.719,0-8.533-3.823-8.533-8.533C307.203,98.697,311.017,94.883,315.736,94.883z M346.055,457.242
				c-11.605,30.814-46.123,46.464-76.954,34.85c-14.933-5.615-26.786-16.717-33.365-31.258c-6.579-14.532-7.108-30.763-1.485-45.687
				l49.621-131.797c4.736,1.229,9.182,2.458,13.636,3.678c0.623,0.179,1.254,0.367,1.886,0.538l-14.643,38.886
				c-3.644,9.634-4.13,19.84-1.374,28.74c3.959,12.783,13.355,22.801,25.788,27.477c4.847,1.835,9.907,2.756,15.027,2.756
				c17.655,0,33.715-11.102,39.945-27.639l22.622-60.1c1.314-0.213,2.611-0.521,3.917-0.776c1.041-0.196,2.082-0.393,3.115-0.614
				c4.813-1.024,9.591-2.202,14.268-3.703L346.055,457.242z M307.203,188.749c0-4.719,3.814-8.533,8.533-8.533h68.267
				c4.71,0,8.533,3.814,8.533,8.533c0,4.71-3.823,8.533-8.533,8.533h-68.267C311.017,197.283,307.203,193.46,307.203,188.749z
				 M401.069,154.616h-102.4c-4.719,0-8.533-3.823-8.533-8.533c0-4.719,3.814-8.533,8.533-8.533h102.4
				c4.71,0,8.533,3.814,8.533,8.533C409.603,150.793,405.78,154.616,401.069,154.616z"/>
		</g>
	</g>
</g>
<g>
</g>
<g>
</g>
<g>
</g>
<g>
</g>
<g>
</g>
<g>
</g>
<g>
</g>
<g>
</g>
<g>
</g>
<g>
</g>
<g>
</g>
<g>
</g>
<g>
</g>
<g>
</g>
<g>
</g>
</svg>
