<?xml version="1.0" encoding="iso-8859-1"?>
<!-- Generator: Adobe Illustrator 19.0.0, SVG Export Plug-In . SVG Version: 6.00 Build 0)  -->
<svg version="1.1" id="Layer_1" xmlns="http://www.w3.org/2000/svg" xmlns:xlink="http://www.w3.org/1999/xlink" x="0px" y="0px"
	 viewBox="0 0 512.013 512.013" style="enable-background:new 0 0 512.013 512.013;" xml:space="preserve">
<g transform="translate(0 -1)">
	<g>
		<g>
			<path d="M51.2,52.218c-28.237,0-51.2,22.963-51.2,51.2v102.4c0,28.237,22.963,51.2,51.2,51.2h17.067V52.073
				c-2.159,0.017-4.352,0.145-6.502,0.145H51.2z"/>
			<path d="M461.928,39.023C439.648,19.114,411.513,5.666,380.58,2.065h-0.008c-21.683-2.534-43.025-0.495-63.42,6.016
				C233.44,34.85,157.356,49.109,85.335,51.686v205.329h10.82c42.897,0,87.236,4.574,133.956,13.824L461.928,39.023z"/>
			<path d="M511.047,133.279c-3.465-31.241-16.981-59.691-37.06-82.176L249.969,275.112c5.666,1.263,11.477,2.773,17.212,4.164
				l-48.896,129.86c-7.236,19.191-6.562,40.064,1.903,58.752c8.465,18.68,23.697,32.956,42.897,40.183
				c8.883,3.345,17.997,4.932,26.974,4.932c31.061,0,60.382-18.995,71.962-49.741l67.678-179.712
				c16.546-8.329,31.667-19.558,44.279-33.647C502.684,217.836,515.843,176.415,511.047,133.279z M346.055,457.247
				c-11.605,30.814-46.106,46.464-76.954,34.85c-14.933-5.615-26.786-16.717-33.365-31.258c-6.579-14.532-7.108-30.763-1.485-45.687
				l49.621-131.797c1.655,0.427,3.14,0.853,4.753,1.28c3.541,0.939,7.168,2.031,10.735,3.021l-14.609,38.801
				c-3.644,9.634-4.13,19.84-1.374,28.74c3.959,12.783,13.355,22.801,25.788,27.477c4.847,1.835,9.907,2.756,15.027,2.756
				c17.655,0,33.715-11.102,39.945-27.639l22.622-60.1c1.621-0.256,3.217-0.631,4.821-0.956c1.22-0.239,2.44-0.452,3.652-0.717
				c4.318-0.973,8.61-2.065,12.817-3.422L346.055,457.247z"/>
		</g>
	</g>
</g>
<g>
</g>
<g>
</g>
<g>
</g>
<g>
</g>
<g>
</g>
<g>
</g>
<g>
</g>
<g>
</g>
<g>
</g>
<g>
</g>
<g>
</g>
<g>
</g>
<g>
</g>
<g>
</g>
<g>
</g>
</svg>
