<?xml version="1.0" encoding="iso-8859-1"?>
<!-- Generator: Adobe Illustrator 19.0.0, SVG Export Plug-In . SVG Version: 6.00 Build 0)  -->
<svg version="1.1" id="Layer_1" xmlns="http://www.w3.org/2000/svg" xmlns:xlink="http://www.w3.org/1999/xlink" x="0px" y="0px"
	 viewBox="0 0 512.177 512.177" style="enable-background:new 0 0 512.177 512.177;" xml:space="preserve">
<g>
	<g>
		<path d="M501.783,306l-218.53-152.311c-5.683-3.959-12.058-6.451-18.628-7.646v-27.17c28.894-4.164,51.2-29.022,51.2-59.051
			c0-32.93-26.795-59.733-59.733-59.733s-59.733,26.803-59.733,59.733c0,4.719,3.814,8.533,8.533,8.533
			c4.71,0,8.533-3.814,8.533-8.533c0-23.526,19.14-42.667,42.667-42.667c23.526,0,42.667,19.14,42.667,42.667
			s-19.14,42.667-42.667,42.667c-4.719,0-8.533,3.814-8.533,8.533v35.021c-6.571,1.195-12.954,3.686-18.637,7.646L10.391,306
			c-8.832,6.153-12.459,16.776-9.225,27.051c3.226,10.274,12.262,16.905,23.031,16.905h61.227v76.8h273.067v17.067H85.424v42.667
			c0,14.114,11.477,25.6,25.6,25.6h238.933c14.114,0,25.6-11.486,25.6-25.6v-8.533h42.667c14.114,0,25.6-11.486,25.6-25.6v-102.4
			h44.151c10.769,0,19.814-6.63,23.04-16.905C514.241,322.776,510.615,312.152,501.783,306z M426.758,452.355
			c0,4.71-3.831,8.533-8.533,8.533h-42.667v-17.067v-17.067v-76.8h51.2V452.355z M375.686,332.888
			c0.512-9.754,5.922-18.338,13.773-22.639c0.068-0.034,0.128-0.077,0.196-0.102c1.032-0.555,2.133-0.973,3.243-1.374
			c0.666-0.23,1.331-0.452,2.031-0.631c0.742-0.188,1.502-0.333,2.27-0.452c0.862-0.137,1.749-0.222,2.645-0.265
			c1.007-0.043,2.014-0.034,3.004,0.034c0.717,0.051,1.425,0.111,2.125,0.222c1.007,0.145,1.997,0.375,2.978,0.649
			c0.725,0.196,1.451,0.401,2.15,0.666c0.845,0.316,1.664,0.708,2.475,1.109c0.742,0.375,1.493,0.751,2.193,1.195
			c0.734,0.461,1.417,1.007,2.108,1.545c0.666,0.521,1.34,1.033,1.954,1.613c0.657,0.631,1.212,1.323,1.792,2.014
			c0.521,0.606,1.067,1.186,1.519,1.843c0.606,0.87,1.084,1.809,1.579,2.748c0.29,0.555,0.648,1.075,0.904,1.664
			c0.538,1.246,0.922,2.56,1.254,3.883c0.094,0.35,0.247,0.666,0.324,1.024c0.358,1.715,0.555,3.473,0.555,5.257H375.686z
			 M494.734,327.931c-0.367,1.169-1.937,4.958-6.758,4.958h-44.151c0-3.004-0.333-5.931-0.93-8.764
			c-0.111-0.538-0.35-1.041-0.486-1.57c-0.572-2.27-1.22-4.506-2.142-6.613c-0.401-0.93-0.981-1.766-1.451-2.671
			c-0.836-1.604-1.656-3.217-2.688-4.693c-0.725-1.05-1.613-1.971-2.441-2.961c-0.998-1.195-1.971-2.398-3.098-3.473
			c-0.265-0.256-0.461-0.58-0.742-0.828c-1.442-1.314-2.995-2.475-4.591-3.575c-0.213-0.145-0.435-0.282-0.657-0.435
			c-2.099-1.374-4.292-2.586-6.588-3.575c-0.247-0.111-0.512-0.196-0.768-0.299c-2.372-0.973-4.821-1.758-7.339-2.287
			c-0.171-0.034-0.341-0.051-0.503-0.085c-2.688-0.529-5.427-0.828-8.192-0.828c-0.017,0-0.034-0.009-0.051-0.009H128.091
			c-20.233,0-37.146,14.199-41.506,33.135c-0.077,0.324-0.23,0.614-0.29,0.947c-0.307,1.493-0.324,3.081-0.469,4.625
			c-0.128,1.323-0.401,2.603-0.401,3.959H24.198c-4.821,0-6.391-3.789-6.758-4.958c-0.358-1.161-1.246-5.171,2.714-7.936
			l218.53-152.303c10.411-7.253,24.405-7.253,34.816,0l218.53,152.303C495.98,322.759,495.093,326.77,494.734,327.931z"/>
	</g>
</g>
<g>
</g>
<g>
</g>
<g>
</g>
<g>
</g>
<g>
</g>
<g>
</g>
<g>
</g>
<g>
</g>
<g>
</g>
<g>
</g>
<g>
</g>
<g>
</g>
<g>
</g>
<g>
</g>
<g>
</g>
</svg>
