<?xml version="1.0" encoding="iso-8859-1"?>
<!-- Generator: Adobe Illustrator 19.0.0, SVG Export Plug-In . SVG Version: 6.00 Build 0)  -->
<svg version="1.1" id="Layer_1" xmlns="http://www.w3.org/2000/svg" xmlns:xlink="http://www.w3.org/1999/xlink" x="0px" y="0px"
	 viewBox="0 0 512 512" style="enable-background:new 0 0 512 512;" xml:space="preserve">
<g>
	<g>
		<path d="M503.467,494.933h-8.533v-332.8c0-4.71-3.814-8.533-8.533-8.533h-128V8.533c0-4.71-3.814-8.533-8.533-8.533H162.133
			c-4.71,0-8.533,3.823-8.533,8.533V153.6h-128c-4.71,0-8.533,3.823-8.533,8.533v332.8H8.533c-4.71,0-8.533,3.823-8.533,8.533
			C0,508.176,3.823,512,8.533,512H25.6h136.533H204.8h102.4h42.667H486.4h17.067c4.719,0,8.533-3.823,8.533-8.533
			C512,498.757,508.186,494.933,503.467,494.933z M153.6,494.933H34.133V170.667H153.6V494.933z M298.666,494.933v-68.267h-34.133
			v68.267h-17.067v-68.267h-34.133v68.267h-17.067v-76.8c0-4.71,3.823-8.533,8.533-8.533h102.4c4.719,0,8.533,3.823,8.533,8.533
			v76.8H298.666z M213.333,273.067h85.333c4.719,0,8.533,3.823,8.533,8.533v34.133c0,4.71-3.814,8.533-8.533,8.533h-85.333
			c-4.71,0-8.533-3.823-8.533-8.533V281.6C204.8,276.89,208.623,273.067,213.333,273.067z M204.8,247.467v-34.133
			c0-4.71,3.823-8.533,8.533-8.533h85.333c4.719,0,8.533,3.823,8.533,8.533v34.133c0,4.71-3.814,8.533-8.533,8.533h-85.333
			C208.623,256,204.8,252.177,204.8,247.467z M213.333,341.333h85.333c4.719,0,8.533,3.823,8.533,8.533V384
			c0,4.71-3.814,8.533-8.533,8.533h-85.333c-4.71,0-8.533-3.823-8.533-8.533v-34.133C204.8,345.156,208.623,341.333,213.333,341.333
			z M315.734,187.733H281.6c-4.71,0-8.533-3.823-8.533-8.533v-42.667h-34.133V179.2c0,4.71-3.814,8.533-8.533,8.533h-34.133
			c-4.71,0-8.533-3.823-8.533-8.533V42.667c0-4.71,3.823-8.533,8.533-8.533H230.4c4.719,0,8.533,3.823,8.533,8.533v42.667h34.133
			V42.667c0-4.71,3.823-8.533,8.533-8.533h34.133c4.719,0,8.533,3.823,8.533,8.533V179.2h0.002
			C324.267,183.91,320.453,187.733,315.734,187.733z M477.867,494.933H358.4V170.667h119.467V494.933z"/>
	</g>
</g>
<g>
	<g>
		<path d="M128.003,187.733H59.737c-4.71,0-8.533,3.823-8.533,8.533V230.4c0,4.71,3.823,8.533,8.533,8.533h68.267
			c4.71,0,8.533-3.823,8.533-8.533v-34.133C136.537,191.556,132.714,187.733,128.003,187.733z"/>
	</g>
</g>
<g>
	<g>
		<path d="M128.003,256H59.737c-4.71,0-8.533,3.823-8.533,8.533v34.133c0,4.71,3.823,8.533,8.533,8.533h68.267
			c4.71,0,8.533-3.823,8.533-8.533v-34.133C136.537,259.823,132.714,256,128.003,256z"/>
	</g>
</g>
<g>
	<g>
		<path d="M128.003,324.267H59.737c-4.71,0-8.533,3.823-8.533,8.533v34.133c0,4.71,3.823,8.533,8.533,8.533h68.267
			c4.71,0,8.533-3.823,8.533-8.533V332.8C136.537,328.09,132.714,324.267,128.003,324.267z"/>
	</g>
</g>
<g>
	<g>
		<path d="M128.003,392.533H59.737c-4.71,0-8.533,3.823-8.533,8.533V435.2c0,4.71,3.823,8.533,8.533,8.533h68.267
			c4.71,0,8.533-3.823,8.533-8.533v-34.133C136.537,396.356,132.714,392.533,128.003,392.533z"/>
	</g>
</g>
<g>
	<g>
		<path d="M452.27,187.733h-68.267c-4.71,0-8.533,3.823-8.533,8.533V230.4c0,4.71,3.823,8.533,8.533,8.533h68.267
			c4.71,0,8.533-3.823,8.533-8.533v-34.133C460.803,191.556,456.981,187.733,452.27,187.733z"/>
	</g>
</g>
<g>
	<g>
		<path d="M452.27,256h-68.267c-4.71,0-8.533,3.823-8.533,8.533v34.133c0,4.71,3.823,8.533,8.533,8.533h68.267
			c4.71,0,8.533-3.823,8.533-8.533v-34.133C460.803,259.823,456.981,256,452.27,256z"/>
	</g>
</g>
<g>
	<g>
		<path d="M452.27,324.267h-68.267c-4.71,0-8.533,3.823-8.533,8.533v34.133c0,4.71,3.823,8.533,8.533,8.533h68.267
			c4.71,0,8.533-3.823,8.533-8.533V332.8C460.803,328.09,456.981,324.267,452.27,324.267z"/>
	</g>
</g>
<g>
	<g>
		<path d="M452.27,392.533h-68.267c-4.71,0-8.533,3.823-8.533,8.533V435.2c0,4.71,3.823,8.533,8.533,8.533h68.267
			c4.71,0,8.533-3.823,8.533-8.533v-34.133C460.803,396.356,456.981,392.533,452.27,392.533z"/>
	</g>
</g>
<g>
	<g>
		<rect x="221.867" y="290.133" width="68.266" height="17.067"/>
	</g>
</g>
<g>
	<g>
		<rect x="221.867" y="358.4" width="68.266" height="17.067"/>
	</g>
</g>
<g>
	<g>
		<path d="M290.136,51.2v42.667c0,4.71-3.823,8.533-8.533,8.533h-51.2c-4.71,0-8.533-3.823-8.533-8.533V51.2h-17.067v119.467h17.067
			V128c0-4.71,3.823-8.533,8.533-8.533h51.2c4.71,0,8.533,3.823,8.533,8.533v42.667h17.067V51.2H290.136z"/>
	</g>
</g>
<g>
	<g>
		<rect x="221.867" y="221.867" width="68.266" height="17.066"/>
	</g>
</g>
<g>
</g>
<g>
</g>
<g>
</g>
<g>
</g>
<g>
</g>
<g>
</g>
<g>
</g>
<g>
</g>
<g>
</g>
<g>
</g>
<g>
</g>
<g>
</g>
<g>
</g>
<g>
</g>
<g>
</g>
</svg>
