<?xml version="1.0" encoding="iso-8859-1"?>
<!-- Generator: Adobe Illustrator 19.0.0, SVG Export Plug-In . SVG Version: 6.00 Build 0)  -->
<svg version="1.1" id="Layer_1" xmlns="http://www.w3.org/2000/svg" xmlns:xlink="http://www.w3.org/1999/xlink" x="0px" y="0px"
	 viewBox="0 0 503.607 503.607" style="enable-background:new 0 0 503.607 503.607;" xml:space="preserve">
<g>
	<g>
		<g>
			<path d="M411.877,103.839l-8.989-22.486l-8.998,22.486c-1.276,3.181-4.356,5.271-7.789,5.271h-26.364l23.199,18.491
				c2.753,2.199,3.844,5.875,2.728,9.224l-7.831,23.485l19.825-15.796c1.528-1.217,3.374-1.83,5.229-1.83
				c1.847,0,3.693,0.613,5.229,1.83l19.817,15.796l-7.831-23.485c-1.108-3.349-0.017-7.025,2.736-9.224l23.191-18.491h-26.355
				C416.242,109.11,413.153,107.02,411.877,103.839z"/>
			<path d="M302.164,318.949c0,4.633-3.752,8.393-8.393,8.393h-83.934c-4.642,0-8.393-3.76-8.393-8.393v-83.934h-33.574v218.23
				h33.574V369.31c0-4.633,3.752-8.393,8.393-8.393h83.934c4.642,0,8.393,3.76,8.393,8.393v83.934h33.574v-218.23h-33.574V318.949z"
				/>
			<path d="M234.582,120.162l-7.797,23.401l19.775-15.822c1.528-1.225,3.391-1.838,5.246-1.838c1.847,0,3.71,0.613,5.246,1.838
				l19.767,15.822l-7.789-23.401c-1.116-3.332-0.034-7.009,2.711-9.208l23.283-18.625h-26.431c-3.424,0-6.522-2.09-7.789-5.271
				l-8.998-22.427l-9.006,22.427c-1.267,3.181-4.356,5.271-7.781,5.271h-26.439l23.292,18.625
				C234.615,113.154,235.698,116.83,234.582,120.162z"/>
			<path d="M470.033,0H33.574C15.058,0,0,15.058,0,33.574v436.459c0,18.508,15.058,33.574,33.574,33.574h436.459
				c18.516,0,33.574-15.066,33.574-33.574V33.574C503.607,15.058,488.549,0,470.033,0z M176.741,81.156
				c1.175-3.366,4.348-5.615,7.915-5.615h44.678l14.68-36.579c1.276-3.181,4.365-5.263,7.789-5.263c3.425,0,6.513,2.082,7.789,5.263
				l14.68,36.579h44.678c3.567,0,6.74,2.249,7.915,5.615c1.183,3.366,0.109,7.101-2.669,9.333l-37.401,29.914l14.932,44.804
				c1.183,3.534-0.101,7.42-3.156,9.543c-1.452,1.007-3.131,1.511-4.801,1.511c-1.863,0-3.71-0.613-5.246-1.838l-36.721-29.377
				l-36.721,29.377c-2.921,2.333-6.992,2.451-10.047,0.327s-4.339-6.01-3.156-9.543l14.932-44.804L179.41,90.49
				C176.632,88.257,175.557,84.522,176.741,81.156z M147.49,191.404c-1.444,1.016-3.122,1.519-4.801,1.519
				c-1.855,0-3.701-0.621-5.229-1.83l-36.738-29.276l-36.738,29.276c-2.912,2.317-7.008,2.443-10.03,0.311
				c-3.055-2.124-4.339-6.001-3.156-9.535l14.924-44.796l-37.376-29.788c-2.795-2.224-3.869-5.968-2.694-9.333
				c1.175-3.374,4.356-5.624,7.923-5.624h44.678l14.672-36.696c1.284-3.181,4.365-5.271,7.797-5.271s6.513,2.09,7.798,5.271
				l14.672,36.696h44.678c3.567,0,6.748,2.249,7.923,5.624c1.175,3.366,0.101,7.109-2.694,9.333l-37.376,29.788l14.924,44.796
				C151.829,185.403,150.536,189.281,147.49,191.404z M352.525,461.639c0,4.633-3.752,8.393-8.393,8.393H293.77
				c-4.642,0-8.393-3.76-8.393-8.393v-83.934H218.23v83.934c0,4.633-3.752,8.393-8.393,8.393h-50.361
				c-4.642,0-8.393-3.76-8.393-8.393V226.623c0-4.633,3.752-8.393,8.393-8.393h50.361c4.642,0,8.393,3.76,8.393,8.393v83.934h67.148
				v-83.934c0-4.633,3.752-8.393,8.393-8.393h50.361c4.642,0,8.393,3.76,8.393,8.393V461.639z M475.262,107.285l-37.376,29.788
				l14.924,44.796c1.183,3.534-0.109,7.411-3.156,9.535c-1.444,1.016-3.122,1.519-4.801,1.519c-1.855,0-3.702-0.621-5.229-1.83
				l-36.738-29.276l-36.738,29.276c-2.913,2.317-7.009,2.443-10.03,0.311c-3.055-2.124-4.339-6.001-3.156-9.535l14.924-44.796
				l-37.376-29.788c-2.795-2.224-3.869-5.968-2.694-9.333c1.175-3.374,4.356-5.624,7.923-5.624h44.678l14.672-36.696
				c1.284-3.181,4.365-5.271,7.797-5.271s6.513,2.09,7.797,5.271l14.672,36.696h44.678c3.567,0,6.748,2.249,7.923,5.624
				C479.131,101.317,478.057,105.061,475.262,107.285z"/>
			<path d="M120.672,127.6l23.199-18.491h-26.364c-3.433,0-6.513-2.09-7.798-5.271l-8.989-22.486l-8.989,22.486
				c-1.284,3.181-4.365,5.271-7.798,5.271H57.57L80.769,127.6c2.753,2.199,3.844,5.875,2.728,9.224l-7.823,23.485l19.817-15.796
				c1.536-1.217,3.374-1.83,5.229-1.83c1.855,0,3.693,0.613,5.229,1.83l19.817,15.796l-7.823-23.485
				C116.827,133.476,117.919,129.8,120.672,127.6z"/>
		</g>
	</g>
</g>
<g>
</g>
<g>
</g>
<g>
</g>
<g>
</g>
<g>
</g>
<g>
</g>
<g>
</g>
<g>
</g>
<g>
</g>
<g>
</g>
<g>
</g>
<g>
</g>
<g>
</g>
<g>
</g>
<g>
</g>
</svg>
