<?xml version="1.0" encoding="iso-8859-1"?>
<!-- Generator: Adobe Illustrator 19.0.0, SVG Export Plug-In . SVG Version: 6.00 Build 0)  -->
<svg version="1.1" id="Layer_1" xmlns="http://www.w3.org/2000/svg" xmlns:xlink="http://www.w3.org/1999/xlink" x="0px" y="0px"
	 viewBox="0 0 503.607 503.607" style="enable-background:new 0 0 503.607 503.607;" xml:space="preserve">
<g>
	<g>
		<g>
			<path d="M50.361,209.836h50.361c4.642,0,8.393-3.752,8.393-8.393v-50.361c0-4.642-3.752-8.393-8.393-8.393H50.361
				c-4.642,0-8.393,3.752-8.393,8.393v50.361C41.967,206.084,45.719,209.836,50.361,209.836z"/>
			<path d="M151.082,209.836h50.361c4.642,0,8.393-3.752,8.393-8.393v-50.361c0-4.642-3.752-8.393-8.393-8.393h-50.361
				c-4.642,0-8.393,3.752-8.393,8.393v50.361C142.689,206.084,146.44,209.836,151.082,209.836z"/>
			<path d="M50.361,302.164h50.361c4.642,0,8.393-3.752,8.393-8.393V243.41c0-4.642-3.752-8.393-8.393-8.393H50.361
				c-4.642,0-8.393,3.752-8.393,8.393v50.361C41.967,298.412,45.719,302.164,50.361,302.164z"/>
			<path d="M151.082,302.164h50.361c4.642,0,8.393-3.752,8.393-8.393V243.41c0-4.642-3.752-8.393-8.393-8.393h-50.361
				c-4.642,0-8.393,3.752-8.393,8.393v50.361C142.689,298.412,146.44,302.164,151.082,302.164z"/>
			<path d="M50.361,394.492h50.361c4.642,0,8.393-3.752,8.393-8.393v-50.361c0-4.642-3.752-8.393-8.393-8.393H50.361
				c-4.642,0-8.393,3.752-8.393,8.393v50.361C41.967,390.74,45.719,394.492,50.361,394.492z"/>
			<path d="M151.082,394.492h50.361c4.642,0,8.393-3.752,8.393-8.393v-50.361c0-4.642-3.752-8.393-8.393-8.393h-50.361
				c-4.642,0-8.393,3.752-8.393,8.393v50.361C142.689,390.74,146.44,394.492,151.082,394.492z"/>
			<path d="M411.279,142.689v50.361h16.787V58.754h-16.787v50.361c0,4.642-3.752,8.393-8.393,8.393h-67.148
				c-4.642,0-8.393-3.752-8.393-8.393V58.754h-16.787v134.295h16.787v-50.361c0-4.642,3.752-8.393,8.393-8.393h67.148
				C407.527,134.295,411.279,138.047,411.279,142.689z"/>
			<rect x="302.161" y="344.131" width="33.574" height="33.574"/>
			<rect x="302.161" y="251.803" width="33.574" height="33.574"/>
			<rect x="377.702" y="436.459" width="33.574" height="67.148"/>
			<rect x="327.341" y="436.459" width="33.574" height="67.148"/>
			<path d="M495.213,0H243.41c-4.642,0-8.393,3.752-8.393,8.393v92.328H8.393c-4.642,0-8.393,3.752-8.393,8.393v386.098
				c0,4.642,3.752,8.393,8.393,8.393h92.328h50.361h92.328h67.148v-75.541c0-4.642,3.752-8.393,8.393-8.393h50.361h50.361
				c4.642,0,8.393,3.752,8.393,8.393v75.541h67.148c4.642,0,8.393-3.752,8.393-8.393V8.393C503.607,3.752,499.855,0,495.213,0z
				 M235.016,486.82h-75.541v-58.754c0-4.642-3.752-8.393-8.393-8.393h-50.361c-4.642,0-8.393,3.752-8.393,8.393v58.754H16.787
				V117.508h218.229V486.82z M352.525,386.098c0,4.642-3.752,8.393-8.393,8.393H293.77c-4.642,0-8.393-3.752-8.393-8.393v-50.361
				c0-4.642,3.752-8.393,8.393-8.393h50.361c4.642,0,8.393,3.752,8.393,8.393V386.098z M352.525,293.771
				c0,4.642-3.752,8.393-8.393,8.393H293.77c-4.642,0-8.393-3.752-8.393-8.393V243.41c0-4.642,3.752-8.393,8.393-8.393h50.361
				c4.642,0,8.393,3.752,8.393,8.393V293.771z M344.131,151.082v50.361c0,4.642-3.752,8.393-8.393,8.393h-33.574
				c-4.642,0-8.393-3.752-8.393-8.393V50.361c0-4.642,3.752-8.393,8.393-8.393h33.574c4.642,0,8.393,3.752,8.393,8.393v50.361
				h50.361V50.361c0-4.642,3.752-8.393,8.393-8.393h33.574c4.642,0,8.393,3.752,8.393,8.393v151.082
				c0,4.642-3.752,8.393-8.393,8.393h-33.574c-4.642,0-8.393-3.752-8.393-8.393v-50.361H344.131z M453.246,386.098
				c0,4.642-3.752,8.393-8.393,8.393h-50.361c-4.642,0-8.393-3.752-8.393-8.393v-50.361c0-4.642,3.752-8.393,8.393-8.393h50.361
				c4.642,0,8.393,3.752,8.393,8.393V386.098z M453.246,293.771c0,4.642-3.752,8.393-8.393,8.393h-50.361
				c-4.642,0-8.393-3.752-8.393-8.393V243.41c0-4.642,3.752-8.393,8.393-8.393h50.361c4.642,0,8.393,3.752,8.393,8.393V293.771z"/>
			<rect x="402.882" y="344.131" width="33.574" height="33.574"/>
			<rect x="402.882" y="251.803" width="33.574" height="33.574"/>
		</g>
	</g>
</g>
<g>
</g>
<g>
</g>
<g>
</g>
<g>
</g>
<g>
</g>
<g>
</g>
<g>
</g>
<g>
</g>
<g>
</g>
<g>
</g>
<g>
</g>
<g>
</g>
<g>
</g>
<g>
</g>
<g>
</g>
</svg>
