<?xml version="1.0" encoding="iso-8859-1"?>
<!-- Generator: Adobe Illustrator 19.0.0, SVG Export Plug-In . SVG Version: 6.00 Build 0)  -->
<svg version="1.1" id="Layer_1" xmlns="http://www.w3.org/2000/svg" xmlns:xlink="http://www.w3.org/1999/xlink" x="0px" y="0px"
	 viewBox="0 0 512 512" style="enable-background:new 0 0 512 512;" xml:space="preserve">
<g>
	<g>
		<path d="M465.067,0c-14.541,0-27.554,6.647-36.173,17.067H8.533C3.814,17.067,0,20.89,0,25.6v42.667
			c0,4.71,3.814,8.533,8.533,8.533H76.8v42.667H34.133C15.309,119.467,0,134.775,0,153.6v324.267C0,496.691,15.309,512,34.133,512
			h384c18.825,0,34.133-15.309,34.133-34.133V153.6c0-18.825-15.309-34.133-34.133-34.133H384V76.8h44.894
			c8.619,10.419,21.632,17.067,36.173,17.067C490.94,93.867,512,72.815,512,46.933S490.94,0,465.067,0z M358.4,469.333
			c0,4.71-3.814,8.533-8.533,8.533h-51.2c-4.719,0-8.533-3.823-8.533-8.533V349.867H170.667v119.467c0,4.71-3.814,8.533-8.533,8.533
			h-51.2c-4.719,0-8.533-3.823-8.533-8.533v-307.2c0-4.71,3.814-8.533,8.533-8.533h51.2c4.719,0,8.533,3.823,8.533,8.533V281.6
			h119.467V162.133c0-4.71,3.814-8.533,8.533-8.533h51.2c4.719,0,8.533,3.823,8.533,8.533V469.333z M366.934,119.467
			L366.934,119.467H93.867V76.8h273.067V119.467z M465.067,76.8c-12.169,0-22.613-7.339-27.264-17.792
			c-0.205-0.461-0.367-0.947-0.546-1.417c-0.469-1.212-0.862-2.458-1.169-3.738c-0.119-0.512-0.247-1.024-0.341-1.545
			c-0.324-1.749-0.546-3.533-0.546-5.376s0.222-3.627,0.546-5.376c0.094-0.521,0.222-1.033,0.341-1.544
			c0.307-1.28,0.7-2.526,1.169-3.738c0.179-0.469,0.341-0.956,0.546-1.417c4.651-10.453,15.095-17.792,27.264-17.792
			c16.469,0,29.867,13.397,29.867,29.867C494.933,63.403,481.536,76.8,465.067,76.8z"/>
	</g>
</g>
<g>
	<g>
		<path d="M307.2,170.667v119.466c0,4.71-3.814,8.533-8.533,8.533H162.133c-4.719,0-8.533-3.823-8.533-8.533V170.667h-34.133V460.8
			H153.6V341.333c0-4.71,3.814-8.533,8.533-8.533h136.533c4.719,0,8.533,3.823,8.533,8.533V460.8h34.133V170.667H307.2z"/>
	</g>
</g>
<g>
</g>
<g>
</g>
<g>
</g>
<g>
</g>
<g>
</g>
<g>
</g>
<g>
</g>
<g>
</g>
<g>
</g>
<g>
</g>
<g>
</g>
<g>
</g>
<g>
</g>
<g>
</g>
<g>
</g>
</svg>
