<?xml version="1.0" encoding="iso-8859-1"?>
<!-- Generator: Adobe Illustrator 19.0.0, SVG Export Plug-In . SVG Version: 6.00 Build 0)  -->
<svg version="1.1" id="Layer_1" xmlns="http://www.w3.org/2000/svg" xmlns:xlink="http://www.w3.org/1999/xlink" x="0px" y="0px"
	 viewBox="0 0 511.998 511.998" style="enable-background:new 0 0 511.998 511.998;" xml:space="preserve">
<g>
	<g>
		<path d="M153.168,39.78c-1.169-3.482-4.42-5.837-8.098-5.837h-37.393L92.973,4.528c-2.893-5.786-12.382-5.786-15.275,0
			L62.995,33.942H25.602c-3.678,0-6.938,2.355-8.098,5.837c-1.161,3.482,0.043,7.322,2.978,9.523l29.833,22.374l-7.475,37.393
			c-0.7,3.465,0.819,6.997,3.806,8.892c2.987,1.894,6.835,1.741,9.66-0.375l29.03-21.666l29.03,21.666
			c1.51,1.126,3.302,1.69,5.103,1.69c1.579,0,3.166-0.435,4.557-1.314c2.987-1.894,4.506-5.427,3.806-8.892l-7.475-37.393
			l29.833-22.374C153.125,47.101,154.329,43.261,153.168,39.78z"/>
	</g>
</g>
<g>
	<g>
		<path d="M323.835,39.78c-1.169-3.482-4.42-5.837-8.098-5.837h-37.393L263.64,4.528c-2.893-5.786-12.382-5.786-15.275,0
			l-14.703,29.414h-37.393c-3.678,0-6.938,2.355-8.098,5.837c-1.161,3.482,0.043,7.322,2.978,9.523l29.833,22.374l-7.475,37.393
			c-0.7,3.465,0.819,6.997,3.806,8.892c2.987,1.894,6.835,1.741,9.66-0.375l29.03-21.666l29.03,21.666
			c1.51,1.126,3.302,1.69,5.103,1.69c1.579,0,3.166-0.435,4.557-1.314c2.987-1.894,4.506-5.427,3.806-8.892l-7.475-37.393
			l29.833-22.374C323.792,47.101,324.996,43.261,323.835,39.78z"/>
	</g>
</g>
<g>
	<g>
		<path d="M494.501,39.78c-1.169-3.482-4.42-5.837-8.098-5.837h-37.394L434.306,4.528c-2.893-5.786-12.382-5.786-15.275,0
			l-14.702,29.414h-37.393c-3.678,0-6.938,2.355-8.098,5.837c-1.161,3.482,0.043,7.322,2.978,9.523l29.832,22.374l-7.475,37.393
			c-0.7,3.465,0.819,6.997,3.806,8.892c2.987,1.894,6.835,1.741,9.66-0.375l29.03-21.666l29.03,21.666
			c1.51,1.126,3.302,1.69,5.103,1.69c1.579,0,3.166-0.435,4.557-1.314c2.987-1.894,4.506-5.427,3.806-8.892l-7.475-37.393
			l29.833-22.374C494.458,47.101,495.662,43.261,494.501,39.78z"/>
	</g>
</g>
<g>
	<g>
		<path d="M119.469,324.076H85.336c-4.71,0-8.533,3.814-8.533,8.533v51.2c0,4.719,3.823,8.533,8.533,8.533h34.133
			c4.71,0,8.533-3.814,8.533-8.533v-51.2C128.002,327.891,124.179,324.076,119.469,324.076z"/>
	</g>
</g>
<g>
	<g>
		<path d="M119.469,409.41H85.336c-4.71,0-8.533,3.814-8.533,8.533v51.2c0,4.719,3.823,8.533,8.533,8.533h34.133
			c4.71,0,8.533-3.814,8.533-8.533v-51.2C128.002,413.224,124.179,409.41,119.469,409.41z"/>
	</g>
</g>
<g>
	<g>
		<path d="M426.669,324.076h-34.133c-4.71,0-8.533,3.814-8.533,8.533v51.2c0,4.719,3.823,8.533,8.533,8.533h34.133
			c4.71,0,8.533-3.814,8.533-8.533v-51.2C435.202,327.891,431.38,324.076,426.669,324.076z"/>
	</g>
</g>
<g>
	<g>
		<path d="M426.669,409.41h-34.133c-4.71,0-8.533,3.814-8.533,8.533v51.2c0,4.719,3.823,8.533,8.533,8.533h34.133
			c4.71,0,8.533-3.814,8.533-8.533v-51.2C435.202,413.224,431.38,409.41,426.669,409.41z"/>
	</g>
</g>
<g>
	<g>
		<path d="M503.466,494.743h-25.6V298.476c0-4.719-3.814-8.533-8.533-8.533H358.399V144.876c0-4.719-3.814-8.533-8.533-8.533
			H162.132c-4.71,0-8.533,3.814-8.533,8.533v145.067H42.666c-4.71,0-8.533,3.814-8.533,8.533v196.267h-25.6
			c-4.71,0-8.533,3.814-8.533,8.533s3.823,8.533,8.533,8.533h34.133h119.467h59.733v-93.867c0-4.719,3.823-8.533,8.533-8.533h51.2
			c4.719,0,8.533,3.814,8.533,8.533v93.867h59.733h119.467h34.133c4.719,0,8.533-3.814,8.533-8.533
			C511.999,498.557,508.185,494.743,503.466,494.743z M153.599,494.743h-102.4V307.01h102.4V494.743z M238.932,349.676
			c0,4.719-3.814,8.533-8.533,8.533h-34.133c-4.71,0-8.533-3.814-8.533-8.533v-68.267c0-4.719,3.823-8.533,8.533-8.533h34.133
			c4.719,0,8.533,3.814,8.533,8.533V349.676z M238.932,247.276c0,4.719-3.814,8.533-8.533,8.533h-34.133
			c-4.71,0-8.533-3.814-8.533-8.533v-68.267c0-4.719,3.823-8.533,8.533-8.533h34.133c4.719,0,8.533,3.814,8.533,8.533V247.276z
			 M315.733,358.209h-34.134c-4.71,0-8.533-3.814-8.533-8.533v-68.267c0-4.719,3.823-8.533,8.533-8.533h34.133
			c4.719,0,8.533,3.814,8.533,8.533v68.267h0.001C324.266,354.395,320.452,358.209,315.733,358.209z M315.733,255.809h-34.134
			c-4.71,0-8.533-3.814-8.533-8.533v-68.267c0-4.719,3.823-8.533,8.533-8.533h34.133c4.719,0,8.533,3.814,8.533,8.533v68.267h0.001
			C324.266,251.995,320.452,255.809,315.733,255.809z M460.799,494.743h-102.4V307.01h102.4V494.743z"/>
	</g>
</g>
<g>
	<g>
		<rect x="204.799" y="187.543" width="17.067" height="51.2"/>
	</g>
</g>
<g>
	<g>
		<rect x="204.799" y="289.943" width="17.067" height="51.2"/>
	</g>
</g>
<g>
	<g>
		<rect x="238.932" y="426.476" width="34.134" height="85.334"/>
	</g>
</g>
<g>
	<g>
		<rect x="290.132" y="289.943" width="17.067" height="51.2"/>
	</g>
</g>
<g>
	<g>
		<rect x="290.132" y="187.543" width="17.067" height="51.2"/>
	</g>
</g>
<g>
</g>
<g>
</g>
<g>
</g>
<g>
</g>
<g>
</g>
<g>
</g>
<g>
</g>
<g>
</g>
<g>
</g>
<g>
</g>
<g>
</g>
<g>
</g>
<g>
</g>
<g>
</g>
<g>
</g>
</svg>
