<?xml version="1.0" encoding="iso-8859-1"?>
<!-- Generator: Adobe Illustrator 19.0.0, SVG Export Plug-In . SVG Version: 6.00 Build 0)  -->
<svg version="1.1" id="Layer_1" xmlns="http://www.w3.org/2000/svg" xmlns:xlink="http://www.w3.org/1999/xlink" x="0px" y="0px"
	 viewBox="0 0 503.607 503.607" style="enable-background:new 0 0 503.607 503.607;" xml:space="preserve">
<g>
	<g>
		<g>
			<path d="M352.969,189.96l-10.081-12.347c-22.461-27.53-55.657-43.319-91.086-43.319s-68.625,15.788-91.086,43.319l-10.081,12.347
				c-1.586,1.956-3.97,3.089-6.497,3.089h-93.78v117.508h93.78c2.526,0,4.91,1.133,6.497,3.089l10.081,12.347
				c22.461,27.531,55.657,43.319,91.086,43.319s68.625-15.788,91.086-43.319l10.081-12.347c1.586-1.956,3.97-3.089,6.496-3.089
				h93.78V193.049h-93.78C356.94,193.049,354.556,191.916,352.969,189.96z M327.344,327.344c0,4.633-3.752,8.393-8.393,8.393
				h-33.574c-4.642,0-8.393-3.76-8.393-8.393v-50.361h-50.361v50.361c0,4.633-3.752,8.393-8.393,8.393h-33.574
				c-4.642,0-8.393-3.76-8.393-8.393V176.262c0-4.633,3.752-8.393,8.393-8.393h33.574c4.642,0,8.393,3.76,8.393,8.393v50.361h50.361
				v-50.361c0-4.633,3.752-8.393,8.393-8.393h33.574c4.642,0,8.393,3.76,8.393,8.393V327.344z"/>
			<path d="M478.426,142.689h-99.101c-31.996-37.393-78.252-58.754-127.522-58.754c-49.269,0-95.526,21.361-127.522,58.754H25.18
				c-13.883,0-25.18,11.298-25.18,25.18v167.869c0,13.883,11.298,25.18,25.18,25.18h99.101
				c31.996,37.393,78.252,58.754,127.522,58.754c49.27,0,95.526-21.361,127.522-58.754h99.101c13.883,0,25.18-11.298,25.18-25.18
				V167.869C503.607,153.986,492.309,142.689,478.426,142.689z M470.033,310.557c0,9.258-7.529,16.787-16.787,16.787h-89.793
				l-7.571,9.266c-25.65,31.45-63.589,49.488-104.079,49.488s-78.428-18.038-104.079-49.488l-7.571-9.266H50.361
				c-9.258,0-16.787-7.529-16.787-16.787V193.049c0-9.258,7.529-16.787,16.787-16.787h89.793l7.571-9.266
				c25.65-31.45,63.589-49.488,104.079-49.488s78.428,18.037,104.079,49.488l7.571,9.266h89.793c9.258,0,16.787,7.529,16.787,16.787
				V310.557z"/>
			<path d="M293.77,235.016c0,4.633-3.752,8.393-8.393,8.393H218.23c-4.642,0-8.393-3.76-8.393-8.393v-50.361h-16.787v134.295
				h16.787V268.59c0-4.633,3.752-8.393,8.393-8.393h67.148c4.642,0,8.393,3.76,8.393,8.393v50.361h16.787V184.656H293.77V235.016z"
				/>
		</g>
	</g>
</g>
<g>
</g>
<g>
</g>
<g>
</g>
<g>
</g>
<g>
</g>
<g>
</g>
<g>
</g>
<g>
</g>
<g>
</g>
<g>
</g>
<g>
</g>
<g>
</g>
<g>
</g>
<g>
</g>
<g>
</g>
</svg>
