<?xml version="1.0" encoding="iso-8859-1"?>
<!-- Generator: Adobe Illustrator 19.0.0, SVG Export Plug-In . SVG Version: 6.00 Build 0)  -->
<svg version="1.1" id="Layer_1" xmlns="http://www.w3.org/2000/svg" xmlns:xlink="http://www.w3.org/1999/xlink" x="0px" y="0px"
	 viewBox="0 0 511.998 511.998" style="enable-background:new 0 0 511.998 511.998;" xml:space="preserve">
<g>
	<g>
		<g>
			<path d="M308.965,326.31c0,4.873-3.955,8.828-8.828,8.828h-88.276c-4.873,0-8.828-3.955-8.828-8.828v-88.276h-35.31v229.517
				h35.31v-88.276c0-4.873,3.955-8.828,8.828-8.828h88.276c4.873,0,8.828,3.955,8.828,8.828v88.276h35.31V238.034h-35.31V326.31z"/>
			<path d="M277.344,79.173c-11.405-11.405-31.285-11.405-42.69,0L64.379,249.448c-1.66,1.651-2.586,3.902-2.586,6.241v229.826
				c0,14.61,11.882,26.483,26.483,26.483h335.448c14.601,0,26.483-11.873,26.483-26.483V255.689c0-2.339-0.927-4.59-2.586-6.241
				L277.344,79.173z M361.93,476.379c0,4.873-3.955,8.828-8.828,8.828h-52.966c-4.873,0-8.828-3.955-8.828-8.828v-88.276h-70.621
				v88.276c0,4.873-3.955,8.828-8.828,8.828h-52.966c-4.873,0-8.828-3.955-8.828-8.828V229.206c0-4.873,3.955-8.828,8.828-8.828
				h52.966c4.873,0,8.828,3.955,8.828,8.828v88.276h70.621v-88.276c0-4.873,3.955-8.828,8.828-8.828h52.966
				c4.873,0,8.828,3.955,8.828,8.828V476.379z"/>
			<path d="M487.275,226.092L264.864,3.672C262.489,1.306,259.347,0,256.001,0c-3.346,0-6.497,1.306-8.863,3.672L24.727,226.092
				c-5.094,5.085-5.756,13.268-1.465,18.229c2.472,2.869,5.844,4.52,9.507,4.652c3.69,0.229,7.142-1.254,9.693-3.805L234.656,52.983
				c11.396-11.405,31.285-11.405,42.69,0l192.185,192.185c2.56,2.551,6.126,4.043,9.693,3.805c3.663-0.132,7.044-1.783,9.516-4.652
				C493.022,239.36,492.368,231.177,487.275,226.092z"/>
		</g>
	</g>
</g>
<g>
</g>
<g>
</g>
<g>
</g>
<g>
</g>
<g>
</g>
<g>
</g>
<g>
</g>
<g>
</g>
<g>
</g>
<g>
</g>
<g>
</g>
<g>
</g>
<g>
</g>
<g>
</g>
<g>
</g>
</svg>
