<?xml version="1.0" encoding="iso-8859-1"?>
<!-- Generator: Adobe Illustrator 19.0.0, SVG Export Plug-In . SVG Version: 6.00 Build 0)  -->
<svg version="1.1" id="Layer_1" xmlns="http://www.w3.org/2000/svg" xmlns:xlink="http://www.w3.org/1999/xlink" x="0px" y="0px"
	 viewBox="0 0 503.607 503.607" style="enable-background:new 0 0 503.607 503.607;" xml:space="preserve">
<g>
	<g>
		<g>
			<path d="M495.213,386.097H318.951c-4.633,0-8.393,3.752-8.393,8.393v8.393H193.049v-8.393c0-4.642-3.76-8.393-8.393-8.393H8.393
				C3.76,386.097,0,389.849,0,394.49v25.18c0,13.883,11.298,25.18,25.18,25.18h453.246c13.883,0,25.18-11.298,25.18-25.18v-25.18
				C503.607,389.849,499.846,386.097,495.213,386.097z"/>
			<path d="M251.803,260.195c-9.258,0-16.787,7.529-16.787,16.787c0,9.258,7.529,16.787,16.787,16.787
				c9.258,0,16.787-7.529,16.787-16.787C268.59,267.724,261.061,260.195,251.803,260.195z"/>
			<path d="M41.966,360.92h134.295v8.393c0,4.633,3.76,8.393,8.393,8.393H318.95c4.633,0,8.393-3.76,8.393-8.393v-8.393h134.295
				c4.633,0,8.393-3.76,8.393-8.393V83.936c0-13.891-11.298-25.18-25.18-25.18H58.753c-13.883,0-25.18,11.289-25.18,25.18v268.59
				C33.573,357.159,37.333,360.92,41.966,360.92z M251.802,310.559c-18.516,0-33.574-15.058-33.574-33.574
				c0-18.516,15.058-33.574,33.574-33.574c18.516,0,33.574,15.058,33.574,33.574C285.376,295.501,270.318,310.559,251.802,310.559z
				 M305.218,235.429c-1.637,1.645-3.785,2.459-5.934,2.459c-2.149,0-4.297-0.814-5.934-2.459
				c-22.914-22.897-60.181-22.897-83.095,0c-3.273,3.282-8.587,3.282-11.868,0c-3.273-3.273-3.273-8.586,0-11.868
				c29.453-29.453,77.379-29.453,106.832,0C308.492,226.843,308.492,232.156,305.218,235.429z M334.889,205.759
				c-1.637,1.645-3.785,2.459-5.934,2.459c-2.14,0-4.289-0.814-5.934-2.459c-18.986-18.986-44.284-29.453-71.218-29.453
				c-26.935,0-52.232,10.467-71.218,29.453c-3.282,3.282-8.595,3.282-11.868,0c-3.282-3.273-3.282-8.587,0-11.868
				c22.159-22.159,51.662-34.371,83.087-34.371s60.928,12.212,83.087,34.371C338.171,197.172,338.171,202.485,334.889,205.759z
				 M139.037,164.219c30.074-30.074,70.119-46.642,112.766-46.642c42.647,0,82.692,16.569,112.766,46.642
				c3.282,3.282,3.282,8.586,0,11.868c-1.637,1.637-3.785,2.459-5.934,2.459c-2.149,0-4.297-0.823-5.934-2.459
				c-26.909-26.901-62.741-41.724-100.898-41.724c-38.157,0-73.988,14.823-100.898,41.724c-3.282,3.282-8.587,3.282-11.868,0
				C135.755,172.806,135.755,167.501,139.037,164.219z"/>
		</g>
	</g>
</g>
<g>
</g>
<g>
</g>
<g>
</g>
<g>
</g>
<g>
</g>
<g>
</g>
<g>
</g>
<g>
</g>
<g>
</g>
<g>
</g>
<g>
</g>
<g>
</g>
<g>
</g>
<g>
</g>
<g>
</g>
</svg>
