<?xml version="1.0" encoding="iso-8859-1"?>
<!-- Generator: Adobe Illustrator 19.0.0, SVG Export Plug-In . SVG Version: 6.00 Build 0)  -->
<svg version="1.1" id="Layer_1" xmlns="http://www.w3.org/2000/svg" xmlns:xlink="http://www.w3.org/1999/xlink" x="0px" y="0px"
	 viewBox="0 0 512 512" style="enable-background:new 0 0 512 512;" xml:space="preserve">
<g>
	<g>
		<g>
			<path d="M473.576,273.067h-68.267c-4.719,0-8.533,3.814-8.533,8.533v68.267h-68.267V281.6c0-4.719-3.814-8.533-8.533-8.533
				h-3.721l19.686-39.373c25.207-50.423,22.571-109.15-7.066-157.107S247.895,0,191.515,0C135.144,0,83.79,28.621,54.162,76.587
				c-29.645,47.949-32.29,106.684-7.074,157.107l136.798,273.587c1.451,2.893,4.395,4.719,7.629,4.719s6.187-1.826,7.637-4.719
				l44.023-88.047v84.232c0,4.719,3.814,8.533,8.533,8.533h68.267c4.719,0,8.533-3.814,8.533-8.533V435.2h68.267v68.267
				c0,4.719,3.814,8.533,8.533,8.533h68.267c4.719,0,8.533-3.814,8.533-8.533V281.6
				C482.109,276.881,478.295,273.067,473.576,273.067z M191.515,256c-51.755,0-93.867-42.112-93.867-93.867
				c0-51.755,42.112-93.867,93.867-93.867c51.763,0,93.867,42.112,93.867,93.867C285.382,213.888,243.278,256,191.515,256z
				 M465.042,494.933h-51.2v-68.267c0-4.719-3.814-8.533-8.533-8.533h-85.333c-4.719,0-8.533,3.814-8.533,8.533v68.267h-51.2
				V383.087v-92.954h42.206h8.994V358.4c0,4.719,3.814,8.533,8.533,8.533h85.333c4.719,0,8.533-3.814,8.533-8.533v-68.267h51.2
				V494.933z"/>
			<path d="M191.517,85.333c-42.351,0-76.8,34.449-76.8,76.8c0,42.351,34.449,76.8,76.8,76.8s76.8-34.449,76.8-76.8
				C268.317,119.782,233.868,85.333,191.517,85.333z M191.517,119.467c-23.526,0-42.667,19.14-42.667,42.667
				c0,4.719-3.814,8.533-8.533,8.533s-8.533-3.814-8.533-8.533c0-32.93,26.803-59.733,59.733-59.733
				c4.719,0,8.533,3.814,8.533,8.533S196.236,119.467,191.517,119.467z"/>
		</g>
	</g>
</g>
<g>
</g>
<g>
</g>
<g>
</g>
<g>
</g>
<g>
</g>
<g>
</g>
<g>
</g>
<g>
</g>
<g>
</g>
<g>
</g>
<g>
</g>
<g>
</g>
<g>
</g>
<g>
</g>
<g>
</g>
</svg>
