<?xml version="1.0" encoding="iso-8859-1"?>
<!-- Generator: Adobe Illustrator 19.0.0, SVG Export Plug-In . SVG Version: 6.00 Build 0)  -->
<svg version="1.1" id="Layer_1" xmlns="http://www.w3.org/2000/svg" xmlns:xlink="http://www.w3.org/1999/xlink" x="0px" y="0px"
	 viewBox="0 0 512 512" style="enable-background:new 0 0 512 512;" xml:space="preserve">
<g>
	<g>
		<path d="M486.4,443.733h-25.6V179.2c0-61.167-49.766-110.933-110.933-110.933h-25.6V51.234c0-9.429-7.671-17.101-17.101-17.101
			h-17.033C290.133,15.309,274.816,0,256,0c-18.825,0-34.133,15.309-34.133,34.133h-17.033c-9.429,0-17.101,7.671-17.101,17.101
			v17.033h-25.6C100.958,68.267,51.2,118.033,51.2,179.2v264.533H25.6c-4.719,0-8.533,3.823-8.533,8.533
			c0,4.71,3.814,8.533,8.533,8.533h34.133h13.278c-2.935,5.043-4.745,10.82-4.745,17.067C68.267,496.691,83.575,512,102.4,512
			c18.816,0,34.133-15.309,34.133-34.133c0-6.246-1.809-12.023-4.753-17.067H256h124.211c-2.935,5.043-4.745,10.82-4.745,17.067
			c0,18.825,15.309,34.133,34.133,34.133c18.816,0,34.133-15.309,34.133-34.133c0-6.246-1.809-12.023-4.753-17.067h13.286H486.4
			c4.71,0,8.533-3.823,8.533-8.533C494.933,447.556,491.11,443.733,486.4,443.733z M256,17.067c9.412,0,17.067,7.654,17.067,17.067
			h-34.133C238.933,24.721,246.588,17.067,256,17.067z M204.834,51.2L307.2,51.234v17.033H204.809L204.834,51.2z M443.733,443.733
			h-25.6V358.4H384v8.533c0,4.71-3.823,8.533-8.533,8.533c-4.719,0-8.533-3.823-8.533-8.533V358.4h-102.4v-17.067h153.6v-25.6
			c0-14.114-11.486-25.6-25.6-25.6h-14.737c14.225-12.518,23.27-30.805,23.27-51.2c0-37.641-30.626-68.267-68.267-68.267
			c-37.649,0-68.267,30.626-68.267,68.267c0,20.395,9.037,38.682,23.262,51.2h-14.729c-3.012,0-5.854,0.614-8.533,1.57v-18.637
			c0-4.71-3.823-8.533-8.533-8.533h-17.067V204.8c0-4.71-3.823-8.533-8.533-8.533h-9.395c-3.968-19.447-21.205-34.133-41.805-34.133
			c-20.608,0-37.845,14.686-41.805,34.133H128c-4.719,0-8.533,3.823-8.533,8.533v59.733H102.4c-4.719,0-8.533,3.823-8.533,8.533
			v93.867h153.6V384h-102.4v8.533c0,4.71-3.823,8.533-8.533,8.533c-4.719,0-8.533-3.823-8.533-8.533V384H93.867v59.733h-25.6V179.2
			c0-51.755,42.103-93.867,93.867-93.867h34.133h119.467h34.133c51.755,0,93.867,42.112,93.867,93.867V443.733z M281.6,238.933
			c0-28.237,22.963-51.2,51.2-51.2c28.228,0,51.2,22.963,51.2,51.2s-22.972,51.2-51.2,51.2
			C304.563,290.133,281.6,267.17,281.6,238.933z M213.333,213.333h8.533v51.2h-85.333v-51.2h8.533H213.333z M155.059,196.267
			c3.524-9.933,13.013-17.067,24.141-17.067c11.119,0,20.617,7.134,24.132,17.067H155.059z"/>
	</g>
</g>
<g>
</g>
<g>
</g>
<g>
</g>
<g>
</g>
<g>
</g>
<g>
</g>
<g>
</g>
<g>
</g>
<g>
</g>
<g>
</g>
<g>
</g>
<g>
</g>
<g>
</g>
<g>
</g>
<g>
</g>
</svg>
