<?xml version="1.0" encoding="iso-8859-1"?>
<!-- Generator: Adobe Illustrator 19.0.0, SVG Export Plug-In . SVG Version: 6.00 Build 0)  -->
<svg version="1.1" id="Layer_1" xmlns="http://www.w3.org/2000/svg" xmlns:xlink="http://www.w3.org/1999/xlink" x="0px" y="0px"
	 viewBox="0 0 512 512" style="enable-background:new 0 0 512 512;" xml:space="preserve">
<g>
	<g>
		<g>
			<path d="M486.4,443.733h-25.6V179.2c0-61.167-49.766-110.933-110.933-110.933h-25.6V51.234c0-9.429-7.671-17.101-17.101-17.101
				h-17.033C290.133,15.309,274.825,0,256,0s-34.133,15.309-34.133,34.133h-17.033c-9.421,0-17.101,7.671-17.101,17.101v17.033
				h-25.6C100.966,68.267,51.2,118.033,51.2,179.2v264.533H25.6c-4.71,0-8.533,3.823-8.533,8.533c0,4.71,3.823,8.533,8.533,8.533
				h34.133H73.02c-2.944,5.043-4.753,10.82-4.753,17.067C68.267,496.691,83.575,512,102.4,512c18.825,0,34.133-15.309,34.133-34.133
				c0-6.246-1.809-12.023-4.745-17.067h13.278h17.067h187.733h17.067h13.286c-2.944,5.043-4.753,10.82-4.753,17.067
				c0,18.825,15.309,34.133,34.133,34.133c18.825,0,34.133-15.309,34.133-34.133c0-6.246-1.809-12.023-4.745-17.067h13.278H486.4
				c4.719,0,8.533-3.823,8.533-8.533C494.933,447.556,491.119,443.733,486.4,443.733z M256,17.067
				c9.412,0,17.067,7.654,17.067,17.067h-34.133C238.933,24.721,246.596,17.067,256,17.067z M204.834,51.2L307.2,51.234v17.033
				H204.809L204.834,51.2z M298.667,273.067h-85.333V247.45c0-4.693,3.823-8.516,8.516-8.516h68.301
				c4.702,0,8.516,3.823,8.516,8.516V273.067z M443.733,443.733H408.03c0.956-2.679,1.57-5.53,1.57-8.533v-17.067h-8.533
				c-15.855,0-29.107,10.923-32.922,25.6h-17.502c4.079-24.175,25.105-42.667,50.424-42.667h8.533V332.8h-8.533
				c-28.228,0-51.2-22.963-51.2-51.2v-8.533h-34.133V247.45c0-14.106-11.469-25.583-25.583-25.583H221.85
				c-14.106,0-25.583,11.477-25.583,25.583v25.617h-34.133v8.533c0,28.237-22.963,51.2-51.2,51.2H102.4v68.267h8.533
				c25.318,0,46.353,18.492,50.432,42.667h-17.51c-3.814-14.677-17.058-25.6-32.922-25.6H102.4V435.2
				c0,3.004,0.623,5.854,1.579,8.533H68.267V179.2c0-51.755,42.112-93.867,93.867-93.867h34.133h119.467h34.133
				c51.763,0,93.867,42.112,93.867,93.867V443.733z"/>
			<path d="M384.003,273.067h-17.067v8.533c0,18.825,15.309,34.133,34.133,34.133h8.533v-17.067
				C409.603,284.553,398.117,273.067,384.003,273.067z"/>
			<path d="M102.403,298.667v17.067h8.533c18.825,0,34.133-15.309,34.133-34.133v-8.533h-17.067
				C113.888,273.067,102.403,284.553,102.403,298.667z"/>
		</g>
	</g>
</g>
<g>
</g>
<g>
</g>
<g>
</g>
<g>
</g>
<g>
</g>
<g>
</g>
<g>
</g>
<g>
</g>
<g>
</g>
<g>
</g>
<g>
</g>
<g>
</g>
<g>
</g>
<g>
</g>
<g>
</g>
</svg>
