<?xml version="1.0" encoding="iso-8859-1"?>
<!-- Generator: Adobe Illustrator 19.0.0, SVG Export Plug-In . SVG Version: 6.00 Build 0)  -->
<svg version="1.1" id="Layer_1" xmlns="http://www.w3.org/2000/svg" xmlns:xlink="http://www.w3.org/1999/xlink" x="0px" y="0px"
	 viewBox="0 0 512 512" style="enable-background:new 0 0 512 512;" xml:space="preserve">
<g>
	<g>
		<g>
			<path d="M486.4,443.733h-25.6V179.2c0-61.167-49.766-110.933-110.933-110.933h-25.6V51.234c0-9.429-7.672-17.101-17.101-17.101
				h-17.032C290.133,15.309,274.816,0,256,0c-18.825,0-34.133,15.309-34.133,34.133h-17.033c-9.429,0-17.101,7.671-17.101,17.101
				v17.033h-25.6C100.958,68.267,51.2,118.033,51.2,179.2v264.533H25.6c-4.719,0-8.533,3.823-8.533,8.533
				c0,4.71,3.814,8.533,8.533,8.533h34.133h13.278c-2.935,5.043-4.745,10.82-4.745,17.067C68.267,496.691,83.575,512,102.4,512
				c18.816,0,34.133-15.309,34.133-34.133c0-6.246-1.809-12.023-4.753-17.067h166.886h81.544c-2.935,5.043-4.745,10.82-4.745,17.067
				c0,18.825,15.309,34.133,34.133,34.133c18.816,0,34.133-15.309,34.133-34.133c0-6.246-1.809-12.023-4.753-17.067h13.286H486.4
				c4.71,0,8.533-3.823,8.533-8.533C494.933,447.556,491.11,443.733,486.4,443.733z M256,17.067c9.412,0,17.067,7.654,17.067,17.067
				h-34.133C238.933,24.721,246.588,17.067,256,17.067z M204.834,51.2L307.2,51.234v17.033H204.809L204.834,51.2z M290.133,443.733
				H102.4V332.8h9.165H230.4h34.133h25.6V443.733z M196.267,213.333h1.997l-15.368,25.6H158.43l-15.36-25.6h1.997H196.267z
				 M153.6,196.267v-20.198c0-2.978,2.415-5.402,5.402-5.402h23.33c2.978,0,5.402,2.423,5.402,5.402v20.198H153.6z M392.533,281.6
				c0,4.71-3.823,8.533-8.533,8.533h-85.333c-4.719,0-8.533-3.823-8.533-8.533v-34.133c0-4.71,3.814-8.533,8.533-8.533H384
				c4.71,0,8.533,3.823,8.533,8.533V281.6z M443.733,443.733h-21.436c2.697-4.796,4.369-10.249,4.369-16.137V238.933
				c0-18.825-15.317-34.133-34.133-34.133H384v-68.267h8.533c4.71,0,8.533-3.823,8.533-8.533s-3.823-8.533-8.533-8.533h-17.067
				H307.2h-17.067c-4.719,0-8.533,3.823-8.533,8.533s3.814,8.533,8.533,8.533h8.533V204.8h-9.464
				c-18.313,0-33.203,14.899-33.203,33.203v77.73h-18.202l-16.026-112.145c-0.009-0.111-0.085-0.205-0.102-0.316
				c-0.154-0.828-0.401-1.63-0.802-2.389c-0.034-0.077-0.051-0.171-0.094-0.247c-0.009-0.009-0.009-0.026-0.017-0.043
				c-0.444-0.785-1.033-1.442-1.673-2.039c-0.188-0.171-0.393-0.299-0.589-0.452c-0.538-0.418-1.101-0.759-1.715-1.033
				c-0.247-0.111-0.486-0.222-0.742-0.307c-0.862-0.29-1.766-0.495-2.705-0.495H204.8v-20.198c0-12.39-10.078-22.468-22.468-22.468
				h-23.33c-12.39,0-22.468,10.078-22.468,22.468v20.198H128c-0.947,0-1.852,0.205-2.722,0.495
				c-0.256,0.094-0.486,0.205-0.734,0.316c-0.623,0.273-1.195,0.614-1.732,1.033c-0.196,0.154-0.393,0.282-0.58,0.452
				c-0.64,0.589-1.22,1.254-1.655,2.031c-0.017,0.017-0.017,0.043-0.026,0.06c-0.06,0.102-0.077,0.222-0.128,0.324
				c-0.375,0.742-0.623,1.519-0.768,2.321c-0.017,0.119-0.094,0.213-0.111,0.341l-15.42,112.094H93.867
				c-4.719,0-8.533,3.823-8.533,8.533v119.467H68.267V179.2c0-51.755,42.103-93.867,93.867-93.867h34.133h119.467h34.133
				c51.755,0,93.867,42.112,93.867,93.867V443.733z"/>
			<rect x="307.194" y="256" width="68.267" height="17.067"/>
		</g>
	</g>
</g>
<g>
</g>
<g>
</g>
<g>
</g>
<g>
</g>
<g>
</g>
<g>
</g>
<g>
</g>
<g>
</g>
<g>
</g>
<g>
</g>
<g>
</g>
<g>
</g>
<g>
</g>
<g>
</g>
<g>
</g>
</svg>
