<?xml version="1.0" encoding="iso-8859-1"?>
<!-- Generator: Adobe Illustrator 19.0.0, SVG Export Plug-In . SVG Version: 6.00 Build 0)  -->
<svg version="1.1" id="Layer_1" xmlns="http://www.w3.org/2000/svg" xmlns:xlink="http://www.w3.org/1999/xlink" x="0px" y="0px"
	 viewBox="0 0 511.997 511.997" style="enable-background:new 0 0 511.997 511.997;" xml:space="preserve">
<g>
	<g>
		<g>
			<path d="M307.199,238.931v8.056h0.001c0,14.379-11.699,26.078-26.078,26.078h-49.536c-14.387,0-26.086-11.699-26.086-26.078
				v-8.055H128v170.667h42.667c4.719,0,8.533,3.823,8.533,8.533c0,4.71-3.814,8.533-8.533,8.533H128v17.067h42.667
				c4.719,0,8.533,3.823,8.533,8.533c0,4.71-3.814,8.533-8.533,8.533H128v8.533c0,14.114,11.486,25.6,25.6,25.6h25.6v8.533
				c0,4.71,3.814,8.533,8.533,8.533c4.719,0,8.533-3.823,8.533-8.533v-8.533h119.467v8.533c0,4.71,3.814,8.533,8.533,8.533
				s8.533-3.823,8.533-8.533v-8.533h25.6c14.114,0,25.6-11.486,25.6-25.6v-230.4H307.199z"/>
			<path d="M231.58,256h49.545c4.966,0,9.011-4.045,9.011-9.011v-8.055h-67.567v8.055C222.569,251.955,226.605,256,231.58,256z"/>
			<path d="M298.664,221.867h85.333v-25.6c-0.001-14.114-11.478-25.6-25.601-25.6h-17.067c0-4.71-3.814-8.533-8.533-8.533
				c-4.71,0-8.533,3.823-8.533,8.533h-17.067V49.63c9.916-3.533,17.067-12.919,17.067-24.03c0-14.114-11.477-25.6-25.6-25.6H213.33
				c-14.114,0-25.6,11.486-25.6,25.6c0,11.11,7.159,20.497,17.067,24.03v121.037H187.73c0-4.71-3.814-8.533-8.533-8.533
				c-4.71,0-8.533,3.823-8.533,8.533h-17.067c-14.114,0-25.6,11.486-25.6,25.6v25.6h86.033H298.664z M290.13,170.667h-68.267V51.2
				h68.267V170.667z M204.797,25.6c0-4.702,3.831-8.533,8.533-8.533h85.333c4.71,0,8.533,3.831,8.533,8.533
				c0,4.702-3.822,8.533-8.533,8.533H213.33C208.628,34.133,204.797,30.302,204.797,25.6z"/>
		</g>
	</g>
</g>
<g>
</g>
<g>
</g>
<g>
</g>
<g>
</g>
<g>
</g>
<g>
</g>
<g>
</g>
<g>
</g>
<g>
</g>
<g>
</g>
<g>
</g>
<g>
</g>
<g>
</g>
<g>
</g>
<g>
</g>
</svg>
