<?xml version="1.0" encoding="iso-8859-1"?>
<!-- Generator: Adobe Illustrator 19.0.0, SVG Export Plug-In . SVG Version: 6.00 Build 0)  -->
<svg version="1.1" id="Layer_1" xmlns="http://www.w3.org/2000/svg" xmlns:xlink="http://www.w3.org/1999/xlink" x="0px" y="0px"
	 viewBox="0 0 511.997 511.997" style="enable-background:new 0 0 511.997 511.997;" xml:space="preserve">
<g>
	<g>
		<path d="M392.533,290.133h-51.2c0-4.71-3.814-8.533-8.533-8.533c-4.71,0-8.533,3.823-8.533,8.533h-17.067V49.63
			c9.916-3.533,17.067-12.919,17.067-24.03c0-14.114-11.477-25.6-25.6-25.6h-85.333c-14.114,0-25.6,11.486-25.6,25.6
			c0,11.11,7.159,20.497,17.067,24.03v240.503h-17.067c0-4.71-3.814-8.533-8.533-8.533c-4.71,0-8.533,3.823-8.533,8.533h-51.2
			c-14.114,0-25.6,11.486-25.6,25.6v25.6h120.702h84.625h118.938v-25.6C418.132,301.619,406.655,290.133,392.533,290.133z
			 M290.132,290.133h-68.267V51.2h68.267V290.133z M298.665,34.133h-85.333c-4.702,0-8.533-3.831-8.533-8.533
			c0-4.702,3.831-8.533,8.533-8.533h85.333c4.71,0,8.533,3.831,8.533,8.533C307.199,30.302,303.376,34.133,298.665,34.133z"/>
	</g>
</g>
<g>
	<g>
		<path d="M307.728,358.398v8.056c0,14.379-11.699,26.078-26.078,26.078h-49.536c-14.379,0-26.078-11.699-26.078-26.078v-8.055
			H93.864v51.2h42.667c4.719,0,8.533,3.823,8.533,8.533c0,4.71-3.814,8.533-8.533,8.533H93.864v17.067h42.667
			c4.719,0,8.533,3.823,8.533,8.533c0,4.71-3.814,8.533-8.533,8.533H93.864v8.533c0,14.114,11.486,25.6,25.6,25.6h17.067v8.533
			c0,4.71,3.823,8.533,8.533,8.533c4.719,0,8.533-3.823,8.533-8.533v-8.533h204.8v8.533c0,4.71,3.823,8.533,8.533,8.533
			c4.719,0,8.533-3.823,8.533-8.533v-8.533h17.067c14.123,0,25.6-11.486,25.6-25.6V358.398H307.728z"/>
	</g>
</g>
<g>
	<g>
		<path d="M223.105,358.4v8.055c0,4.966,4.036,9.011,9.003,9.011h49.544v0.001c4.966,0,9.011-4.045,9.011-9.011V358.4H223.105z"/>
	</g>
</g>
<g>
</g>
<g>
</g>
<g>
</g>
<g>
</g>
<g>
</g>
<g>
</g>
<g>
</g>
<g>
</g>
<g>
</g>
<g>
</g>
<g>
</g>
<g>
</g>
<g>
</g>
<g>
</g>
<g>
</g>
</svg>
