<?xml version="1.0" encoding="iso-8859-1"?>
<!-- Generator: Adobe Illustrator 19.0.0, SVG Export Plug-In . SVG Version: 6.00 Build 0)  -->
<svg version="1.1" id="Layer_1" xmlns="http://www.w3.org/2000/svg" xmlns:xlink="http://www.w3.org/1999/xlink" x="0px" y="0px"
	 viewBox="0 0 512 512" style="enable-background:new 0 0 512 512;" xml:space="preserve">
<g>
	<g>
		<g>
			<path d="M486.4,443.733h-25.6V179.2c0-61.167-49.766-110.933-110.933-110.933h-25.6V51.234c0-9.429-7.671-17.101-17.101-17.101
				h-17.033C290.133,15.309,274.816,0,256,0c-18.825,0-34.133,15.309-34.133,34.133h-17.033c-9.429,0-17.101,7.671-17.101,17.101
				v17.033h-25.6C100.958,68.267,51.2,118.033,51.2,179.2v264.533H25.6c-4.719,0-8.533,3.823-8.533,8.533
				c0,4.71,3.814,8.533,8.533,8.533h34.133h13.278c-2.935,5.043-4.745,10.82-4.745,17.067C68.267,496.691,83.575,512,102.4,512
				c18.816,0,34.133-15.309,34.133-34.133c0-6.246-1.809-12.023-4.753-17.067h82.475h83.473h82.483
				c-2.935,5.043-4.745,10.82-4.745,17.067c0,18.825,15.309,34.133,34.133,34.133c18.825,0,34.133-15.309,34.133-34.133
				c0-6.246-1.809-12.023-4.753-17.067h13.286H486.4c4.71,0,8.533-3.823,8.533-8.533C494.933,447.556,491.11,443.733,486.4,443.733z
				 M256,17.067c9.412,0,17.067,7.654,17.067,17.067h-34.133C238.933,24.721,246.588,17.067,256,17.067z M204.834,51.2L307.2,51.234
				v17.033H204.809L204.834,51.2z M213.333,281.6c0,4.71-3.823,8.533-8.533,8.533H128c-4.719,0-8.533-3.823-8.533-8.533v-34.133
				c0-4.71,3.814-8.533,8.533-8.533h76.8c4.71,0,8.533,3.823,8.533,8.533V281.6z M392.533,349.867c0,4.71-3.823,8.533-8.533,8.533
				h-76.8c-4.719,0-8.533-3.823-8.533-8.533v-34.133c0-4.71,3.814-8.533,8.533-8.533H384c4.71,0,8.533,3.823,8.533,8.533V349.867z
				 M443.733,443.733h-21.436c2.697-4.796,4.369-10.249,4.369-16.137V307.2c0-18.825-15.309-34.133-34.133-34.133H384V204.8h8.533
				c4.71,0,8.533-3.823,8.533-8.533s-3.823-8.533-8.533-8.533h-17.067H307.2h-17.067c-4.719,0-8.533,3.823-8.533,8.533
				s3.814,8.533,8.533,8.533h8.533v68.267h-0.93c-18.313,0-33.203,14.899-33.203,33.203v121.335c0,5.879,1.664,11.332,4.361,16.128
				h-25.796c2.697-4.796,4.369-10.249,4.369-16.137V238.933c0-18.825-15.317-34.133-34.133-34.133H204.8v-68.267h8.533
				c4.71,0,8.533-3.823,8.533-8.533s-3.823-8.533-8.533-8.533h-17.067H128h-17.067c-4.719,0-8.533,3.823-8.533,8.533
				s3.814,8.533,8.533,8.533h8.533V204.8h-0.93c-18.313,0-33.203,14.899-33.203,33.203v189.602c0,5.879,1.664,11.332,4.361,16.128
				H68.267V179.2c0-51.755,42.103-93.867,93.867-93.867h34.133h119.467h34.133c51.755,0,93.867,42.112,93.867,93.867V443.733z"/>
			<rect x="315.727" y="324.267" width="59.733" height="17.067"/>
			<rect x="136.527" y="256" width="59.733" height="17.067"/>
		</g>
	</g>
</g>
<g>
</g>
<g>
</g>
<g>
</g>
<g>
</g>
<g>
</g>
<g>
</g>
<g>
</g>
<g>
</g>
<g>
</g>
<g>
</g>
<g>
</g>
<g>
</g>
<g>
</g>
<g>
</g>
<g>
</g>
</svg>
