<?xml version="1.0" encoding="iso-8859-1"?>
<!-- Generator: Adobe Illustrator 19.0.0, SVG Export Plug-In . SVG Version: 6.00 Build 0)  -->
<svg version="1.1" id="Layer_1" xmlns="http://www.w3.org/2000/svg" xmlns:xlink="http://www.w3.org/1999/xlink" x="0px" y="0px"
	 viewBox="0 0 511.998 511.998" style="enable-background:new 0 0 511.998 511.998;" xml:space="preserve">
<g>
	<g>
		<g>
			<path d="M265.145,207.963l-9.139-22.861l-9.148,22.861c-1.297,3.243-4.437,5.367-7.919,5.367h-26.803l23.586,18.799
				c2.799,2.236,3.908,5.973,2.773,9.378l-7.953,23.876l20.139-16.06c1.562-1.246,3.439-1.86,5.325-1.86
				c1.877,0,3.763,0.614,5.316,1.86l20.147,16.06l-7.962-23.876c-1.135-3.405-0.026-7.142,2.773-9.378l23.595-18.799h-26.803
				C269.582,213.33,266.442,211.205,265.145,207.963z"/>
			<path d="M366.932,85.331h-34.133v-76.8c0-2.927-1.493-5.649-3.977-7.219c-2.466-1.562-5.581-1.732-8.218-0.495l-179.2,85.333
				c-1.877,0.896-3.268,2.423-4.079,4.215c-0.128,0.282-0.171,0.597-0.265,0.896c-0.23,0.7-0.401,1.408-0.435,2.167
				c-0.009,0.145-0.094,0.282-0.094,0.435v409.6c0,4.719,3.823,8.533,8.533,8.533h221.867c4.719,0,8.533-3.814,8.533-8.533v-409.6
				C375.466,89.145,371.651,85.331,366.932,85.331z M315.732,22.048v63.283H182.834L315.732,22.048z M315.732,460.798H196.266
				c-4.71,0-8.533-3.814-8.533-8.533c0-4.719,3.823-8.533,8.533-8.533h119.467c4.719,0,8.533,3.814,8.533,8.533
				C324.266,456.983,320.451,460.798,315.732,460.798z M221.866,418.131c0-4.719,3.823-8.533,8.533-8.533h51.2
				c4.719,0,8.533,3.814,8.533,8.533s-3.814,8.533-8.533,8.533h-51.2C225.688,426.664,221.866,422.85,221.866,418.131z
				 M329.59,211.471l-38.008,30.293l15.181,45.542c1.195,3.584-0.111,7.535-3.209,9.685c-1.468,1.041-3.174,1.545-4.89,1.545
				c-1.877,0-3.763-0.623-5.316-1.86l-37.35-29.773l-37.342,29.773c-2.97,2.355-7.117,2.483-10.206,0.316
				c-3.098-2.15-4.403-6.101-3.209-9.685l15.181-45.542l-38.008-30.293c-2.833-2.27-3.934-6.067-2.731-9.489
				c1.195-3.43,4.429-5.717,8.047-5.717h45.423l14.925-37.299c1.297-3.243,4.437-5.367,7.919-5.367c3.49,0,6.63,2.125,7.928,5.367
				l14.925,37.299h45.414c3.627,0,6.861,2.287,8.055,5.717C333.524,205.404,332.423,209.201,329.59,211.471z"/>
		</g>
	</g>
</g>
<g>
</g>
<g>
</g>
<g>
</g>
<g>
</g>
<g>
</g>
<g>
</g>
<g>
</g>
<g>
</g>
<g>
</g>
<g>
</g>
<g>
</g>
<g>
</g>
<g>
</g>
<g>
</g>
<g>
</g>
</svg>
