<?xml version="1.0" encoding="iso-8859-1"?>
<!-- Generator: Adobe Illustrator 19.0.0, SVG Export Plug-In . SVG Version: 6.00 Build 0)  -->
<svg version="1.1" id="Layer_1" xmlns="http://www.w3.org/2000/svg" xmlns:xlink="http://www.w3.org/1999/xlink" x="0px" y="0px"
	 viewBox="0 0 511.994 511.994" style="enable-background:new 0 0 511.994 511.994;" xml:space="preserve">
<g>
	<g>
		<g>
			<rect x="230.393" y="264.527" width="51.2" height="34.133"/>
			<rect x="230.393" y="315.727" width="51.2" height="42.667"/>
			<path d="M276.659,206.869c-5.402-3.021-12.126-6.784-12.126-14.157v-39.117h-17.067v39.134c0,7.364-6.724,11.119-12.126,14.14
				c-1.237,0.691-2.423,1.289-3.166,1.886c-1.075,1.092-1.775,2.782-1.775,4.574v34.133h51.2v-34.15c0-1.758-0.717-3.49-1.963-4.736
				C279.091,208.157,277.897,207.56,276.659,206.869z"/>
			<path d="M366.93,85.327h-34.133v-76.8c0-2.927-1.502-5.649-3.977-7.219c-2.466-1.553-5.581-1.732-8.226-0.486l-179.2,85.333
				c-1.877,0.896-3.268,2.415-4.079,4.207c-0.128,0.282-0.162,0.597-0.256,0.896c-0.23,0.7-0.401,1.417-0.444,2.167
				c-0.009,0.154-0.085,0.282-0.085,0.435v409.6c0,4.719,3.823,8.533,8.533,8.533H366.93c4.71,0,8.533-3.814,8.533-8.533V93.86
				C375.463,89.141,371.641,85.327,366.93,85.327z M315.73,22.044v63.283H182.832L315.73,22.044z M281.597,375.46h-51.2
				c-9.412,0-17.067-7.654-17.067-17.067v-51.2v-51.2v-42.667c0-6.349,2.475-12.322,6.963-16.828
				c1.775-1.766,4.181-3.115,6.724-4.531c0.964-0.538,2.347-1.314,3.379-1.971v-36.403c0-9.412,7.654-17.067,17.067-17.067h17.067
				c9.412,0,17.067,7.654,17.067,17.067v36.403c1.032,0.657,2.432,1.442,3.388,1.98c2.551,1.417,4.949,2.756,6.724,4.531
				c4.48,4.497,6.955,10.462,6.955,16.802v42.684v51.2v51.2C298.663,367.806,291.009,375.46,281.597,375.46z M290.13,418.127
				c0,4.719-3.823,8.533-8.533,8.533h-51.2c-4.71,0-8.533-3.814-8.533-8.533s3.823-8.533,8.533-8.533h51.2
				C286.307,409.594,290.13,413.408,290.13,418.127z M315.73,460.794H196.263c-4.71,0-8.533-3.814-8.533-8.533
				c0-4.719,3.823-8.533,8.533-8.533H315.73c4.71,0,8.533,3.814,8.533,8.533C324.263,456.979,320.44,460.794,315.73,460.794z"/>
		</g>
	</g>
</g>
<g>
</g>
<g>
</g>
<g>
</g>
<g>
</g>
<g>
</g>
<g>
</g>
<g>
</g>
<g>
</g>
<g>
</g>
<g>
</g>
<g>
</g>
<g>
</g>
<g>
</g>
<g>
</g>
<g>
</g>
</svg>
