<?xml version="1.0" encoding="iso-8859-1"?>
<!-- Generator: Adobe Illustrator 19.0.0, SVG Export Plug-In . SVG Version: 6.00 Build 0)  -->
<svg version="1.1" id="Layer_1" xmlns="http://www.w3.org/2000/svg" xmlns:xlink="http://www.w3.org/1999/xlink" x="0px" y="0px"
	 viewBox="0 0 511.997 511.997" style="enable-background:new 0 0 511.997 511.997;" xml:space="preserve">
<g>
	<g>
		<g>
			<path d="M228.995,194.024l-26.172-3.277l36.105,36.122v-21.598C238.928,199.562,234.661,194.732,228.995,194.024z"/>
			<path d="M375.465,85.33h-42.667V8.53c0-2.901-1.476-5.598-3.917-7.177c-2.44-1.562-5.513-1.792-8.158-0.589L133.212,86.005
				h-0.009l-0.213,0.094c-0.93,0.427-1.749,1.007-2.449,1.698c-0.128,0.128-0.205,0.307-0.324,0.444
				c-0.563,0.631-1.05,1.314-1.408,2.082c-0.137,0.307-0.188,0.649-0.299,0.973c-0.213,0.683-0.375,1.365-0.418,2.091
				c-0.009,0.171-0.094,0.307-0.094,0.478v409.6c0,4.719,3.814,8.533,8.533,8.533h238.933c4.71,0,8.533-3.814,8.533-8.533v-409.6
				C383.999,89.145,380.176,85.33,375.465,85.33z M315.732,21.783V85.33h-139.81L315.732,21.783z M324.265,460.797H187.732
				c-4.719,0-8.533-3.814-8.533-8.533c0-4.719,3.814-8.533,8.533-8.533h136.533c4.71,0,8.533,3.814,8.533,8.533
				C332.799,456.983,328.976,460.797,324.265,460.797z M213.332,418.13c0-4.719,3.814-8.533,8.533-8.533h68.267
				c4.71,0,8.533,3.814,8.533,8.533s-3.823,8.533-8.533,8.533h-68.267C217.146,426.664,213.332,422.849,213.332,418.13z
				 M347.57,202.391l-17.596,17.954c-4.787,4.89-11.204,7.603-18.057,7.637h-0.128c-4.429,0-8.627-1.229-12.382-3.337
				l-31.343,31.351l53.7,53.7c3.328,3.336,3.328,8.738,0,12.066c-1.673,1.673-3.857,2.5-6.033,2.5c-2.185,0-4.369-0.828-6.033-2.5
				l-53.7-53.7l-53.7,53.7c-1.673,1.673-3.857,2.5-6.033,2.5c-2.185,0-4.369-0.828-6.033-2.5c-3.337-3.328-3.337-8.73,0-12.066
				l53.692-53.7l-2.492-2.5l-17.067-17.067l-51.2-51.2c-2.577-2.577-3.234-6.502-1.638-9.779c1.604-3.268,5.077-5.154,8.73-4.719
				l50.859,6.357c14.182,1.766,24.883,13.884,24.883,28.186v38.656l31.189-31.198c-5.743-9.557-4.745-21.948,3.268-30.464
				l19.507-17.894c3.482-3.183,8.875-2.944,12.058,0.521c3.183,3.49,2.953,8.875-0.529,12.066l-19.055,17.442
				c-2.688,2.884-2.611,8.03,0.623,11.264l2.79,2.79c1.587,1.579,3.695,2.458,5.939,2.458h0.043
				c2.261-0.017,4.378-0.905,5.965-2.526l17.587-17.946c3.294-3.371,8.695-3.43,12.066-0.12
				C350.821,193.627,350.872,199.02,347.57,202.391z"/>
		</g>
	</g>
</g>
<g>
</g>
<g>
</g>
<g>
</g>
<g>
</g>
<g>
</g>
<g>
</g>
<g>
</g>
<g>
</g>
<g>
</g>
<g>
</g>
<g>
</g>
<g>
</g>
<g>
</g>
<g>
</g>
<g>
</g>
</svg>
