<?xml version="1.0" encoding="iso-8859-1"?>
<!-- Generator: Adobe Illustrator 19.0.0, SVG Export Plug-In . SVG Version: 6.00 Build 0)  -->
<svg version="1.1" id="Layer_1" xmlns="http://www.w3.org/2000/svg" xmlns:xlink="http://www.w3.org/1999/xlink" x="0px" y="0px"
	 viewBox="0 0 511.997 511.997" style="enable-background:new 0 0 511.997 511.997;" xml:space="preserve">
<g>
	<g>
		<g>
			<path d="M302.565,225.183c-3.157-1.775-4.847-5.342-4.215-8.917c0.162-0.981,0.316-1.971,0.316-2.995
				c0-7.962-5.436-14.771-13.218-16.58c-2.697-0.631-4.932-2.534-5.973-5.112c-1.041-2.577-0.768-5.504,0.742-7.834
				c0.905-1.399,1.382-2.995,1.382-4.608c-0.316-0.435-2.398-1.57-3.772-2.321c-3.763-2.048-8.909-4.847-12.16-10.487
				c-7.919-13.773-12.757-18.697-14.993-20.429c-2.338,5.154-3.831,19.533-3.217,32.836c0.111,2.338-0.742,4.608-2.347,6.289
				c-1.621,1.69-3.849,2.645-6.178,2.645c-4.71,0-8.533,3.823-8.533,8.533c0,1.502,0.435,2.978,1.271,4.386
				c1.673,2.765,1.63,6.229-0.094,8.96c-1.732,2.731-4.89,4.19-8.064,3.925c-0.094-0.009-1.016-0.119-1.118-0.128h-0.137
				c-9.873,0-17.459,7.62-17.459,16.99c0,4.198,1.613,8.277,4.54,11.477c2.185,2.372,2.842,5.777,1.69,8.798
				c-1.135,3.012-3.891,5.129-7.1,5.461c-4.369,0.435-7.663,4.053-7.663,8.397c0,4.71,3.823,8.533,8.533,8.533h85.333
				c14.114,0,25.6-11.486,25.6-25.6C315.732,238.273,310.689,229.766,302.565,225.183z M230.399,247.395
				c-4.71,0-8.533-3.814-8.533-8.533c0-4.71,3.823-8.533,8.533-8.533c4.71,0,8.533,3.823,8.533,8.533
				C238.932,243.581,235.109,247.395,230.399,247.395z M249.965,198.704c3.337-3.337,8.73-3.337,12.066,0l8.533,8.533
				c3.337,3.337,3.337,8.73,0,12.066c-1.664,1.664-3.849,2.5-6.033,2.5c-2.185,0-4.369-0.836-6.033-2.5l-8.533-8.533
				C246.629,207.434,246.629,202.041,249.965,198.704z M279.098,261.97c-1.664,1.664-3.849,2.5-6.033,2.5
				c-2.185,0-4.369-0.836-6.033-2.5l-8.533-8.533c-3.336-3.337-3.336-8.73,0-12.066c3.337-3.337,8.73-3.337,12.066,0l8.533,8.533
				C282.435,253.241,282.435,258.634,279.098,261.97z"/>
			<path d="M204.799,290.071h-6.656l12.279,61.397c0.794,3.985,4.309,6.869,8.371,6.869h74.411c4.062,0,7.578-2.884,8.371-6.861
				l12.279-61.406h-23.723H204.799z"/>
			<path d="M366.932,85.33h-34.133V8.53c0-2.927-1.502-5.649-3.977-7.219c-2.483-1.553-5.589-1.741-8.226-0.486l-179.2,85.333
				c-0.879,0.418-1.647,0.981-2.313,1.63c-0.017,0.026-0.043,0.043-0.068,0.06c-0.717,0.725-1.271,1.587-1.69,2.509
				c-0.137,0.299-0.171,0.623-0.273,0.939c-0.222,0.691-0.393,1.382-0.427,2.125c-0.009,0.154-0.094,0.282-0.094,0.444v409.6
				c0,4.719,3.814,8.533,8.533,8.533h221.867c4.719,0,8.533-3.814,8.533-8.533v-409.6C375.465,89.145,371.651,85.33,366.932,85.33z
				 M315.732,22.047V85.33H182.834L315.732,22.047z M315.732,460.797H196.265c-4.719,0-8.533-3.814-8.533-8.533
				c0-4.719,3.814-8.533,8.533-8.533h119.467c4.719,0,8.533,3.814,8.533,8.533C324.265,456.983,320.451,460.797,315.732,460.797z
				 M221.865,418.13c0-4.719,3.814-8.533,8.533-8.533h51.2c4.719,0,8.533,3.814,8.533,8.533s-3.814,8.533-8.533,8.533h-51.2
				C225.68,426.664,221.865,422.849,221.865,418.13z M332.798,290.071h-1.536l-12.954,64.751
				c-2.381,11.921-12.937,20.582-25.105,20.582h-74.411c-12.169,0-22.724-8.661-25.105-20.591l-12.954-64.742h-1.536
				c-4.719,0-8.533-3.814-8.533-8.533s3.814-8.533,8.533-8.533h1.57c-0.956-2.68-1.57-5.53-1.57-8.533
				c0-8.73,4.378-16.486,11.17-21.094c-1.732-4.105-2.637-8.533-2.637-13.039c0-15.881,10.906-29.269,25.626-33.058
				c-0.017-0.358-0.026-0.717-0.026-1.075c0-11.051,7.04-20.489,16.879-24.064c-0.102-17.109,2.364-39.714,15.607-43.588
				c13.414-3.874,25.045,12.587,34.645,29.261c0.845,1.476,3.115,2.705,5.53,4.028c4.736,2.577,12.672,6.903,12.672,17.297
				c0,1.476-0.128,2.944-0.384,4.378c10.607,5.897,17.451,17.109,17.451,29.756v0.179c10.65,8.013,17.067,20.574,17.067,33.954
				c0,9.643-3.337,18.449-8.755,25.6h0.222h8.533c4.719,0,8.533,3.814,8.533,8.533S337.517,290.071,332.798,290.071z"/>
		</g>
	</g>
</g>
<g>
</g>
<g>
</g>
<g>
</g>
<g>
</g>
<g>
</g>
<g>
</g>
<g>
</g>
<g>
</g>
<g>
</g>
<g>
</g>
<g>
</g>
<g>
</g>
<g>
</g>
<g>
</g>
<g>
</g>
</svg>
