<?xml version="1.0" encoding="iso-8859-1"?>
<!-- Generator: Adobe Illustrator 19.0.0, SVG Export Plug-In . SVG Version: 6.00 Build 0)  -->
<svg version="1.1" id="Layer_1" xmlns="http://www.w3.org/2000/svg" xmlns:xlink="http://www.w3.org/1999/xlink" x="0px" y="0px"
	 viewBox="0 0 512 512" style="enable-background:new 0 0 512 512;" xml:space="preserve">
<g>
	<g>
		<g>
			<path d="M8.533,17.067v477.867C8.533,504.346,16.188,512,25.6,512h221.867V0H25.6C16.188,0,8.533,7.654,8.533,17.067z
				 M221.867,452.267h-25.6c-4.71,0-8.533-3.814-8.533-8.533c0-4.719,3.823-8.533,8.533-8.533h25.6c4.71,0,8.533,3.814,8.533,8.533
				C230.4,448.452,226.577,452.267,221.867,452.267z M221.867,375.467h-25.6c-4.71,0-8.533-3.814-8.533-8.533
				s3.823-8.533,8.533-8.533h25.6c4.71,0,8.533,3.814,8.533,8.533S226.577,375.467,221.867,375.467z M221.867,298.667h-25.6
				c-4.71,0-8.533-3.814-8.533-8.533s3.823-8.533,8.533-8.533h25.6c4.71,0,8.533,3.814,8.533,8.533S226.577,298.667,221.867,298.667
				z M230.4,213.333c0,4.719-3.823,8.533-8.533,8.533h-25.6c-4.71,0-8.533-3.814-8.533-8.533c0-4.719,3.823-8.533,8.533-8.533h25.6
				C226.577,204.8,230.4,208.614,230.4,213.333z M136.533,42.667c38.81,0,69.214,29.986,69.214,68.267
				c0,4.719-3.814,8.533-8.533,8.533H75.853c-4.719,0-8.533-3.814-8.533-8.533C67.319,72.653,97.724,42.667,136.533,42.667z
				 M68.267,136.533H204.8c4.71,0,8.533,3.814,8.533,8.533s-3.823,8.533-8.533,8.533H68.267c-4.71,0-8.533-3.814-8.533-8.533
				S63.556,136.533,68.267,136.533z M51.2,204.8h93.867c4.71,0,8.533,3.814,8.533,8.533c0,4.719-3.823,8.533-8.533,8.533H51.2
				c-4.71,0-8.533-3.814-8.533-8.533C42.667,208.614,46.49,204.8,51.2,204.8z M51.2,281.6h93.867c4.71,0,8.533,3.814,8.533,8.533
				s-3.823,8.533-8.533,8.533H51.2c-4.71,0-8.533-3.814-8.533-8.533S46.49,281.6,51.2,281.6z M51.2,358.4h93.867
				c4.71,0,8.533,3.814,8.533,8.533s-3.823,8.533-8.533,8.533H51.2c-4.71,0-8.533-3.814-8.533-8.533S46.49,358.4,51.2,358.4z
				 M51.2,435.2h93.867c4.71,0,8.533,3.814,8.533,8.533c0,4.719-3.823,8.533-8.533,8.533H51.2c-4.71,0-8.533-3.814-8.533-8.533
				C42.667,439.014,46.49,435.2,51.2,435.2z"/>
			<path d="M136.533,59.733c-26.274,0-47.437,18.159-51.456,42.667h102.912C183.97,77.892,162.807,59.733,136.533,59.733z"/>
			<path d="M486.4,0H264.533v512H486.4c9.412,0,17.067-7.654,17.067-17.067V17.067C503.467,7.654,495.812,0,486.4,0z M384,452.267
				h-93.867c-4.71,0-8.533-3.814-8.533-8.533c0-4.719,3.823-8.533,8.533-8.533H384c4.71,0,8.533,3.814,8.533,8.533
				C392.533,448.452,388.71,452.267,384,452.267z M384,375.467h-93.867c-4.71,0-8.533-3.814-8.533-8.533s3.823-8.533,8.533-8.533
				H384c4.71,0,8.533,3.814,8.533,8.533S388.71,375.467,384,375.467z M384,298.667h-93.867c-4.71,0-8.533-3.814-8.533-8.533
				s3.823-8.533,8.533-8.533H384c4.71,0,8.533,3.814,8.533,8.533S388.71,298.667,384,298.667z M384,221.867h-93.867
				c-4.71,0-8.533-3.814-8.533-8.533c0-4.719,3.823-8.533,8.533-8.533H384c4.71,0,8.533,3.814,8.533,8.533
				C392.533,218.052,388.71,221.867,384,221.867z M384,145.067h-93.867c-4.71,0-8.533-3.814-8.533-8.533s3.823-8.533,8.533-8.533
				H384c4.71,0,8.533,3.814,8.533,8.533S388.71,145.067,384,145.067z M384,68.267h-93.867c-4.71,0-8.533-3.814-8.533-8.533
				s3.823-8.533,8.533-8.533H384c4.71,0,8.533,3.814,8.533,8.533S388.71,68.267,384,68.267z M460.8,452.267h-25.6
				c-4.71,0-8.533-3.814-8.533-8.533c0-4.719,3.823-8.533,8.533-8.533h25.6c4.71,0,8.533,3.814,8.533,8.533
				C469.333,448.452,465.51,452.267,460.8,452.267z M460.8,375.467h-25.6c-4.71,0-8.533-3.814-8.533-8.533s3.823-8.533,8.533-8.533
				h25.6c4.71,0,8.533,3.814,8.533,8.533S465.51,375.467,460.8,375.467z M460.8,298.667h-25.6c-4.71,0-8.533-3.814-8.533-8.533
				s3.823-8.533,8.533-8.533h25.6c4.71,0,8.533,3.814,8.533,8.533S465.51,298.667,460.8,298.667z M460.8,221.867h-25.6
				c-4.71,0-8.533-3.814-8.533-8.533c0-4.719,3.823-8.533,8.533-8.533h25.6c4.71,0,8.533,3.814,8.533,8.533
				C469.333,218.052,465.51,221.867,460.8,221.867z M460.8,145.067h-25.6c-4.71,0-8.533-3.814-8.533-8.533S430.49,128,435.2,128
				h25.6c4.71,0,8.533,3.814,8.533,8.533S465.51,145.067,460.8,145.067z M460.8,68.267h-25.6c-4.71,0-8.533-3.814-8.533-8.533
				S430.49,51.2,435.2,51.2h25.6c4.71,0,8.533,3.814,8.533,8.533S465.51,68.267,460.8,68.267z"/>
		</g>
	</g>
</g>
<g>
</g>
<g>
</g>
<g>
</g>
<g>
</g>
<g>
</g>
<g>
</g>
<g>
</g>
<g>
</g>
<g>
</g>
<g>
</g>
<g>
</g>
<g>
</g>
<g>
</g>
<g>
</g>
<g>
</g>
</svg>
