<?xml version="1.0" encoding="iso-8859-1"?>
<!-- Generator: Adobe Illustrator 19.0.0, SVG Export Plug-In . SVG Version: 6.00 Build 0)  -->
<svg version="1.1" id="Layer_1" xmlns="http://www.w3.org/2000/svg" xmlns:xlink="http://www.w3.org/1999/xlink" x="0px" y="0px"
	 viewBox="0 0 503.612 503.612" style="enable-background:new 0 0 503.612 503.612;" xml:space="preserve">
<g>
	<g>
		<g>
			<path d="M251.807,218.232c-13.883,0-25.18,11.298-25.18,25.18c0,13.883,11.298,25.18,25.18,25.18
				c13.883,0,25.18-11.298,25.18-25.18C276.988,229.53,265.69,218.232,251.807,218.232z"/>
			<path d="M503.607,54.561c0-20.833-16.938-37.771-37.771-37.771H37.77C16.946,16.79,0,33.728,0,54.561v247.607h503.607V54.561z
				 M251.803,285.38c-23.132,0-41.967-18.826-41.967-41.967c0-23.141,18.835-41.967,41.967-41.967
				c23.141,0,41.967,18.826,41.967,41.967C293.77,266.554,274.944,285.38,251.803,285.38z M307.208,186.38
				c-3.282,3.282-8.595,3.282-11.877,0c-11.6-11.608-27.06-18.004-43.528-18.004c-16.46,0-31.92,6.396-43.528,18.004
				c-1.637,1.637-3.785,2.459-5.934,2.459c-2.14,0-4.289-0.823-5.934-2.459c-3.273-3.282-3.273-8.586,0-11.868
				c14.781-14.781,34.447-22.914,55.397-22.922c20.95,0,40.624,8.142,55.405,22.922C310.482,177.793,310.482,183.098,307.208,186.38
				z M342.536,151.052c-1.645,1.637-3.794,2.459-5.943,2.459c-2.14,0-4.289-0.823-5.934-2.459
				c-43.478-43.478-114.226-43.478-157.713,0c-3.273,3.282-8.586,3.282-11.868,0c-3.273-3.282-3.273-8.586,0-11.868
				c50.025-50.033,131.433-50.033,181.458,0C345.81,142.465,345.81,147.77,342.536,151.052z M377.864,115.715
				c-1.637,1.637-3.785,2.459-5.934,2.459s-4.297-0.823-5.934-2.459c-62.968-62.968-165.41-62.968-228.377,0
				c-3.282,3.282-8.586,3.282-11.868,0c-3.282-3.282-3.282-8.586,0-11.868c69.506-69.506,182.608-69.506,252.114,0
				C381.146,107.129,381.146,112.434,377.864,115.715z"/>
			<path d="M0.006,318.953v29.377c0,20.824,16.938,37.77,37.771,37.77H199.09l-12.59,50.361h-1.838
				c-23.141,0-41.967,18.827-41.967,41.967c0,4.642,3.76,8.393,8.393,8.393H352.53c4.633,0,8.393-3.752,8.393-8.393
				c0-23.141-18.826-41.967-41.967-41.967h-1.838l-12.59-50.361h161.314c20.824,0,37.77-16.946,37.77-37.77v-29.377H0.006z
				 M203.807,436.461l12.59-50.361h70.824l12.59,50.361H203.807z"/>
		</g>
	</g>
</g>
<g>
</g>
<g>
</g>
<g>
</g>
<g>
</g>
<g>
</g>
<g>
</g>
<g>
</g>
<g>
</g>
<g>
</g>
<g>
</g>
<g>
</g>
<g>
</g>
<g>
</g>
<g>
</g>
<g>
</g>
</svg>
