<?xml version="1.0" encoding="iso-8859-1"?>
<!-- Generator: Adobe Illustrator 19.0.0, SVG Export Plug-In . SVG Version: 6.00 Build 0)  -->
<svg version="1.1" id="Layer_1" xmlns="http://www.w3.org/2000/svg" xmlns:xlink="http://www.w3.org/1999/xlink" x="0px" y="0px"
	 viewBox="0 0 512.003 512.003" style="enable-background:new 0 0 512.003 512.003;" xml:space="preserve">
<g>
	<g>
		<g>
			<path d="M315.732,256c0-13.201-4.352-25.37-11.631-35.268l-83.721,83.106c9.958,7.433,22.263,11.895,35.618,11.895
				C288.929,315.733,315.732,288.93,315.732,256z"/>
			<path d="M107.89,384c-17.143,0-31.087-13.952-31.087-31.095V184.32c0-16.939,13.781-30.72,30.711-30.72h48.521l21.402-54.323
				c1.297-3.268,4.437-5.41,7.945-5.41h141.235c3.507,0,6.647,2.142,7.945,5.41l19.029,48.29l78.089-77.517
				C385.795,26.675,323.971,0,256.003,0c-141.158,0-256,114.842-256,256c0,67.294,26.138,128.572,68.745,174.31L115.399,384H107.89z
				"/>
			<path d="M196.265,256c0,13.431,4.514,25.805,12.023,35.789l83.857-83.234c-10.052-7.671-22.554-12.288-36.147-12.288
				C223.069,196.267,196.265,223.07,196.265,256z"/>
			<path d="M418.132,352.905V184.32c0-7.526-6.127-13.653-13.653-13.653h-49.946l-38.221,37.939
				c10.291,13.073,16.486,29.508,16.486,47.394c0,42.351-34.449,76.8-76.8,76.8c-18.091,0-34.705-6.323-47.846-16.828
				l-51.337,50.961h247.287C411.843,366.933,418.132,360.644,418.132,352.905z M383.999,221.867
				c-9.429,0-17.067-7.637-17.067-17.067c0-9.429,7.637-17.067,17.067-17.067s17.067,7.637,17.067,17.067
				C401.065,214.229,393.428,221.867,383.999,221.867z"/>
			<path d="M320.807,110.933H191.194l-21.41,54.323c-1.297,3.268-4.437,5.41-7.945,5.41h-54.323
				c-7.526,0-13.653,6.127-13.653,13.653v168.585c0,7.74,6.298,14.029,14.029,14.029h24.704l63.479-63.019
				c-10.53-13.15-16.879-29.79-16.879-47.915c0-42.351,34.449-76.8,76.8-76.8c18.33,0,35.157,6.468,48.375,17.22l36.028-35.763
				L320.807,110.933z"/>
			<path d="M443.699,82.161l-71.97,71.441h32.751c16.939,0,30.72,13.781,30.72,30.711v168.593c0,17.143-13.952,31.095-31.095,31.095
				H139.622l-58.829,58.394c45.833,43.11,107.469,69.606,175.206,69.606c141.158,0,256-114.842,256-256
				C512,188.939,486.05,127.849,443.699,82.161z"/>
		</g>
	</g>
</g>
<g>
</g>
<g>
</g>
<g>
</g>
<g>
</g>
<g>
</g>
<g>
</g>
<g>
</g>
<g>
</g>
<g>
</g>
<g>
</g>
<g>
</g>
<g>
</g>
<g>
</g>
<g>
</g>
<g>
</g>
</svg>
