<?xml version="1.0" encoding="iso-8859-1"?>
<!-- Generator: Adobe Illustrator 19.0.0, SVG Export Plug-In . SVG Version: 6.00 Build 0)  -->
<svg version="1.1" id="Layer_1" xmlns="http://www.w3.org/2000/svg" xmlns:xlink="http://www.w3.org/1999/xlink" x="0px" y="0px"
	 viewBox="0 0 512 512" style="enable-background:new 0 0 512 512;" xml:space="preserve">
<g>
	<g>
		<g>
			<path d="M269.952,102.398h-48.12c-4.685,0-8.499,3.814-8.499,8.499v298.701c0,4.71,3.831,8.533,8.533,8.533
				c4.702,0,8.533-3.823,8.533-8.533v-128c0-4.719,3.823-8.533,8.533-8.533h34.133c23.091,0,44.715-9.071,60.894-25.549
				c16.171-16.478,24.849-38.272,24.422-61.389C357.538,139.953,317.867,102.398,269.952,102.398z M273.067,255.998h-34.133
				c-4.71,0-8.533-3.814-8.533-8.533V127.998c0-4.719,3.823-8.533,8.533-8.533h34.133c37.641,0,68.267,30.626,68.267,68.267
				C341.333,225.372,310.707,255.998,273.067,255.998z"/>
			<path d="M256,0C114.842,0,0,114.842,0,256s114.842,256,256,256s256-114.842,256-256S397.158,0,256,0z M346.138,259.473
				c-19.413,19.763-45.363,30.66-73.071,30.66h-25.6V409.6c0,14.114-11.486,25.6-25.6,25.6s-25.6-11.486-25.6-25.6V110.899
				c0-14.097,11.469-25.566,25.566-25.566h48.12c57.156,0,104.482,45.073,105.498,100.48
				C375.953,213.547,365.542,239.71,346.138,259.473z"/>
			<path d="M273.067,136.532h-25.6v102.4h25.6c28.237,0,51.2-22.963,51.2-51.2S301.303,136.532,273.067,136.532z"/>
		</g>
	</g>
</g>
<g>
</g>
<g>
</g>
<g>
</g>
<g>
</g>
<g>
</g>
<g>
</g>
<g>
</g>
<g>
</g>
<g>
</g>
<g>
</g>
<g>
</g>
<g>
</g>
<g>
</g>
<g>
</g>
<g>
</g>
</svg>
