<?xml version="1.0" encoding="iso-8859-1"?>
<!-- Generator: Adobe Illustrator 19.0.0, SVG Export Plug-In . SVG Version: 6.00 Build 0)  -->
<svg version="1.1" id="Layer_1" xmlns="http://www.w3.org/2000/svg" xmlns:xlink="http://www.w3.org/1999/xlink" x="0px" y="0px"
	 viewBox="0 0 512 512" style="enable-background:new 0 0 512 512;" xml:space="preserve">
<g>
	<g>
		<g>
			<path d="M264.533,196.267v99.703c16.589-9.984,32.358-47.855,33.954-99.703H264.533z"/>
			<path d="M247.467,295.973v-99.703h-33.954C215.108,248.118,230.878,285.989,247.467,295.973z"/>
			<path d="M213.513,179.2h33.954V79.497C230.878,89.481,215.108,127.352,213.513,179.2z"/>
			<path d="M290.798,82.475c14.293,21.248,23.595,55.791,24.747,96.725h50.953C363.033,133.948,332.364,96.256,290.798,82.475z"/>
			<path d="M264.533,79.494v99.703h33.954C296.892,127.349,281.122,89.478,264.533,79.494z"/>
			<path d="M290.798,292.992c41.566-13.781,72.235-51.473,75.699-96.725h-50.953C314.393,237.201,305.091,271.744,290.798,292.992z"
				/>
			<path d="M418.133,0H93.867c-14.114,0-25.6,11.486-25.6,25.6v460.8c0,14.114,11.486,25.6,25.6,25.6h324.267
				c14.114,0,25.6-11.486,25.6-25.6V25.6C443.733,11.486,432.247,0,418.133,0z M256,460.8H136.533c-4.71,0-8.533-3.814-8.533-8.533
				c0-4.719,3.823-8.533,8.533-8.533H256c4.71,0,8.533,3.814,8.533,8.533C264.533,456.986,260.71,460.8,256,460.8z M273.067,426.667
				H136.533c-4.71,0-8.533-3.814-8.533-8.533s3.823-8.533,8.533-8.533h136.533c4.71,0,8.533,3.814,8.533,8.533
				S277.777,426.667,273.067,426.667z M290.133,392.533h-153.6c-4.71,0-8.533-3.814-8.533-8.533c0-4.719,3.823-8.533,8.533-8.533
				h153.6c4.71,0,8.533,3.814,8.533,8.533C298.667,388.719,294.844,392.533,290.133,392.533z M256,315.733
				c-70.579,0-128-57.421-128-128s57.421-128,128-128s128,57.421,128,128S326.579,315.733,256,315.733z"/>
			<path d="M221.201,82.475c-41.566,13.781-72.235,51.473-75.699,96.725h50.953C197.606,138.266,206.908,103.723,221.201,82.475z"/>
			<path d="M145.502,196.267c3.465,45.252,34.133,82.944,75.699,96.725c-14.293-21.248-23.595-55.791-24.747-96.725H145.502z"/>
		</g>
	</g>
</g>
<g>
</g>
<g>
</g>
<g>
</g>
<g>
</g>
<g>
</g>
<g>
</g>
<g>
</g>
<g>
</g>
<g>
</g>
<g>
</g>
<g>
</g>
<g>
</g>
<g>
</g>
<g>
</g>
<g>
</g>
</svg>
