<?xml version="1.0" encoding="iso-8859-1"?>
<!-- Generator: Adobe Illustrator 19.0.0, SVG Export Plug-In . SVG Version: 6.00 Build 0)  -->
<svg version="1.1" id="Layer_1" xmlns="http://www.w3.org/2000/svg" xmlns:xlink="http://www.w3.org/1999/xlink" x="0px" y="0px"
	 viewBox="0 0 503.783 503.783" style="enable-background:new 0 0 503.783 503.783;" xml:space="preserve">
<g>
	<g>
		<path d="M499.456,460.976l-23.745-236.527c-1.225-13.018-12.011-22.83-25.071-22.83h-21.496l10.718-21.428
			c1.301-2.594,1.158-5.682-0.369-8.158c-1.536-2.476-4.23-3.987-7.143-3.987h-0.428c-4.239-76.599-65.662-138.022-142.26-142.26
			v-8.88l16.753,0.059h0.034c4.625,0,8.377-3.735,8.393-8.368c0.017-4.633-3.727-8.402-8.36-8.419L256.122,0h-0.034
			c-4.625,0-8.377,3.743-8.393,8.377c-0.017,4.625,3.727,8.402,8.36,8.41l16.82,0.059v8.939
			c-76.599,4.239-138.022,65.662-142.26,142.26h-0.428c-2.913,0-5.607,1.511-7.143,3.987c-1.528,2.476-1.67,5.565-0.369,8.158
			l10.718,21.428h-21.496c-13.06,0-23.846,9.812-25.063,22.78l-6.144,61.155H53.135l-15.444-77.186
			c-0.05-0.294-0.235-0.512-0.319-0.781c-0.168-0.554-0.378-1.058-0.646-1.553c-0.269-0.478-0.554-0.915-0.898-1.326
			c-0.327-0.395-0.68-0.739-1.074-1.066c-0.436-0.369-0.898-0.68-1.402-0.948c-0.436-0.235-0.865-0.411-1.343-0.562
			c-0.571-0.185-1.133-0.294-1.746-0.353c-0.277-0.025-0.512-0.159-0.797-0.159H12.678c-4.642,0-8.393,3.752-8.393,8.393
			c0,4.642,3.752,8.393,8.393,8.393h9.904l15.444,77.186c0.059,0.327,0.243,0.588,0.344,0.898c0.134,0.42,0.277,0.823,0.47,1.209
			c0.285,0.554,0.63,1.041,1.024,1.511c0.26,0.319,0.487,0.63,0.789,0.898c0.487,0.445,1.041,0.781,1.62,1.1
			c0.319,0.168,0.588,0.386,0.923,0.52c0.965,0.378,1.981,0.613,3.047,0.613h0.008h32.76L63.081,460.976
			c-0.235,2.367,0.529,4.709,2.132,6.471c1.586,1.763,3.853,2.761,6.22,2.761h18.331c-0.94,2.636-1.544,5.439-1.544,8.393
			c0,13.883,11.298,25.18,25.18,25.18s25.18-11.298,25.18-25.18c0-2.954-0.604-5.758-1.544-8.393h59.761L205.744,327
			c0.285-4.642,4.356-8.041,8.905-7.856c4.616,0.285,8.133,4.272,7.848,8.905l-8.889,142.16h59.266V327.52
			c0-4.642,3.752-8.393,8.393-8.393c4.642,0,8.393,3.752,8.393,8.393v142.689h59.266l-8.889-142.16
			c-0.285-4.633,3.231-8.62,7.848-8.905c4.616-0.193,8.612,3.215,8.905,7.856l8.947,143.209h59.761
			c-0.94,2.636-1.544,5.439-1.544,8.393c0,13.883,11.298,25.18,25.18,25.18s25.18-11.298,25.18-25.18
			c0-2.954-0.604-5.758-1.544-8.393h18.331c2.367,0,4.633-0.999,6.22-2.761C498.927,465.685,499.691,463.343,499.456,460.976z
			 M169.459,140.271c15.763-48.648,60.693-81.341,111.809-81.341c4.642,0,8.393,3.752,8.393,8.393c0,4.642-3.752,8.393-8.393,8.393
			c-43.814,0-82.331,28.026-95.845,69.741c-1.15,3.542-4.44,5.8-7.982,5.8c-0.856,0-1.729-0.134-2.594-0.411
			C170.442,149.42,168.033,144.686,169.459,140.271z M113.4,486.996c-4.633,0-8.393-3.76-8.393-8.393
			c0-4.633,3.76-8.393,8.393-8.393s8.393,3.76,8.393,8.393C121.793,483.236,118.033,486.996,113.4,486.996z M155.3,328.561
			l-16.787,134.295c-0.243,1.947-1.192,3.609-2.493,4.893c-2.753-5.708-7.537-10.215-13.463-12.548l16.09-128.722
			c0.571-4.591,4.726-7.781,9.367-7.286C152.614,319.765,155.879,323.962,155.3,328.561z M152.161,201.619l-8.393-16.787H418.77
			l-8.393,16.787H152.161z M426.517,467.75c-1.301-1.284-2.249-2.946-2.493-4.893l-16.787-134.295
			c-0.579-4.6,2.686-8.796,7.286-9.367c4.616-0.495,8.796,2.694,9.367,7.286l16.09,128.722
			C434.054,457.535,429.27,462.042,426.517,467.75z M449.137,486.996c-4.633,0-8.393-3.76-8.393-8.393
			c0-4.633,3.76-8.393,8.393-8.393s8.393,3.76,8.393,8.393C457.531,483.236,453.771,486.996,449.137,486.996z"/>
	</g>
</g>
<g>
</g>
<g>
</g>
<g>
</g>
<g>
</g>
<g>
</g>
<g>
</g>
<g>
</g>
<g>
</g>
<g>
</g>
<g>
</g>
<g>
</g>
<g>
</g>
<g>
</g>
<g>
</g>
<g>
</g>
</svg>
