<?xml version="1.0" encoding="iso-8859-1"?>
<!-- Generator: Adobe Illustrator 19.0.0, SVG Export Plug-In . SVG Version: 6.00 Build 0)  -->
<svg version="1.1" id="Layer_1" xmlns="http://www.w3.org/2000/svg" xmlns:xlink="http://www.w3.org/1999/xlink" x="0px" y="0px"
	 viewBox="0 0 503.61 503.61" style="enable-background:new 0 0 503.61 503.61;" xml:space="preserve">
<g>
	<g>
		<g>
			<path d="M468.206,67.149H35.398c-19.515,0-35.395,15.88-35.395,35.395v31.752H503.61v-31.752
				C503.61,83.03,487.721,67.149,468.206,67.149z"/>
			<path d="M183.694,327.346h151.695c4.633,0,8.393-3.76,8.393-8.393s-3.76-8.393-8.393-8.393H183.694
				c0.034,0.235,0.017,0.462,0.05,0.697c0.336,2.526,0.562,5.078,0.562,7.697s-0.227,5.17-0.562,7.697
				C183.711,326.884,183.727,327.111,183.694,327.346z"/>
			<path d="M125.552,360.922c19.255,0,35.345-13.111,40.272-30.812c0.327-1.175,0.697-2.333,0.923-3.517
				c0.462-2.484,0.772-5.028,0.772-7.638c0-2.619-0.311-5.162-0.772-7.646c-0.227-1.175-0.596-2.342-0.923-3.508
				c-4.927-17.71-21.017-30.812-40.272-30.812c-23.141,0-41.967,18.826-41.967,41.967
				C83.584,342.096,102.411,360.922,125.552,360.922z"/>
			<path d="M0.003,401.065c0,19.515,15.88,35.395,35.395,35.395h432.808c19.515,0,35.404-15.88,35.404-35.395V218.231H0.003V401.065
				z M396.602,282.919c-3.282-3.282-3.282-8.586,0-11.868c3.282-3.282,8.587-3.282,11.868,0l41.967,41.967
				c3.282,3.282,3.282,8.586,0,11.868l-41.967,41.967c-1.637,1.637-3.785,2.459-5.934,2.459s-4.297-0.823-5.934-2.459
				c-3.282-3.282-3.282-8.586,0-11.868l36.033-36.033L396.602,282.919z M125.552,260.198c23.376,0,43.545,13.757,53.005,33.574
				h156.831c13.883,0,25.18,11.298,25.18,25.18s-11.298,25.18-25.18,25.18h-8.393v16.787c0,4.642-3.752,8.393-8.393,8.393
				c-4.642,0-8.393-3.752-8.393-8.393v-16.787h-16.787v33.574c0,4.642-3.752,8.393-8.393,8.393c-4.642,0-8.393-3.752-8.393-8.393
				v-33.574h-98.077c-9.459,19.817-29.629,33.574-53.005,33.574c-32.39,0-58.754-26.364-58.754-58.754
				C66.798,286.562,93.162,260.198,125.552,260.198z"/>
			<rect x="0" y="151.084" width="503.607" height="50.361"/>
		</g>
	</g>
</g>
<g>
</g>
<g>
</g>
<g>
</g>
<g>
</g>
<g>
</g>
<g>
</g>
<g>
</g>
<g>
</g>
<g>
</g>
<g>
</g>
<g>
</g>
<g>
</g>
<g>
</g>
<g>
</g>
<g>
</g>
</svg>
