<?xml version="1.0" encoding="iso-8859-1"?>
<!-- Generator: Adobe Illustrator 19.0.0, SVG Export Plug-In . SVG Version: 6.00 Build 0)  -->
<svg version="1.1" id="Layer_1" xmlns="http://www.w3.org/2000/svg" xmlns:xlink="http://www.w3.org/1999/xlink" x="0px" y="0px"
	 viewBox="0 0 503.607 503.607" style="enable-background:new 0 0 503.607 503.607;" xml:space="preserve">
<g>
	<g>
		<path d="M495.213,411.279c4.642,0,8.393-3.752,8.393-8.393V209.836c0-4.642-3.752-8.393-8.393-8.393h-16.787v-0.042v-75.499
			V93.318v-0.99c0-0.134-0.067-0.243-0.076-0.378c-0.193-6.581-1.704-13.161-4.499-19.112V72.83
			c-2.577-5.464-3.819-10.265-3.819-14.688V41.967v-25.13v-0.05C470.033,7.529,462.504,0,453.246,0h-33.574
			c-9.258,0-16.787,7.529-16.787,16.787v0.05v25.13v16.174c0,1.679-0.243,3.441-0.604,5.254
			c-25.583-22.822-57.495-35.924-91.724-37.796V8.393c0-4.642-3.752-8.393-8.393-8.393c-4.642,0-8.393,3.752-8.393,8.393v17.215
			c-76.599,4.239-138.022,65.662-142.26,142.26h-0.428c-2.912,0-5.607,1.511-7.143,3.987c-1.528,2.476-1.67,5.565-0.369,8.158
			l10.718,21.428h-19.364l-26.171-86.369c-1.074-3.542-4.339-5.959-8.033-5.959H55.548c-5.901-5.162-13.53-8.393-21.974-8.393
			C15.058,100.721,0,115.779,0,134.295s15.058,33.574,33.574,33.574c8.444,0,16.073-3.231,21.974-8.393h14.344l14.042,51.485
			v191.924c0,4.642,3.752,8.393,8.393,8.393h25.18v17.215c-18.835,2.115-33.574,17.954-33.574,37.342
			c0,20.824,16.946,37.771,37.771,37.771c20.824,0,37.771-16.946,37.771-37.771c0-7.764-2.367-14.974-6.396-20.984h281.382
			c-4.029,6.01-6.396,13.22-6.396,20.984c0,20.824,16.946,37.771,37.771,37.771c20.824,0,37.771-16.946,37.771-37.771
			c0-19.389-14.739-35.227-33.574-37.342v-17.215H495.213z M98.74,201.443l-14.336-52.568c-0.999-3.651-4.314-6.186-8.1-6.186
			H66.056c0.076-0.294,0.109-0.596,0.176-0.89c0.126-0.546,0.227-1.083,0.319-1.637c0.353-1.93,0.596-3.886,0.596-5.867
			c0-1.981-0.243-3.937-0.596-5.867c-0.092-0.554-0.193-1.091-0.319-1.637c-0.067-0.294-0.101-0.596-0.176-0.89h28.437
			l22.889,75.541H98.74z M419.714,16.804l33.532,0.034v16.737h-33.549L419.714,16.804z M412.966,83.758
			c0.411-1.267,0.73-2.577,1.293-3.785c3.643-7.747,5.414-14.89,5.414-21.831l0.008-7.781h33.565v7.781
			c0,6.941,1.771,14.084,5.414,21.831c0.588,1.267,0.932,2.627,1.351,3.962h-47.096C412.932,83.876,412.949,83.817,412.966,83.758z
			 M402.885,335.738c4.642,0,8.393,3.752,8.393,8.393v50.361h-16.787v-50.361C394.492,339.49,398.244,335.738,402.885,335.738z
			 M190.355,140.095c15.763-48.648,60.693-81.341,111.809-81.341c4.642,0,8.393,3.752,8.393,8.393c0,4.642-3.752,8.393-8.393,8.393
			c-43.814,0-82.331,28.026-95.845,69.741c-1.15,3.542-4.44,5.8-7.982,5.8c-0.856,0-1.729-0.134-2.594-0.411
			C191.337,149.244,188.928,144.51,190.355,140.095z M394.492,184.656v16.745v0.042H173.056l-8.393-16.787H394.492z
			 M377.705,377.705v16.787h-16.787v-16.787c0-4.642,3.752-8.393,8.393-8.393C373.953,369.311,377.705,373.063,377.705,377.705z
			 M235.016,369.311v25.18H218.23v-25.18c0-4.642,3.752-8.393,8.393-8.393C231.265,360.918,235.016,364.67,235.016,369.311z
			 M201.443,377.705v16.787h-16.787v-16.787c0-4.642,3.752-8.393,8.393-8.393S201.443,373.063,201.443,377.705z M151.082,344.131
			c0-4.642,3.752-8.393,8.393-8.393c4.642,0,8.393,3.752,8.393,8.393v50.361h-16.787V344.131z M453.246,428.066H134.295v-16.787
			h16.787h16.787h16.787h16.787h16.787h16.787h125.902h16.787h16.787h16.787h16.787h16.787h8.393V428.066z M428.066,394.492v-8.393
			c0-4.642,3.752-8.393,8.393-8.393c4.642,0,8.393,3.752,8.393,8.393v8.393H428.066z M461.597,201.443l-50.319-0.042v-25.138
			v-41.967h50.344L461.597,201.443z M461.631,117.508h-50.352v-16.787h50.361L461.631,117.508z"/>
	</g>
</g>
<g>
</g>
<g>
</g>
<g>
</g>
<g>
</g>
<g>
</g>
<g>
</g>
<g>
</g>
<g>
</g>
<g>
</g>
<g>
</g>
<g>
</g>
<g>
</g>
<g>
</g>
<g>
</g>
<g>
</g>
</svg>
