<?xml version="1.0" encoding="iso-8859-1"?>
<!-- Generator: Adobe Illustrator 19.0.0, SVG Export Plug-In . SVG Version: 6.00 Build 0)  -->
<svg version="1.1" id="Layer_1" xmlns="http://www.w3.org/2000/svg" xmlns:xlink="http://www.w3.org/1999/xlink" x="0px" y="0px"
	 viewBox="0 0 512 512" style="enable-background:new 0 0 512 512;" xml:space="preserve">
<g>
	<g>
		<g>
			<path d="M315.733,213.333c-2.475,0-8.533,7.475-8.533,21.333S313.259,256,315.733,256s8.533-7.475,8.533-21.333
				S318.208,213.333,315.733,213.333z"/>
			<path d="M366.933,42.667h-29.892C323.413,17.971,299.068,0,264.533,0c-34.637,0-59.034,18.074-72.636,42.88
				c-1.391-0.06-2.756-0.213-4.164-0.213c-56.465,0-102.4,45.935-102.4,102.4c0,37.803,20.642,70.81,51.2,88.542v82.125
				c0,2.27,0.896,4.437,2.5,6.033l11.034,11.025l-11.042,11.042c-3.328,3.336-3.328,8.73,0.009,12.066l11.034,11.034l-11.034,11.034
				c-3.337,3.337-3.337,8.73,0,12.066l11.034,11.034L139.034,412.1c-1.604,1.596-2.5,3.763-2.5,6.033s0.896,4.437,2.5,6.033
				l11.034,11.025l-11.042,11.042c-3.328,3.336-3.328,8.73,0.009,12.066l11.034,11.034l-11.034,11.034
				c-3.337,3.337-3.337,8.73,0,12.066L156.1,509.5c1.596,1.604,3.772,2.5,6.033,2.5h25.6V247.467c5.828,0,11.503-0.606,17.067-1.545
				v260.13l32.7-49.05c0.93-1.399,1.434-3.055,1.434-4.736V233.609c6.127-3.55,11.827-7.731,17.067-12.433v43.358
				c0,32.93,26.795,59.733,59.733,59.733h51.2c32.939,0,59.733-26.803,59.733-59.733V102.4
				C426.667,69.47,399.872,42.667,366.933,42.667z M195.832,96.009c5.316,2.893,8.969,8.465,8.969,14.925
				c0,9.412-7.654,17.067-17.067,17.067c-9.412,0-17.067-7.654-17.067-17.067c0-6.46,3.652-12.032,8.969-14.925
				c0.964,3.644,4.147,6.391,8.098,6.391S194.867,99.652,195.832,96.009z M272.674,152.892c-0.077,0.802-0.188,1.596-0.282,2.389
				c-0.213,1.835-0.495,3.644-0.828,5.436c-0.154,0.836-0.307,1.673-0.486,2.5c-0.435,2.014-0.956,3.985-1.527,5.939
				c-0.154,0.495-0.256,0.998-0.41,1.493c-0.734,2.313-1.579,4.565-2.492,6.784c-0.393,0.947-0.836,1.877-1.263,2.816
				c-0.597,1.306-1.212,2.594-1.869,3.866c-0.546,1.058-1.109,2.108-1.707,3.14c-0.632,1.101-1.297,2.176-1.98,3.251
				c-0.657,1.041-1.306,2.099-2.022,3.115c-8.158,11.75-19.209,21.299-32.085,27.742c-2.108,1.05-4.233,2.031-6.4,2.901
				c-0.384,0.154-0.794,0.282-1.186,0.435c-2.133,0.819-4.284,1.579-6.468,2.219c-0.461,0.137-0.939,0.239-1.399,0.367
				c-2.176,0.597-4.361,1.143-6.579,1.562c-0.341,0.068-0.7,0.102-1.041,0.162c-2.364,0.418-4.745,0.776-7.151,0.99h-0.009
				c-3.695,0.333-7.407,0.375-11.11,0.23c-0.529-0.017-1.058-0.051-1.579-0.077c-7.603-0.444-15.172-1.869-22.485-4.352
				c-0.162-0.06-0.324-0.128-0.495-0.188c-3.601-1.246-7.142-2.748-10.581-4.489c-27.75-14.106-46.839-42.863-46.839-76.058
				c0-45.978,36.574-83.473,82.15-85.171c-1.877,5.751-3.234,11.699-4.122,17.732c-15.317,3.362-26.829,16.99-26.829,33.306
				c0,18.825,15.309,34.133,34.133,34.133s34.133-15.309,34.133-34.133c0-15.386-10.291-28.271-24.311-32.521
				c0.964-5.931,2.5-11.767,4.608-17.365c23.262,3.994,43.358,17.34,56.141,36.113c0.273,0.401,0.512,0.819,0.777,1.22
				c1.109,1.698,2.167,3.43,3.166,5.205c0.375,0.683,0.734,1.382,1.101,2.074c0.845,1.621,1.647,3.277,2.389,4.958
				c0.299,0.666,0.606,1.323,0.887,2.005c1.911,4.642,3.43,9.498,4.506,14.507c0.154,0.708,0.282,1.434,0.41,2.142
				c0.358,1.877,0.649,3.772,0.87,5.692c0.094,0.759,0.188,1.519,0.265,2.278c0.23,2.586,0.393,5.188,0.393,7.825
				C273.067,147.712,272.905,150.315,272.674,152.892z M262.554,75.383c-13.798-14.805-31.863-25.523-52.275-30.131
				c11.093-16.521,28.911-28.186,54.255-28.186c24.004,0,41.276,10.462,52.463,25.6h-1.263
				C293.359,42.667,273.015,55.842,262.554,75.383z M315.733,273.067c-14.592,0-25.6-16.512-25.6-38.4s11.008-38.4,25.6-38.4
				c14.592,0,25.6,16.512,25.6,38.4S330.325,273.067,315.733,273.067z M307.2,110.933c0-15.386,10.291-28.271,24.311-32.521
				c0.836,5.137,1.289,10.317,1.289,15.454c0,0.759,0.247,1.442,0.435,2.142c-5.316,2.893-8.969,8.465-8.969,14.925
				c0,9.412,7.654,17.067,17.067,17.067c9.412,0,17.067-7.654,17.067-17.067c0-6.46-3.652-12.032-8.969-14.925
				c0.188-0.7,0.435-1.382,0.435-2.142c0-5.427-0.435-10.863-1.229-16.239c15.317,3.362,26.829,16.99,26.829,33.306
				c0,18.825-15.309,34.133-34.133,34.133S307.2,129.758,307.2,110.933z M392.533,264.533c0,4.719-3.823,8.533-8.533,8.533
				s-8.533-3.814-8.533-8.533v-39.134l-2.5,2.5c-1.664,1.664-3.849,2.5-6.033,2.5c-2.185,0-4.369-0.836-6.033-2.5
				c-3.337-3.337-3.337-8.73,0-12.066l17.058-17.058c0.794-0.794,1.732-1.417,2.782-1.852c2.082-0.862,4.437-0.862,6.519,0
				c2.091,0.862,3.755,2.526,4.617,4.617c0.427,1.041,0.657,2.15,0.657,3.26V264.533z"/>
		</g>
	</g>
</g>
<g>
</g>
<g>
</g>
<g>
</g>
<g>
</g>
<g>
</g>
<g>
</g>
<g>
</g>
<g>
</g>
<g>
</g>
<g>
</g>
<g>
</g>
<g>
</g>
<g>
</g>
<g>
</g>
<g>
</g>
</svg>
