<?xml version="1.0" encoding="iso-8859-1"?>
<!-- Generator: Adobe Illustrator 19.0.0, SVG Export Plug-In . SVG Version: 6.00 Build 0)  -->
<svg version="1.1" id="Layer_1" xmlns="http://www.w3.org/2000/svg" xmlns:xlink="http://www.w3.org/1999/xlink" x="0px" y="0px"
	 viewBox="0 0 512.187 512.187" style="enable-background:new 0 0 512.187 512.187;" xml:space="preserve">
<g>
	<g>
		<path d="M507.759,468.445l-24.115-189.227c-1.246-13.235-12.211-23.211-25.489-23.211h-21.854l10.897-21.777
			c1.323-2.645,1.178-5.786-0.375-8.303c-1.562-2.517-4.301-4.053-7.262-4.053h-4.838c2.995-5.077,4.838-10.923,4.838-17.237
			c0-19.183-16.222-34.705-35.209-34.116c-3.789-14.72-17.178-25.617-33.058-25.617c-5.683,0-11.247,1.459-16.188,4.147
			c-2.014-2.483-4.437-4.523-7.04-6.323l52.463-23.561c4.301-1.929,6.221-6.98,4.292-11.273
			C371.303,33.262,285.201-1.4,209.741,27.588l-3.721-8.286l6.622-2.961c4.301-1.929,6.238-6.98,4.309-11.281
			c-1.92-4.301-6.938-6.246-11.273-4.309L175.65,14.182c-4.301,1.92-6.229,6.972-4.309,11.273c1.417,3.174,4.54,5.052,7.799,5.052
			c1.161,0,2.347-0.239,3.482-0.742l7.825-3.499l3.729,8.311C122.564,71.611,91.273,158.6,124.339,233.105
			c0.12,0.375,0.205,0.768,0.384,1.126l10.897,21.777h-21.854c-13.278,0-24.243,9.975-25.455,22.938l-7.953,62.396H53.607
			l-15.275-78.43c-0.777-4.011-4.284-6.904-8.371-6.904H12.894c-4.719,0-8.533,3.823-8.533,8.533c0,4.719,3.814,8.533,8.533,8.533
			h10.035l15.275,78.438c0.785,4.011,4.292,6.895,8.371,6.895h31.607l-14.02,110.037c-0.307,2.423,0.444,4.872,2.065,6.716
			c1.613,1.843,3.951,2.893,6.4,2.893h18.637c-0.956,2.679-1.57,5.53-1.57,8.533c0,14.114,11.486,25.6,25.6,25.6
			s25.6-11.486,25.6-25.6c0-3.004-0.614-5.854-1.57-8.533h60.757l9.097-145.596c0.29-4.719,4.284-8.175,9.054-7.987
			c4.693,0.29,8.269,4.344,7.979,9.054l-9.037,144.529h60.254V332.987c0-4.719,3.814-8.533,8.533-8.533
			c4.719,0,8.533,3.814,8.533,8.533v145.067h60.254l-9.037-144.529c-0.29-4.71,3.285-8.764,7.979-9.054
			c4.54-0.196,8.764,3.268,9.054,7.987l9.097,145.596h60.757c-0.956,2.679-1.57,5.53-1.57,8.533c0,14.114,11.486,25.6,25.6,25.6
			s25.6-11.486,25.6-25.6c0-3.004-0.614-5.854-1.57-8.533h18.637c2.449,0,4.787-1.05,6.4-2.893
			C507.315,473.318,508.066,470.869,507.759,468.445z M323.832,153.608h4.796c7.219,0,13.466,4.326,15.932,11.025
			c1.024,2.79,3.43,4.838,6.34,5.419c2.867,0.614,5.922-0.384,7.927-2.569c3.294-3.558,7.723-5.513,12.467-5.513
			c9.412,0,17.067,7.654,17.058,16.845c-0.026,0.179-0.119,1.015-0.137,1.195c-0.213,2.884,1.041,5.692,3.354,7.441
			c2.321,1.749,5.376,2.21,8.064,1.229c2.056-0.751,3.942-1.109,5.794-1.109c9.412,0,17.067,7.654,17.067,17.067
			c0,9.412-7.654,17.067-17.067,17.067H172.194L323.832,153.608z M215.765,61.832c4.284-1.937,9.344-0.008,11.281,4.292
			c1.929,4.284,0.009,9.335-4.292,11.273c-40.636,18.253-64.683,60.271-59.853,104.593c0.512,4.685-2.876,8.9-7.56,9.404
			c-0.316,0.034-0.623,0.051-0.93,0.051c-4.301,0-8.004-3.234-8.474-7.612C140.297,132.147,168.363,83.114,215.765,61.832z
			 M115.294,495.121c-4.71,0-8.533-3.823-8.533-8.533s3.823-8.533,8.533-8.533c4.71,0,8.533,3.823,8.533,8.533
			S120.004,495.121,115.294,495.121z M157.892,334.045l-17.067,136.533c-0.247,1.98-1.212,3.669-2.534,4.975
			c-2.799-5.803-7.663-10.385-13.687-12.757l16.358-130.867c0.58-4.668,4.796-7.91,9.523-7.407
			C155.162,325.102,158.481,329.369,157.892,334.045z M154.701,256.008l-8.533-17.067h279.586l-8.533,17.067H154.701z
			 M433.63,475.554c-1.323-1.306-2.287-2.995-2.534-4.975l-17.067-136.533c-0.589-4.676,2.731-8.943,7.407-9.523
			c4.693-0.503,8.943,2.739,9.523,7.407l16.358,130.867C441.293,465.169,436.429,469.751,433.63,475.554z M456.627,495.121
			c-4.71,0-8.533-3.823-8.533-8.533s3.823-8.533,8.533-8.533c4.71,0,8.533,3.823,8.533,8.533S461.338,495.121,456.627,495.121z"/>
	</g>
</g>
<g>
</g>
<g>
</g>
<g>
</g>
<g>
</g>
<g>
</g>
<g>
</g>
<g>
</g>
<g>
</g>
<g>
</g>
<g>
</g>
<g>
</g>
<g>
</g>
<g>
</g>
<g>
</g>
<g>
</g>
</svg>
