<?xml version="1.0" encoding="iso-8859-1"?>
<!-- Generator: Adobe Illustrator 19.0.0, SVG Export Plug-In . SVG Version: 6.00 Build 0)  -->
<svg version="1.1" id="Layer_1" xmlns="http://www.w3.org/2000/svg" xmlns:xlink="http://www.w3.org/1999/xlink" x="0px" y="0px"
	 viewBox="0 0 503.607 503.607" style="enable-background:new 0 0 503.607 503.607;" xml:space="preserve">
<g>
	<g>
		<g>
			<path d="M444.852,310.557c0,13.883,11.298,25.18,25.18,25.18h33.574v-16.787h-25.18c0,4.642-3.76,8.393-8.393,8.393
				s-8.393-3.752-8.393-8.393v-16.787c0-4.642,3.76-8.393,8.393-8.393s8.393,3.752,8.393,8.393h25.18v-16.787h-33.574
				C456.15,285.377,444.852,296.675,444.852,310.557z"/>
			<path d="M444.852,193.049c0,13.883,11.298,25.18,25.18,25.18h33.574v-16.787h-25.18c0,4.642-3.76,8.393-8.393,8.393
				s-8.393-3.752-8.393-8.393v-16.787c0-4.642,3.76-8.393,8.393-8.393s8.393,3.752,8.393,8.393h25.18v-16.787h-33.574
				C456.15,167.869,444.852,179.166,444.852,193.049z"/>
			<rect x="109.111" y="226.623" width="33.574" height="50.361"/>
			<path d="M478.426,117.508H25.18c-13.883,0-25.18,11.298-25.18,25.18v218.229c0,13.883,11.298,25.18,25.18,25.18h453.246
				c13.883,0,25.18-11.298,25.18-25.18v-8.393h-33.574c-23.141,0-41.967-18.826-41.967-41.967c0-23.141,18.826-41.967,41.967-41.967
				h33.574v-33.574h-33.574c-23.141,0-41.967-18.827-41.967-41.967c0-23.141,18.826-41.967,41.967-41.967h33.574v-8.393
				C503.607,128.806,492.309,117.508,478.426,117.508z M327.344,302.164c0,13.883-11.298,25.18-25.18,25.18H83.934
				c-13.883,0-25.18-11.298-25.18-25.18V201.443c0-13.883,11.298-25.18,25.18-25.18h218.229c13.883,0,25.18,11.298,25.18,25.18
				V302.164z"/>
			<path d="M302.164,193.049H83.934c-4.625,0-8.393,3.76-8.393,8.393v100.721c0,4.633,3.769,8.393,8.393,8.393h218.229
				c4.625,0,8.393-3.76,8.393-8.393V201.443C310.557,196.809,306.789,193.049,302.164,193.049z M159.475,285.377
				c0,4.642-3.76,8.393-8.393,8.393h-50.361c-4.633,0-8.393-3.752-8.393-8.393v-67.148c0-4.642,3.76-8.393,8.393-8.393h50.361
				c4.633,0,8.393,3.752,8.393,8.393V285.377z M201.443,293.77h-16.787c-4.633,0-8.393-3.752-8.393-8.393
				c0-4.642,3.76-8.393,8.393-8.393h16.787c4.633,0,8.393,3.752,8.393,8.393C209.836,290.019,206.076,293.77,201.443,293.77z
				 M201.443,260.197h-16.787c-4.633,0-8.393-3.752-8.393-8.393c0-4.642,3.76-8.393,8.393-8.393h16.787
				c4.633,0,8.393,3.752,8.393,8.393C209.836,256.445,206.076,260.197,201.443,260.197z M201.443,226.623h-16.787
				c-4.633,0-8.393-3.752-8.393-8.393c0-4.642,3.76-8.393,8.393-8.393h16.787c4.633,0,8.393,3.752,8.393,8.393
				C209.836,222.871,206.076,226.623,201.443,226.623z M243.41,293.77h-16.787c-4.633,0-8.393-3.752-8.393-8.393
				c0-4.642,3.76-8.393,8.393-8.393h16.787c4.633,0,8.393,3.752,8.393,8.393C251.803,290.019,248.043,293.77,243.41,293.77z
				 M243.41,260.197h-16.787c-4.633,0-8.393-3.752-8.393-8.393c0-4.642,3.76-8.393,8.393-8.393h16.787
				c4.633,0,8.393,3.752,8.393,8.393C251.803,256.445,248.043,260.197,243.41,260.197z M243.41,226.623h-16.787
				c-4.633,0-8.393-3.752-8.393-8.393c0-4.642,3.76-8.393,8.393-8.393h16.787c4.633,0,8.393,3.752,8.393,8.393
				C251.803,222.871,248.043,226.623,243.41,226.623z M285.377,293.77H268.59c-4.633,0-8.393-3.752-8.393-8.393
				c0-4.642,3.76-8.393,8.393-8.393h16.787c4.633,0,8.393,3.752,8.393,8.393C293.77,290.019,290.01,293.77,285.377,293.77z
				 M285.377,260.197H268.59c-4.633,0-8.393-3.752-8.393-8.393c0-4.642,3.76-8.393,8.393-8.393h16.787
				c4.633,0,8.393,3.752,8.393,8.393C293.77,256.445,290.01,260.197,285.377,260.197z M285.377,226.623H268.59
				c-4.633,0-8.393-3.752-8.393-8.393c0-4.642,3.76-8.393,8.393-8.393h16.787c4.633,0,8.393,3.752,8.393,8.393
				C293.77,222.871,290.01,226.623,285.377,226.623z"/>
		</g>
	</g>
</g>
<g>
</g>
<g>
</g>
<g>
</g>
<g>
</g>
<g>
</g>
<g>
</g>
<g>
</g>
<g>
</g>
<g>
</g>
<g>
</g>
<g>
</g>
<g>
</g>
<g>
</g>
<g>
</g>
<g>
</g>
</svg>
