<?xml version="1.0" encoding="iso-8859-1"?>
<!-- Generator: Adobe Illustrator 19.0.0, SVG Export Plug-In . SVG Version: 6.00 Build 0)  -->
<svg version="1.1" id="Layer_1" xmlns="http://www.w3.org/2000/svg" xmlns:xlink="http://www.w3.org/1999/xlink" x="0px" y="0px"
	 viewBox="0 0 503.606 503.606" style="enable-background:new 0 0 503.606 503.606;" xml:space="preserve">
<g>
	<g>
		<g>
			<path d="M495.213,37.772h-41.984c-15.595,0-28.622,10.744-32.373,25.18h-34.757c-22.1,0-46.08,3.525-71.638,29.083
				l-28.361,28.353c-13.639-3.273-28.001-0.059-37.955,9.887l-19.062,19.07c-3.282,3.273-3.282,8.586,0,11.868l75.541,75.541
				c1.637,1.637,3.785,2.459,5.934,2.459s4.297-0.823,5.934-2.459l19.07-19.07c9.955-9.955,13.161-24.316,9.888-37.955
				l28.353-28.345c4.499-4.499,4.499-4.499,12.296-4.499h34.757c3.752,14.437,16.779,25.18,32.373,25.18h41.984
				c4.633,0,8.393-3.752,8.393-8.393V46.166C503.606,41.524,499.846,37.772,495.213,37.772z M419.672,130.1h-33.574
				c-12.137,0-15.561,0.814-24.165,9.409l-23.955,23.955c-1.578-2.258-3.332-4.365-5.279-6.303l-24.014-24.022
				c-1.947-1.939-4.054-3.71-6.32-5.288l23.963-23.947c20.119-20.127,37.787-24.165,59.77-24.165h33.574V130.1z"/>
			<path d="M241.621,208.977l-5.884,5.985c-3.248,3.299-3.206,8.612,0.101,11.868c1.628,1.603,3.752,2.409,5.884,2.409
				c2.174,0,4.339-0.839,5.984-2.51l5.884-5.985c3.248-3.299,3.206-8.612-0.101-11.868
				C250.191,205.645,244.878,205.67,241.621,208.977z"/>
			<path d="M225.786,237.05c-3.315-3.265-8.628-3.215-11.877,0.101l-10.903,11.096c-3.248,3.307-3.206,8.62,0.101,11.868
				c1.637,1.603,3.76,2.409,5.884,2.409c2.174,0,4.348-0.831,5.985-2.51l10.911-11.096
				C229.134,245.62,229.093,240.299,225.786,237.05z"/>
			<path d="M181.183,270.444l-10.911,11.096c-3.248,3.307-3.198,8.628,0.101,11.868c1.637,1.612,3.769,2.409,5.892,2.409
				c2.166,0,4.339-0.831,5.984-2.501l10.903-11.104c3.248-3.299,3.206-8.62-0.092-11.868
				C189.744,267.095,184.431,267.128,181.183,270.444z"/>
			<path d="M94.961,382.083c3.248-3.307,3.198-8.62-0.101-11.868c-3.315-3.257-8.628-3.215-11.877,0.101l-10.911,11.096
				c-3.24,3.299-3.198,8.62,0.109,11.868c1.628,1.603,3.76,2.409,5.884,2.409c2.174,0,4.339-0.839,5.984-2.51L94.961,382.083z"/>
			<path d="M115.724,337.025l-10.911,11.088c-3.248,3.307-3.206,8.62,0.101,11.868c1.637,1.612,3.76,2.409,5.884,2.409
				c2.174,0,4.339-0.831,5.984-2.501l10.911-11.096c3.248-3.299,3.206-8.612-0.101-11.868
				C124.294,333.693,118.981,333.718,115.724,337.025z"/>
			<path d="M149.515,326.599l10.903-11.096c3.257-3.307,3.206-8.628-0.092-11.868c-3.315-3.265-8.628-3.215-11.877,0.092
				l-10.911,11.105c-3.24,3.299-3.198,8.62,0.101,11.868c1.637,1.603,3.769,2.409,5.892,2.409
				C145.696,329.109,147.87,328.269,149.515,326.599z"/>
			<path d="M50.261,403.607l-5.884,5.984c-3.248,3.299-3.206,8.612,0.101,11.868c1.628,1.603,3.752,2.409,5.884,2.409
				c2.174,0,4.339-0.839,5.984-2.51l5.884-5.985c3.248-3.299,3.206-8.612-0.101-11.868C58.831,400.275,53.518,400.3,50.261,403.607z
				"/>
			<path d="M294.581,241.699c-3.718-2.753-8.981-1.972-11.742,1.729l-5.003,6.732c-2.77,3.718-1.998,8.973,1.721,11.742
				c1.511,1.116,3.265,1.654,5.003,1.654c2.568,0,5.095-1.167,6.74-3.383l5.003-6.732
				C299.071,249.723,298.299,244.468,294.581,241.699z"/>
			<path d="M272.482,271.436c-3.727-2.753-8.973-1.972-11.742,1.729l-8.545,11.499c-2.761,3.718-1.989,8.981,1.729,11.751
				c1.511,1.108,3.265,1.654,5.003,1.654c2.56,0,5.095-1.175,6.74-3.391l8.545-11.499
				C276.981,279.46,276.201,274.197,272.482,271.436z"/>
			<path d="M246.847,305.944c-3.71-2.753-8.973-1.972-11.742,1.729l-8.544,11.499c-2.761,3.718-1.989,8.981,1.729,11.751
				c1.511,1.108,3.265,1.654,5.002,1.654c2.56,0,5.095-1.175,6.74-3.391l8.544-11.499
				C251.346,313.969,250.566,308.706,246.847,305.944z"/>
			<path d="M195.572,374.96c-3.727-2.761-8.973-1.972-11.742,1.729l-8.545,11.499c-2.761,3.718-1.989,8.981,1.729,11.751
				c1.511,1.108,3.265,1.654,5.003,1.654c2.56,0,5.095-1.175,6.74-3.391l8.544-11.499
				C200.071,382.984,199.291,377.722,195.572,374.96z"/>
			<path d="M221.208,340.452c-3.718-2.761-8.973-1.972-11.742,1.729l-8.545,11.499c-2.761,3.718-1.989,8.981,1.729,11.751
				c1.511,1.108,3.265,1.654,5.003,1.654c2.56,0,5.095-1.175,6.74-3.391l8.544-11.499
				C225.707,348.477,224.926,343.214,221.208,340.452z"/>
			<path d="M169.937,409.468c-3.718-2.761-8.973-1.972-11.742,1.729l-8.545,11.499c-2.761,3.718-1.989,8.981,1.729,11.751
				c1.511,1.108,3.265,1.654,5.003,1.654c2.56,0,5.095-1.175,6.74-3.391l8.544-11.499
				C174.436,417.492,173.656,412.23,169.937,409.468z"/>
			<path d="M144.302,443.969c-3.718-2.753-8.973-1.981-11.742,1.729l-5.003,6.74c-2.77,3.718-1.989,8.981,1.729,11.742
				c1.511,1.116,3.265,1.654,5.002,1.654c2.56,0,5.095-1.167,6.74-3.383l5.003-6.74C148.801,451.993,148.02,446.73,144.302,443.969z
				"/>
			<path d="M207.388,194.804c1.788,0,3.592-0.562,5.12-1.746l6.648-5.12c3.668-2.829,4.356-8.1,1.519-11.776
				c-2.829-3.685-8.108-4.365-11.768-1.519l-6.648,5.12c-3.668,2.829-4.356,8.1-1.519,11.768
				C202.385,193.68,204.878,194.804,207.388,194.804z"/>
			<path d="M139.503,247.181c1.788,0,3.592-0.571,5.12-1.746l11.314-8.729c3.676-2.837,4.356-8.108,1.528-11.768
				c-2.845-3.685-8.108-4.348-11.776-1.528l-11.314,8.729c-3.676,2.837-4.348,8.108-1.519,11.768
				C134.508,246.056,136.993,247.181,139.503,247.181z"/>
			<path d="M173.445,220.993c1.788,0,3.592-0.571,5.12-1.746l11.314-8.729c3.676-2.837,4.356-8.108,1.528-11.768
				c-2.845-3.685-8.108-4.348-11.776-1.528l-11.314,8.729c-3.676,2.837-4.348,8.108-1.519,11.768
				C168.451,219.868,170.935,220.993,173.445,220.993z"/>
			<path d="M105.555,273.369c1.788,0,3.592-0.571,5.12-1.746l11.314-8.729c3.676-2.837,4.356-8.108,1.528-11.768
				c-2.845-3.685-8.108-4.356-11.776-1.528l-11.314,8.729c-3.676,2.837-4.348,8.108-1.519,11.768
				C100.561,272.245,103.046,273.369,105.555,273.369z"/>
			<path d="M37.671,325.747c1.788,0,3.592-0.571,5.12-1.746l11.314-8.729c3.676-2.837,4.356-8.108,1.528-11.768
				c-2.845-3.685-8.108-4.356-11.776-1.528l-11.314,8.729c-3.676,2.837-4.348,8.108-1.519,11.768
				C32.677,324.622,35.161,325.747,37.671,325.747z"/>
			<path d="M71.613,299.559c1.788,0,3.592-0.571,5.12-1.746l11.314-8.729c3.676-2.837,4.356-8.108,1.528-11.768
				c-2.845-3.685-8.108-4.348-11.776-1.528l-11.314,8.729c-3.676,2.837-4.348,8.108-1.519,11.768
				C66.619,298.434,69.103,299.559,71.613,299.559z"/>
			<path d="M21.683,329.673c-2.837-3.668-8.108-4.339-11.768-1.519l-6.648,5.137c-3.676,2.837-4.348,8.1-1.519,11.776
				c1.654,2.14,4.138,3.265,6.648,3.265c1.788,0,3.601-0.579,5.12-1.746l6.648-5.137C23.84,338.612,24.512,333.341,21.683,329.673z"
				/>
			<path d="M253.72,244.599c1.561,1.284,3.45,1.922,5.33,1.922c2.417,0,4.826-1.049,6.488-3.064l5.33-6.471
				c2.955-3.576,2.434-8.872-1.141-11.81c-3.567-2.946-8.855-2.442-11.81,1.133l-5.338,6.48
				C249.632,236.365,250.144,241.653,253.72,244.599z"/>
			<path d="M196.758,313.801c1.561,1.293,3.45,1.914,5.33,1.914c2.426,0,4.826-1.041,6.48-3.055l9.501-11.533
				c2.946-3.584,2.434-8.872-1.142-11.818c-3.592-2.946-8.872-2.442-11.818,1.142l-9.493,11.533
				C192.662,305.567,193.174,310.855,196.758,313.801z"/>
			<path d="M230.572,281.116c2.426,0,4.826-1.041,6.48-3.055l9.493-11.533c2.946-3.584,2.434-8.872-1.141-11.818
				c-3.576-2.946-8.872-2.443-11.818,1.141l-9.485,11.533c-2.954,3.584-2.443,8.872,1.141,11.818
				C226.804,280.495,228.692,281.116,230.572,281.116z"/>
			<path d="M180.092,347.254l9.493-11.533c2.946-3.584,2.434-8.872-1.141-11.818c-3.584-2.955-8.872-2.434-11.818,1.15
				l-9.493,11.533c-2.946,3.576-2.434,8.863,1.141,11.818c1.561,1.284,3.458,1.905,5.33,1.905
				C176.029,350.31,178.43,349.269,180.092,347.254z"/>
			<path d="M139.796,382.997c1.561,1.293,3.45,1.914,5.33,1.914c2.426,0,4.826-1.041,6.48-3.055l9.493-11.533
				c2.946-3.584,2.434-8.872-1.141-11.818c-3.584-2.954-8.872-2.443-11.818,1.141l-9.485,11.533
				C135.7,374.763,136.212,380.051,139.796,382.997z"/>
			<path d="M131.473,393.108c-3.567-2.963-8.872-2.451-11.818,1.142l-9.493,11.524c-2.946,3.584-2.434,8.863,1.15,11.81
				c1.561,1.284,3.45,1.922,5.33,1.922c2.417,0,4.826-1.041,6.48-3.064l9.493-11.524
				C135.561,401.333,135.049,396.054,131.473,393.108z"/>
			<path d="M102.992,427.687c-3.576-2.946-8.864-2.426-11.81,1.15l-5.338,6.48c-2.946,3.584-2.434,8.872,1.15,11.826
				c1.561,1.284,3.45,1.905,5.33,1.905c2.417,0,4.818-1.041,6.48-3.055l5.338-6.488
				C107.088,435.929,106.576,430.642,102.992,427.687z"/>
			<path d="M225.228,191.812l-6.262,5.59c-3.458,3.089-3.752,8.393-0.663,11.852c1.654,1.863,3.953,2.803,6.262,2.803
				c1.989,0,3.987-0.705,5.582-2.132l6.262-5.59c3.458-3.089,3.76-8.393,0.671-11.852
				C233.999,189.017,228.686,188.732,225.228,191.812z"/>
			<path d="M184.219,239.722c1.662,1.863,3.953,2.803,6.262,2.803c1.989,0,3.987-0.705,5.59-2.14l11.365-10.156
				c3.45-3.08,3.752-8.393,0.663-11.843c-3.097-3.466-8.393-3.76-11.852-0.663l-11.365,10.156
				C181.425,230.959,181.131,236.272,184.219,239.722z"/>
			<path d="M150.142,270.189c1.662,1.863,3.953,2.803,6.261,2.803c1.989,0,3.987-0.705,5.59-2.14l11.365-10.156
				c3.45-3.08,3.752-8.393,0.663-11.843c-3.097-3.467-8.393-3.76-11.852-0.663l-11.365,10.156
				C147.347,261.426,147.053,266.74,150.142,270.189z"/>
			<path d="M81.982,331.132c1.662,1.855,3.953,2.795,6.261,2.795c1.989,0,3.987-0.705,5.59-2.14l11.356-10.156
				c3.458-3.089,3.752-8.393,0.663-11.852c-3.089-3.45-8.393-3.752-11.852-0.655l-11.356,10.156
				C79.187,322.37,78.894,327.674,81.982,331.132z"/>
			<path d="M47.9,361.591c1.662,1.863,3.953,2.803,6.261,2.803c1.989,0,3.987-0.705,5.59-2.14l11.365-10.156
				c3.45-3.08,3.752-8.393,0.663-11.843c-3.089-3.466-8.393-3.752-11.852-0.663l-11.365,10.156
				C45.105,352.829,44.811,358.142,47.9,361.591z"/>
			<path d="M116.06,300.657c1.662,1.863,3.953,2.803,6.261,2.803c1.989,0,3.987-0.705,5.59-2.14l11.365-10.156
				c3.45-3.08,3.752-8.393,0.663-11.843c-3.097-3.475-8.393-3.76-11.852-0.663l-11.365,10.156
				C113.265,291.894,112.971,297.207,116.06,300.657z"/>
			<path d="M25.847,370.05l-6.261,5.59c-3.458,3.089-3.752,8.393-0.663,11.852c1.654,1.863,3.953,2.803,6.261,2.803
				c1.989,0,3.987-0.705,5.582-2.132l6.262-5.59c3.458-3.089,3.76-8.393,0.671-11.852C34.61,367.264,29.297,366.97,25.847,370.05z"
				/>
		</g>
	</g>
</g>
<g>
</g>
<g>
</g>
<g>
</g>
<g>
</g>
<g>
</g>
<g>
</g>
<g>
</g>
<g>
</g>
<g>
</g>
<g>
</g>
<g>
</g>
<g>
</g>
<g>
</g>
<g>
</g>
<g>
</g>
</svg>
