<?xml version="1.0" encoding="iso-8859-1"?>
<!-- Generator: Adobe Illustrator 19.0.0, SVG Export Plug-In . SVG Version: 6.00 Build 0)  -->
<svg version="1.1" id="Layer_1" xmlns="http://www.w3.org/2000/svg" xmlns:xlink="http://www.w3.org/1999/xlink" x="0px" y="0px"
	 viewBox="0 0 512 512" style="enable-background:new 0 0 512 512;" xml:space="preserve">
<g>
	<g>
		<g>
			<path d="M8.533,230.4c0,11.11,7.159,20.497,17.067,24.03V409.6C25.6,466.065,71.535,512,128,512
				c56.465,0,102.4-45.935,102.4-102.4V254.43c9.907-3.533,17.067-12.919,17.067-24.03v-25.6H8.533V230.4z M42.667,256h170.667
				v153.6c0,47.053-38.281,85.333-85.333,85.333S42.667,456.653,42.667,409.6V256z"/>
			<path d="M128,0C62.123,0,8.533,53.589,8.533,119.467v68.267h238.933v-68.267C247.467,53.589,193.877,0,128,0z"/>
			<path d="M384,0c-65.877,0-119.467,53.589-119.467,119.467v68.267h238.933v-68.267C503.467,53.589,449.877,0,384,0z"/>
			<path d="M264.533,230.4c0,11.11,7.159,20.497,17.067,24.03V409.6c0,56.465,45.935,102.4,102.4,102.4s102.4-45.935,102.4-102.4
				V254.43c9.907-3.533,17.067-12.919,17.067-24.03v-25.6H264.533V230.4z M298.667,256h170.667v153.6
				c0,47.053-38.281,85.333-85.333,85.333s-85.333-38.281-85.333-85.333V256z"/>
		</g>
	</g>
</g>
<g>
</g>
<g>
</g>
<g>
</g>
<g>
</g>
<g>
</g>
<g>
</g>
<g>
</g>
<g>
</g>
<g>
</g>
<g>
</g>
<g>
</g>
<g>
</g>
<g>
</g>
<g>
</g>
<g>
</g>
</svg>
