<?xml version="1.0" encoding="iso-8859-1"?>
<!-- Generator: Adobe Illustrator 19.0.0, SVG Export Plug-In . SVG Version: 6.00 Build 0)  -->
<svg version="1.1" id="Layer_1" xmlns="http://www.w3.org/2000/svg" xmlns:xlink="http://www.w3.org/1999/xlink" x="0px" y="0px"
	 viewBox="0 0 512.001 512.001" style="enable-background:new 0 0 512.001 512.001;" xml:space="preserve">
<g transform="translate(0 -1)">
	<g>
		<g>
			<path d="M182.237,269.943c4.799,0,8.678-3.879,8.678-8.678c0-40.231,18.25-69.424,43.39-69.424h43.39
				c3.732,0,7.055-2.386,8.227-5.927c1.189-3.541-0.026-7.437-3.003-9.685c-7.151-5.38-13.902-22.962-13.902-36.187
				c0-23.743,24.272-26.303,34.712-26.303c4.799,0,8.678-3.879,8.678-8.678c0-4.799-3.879-8.678-8.678-8.678
				c-31.631,0-52.068,17.139-52.068,43.659c0,10.596,3.063,23.708,8.539,34.443h-25.895c-35.198,0-60.746,36.5-60.746,86.78
				C173.559,266.064,177.438,269.943,182.237,269.943z"/>
			<path d="M326.297,86.977c11.681,5.111,20.818,20.68,20.818,35.441c0,19.144-15.568,34.712-34.712,34.712
				c-4.217,0-7.827,3.046-8.548,7.203c-0.72,4.165,1.657,8.235,5.641,9.65c6.5,2.308,11.585,10.153,11.585,17.859
				c0,9.572-7.784,17.356-17.356,17.356h-52.068c-21.599,0-43.39,16.098-43.39,52.068c0,4.799,3.888,8.678,8.678,8.678
				c4.799,0,8.678-3.879,8.678-8.678c0-21.738,9.737-34.712,26.034-34.712h52.068c19.144,0,34.712-15.568,34.712-34.712
				c0-7.585-2.465-15.004-6.63-21.105c19.135-7.706,32.664-26.459,32.664-48.319c0-21.834-13.121-43.424-31.206-51.339
				c-4.417-1.961-9.52,0.087-11.438,4.469S321.906,85.05,326.297,86.977z"/>
			<path d="M0,418.884c0,7.428,3.133,14.405,8.591,19.118c5.033,4.339,11.377,6.266,18.007,5.502h345.99
				c0.955,0.113,1.909,0.165,2.855,0.165c5.563,0,10.847-1.953,15.152-5.667c5.458-4.712,8.591-11.689,8.591-19.118v-10.092H0
				V418.884z"/>
			<path d="M374.723,233.192l-138.631,71.463h-71.211c-4.799,0-8.678,3.879-8.678,8.678v27.448c0,10.032-17.356,10.032-17.356,0
				v-27.448c0-4.799-3.879-8.678-8.678-8.678H95.458v-25.782c0-14.492-11.793-26.286-26.286-26.286h-34.46
				c-4.799,0-8.678,3.879-8.678,8.678v43.39c-0.425,0-0.85,0.035-1.267,0.095C10.648,306.833,0,318.592,0,332.103v59.331h399.186
				v-59.331c0-10.743-6.786-20.298-16.653-24.845l24.758-12.757L374.723,233.192z M78.102,304.655H43.39v-34.712h25.782
				c4.92,0,8.93,4.009,8.93,8.93V304.655z"/>
			<path d="M511.033,231.257l-23.856-46.28c-1.05-2.048-2.872-3.593-5.068-4.287c-2.196-0.703-4.573-0.512-6.621,0.547
				l-85.348,44.006l32.568,61.31l84.584-43.607C511.563,240.75,513.229,235.509,511.033,231.257z"/>
		</g>
	</g>
</g>
<g>
</g>
<g>
</g>
<g>
</g>
<g>
</g>
<g>
</g>
<g>
</g>
<g>
</g>
<g>
</g>
<g>
</g>
<g>
</g>
<g>
</g>
<g>
</g>
<g>
</g>
<g>
</g>
<g>
</g>
</svg>
