<?xml version="1.0" encoding="iso-8859-1"?>
<!-- Generator: Adobe Illustrator 19.0.0, SVG Export Plug-In . SVG Version: 6.00 Build 0)  -->
<svg version="1.1" id="Layer_1" xmlns="http://www.w3.org/2000/svg" xmlns:xlink="http://www.w3.org/1999/xlink" x="0px" y="0px"
	 viewBox="0 0 511.999 511.999" style="enable-background:new 0 0 511.999 511.999;" xml:space="preserve">
<g>
	<g>
		<path d="M358.405,16.883h-204.8c-18.825,0-34.133,15.309-34.133,34.133c0,18.825,15.309,34.133,34.133,34.133h68.267v34.133h25.6
			V392.35c0,22.946-8.849,44.476-24.917,60.629c-16.077,16.171-37.53,25.071-60.399,25.071h-0.017c-4.71,0-8.533,3.823-8.533,8.533
			c0,4.719,3.823,8.533,8.533,8.533h1.306h186.428c4.71,0,8.533-3.823,8.533-8.533c0-4.719-3.823-8.533-8.533-8.533h-1.195
			c-46.507-0.648-84.139-38.673-84.139-85.333v-0.077v-0.29V119.283h13.534l14.558,14.566c0.794,0.785,1.732,1.408,2.782,1.843
			c1.041,0.427,2.15,0.657,3.26,0.657h17.067c4.71,0,8.533-3.823,8.533-8.533c0-4.71-3.823-8.533-8.533-8.533h-13.534
			l-12.066-12.066V85.15h68.267c18.816,0,34.133-15.309,34.133-34.133C392.539,32.192,377.221,16.883,358.405,16.883z
			 M277.373,465.225c4.83,4.83,10.061,9.114,15.633,12.826h-74.411c16.29-10.846,29.329-26.24,37.291-44.365
			C260.929,445.333,268.165,456.009,277.373,465.225z M273.072,102.216h-34.133V85.15h34.133V102.216z"/>
	</g>
</g>
<g>
	<g>
		<path d="M136.533,196.083h-13.534l-12.066-12.066V161.95h8.533c18.825,0,34.133-15.309,34.133-34.133
			c0-18.824-15.309-34.133-34.133-34.133H34.133C15.317,93.683,0,108.992,0,127.817c0,18.825,15.317,34.133,34.133,34.133h8.533
			v34.133h25.6v239.3c0,15.249-25.412,42.667-34.133,42.667c-4.71,0-8.533,3.823-8.533,8.533c0,4.719,3.823,8.533,8.533,8.533
			h85.333c4.719,0,8.533-3.814,8.533-8.533c0-4.71-3.814-8.533-8.533-8.533c-8.721,0-34.133-27.418-34.133-42.667v-239.3h13.534
			l14.566,14.566c0.785,0.785,1.732,1.408,2.773,1.843c1.041,0.427,2.15,0.657,3.26,0.657h17.067c4.719,0,8.533-3.823,8.533-8.533
			S141.252,196.083,136.533,196.083z M90.342,478.05H63.266c5.094-5.299,9.796-11.392,13.534-17.63
			C80.546,466.658,85.248,472.751,90.342,478.05z M59.733,179.017V161.95h34.133v17.067H59.733z"/>
	</g>
</g>
<g>
	<g>
		<path d="M494.933,204.617h-13.534l-12.066-12.066v-22.067h8.533c18.825,0,34.133-15.309,34.133-34.133
			s-15.309-34.133-34.133-34.133h-85.333c-18.816,0-34.133,15.309-34.133,34.133s15.317,34.133,34.133,34.133h8.533v34.133h25.6
			v230.767c0,15.249-25.412,42.667-34.133,42.667c-4.71,0-8.533,3.823-8.533,8.533c0,4.719,3.823,8.533,8.533,8.533h85.333
			c4.719,0,8.533-3.814,8.533-8.533c0-4.71-3.814-8.533-8.533-8.533c-8.721,0-34.133-27.418-34.133-42.667V204.617h13.534
			l14.566,14.566c0.785,0.785,1.732,1.408,2.773,1.843c1.041,0.427,2.15,0.657,3.26,0.657h17.067c4.719,0,8.533-3.823,8.533-8.533
			C503.466,208.44,499.652,204.617,494.933,204.617z M448.742,478.05h-27.076c5.094-5.299,9.796-11.392,13.534-17.63
			C438.946,466.658,443.648,472.751,448.742,478.05z M452.267,187.55h-34.133v-17.067h34.133V187.55z"/>
	</g>
</g>
<g>
</g>
<g>
</g>
<g>
</g>
<g>
</g>
<g>
</g>
<g>
</g>
<g>
</g>
<g>
</g>
<g>
</g>
<g>
</g>
<g>
</g>
<g>
</g>
<g>
</g>
<g>
</g>
<g>
</g>
</svg>
