<?xml version="1.0" encoding="iso-8859-1"?>
<!-- Generator: Adobe Illustrator 19.0.0, SVG Export Plug-In . SVG Version: 6.00 Build 0)  -->
<svg version="1.1" id="Layer_1" xmlns="http://www.w3.org/2000/svg" xmlns:xlink="http://www.w3.org/1999/xlink" x="0px" y="0px"
	 viewBox="0 0 503.607 503.607" style="enable-background:new 0 0 503.607 503.607;" xml:space="preserve">
<g>
	<g>
		<g>
			<polygon points="285.377,180.459 276.984,180.459 226.623,180.459 218.23,180.459 218.23,230.82 226.623,230.82 276.984,230.82 
				285.377,230.82 			"/>
			<rect x="235.013" y="247.607" width="33.574" height="209.836"/>
			<polygon points="386.098,138.492 386.098,160.197 428.066,202.164 449.771,180.459 407.804,138.492 			"/>
			<path d="M469.907,88.131H360.918V37.77c0-13.883-11.298-25.18-25.18-25.18H167.869c-13.883,0-25.18,11.298-25.18,25.18v50.361
				H33.7c-18.583,0-33.7,15.117-33.7,33.7v301.912c0,18.583,15.117,33.7,33.7,33.7h0.722c3.903,19.129,20.858,33.574,41.12,33.574
				s37.216-14.445,41.119-33.574H218.23V247.607h-8.393c-4.633,0-8.393-3.76-8.393-8.393v-67.148c0-4.633,3.76-8.393,8.393-8.393
				h8.393v-58.754h16.787v58.754h33.574v-58.754h16.787v58.754h8.393c4.633,0,8.393,3.76,8.393,8.393v67.148
				c0,4.633-3.76,8.393-8.393,8.393h-8.393v209.836h101.569c3.903,19.129,20.858,33.574,41.119,33.574
				c20.262,0,37.217-14.445,41.12-33.574h0.722c18.583,0,33.7-15.117,33.7-33.7V121.831
				C503.607,103.248,488.49,88.131,469.907,88.131z M75.541,474.229c-10.945,0-20.279-7.017-23.745-16.787h47.49
				C95.82,467.213,86.486,474.229,75.541,474.229z M285.377,88.131H268.59h-33.574H218.23h-58.754V37.77
				c0-4.625,3.769-8.393,8.393-8.393h167.869c4.625,0,8.393,3.769,8.393,8.393v50.361h-20.262H285.377z M428.066,474.229
				c-10.945,0-20.279-7.017-23.745-16.787h47.49C448.344,467.213,439.011,474.229,428.066,474.229z M467.573,186.393L434,219.967
				c-1.637,1.637-3.785,2.459-5.934,2.459c-2.149,0-4.297-0.823-5.934-2.459l-50.361-50.361c-1.578-1.578-2.459-3.71-2.459-5.934
				v-30.099l-28.655-28.655h11.868c3.223,0,5.926-1.872,7.336-4.532l21.319,21.319h30.099c2.224,0,4.365,0.881,5.934,2.459
				l50.361,50.361C470.855,177.807,470.855,183.111,467.573,186.393z"/>
		</g>
	</g>
</g>
<g>
</g>
<g>
</g>
<g>
</g>
<g>
</g>
<g>
</g>
<g>
</g>
<g>
</g>
<g>
</g>
<g>
</g>
<g>
</g>
<g>
</g>
<g>
</g>
<g>
</g>
<g>
</g>
<g>
</g>
</svg>
