<?xml version="1.0" encoding="iso-8859-1"?>
<!-- Generator: Adobe Illustrator 19.0.0, SVG Export Plug-In . SVG Version: 6.00 Build 0)  -->
<svg version="1.1" id="Layer_1" xmlns="http://www.w3.org/2000/svg" xmlns:xlink="http://www.w3.org/1999/xlink" x="0px" y="0px"
	 viewBox="0 0 503.609 503.609" style="enable-background:new 0 0 503.609 503.609;" xml:space="preserve">
<g>
	<g>
		<g>
			<rect x="125.899" y="193.049" width="16.787" height="285.377"/>
			<rect x="209.834" y="218.229" width="83.934" height="33.574"/>
			<path d="M495.216,193.052c-0.495,0-0.99-0.05-1.477-0.134c-35.89-6.404-63.496-37.913-65.662-74.92v-8.88h-16.795v75.541
				c0,4.633-3.76,8.393-8.393,8.393h-8.393v285.377h25.18v-8.393c0-0.495,0.042-0.99,0.126-1.477
				c6.404-35.89,37.913-63.505,74.928-65.662h8.88V193.052H495.216z"/>
			<path d="M92.329,184.655v-75.541H75.542v8.393c-2.174,37.502-29.788,69.011-65.67,75.407c-0.487,0.092-0.982,0.134-1.477,0.134
				H0.001v210.046h8.393c37.519,2.174,69.028,29.696,75.407,65.46c0.092,0.487,0.134,0.982,0.134,1.477v8.393h25.18V193.049h-8.393
				C96.089,193.049,92.329,189.289,92.329,184.655z"/>
			<path d="M7.907,419.872H0v33.372c0,13.883,11.298,25.18,25.18,25.18h41.967v-7.63C61.826,442.938,37.032,421.568,7.907,419.872z"
				/>
			<path d="M360.919,50.36c0-13.883-11.298-25.18-25.18-25.18H167.87c-13.883,0-25.18,11.298-25.18,25.18v58.754h-33.574v67.148
				h8.393h33.574h8.393v-50.361h16.787v58.754c0,4.633-3.76,8.393-8.393,8.393h-8.393v285.377h184.656V193.049h-8.393
				c-4.633,0-8.393-3.76-8.393-8.393v-58.754h16.787v50.361h8.393h33.574h8.393v-67.148h-33.574V50.36z M310.558,260.196
				c0,4.633-3.76,8.393-8.393,8.393H201.443c-4.633,0-8.393-3.76-8.393-8.393v-50.361c0-4.633,3.76-8.393,8.393-8.393h100.721
				c4.633,0,8.393,3.76,8.393,8.393V260.196z M344.132,109.114h-16.787H176.263h-16.787V50.36c0-4.625,3.769-8.393,8.393-8.393
				h167.869c4.625,0,8.393,3.769,8.393,8.393V109.114z"/>
			<path d="M58.767,117.02v-7.907H25.185c-13.891,0-25.18,11.298-25.18,25.18v41.967h7.621
				C35.618,170.923,57.071,146.129,58.767,117.02z"/>
			<path d="M436.46,470.799v7.63h41.967c13.883,0,25.18-11.298,25.18-25.18v-33.574h-8.393
				C466.592,421.353,441.798,442.815,436.46,470.799z"/>
			<rect x="360.915" y="193.049" width="16.787" height="285.377"/>
			<path d="M495.978,176.262h7.63v-41.967c0-13.883-11.298-25.18-25.18-25.18h-33.574v8.393
				C446.532,146.129,467.994,170.915,495.978,176.262z"/>
		</g>
	</g>
</g>
<g>
</g>
<g>
</g>
<g>
</g>
<g>
</g>
<g>
</g>
<g>
</g>
<g>
</g>
<g>
</g>
<g>
</g>
<g>
</g>
<g>
</g>
<g>
</g>
<g>
</g>
<g>
</g>
<g>
</g>
</svg>
