<?xml version="1.0" encoding="iso-8859-1"?>
<!-- Generator: Adobe Illustrator 19.0.0, SVG Export Plug-In . SVG Version: 6.00 Build 0)  -->
<svg version="1.1" id="Layer_1" xmlns="http://www.w3.org/2000/svg" xmlns:xlink="http://www.w3.org/1999/xlink" x="0px" y="0px"
	 viewBox="0 0 503.607 503.607" style="enable-background:new 0 0 503.607 503.607;" xml:space="preserve">
<g>
	<g>
		<g>
			<path d="M310.557,58.754h41.967c4.633,0,8.393-3.752,8.393-8.393c0-4.642-3.76-8.393-8.393-8.393h-41.967
				c-4.633,0-8.393,3.752-8.393,8.393C302.164,55.002,305.924,58.754,310.557,58.754z"/>
			<path d="M276.984,117.508h-25.18c-4.633,0-8.393,3.752-8.393,8.393c0,4.642,3.76,8.393,8.393,8.393h25.18
				c4.633,0,8.393-3.752,8.393-8.393C285.377,121.26,281.617,117.508,276.984,117.508z"/>
			<path d="M386.098,117.508h-75.541c-4.633,0-8.393,3.752-8.393,8.393c0,4.642,3.76,8.393,8.393,8.393h75.541
				c4.633,0,8.393-3.752,8.393-8.393C394.492,121.26,390.732,117.508,386.098,117.508z"/>
			<path d="M386.098,83.934h-25.18c-4.633,0-8.393,3.752-8.393,8.393s3.76,8.393,8.393,8.393h25.18c4.633,0,8.393-3.752,8.393-8.393
				S390.732,83.934,386.098,83.934z"/>
			<path d="M251.803,100.721h75.541c4.633,0,8.393-3.752,8.393-8.393s-3.76-8.393-8.393-8.393h-75.541
				c-4.633,0-8.393,3.752-8.393,8.393S247.17,100.721,251.803,100.721z"/>
			<rect x="310.554" y="352.525" width="16.787" height="16.787"/>
			<rect x="310.554" y="419.672" width="16.787" height="16.787"/>
			<rect x="310.554" y="285.377" width="16.787" height="16.787"/>
			<rect x="243.406" y="285.377" width="16.787" height="16.787"/>
			<rect x="377.702" y="419.672" width="16.787" height="16.787"/>
			<rect x="243.406" y="419.672" width="16.787" height="16.787"/>
			<rect x="243.406" y="352.525" width="16.787" height="16.787"/>
			<rect x="377.702" y="352.525" width="16.787" height="16.787"/>
			<rect x="226.62" y="201.443" width="184.656" height="33.574"/>
			<path d="M438.389,151.082h-1.931V8.393c0-4.642-3.76-8.393-8.393-8.393H260.197c-0.159,0-0.302,0.084-0.453,0.092
				c-0.797,0.042-1.553,0.193-2.3,0.453c-0.235,0.084-0.47,0.151-0.697,0.252c-0.898,0.411-1.754,0.932-2.484,1.662L203.902,52.82
				c-0.722,0.722-1.234,1.561-1.645,2.459c-0.118,0.26-0.185,0.52-0.277,0.789c-0.243,0.705-0.386,1.418-0.428,2.157
				c-0.017,0.185-0.109,0.344-0.109,0.529v92.328h-25.18V92.328c0-23.141-18.826-41.967-41.967-41.967H83.934
				c-23.141,0-41.967,18.826-41.967,41.967v61.171C17.66,163.269,0,189.902,0,218.229v220.185c0,35.949,29.243,65.192,65.192,65.192
				h373.223c35.949,0,65.192-29.243,65.192-65.192V216.299C503.607,180.333,474.347,151.082,438.389,151.082z M159.475,159.475
				v268.59c0,13.883-11.298,25.18-25.18,25.18H83.934c-13.883,0-25.18-11.298-25.18-25.18v-268.59V92.328
				c0-13.883,11.298-25.18,25.18-25.18h50.361c13.883,0,25.18,11.298,25.18,25.18V159.475z M251.803,28.655v21.705h-21.705
				L251.803,28.655z M218.23,67.148h41.967c4.633,0,8.393-3.752,8.393-8.393V16.787h151.082v134.295H218.23V67.148z
				 M276.984,444.852c0,4.642-3.76,8.393-8.393,8.393h-33.574c-4.633,0-8.393-3.752-8.393-8.393v-33.574
				c0-4.642,3.76-8.393,8.393-8.393h33.574c4.633,0,8.393,3.752,8.393,8.393V444.852z M276.984,377.705
				c0,4.642-3.76,8.393-8.393,8.393h-33.574c-4.633,0-8.393-3.752-8.393-8.393v-33.574c0-4.642,3.76-8.393,8.393-8.393h33.574
				c4.633,0,8.393,3.752,8.393,8.393V377.705z M276.984,310.557c0,4.642-3.76,8.393-8.393,8.393h-33.574
				c-4.633,0-8.393-3.752-8.393-8.393v-33.574c0-4.642,3.76-8.393,8.393-8.393h33.574c4.633,0,8.393,3.752,8.393,8.393V310.557z
				 M344.131,444.852c0,4.642-3.76,8.393-8.393,8.393h-33.574c-4.633,0-8.393-3.752-8.393-8.393v-33.574
				c0-4.642,3.76-8.393,8.393-8.393h33.574c4.633,0,8.393,3.752,8.393,8.393V444.852z M344.131,377.705
				c0,4.642-3.76,8.393-8.393,8.393h-33.574c-4.633,0-8.393-3.752-8.393-8.393v-33.574c0-4.642,3.76-8.393,8.393-8.393h33.574
				c4.633,0,8.393,3.752,8.393,8.393V377.705z M344.131,310.557c0,4.642-3.76,8.393-8.393,8.393h-33.574
				c-4.633,0-8.393-3.752-8.393-8.393v-33.574c0-4.642,3.76-8.393,8.393-8.393h33.574c4.633,0,8.393,3.752,8.393,8.393V310.557z
				 M411.279,444.852c0,4.642-3.76,8.393-8.393,8.393h-33.574c-4.633,0-8.393-3.752-8.393-8.393v-33.574
				c0-4.642,3.76-8.393,8.393-8.393h33.574c4.633,0,8.393,3.752,8.393,8.393V444.852z M411.279,377.705
				c0,4.642-3.76,8.393-8.393,8.393h-33.574c-4.633,0-8.393-3.752-8.393-8.393v-33.574c0-4.642,3.76-8.393,8.393-8.393h33.574
				c4.633,0,8.393,3.752,8.393,8.393V377.705z M411.279,310.557c0,4.642-3.76,8.393-8.393,8.393h-33.574
				c-4.633,0-8.393-3.752-8.393-8.393v-33.574c0-4.642,3.76-8.393,8.393-8.393h33.574c4.633,0,8.393,3.752,8.393,8.393V310.557z
				 M428.066,243.41c0,4.642-3.76,8.393-8.393,8.393H218.23c-4.633,0-8.393-3.752-8.393-8.393v-50.361
				c0-4.642,3.76-8.393,8.393-8.393h201.443c4.633,0,8.393,3.752,8.393,8.393V243.41z"/>
			<rect x="377.702" y="285.377" width="16.787" height="16.787"/>
		</g>
	</g>
</g>
<g>
</g>
<g>
</g>
<g>
</g>
<g>
</g>
<g>
</g>
<g>
</g>
<g>
</g>
<g>
</g>
<g>
</g>
<g>
</g>
<g>
</g>
<g>
</g>
<g>
</g>
<g>
</g>
<g>
</g>
</svg>
