<?xml version="1.0" encoding="iso-8859-1"?>
<!-- Generator: Adobe Illustrator 19.0.0, SVG Export Plug-In . SVG Version: 6.00 Build 0)  -->
<svg version="1.1" id="Layer_1" xmlns="http://www.w3.org/2000/svg" xmlns:xlink="http://www.w3.org/1999/xlink" x="0px" y="0px"
	 viewBox="0 0 503.607 503.607" style="enable-background:new 0 0 503.607 503.607;" xml:space="preserve">
<g>
	<g>
		<g>
			<polygon points="318.951,251.803 318.951,285.377 352.533,285.377 352.525,251.803 			"/>
			<polygon points="318.951,335.738 318.951,369.311 352.533,369.311 352.525,335.738 			"/>
			<polygon points="411.279,419.672 411.279,453.246 444.861,453.246 444.852,419.672 			"/>
			<polygon points="411.279,335.738 411.279,369.311 444.861,369.311 444.852,335.738 			"/>
			<polygon points="318.951,419.672 318.951,453.246 352.533,453.246 352.525,419.672 			"/>
			<polygon points="226.623,419.672 226.623,453.246 260.205,453.246 260.197,419.672 			"/>
			<polygon points="226.623,335.738 226.623,369.311 260.205,369.311 260.197,335.738 			"/>
			<polygon points="411.279,251.803 411.279,285.377 444.861,285.377 444.852,251.803 			"/>
			<polygon points="226.623,251.803 226.623,285.377 260.205,285.377 260.197,251.803 			"/>
			<path d="M444.856,134.296H226.626c-4.633,0-8.393,3.76-8.393,8.393v50.361c0,4.633,3.76,8.393,8.393,8.393h218.229
				c4.625,0,8.393-3.76,8.393-8.393v-50.361C453.249,138.056,449.481,134.296,444.856,134.296z M240.971,173.787
				c-1.645,1.645-3.802,2.476-5.951,2.476c-2.14,0-4.281-0.814-5.926-2.442c-3.282-3.265-3.299-8.587-0.034-11.868l16.787-16.896
				c3.282-3.273,8.586-3.299,11.877-0.034c3.282,3.265,3.299,8.586,0.034,11.868L240.971,173.787z M274.528,190.591
				c-1.645,1.637-3.794,2.459-5.934,2.459c-2.149,0-4.297-0.823-5.943-2.459c-3.273-3.282-3.273-8.586,0-11.868l33.574-33.574
				c3.282-3.282,8.595-3.282,11.877,0c3.273,3.282,3.273,8.586,0,11.868L274.528,190.591z M324.897,190.582
				c-1.645,1.645-3.794,2.468-5.943,2.468c-2.149,0-4.289-0.823-5.934-2.451c-3.282-3.273-3.29-8.586-0.008-11.868l33.574-33.683
				c3.265-3.282,8.578-3.282,11.868-0.017c3.282,3.273,3.29,8.586,0.017,11.868L324.897,190.582z M375.249,190.591
				c-1.645,1.637-3.794,2.459-5.934,2.459c-2.149,0-4.297-0.823-5.943-2.459c-3.273-3.282-3.273-8.586,0-11.868l33.574-33.574
				c3.282-3.282,8.595-3.282,11.877,0c3.273,3.282,3.273,8.586,0,11.868L375.249,190.591z M442.413,173.787l-16.787,16.896
				c-1.645,1.645-3.802,2.476-5.951,2.476c-2.14,0-4.281-0.814-5.926-2.443c-3.282-3.265-3.299-8.586-0.034-11.868l16.787-16.896
				c3.282-3.282,8.586-3.307,11.877-0.034C445.662,165.184,445.678,170.497,442.413,173.787z"/>
			<path d="M438.415,83.934H176.262V41.967C176.262,18.826,157.436,0,134.295,0H83.934C60.794,0,41.967,18.826,41.967,41.967v46.525
				C17.014,98.052,0,121.99,0,149.126v289.288c0,35.949,29.243,65.192,65.192,65.192h373.223c35.949,0,65.192-29.243,65.192-65.192
				V149.126C503.607,113.177,474.364,83.934,438.415,83.934z M159.475,92.328v335.738c0,13.883-11.298,25.18-25.18,25.18H83.934
				c-13.883,0-25.18-11.298-25.18-25.18V94.351V41.967c0-13.883,11.298-25.18,25.18-25.18h50.361c13.883,0,25.18,11.298,25.18,25.18
				V92.328z M276.984,453.246c0,9.258-7.529,16.787-16.787,16.787h-33.574c-9.258,0-16.787-7.529-16.787-16.787v-33.574
				c0-9.258,7.529-16.787,16.787-16.787h33.574c9.258,0,16.787,7.529,16.787,16.787V453.246z M276.984,369.311
				c0,9.258-7.529,16.787-16.787,16.787h-33.574c-9.258,0-16.787-7.529-16.787-16.787v-33.574c0-9.258,7.529-16.787,16.787-16.787
				h33.574c9.258,0,16.787,7.529,16.787,16.787V369.311z M276.984,285.377c0,9.258-7.529,16.787-16.787,16.787h-33.574
				c-9.258,0-16.787-7.529-16.787-16.787v-33.574c0-9.258,7.529-16.787,16.787-16.787h33.574c9.258,0,16.787,7.529,16.787,16.787
				V285.377z M369.311,453.246c0,9.258-7.529,16.787-16.787,16.787h-33.574c-9.258,0-16.787-7.529-16.787-16.787v-33.574
				c0-9.258,7.529-16.787,16.787-16.787h33.574c9.258,0,16.787,7.529,16.787,16.787V453.246z M369.311,369.311
				c0,9.258-7.529,16.787-16.787,16.787h-33.574c-9.258,0-16.787-7.529-16.787-16.787v-33.574c0-9.258,7.529-16.787,16.787-16.787
				h33.574c9.258,0,16.787,7.529,16.787,16.787V369.311z M369.311,285.377c0,9.258-7.529,16.787-16.787,16.787h-33.574
				c-9.258,0-16.787-7.529-16.787-16.787v-33.574c0-9.258,7.529-16.787,16.787-16.787h33.574c9.258,0,16.787,7.529,16.787,16.787
				V285.377z M461.639,453.246c0,9.258-7.529,16.787-16.787,16.787h-33.574c-9.258,0-16.787-7.529-16.787-16.787v-33.574
				c0-9.258,7.529-16.787,16.787-16.787h33.574c9.258,0,16.787,7.529,16.787,16.787V453.246z M461.639,369.311
				c0,9.258-7.529,16.787-16.787,16.787h-33.574c-9.258,0-16.787-7.529-16.787-16.787v-33.574c0-9.258,7.529-16.787,16.787-16.787
				h33.574c9.258,0,16.787,7.529,16.787,16.787V369.311z M461.639,285.377c0,9.258-7.529,16.787-16.787,16.787h-33.574
				c-9.258,0-16.787-7.529-16.787-16.787v-33.574c0-9.258,7.529-16.787,16.787-16.787h33.574c9.258,0,16.787,7.529,16.787,16.787
				V285.377z M470.033,193.049c0,13.883-11.298,25.18-25.18,25.18H226.623c-13.883,0-25.18-11.298-25.18-25.18v-50.361
				c0-13.883,11.298-25.18,25.18-25.18h218.229c13.883,0,25.18,11.298,25.18,25.18V193.049z"/>
		</g>
	</g>
</g>
<g>
</g>
<g>
</g>
<g>
</g>
<g>
</g>
<g>
</g>
<g>
</g>
<g>
</g>
<g>
</g>
<g>
</g>
<g>
</g>
<g>
</g>
<g>
</g>
<g>
</g>
<g>
</g>
<g>
</g>
</svg>
