<?xml version="1.0" encoding="iso-8859-1"?>
<!-- Generator: Adobe Illustrator 19.0.0, SVG Export Plug-In . SVG Version: 6.00 Build 0)  -->
<svg version="1.1" id="Layer_1" xmlns="http://www.w3.org/2000/svg" xmlns:xlink="http://www.w3.org/1999/xlink" x="0px" y="0px"
	 viewBox="0 0 503.607 503.607" style="enable-background:new 0 0 503.607 503.607;" xml:space="preserve">
<g transform="translate(0 -1)">
	<g>
		<g>
			<path d="M318.951,168.872H83.934c-18.516,0-33.574,15.058-33.574,33.574v184.656c0,18.516,15.058,33.574,33.574,33.574h235.016
				c18.516,0,33.574-15.058,33.574-33.574V202.446C352.525,183.93,337.467,168.872,318.951,168.872z M89.869,267.134l-8.393,8.393
				c-1.637,1.637-3.785,2.459-5.934,2.459s-4.297-0.823-5.934-2.459c-3.282-3.282-3.282-8.586,0-11.868L78,255.266
				c3.282-3.282,8.586-3.282,11.868,0C93.15,258.548,93.15,263.852,89.869,267.134z M109.115,244.413
				c-4.633,0-8.393-3.76-8.393-8.393s3.76-8.393,8.393-8.393s8.393,3.76,8.393,8.393S113.748,244.413,109.115,244.413z
				 M115.049,199.987L81.475,233.56c-1.637,1.637-3.785,2.459-5.934,2.459s-4.297-0.823-5.934-2.459
				c-3.282-3.282-3.282-8.586,0-11.868l33.574-33.574c3.282-3.282,8.586-3.282,11.868,0
				C118.331,191.4,118.331,196.705,115.049,199.987z M165.41,191.593l-25.18,25.18c-1.637,1.637-3.785,2.459-5.934,2.459
				s-4.297-0.823-5.934-2.459c-3.282-3.282-3.282-8.586,0-11.868l25.18-25.18c3.282-3.282,8.586-3.282,11.868,0
				C168.691,183.007,168.691,188.311,165.41,191.593z"/>
			<rect x="402.882" y="311.561" width="50.361" height="50.361"/>
			<path d="M470.033,118.512H266.542l59.551-96.306c2.434-3.937,1.217-9.124-2.728-11.558c-3.928-2.443-9.115-1.217-11.558,2.728
				l-60.416,97.708l-68.239-98.086c-2.652-3.802-7.89-4.751-11.684-2.098c-3.802,2.644-4.751,7.881-2.098,11.684l66.728,95.929
				H33.574C15.058,118.512,0,133.569,0,152.085v285.377c0,18.516,15.058,33.574,33.574,33.574h8.393v16.787
				c0,4.642,3.752,8.393,8.393,8.393c4.642,0,8.393-3.752,8.393-8.393v-16.787h386.098v16.787c0,4.642,3.752,8.393,8.393,8.393
				s8.393-3.752,8.393-8.393v-16.787h8.393c18.516,0,33.574-15.058,33.574-33.574V152.085
				C503.607,133.569,488.549,118.512,470.033,118.512z M369.311,387.102c0,27.774-22.587,50.361-50.361,50.361H83.934
				c-27.774,0-50.361-22.587-50.361-50.361V202.446c0-27.774,22.587-50.361,50.361-50.361h235.016
				c27.774,0,50.361,22.587,50.361,50.361V387.102z M470.033,370.315c0,4.642-3.752,8.393-8.393,8.393h-67.148
				c-4.642,0-8.393-3.752-8.393-8.393v-67.148c0-4.642,3.752-8.393,8.393-8.393h67.148c4.642,0,8.393,3.752,8.393,8.393V370.315z
				 M461.639,277.987h-67.148c-4.642,0-8.393-3.752-8.393-8.393c0-4.642,3.752-8.393,8.393-8.393h67.148
				c4.642,0,8.393,3.752,8.393,8.393C470.033,274.235,466.281,277.987,461.639,277.987z M461.639,244.413h-67.148
				c-4.642,0-8.393-3.752-8.393-8.393c0-4.642,3.752-8.393,8.393-8.393h67.148c4.642,0,8.393,3.752,8.393,8.393
				C470.033,240.661,466.281,244.413,461.639,244.413z M461.639,210.839h-67.148c-4.642,0-8.393-3.752-8.393-8.393
				c0-4.642,3.752-8.393,8.393-8.393h67.148c4.642,0,8.393,3.752,8.393,8.393C470.033,207.088,466.281,210.839,461.639,210.839z"/>
		</g>
	</g>
</g>
<g>
</g>
<g>
</g>
<g>
</g>
<g>
</g>
<g>
</g>
<g>
</g>
<g>
</g>
<g>
</g>
<g>
</g>
<g>
</g>
<g>
</g>
<g>
</g>
<g>
</g>
<g>
</g>
<g>
</g>
</svg>
