<?xml version="1.0" encoding="iso-8859-1"?>
<!-- Generator: Adobe Illustrator 19.0.0, SVG Export Plug-In . SVG Version: 6.00 Build 0)  -->
<svg version="1.1" id="Layer_1" xmlns="http://www.w3.org/2000/svg" xmlns:xlink="http://www.w3.org/1999/xlink" x="0px" y="0px"
	 viewBox="0 0 512 512" style="enable-background:new 0 0 512 512;" xml:space="preserve">
<g>
	<g>
		<path d="M477.867,76.8c-15.855,0-29.107,10.914-32.922,25.6h-18.278V85.333c0-19.337-14.524-33.911-33.826-34.074
			c-0.102,0-0.196-0.06-0.307-0.06H119.467c-18.825,0-34.133,13.013-34.133,29.013V102.4H67.055
			c-3.814-14.686-17.067-25.6-32.922-25.6C15.309,76.8,0,92.109,0,110.933c0,18.825,15.309,34.133,34.133,34.133
			c15.855,0,29.107-10.914,32.922-25.6h18.278v256H358.4v17.067H85.333V435.2c0,14.114,11.486,25.6,25.6,25.6h238.933
			c14.114,0,25.6-11.486,25.6-25.6v-8.533h25.6c14.114,0,25.6-11.486,25.6-25.6v-281.6h18.278c3.814,14.686,17.067,25.6,32.922,25.6
			c18.825,0,34.133-15.309,34.133-34.133C512,92.109,496.691,76.8,477.867,76.8z M409.6,401.067c0,4.71-3.831,8.533-8.533,8.533
			h-25.6v-17.067v-17.067v-256H409.6V401.067z M409.6,102.4h-34.133V85.333c0-5.734,5.922-14.404,13.559-16.555
			c0.87-0.239,1.775-0.35,2.688-0.401c0.196-0.008,0.375-0.077,0.572-0.077h0.247c10.206,0,17.067,6.844,17.067,17.033V102.4z"/>
	</g>
</g>
<g>
</g>
<g>
</g>
<g>
</g>
<g>
</g>
<g>
</g>
<g>
</g>
<g>
</g>
<g>
</g>
<g>
</g>
<g>
</g>
<g>
</g>
<g>
</g>
<g>
</g>
<g>
</g>
<g>
</g>
</svg>
