<?xml version="1.0" encoding="iso-8859-1"?>
<!-- Generator: Adobe Illustrator 19.0.0, SVG Export Plug-In . SVG Version: 6.00 Build 0)  -->
<svg version="1.1" id="Layer_1" xmlns="http://www.w3.org/2000/svg" xmlns:xlink="http://www.w3.org/1999/xlink" x="0px" y="0px"
	 viewBox="0 0 512 512" style="enable-background:new 0 0 512 512;" xml:space="preserve">
<g>
	<g>
		<g>
			<path d="M395.17,443.733h-3.499c0.563-2.756,0.862-5.615,0.862-8.533v-17.067c0-4.719-3.814-8.533-8.533-8.533h-8.533V102.4
				c0-56.465-45.935-102.4-102.4-102.4s-102.4,45.935-102.4,102.4v51.2c-4.719,0-8.533,3.814-8.533,8.533v32.051
				C126.165,208.171,102.4,242.517,102.4,281.6V384h-8.533c-14.114,0-25.6,11.486-25.6,25.6v59.733c0,14.114,11.486,25.6,25.6,25.6
				h10.103C107.503,504.841,116.89,512,128,512h25.6v-27.145c0-13.261,10.795-24.055,24.055-24.055h37.222
				c13.261,0,24.055,10.795,24.055,24.055V512h25.6H435.2c4.719,0,8.533-3.814,8.533-8.533v-14.805
				C443.733,463.881,421.948,443.733,395.17,443.733z M102.4,477.867h-8.533c-4.71,0-8.533-3.823-8.533-8.533V409.6
				c0-4.71,3.823-8.533,8.533-8.533h8.533V477.867z M366.933,426.667h8.533v8.533c0,4.625-1.331,8.909-3.482,12.655
				c-0.026,0.043-0.068,0.077-0.094,0.119c-2.244,3.857-5.342,6.921-8.934,9.105c-0.375,0.23-0.777,0.427-1.161,0.631
				c-1.374,0.742-2.816,1.323-4.301,1.801c-0.529,0.162-1.05,0.358-1.587,0.495c-1.954,0.478-3.968,0.794-6.042,0.794
				s-4.087-0.316-6.042-0.794c-0.538-0.137-1.058-0.333-1.587-0.495c-1.485-0.478-2.927-1.058-4.301-1.801
				c-0.384-0.205-0.785-0.401-1.161-0.631c-3.593-2.185-6.69-5.248-8.934-9.105c-0.026-0.043-0.068-0.077-0.094-0.119
				c-2.15-3.746-3.482-8.03-3.482-12.655v-8.533h8.533H366.933z M179.2,200.183v-29.517h34.133v29.517v3.166
				c0,8.397-5.393,15.684-12.578,17.843c-0.162,0.043-0.316,0.111-0.478,0.145c-0.631,0.171-1.297,0.239-1.954,0.324
				c-0.529,0.06-1.058,0.145-1.596,0.162c-0.563,0.008-1.109-0.043-1.655-0.077c-0.631-0.043-1.271-0.077-1.877-0.188
				c-0.469-0.085-0.913-0.23-1.374-0.35c-0.649-0.179-1.297-0.35-1.911-0.597c-0.427-0.171-0.828-0.401-1.237-0.614
				c-0.58-0.29-1.169-0.572-1.707-0.922c-0.461-0.307-0.879-0.674-1.314-1.016c-0.435-0.358-0.896-0.683-1.306-1.084
				c-0.41-0.401-0.751-0.853-1.109-1.297c-0.367-0.427-0.759-0.836-1.084-1.297c-0.205-0.307-0.341-0.648-0.529-0.964
				c-1.502-2.543-2.423-5.461-2.423-8.619V200.183z M145.067,273.067c0-4.719,3.814-8.533,8.533-8.533h42.667
				c4.719,0,8.533,3.814,8.533,8.533c0,4.719-3.814,8.533-8.533,8.533H153.6C148.881,281.6,145.067,277.786,145.067,273.067z
				 M230.255,418.005c-4.855,5.504-11.844,8.661-19.191,8.661H181.47c-7.347,0-14.336-3.157-19.191-8.661
				c-4.864-5.504-7.117-12.834-6.212-20.113l4.267-34.133c1.596-12.783,12.518-22.426,25.404-22.426h21.06
				c12.885,0,23.808,9.643,25.404,22.426l4.267,34.133C237.372,405.171,235.119,412.501,230.255,418.005z M238.933,281.6H230.4
				c-4.719,0-8.533-3.814-8.533-8.533c0-4.719,3.814-8.533,8.533-8.533h8.533c4.719,0,8.533,3.814,8.533,8.533
				C247.467,277.786,243.652,281.6,238.933,281.6z M230.4,194.185v-32.051c0-4.719-3.814-8.533-8.533-8.533v-51.2
				c0-28.237,22.963-51.2,51.2-51.2c28.237,0,51.2,22.963,51.2,51.2v307.2c0-14.114-11.486-25.6-25.6-25.6h-8.533V281.6
				C290.133,242.517,266.368,208.171,230.4,194.185z M307.2,409.6v8.533V435.2v8.533h-2.637h-8.533c-1.963,0-3.934,0.12-5.896,0.35
				v-43.017h8.533C303.377,401.067,307.2,404.89,307.2,409.6z M426.667,494.933h-153.6v-6.272c0-2.108,0.316-4.181,0.853-6.204
				c0.111-0.444,0.316-0.853,0.452-1.288c0.512-1.579,1.135-3.123,1.946-4.599c0.239-0.427,0.512-0.836,0.768-1.254
				c0.905-1.434,1.937-2.807,3.115-4.087c0.307-0.333,0.606-0.674,0.922-0.998c1.442-1.425,3.029-2.739,4.787-3.891
				c5.24-3.439,11.657-5.538,18.654-5.538h11.17h0.179c0.486,0.648,1.041,1.229,1.57,1.852c1.306,1.545,2.688,2.987,4.207,4.335
				c0.768,0.691,1.57,1.34,2.389,1.971c1.195,0.913,2.406,1.775,3.695,2.56c1.34,0.819,2.705,1.57,4.122,2.236
				c0.853,0.401,1.707,0.785,2.594,1.135c1.997,0.785,4.045,1.434,6.153,1.911c0.555,0.128,1.126,0.205,1.69,0.307
				c2.466,0.452,4.983,0.759,7.535,0.759s5.069-0.307,7.535-0.759c0.563-0.102,1.135-0.179,1.69-0.307
				c2.108-0.478,4.156-1.126,6.153-1.911c0.888-0.35,1.741-0.734,2.594-1.135c1.417-0.666,2.782-1.417,4.122-2.236
				c1.289-0.785,2.5-1.647,3.695-2.56c0.819-0.631,1.621-1.28,2.389-1.971c1.519-1.348,2.901-2.79,4.207-4.335
				c0.529-0.623,1.084-1.203,1.57-1.852h11.349c17.365,0,31.497,12.501,31.497,27.861V494.933z"/>
			<path d="M214.874,477.867h-37.214c-3.857,0-6.997,3.132-6.997,6.989V512h51.2v-27.145
				C221.863,480.998,218.732,477.867,214.874,477.867z"/>
			<path d="M215.265,365.875c-0.529-4.258-4.173-7.475-8.465-7.475h-21.069c-4.292,0-7.927,3.217-8.465,7.475L173,400.009
				c-0.307,2.466,0.427,4.838,2.065,6.707c1.647,1.86,3.917,2.884,6.4,2.884h29.602c2.483,0,4.762-1.024,6.4-2.884
				c1.638-1.869,2.372-4.241,2.065-6.707L215.265,365.875z"/>
		</g>
	</g>
</g>
<g>
</g>
<g>
</g>
<g>
</g>
<g>
</g>
<g>
</g>
<g>
</g>
<g>
</g>
<g>
</g>
<g>
</g>
<g>
</g>
<g>
</g>
<g>
</g>
<g>
</g>
<g>
</g>
<g>
</g>
</svg>
