<?xml version="1.0" encoding="iso-8859-1"?>
<!-- Generator: Adobe Illustrator 19.0.0, SVG Export Plug-In . SVG Version: 6.00 Build 0)  -->
<svg version="1.1" id="Layer_1" xmlns="http://www.w3.org/2000/svg" xmlns:xlink="http://www.w3.org/1999/xlink" x="0px" y="0px"
	 viewBox="0 0 512 512" style="enable-background:new 0 0 512 512;" xml:space="preserve">
<g>
	<g>
		<g>
			<path d="M153.642,243.975l12.075,12.075c24.977-22.11,56.73-34.185,90.283-34.185c33.562,0,65.306,12.075,90.283,34.185
				l12.075-12.075c-28.22-25.327-64.247-39.177-102.357-39.177S181.87,218.648,153.642,243.975z"/>
			<path d="M202.016,292.35l12.134,12.134c11.93-9.31,26.505-14.353,41.847-14.353c15.343,0,29.918,5.043,41.847,14.353
				l12.134-12.134c-15.206-12.493-34.082-19.285-53.982-19.285C236.099,273.065,217.223,279.857,202.016,292.35z"/>
			<path d="M256,341.333c-9.412,0-17.067,7.654-17.067,17.067s7.654,17.067,17.067,17.067c9.412,0,17.067-7.654,17.067-17.067
				S265.412,341.333,256,341.333z"/>
			<path d="M256,0C114.842,0,0,114.842,0,256s114.842,256,256,256s256-114.842,256-256S397.158,0,256,0z M256,392.533
				c-18.825,0-34.133-15.309-34.133-34.133s15.309-34.133,34.133-34.133s34.133,15.309,34.133,34.133S274.825,392.533,256,392.533z
				 M328.371,298.095l-24.124,24.124c-1.664,1.664-3.849,2.5-6.033,2.5c-2.185,0-4.361-0.836-6.033-2.5
				C282.496,312.533,269.653,307.2,256,307.2s-26.505,5.333-36.181,15.019c-3.336,3.328-8.738,3.328-12.066,0l-24.124-24.124
				c-3.336-3.336-3.336-8.738,0-12.066C202.974,266.667,228.685,256,256,256s53.026,10.667,72.371,30.029
				C331.708,289.357,331.708,294.758,328.371,298.095z M376.627,249.839l-24.124,24.124c-1.672,1.672-3.857,2.5-6.033,2.5
				c-2.185,0-4.369-0.828-6.042-2.5c-22.588-22.588-52.574-35.029-84.429-35.029c-31.855,0-61.841,12.442-84.437,35.029
				c-3.328,3.336-8.73,3.336-12.066,0l-24.124-24.124c-3.328-3.328-3.328-8.73,0-12.066c32.265-32.265,75.11-50.039,120.627-50.039
				s88.354,17.775,120.627,50.039C379.955,241.109,379.955,246.511,376.627,249.839z M424.875,201.591l-24.124,24.124
				c-1.664,1.664-3.849,2.5-6.033,2.5c-2.185,0-4.369-0.836-6.033-2.5c-35.499-35.499-82.628-55.049-132.685-55.049
				c-50.057,0-97.186,19.55-132.685,55.049c-3.328,3.337-8.73,3.337-12.066,0l-24.124-24.124c-1.604-1.596-2.5-3.763-2.5-6.033
				s0.896-4.437,2.5-6.033C132.309,144.35,192.282,119.467,256,119.467s123.691,24.883,168.875,70.059
				c1.596,1.596,2.5,3.763,2.5,6.033S426.47,199.996,424.875,201.591z"/>
			<path d="M105.341,195.675l12.066,12.058c37.931-34.978,86.818-54.135,138.59-54.135c51.78,0,100.659,19.157,138.59,54.135
				l12.075-12.058c-41.182-38.212-94.353-59.145-150.665-59.145C199.695,136.531,146.515,157.463,105.341,195.675z"/>
		</g>
	</g>
</g>
<g>
</g>
<g>
</g>
<g>
</g>
<g>
</g>
<g>
</g>
<g>
</g>
<g>
</g>
<g>
</g>
<g>
</g>
<g>
</g>
<g>
</g>
<g>
</g>
<g>
</g>
<g>
</g>
<g>
</g>
</svg>
