<?xml version="1.0" encoding="iso-8859-1"?>
<!-- Generator: Adobe Illustrator 19.0.0, SVG Export Plug-In . SVG Version: 6.00 Build 0)  -->
<svg version="1.1" id="Capa_1" xmlns="http://www.w3.org/2000/svg" xmlns:xlink="http://www.w3.org/1999/xlink" x="0px" y="0px"
	 viewBox="0 0 512 512" style="enable-background:new 0 0 512 512;" xml:space="preserve">
<g>
	<g>
		<path d="M480,175.998H32c-17.643,0-32,14.357-32,32s14.357,32,32,32h448c17.643,0,32-14.357,32-32S497.643,175.998,480,175.998z
			 M480,218.665H32c-5.867,0-10.667-4.779-10.667-10.667s4.8-10.667,10.667-10.667h448c5.867,0,10.667,4.779,10.667,10.667
			S485.867,218.665,480,218.665z"/>
	</g>
</g>
<g>
	<g>
		<path d="M482.944,219.07c-5.76-1.621-11.584,1.685-13.184,7.339l-29.397,102.912c-6.507,22.763-27.605,38.677-51.285,38.677
			H122.944c-23.68,0-44.757-15.915-51.285-38.677L42.261,226.409c-1.6-5.653-7.467-8.96-13.184-7.339
			c-5.675,1.621-8.939,7.509-7.317,13.184l29.397,102.912c9.109,31.893,38.613,54.165,71.787,54.165h266.112
			c33.173,0,62.699-22.272,71.808-54.165l29.397-102.912C491.883,226.601,488.619,220.691,482.944,219.07z"/>
	</g>
</g>
<g>
	<g>
		<path d="M122.944,325.353c-4.736,0-8.939-3.2-10.261-7.744l-13.845-48.512c-1.621-5.675-7.445-8.917-13.184-7.339
			c-5.653,1.621-8.939,7.509-7.317,13.184l13.845,48.512c3.883,13.675,16.555,23.211,30.763,23.211
			c5.888,0,10.667-4.757,10.667-10.645C133.611,330.131,128.832,325.353,122.944,325.353z"/>
	</g>
</g>
<g>
	<g>
		<path d="M143.424,369.107c-5.269-2.581-11.648-0.512-14.315,4.779l-21.333,42.667c-2.624,5.269-0.491,11.669,4.779,14.315
			c1.557,0.768,3.179,1.131,4.779,1.131c3.904,0,7.659-2.155,9.536-5.909l21.333-42.667
			C150.827,378.153,148.693,371.753,143.424,369.107z"/>
	</g>
</g>
<g>
	<g>
		<path d="M404.224,416.574l-21.333-42.667c-2.645-5.291-9.045-7.403-14.315-4.779c-5.269,2.645-7.403,9.045-4.779,14.315
			l21.333,42.667c1.877,3.733,5.632,5.888,9.536,5.888c1.6,0,3.221-0.363,4.779-1.109
			C404.715,428.243,406.848,421.843,404.224,416.574z"/>
	</g>
</g>
<g>
	<g>
		<path d="M146.219,136.446l-21.333-21.333c-2.859-2.837-7.061-3.861-10.923-2.56l-64,21.333c-4.352,1.451-7.296,5.525-7.296,10.112
			v42.667c0,5.888,4.779,10.667,10.667,10.667S64,192.553,64,186.665v-34.987l50.453-16.811l16.683,16.661
			c4.16,4.16,10.923,4.16,15.083,0C150.379,147.369,150.379,140.606,146.219,136.446z"/>
	</g>
</g>
<g>
	<g>
		<path d="M96,122.665c-5.888,0-10.667,4.779-10.667,10.667v53.333c0,5.888,4.779,10.667,10.667,10.667s10.667-4.779,10.667-10.667
			v-53.333C106.667,127.443,101.888,122.665,96,122.665z"/>
	</g>
</g>
<g>
	<g>
		<path d="M105.536,85.886c-2.645-5.269-9.024-7.381-14.315-4.757L69.888,91.795C66.283,93.609,64,97.278,64,101.331v32
			c0,5.888,4.779,10.667,10.667,10.667s10.667-4.779,10.667-10.667v-25.408l15.445-7.723
			C106.048,97.577,108.16,91.155,105.536,85.886z"/>
	</g>
</g>
<g>
</g>
<g>
</g>
<g>
</g>
<g>
</g>
<g>
</g>
<g>
</g>
<g>
</g>
<g>
</g>
<g>
</g>
<g>
</g>
<g>
</g>
<g>
</g>
<g>
</g>
<g>
</g>
<g>
</g>
</svg>
