<?xml version="1.0" encoding="iso-8859-1"?>
<!-- Generator: Adobe Illustrator 19.0.0, SVG Export Plug-In . SVG Version: 6.00 Build 0)  -->
<svg version="1.1" id="Capa_1" xmlns="http://www.w3.org/2000/svg" xmlns:xlink="http://www.w3.org/1999/xlink" x="0px" y="0px"
	 viewBox="0 0 512 512" style="enable-background:new 0 0 512 512;" xml:space="preserve">
<g>
	<g>
		<path d="M373.333,64H160c-41.173,0-74.667,33.493-74.667,74.667v298.667C85.333,443.221,90.112,448,96,448h234.667
			c5.888,0,10.667-4.779,10.667-10.667v-320c0-17.643,14.357-32,32-32c5.888,0,10.667-4.779,10.667-10.667S379.221,64,373.333,64z
			 M320,117.333v309.333H106.667v-288c0-29.397,23.915-53.333,53.333-53.333h170.688C323.989,94.251,320,105.323,320,117.333z"/>
	</g>
</g>
<g>
	<g>
		<path d="M373.333,64c-5.888,0-10.667,4.779-10.667,10.667s4.779,10.667,10.667,10.667c17.643,0,32,14.357,32,32
			c0,5.888,4.779,10.667,10.667,10.667c5.888,0,10.667-4.779,10.667-10.667C426.667,87.936,402.752,64,373.333,64z"/>
	</g>
</g>
<g>
	<g>
		<path d="M330.667,362.667H96c-5.888,0-10.667,4.779-10.667,10.667C85.333,379.221,90.112,384,96,384h234.667
			c5.888,0,10.667-4.779,10.667-10.667C341.333,367.445,336.555,362.667,330.667,362.667z"/>
	</g>
</g>
<g>
	<g>
		<path d="M330.667,320H96c-5.888,0-10.667,4.779-10.667,10.667S90.112,341.333,96,341.333h234.667
			c5.888,0,10.667-4.779,10.667-10.667S336.555,320,330.667,320z"/>
	</g>
</g>
<g>
	<g>
		<path d="M458.667,106.667h-128c-5.888,0-10.667,4.779-10.667,10.667S324.779,128,330.667,128h128
			c5.888,0,10.667-4.779,10.667-10.667S464.555,106.667,458.667,106.667z"/>
	</g>
</g>
<g>
	<g>
		<path d="M96,106.667H53.333c-5.888,0-10.667,4.779-10.667,10.667S47.445,128,53.333,128H96c5.888,0,10.667-4.779,10.667-10.667
			S101.888,106.667,96,106.667z"/>
	</g>
</g>
<g>
	<g>
		<path d="M32,85.333c-17.643,0-32,14.357-32,32c0,17.643,14.357,32,32,32s32-14.357,32-32C64,99.691,49.643,85.333,32,85.333z
			 M32,128c-5.867,0-10.667-4.779-10.667-10.667s4.8-10.667,10.667-10.667s10.667,4.779,10.667,10.667S37.867,128,32,128z"/>
	</g>
</g>
<g>
	<g>
		<path d="M480,85.333c-17.643,0-32,14.357-32,32c0,17.643,14.357,32,32,32c17.643,0,32-14.357,32-32
			C512,99.691,497.643,85.333,480,85.333z M480,128c-5.867,0-10.667-4.779-10.667-10.667s4.8-10.667,10.667-10.667
			c5.867,0,10.667,4.779,10.667,10.667S485.867,128,480,128z"/>
	</g>
</g>
<g>
	<g>
		<path d="M416,106.667c-5.888,0-10.667,4.779-10.667,10.667V256h-74.667c-5.888,0-10.667,4.779-10.667,10.667
			s4.779,10.667,10.667,10.667H416c5.888,0,10.667-4.779,10.667-10.667V117.333C426.667,111.445,421.888,106.667,416,106.667z"/>
	</g>
</g>
<g>
	<g>
		<path d="M416,192h-85.333c-5.888,0-10.667,4.779-10.667,10.667s4.779,10.667,10.667,10.667H416
			c5.888,0,10.667-4.779,10.667-10.667S421.888,192,416,192z"/>
	</g>
</g>
<g>
</g>
<g>
</g>
<g>
</g>
<g>
</g>
<g>
</g>
<g>
</g>
<g>
</g>
<g>
</g>
<g>
</g>
<g>
</g>
<g>
</g>
<g>
</g>
<g>
</g>
<g>
</g>
<g>
</g>
</svg>
