<?xml version="1.0" encoding="iso-8859-1"?>
<!-- Generator: Adobe Illustrator 19.0.0, SVG Export Plug-In . SVG Version: 6.00 Build 0)  -->
<svg version="1.1" id="Capa_1" xmlns="http://www.w3.org/2000/svg" xmlns:xlink="http://www.w3.org/1999/xlink" x="0px" y="0px"
	 viewBox="0 0 512 512" style="enable-background:new 0 0 512 512;" xml:space="preserve">
<g>
	<g>
		<path d="M397.163,10.667C391.104,3.883,382.421,0,373.333,0H138.667c-9.088,0-17.771,3.904-23.829,10.667
			c-6.059,6.763-8.981,15.829-7.979,24.853l16.597,149.333c1.792,16.235,15.445,28.48,31.808,28.48h201.472
			c16.341,0,30.016-12.245,31.808-28.459l16.597-149.333C406.144,26.496,403.221,17.451,397.163,10.667z M383.915,33.195
			l-16.597,149.333c-0.576,5.397-5.141,9.472-10.603,9.472H155.264c-5.461,0-10.005-4.075-10.603-9.472L128.064,33.195
			c-0.341-3.072,0.597-6.016,2.667-8.299c2.048-2.304,4.864-3.563,7.936-3.563h234.667c3.072,0,5.888,1.259,7.915,3.563
			C383.317,27.2,384.256,30.144,383.915,33.195z"/>
	</g>
</g>
<g>
	<g>
		<path d="M202.667,42.667c-17.643,0-32,14.357-32,32c0,17.643,14.357,32,32,32c17.643,0,32-14.357,32-32
			C234.667,57.024,220.309,42.667,202.667,42.667z M202.667,85.333C196.8,85.333,192,80.555,192,74.667S196.8,64,202.667,64
			c5.867,0,10.667,4.779,10.667,10.667S208.533,85.333,202.667,85.333z"/>
	</g>
</g>
<g>
	<g>
		<path d="M266.667,42.667h-64c-5.888,0-10.667,4.779-10.667,10.667S196.779,64,202.667,64h64c5.888,0,10.667-4.779,10.667-10.667
			S272.555,42.667,266.667,42.667z"/>
	</g>
</g>
<g>
	<g>
		<path d="M106.667,288c0,35.008,75.115,53.333,149.333,53.333S405.333,323.008,405.333,288
			C405.333,217.984,106.667,217.984,106.667,288z M256,320c-79.403,0-128-20.715-128-32s48.597-32,128-32s128,20.715,128,32
			S335.403,320,256,320z"/>
	</g>
</g>
<g>
	<g>
		<path d="M394.667,277.333c-5.888,0-10.667,4.779-10.667,10.667c0,67.989-53.824,117.333-128,117.333S128,355.989,128,288
			c0-5.888-4.779-10.667-10.667-10.667s-10.667,4.779-10.667,10.667c0,79.061,64.213,138.667,149.333,138.667
			S405.333,367.061,405.333,288C405.333,282.112,400.555,277.333,394.667,277.333z"/>
	</g>
</g>
<g>
	<g>
		<path d="M334.4,472.235l-14.699-58.816c-1.429-5.717-7.296-9.259-12.928-7.765c-5.717,1.429-9.173,7.211-7.765,12.928
			l14.699,58.816c0.811,3.221,0.107,6.549-1.941,9.173c-2.048,2.603-5.12,4.096-8.427,4.096h-94.677
			c-3.307,0-6.379-1.493-8.427-4.096c-2.048-2.624-2.752-5.973-1.941-9.173l14.699-58.816c1.429-5.717-2.027-11.499-7.765-12.928
			c-5.611-1.472-11.52,2.048-12.928,7.765L177.6,472.256c-2.411,9.621-0.277,19.627,5.824,27.456
			C189.547,507.52,198.741,512,208.661,512h94.677c9.92,0,19.093-4.48,25.237-12.288C334.677,491.883,336.789,481.877,334.4,472.235
			z"/>
	</g>
</g>
<g>
	<g>
		<path d="M202.667,192c-5.888,0-10.667,4.779-10.667,10.667v42.667c0,5.888,4.779,10.667,10.667,10.667s10.667-4.779,10.667-10.667
			v-42.667C213.333,196.779,208.555,192,202.667,192z"/>
	</g>
</g>
<g>
	<g>
		<path d="M309.333,192c-5.888,0-10.667,4.779-10.667,10.667v42.667c0,5.888,4.779,10.667,10.667,10.667S320,251.221,320,245.333
			v-42.667C320,196.779,315.221,192,309.333,192z"/>
	</g>
</g>
<g>
</g>
<g>
</g>
<g>
</g>
<g>
</g>
<g>
</g>
<g>
</g>
<g>
</g>
<g>
</g>
<g>
</g>
<g>
</g>
<g>
</g>
<g>
</g>
<g>
</g>
<g>
</g>
<g>
</g>
</svg>
