<?xml version="1.0" encoding="iso-8859-1"?>
<!-- Generator: Adobe Illustrator 19.0.0, SVG Export Plug-In . SVG Version: 6.00 Build 0)  -->
<svg version="1.1" id="Capa_1" xmlns="http://www.w3.org/2000/svg" xmlns:xlink="http://www.w3.org/1999/xlink" x="0px" y="0px"
	 viewBox="0 0 512 512" style="enable-background:new 0 0 512 512;" xml:space="preserve">
<g>
	<g>
		<path d="M502.741,130.496C435.776,67.051,348.16,32.107,256,32.107S76.224,67.051,9.045,130.688C3.2,136.533,0,144.363,0,152.747
			c0,8.448,3.371,16.491,9.045,21.867l50.709,50.688c11.669,11.648,32.832,11.328,43.605,0.491
			c15.872-14.677,33.344-26.816,51.797-36.053c11.435-5.547,15.509-19.051,15.509-29.845v-56.021
			c27.221-7.317,58.133-7.979,85.333-7.979c28.821,0,58.965,0.661,85.333,7.915v56.085c0,14.165,5.717,25.408,15.189,30.016
			c19.285,9.643,36.821,21.781,52.011,36.011c5.824,5.483,13.696,8.64,21.653,8.64c8.384,0,16.213-3.221,22.059-9.045l50.709-50.709
			c5.824-5.845,9.045-13.675,9.045-22.059C512,144.384,508.8,136.555,502.741,130.496z M487.872,159.701l-50.709,50.709
			c-3.541,3.52-10.027,3.712-13.995-0.043c-16.768-15.68-35.968-28.992-57.216-39.616c-1.323-0.64-3.285-4.544-3.285-10.859v-64
			c0-4.587-2.944-8.661-7.296-10.112C324.331,75.435,289.259,74.56,256,74.56c-31.339,0-67.435,0.875-99.285,11.2
			c-4.395,1.429-7.381,5.525-7.381,10.133v64c0,5.867-2.027,9.963-3.584,10.709c-20.395,10.197-39.509,23.488-57.152,39.829
			c-3.349,3.349-10.112,3.392-13.739-0.213l-50.923-50.901c-1.664-1.557-2.603-3.947-2.603-6.571c0-2.688,1.003-5.163,2.603-6.763
			C86.912,86.293,169.323,53.44,256,53.44s169.088,32.853,231.851,92.309c1.813,1.835,2.816,4.309,2.816,6.997
			C490.667,155.435,489.664,157.909,487.872,159.701z"/>
	</g>
</g>
<g>
	<g>
		<path d="M256,245.227c-23.531,0-42.667,19.136-42.667,42.667c0,23.531,19.136,42.667,42.667,42.667s42.667-19.136,42.667-42.667
			C298.667,264.363,279.531,245.227,256,245.227z M256,309.227c-11.755,0-21.333-9.579-21.333-21.333
			c0-11.755,9.579-21.333,21.333-21.333s21.333,9.579,21.333,21.333C277.333,299.648,267.755,309.227,256,309.227z"/>
	</g>
</g>
<g>
	<g>
		<path d="M256,159.893c-70.592,0-128,57.408-128,128c0,70.592,57.408,128,128,128c20.757,0,40.64-4.885,59.115-14.507
			c5.227-2.731,7.232-9.173,4.523-14.4c-2.731-5.205-9.152-7.232-14.4-4.523C289.835,390.485,273.28,394.56,256,394.56
			c-58.816,0-106.667-47.851-106.667-106.667S197.184,181.227,256,181.227s106.667,47.851,106.667,106.667
			c0,28.416-11.051,55.147-31.104,75.243c-4.16,4.181-4.139,10.944,0.021,15.104c4.181,4.181,10.944,4.16,15.083-0.021
			C370.752,354.048,384,321.984,384,287.893C384,217.301,326.592,159.893,256,159.893z"/>
	</g>
</g>
<g>
	<g>
		<path d="M373.355,351.872c-7.893,0-15.403,2.325-23.36,4.779c-16.256,4.992-33.067,10.197-56.683-3.349
			c-3.307-1.899-7.36-1.899-10.645,0.021c-3.307,1.92-5.333,5.44-5.333,9.237c0,50.368,86.016,53.184,95.829,53.333
			c0.064,0,0.128,0,0.171,0c2.795,0,5.483-1.088,7.509-3.093c2.027-2.005,3.179-4.736,3.179-7.595v-42.667
			C384.021,356.651,379.243,351.872,373.355,351.872z M362.667,393.963c-13.909-1.216-33.237-4.373-47.019-11.029
			c16.149,1.643,29.675-2.496,40.619-5.888c2.24-0.683,4.373-1.344,6.4-1.92V393.963z"/>
	</g>
</g>
<g>
	<g>
		<path d="M456.939,335.275l-30.336-60.693c-1.387-28.181-24.747-50.688-53.269-50.688h-10.667c-5.888,0-10.667,4.779-10.667,10.667
			s4.779,10.667,10.667,10.667h10.667c17.643,0,32,14.357,32,32c0,1.664,0.384,3.307,1.131,4.8l31.403,62.805
			C444.501,358.08,448,372.928,448,387.755v70.827H64v-70.827c0-14.827,3.499-29.675,10.133-42.944l31.403-62.805
			c0.747-1.493,1.131-3.115,1.131-4.779c0-17.643,14.357-32,32-32h10.667c5.888,0,10.667-4.779,10.667-10.667
			s-4.779-10.667-10.667-10.667h-10.667c-28.523,0-51.883,22.507-53.269,50.688l-30.336,60.693
			c-8.107,16.192-12.395,34.347-12.395,52.459v81.493c0,5.888,4.779,10.667,10.667,10.667h405.333
			c5.888,0,10.667-4.757,10.667-10.667v-81.493C469.333,369.621,465.045,351.488,456.939,335.275z"/>
	</g>
</g>
<g>
</g>
<g>
</g>
<g>
</g>
<g>
</g>
<g>
</g>
<g>
</g>
<g>
</g>
<g>
</g>
<g>
</g>
<g>
</g>
<g>
</g>
<g>
</g>
<g>
</g>
<g>
</g>
<g>
</g>
</svg>
