<?xml version="1.0" encoding="iso-8859-1"?>
<!-- Generator: Adobe Illustrator 19.0.0, SVG Export Plug-In . SVG Version: 6.00 Build 0)  -->
<svg version="1.1" id="Capa_1" xmlns="http://www.w3.org/2000/svg" xmlns:xlink="http://www.w3.org/1999/xlink" x="0px" y="0px"
	 viewBox="0 0 490.667 490.667" style="enable-background:new 0 0 490.667 490.667;" xml:space="preserve">
<g>
	<g>
		<path d="M454.421,174.869L287.36,74.645C275.755,67.669,262.464,64,248.939,64h-7.211c-13.525,0-26.816,3.669-38.421,10.645
			L38.997,173.227c-10.432,6.272-16.661,17.259-16.661,29.44c0,2.752,0.32,5.419,0.939,8.021c-2.219,0.683-4.373,1.621-6.464,2.816
			C6.272,219.477,0,230.251,0,242.325v9.429c0,26.069,13.888,50.624,36.245,64.043l167.061,100.224
			c11.605,6.976,24.896,10.645,38.421,10.645h8.491c12.544,0,25.003-3.2,35.989-9.28l165.781-91.157
			c23.851-13.12,38.677-38.208,38.677-65.429v-21.909C490.667,212.821,476.779,188.288,454.421,174.869z M469.355,260.8
			c0,19.456-10.581,37.376-27.627,46.741l-165.781,91.157c-7.872,4.331-16.747,6.613-25.707,6.613h-8.491
			c-9.664,0-19.136-2.624-27.435-7.595L47.253,297.493c-15.979-9.579-25.899-27.115-25.899-45.739v-9.429
			c0-6.187,4.181-9.216,5.973-10.24c1.067-0.619,3.2-1.579,5.867-1.579c1.813,0,3.861,0.427,5.995,1.707
			c0.064,0.043,0.128,0.085,0.171,0.107l163.947,98.325c11.605,6.976,24.896,10.645,38.421,10.645h7.936
			c12.992,0,25.792-3.392,37.056-9.835l134.571-76.885c5.12-2.923,6.891-9.429,3.968-14.549s-9.429-6.933-14.549-3.968
			l-134.571,76.885c-8.064,4.608-17.195,7.04-26.475,7.04h-7.936c-9.664,0-19.136-2.624-27.435-7.595L49.984,213.803
			c-4.011-2.389-6.315-6.464-6.315-11.136s2.304-8.747,6.315-11.136l164.309-98.603c8.299-4.971,17.771-7.595,27.435-7.595h7.211
			c9.664,0,19.136,2.624,27.456,7.595l167.061,100.224c15.979,9.579,25.899,27.115,25.899,45.739V260.8z"/>
	</g>
</g>
<g>
	<g>
		<path d="M316.843,164.48c-2.005-2.005-4.715-3.115-7.531-3.115c-0.021,0-0.043,0-0.043,0c-2.347,0-18.389,0.32-33.899,6.528
			c-5.461-19.243-20.459-34.731-22.507-36.779c-4.16-4.16-10.923-4.16-15.083,0c-2.027,2.048-16.853,17.323-22.379,36.373
			c-16.277-6.144-32.192-6.4-32.704-6.123c-2.816,0-5.525,1.131-7.531,3.115s-3.136,4.715-3.136,7.552
			c0,3.541,0.512,35.093,18.219,52.8c9.643,9.643,32.704,14.464,55.765,14.464s46.123-4.821,55.765-14.464
			c17.707-17.707,18.219-49.259,18.219-52.8C320,169.195,318.869,166.485,316.843,164.48z M286.699,209.749
			c-11.008,11.029-70.336,11.029-81.365,0c-6.229-6.251-9.365-17.024-10.837-25.856c7.701,1.323,16.981,3.947,23.424,8.875
			c3.392,2.603,7.872,2.069,11.563-0.064c3.733-2.112,5.653-7.125,5.184-11.371c0-8.832,5.419-18.688,10.624-25.984
			c5.205,7.381,10.624,17.557,10.496,27.221c-0.021,0.085-0.213,1.152-0.213,1.237c-0.704,4.416,1.408,8.811,5.312,11.008
			c3.925,2.197,8.768,1.728,12.16-1.195c6.357-5.44,16.277-8.32,24.469-9.707C296.043,192.704,292.907,203.541,286.699,209.749z"/>
	</g>
</g>
<g>
</g>
<g>
</g>
<g>
</g>
<g>
</g>
<g>
</g>
<g>
</g>
<g>
</g>
<g>
</g>
<g>
</g>
<g>
</g>
<g>
</g>
<g>
</g>
<g>
</g>
<g>
</g>
<g>
</g>
</svg>
