<?xml version="1.0" encoding="iso-8859-1"?>
<!-- Generator: Adobe Illustrator 19.0.0, SVG Export Plug-In . SVG Version: 6.00 Build 0)  -->
<svg version="1.1" id="Capa_1" xmlns="http://www.w3.org/2000/svg" xmlns:xlink="http://www.w3.org/1999/xlink" x="0px" y="0px"
	 viewBox="0 0 512 512" style="enable-background:new 0 0 512 512;" xml:space="preserve">
<g>
	<g>
		<path d="M480,106.667H32c-17.643,0-32,14.357-32,32v298.667c0,17.643,14.357,32,32,32h448c17.643,0,32-14.357,32-32V138.667
			C512,121.024,497.643,106.667,480,106.667z M490.667,437.333c0,5.888-4.8,10.667-10.667,10.667H32
			c-5.867,0-10.667-4.779-10.667-10.667V138.667c0-5.888,4.8-10.667,10.667-10.667h448c5.867,0,10.667,4.779,10.667,10.667V437.333z
			"/>
	</g>
</g>
<g>
	<g>
		<path d="M330.667,42.667H181.333c-17.643,0-32,14.357-32,32v42.667c0,5.888,4.779,10.667,10.667,10.667h192
			c5.888,0,10.667-4.779,10.667-10.667V74.667C362.667,57.024,348.309,42.667,330.667,42.667z M341.333,106.667H170.667v-32
			c0-5.888,4.8-10.667,10.667-10.667h149.333c5.867,0,10.667,4.779,10.667,10.667V106.667z"/>
	</g>
</g>
<g>
	<g>
		<path d="M181.333,106.667c-5.888,0-10.667,4.779-10.667,10.667v53.333h-64v-53.333c0-5.888-4.779-10.667-10.667-10.667
			s-10.667,4.779-10.667,10.667v64C85.333,187.221,90.112,192,96,192h85.333c5.888,0,10.667-4.779,10.667-10.667v-64
			C192,111.445,187.221,106.667,181.333,106.667z"/>
	</g>
</g>
<g>
	<g>
		<path d="M416,106.667c-5.888,0-10.667,4.779-10.667,10.667v53.333h-64v-53.333c0-5.888-4.779-10.667-10.667-10.667
			S320,111.445,320,117.333v64c0,5.888,4.779,10.667,10.667,10.667H416c5.888,0,10.667-4.779,10.667-10.667v-64
			C426.667,111.445,421.888,106.667,416,106.667z"/>
	</g>
</g>
<g>
	<g>
		<path d="M160,170.667h-42.667c-5.888,0-10.667,4.779-10.667,10.667v277.333c0,5.888,4.779,10.667,10.667,10.667H160
			c5.888,0,10.667-4.779,10.667-10.667V181.333C170.667,175.445,165.888,170.667,160,170.667z M149.333,448H128V192h21.333V448z"/>
	</g>
</g>
<g>
	<g>
		<path d="M394.667,170.667H352c-5.888,0-10.667,4.779-10.667,10.667v277.333c0,5.888,4.779,10.667,10.667,10.667h42.667
			c5.888,0,10.667-4.779,10.667-10.667V181.333C405.333,175.445,400.555,170.667,394.667,170.667z M384,448h-21.333V192H384V448z"/>
	</g>
</g>
<g>
	<g>
		<path d="M53.333,106.667c-5.888,0-10.667,4.779-10.667,10.667v21.333c0,5.888-4.8,10.667-10.667,10.667H10.667
			C4.779,149.333,0,154.112,0,160s4.779,10.667,10.667,10.667H32c17.643,0,32-14.357,32-32v-21.333
			C64,111.445,59.221,106.667,53.333,106.667z"/>
	</g>
</g>
<g>
	<g>
		<path d="M32,405.333H10.667C4.779,405.333,0,410.112,0,416c0,5.888,4.779,10.667,10.667,10.667H32
			c5.867,0,10.667,4.779,10.667,10.667v21.333c0,5.888,4.779,10.667,10.667,10.667S64,464.555,64,458.667v-21.333
			C64,419.691,49.643,405.333,32,405.333z"/>
	</g>
</g>
<g>
	<g>
		<path d="M501.333,405.333H480c-17.643,0-32,14.357-32,32v21.333c0,5.888,4.779,10.667,10.667,10.667s10.667-4.779,10.667-10.667
			v-21.333c0-5.888,4.8-10.667,10.667-10.667h21.333c5.888,0,10.667-4.779,10.667-10.667
			C512,410.112,507.221,405.333,501.333,405.333z"/>
	</g>
</g>
<g>
	<g>
		<path d="M501.333,149.333H480c-5.867,0-10.667-4.779-10.667-10.667v-21.333c0-5.888-4.779-10.667-10.667-10.667
			S448,111.445,448,117.333v21.333c0,17.643,14.357,32,32,32h21.333c5.888,0,10.667-4.779,10.667-10.667
			S507.221,149.333,501.333,149.333z"/>
	</g>
</g>
<g>
	<g>
		<path d="M309.333,213.333H202.667c-5.888,0-10.667,4.779-10.667,10.667v64c0,5.888,4.779,10.667,10.667,10.667h106.667
			c5.888,0,10.667-4.779,10.667-10.667v-64C320,218.112,315.221,213.333,309.333,213.333z M298.667,277.333h-85.333v-42.667h85.333
			V277.333z"/>
	</g>
</g>
<g>
</g>
<g>
</g>
<g>
</g>
<g>
</g>
<g>
</g>
<g>
</g>
<g>
</g>
<g>
</g>
<g>
</g>
<g>
</g>
<g>
</g>
<g>
</g>
<g>
</g>
<g>
</g>
<g>
</g>
</svg>
