<?xml version="1.0" encoding="iso-8859-1"?>
<!-- Generator: Adobe Illustrator 19.0.0, SVG Export Plug-In . SVG Version: 6.00 Build 0)  -->
<svg version="1.1" id="Capa_1" xmlns="http://www.w3.org/2000/svg" xmlns:xlink="http://www.w3.org/1999/xlink" x="0px" y="0px"
	 viewBox="0 0 512 512" style="enable-background:new 0 0 512 512;" xml:space="preserve">
<g>
	<g>
		<path d="M501.333,426.667H10.667C4.779,426.667,0,431.445,0,437.333v21.333C0,488.064,23.915,512,53.333,512h405.333
			C488.085,512,512,488.064,512,458.667v-21.333C512,431.445,507.221,426.667,501.333,426.667z M490.667,458.667
			c0,17.643-14.357,32-32,32H53.333c-17.643,0-32-14.357-32-32V448h469.333V458.667z"/>
	</g>
</g>
<g>
	<g>
		<path d="M398.336,0c-18.987,0-36.821,7.381-50.197,20.8l-46.336,46.315c-4.16,4.16-4.16,10.923,0,15.083
			c4.16,4.16,10.923,4.16,15.083,0l46.336-46.315c9.237-9.237,22.037-14.549,35.115-14.549c27.392,0,49.664,22.272,49.664,49.685
			v366.315c0,5.888,4.779,10.667,10.667,10.667s10.667-4.779,10.667-10.667V71.019C469.333,31.851,437.483,0,398.336,0z"/>
	</g>
</g>
<g>
	<g>
		<path d="M338.219,88.448l-42.667-42.667c-2.005-1.984-4.715-3.115-7.552-3.115h-64c-4.309,0-8.192,2.603-9.856,6.592
			s-0.747,8.576,2.304,11.627l106.667,106.667c2.048,2.027,4.779,3.115,7.552,3.115c1.365,0,2.773-0.256,4.075-0.811
			c3.989-1.643,6.592-5.547,6.592-9.856V96C341.333,93.163,340.203,90.453,338.219,88.448z M320,134.251L249.749,64h33.835
			L320,100.416V134.251z"/>
	</g>
</g>
<g>
	<g>
		<path d="M210.197,88.469c-4.16-4.16-10.923-4.16-15.083,0l-42.667,42.667c-4.16,4.16-4.16,10.923,0,15.083
			c2.091,2.069,4.821,3.115,7.552,3.115s5.461-1.045,7.531-3.115l42.667-42.667C214.357,99.392,214.357,92.629,210.197,88.469z"/>
	</g>
</g>
<g>
	<g>
		<path d="M252.864,131.136c-4.16-4.16-10.923-4.16-15.083,0l-42.667,42.667c-4.16,4.16-4.16,10.923,0,15.083
			c2.091,2.069,4.821,3.115,7.552,3.115c2.731,0,5.461-1.045,7.531-3.115l42.667-42.667
			C257.024,142.059,257.024,135.296,252.864,131.136z"/>
	</g>
</g>
<g>
	<g>
		<path d="M295.531,173.803c-4.16-4.16-10.923-4.16-15.083,0l-42.667,42.667c-4.16,4.16-4.16,10.923,0,15.083
			c2.091,2.069,4.821,3.115,7.552,3.115c2.731,0,5.461-1.045,7.531-3.115l42.667-42.667
			C299.691,184.725,299.691,177.963,295.531,173.803z"/>
	</g>
</g>
<g>
</g>
<g>
</g>
<g>
</g>
<g>
</g>
<g>
</g>
<g>
</g>
<g>
</g>
<g>
</g>
<g>
</g>
<g>
</g>
<g>
</g>
<g>
</g>
<g>
</g>
<g>
</g>
<g>
</g>
</svg>
