<?xml version="1.0" encoding="iso-8859-1"?>
<!-- Generator: Adobe Illustrator 19.0.0, SVG Export Plug-In . SVG Version: 6.00 Build 0)  -->
<svg version="1.1" id="Capa_1" xmlns="http://www.w3.org/2000/svg" xmlns:xlink="http://www.w3.org/1999/xlink" x="0px" y="0px"
	 viewBox="0 0 512 512" style="enable-background:new 0 0 512 512;" xml:space="preserve">
<g>
	<g>
		<path d="M490.623,457.707L469.289,223.04c-0.491-5.504-5.099-9.707-10.624-9.707H117.332c-5.525,0-10.133,4.203-10.624,9.685
			L85.375,457.685c-0.277,2.987,0.725,5.952,2.752,8.171s4.864,3.477,7.872,3.477h384c3.008,0,5.845-1.259,7.872-3.456
			C489.897,463.659,490.9,460.693,490.623,457.707z M107.689,448l19.392-213.333h321.835L468.308,448H107.689z"/>
	</g>
</g>
<g>
	<g>
		<path d="M160.745,298.709c-5.291-0.533-10.944,3.989-11.392,9.877L138.687,457.92c-0.405,5.867,4.011,10.965,9.899,11.392
			c0.256,0.021,0.491,0.021,0.768,0.021c5.547,0,10.197-4.288,10.624-9.899l10.667-149.333
			C171.049,304.235,166.633,299.136,160.745,298.709z"/>
	</g>
</g>
<g>
	<g>
		<path d="M224.745,298.709c-5.355-0.533-10.944,3.989-11.392,9.877L202.687,457.92c-0.405,5.867,4.011,10.965,9.899,11.392
			c0.256,0.021,0.491,0.021,0.768,0.021c5.547,0,10.197-4.288,10.624-9.899l10.667-149.333
			C235.049,304.235,230.633,299.136,224.745,298.709z"/>
	</g>
</g>
<g>
	<g>
		<path d="M437.289,447.189l-10.667-138.667c-0.427-5.888-6.187-10.389-11.435-9.813c-5.867,0.448-10.261,5.589-9.813,11.456
			l10.667,138.667c0.405,5.589,5.077,9.835,10.603,9.835c0.299,0,0.555,0,0.832-0.021
			C433.343,458.197,437.737,453.056,437.289,447.189z"/>
	</g>
</g>
<g>
	<g>
		<path d="M373.311,457.92l-10.667-149.333c-0.427-5.888-6.016-10.432-11.392-9.877c-5.888,0.405-10.325,5.525-9.899,11.392
			l10.667,149.333c0.405,5.611,5.077,9.899,10.624,9.899c0.277,0,0.512,0,0.768-0.021C369.3,468.907,373.737,463.787,373.311,457.92
			z"/>
	</g>
</g>
<g>
	<g>
		<path d="M287.999,298.667c-5.888,0-10.667,4.779-10.667,10.667v149.333c0,5.888,4.779,10.667,10.667,10.667
			s10.667-4.779,10.667-10.667V309.333C298.665,303.445,293.887,298.667,287.999,298.667z"/>
	</g>
</g>
<g>
	<g>
		<path d="M446.42,175.723c-1.963-3.136-5.397-5.056-9.088-5.056H138.665c-3.691,0-7.125,1.92-9.088,5.056
			c-1.941,3.157-2.091,7.083-0.448,10.389l21.333,42.667c1.813,3.605,5.504,5.888,9.536,5.888h256c4.032,0,7.723-2.283,9.536-5.909
			l21.333-42.667C448.532,182.805,448.361,178.859,446.42,175.723z M409.428,213.333H166.591L155.924,192h264.171L409.428,213.333z"
			/>
	</g>
</g>
<g>
	<g>
		<path d="M287.999,42.667c-76.459,0-138.667,62.208-138.667,138.667c0,5.888,4.779,10.667,10.667,10.667
			s10.667-4.779,10.667-10.667C170.665,116.629,223.316,64,287.999,64s117.333,52.629,117.333,117.333
			c0,5.888,4.779,10.667,10.667,10.667c5.888,0,10.667-4.779,10.667-10.667C426.665,104.875,364.457,42.667,287.999,42.667z"/>
	</g>
</g>
<g>
	<g>
		<path d="M287.999,0c-17.643,0-32,14.357-32,32v21.333c0,5.888,4.779,10.667,10.667,10.667s10.667-4.779,10.667-10.667V32
			c0-5.888,4.8-10.667,10.667-10.667S298.665,26.112,298.665,32v21.333c0,5.888,4.779,10.667,10.667,10.667
			s10.667-4.779,10.667-10.667V32C319.999,14.357,305.641,0,287.999,0z"/>
	</g>
</g>
<g>
	<g>
		<path d="M138.665,448c-17.643,0-32,14.357-32,32c0,17.643,14.357,32,32,32c17.643,0,32-14.357,32-32
			C170.665,462.357,156.308,448,138.665,448z M138.665,490.667c-5.867,0-10.667-4.779-10.667-10.667
			c0-5.888,4.8-10.667,10.667-10.667c5.867,0,10.667,4.779,10.667,10.667C149.332,485.888,144.532,490.667,138.665,490.667z"/>
	</g>
</g>
<g>
	<g>
		<path d="M437.332,448c-17.643,0-32,14.357-32,32c0,17.643,14.357,32,32,32c17.643,0,32-14.357,32-32
			C469.332,462.357,454.975,448,437.332,448z M437.332,490.667c-5.867,0-10.667-4.779-10.667-10.667
			c0-5.888,4.8-10.667,10.667-10.667c5.867,0,10.667,4.779,10.667,10.667C447.999,485.888,443.199,490.667,437.332,490.667z"/>
	</g>
</g>
<g>
	<g>
		<path d="M95.999,277.333H85.332V224c0-29.397-23.915-53.333-53.333-53.333c-5.888,0-10.667,4.779-10.667,10.667
			S26.111,192,31.999,192c17.643,0,32,14.357,32,32v64c0,5.888,4.779,10.667,10.667,10.667h21.333
			c5.888,0,10.667-4.779,10.667-10.667S101.887,277.333,95.999,277.333z"/>
	</g>
</g>
<g>
</g>
<g>
</g>
<g>
</g>
<g>
</g>
<g>
</g>
<g>
</g>
<g>
</g>
<g>
</g>
<g>
</g>
<g>
</g>
<g>
</g>
<g>
</g>
<g>
</g>
<g>
</g>
<g>
</g>
</svg>
