<?xml version="1.0" encoding="iso-8859-1"?>
<!-- Generator: Adobe Illustrator 19.0.0, SVG Export Plug-In . SVG Version: 6.00 Build 0)  -->
<svg version="1.1" id="Capa_1" xmlns="http://www.w3.org/2000/svg" xmlns:xlink="http://www.w3.org/1999/xlink" x="0px" y="0px"
	 viewBox="0 0 512 512" style="enable-background:new 0 0 512 512;" xml:space="preserve">
<g>
	<g>
		<path d="M160,21.333c-70.592,0-128,57.408-128,128s57.408,128,128,128s128-57.408,128-128S230.592,21.333,160,21.333z M160,256
			c-58.816,0-106.667-47.851-106.667-106.667c0-58.816,47.851-106.667,106.667-106.667s106.667,47.851,106.667,106.667
			C266.667,208.149,218.816,256,160,256z"/>
	</g>
</g>
<g>
	<g>
		<path d="M213.333,245.333c-5.888,0-10.667,4.779-10.667,10.667v178.112l-37.717,56.555h-11.2l-32-32l13.781-13.803
			c4.16-4.16,4.16-10.923,0-15.083L121.749,416l13.781-13.803c4.16-4.16,4.16-10.923,0-15.083l-13.781-13.781l13.803-13.781
			c4.16-4.16,4.16-10.923,0-15.083l-18.219-18.219V256c0-5.888-4.779-10.667-10.667-10.667S96,250.112,96,256v74.667
			c0,2.837,1.131,5.547,3.136,7.552L112.917,352l-13.781,13.803c-4.16,4.16-4.16,10.923,0,15.083l13.781,13.781l-13.781,13.803
			c-4.16,4.16-4.16,10.923,0,15.083l13.781,13.781l-13.803,13.803c-4.16,4.16-4.16,10.923,0,15.083l42.667,42.667
			c2.005,1.984,4.715,3.115,7.552,3.115h21.333c3.563,0,6.891-1.771,8.875-4.757l42.667-64c1.173-1.749,1.792-3.797,1.792-5.909V256
			C224,250.112,219.221,245.333,213.333,245.333z"/>
	</g>
</g>
<g>
	<g>
		<path d="M170.667,256c-5.888,0-10.667,4.779-10.667,10.667V480c0,5.888,4.779,10.667,10.667,10.667s10.667-4.779,10.667-10.667
			V266.667C181.333,260.779,176.555,256,170.667,256z"/>
	</g>
</g>
<g>
	<g>
		<path d="M160,64c-23.531,0-42.667,19.136-42.667,42.667c0,23.531,19.136,42.667,42.667,42.667s42.667-19.136,42.667-42.667
			C202.667,83.136,183.531,64,160,64z M160,128c-11.755,0-21.333-9.579-21.333-21.333c0-11.755,9.579-21.333,21.333-21.333
			s21.333,9.579,21.333,21.333C181.333,118.421,171.755,128,160,128z"/>
	</g>
</g>
<g>
	<g>
		<path d="M362.667,64c-17.643,0-32,14.357-32,32c0,17.643,14.357,32,32,32s32-14.357,32-32C394.667,78.357,380.309,64,362.667,64z
			 M362.667,106.667C356.779,106.667,352,101.888,352,96s4.779-10.667,10.667-10.667S373.333,90.112,373.333,96
			S368.555,106.667,362.667,106.667z"/>
	</g>
</g>
<g>
	<g>
		<path d="M384,21.333h-42.667c-40.789,0-77.227,25.856-90.667,64.341c-1.92,5.568,1.003,11.648,6.571,13.589
			c5.547,1.941,11.648-1.003,13.589-6.571c10.453-29.931,38.784-50.027,70.507-50.027H384c41.173,0,74.667,33.493,74.667,74.667V352
			c0,41.173-33.493,74.667-74.667,74.667h-42.667c-41.173,0-74.667-33.493-74.667-74.667V224c0-5.888-4.779-10.667-10.667-10.667
			s-10.667,4.779-10.667,10.667v128c0,52.928,43.072,96,96,96H384c52.928,0,96-43.072,96-96V117.333
			C480,64.405,436.928,21.333,384,21.333z"/>
	</g>
</g>
<g>
	<g>
		<path d="M373.099,72.491C372.949,71.765,356.949,0,266.667,0c-93.675,0-106.475,93.739-106.581,94.677
			c-0.725,5.824,3.413,11.136,9.237,11.883c0.448,0.064,0.896,0.107,1.344,0.107c5.291,0,9.877-3.947,10.581-9.323
			c0.405-3.093,10.752-76.011,85.419-76.011c72.512,0,85.077,53.291,85.568,55.509c1.173,5.76,6.784,9.408,12.608,8.256
			C370.603,83.904,374.315,78.272,373.099,72.491z"/>
	</g>
</g>
<g>
	<g>
		<path d="M320,256h-10.667v-21.333h32c5.888,0,10.667-4.779,10.667-10.667s-4.779-10.667-10.667-10.667h-42.667
			c-5.888,0-10.667,4.779-10.667,10.667v42.667c0,5.888,4.779,10.667,10.667,10.667H320c5.888,0,10.667,4.779,10.667,10.667
			s-4.779,10.667-10.667,10.667h-21.333c-5.888,0-10.667,4.779-10.667,10.667S292.779,320,298.667,320H320c17.643,0,32-14.357,32-32
			S337.643,256,320,256z"/>
	</g>
</g>
<g>
	<g>
		<path d="M426.667,277.333h-22.741l31.616-47.424c3.264-4.907,1.941-11.52-2.965-14.784c-4.928-3.264-11.541-1.92-14.784,2.965
			l-42.667,64c-2.176,3.264-2.389,7.488-0.533,10.944c1.856,3.456,5.461,5.632,9.408,5.632h32v10.667
			c0,5.888,4.779,10.667,10.667,10.667s10.667-4.779,10.667-10.667V288C437.333,282.112,432.555,277.333,426.667,277.333z"/>
	</g>
</g>
<g>
</g>
<g>
</g>
<g>
</g>
<g>
</g>
<g>
</g>
<g>
</g>
<g>
</g>
<g>
</g>
<g>
</g>
<g>
</g>
<g>
</g>
<g>
</g>
<g>
</g>
<g>
</g>
<g>
</g>
</svg>
