<?xml version="1.0" encoding="iso-8859-1"?>
<!-- Generator: Adobe Illustrator 19.0.0, SVG Export Plug-In . SVG Version: 6.00 Build 0)  -->
<svg version="1.1" id="Capa_1" xmlns="http://www.w3.org/2000/svg" xmlns:xlink="http://www.w3.org/1999/xlink" x="0px" y="0px"
	 viewBox="0 0 469.309 469.309" style="enable-background:new 0 0 469.309 469.309;" xml:space="preserve">
<g>
	<g>
		<path d="M138.664,63.988c-29.419,0-53.333,23.936-53.333,53.333v213.333c0,5.888,4.779,10.667,10.667,10.667
			c5.909,0,10.667-4.779,10.667-10.667V117.321c0-17.643,14.357-32,32-32c5.909,0,10.667-4.779,10.667-10.667
			S144.573,63.988,138.664,63.988z"/>
	</g>
</g>
<g>
	<g>
		<path d="M245.331,63.988c-29.419,0-53.333,23.936-53.333,53.333v213.333c0,5.888,4.779,10.667,10.667,10.667
			c5.909,0,10.667-4.779,10.667-10.667V117.321c0-17.643,14.357-32,32-32c5.909,0,10.667-4.779,10.667-10.667
			S251.24,63.988,245.331,63.988z"/>
	</g>
</g>
<g>
	<g>
		<path d="M202.664,255.988H95.997c-5.888,0-10.667,4.779-10.667,10.667s4.779,10.667,10.667,10.667h106.667
			c5.909,0,10.667-4.779,10.667-10.667S208.552,255.988,202.664,255.988z"/>
	</g>
</g>
<g>
	<g>
		<path d="M202.664,127.988h-96c-5.888,0-10.667,4.779-10.667,10.667s4.779,10.667,10.667,10.667h96
			c5.909,0,10.667-4.779,10.667-10.667S208.573,127.988,202.664,127.988z"/>
	</g>
</g>
<g>
	<g>
		<path d="M202.664,191.988H95.997c-5.888,0-10.667,4.779-10.667,10.667s4.779,10.667,10.667,10.667h106.667
			c5.909,0,10.667-4.779,10.667-10.667S208.552,191.988,202.664,191.988z"/>
	</g>
</g>
<g>
	<g>
		<path d="M101.693,193.716c-4.949-3.136-11.477-1.685-14.699,3.2c-0.427,0.683-10.965,16.405-33.664,16.405
			c-22.571,0-33.131-15.552-33.664-16.384c-3.157-4.971-9.749-6.464-14.656-3.328c-4.992,3.115-6.507,9.707-3.392,14.699
			c0.661,1.067,16.853,26.347,51.712,26.347c34.859,0,51.051-25.28,51.691-26.325C108.136,203.359,106.621,196.852,101.693,193.716z
			"/>
	</g>
</g>
<g>
	<g>
		<path d="M293.693,193.716c-4.949-3.136-11.477-1.685-14.699,3.2c-0.427,0.683-10.965,16.405-33.664,16.405
			c-22.571,0-33.131-15.552-33.664-16.384c-3.157-4.971-9.749-6.464-14.656-3.328c-4.992,3.115-6.507,9.707-3.392,14.699
			c0.661,1.067,16.853,26.347,51.712,26.347c34.859,0,51.051-25.28,51.691-26.325C300.136,203.359,298.621,196.852,293.693,193.716z
			"/>
	</g>
</g>
<g>
	<g>
		<path d="M379.027,193.716c-4.928-3.136-11.477-1.685-14.699,3.2c-0.427,0.683-10.965,16.405-33.664,16.405
			c-22.571,0-33.131-15.552-33.664-16.384c-3.157-4.971-9.749-6.464-14.656-3.328c-4.992,3.115-6.507,9.707-3.392,14.699
			c0.661,1.067,16.853,26.347,51.712,26.347c34.859,0,51.051-25.28,51.691-26.325C385.469,203.359,383.955,196.852,379.027,193.716z
			"/>
	</g>
</g>
<g>
	<g>
		<path d="M464.36,193.716c-4.928-3.136-11.499-1.685-14.699,3.2c-0.427,0.683-10.965,16.405-33.664,16.405
			c-22.571,0-33.131-15.552-33.664-16.384c-3.157-4.971-9.728-6.464-14.656-3.328c-4.992,3.115-6.507,9.707-3.392,14.699
			c0.661,1.067,16.853,26.347,51.712,26.347c34.859,0,51.051-25.28,51.691-26.325C470.803,203.359,469.288,196.852,464.36,193.716z"
			/>
	</g>
</g>
<g>
	<g>
		<path d="M101.693,279.049c-4.949-3.136-11.477-1.685-14.699,3.2c-0.427,0.683-10.965,16.405-33.664,16.405
			c-22.571,0-33.131-15.552-33.664-16.384c-3.157-4.971-9.749-6.464-14.656-3.328c-4.992,3.115-6.507,9.707-3.392,14.699
			c0.661,1.067,16.853,26.347,51.712,26.347c34.859,0,51.051-25.28,51.691-26.325C108.136,288.692,106.621,282.185,101.693,279.049z
			"/>
	</g>
</g>
<g>
	<g>
		<path d="M293.693,279.049c-4.949-3.136-11.477-1.685-14.699,3.2c-0.427,0.683-10.965,16.405-33.664,16.405
			c-22.571,0-33.131-15.552-33.664-16.384c-3.157-4.971-9.749-6.464-14.656-3.328c-4.992,3.115-6.507,9.707-3.392,14.699
			c0.661,1.067,16.853,26.347,51.712,26.347c34.859,0,51.051-25.28,51.691-26.325C300.136,288.692,298.621,282.185,293.693,279.049z
			"/>
	</g>
</g>
<g>
	<g>
		<path d="M379.027,279.049c-4.928-3.136-11.477-1.685-14.699,3.2c-0.427,0.683-10.965,16.405-33.664,16.405
			c-22.571,0-33.131-15.552-33.664-16.384c-3.157-4.971-9.749-6.464-14.656-3.328c-4.992,3.115-6.507,9.707-3.392,14.699
			c0.661,1.067,16.853,26.347,51.712,26.347c34.859,0,51.051-25.28,51.691-26.325C385.469,288.692,383.955,282.185,379.027,279.049z
			"/>
	</g>
</g>
<g>
	<g>
		<path d="M293.693,364.383c-4.949-3.136-11.477-1.685-14.699,3.2c-0.427,0.683-10.965,16.405-33.664,16.405
			c-22.571,0-33.131-15.552-33.664-16.384c-3.157-4.971-9.749-6.443-14.656-3.328c-4.992,3.115-6.507,9.707-3.392,14.699
			c0.661,1.067,16.853,26.347,51.712,26.347c34.859,0,51.051-25.28,51.691-26.325C300.136,374.025,298.621,367.519,293.693,364.383z
			"/>
	</g>
</g>
<g>
	<g>
		<path d="M208.36,364.383c-4.949-3.136-11.477-1.685-14.699,3.2c-0.427,0.683-10.965,16.405-33.664,16.405
			c-22.571,0-33.131-15.552-33.664-16.384c-3.157-4.971-9.749-6.443-14.656-3.328c-4.992,3.115-6.507,9.707-3.392,14.699
			c0.661,1.067,16.853,26.347,51.712,26.347c34.859,0,51.051-25.28,51.691-26.325C214.803,374.025,213.288,367.519,208.36,364.383z"
			/>
	</g>
</g>
<g>
	<g>
		<path d="M123.027,364.383c-4.949-3.136-11.477-1.685-14.699,3.2c-0.427,0.683-10.965,16.405-33.664,16.405
			c-22.571,0-33.131-15.552-33.664-16.384c-3.157-4.971-9.749-6.443-14.656-3.328c-4.992,3.115-6.507,9.707-3.392,14.699
			c0.661,1.067,16.853,26.347,51.712,26.347s51.051-25.28,51.691-26.325C129.469,374.025,127.955,367.519,123.027,364.383z"/>
	</g>
</g>
<g>
	<g>
		<path d="M379.027,364.383c-4.928-3.136-11.477-1.685-14.699,3.2c-0.427,0.683-10.965,16.405-33.664,16.405
			c-22.571,0-33.131-15.552-33.664-16.384c-3.157-4.971-9.749-6.443-14.656-3.328c-4.992,3.115-6.507,9.707-3.392,14.699
			c0.661,1.067,16.853,26.347,51.712,26.347c34.859,0,51.051-25.28,51.691-26.325C385.469,374.025,383.955,367.519,379.027,364.383z
			"/>
	</g>
</g>
<g>
	<g>
		<path d="M464.36,279.049c-4.928-3.136-11.499-1.685-14.699,3.2c-0.427,0.683-10.965,16.405-33.664,16.405
			c-22.571,0-33.131-15.552-33.664-16.384c-3.157-4.971-9.728-6.464-14.656-3.328c-4.992,3.115-6.507,9.707-3.392,14.699
			c0.661,1.067,16.853,26.347,51.712,26.347c34.859,0,51.051-25.28,51.691-26.325C470.803,288.692,469.288,282.185,464.36,279.049z"
			/>
	</g>
</g>
<g>
</g>
<g>
</g>
<g>
</g>
<g>
</g>
<g>
</g>
<g>
</g>
<g>
</g>
<g>
</g>
<g>
</g>
<g>
</g>
<g>
</g>
<g>
</g>
<g>
</g>
<g>
</g>
<g>
</g>
</svg>
