<?xml version="1.0" encoding="iso-8859-1"?>
<!-- Generator: Adobe Illustrator 19.0.0, SVG Export Plug-In . SVG Version: 6.00 Build 0)  -->
<svg version="1.1" id="Capa_1" xmlns="http://www.w3.org/2000/svg" xmlns:xlink="http://www.w3.org/1999/xlink" x="0px" y="0px"
	 viewBox="0 0 512 512" style="enable-background:new 0 0 512 512;" xml:space="preserve">
<g>
	<g>
		<path d="M458.667,127.992H53.333C23.915,127.992,0,151.928,0,181.325v234.667c0,29.397,23.915,53.333,53.333,53.333h405.333
			c29.419,0,53.333-23.936,53.333-53.333V181.325C512,151.928,488.085,127.992,458.667,127.992z M490.667,415.992
			c0,17.643-14.357,32-32,32H53.333c-17.643,0-32-14.357-32-32V181.325c0-17.643,14.357-32,32-32h405.333c17.643,0,32,14.357,32,32
			V415.992z"/>
	</g>
</g>
<g>
	<g>
		<path d="M266.667,170.659H117.333c-41.173,0-74.667,33.493-74.667,74.667v106.667c0,41.173,33.493,74.667,74.667,74.667h149.333
			c41.173,0,74.667-33.493,74.667-74.667V245.325C341.333,204.152,307.84,170.659,266.667,170.659z M320,351.992
			c0,29.397-23.915,53.333-53.333,53.333H117.333C87.915,405.325,64,381.389,64,351.992V245.325
			c0-29.397,23.915-53.333,53.333-53.333h149.333c29.419,0,53.333,23.936,53.333,53.333V351.992z"/>
	</g>
</g>
<g>
	<g>
		<path d="M437.333,191.992h-42.667c-5.888,0-10.667,4.779-10.667,10.667s4.779,10.667,10.667,10.667h42.667
			c5.888,0,10.667-4.779,10.667-10.667S443.221,191.992,437.333,191.992z"/>
	</g>
</g>
<g>
	<g>
		<path d="M437.333,234.659h-42.667c-5.888,0-10.667,4.779-10.667,10.667s4.779,10.667,10.667,10.667h42.667
			c5.888,0,10.667-4.779,10.667-10.667S443.221,234.659,437.333,234.659z"/>
	</g>
</g>
<g>
	<g>
		<path d="M437.333,277.325h-42.667c-5.888,0-10.667,4.779-10.667,10.667s4.779,10.667,10.667,10.667h42.667
			c5.888,0,10.667-4.779,10.667-10.667S443.221,277.325,437.333,277.325z"/>
	</g>
</g>
<g>
	<g>
		<path d="M437.333,319.992h-42.667c-5.888,0-10.667,4.779-10.667,10.667v85.333c0,5.888,4.779,10.667,10.667,10.667h42.667
			c5.888,0,10.667-4.779,10.667-10.667v-85.333C448,324.771,443.221,319.992,437.333,319.992z M426.667,405.325h-21.333v-64h21.333
			V405.325z"/>
	</g>
</g>
<g>
	<g>
		<path d="M74.667,447.992c-5.888,0-10.667,4.779-10.667,10.667v42.667c0,5.888,4.779,10.667,10.667,10.667
			s10.667-4.779,10.667-10.667v-42.667C85.333,452.771,80.555,447.992,74.667,447.992z"/>
	</g>
</g>
<g>
	<g>
		<path d="M437.333,447.992c-5.888,0-10.667,4.779-10.667,10.667v42.667c0,5.888,4.779,10.667,10.667,10.667
			c5.888,0,10.667-4.779,10.667-10.667v-42.667C448,452.771,443.221,447.992,437.333,447.992z"/>
	</g>
</g>
<g>
	<g>
		<path d="M359.531,3.128c-4.16-4.16-10.923-4.16-15.083,0L224,123.576L103.531,3.128c-4.16-4.16-10.923-4.16-15.083,0
			c-4.16,4.16-4.16,10.923,0,15.083l128,128c2.091,2.069,4.821,3.115,7.552,3.115s5.461-1.045,7.531-3.115l128-128
			C363.691,14.051,363.691,7.288,359.531,3.128z"/>
	</g>
</g>
<g>
	<g>
		<path d="M252.331,238.328c-32.213-32.235-88.448-32.235-120.661,0c-33.28,33.259-33.28,87.403,0,120.683
			c16.107,16.107,37.547,24.981,60.331,24.981s44.224-8.875,60.331-24.981C285.611,325.752,285.611,271.608,252.331,238.328z
			 M237.248,343.907c-24.171,24.171-66.325,24.171-90.496,0c-24.96-24.96-24.96-65.557,0-90.517
			c12.075-12.075,28.139-18.731,45.248-18.731s33.173,6.656,45.248,18.731C262.208,278.349,262.208,318.947,237.248,343.907z"/>
	</g>
</g>
<g>
	<g>
		<path d="M252.309,238.328c-4.16-4.16-10.923-4.16-15.083,0l-105.579,105.6c-4.16,4.16-4.16,10.923,0,15.083
			c2.091,2.069,4.821,3.115,7.552,3.115s5.461-1.045,7.531-3.115l105.579-105.6C256.469,249.251,256.469,242.488,252.309,238.328z"
			/>
	</g>
</g>
<g>
</g>
<g>
</g>
<g>
</g>
<g>
</g>
<g>
</g>
<g>
</g>
<g>
</g>
<g>
</g>
<g>
</g>
<g>
</g>
<g>
</g>
<g>
</g>
<g>
</g>
<g>
</g>
<g>
</g>
</svg>
