<?xml version="1.0" encoding="iso-8859-1"?>
<!-- Generator: Adobe Illustrator 19.0.0, SVG Export Plug-In . SVG Version: 6.00 Build 0)  -->
<svg version="1.1" id="Capa_1" xmlns="http://www.w3.org/2000/svg" xmlns:xlink="http://www.w3.org/1999/xlink" x="0px" y="0px"
	 viewBox="0 0 512 512" style="enable-background:new 0 0 512 512;" xml:space="preserve">
<g>
	<g>
		<path d="M256,0c-76.459,0-138.667,90.923-138.667,202.667S179.541,405.333,256,405.333s138.667-90.923,138.667-202.667
			S332.459,0,256,0z M256,384c-64.704,0-117.333-81.344-117.333-181.333S191.296,21.333,256,21.333s117.333,81.344,117.333,181.333
			S320.704,384,256,384z"/>
	</g>
</g>
<g>
	<g>
		<path d="M85.333,64c-5.888,0-10.667,4.779-10.667,10.667v426.667c0,5.888,4.779,10.667,10.667,10.667S96,507.221,96,501.333
			V74.667C96,68.779,91.221,64,85.333,64z"/>
	</g>
</g>
<g>
	<g>
		<path d="M426.667,64C420.779,64,416,68.779,416,74.667v426.667c0,5.888,4.779,10.667,10.667,10.667s10.667-4.779,10.667-10.667
			V74.667C437.333,68.779,432.555,64,426.667,64z"/>
	</g>
</g>
<g>
	<g>
		<path d="M128,192H85.333c-5.888,0-10.667,4.779-10.667,10.667s4.779,10.667,10.667,10.667H128c5.888,0,10.667-4.779,10.667-10.667
			S133.888,192,128,192z"/>
	</g>
</g>
<g>
	<g>
		<path d="M426.667,192H384c-5.888,0-10.667,4.779-10.667,10.667s4.779,10.667,10.667,10.667h42.667
			c5.888,0,10.667-4.779,10.667-10.667S432.555,192,426.667,192z"/>
	</g>
</g>
<g>
	<g>
		<path d="M426.667,426.667H85.333c-5.888,0-10.667,4.779-10.667,10.667c0,5.888,4.779,10.667,10.667,10.667h341.333
			c5.888,0,10.667-4.779,10.667-10.667C437.333,431.445,432.555,426.667,426.667,426.667z"/>
	</g>
</g>
<g>
	<g>
		<path d="M261.291,44.075c-5.12-2.944-11.627-1.152-14.549,3.968l-85.333,149.333c-2.923,5.12-1.152,11.627,3.968,14.549
			c1.664,0.96,3.499,1.408,5.291,1.408c3.691,0,7.296-1.92,9.259-5.376l85.333-149.333
			C268.181,53.504,266.411,46.997,261.291,44.075z"/>
	</g>
</g>
<g>
	<g>
		<path d="M346.624,193.408c-5.141-2.944-11.648-1.152-14.549,3.968l-85.333,149.333c-2.923,5.12-1.152,11.627,3.968,14.549
			c1.685,0.96,3.499,1.408,5.291,1.408c3.691,0,7.296-1.92,9.259-5.376l85.333-149.333
			C353.515,202.837,351.744,196.331,346.624,193.408z"/>
	</g>
</g>
<g>
	<g>
		<path d="M272.171,172.203c-5.056-3.051-11.605-1.387-14.635,3.648l-64,106.667c-3.029,5.056-1.408,11.605,3.648,14.635
			c1.728,1.024,3.627,1.515,5.483,1.515c3.605,0,7.147-1.835,9.152-5.163l64-106.667
			C278.848,181.781,277.227,175.232,272.171,172.203z"/>
	</g>
</g>
<g>
</g>
<g>
</g>
<g>
</g>
<g>
</g>
<g>
</g>
<g>
</g>
<g>
</g>
<g>
</g>
<g>
</g>
<g>
</g>
<g>
</g>
<g>
</g>
<g>
</g>
<g>
</g>
<g>
</g>
</svg>
