<?xml version="1.0" encoding="iso-8859-1"?>
<!-- Generator: Adobe Illustrator 19.0.0, SVG Export Plug-In . SVG Version: 6.00 Build 0)  -->
<svg version="1.1" id="Capa_1" xmlns="http://www.w3.org/2000/svg" xmlns:xlink="http://www.w3.org/1999/xlink" x="0px" y="0px"
	 viewBox="0 0 512 512" style="enable-background:new 0 0 512 512;" xml:space="preserve">
<g>
	<g>
		<path d="M394.667,0H117.333C52.629,0,0,52.629,0,117.333v277.333C0,459.371,52.629,512,117.333,512h277.333
			C459.371,512,512,459.371,512,394.667V117.333C512,52.629,459.371,0,394.667,0z M490.667,394.667c0,52.928-43.072,96-96,96
			H117.333c-52.928,0-96-43.072-96-96V117.333c0-52.928,43.072-96,96-96h277.333c52.928,0,96,43.072,96,96V394.667z"/>
	</g>
</g>
<g>
	<g>
		<path d="M416,277.333h-14.123l-34.603-86.571c-4.885-12.203-16.555-20.096-29.717-20.096H174.443
			c-13.163,0-24.811,7.893-29.696,20.117l-34.624,86.549H96c-5.888,0-10.667,4.779-10.667,10.667v106.667
			c0,5.888,4.779,10.667,10.667,10.667h10.667v32c0,17.643,14.357,32,32,32c17.643,0,32-14.357,32-32v-32h170.667v32
			c0,17.643,14.357,32,32,32c17.643,0,32-14.357,32-32v-32H416c5.888,0,10.667-4.779,10.667-10.667V288
			C426.667,282.112,421.888,277.333,416,277.333z M405.333,384h-10.667c-5.888,0-10.667,4.779-10.667,10.667v42.667
			c0,5.888-4.779,10.667-10.667,10.667c-5.888,0-10.667-4.779-10.667-10.667v-42.667c0-5.888-4.779-10.667-10.667-10.667H160
			c-5.888,0-10.667,4.779-10.667,10.667v42.667c0,5.888-4.779,10.667-10.667,10.667S128,443.221,128,437.333v-42.667
			c0-5.888-4.779-10.667-10.667-10.667h-10.667v-85.333h10.667c4.373,0,8.277-2.667,9.899-6.72l37.312-93.248
			c1.621-4.053,5.525-6.699,9.899-6.699h163.115c4.373,0,8.277,2.645,9.899,6.699l37.312,93.269
			c1.621,4.032,5.525,6.699,9.899,6.699h10.667V384z"/>
	</g>
</g>
<g>
	<g>
		<path d="M160,298.667c-17.643,0-32,14.357-32,32c0,17.643,14.357,32,32,32s32-14.357,32-32
			C192,313.024,177.643,298.667,160,298.667z M160,341.333c-5.888,0-10.667-4.779-10.667-10.667S154.112,320,160,320
			s10.667,4.779,10.667,10.667S165.888,341.333,160,341.333z"/>
	</g>
</g>
<g>
	<g>
		<path d="M352,298.667c-17.643,0-32,14.357-32,32c0,17.643,14.357,32,32,32c17.643,0,32-14.357,32-32
			C384,313.024,369.643,298.667,352,298.667z M352,341.333c-5.888,0-10.667-4.779-10.667-10.667S346.112,320,352,320
			c5.888,0,10.667,4.779,10.667,10.667S357.888,341.333,352,341.333z"/>
	</g>
</g>
<g>
	<g>
		<path d="M160,42.667c-29.397,0-53.333,23.936-53.333,53.333s23.936,53.333,53.333,53.333S213.333,125.397,213.333,96
			S189.397,42.667,160,42.667z M160,128c-17.643,0-32-14.357-32-32s14.357-32,32-32s32,14.357,32,32
			C192,113.643,177.643,128,160,128z"/>
	</g>
</g>
<g>
	<g>
		<path d="M394.667,85.333h-192C196.779,85.333,192,90.112,192,96s4.779,10.667,10.667,10.667h192
			c5.888,0,10.667-4.779,10.667-10.667S400.555,85.333,394.667,85.333z"/>
	</g>
</g>
<g>
	<g>
		<path d="M373.333,85.333c-5.888,0-10.667,4.779-10.667,10.667v42.667c0,5.888,4.779,10.667,10.667,10.667
			c5.888,0,10.667-4.779,10.667-10.667V96C384,90.112,379.221,85.333,373.333,85.333z"/>
	</g>
</g>
<g>
	<g>
		<path d="M330.667,85.333C324.779,85.333,320,90.112,320,96v42.667c0,5.888,4.779,10.667,10.667,10.667s10.667-4.779,10.667-10.667
			V96C341.333,90.112,336.555,85.333,330.667,85.333z"/>
	</g>
</g>
<g>
</g>
<g>
</g>
<g>
</g>
<g>
</g>
<g>
</g>
<g>
</g>
<g>
</g>
<g>
</g>
<g>
</g>
<g>
</g>
<g>
</g>
<g>
</g>
<g>
</g>
<g>
</g>
<g>
</g>
</svg>
