<?xml version="1.0" encoding="iso-8859-1"?>
<!-- Generator: Adobe Illustrator 19.0.0, SVG Export Plug-In . SVG Version: 6.00 Build 0)  -->
<svg version="1.1" id="Capa_1" xmlns="http://www.w3.org/2000/svg" xmlns:xlink="http://www.w3.org/1999/xlink" x="0px" y="0px"
	 viewBox="0 0 512 512" style="enable-background:new 0 0 512 512;" xml:space="preserve">
<g>
	<g>
		<path d="M277.333,0h-42.667c-64.704,0-117.333,52.629-117.333,117.333v21.333c0,17.643,14.357,32,32,32c17.643,0,32-14.357,32-32
			v-21.333c0-29.397,23.936-53.333,53.333-53.333h42.667c29.397,0,53.333,23.936,53.333,53.376
			c0,34.453-20.693,65.024-52.693,77.824l-94.528,37.803c-40.171,16.064-66.112,54.4-66.112,97.643v128.021
			c0,29.397,23.936,53.333,53.333,53.333h170.667c29.397,0,53.333-23.936,53.333-53.333V117.333C394.667,52.629,342.037,0,277.333,0
			z M373.333,458.667c0,17.643-14.357,32-32,32H170.667c-17.643,0-32-14.357-32-32V330.645c0-34.453,20.693-65.024,52.693-77.824
			l94.528-37.824c40.171-16.064,66.112-54.4,66.112-97.664c0-41.173-33.493-74.667-74.667-74.667h-42.667
			C193.493,42.667,160,76.16,160,117.333v21.333c0,5.888-4.779,10.667-10.667,10.667s-10.667-4.779-10.667-10.667v-21.333
			c0-52.928,43.072-96,96-96h42.667c52.928,0,96,43.072,96,96V458.667z"/>
	</g>
</g>
<g>
	<g>
		<path d="M256,277.333c-52.928,0-96,43.072-96,96c0,52.928,43.072,96,96,96s96-43.072,96-96
			C352,320.405,308.928,277.333,256,277.333z M256,448c-41.173,0-74.667-33.493-74.667-74.667c0-41.173,33.493-74.667,74.667-74.667
			s74.667,33.493,74.667,74.667C330.667,414.507,297.173,448,256,448z"/>
	</g>
</g>
<g>
	<g>
		<path d="M298.667,362.667h-85.333c-5.888,0-10.667,4.779-10.667,10.667c0,5.888,4.779,10.667,10.667,10.667h85.333
			c5.888,0,10.667-4.779,10.667-10.667C309.333,367.445,304.555,362.667,298.667,362.667z"/>
	</g>
</g>
<g>
</g>
<g>
</g>
<g>
</g>
<g>
</g>
<g>
</g>
<g>
</g>
<g>
</g>
<g>
</g>
<g>
</g>
<g>
</g>
<g>
</g>
<g>
</g>
<g>
</g>
<g>
</g>
<g>
</g>
</svg>
