<?xml version="1.0" encoding="iso-8859-1"?>
<!-- Generator: Adobe Illustrator 19.0.0, SVG Export Plug-In . SVG Version: 6.00 Build 0)  -->
<svg version="1.1" id="Capa_1" xmlns="http://www.w3.org/2000/svg" xmlns:xlink="http://www.w3.org/1999/xlink" x="0px" y="0px"
	 viewBox="0 0 490.667 490.667" style="enable-background:new 0 0 490.667 490.667;" xml:space="preserve">
<g>
	<g>
		<path d="M416,0H74.667C68.779,0,64,4.779,64,10.667s4.779,10.667,10.667,10.667H416c5.888,0,10.667-4.779,10.667-10.667
			S421.888,0,416,0z"/>
	</g>
</g>
<g>
	<g>
		<path d="M480,213.333h-74.667V10.667C405.333,4.779,400.555,0,394.667,0C388.779,0,384,4.779,384,10.667V224
			c0,5.888,4.779,10.667,10.667,10.667h74.667v128h-448v-128H96c5.888,0,10.667-4.779,10.667-10.667V10.667
			C106.667,4.779,101.888,0,96,0S85.333,4.779,85.333,10.667v202.667H10.667C4.779,213.333,0,218.112,0,224v149.333
			C0,379.221,4.779,384,10.667,384H480c5.888,0,10.667-4.779,10.667-10.667V224C490.667,218.112,485.888,213.333,480,213.333z"/>
	</g>
</g>
<g>
	<g>
		<path d="M361.899,476.053L320,371.285V266.667c0-5.888-4.779-10.667-10.667-10.667h-128c-5.888,0-10.667,4.779-10.667,10.667
			v104.619l-41.899,104.747c-1.323,3.285-0.917,7.019,1.067,9.941c1.984,2.923,5.291,4.693,8.832,4.693H352
			c3.541,0,6.848-1.771,8.832-4.672C362.795,483.072,363.221,479.339,361.899,476.053z M154.411,469.333l36.821-92.032
			c0.512-1.28,0.768-2.624,0.768-3.968v-96h106.667v96c0,1.344,0.256,2.688,0.747,3.968l36.821,92.032H154.411z"/>
	</g>
</g>
<g>
	<g>
		<path d="M245.333,256c-5.888,0-10.667,4.779-10.667,10.667v106.667c0,5.888,4.779,10.667,10.667,10.667S256,379.221,256,373.333
			V266.667C256,260.779,251.221,256,245.333,256z"/>
	</g>
</g>
<g>
	<g>
		<path d="M224,149.333h-85.333c-5.888,0-10.667,4.779-10.667,10.667v64c0,5.888,4.779,10.667,10.667,10.667H224
			c5.888,0,10.667-4.779,10.667-10.667v-64C234.667,154.112,229.888,149.333,224,149.333z M213.333,213.333h-64v-42.667h64V213.333z
			"/>
	</g>
</g>
<g>
	<g>
		<path d="M352,149.333h-85.333c-5.888,0-10.667,4.779-10.667,10.667v64c0,5.888,4.779,10.667,10.667,10.667H352
			c5.888,0,10.667-4.779,10.667-10.667v-64C362.667,154.112,357.888,149.333,352,149.333z M341.333,213.333h-64v-42.667h64V213.333z
			"/>
	</g>
</g>
<g>
	<g>
		<path d="M224,42.667h-85.333c-5.888,0-10.667,4.779-10.667,10.667v64c0,5.888,4.779,10.667,10.667,10.667H224
			c5.888,0,10.667-4.779,10.667-10.667v-64C234.667,47.445,229.888,42.667,224,42.667z M213.333,106.667h-64V64h64V106.667z"/>
	</g>
</g>
<g>
	<g>
		<path d="M352,42.667h-85.333c-5.888,0-10.667,4.779-10.667,10.667v64c0,5.888,4.779,10.667,10.667,10.667H352
			c5.888,0,10.667-4.779,10.667-10.667v-64C362.667,47.445,357.888,42.667,352,42.667z M341.333,106.667h-64V64h64V106.667z"/>
	</g>
</g>
<g>
	<g>
		<path d="M181.333,149.333c-5.888,0-10.667,4.779-10.667,10.667v64c0,5.888,4.779,10.667,10.667,10.667S192,229.888,192,224v-64
			C192,154.112,187.221,149.333,181.333,149.333z"/>
	</g>
</g>
<g>
	<g>
		<path d="M138.667,256H53.333c-5.888,0-10.667,4.779-10.667,10.667v64c0,5.888,4.779,10.667,10.667,10.667h85.333
			c5.888,0,10.667-4.779,10.667-10.667v-64C149.333,260.779,144.555,256,138.667,256z M128,320H64v-42.667h64V320z"/>
	</g>
</g>
<g>
	<g>
		<path d="M96,256c-5.888,0-10.667,4.779-10.667,10.667v64c0,5.888,4.779,10.667,10.667,10.667s10.667-4.779,10.667-10.667v-64
			C106.667,260.779,101.888,256,96,256z"/>
	</g>
</g>
<g>
	<g>
		<path d="M437.333,256H352c-5.888,0-10.667,4.779-10.667,10.667v64c0,5.888,4.779,10.667,10.667,10.667h85.333
			c5.888,0,10.667-4.779,10.667-10.667v-64C448,260.779,443.221,256,437.333,256z M426.667,320h-64v-42.667h64V320z"/>
	</g>
</g>
<g>
	<g>
		<path d="M394.667,256c-5.888,0-10.667,4.779-10.667,10.667v64c0,5.888,4.779,10.667,10.667,10.667
			c5.888,0,10.667-4.779,10.667-10.667v-64C405.333,260.779,400.555,256,394.667,256z"/>
	</g>
</g>
<g>
	<g>
		<path d="M309.333,149.333c-5.888,0-10.667,4.779-10.667,10.667v64c0,5.888,4.779,10.667,10.667,10.667S320,229.888,320,224v-64
			C320,154.112,315.221,149.333,309.333,149.333z"/>
	</g>
</g>
<g>
	<g>
		<path d="M181.333,42.667c-5.888,0-10.667,4.779-10.667,10.667v64c0,5.888,4.779,10.667,10.667,10.667S192,123.221,192,117.333v-64
			C192,47.445,187.221,42.667,181.333,42.667z"/>
	</g>
</g>
<g>
	<g>
		<path d="M309.333,42.667c-5.888,0-10.667,4.779-10.667,10.667v64c0,5.888,4.779,10.667,10.667,10.667S320,123.221,320,117.333v-64
			C320,47.445,315.221,42.667,309.333,42.667z"/>
	</g>
</g>
<g>
</g>
<g>
</g>
<g>
</g>
<g>
</g>
<g>
</g>
<g>
</g>
<g>
</g>
<g>
</g>
<g>
</g>
<g>
</g>
<g>
</g>
<g>
</g>
<g>
</g>
<g>
</g>
<g>
</g>
</svg>
