<?xml version="1.0" encoding="iso-8859-1"?>
<!-- Generator: Adobe Illustrator 19.0.0, SVG Export Plug-In . SVG Version: 6.00 Build 0)  -->
<svg version="1.1" id="Capa_1" xmlns="http://www.w3.org/2000/svg" xmlns:xlink="http://www.w3.org/1999/xlink" x="0px" y="0px"
	 viewBox="0 0 490.667 490.667" style="enable-background:new 0 0 490.667 490.667;" xml:space="preserve">
<g>
	<g>
		<path d="M437.333,202.667h-384C23.936,202.667,0,226.603,0,256v128c0,29.397,23.936,53.333,53.333,53.333h384
			c29.397,0,53.333-23.936,53.333-53.333V256C490.667,226.603,466.731,202.667,437.333,202.667z M469.333,384
			c0,17.643-14.357,32-32,32h-384c-17.643,0-32-14.357-32-32V256c0-17.643,14.357-32,32-32h384c17.643,0,32,14.357,32,32V384z"/>
	</g>
</g>
<g>
	<g>
		<path d="M245.333,53.333c-29.397,0-53.333,23.936-53.333,53.333S215.936,160,245.333,160s53.333-23.936,53.333-53.333
			S274.731,53.333,245.333,53.333z M245.333,138.667c-17.643,0-32-14.357-32-32c0-17.643,14.357-32,32-32s32,14.357,32,32
			C277.333,124.309,262.976,138.667,245.333,138.667z"/>
	</g>
</g>
<g>
	<g>
		<path d="M210.197,99.136c-4.16-4.16-10.923-4.16-15.083,0L88.448,205.803c-4.16,4.16-4.16,10.923,0,15.083
			C90.539,222.955,93.269,224,96,224s5.461-1.045,7.531-3.115l106.667-106.667C214.357,110.059,214.357,103.296,210.197,99.136z"/>
	</g>
</g>
<g>
	<g>
		<path d="M402.197,205.803L295.531,99.136c-4.16-4.16-10.923-4.16-15.083,0c-4.16,4.16-4.16,10.923,0,15.083l106.667,106.667
			c2.091,2.069,4.821,3.115,7.552,3.115c2.731,0,5.461-1.045,7.531-3.115C406.357,216.725,406.357,209.963,402.197,205.803z"/>
	</g>
</g>
<g>
	<g>
		<path d="M53.333,266.667c-5.888,0-10.667,4.779-10.667,10.667v85.333c0,5.888,4.779,10.667,10.667,10.667S64,368.555,64,362.667
			v-85.333C64,271.445,59.221,266.667,53.333,266.667z"/>
	</g>
</g>
<g>
	<g>
		<path d="M96,266.667c-5.888,0-10.667,4.779-10.667,10.667v85.333c0,5.888,4.779,10.667,10.667,10.667s10.667-4.779,10.667-10.667
			v-85.333C106.667,271.445,101.888,266.667,96,266.667z"/>
	</g>
</g>
<g>
	<g>
		<path d="M96,309.333H53.333c-5.888,0-10.667,4.779-10.667,10.667s4.779,10.667,10.667,10.667H96
			c5.888,0,10.667-4.779,10.667-10.667S101.888,309.333,96,309.333z"/>
	</g>
</g>
<g>
	<g>
		<path d="M160,266.667c-17.643,0-32,14.357-32,32v42.667c0,17.643,14.357,32,32,32c17.643,0,32-14.357,32-32v-42.667
			C192,281.024,177.643,266.667,160,266.667z M170.667,341.333c0,5.888-4.779,10.667-10.667,10.667s-10.667-4.779-10.667-10.667
			v-42.667c0-5.888,4.779-10.667,10.667-10.667s10.667,4.779,10.667,10.667V341.333z"/>
	</g>
</g>
<g>
	<g>
		<path d="M277.333,266.667h-64c-5.888,0-10.667,4.779-10.667,10.667S207.445,288,213.333,288h64
			c5.888,0,10.667-4.779,10.667-10.667S283.221,266.667,277.333,266.667z"/>
	</g>
</g>
<g>
	<g>
		<path d="M245.333,266.667c-5.888,0-10.667,4.779-10.667,10.667v85.333c0,5.888,4.779,10.667,10.667,10.667
			S256,368.555,256,362.667v-85.333C256,271.445,251.221,266.667,245.333,266.667z"/>
	</g>
</g>
<g>
	<g>
		<path d="M352,352h-32v-64h32c5.888,0,10.667-4.779,10.667-10.667s-4.779-10.667-10.667-10.667h-42.667
			c-5.888,0-10.667,4.779-10.667,10.667v85.333c0,5.888,4.779,10.667,10.667,10.667H352c5.888,0,10.667-4.779,10.667-10.667
			C362.667,356.779,357.888,352,352,352z"/>
	</g>
</g>
<g>
	<g>
		<path d="M330.667,309.333h-21.333c-5.888,0-10.667,4.779-10.667,10.667s4.779,10.667,10.667,10.667h21.333
			c5.888,0,10.667-4.779,10.667-10.667S336.555,309.333,330.667,309.333z"/>
	</g>
</g>
<g>
	<g>
		<path d="M437.333,352h-32v-74.667c0-5.888-4.779-10.667-10.667-10.667c-5.888,0-10.667,4.779-10.667,10.667v85.333
			c0,5.888,4.779,10.667,10.667,10.667h42.667c5.888,0,10.667-4.779,10.667-10.667C448,356.779,443.221,352,437.333,352z"/>
	</g>
</g>
<g>
</g>
<g>
</g>
<g>
</g>
<g>
</g>
<g>
</g>
<g>
</g>
<g>
</g>
<g>
</g>
<g>
</g>
<g>
</g>
<g>
</g>
<g>
</g>
<g>
</g>
<g>
</g>
<g>
</g>
</svg>
