<?xml version="1.0" encoding="iso-8859-1"?>
<!-- Generator: Adobe Illustrator 19.0.0, SVG Export Plug-In . SVG Version: 6.00 Build 0)  -->
<svg version="1.1" id="Capa_1" xmlns="http://www.w3.org/2000/svg" xmlns:xlink="http://www.w3.org/1999/xlink" x="0px" y="0px"
	 viewBox="0 0 490.667 490.667" style="enable-background:new 0 0 490.667 490.667;" xml:space="preserve">
<g>
	<g>
		<path d="M245.333,128c-88.235,0-160,71.765-160,160v21.333C85.333,315.221,90.112,320,96,320h298.667
			c5.888,0,10.667-4.779,10.667-10.667V288C405.333,199.765,333.568,128,245.333,128z M384,298.667H106.667V288
			c0-76.459,62.208-138.667,138.667-138.667S384,211.541,384,288V298.667z"/>
	</g>
</g>
<g>
	<g>
		<path d="M245.333,170.667c-55.552,0-103.893,39.488-114.965,93.888c-1.173,5.76,2.539,11.392,8.32,12.565
			c0.725,0.149,1.429,0.213,2.133,0.213c4.971,0,9.408-3.477,10.432-8.533c9.088-44.501,48.64-76.8,94.08-76.8
			c5.888,0,10.667-4.779,10.667-10.667S251.221,170.667,245.333,170.667z"/>
	</g>
</g>
<g>
	<g>
		<path d="M224,85.333c-5.888,0-10.667,4.779-10.667,10.667v42.667c0,5.888,4.779,10.667,10.667,10.667s10.667-4.779,10.667-10.667
			V96C234.667,90.112,229.888,85.333,224,85.333z"/>
	</g>
</g>
<g>
	<g>
		<path d="M266.667,85.333C260.779,85.333,256,90.112,256,96v42.667c0,5.888,4.779,10.667,10.667,10.667s10.667-4.779,10.667-10.667
			V96C277.333,90.112,272.555,85.333,266.667,85.333z"/>
	</g>
</g>
<g>
	<g>
		<path d="M266.667,42.667H224c-17.643,0-32,14.357-32,32c0,17.643,14.357,32,32,32h42.667c17.643,0,32-14.357,32-32
			C298.667,57.024,284.309,42.667,266.667,42.667z M266.667,85.333H224c-5.888,0-10.667-4.779-10.667-10.667S218.112,64,224,64
			h42.667c5.888,0,10.667,4.779,10.667,10.667S272.555,85.333,266.667,85.333z"/>
	</g>
</g>
<g>
	<g>
		<path d="M458.667,384C409.131,384,384,366.059,384,330.667v-21.333c0-5.888-4.779-10.667-10.667-10.667h-256
			c-5.888,0-10.667,4.779-10.667,10.667C106.667,350.507,73.173,384,32,384c-5.888,0-10.667,4.779-10.667,10.667
			c0,5.888,4.779,10.667,10.667,10.667h426.667c5.888,0,10.667-4.779,10.667-10.667C469.333,388.779,464.555,384,458.667,384z
			 M92.288,384c19.157-15.509,32.256-38.229,35.115-64h235.264v10.667c0,22.635,7.957,40.661,22.912,53.333H92.288z"/>
	</g>
</g>
<g>
	<g>
		<path d="M458.667,384c-5.888,0-10.667,4.779-10.667,10.667c0,5.888,4.779,10.667,10.667,10.667
			c5.888,0,10.667,4.779,10.667,10.667v10.667h-448V416c0-5.888,4.779-10.667,10.667-10.667s10.667-4.779,10.667-10.667
			C42.667,388.779,37.888,384,32,384c-17.643,0-32,14.357-32,32v21.333C0,443.221,4.779,448,10.667,448H480
			c5.888,0,10.667-4.779,10.667-10.667V416C490.667,398.357,476.309,384,458.667,384z"/>
	</g>
</g>
<g>
</g>
<g>
</g>
<g>
</g>
<g>
</g>
<g>
</g>
<g>
</g>
<g>
</g>
<g>
</g>
<g>
</g>
<g>
</g>
<g>
</g>
<g>
</g>
<g>
</g>
<g>
</g>
<g>
</g>
</svg>
