<?xml version="1.0" encoding="iso-8859-1"?>
<!-- Generator: Adobe Illustrator 19.0.0, SVG Export Plug-In . SVG Version: 6.00 Build 0)  -->
<svg version="1.1" id="Capa_1" xmlns="http://www.w3.org/2000/svg" xmlns:xlink="http://www.w3.org/1999/xlink" x="0px" y="0px"
	 viewBox="0 0 511.984 511.984" style="enable-background:new 0 0 511.984 511.984;" xml:space="preserve">
<g>
	<g>
		<path d="M386.309,278.84c-4.779-3.307-11.456-2.091-14.827,2.773L257.051,448.867c-0.768,1.109-1.301,2.368-1.6,3.712
			c-2.155,9.707-10.88,16.747-20.8,16.747c-11.776,0-21.333-9.579-21.333-21.333c0-1.643,0.277-3.392,1.088-6.763l26.859-181.227
			c0.875-5.824-3.157-11.243-8.981-12.117c-5.696-0.725-11.243,3.157-12.096,8.981l-26.603,179.989
			c-1.088,3.968-1.6,7.595-1.6,11.136c0,23.531,19.136,42.667,42.667,42.667c19.115,0,36.032-13.035,41.088-31.317l113.365-165.675
			C392.411,288.803,391.173,282.168,386.309,278.84z"/>
	</g>
</g>
<g>
	<g>
		<path d="M373.317,85.325c-41.173,0-74.667,33.493-74.667,74.667s33.493,74.667,74.667,74.667
			c41.173,0,74.667-33.493,74.667-74.667S414.491,85.325,373.317,85.325z M373.317,213.325c-29.419,0-53.333-23.936-53.333-53.333
			s23.915-53.333,53.333-53.333c29.419,0,53.333,23.936,53.333,53.333S402.736,213.325,373.317,213.325z"/>
	</g>
</g>
<g>
	<g>
		<path d="M426.651,127.992H319.984c-5.888,0-10.667,4.779-10.667,10.667s4.779,10.667,10.667,10.667h106.667
			c5.888,0,10.667-4.779,10.667-10.667S432.539,127.992,426.651,127.992z"/>
	</g>
</g>
<g>
	<g>
		<path d="M426.651,170.659H319.984c-5.888,0-10.667,4.779-10.667,10.667s4.779,10.667,10.667,10.667h106.667
			c5.888,0,10.667-4.779,10.667-10.667S432.539,170.659,426.651,170.659z"/>
	</g>
</g>
<g>
	<g>
		<path d="M373.317,21.325c-42.859,0-95.531,13.184-141.973,24.832c-36.608,9.173-71.189,17.835-92.693,17.835
			c-5.888,0-10.667,4.779-10.667,10.667v170.667c0,5.888,4.779,10.667,10.667,10.667c40.235,0,91.499,12.843,136.747,24.149
			c29.077,7.275,56.576,14.165,78.379,17.003c2.645,0.384,5.312,0.725,7.936,0.939c4.096,0.363,8,0.576,11.605,0.576
			c76.459,0,138.667-62.208,138.667-138.667S449.776,21.325,373.317,21.325z M373.317,277.325c-3.029,0-6.251-0.192-9.771-0.491
			c-2.304-0.213-4.565-0.512-6.933-0.832c-20.672-2.709-47.573-9.429-76.032-16.555c-42.667-10.667-90.539-22.656-131.264-24.533
			V84.856c23.104-1.941,53.163-9.472,87.211-18.005c45.269-11.328,96.555-24.192,136.789-24.192
			c64.683,0,117.333,52.629,117.333,117.333S438,277.325,373.317,277.325z"/>
	</g>
</g>
<g>
	<g>
		<path d="M103.536,152.12c-24.149-24.171-43.925-9.536-55.723-0.768c-12.309,9.152-17.451,12.949-29.611,0.768
			c-4.16-4.16-10.923-4.16-15.083,0c-4.16,4.16-4.16,10.923,0,15.083c10.325,10.347,19.819,13.909,28.267,13.909
			c12.096,0,22.016-7.36,29.12-12.629c12.203-9.045,16.768-12.437,27.947-1.28c4.16,4.16,10.923,4.16,15.083,0
			C107.696,163.043,107.696,156.28,103.536,152.12z"/>
	</g>
</g>
<g>
	<g>
		<path d="M103.536,205.624c-24.149-24.149-43.925-9.557-55.723-0.768c-12.309,9.152-17.451,12.949-29.611,0.768
			c-4.16-4.16-10.923-4.16-15.083,0c-4.16,4.16-4.16,10.923,0,15.083c10.325,10.347,19.819,13.909,28.267,13.909
			c12.096,0,22.016-7.36,29.12-12.629c12.203-9.045,16.768-12.437,27.947-1.28c4.16,4.16,10.923,4.16,15.083,0
			C107.696,216.547,107.696,209.784,103.536,205.624z"/>
	</g>
</g>
<g>
	<g>
		<path d="M103.536,98.957c-24.149-24.149-43.925-9.536-55.723-0.768c-12.309,9.152-17.451,12.949-29.611,0.768
			c-4.16-4.16-10.923-4.16-15.083,0c-4.16,4.16-4.16,10.923,0,15.083c10.325,10.347,19.819,13.909,28.267,13.909
			c12.096,0,22.016-7.36,29.12-12.629c12.203-9.045,16.768-12.416,27.947-1.28c4.16,4.16,10.923,4.16,15.083,0
			C107.696,109.88,107.696,103.117,103.536,98.957z"/>
	</g>
</g>
<g>
</g>
<g>
</g>
<g>
</g>
<g>
</g>
<g>
</g>
<g>
</g>
<g>
</g>
<g>
</g>
<g>
</g>
<g>
</g>
<g>
</g>
<g>
</g>
<g>
</g>
<g>
</g>
<g>
</g>
</svg>
