<?xml version="1.0" encoding="iso-8859-1"?>
<!-- Generator: Adobe Illustrator 19.0.0, SVG Export Plug-In . SVG Version: 6.00 Build 0)  -->
<svg version="1.1" id="Capa_1" xmlns="http://www.w3.org/2000/svg" xmlns:xlink="http://www.w3.org/1999/xlink" x="0px" y="0px"
	 viewBox="0 0 469.333 469.333" style="enable-background:new 0 0 469.333 469.333;" xml:space="preserve">
<g>
	<g>
		<path d="M416,181.333H53.333C23.915,181.333,0,205.269,0,234.667v128C0,392.064,23.915,416,53.333,416H416
			c29.419,0,53.333-23.936,53.333-53.333v-128C469.333,205.269,445.419,181.333,416,181.333z M448,362.667c0,17.643-14.357,32-32,32
			H53.333c-17.643,0-32-14.357-32-32v-128c0-17.643,14.357-32,32-32H416c17.643,0,32,14.357,32,32V362.667z"/>
	</g>
</g>
<g>
	<g>
		<path d="M117.333,352H64V245.333h53.333c5.888,0,10.667-4.779,10.667-10.667S123.221,224,117.333,224h-64
			c-5.888,0-10.667,4.779-10.667,10.667v128c0,5.888,4.779,10.667,10.667,10.667h64c5.888,0,10.667-4.779,10.667-10.667
			C128,356.779,123.221,352,117.333,352z"/>
	</g>
</g>
<g>
	<g>
		<path d="M96,288H53.333c-5.888,0-10.667,4.779-10.667,10.667s4.779,10.667,10.667,10.667H96c5.888,0,10.667-4.779,10.667-10.667
			S101.888,288,96,288z"/>
	</g>
</g>
<g>
	<g>
		<path d="M254.208,356.757l-85.333-128c-3.285-4.928-9.92-6.229-14.784-2.965c-4.907,3.264-6.229,9.877-2.965,14.784l85.333,128
			c2.069,3.093,5.44,4.757,8.875,4.757c2.048,0,4.096-0.576,5.909-1.792C256.149,368.277,257.472,361.664,254.208,356.757z"/>
	</g>
</g>
<g>
	<g>
		<path d="M251.243,225.792c-4.843-3.264-11.499-1.963-14.784,2.965l-85.333,128c-3.264,4.907-1.92,11.52,2.965,14.784
			c1.813,1.216,3.861,1.792,5.909,1.792c3.435,0,6.805-1.664,8.875-4.757l85.333-128
			C257.472,235.669,256.128,229.056,251.243,225.792z"/>
	</g>
</g>
<g>
	<g>
		<path d="M288,224c-5.888,0-10.667,4.779-10.667,10.667v128c0,5.888,4.779,10.667,10.667,10.667s10.667-4.779,10.667-10.667v-128
			C298.667,228.779,293.888,224,288,224z"/>
	</g>
</g>
<g>
	<g>
		<path d="M416,224h-85.333c-5.888,0-10.667,4.779-10.667,10.667s4.779,10.667,10.667,10.667H416
			c5.888,0,10.667-4.779,10.667-10.667S421.888,224,416,224z"/>
	</g>
</g>
<g>
	<g>
		<path d="M373.333,224c-5.888,0-10.667,4.779-10.667,10.667v128c0,5.888,4.779,10.667,10.667,10.667S384,368.555,384,362.667v-128
			C384,228.779,379.221,224,373.333,224z"/>
	</g>
</g>
<g>
	<g>
		<path d="M96,96c-5.888,0-10.667,4.779-10.667,10.667V192c0,5.888,4.779,10.667,10.667,10.667s10.667-4.779,10.667-10.667v-85.333
			C106.667,100.779,101.888,96,96,96z"/>
	</g>
</g>
<g>
	<g>
		<path d="M373.333,96c-5.888,0-10.667,4.779-10.667,10.667V192c0,5.888,4.779,10.667,10.667,10.667S384,197.888,384,192v-85.333
			C384,100.779,379.221,96,373.333,96z"/>
	</g>
</g>
<g>
	<g>
		<path d="M160,53.333H32c-5.888,0-10.667,4.779-10.667,10.667c0,29.397,23.915,53.333,53.333,53.333h42.667
			c29.419,0,53.333-23.936,53.333-53.333C170.667,58.112,165.888,53.333,160,53.333z M117.333,96H74.667
			c-13.909,0-25.771-8.917-30.165-21.333h102.997C143.104,87.083,131.243,96,117.333,96z"/>
	</g>
</g>
<g>
	<g>
		<path d="M437.333,53.333h-128c-5.888,0-10.667,4.779-10.667,10.667c0,29.397,23.915,53.333,53.333,53.333h42.667
			C424.085,117.333,448,93.397,448,64C448,58.112,443.221,53.333,437.333,53.333z M394.667,96H352
			c-13.909,0-25.771-8.917-30.165-21.333h102.997C420.437,87.083,408.576,96,394.667,96z"/>
	</g>
</g>
<g>
</g>
<g>
</g>
<g>
</g>
<g>
</g>
<g>
</g>
<g>
</g>
<g>
</g>
<g>
</g>
<g>
</g>
<g>
</g>
<g>
</g>
<g>
</g>
<g>
</g>
<g>
</g>
<g>
</g>
</svg>
