<?xml version="1.0" encoding="iso-8859-1"?>
<!-- Generator: Adobe Illustrator 19.0.0, SVG Export Plug-In . SVG Version: 6.00 Build 0)  -->
<svg version="1.1" id="Capa_1" xmlns="http://www.w3.org/2000/svg" xmlns:xlink="http://www.w3.org/1999/xlink" x="0px" y="0px"
	 viewBox="0 0 512 512" style="enable-background:new 0 0 512 512;" xml:space="preserve">
<g>
	<g>
		<path d="M277.333,0h-42.667c-64.704,0-117.333,52.629-117.333,117.333v21.333c0,17.643,14.357,32,32,32c17.643,0,32-14.357,32-32
			v-21.333c0-29.397,23.936-53.333,53.333-53.333h42.667c29.397,0,53.333,23.936,53.333,53.333
			c0,20.779-13.355,38.741-33.259,44.693l-81.259,24.384c-59.115,17.728-98.816,71.104-98.816,132.821v182.101
			c0,5.888,4.779,10.667,10.667,10.667h256c5.888,0,10.667-4.779,10.667-10.667v-384C394.667,52.629,342.037,0,277.333,0z
			 M373.333,490.667H138.667V319.232c0-52.203,33.6-97.387,83.605-112.363l81.259-24.384C332.523,173.781,352,147.584,352,117.333
			c0-41.173-33.493-74.667-74.667-74.667h-42.667C193.493,42.667,160,76.16,160,117.333v21.333c0,5.888-4.779,10.667-10.667,10.667
			s-10.667-4.779-10.667-10.667v-21.333c0-52.928,43.072-96,96-96h42.667c52.928,0,96,43.072,96,96V490.667z"/>
	</g>
</g>
<g>
	<g>
		<path d="M341.333,298.667H170.667c-5.888,0-10.667,4.779-10.667,10.667S164.779,320,170.667,320h170.667
			c5.888,0,10.667-4.779,10.667-10.667S347.221,298.667,341.333,298.667z"/>
	</g>
</g>
<g>
	<g>
		<path d="M341.333,362.667H170.667c-5.888,0-10.667,4.779-10.667,10.667c0,5.888,4.779,10.667,10.667,10.667h170.667
			c5.888,0,10.667-4.779,10.667-10.667C352,367.445,347.221,362.667,341.333,362.667z"/>
	</g>
</g>
<g>
	<g>
		<path d="M341.333,426.667H170.667c-5.888,0-10.667,4.779-10.667,10.667c0,5.888,4.779,10.667,10.667,10.667h170.667
			c5.888,0,10.667-4.779,10.667-10.667C352,431.445,347.221,426.667,341.333,426.667z"/>
	</g>
</g>
<g>
</g>
<g>
</g>
<g>
</g>
<g>
</g>
<g>
</g>
<g>
</g>
<g>
</g>
<g>
</g>
<g>
</g>
<g>
</g>
<g>
</g>
<g>
</g>
<g>
</g>
<g>
</g>
<g>
</g>
</svg>
