<?xml version="1.0" encoding="iso-8859-1"?>
<!-- Generator: Adobe Illustrator 19.0.0, SVG Export Plug-In . SVG Version: 6.00 Build 0)  -->
<svg version="1.1" id="Capa_1" xmlns="http://www.w3.org/2000/svg" xmlns:xlink="http://www.w3.org/1999/xlink" x="0px" y="0px"
	 viewBox="0 0 512 512" style="enable-background:new 0 0 512 512;" xml:space="preserve">
<g>
	<g>
		<path d="M277.333,0h-42.667c-64.704,0-117.333,52.629-117.333,117.333v21.333c0,17.643,14.357,32,32,32c17.643,0,32-14.357,32-32
			v-21.333c0-29.397,23.936-53.333,53.333-53.333h42.667c29.397,0,53.333,23.936,53.333,53.376
			c0,34.453-20.693,65.024-52.693,77.824l-94.528,37.803c-40.171,16.064-66.112,54.4-66.112,97.643v128.021
			c0,29.397,23.936,53.333,53.333,53.333h170.667c29.397,0,53.333-23.936,53.333-53.333V117.333C394.667,52.629,342.037,0,277.333,0
			z M373.333,458.667c0,17.643-14.357,32-32,32H170.667c-17.643,0-32-14.357-32-32V330.645c0-34.453,20.693-65.024,52.693-77.824
			l94.528-37.824c40.171-16.064,66.112-54.4,66.112-97.664c0-41.173-33.493-74.667-74.667-74.667h-42.667
			C193.493,42.667,160,76.16,160,117.333v21.333c0,5.888-4.779,10.667-10.667,10.667s-10.667-4.779-10.667-10.667v-21.333
			c0-52.928,43.072-96,96-96h42.667c52.928,0,96,43.072,96,96V458.667z"/>
	</g>
</g>
<g>
	<g>
		<path d="M323.883,305.472c-37.44-37.419-98.325-37.419-135.765,0c-37.419,37.44-37.419,98.325,0,135.765
			c18.709,18.709,43.307,28.053,67.883,28.053s49.173-9.365,67.883-28.053C361.301,403.797,361.301,342.912,323.883,305.472z
			 M308.8,426.133c-29.12,29.099-76.501,29.099-105.6,0c-29.099-29.12-29.099-76.48,0-105.6
			c14.549-14.549,33.685-21.824,52.8-21.824s38.251,7.275,52.8,21.824C337.899,349.653,337.899,397.013,308.8,426.133z"/>
	</g>
</g>
<g>
	<g>
		<path d="M323.883,426.155L203.2,305.472c-4.16-4.16-10.923-4.16-15.083,0c-4.16,4.16-4.16,10.923,0,15.083L308.8,441.237
			c2.091,2.069,4.821,3.115,7.552,3.115s5.44-1.045,7.531-3.115C328.043,437.077,328.043,430.315,323.883,426.155z"/>
	</g>
</g>
<g>
</g>
<g>
</g>
<g>
</g>
<g>
</g>
<g>
</g>
<g>
</g>
<g>
</g>
<g>
</g>
<g>
</g>
<g>
</g>
<g>
</g>
<g>
</g>
<g>
</g>
<g>
</g>
<g>
</g>
</svg>
