<?xml version="1.0" encoding="iso-8859-1"?>
<!-- Generator: Adobe Illustrator 19.0.0, SVG Export Plug-In . SVG Version: 6.00 Build 0)  -->
<svg version="1.1" id="Capa_1" xmlns="http://www.w3.org/2000/svg" xmlns:xlink="http://www.w3.org/1999/xlink" x="0px" y="0px"
	 viewBox="0 0 512 512" style="enable-background:new 0 0 512 512;" xml:space="preserve">
<g>
	<g>
		<path d="M96,277.333H42.667C36.779,277.333,32,282.112,32,288s4.779,10.667,10.667,10.667H96c13.909,0,25.771,8.917,30.165,21.333
			H32c-5.888,0-10.667,4.779-10.667,10.667S26.112,341.333,32,341.333h106.667c5.888,0,10.667-4.779,10.667-10.667
			C149.333,301.269,125.419,277.333,96,277.333z"/>
	</g>
</g>
<g>
	<g>
		<path d="M338.816,281.109c-2.048-2.411-5.013-3.776-8.149-3.776H181.333c-3.136,0-6.101,1.365-8.149,3.776
			c-2.005,2.389-2.88,5.547-2.368,8.64l10.667,64c0.853,5.141,5.312,8.917,10.517,8.917h128c5.205,0,9.664-3.776,10.517-8.917
			l10.667-64C341.717,286.656,340.843,283.499,338.816,281.109z M310.955,341.333H201.045l-7.125-42.667h124.16L310.955,341.333z"/>
	</g>
</g>
<g>
	<g>
		<path d="M84.224,197.888l-21.333-42.667c-1.323-2.624-3.648-4.587-6.464-5.44c-2.453-0.725-24.491-6.891-40.96,5.333
			C5.205,162.731,0,175.147,0,192c0,20.011,32.299,28.544,51.52,31.851c0.597,0.107,1.216,0.149,1.813,0.149
			c1.643,0,3.285-0.384,4.779-1.131l21.333-10.667C84.715,209.579,86.827,203.157,84.224,197.888z M51.776,202.197
			c-14.123-2.859-28.501-8.171-30.443-10.197c0-9.707,2.283-16.32,6.784-19.712c3.413-2.581,8.107-3.349,12.395-3.349
			c2.005,0,3.925,0.171,5.568,0.405l14.272,28.565L51.776,202.197z"/>
	</g>
</g>
<g>
	<g>
		<path d="M446.763,196.992c-15.637-50.048-53.675-108.395-79.317-121.216c-23.957-11.989-198.912-11.989-222.869,0
			c-25.643,12.821-63.701,71.168-79.317,121.216C34.944,228.032,21.333,280.768,21.333,320c0,22.613,2.155,75.861,21.333,100.011
			v38.656c0,17.643,14.357,32,32,32H96c17.643,0,32-14.357,32-32v-19.861c24.299,2.987,80.427,9.195,128,9.195
			s103.701-6.208,128-9.195v19.861c0,17.643,14.357,32,32,32h21.333c17.643,0,32-14.357,32-32v-38.656
			c19.179-24.149,21.333-77.397,21.333-100.011C490.667,280.768,477.056,228.032,446.763,196.992z M451.115,408.448
			C449.131,410.453,448,413.184,448,416v42.667c0,5.888-4.8,10.667-10.667,10.667H416c-5.867,0-10.667-4.779-10.667-10.667v-32
			c0-3.093-1.323-6.016-3.669-8.043c-1.941-1.707-4.437-2.624-6.997-2.624c-0.469,0-0.981,0.021-1.451,0.107
			c-0.768,0.107-77.333,10.56-137.216,10.56s-136.448-10.453-137.216-10.56c-3.051-0.491-6.144,0.512-8.448,2.517
			c-2.325,2.027-3.669,4.949-3.669,8.043v32c0,5.888-4.8,10.667-10.667,10.667H74.667C68.8,469.333,64,464.555,64,458.667V416
			c0-2.816-1.131-5.547-3.115-7.552C49.984,397.568,42.667,362.005,42.667,320c0-34.432,12.331-83.435,39.403-109.675
			c1.323-1.28,2.304-2.859,2.816-4.608c15.232-51.136,52.48-102.485,69.205-110.848c18.091-9.045,185.707-9.045,203.797,0
			c16.725,8.363,53.973,59.733,69.205,110.848c0.533,1.749,1.493,3.328,2.816,4.608c27.093,26.24,39.424,75.243,39.424,109.675
			C469.333,362.005,462.016,397.568,451.115,408.448z"/>
	</g>
</g>
<g>
	<g>
		<path d="M447.957,201.813c-0.448-5.867-5.696-10.112-11.456-9.792c-1.365,0.107-136.107,10.645-180.501,10.645
			S76.864,192.128,75.499,192.043c-5.803-0.363-11.008,3.904-11.456,9.792c-0.491,5.867,3.925,11.008,9.792,11.477
			C79.403,213.739,210.773,224,256,224s176.597-10.261,182.165-10.709C444.032,212.821,448.427,207.68,447.957,201.813z"/>
	</g>
</g>
<g>
	<g>
		<path d="M480,320h-94.165c4.395-12.416,16.256-21.333,30.165-21.333h53.333c5.888,0,10.667-4.779,10.667-10.667
			s-4.779-10.667-10.667-10.667H416c-29.419,0-53.333,23.936-53.333,53.333c0,5.888,4.779,10.667,10.667,10.667H480
			c5.888,0,10.667-4.779,10.667-10.667S485.888,320,480,320z"/>
	</g>
</g>
<g>
	<g>
		<path d="M496.533,155.115c-16.512-12.245-38.528-6.08-40.96-5.333c-2.816,0.853-5.141,2.816-6.464,5.44l-21.333,42.667
			c-2.624,5.269-0.491,11.669,4.779,14.315l21.333,10.667c1.493,0.747,3.136,1.131,4.779,1.131c0.597,0,1.216-0.043,1.813-0.149
			C479.701,220.544,512,212.011,512,192C512,175.147,506.795,162.731,496.533,155.115z M460.224,202.176l-8.576-4.288l14.272-28.544
			c5.227-0.747,12.949-0.832,17.963,2.944c4.501,3.392,6.784,10.005,7.125,18.155C488.747,193.92,474.347,199.317,460.224,202.176z"
			/>
	</g>
</g>
<g>
	<g>
		<path d="M340.203,69.888l-21.333-42.667c-1.813-3.605-5.504-5.888-9.536-5.888H202.667c-4.032,0-7.723,2.283-9.536,5.888
			l-21.333,42.667c-2.624,5.269-0.512,11.691,4.757,14.315c5.291,2.645,11.669,0.512,14.315-4.757l18.389-36.779h93.483
			l18.389,36.779c1.877,3.733,5.632,5.888,9.536,5.888c1.6,0,3.221-0.363,4.757-1.131C340.693,81.557,342.827,75.157,340.203,69.888
			z"/>
	</g>
</g>
<g>
	<g>
		<path d="M119.083,416.149l-64-10.667c-5.717-1.045-11.285,2.944-12.267,8.768c-0.981,5.803,2.965,11.307,8.768,12.267l64,10.667
			c0.576,0.107,1.195,0.149,1.771,0.149c5.099,0,9.621-3.691,10.496-8.917C128.832,422.613,124.885,417.109,119.083,416.149z"/>
	</g>
</g>
<g>
	<g>
		<path d="M469.184,414.251c-0.981-5.824-6.571-9.813-12.267-8.768l-64,10.667c-5.803,0.96-9.749,6.464-8.768,12.267
			c0.875,5.227,5.397,8.917,10.496,8.917c0.576,0,1.195-0.043,1.771-0.149l64-10.667
			C466.219,425.557,470.165,420.053,469.184,414.251z"/>
	</g>
</g>
<g>
</g>
<g>
</g>
<g>
</g>
<g>
</g>
<g>
</g>
<g>
</g>
<g>
</g>
<g>
</g>
<g>
</g>
<g>
</g>
<g>
</g>
<g>
</g>
<g>
</g>
<g>
</g>
<g>
</g>
</svg>
