<?xml version="1.0" encoding="iso-8859-1"?>
<!-- Generator: Adobe Illustrator 19.0.0, SVG Export Plug-In . SVG Version: 6.00 Build 0)  -->
<svg version="1.1" id="Capa_1" xmlns="http://www.w3.org/2000/svg" xmlns:xlink="http://www.w3.org/1999/xlink" x="0px" y="0px"
	 viewBox="0 0 512 512" style="enable-background:new 0 0 512 512;" xml:space="preserve">
<g>
	<g>
		<path d="M128,426.667c-23.531,0-42.667,19.136-42.667,42.667C85.333,492.864,104.469,512,128,512
			c23.531,0,42.667-19.136,42.667-42.667C170.667,445.803,151.531,426.667,128,426.667z M128,490.667
			c-11.776,0-21.333-9.579-21.333-21.333c0-11.755,9.557-21.333,21.333-21.333s21.333,9.579,21.333,21.333
			C149.333,481.088,139.776,490.667,128,490.667z"/>
	</g>
</g>
<g>
	<g>
		<path d="M384,426.667c-23.531,0-42.667,19.136-42.667,42.667C341.333,492.864,360.469,512,384,512
			c23.531,0,42.667-19.136,42.667-42.667C426.667,445.803,407.531,426.667,384,426.667z M384,490.667
			c-11.776,0-21.333-9.579-21.333-21.333c0-11.755,9.557-21.333,21.333-21.333s21.333,9.579,21.333,21.333
			C405.333,481.088,395.776,490.667,384,490.667z"/>
	</g>
</g>
<g>
	<g>
		<path d="M202.667,21.333h-21.333c-88.235,0-160,71.765-160,160v256C21.333,443.221,26.112,448,32,448s10.667-4.779,10.667-10.667
			v-256c0-76.459,62.208-138.667,138.667-138.667h21.333c5.888,0,10.667-4.779,10.667-10.667S208.555,21.333,202.667,21.333z"/>
	</g>
</g>
<g>
	<g>
		<path d="M330.667,21.333h-21.333c-5.888,0-10.667,4.779-10.667,10.667s4.779,10.667,10.667,10.667h21.333
			c76.459,0,138.667,62.208,138.667,138.667v256c0,5.888,4.779,10.667,10.667,10.667c5.888,0,10.667-4.779,10.667-10.667v-256
			C490.667,93.099,418.901,21.333,330.667,21.333z"/>
	</g>
</g>
<g>
	<g>
		<path d="M288,0h-64c-17.643,0-32,14.357-32,32s14.357,32,32,32h64c17.643,0,32-14.357,32-32C320,14.357,305.643,0,288,0z
			 M288,42.667h-64c-5.867,0-10.667-4.779-10.667-10.667s4.8-10.667,10.667-10.667h64c5.867,0,10.667,4.779,10.667,10.667
			S293.867,42.667,288,42.667z"/>
	</g>
</g>
<g>
	<g>
		<path d="M501.333,426.667H10.667C4.779,426.667,0,431.445,0,437.333C0,443.221,4.779,448,10.667,448h490.667
			c5.888,0,10.667-4.779,10.667-10.667C512,431.445,507.221,426.667,501.333,426.667z"/>
	</g>
</g>
<g>
	<g>
		<path d="M416,298.667H96c-5.888,0-10.667,4.779-10.667,10.667v85.333c0,5.888,4.779,10.667,10.667,10.667h320
			c5.888,0,10.667-4.779,10.667-10.667v-85.333C426.667,303.445,421.888,298.667,416,298.667z M405.333,384H106.667v-64h298.667V384
			z"/>
	</g>
</g>
<g>
	<g>
		<path d="M160,298.667c-5.888,0-10.667,4.779-10.667,10.667v85.333c0,5.888,4.779,10.667,10.667,10.667s10.667-4.779,10.667-10.667
			v-85.333C170.667,303.445,165.888,298.667,160,298.667z"/>
	</g>
</g>
<g>
	<g>
		<path d="M352,298.667c-5.888,0-10.667,4.779-10.667,10.667v85.333c0,5.888,4.779,10.667,10.667,10.667
			c5.888,0,10.667-4.779,10.667-10.667v-85.333C362.667,303.445,357.888,298.667,352,298.667z"/>
	</g>
</g>
<g>
	<g>
		<path d="M373.333,213.333H138.667c-5.888,0-10.667,4.779-10.667,10.667v85.333c0,5.888,4.779,10.667,10.667,10.667
			s10.667-4.779,10.667-10.667v-74.667h213.333v74.667c0,5.888,4.779,10.667,10.667,10.667c5.888,0,10.667-4.779,10.667-10.667V224
			C384,218.112,379.221,213.333,373.333,213.333z"/>
	</g>
</g>
<g>
	<g>
		<path d="M288,245.333c-5.888,0-10.667,4.779-10.667,10.667h-42.667c0-5.888-4.779-10.667-10.667-10.667
			s-10.667,4.779-10.667,10.667v10.667c0,5.888,4.779,10.667,10.667,10.667h64c5.888,0,10.667-4.779,10.667-10.667V256
			C298.667,250.112,293.888,245.333,288,245.333z"/>
	</g>
</g>
<g>
	<g>
		<path d="M181.333,213.333c-5.888,0-10.667,4.779-10.667,10.667v74.667c0,5.888,4.779,10.667,10.667,10.667
			S192,304.555,192,298.667V224C192,218.112,187.221,213.333,181.333,213.333z"/>
	</g>
</g>
<g>
	<g>
		<path d="M330.667,213.333c-5.888,0-10.667,4.779-10.667,10.667v85.333c0,5.888,4.779,10.667,10.667,10.667
			s10.667-4.779,10.667-10.667V224C341.333,218.112,336.555,213.333,330.667,213.333z"/>
	</g>
</g>
<g>
</g>
<g>
</g>
<g>
</g>
<g>
</g>
<g>
</g>
<g>
</g>
<g>
</g>
<g>
</g>
<g>
</g>
<g>
</g>
<g>
</g>
<g>
</g>
<g>
</g>
<g>
</g>
<g>
</g>
</svg>
