<?xml version="1.0" encoding="iso-8859-1"?>
<!-- Generator: Adobe Illustrator 19.0.0, SVG Export Plug-In . SVG Version: 6.00 Build 0)  -->
<svg version="1.1" id="Capa_1" xmlns="http://www.w3.org/2000/svg" xmlns:xlink="http://www.w3.org/1999/xlink" x="0px" y="0px"
	 viewBox="0 0 426.667 426.667" style="enable-background:new 0 0 426.667 426.667;" xml:space="preserve">
<g>
	<g>
		<path d="M405.333,320h-384c-5.888,0-10.667,4.779-10.667,10.667V416c0,5.888,4.779,10.667,10.667,10.667S32,421.888,32,416
			v-74.667h362.667V416c0,5.888,4.779,10.667,10.667,10.667c5.888,0,10.667-4.779,10.667-10.667v-85.333
			C416,324.779,411.221,320,405.333,320z"/>
	</g>
</g>
<g>
	<g>
		<path d="M405.333,384h-384c-5.888,0-10.667,4.779-10.667,10.667c0,5.888,4.779,10.667,10.667,10.667h384
			c5.888,0,10.667-4.779,10.667-10.667C416,388.779,411.221,384,405.333,384z"/>
	</g>
</g>
<g>
	<g>
		<path d="M405.333,256c-5.888,0-10.667,4.779-10.667,10.667v13.739l-64.917-146.069c-2.389-5.397-8.704-7.851-14.08-5.419
			c-5.397,2.389-7.808,8.704-5.419,14.08l85.333,192c1.749,3.904,5.611,6.336,9.749,6.336c0.725,0,1.472-0.064,2.219-0.235
			c4.928-1.045,8.448-5.397,8.448-10.432v-64C416,260.779,411.221,256,405.333,256z"/>
	</g>
</g>
<g>
	<g>
		<path d="M138.667,128h-32c-4.224,0-8.021,2.475-9.749,6.336L32,280.405v-13.739C32,260.779,27.221,256,21.333,256
			s-10.667,4.779-10.667,10.667v64c0,5.035,3.52,9.387,8.448,10.432c0.747,0.171,1.493,0.235,2.219,0.235
			c4.139,0,8-2.432,9.749-6.336L113.6,149.333h25.067c5.888,0,10.667-4.779,10.667-10.667S144.555,128,138.667,128z"/>
	</g>
</g>
<g>
	<g>
		<path d="M277.333,0h-128C119.936,0,96,23.936,96,53.333v85.333c0,5.888,4.779,10.667,10.667,10.667s10.667-4.779,10.667-10.667
			V53.333c0-17.643,14.357-32,32-32h128c17.643,0,32,14.357,32,32V128H288c-5.888,0-10.667,4.779-10.667,10.667
			s4.779,10.667,10.667,10.667h32c5.888,0,10.667-4.779,10.667-10.667V53.333C330.667,23.936,306.731,0,277.333,0z"/>
	</g>
</g>
<g>
	<g>
		<path d="M295.573,156.032l-5.333-42.667c-1.984-15.979-15.637-28.032-31.744-28.032h-90.325c-16.107,0-29.76,12.053-31.744,28.032
			l-5.333,42.667c-1.152,9.109,1.685,18.261,7.744,25.152c6.08,6.869,14.827,10.816,24,10.816h100.992
			c9.173,0,17.92-3.947,23.979-10.816C293.888,174.293,296.704,165.141,295.573,156.032z M271.829,167.061
			c-2.048,2.325-4.885,3.605-8,3.605H162.837c-3.115,0-5.952-1.28-8-3.605c-2.048-2.325-2.965-5.291-2.581-8.384l5.333-42.667
			c0.661-5.333,5.205-9.344,10.581-9.344h90.325c5.376,0,9.92,4.011,10.581,9.344l5.333,42.667
			C274.795,161.749,273.877,164.736,271.829,167.061z"/>
	</g>
</g>
<g>
</g>
<g>
</g>
<g>
</g>
<g>
</g>
<g>
</g>
<g>
</g>
<g>
</g>
<g>
</g>
<g>
</g>
<g>
</g>
<g>
</g>
<g>
</g>
<g>
</g>
<g>
</g>
<g>
</g>
</svg>
