<?xml version="1.0" encoding="iso-8859-1"?>
<!-- Generator: Adobe Illustrator 19.0.0, SVG Export Plug-In . SVG Version: 6.00 Build 0)  -->
<svg version="1.1" id="Capa_1" xmlns="http://www.w3.org/2000/svg" xmlns:xlink="http://www.w3.org/1999/xlink" x="0px" y="0px"
	 viewBox="0 0 512 512" style="enable-background:new 0 0 512 512;" xml:space="preserve">
<g>
	<g>
		<path d="M431.264,81.557C427.125,59.029,409.077,41.707,388,38.827l-53.397-16.512C327.691,17.536,299.957,0,265.824,0
			c-33.579,0-60.971,16.981-68.437,22.059l-71.744,16.384c-22.72,3.243-40.768,20.565-44.907,43.115
			C66.848,157.419,43.531,293.419,43.531,352c0,5.888,4.779,10.667,10.667,10.667h94.293c5.653,0,10.325-4.437,10.645-10.069
			l10.667-192c0.341-5.888-4.181-10.923-10.048-11.243c-6.229-0.405-10.923,4.181-11.243,10.048L138.4,341.333H65.099
			c2.603-64.469,26.155-198.805,36.629-255.936c2.475-13.504,13.312-23.872,27.797-26.005l74.667-17.003
			c1.451-0.32,2.816-0.96,4.011-1.835c0.256-0.192,26.24-19.221,57.621-19.221c31.381,0,57.365,19.029,57.621,19.2
			c0.96,0.725,2.069,1.28,3.221,1.643l56.683,17.387c13.632,1.941,24.469,12.331,26.944,25.835
			c10.453,57.088,34.027,191.339,36.629,255.936h-53.675l-10.112-181.931c-0.32-5.867-5.312-10.389-11.243-10.048
			c-5.867,0.32-10.389,5.355-10.048,11.243l10.667,192c0.32,5.632,4.992,10.069,10.645,10.069h74.667
			c5.888,0,10.667-4.779,10.645-10.667C468.469,291.093,442.443,142.571,431.264,81.557z"/>
	</g>
</g>
<g>
	<g>
		<path d="M404.469,479.125l-10.667-128c-0.491-5.888-5.632-10.283-11.52-9.749c-5.888,0.491-10.24,5.653-9.749,11.52l9.92,118.997
			c-21.739,5.376-79.616,18.773-116.629,18.773c-36.971,0-94.869-13.397-116.629-18.773l9.941-118.997
			c0.469-5.888-3.883-11.029-9.749-11.52c-6.08-0.512-11.051,3.883-11.52,9.749l-10.667,128c-0.448,5.141,2.88,9.856,7.872,11.179
			C138.4,491.179,216.992,512,265.824,512c48.832,0,127.424-20.821,130.773-21.696C401.589,488.981,404.917,484.267,404.469,479.125
			z"/>
	</g>
</g>
<g>
	<g>
		<path d="M275.936,220.629l-64-192c-1.856-5.589-7.851-8.619-13.483-6.741c-5.589,1.856-8.619,7.893-6.741,13.483l64,192
			c1.493,4.48,5.653,7.296,10.112,7.296c1.109,0,2.24-0.171,3.371-0.555C274.784,232.256,277.792,226.219,275.936,220.629z"/>
	</g>
</g>
<g>
	<g>
		<path d="M333.195,21.888c-5.653-1.877-11.627,1.152-13.483,6.741l-85.333,256c-1.856,5.589,1.152,11.627,6.741,13.483
			c1.131,0.384,2.261,0.555,3.371,0.555c4.459,0,8.619-2.816,10.112-7.296l85.333-256C341.792,29.781,338.784,23.744,333.195,21.888
			z"/>
	</g>
</g>
<g>
	<g>
		<path d="M244.491,277.333c-17.643,0-32,14.357-32,32v85.333c0,17.643,14.357,32,32,32c17.643,0,32-14.357,32-32v-85.333
			C276.491,291.691,262.133,277.333,244.491,277.333z M255.157,394.667c0,5.888-4.779,10.667-10.667,10.667
			s-10.667-4.779-10.667-10.667v-85.333c0-5.888,4.779-10.667,10.667-10.667s10.667,4.779,10.667,10.667V394.667z"/>
	</g>
</g>
<g>
	<g>
		<path d="M287.157,277.333c-17.643,0-32,14.357-32,32V352c0,17.643,14.357,32,32,32s32-14.357,32-32v-42.667
			C319.157,291.691,304.8,277.333,287.157,277.333z M297.824,352c0,5.888-4.779,10.667-10.667,10.667s-10.667-4.779-10.667-10.667
			v-42.667c0-5.888,4.779-10.667,10.667-10.667s10.667,4.779,10.667,10.667V352z"/>
	</g>
</g>
<g>
	<g>
		<path d="M223.157,341.333h-74.667c-5.888,0-10.667,4.779-10.667,10.667c0,5.888,4.779,10.667,10.667,10.667h74.667
			c5.888,0,10.667-4.779,10.667-10.667C233.824,346.112,229.045,341.333,223.157,341.333z"/>
	</g>
</g>
<g>
	<g>
		<path d="M383.157,341.333h-74.667c-5.888,0-10.667,4.779-10.667,10.667c0,5.888,4.779,10.667,10.667,10.667h74.667
			c5.888,0,10.667-4.779,10.667-10.667C393.824,346.112,389.045,341.333,383.157,341.333z"/>
	</g>
</g>
<g>
	<g>
		<path d="M372.491,298.667h-64c-5.888,0-10.667,4.779-10.667,10.667S302.603,320,308.491,320h64
			c5.888,0,10.667-4.779,10.667-10.667S378.379,298.667,372.491,298.667z"/>
	</g>
</g>
<g>
	<g>
		<path d="M223.157,298.667h-64c-5.888,0-10.667,4.779-10.667,10.667S153.269,320,159.157,320h64
			c5.888,0,10.667-4.779,10.667-10.667S229.045,298.667,223.157,298.667z"/>
	</g>
</g>
<g>
	<g>
		<path d="M244.491,405.333c-5.888,0-10.667,4.779-10.667,10.667v74.667c0,5.888,4.779,10.667,10.667,10.667
			s10.667-4.779,10.667-10.667V416C255.157,410.112,250.379,405.333,244.491,405.333z"/>
	</g>
</g>
<g>
</g>
<g>
</g>
<g>
</g>
<g>
</g>
<g>
</g>
<g>
</g>
<g>
</g>
<g>
</g>
<g>
</g>
<g>
</g>
<g>
</g>
<g>
</g>
<g>
</g>
<g>
</g>
<g>
</g>
</svg>
