<?xml version="1.0" encoding="iso-8859-1"?>
<!-- Generator: Adobe Illustrator 19.0.0, SVG Export Plug-In . SVG Version: 6.00 Build 0)  -->
<svg version="1.1" id="Capa_1" xmlns="http://www.w3.org/2000/svg" xmlns:xlink="http://www.w3.org/1999/xlink" x="0px" y="0px"
	 viewBox="0 0 512 512" style="enable-background:new 0 0 512 512;" xml:space="preserve">
<g>
	<g>
		<path d="M458.667,42.667H53.333C23.936,42.667,0,66.603,0,96v149.333c0,29.397,23.936,53.333,53.333,53.333h405.333
			c29.397,0,53.333-23.936,53.333-53.333V96C512,66.603,488.064,42.667,458.667,42.667z M490.667,245.333c0,17.643-14.357,32-32,32
			H53.333c-17.643,0-32-14.357-32-32V96c0-17.643,14.357-32,32-32h405.333c17.643,0,32,14.357,32,32V245.333z"/>
	</g>
</g>
<g>
	<g>
		<path d="M501.333,192H10.667C4.779,192,0,196.779,0,202.667s4.779,10.667,10.667,10.667h490.667
			c5.888,0,10.667-4.779,10.667-10.667S507.221,192,501.333,192z"/>
	</g>
</g>
<g>
	<g>
		<path d="M181.376,389.611c-9.515-23.979-14.72-39.296-2.624-51.392c4.16-4.16,4.16-10.923,0-15.083
			c-4.16-4.16-10.923-4.16-15.083,0c-22.635,22.635-11.264,51.307-2.133,74.347c9.835,24.768,15.189,40.597,2.133,53.653
			c-4.16,4.16-4.16,10.923,0,15.083c2.091,2.069,4.821,3.115,7.552,3.115c2.731,0,5.461-1.045,7.531-3.115
			C202.368,442.581,190.72,413.205,181.376,389.611z"/>
	</g>
</g>
<g>
	<g>
		<path d="M266.347,389.611c-9.515-23.979-14.72-39.296-2.624-51.392c4.16-4.16,4.16-10.923,0-15.083
			c-4.16-4.16-10.923-4.16-15.083,0c-22.635,22.635-11.264,51.307-2.133,74.347c9.835,24.768,15.189,40.597,2.133,53.653
			c-4.16,4.16-4.16,10.923,0,15.083c2.091,2.069,4.821,3.115,7.552,3.115c2.731,0,5.461-1.045,7.531-3.115
			C287.339,442.581,275.691,413.205,266.347,389.611z"/>
	</g>
</g>
<g>
	<g>
		<path d="M351.339,389.611c-9.515-23.979-14.72-39.296-2.624-51.392c4.16-4.16,4.16-10.923,0-15.083
			c-4.16-4.16-10.923-4.16-15.083,0c-22.635,22.635-11.264,51.307-2.133,74.347c9.835,24.768,15.189,40.597,2.133,53.653
			c-4.16,4.16-4.16,10.923,0,15.083c2.091,2.069,4.821,3.115,7.552,3.115c2.731,0,5.461-1.045,7.531-3.115
			C372.331,442.581,360.683,413.205,351.339,389.611z"/>
	</g>
</g>
<g>
	<g>
		<path d="M458.667,234.667H53.333c-5.888,0-10.667,4.779-10.667,10.667S47.445,256,53.333,256h405.333
			c5.888,0,10.667-4.779,10.667-10.667S464.555,234.667,458.667,234.667z"/>
	</g>
</g>
<g>
	<g>
		<path d="M74.667,85.333C68.779,85.333,64,90.112,64,96v64c0,5.888,4.779,10.667,10.667,10.667S85.333,165.888,85.333,160V96
			C85.333,90.112,80.555,85.333,74.667,85.333z"/>
	</g>
</g>
<g>
	<g>
		<path d="M138.667,85.333C132.779,85.333,128,90.112,128,96v64c0,5.888,4.779,10.667,10.667,10.667s10.667-4.779,10.667-10.667V96
			C149.333,90.112,144.555,85.333,138.667,85.333z"/>
	</g>
</g>
<g>
	<g>
		<path d="M202.667,85.333C196.779,85.333,192,90.112,192,96v64c0,5.888,4.779,10.667,10.667,10.667s10.667-4.779,10.667-10.667V96
			C213.333,90.112,208.555,85.333,202.667,85.333z"/>
	</g>
</g>
<g>
	<g>
		<path d="M266.667,85.333C260.779,85.333,256,90.112,256,96v64c0,5.888,4.779,10.667,10.667,10.667s10.667-4.779,10.667-10.667V96
			C277.333,90.112,272.555,85.333,266.667,85.333z"/>
	</g>
</g>
<g>
	<g>
		<path d="M330.667,85.333C324.779,85.333,320,90.112,320,96v64c0,5.888,4.779,10.667,10.667,10.667s10.667-4.779,10.667-10.667V96
			C341.333,90.112,336.555,85.333,330.667,85.333z"/>
	</g>
</g>
<g>
	<g>
		<path d="M394.667,85.333C388.779,85.333,384,90.112,384,96v64c0,5.888,4.779,10.667,10.667,10.667s10.667-4.779,10.667-10.667V96
			C405.333,90.112,400.555,85.333,394.667,85.333z"/>
	</g>
</g>
<g>
	<g>
		<circle cx="458.667" cy="160" r="10.667"/>
	</g>
</g>
<g>
</g>
<g>
</g>
<g>
</g>
<g>
</g>
<g>
</g>
<g>
</g>
<g>
</g>
<g>
</g>
<g>
</g>
<g>
</g>
<g>
</g>
<g>
</g>
<g>
</g>
<g>
</g>
<g>
</g>
</svg>
