<?xml version="1.0" encoding="iso-8859-1"?>
<!-- Generator: Adobe Illustrator 19.0.0, SVG Export Plug-In . SVG Version: 6.00 Build 0)  -->
<svg version="1.1" id="Capa_1" xmlns="http://www.w3.org/2000/svg" xmlns:xlink="http://www.w3.org/1999/xlink" x="0px" y="0px"
	 viewBox="0 0 490.667 490.667" style="enable-background:new 0 0 490.667 490.667;" xml:space="preserve">
<g>
	<g>
		<path d="M489.856,177.027c-1.643-3.989-5.547-6.592-9.856-6.592h-36.096l-18.368-36.779c-3.627-7.232-15.467-7.232-19.093,0
			l-18.368,36.779H352c-4.309,0-8.192,2.603-9.856,6.592c-1.664,3.989-0.747,8.576,2.304,11.627l27.968,27.968l-9.536,47.723
			c-0.875,4.331,1.024,8.768,4.779,11.115c3.733,2.389,8.533,2.176,12.075-0.491l36.267-27.2l36.267,27.2
			c1.899,1.408,4.16,2.133,6.4,2.133c1.984,0,3.947-0.533,5.675-1.643c3.755-2.347,5.653-6.784,4.779-11.115l-9.536-47.723
			l27.968-27.968C490.581,185.603,491.499,181.016,489.856,177.027z M440.469,205.549c-2.517,2.539-3.627,6.144-2.923,9.643
			l5.184,25.963L422.4,225.901c-1.899-1.429-4.16-2.133-6.4-2.133s-4.501,0.704-6.4,2.133l-20.331,15.253l5.184-25.963
			c0.704-3.499-0.405-7.125-2.923-9.643l-13.781-13.781h16.917c4.032,0,7.723-2.283,9.536-5.909L416,162.285l11.797,23.595
			c1.813,3.605,5.504,5.888,9.536,5.888h16.917L440.469,205.549z"/>
	</g>
</g>
<g>
	<g>
		<path d="M148.523,177.027c-1.643-3.989-5.547-6.592-9.856-6.592h-36.096l-18.368-36.779c-3.627-7.232-15.467-7.232-19.093,0
			l-18.368,36.779H10.667c-4.309,0-8.213,2.581-9.856,6.571c-1.643,3.989-0.725,8.576,2.304,11.627l27.968,27.989l-9.536,47.723
			c-0.875,4.331,1.024,8.768,4.779,11.115c3.733,2.389,8.533,2.176,12.075-0.491l36.267-27.2l36.267,27.2
			c1.899,1.408,4.16,2.133,6.4,2.133c1.984,0,3.947-0.533,5.675-1.643c3.755-2.347,5.653-6.784,4.779-11.115l-9.536-47.723
			l27.968-27.968C149.248,185.603,150.165,181.016,148.523,177.027z M99.136,205.549c-2.517,2.539-3.627,6.144-2.923,9.643
			l5.184,25.963l-20.331-15.253c-1.899-1.429-4.16-2.133-6.4-2.133c-2.24,0-4.501,0.704-6.4,2.133l-20.331,15.253l5.184-25.963
			c0.704-3.499-0.405-7.125-2.923-9.643l-13.781-13.781h16.917c4.032,0,7.723-2.283,9.536-5.888l11.797-23.595l11.797,23.595
			c1.813,3.605,5.504,5.888,9.536,5.888h16.917L99.136,205.549z"/>
	</g>
</g>
<g>
	<g>
		<path d="M233.856,49.027c-1.643-3.989-5.547-6.592-9.856-6.592h-36.096L169.536,5.656c-3.627-7.232-15.467-7.232-19.093,0
			l-18.368,36.779H96c-4.309,0-8.213,2.581-9.856,6.571c-1.643,3.989-0.725,8.576,2.304,11.627l27.968,27.989l-9.536,47.723
			c-0.875,4.331,1.024,8.747,4.757,11.115c3.755,2.368,8.555,2.176,12.096-0.491l36.267-27.2l36.267,27.2
			c1.899,1.408,4.16,2.133,6.4,2.133c1.984,0,3.947-0.533,5.675-1.643c3.755-2.347,5.653-6.784,4.779-11.115l-9.536-47.723
			l27.968-27.968C234.581,57.603,235.499,53.016,233.856,49.027z M184.448,77.549c-2.517,2.539-3.605,6.144-2.901,9.643
			l5.184,25.963L166.4,97.901c-1.899-1.429-4.16-2.133-6.4-2.133s-4.501,0.704-6.4,2.133l-20.331,15.253l5.184-25.963
			c0.704-3.499-0.405-7.125-2.923-9.643l-13.781-13.781h16.917c4.032,0,7.723-2.283,9.536-5.888L160,34.285l11.797,23.595
			c1.813,3.605,5.504,5.888,9.536,5.888h16.896L184.448,77.549z"/>
	</g>
</g>
<g>
	<g>
		<path d="M404.523,49.027c-1.643-3.989-5.547-6.592-9.856-6.592h-36.096L340.203,5.656c-3.627-7.232-15.467-7.232-19.093,0
			l-18.368,36.779h-36.075c-4.309,0-8.192,2.603-9.856,6.592c-1.664,3.989-0.747,8.576,2.304,11.627l27.968,27.968l-9.536,47.723
			c-0.875,4.331,1.024,8.768,4.779,11.115c3.733,2.368,8.512,2.176,12.075-0.491l36.267-27.2l36.267,27.2
			c1.899,1.408,4.16,2.133,6.4,2.133c1.984,0,3.947-0.533,5.675-1.643c3.755-2.347,5.653-6.784,4.779-11.115l-9.536-47.723
			l27.968-27.968C405.248,57.603,406.165,53.016,404.523,49.027z M355.136,77.549c-2.517,2.539-3.627,6.144-2.923,9.643
			l5.184,25.963l-20.331-15.253c-1.899-1.429-4.16-2.133-6.4-2.133c-2.24,0-4.501,0.704-6.4,2.133l-20.331,15.253l5.184-25.963
			c0.704-3.499-0.405-7.125-2.923-9.643l-13.781-13.781h16.917c4.032,0,7.723-2.283,9.536-5.909l11.797-23.573l11.797,23.595
			c1.813,3.605,5.504,5.888,9.536,5.888h16.917L355.136,77.549z"/>
	</g>
</g>
<g>
	<g>
		<path d="M319.189,177.027c-1.643-3.989-5.547-6.592-9.856-6.592h-36.096l-18.368-36.779c-3.627-7.232-15.467-7.232-19.093,0
			l-18.368,36.779h-36.075c-4.309,0-8.213,2.581-9.856,6.571c-1.643,3.989-0.725,8.576,2.304,11.627l27.968,27.989l-9.536,47.723
			c-0.875,4.331,1.024,8.768,4.779,11.115c3.755,2.389,8.512,2.176,12.075-0.491l36.267-27.2l36.267,27.2
			c1.899,1.408,4.16,2.133,6.4,2.133c1.984,0,3.947-0.533,5.675-1.643c3.755-2.347,5.653-6.784,4.779-11.115l-9.536-47.723
			l27.968-27.968C319.915,185.603,320.832,181.016,319.189,177.027z M269.803,205.549c-2.517,2.539-3.627,6.144-2.923,9.643
			l5.184,25.963l-20.331-15.253c-1.899-1.429-4.16-2.133-6.4-2.133s-4.501,0.704-6.4,2.133l-20.331,15.253l5.184-25.963
			c0.704-3.499-0.405-7.125-2.923-9.643l-13.781-13.781H224c4.032,0,7.723-2.283,9.536-5.909l11.797-23.573l11.797,23.595
			c1.813,3.605,5.504,5.888,9.536,5.888h16.917L269.803,205.549z"/>
	</g>
</g>
<g>
	<g>
		<path d="M437.333,298.435h-384C23.915,298.435,0,322.371,0,351.768v85.333c0,29.397,23.915,53.333,53.333,53.333h384
			c29.419,0,53.333-23.936,53.333-53.333v-85.333C490.667,322.371,466.752,298.435,437.333,298.435z M469.333,437.101
			c0,17.643-14.357,32-32,32h-384c-17.643,0-32-14.357-32-32v-85.333c0-17.643,14.357-32,32-32h384c17.643,0,32,14.357,32,32
			V437.101z"/>
	</g>
</g>
<g>
	<g>
		<path d="M53.333,341.101c-5.888,0-10.667,4.779-10.667,10.667v85.333c0,5.888,4.779,10.667,10.667,10.667S64,442.989,64,437.101
			v-85.333C64,345.88,59.221,341.101,53.333,341.101z"/>
	</g>
</g>
<g>
	<g>
		<path d="M96,341.101c-5.888,0-10.667,4.779-10.667,10.667v85.333c0,5.888,4.779,10.667,10.667,10.667s10.667-4.779,10.667-10.667
			v-85.333C106.667,345.88,101.888,341.101,96,341.101z"/>
	</g>
</g>
<g>
	<g>
		<path d="M96,383.768H53.333c-5.888,0-10.667,4.779-10.667,10.667s4.779,10.667,10.667,10.667H96
			c5.888,0,10.667-4.779,10.667-10.667S101.888,383.768,96,383.768z"/>
	</g>
</g>
<g>
	<g>
		<path d="M160,341.101c-17.643,0-32,14.357-32,32v42.667c0,17.643,14.357,32,32,32c17.643,0,32-14.357,32-32v-42.667
			C192,355.459,177.643,341.101,160,341.101z M170.667,415.768c0,5.888-4.8,10.667-10.667,10.667
			c-5.867,0-10.667-4.779-10.667-10.667v-42.667c0-5.888,4.8-10.667,10.667-10.667c5.867,0,10.667,4.779,10.667,10.667V415.768z"/>
	</g>
</g>
<g>
	<g>
		<path d="M277.333,341.101h-64c-5.888,0-10.667,4.779-10.667,10.667c0,5.888,4.779,10.667,10.667,10.667h64
			c5.888,0,10.667-4.779,10.667-10.667C288,345.88,283.221,341.101,277.333,341.101z"/>
	</g>
</g>
<g>
	<g>
		<path d="M245.333,341.101c-5.888,0-10.667,4.779-10.667,10.667v85.333c0,5.888,4.779,10.667,10.667,10.667
			S256,442.989,256,437.101v-85.333C256,345.88,251.221,341.101,245.333,341.101z"/>
	</g>
</g>
<g>
	<g>
		<path d="M352,426.435h-32v-64h32c5.888,0,10.667-4.779,10.667-10.667c0-5.888-4.779-10.667-10.667-10.667h-42.667
			c-5.888,0-10.667,4.779-10.667,10.667v85.333c0,5.888,4.779,10.667,10.667,10.667H352c5.888,0,10.667-4.779,10.667-10.667
			C362.667,431.213,357.888,426.435,352,426.435z"/>
	</g>
</g>
<g>
	<g>
		<path d="M330.667,383.768h-21.333c-5.888,0-10.667,4.779-10.667,10.667s4.779,10.667,10.667,10.667h21.333
			c5.888,0,10.667-4.779,10.667-10.667S336.555,383.768,330.667,383.768z"/>
	</g>
</g>
<g>
	<g>
		<path d="M437.333,426.435h-32v-74.667c0-5.888-4.779-10.667-10.667-10.667c-5.888,0-10.667,4.779-10.667,10.667v85.333
			c0,5.888,4.779,10.667,10.667,10.667h42.667c5.888,0,10.667-4.779,10.667-10.667C448,431.213,443.221,426.435,437.333,426.435z"/>
	</g>
</g>
<g>
</g>
<g>
</g>
<g>
</g>
<g>
</g>
<g>
</g>
<g>
</g>
<g>
</g>
<g>
</g>
<g>
</g>
<g>
</g>
<g>
</g>
<g>
</g>
<g>
</g>
<g>
</g>
<g>
</g>
</svg>
