<?xml version="1.0" encoding="iso-8859-1"?>
<!-- Generator: Adobe Illustrator 19.0.0, SVG Export Plug-In . SVG Version: 6.00 Build 0)  -->
<svg version="1.1" id="Capa_1" xmlns="http://www.w3.org/2000/svg" xmlns:xlink="http://www.w3.org/1999/xlink" x="0px" y="0px"
	 viewBox="0 0 490.672 490.672" style="enable-background:new 0 0 490.672 490.672;" xml:space="preserve">
<g>
	<g>
		<path d="M489.866,241.021c-1.643-3.989-5.547-6.592-9.856-6.592h-36.096l-18.368-36.779c-3.627-7.232-15.467-7.232-19.093,0
			l-18.368,36.779h-36.075c-4.309,0-8.192,2.603-9.856,6.592c-1.664,3.989-0.747,8.576,2.304,11.627l27.968,27.968l-9.536,47.723
			c-0.875,4.331,1.024,8.768,4.779,11.115c3.733,2.368,8.512,2.176,12.075-0.491l36.267-27.2l36.267,27.2
			c1.899,1.408,4.16,2.133,6.4,2.133c1.984,0,3.947-0.555,5.675-1.643c3.755-2.347,5.653-6.784,4.779-11.115l-9.536-47.723
			l27.968-27.968C490.591,249.597,491.508,245.01,489.866,241.021z M440.479,269.544c-2.517,2.539-3.627,6.144-2.923,9.643
			l5.184,25.963l-20.331-15.253c-1.899-1.429-4.16-2.133-6.4-2.133s-4.501,0.704-6.4,2.112l-20.331,15.253l5.184-25.963
			c0.704-3.499-0.405-7.125-2.923-9.643l-13.781-13.781h16.917c4.032,0,7.723-2.283,9.536-5.888l11.797-23.573l11.797,23.595
			c1.813,3.605,5.504,5.888,9.536,5.888h16.917L440.479,269.544z"/>
	</g>
</g>
<g>
	<g>
		<path d="M148.532,241.021c-1.643-3.989-5.547-6.592-9.856-6.592H102.58L84.212,197.65c-3.627-7.232-15.467-7.232-19.093,0
			l-18.368,36.779H10.676c-4.309,0-8.192,2.603-9.856,6.592c-1.664,3.989-0.747,8.576,2.304,11.627l27.968,27.968l-9.536,47.723
			c-0.875,4.331,1.024,8.768,4.779,11.115c3.733,2.368,8.512,2.176,12.075-0.491l36.267-27.2l36.267,27.2
			c1.899,1.408,4.16,2.133,6.4,2.133c1.984,0,3.947-0.555,5.675-1.664c3.755-2.347,5.653-6.784,4.779-11.115l-9.536-47.701
			l27.968-27.968C149.258,249.597,150.175,245.01,148.532,241.021z M99.146,269.544c-2.517,2.539-3.627,6.144-2.923,9.643
			l5.184,25.963l-20.331-15.253c-1.899-1.429-4.16-2.133-6.4-2.133c-2.24,0-4.501,0.704-6.4,2.133l-20.331,15.253l5.184-25.963
			c0.704-3.499-0.405-7.125-2.923-9.643l-13.781-13.781h16.917c4.032,0,7.723-2.283,9.536-5.909l11.797-23.573l11.797,23.595
			c1.813,3.605,5.504,5.888,9.536,5.888h16.917L99.146,269.544z"/>
	</g>
</g>
<g>
	<g>
		<path d="M212.532,49.021c-1.643-3.989-5.547-6.592-9.856-6.592H166.58L148.212,5.65c-3.627-7.232-15.467-7.232-19.093,0
			l-18.368,36.779H74.676c-4.309,0-8.213,2.581-9.856,6.571c-1.643,3.989-0.725,8.576,2.304,11.627l27.968,27.968l-9.536,47.723
			c-0.875,4.352,1.024,8.768,4.757,11.115c3.755,2.368,8.555,2.197,12.096-0.469l36.267-27.2l36.267,27.2
			c1.899,1.408,4.16,2.133,6.4,2.133c1.984,0,3.947-0.555,5.675-1.664c3.755-2.347,5.653-6.784,4.779-11.115l-9.536-47.723
			l27.968-27.947C213.258,57.597,214.175,53.01,212.532,49.021z M163.124,77.544c-2.517,2.517-3.605,6.144-2.901,9.643l5.184,25.963
			l-20.331-15.253c-1.899-1.429-4.16-2.133-6.4-2.133c-2.24,0-4.501,0.704-6.4,2.133l-20.331,15.253l5.184-25.963
			c0.704-3.499-0.405-7.125-2.923-9.643l-13.781-13.781h16.917c4.032,0,7.723-2.283,9.536-5.909l11.797-23.573l11.797,23.595
			c1.813,3.605,5.504,5.888,9.536,5.888h16.896L163.124,77.544z"/>
	</g>
</g>
<g>
	<g>
		<path d="M425.866,49.021c-1.643-3.989-5.547-6.592-9.856-6.592h-36.096L361.546,5.65c-3.627-7.232-15.467-7.232-19.093,0
			l-18.368,36.779H288.01c-4.309,0-8.192,2.603-9.856,6.592s-0.747,8.576,2.304,11.627l27.968,27.968l-9.536,47.723
			c-0.875,4.331,1.024,8.768,4.779,11.115c3.733,2.368,8.533,2.176,12.075-0.491l36.267-27.2l36.267,27.2
			c1.899,1.408,4.16,2.133,6.4,2.133c1.984,0,3.947-0.555,5.675-1.664c3.755-2.347,5.653-6.784,4.779-11.115l-9.536-47.701
			l27.968-27.968C426.591,57.597,427.508,53.01,425.866,49.021z M376.479,77.544c-2.517,2.539-3.627,6.144-2.923,9.643l5.184,25.963
			l-20.331-15.253c-1.899-1.429-4.16-2.133-6.4-2.133s-4.501,0.704-6.4,2.133l-20.331,15.253l5.184-25.963
			c0.704-3.499-0.405-7.125-2.923-9.643l-13.781-13.781h16.917c4.032,0,7.723-2.283,9.536-5.909L352.01,34.28l11.797,23.595
			c1.813,3.605,5.504,5.888,9.536,5.888h16.917L376.479,77.544z"/>
	</g>
</g>
<g>
	<g>
		<path d="M319.199,390.354c-1.643-3.989-5.547-6.592-9.856-6.592h-36.096l-18.368-36.779c-3.627-7.232-15.467-7.232-19.093,0
			l-18.368,36.779h-36.075c-4.309,0-8.192,2.603-9.856,6.592c-1.664,3.989-0.747,8.576,2.304,11.627l27.968,27.968l-9.536,47.723
			c-0.875,4.331,1.024,8.768,4.779,11.115c3.733,2.368,8.533,2.197,12.075-0.491l36.267-27.2l36.267,27.2
			c1.899,1.408,4.16,2.133,6.4,2.133c1.984,0,3.947-0.555,5.675-1.643c3.755-2.347,5.653-6.784,4.779-11.115l-9.536-47.723
			l27.968-27.968C319.924,398.93,320.841,394.344,319.199,390.354z M269.812,418.877c-2.517,2.539-3.627,6.144-2.923,9.643
			l5.184,25.963l-20.331-15.253c-1.899-1.429-4.16-2.133-6.4-2.133s-4.501,0.704-6.4,2.112l-20.331,15.253l5.184-25.963
			c0.704-3.499-0.405-7.125-2.923-9.643l-13.781-13.781h16.917c4.032,0,7.723-2.283,9.536-5.888l11.797-23.573l11.797,23.595
			c1.813,3.605,5.504,5.888,9.536,5.888h16.917L269.812,418.877z"/>
	</g>
</g>
<g>
	<g>
		<path d="M202.676,170.429c-5.888,0-10.667,4.779-10.667,10.667v128c0,5.888,4.779,10.667,10.667,10.667
			s10.667-4.779,10.667-10.667v-128C213.343,175.208,208.564,170.429,202.676,170.429z"/>
	</g>
</g>
<g>
	<g>
		<path d="M288.01,170.429c-5.888,0-10.667,4.779-10.667,10.667v128c0,5.888,4.779,10.667,10.667,10.667s10.667-4.779,10.667-10.667
			v-128C298.676,175.208,293.898,170.429,288.01,170.429z"/>
	</g>
</g>
<g>
	<g>
		<path d="M288.01,234.429h-85.333c-5.888,0-10.667,4.779-10.667,10.667s4.779,10.667,10.667,10.667h85.333
			c5.888,0,10.667-4.779,10.667-10.667S293.898,234.429,288.01,234.429z"/>
	</g>
</g>
<g>
</g>
<g>
</g>
<g>
</g>
<g>
</g>
<g>
</g>
<g>
</g>
<g>
</g>
<g>
</g>
<g>
</g>
<g>
</g>
<g>
</g>
<g>
</g>
<g>
</g>
<g>
</g>
<g>
</g>
</svg>
