<?xml version="1.0" encoding="iso-8859-1"?>
<!-- Generator: Adobe Illustrator 19.0.0, SVG Export Plug-In . SVG Version: 6.00 Build 0)  -->
<svg version="1.1" id="Capa_1" xmlns="http://www.w3.org/2000/svg" xmlns:xlink="http://www.w3.org/1999/xlink" x="0px" y="0px"
	 viewBox="0 0 511.36 511.36" style="enable-background:new 0 0 511.36 511.36;" xml:space="preserve">
<g>
	<g>
		<path d="M351.232,70.891c-1.195-3.84-4.459-6.699-8.448-7.36l-58.069-9.685L265.6,6.08c-3.264-8.107-16.576-8.107-19.819,0
			l-19.136,47.765l-58.069,9.685c-3.947,0.64-7.189,3.456-8.405,7.253c-1.216,3.797-0.192,7.979,2.624,10.795l38.805,38.763
			l-9.771,58.603c-0.683,4.117,1.088,8.235,4.523,10.56c1.792,1.237,3.883,1.856,5.995,1.856c1.899,0,3.797-0.491,5.483-1.515
			l47.851-28.715l47.872,28.715c3.584,2.155,8.107,2.005,11.563-0.384c3.456-2.389,5.184-6.592,4.416-10.709l-10.923-58.731
			l39.829-38.293C351.339,78.933,352.427,74.752,351.232,70.891z M289.664,108.629c-2.581,2.496-3.755,6.101-3.093,9.643
			l7.637,41.109l-33.024-19.819c-3.392-2.027-7.616-2.027-10.987,0l-33.515,20.117l6.869-41.216
			c0.555-3.413-0.555-6.869-2.987-9.301l-28.011-28.011l43.541-7.275c3.669-0.619,6.763-3.115,8.149-6.571l11.435-28.565
			l11.456,28.587c1.387,3.456,4.48,5.952,8.149,6.571l43.051,7.168L289.664,108.629z"/>
	</g>
</g>
<g>
	<g>
		<path d="M500.203,91.285c-1.643-3.989-5.547-6.592-9.856-6.592h-36.053l-18.389-36.779c-3.627-7.232-15.467-7.232-19.093,0
			l-18.389,36.779h-36.075c-4.309,0-8.213,2.603-9.856,6.592c-1.664,3.989-0.747,8.576,2.304,11.627l27.968,27.968l-9.536,47.723
			c-0.853,4.331,1.045,8.768,4.779,11.115c3.712,2.389,8.555,2.176,12.075-0.491l36.267-27.2l36.267,27.2
			c1.899,1.408,4.139,2.133,6.4,2.133c1.963,0,3.947-0.533,5.675-1.643c3.755-2.347,5.653-6.784,4.779-11.115l-9.536-47.723
			l27.968-27.968C500.949,99.861,501.867,95.275,500.203,91.285z M450.816,119.808c-2.517,2.539-3.627,6.144-2.923,9.643
			l5.184,25.963l-20.331-15.253c-1.899-1.429-4.16-2.133-6.4-2.133s-4.501,0.704-6.4,2.133l-20.331,15.253l5.184-25.963
			c0.683-3.499-0.405-7.125-2.923-9.643l-13.781-13.781h16.917c4.032,0,7.723-2.283,9.536-5.909l11.797-23.573l11.797,23.595
			c1.813,3.605,5.504,5.888,9.536,5.888h16.917L450.816,119.808z"/>
	</g>
</g>
<g>
	<g>
		<path d="M158.869,91.285c-1.643-3.989-5.547-6.592-9.856-6.592H112.96L94.571,47.915c-3.627-7.232-15.467-7.232-19.093,0
			L57.088,84.693H21.013c-4.309,0-8.213,2.603-9.856,6.592c-1.664,3.989-0.747,8.576,2.304,11.627l27.968,27.968l-9.536,47.723
			c-0.875,4.331,1.024,8.768,4.757,11.115c3.733,2.389,8.576,2.176,12.096-0.491l36.267-27.2l36.267,27.2
			c1.899,1.408,4.139,2.133,6.4,2.133c1.963,0,3.947-0.533,5.696-1.643c3.733-2.347,5.632-6.784,4.757-11.115l-9.536-47.723
			l27.968-27.968C159.616,99.861,160.533,95.275,158.869,91.285z M109.461,119.829c-2.517,2.517-3.605,6.123-2.901,9.621
			l5.184,25.963L91.413,140.16c-1.899-1.429-4.16-2.133-6.4-2.133c-2.24,0-4.501,0.704-6.4,2.133l-20.331,15.253l5.184-25.963
			c0.704-3.499-0.384-7.104-2.923-9.643l-13.781-13.781H63.68c4.032,0,7.723-2.283,9.536-5.888l11.797-23.595l11.797,23.616
			c1.813,3.605,5.504,5.888,9.536,5.888h16.896L109.461,119.829z"/>
	</g>
</g>
<g>
	<g>
		<path d="M469.013,276.693c-17.643,0-32,14.357-32,32v74.667H74.347V244.693c0-17.643-14.357-32-32-32c-17.643,0-32,14.357-32,32
			v256c0,5.888,4.779,10.667,10.667,10.667H63.68c5.888,0,10.667-4.779,10.667-10.667V447.36h362.667v53.333
			c0,5.888,4.779,10.667,10.667,10.667h42.667c5.888,0,10.667-4.757,10.667-10.667v-192
			C501.013,291.051,486.656,276.693,469.013,276.693z M479.68,490.027h-21.333v-53.333c0-5.888-4.779-10.667-10.667-10.667h-384
			c-5.888,0-10.667,4.779-10.667,10.667v53.333H31.68V244.693c0-5.888,4.779-10.667,10.667-10.667s10.667,4.779,10.667,10.667
			v149.333c0,5.888,4.779,10.667,10.667,10.667h384c5.888,0,10.667-4.779,10.667-10.667v-85.333c0-5.888,4.779-10.667,10.667-10.667
			c5.888,0,10.667,4.779,10.667,10.667V490.027z"/>
	</g>
</g>
<g>
	<g>
		<path d="M127.68,255.36c-17.643,0-32,14.357-32,32s14.357,32,32,32c17.643,0,32-14.357,32-32S145.323,255.36,127.68,255.36z
			 M127.68,298.027c-5.888,0-10.667-4.779-10.667-10.667s4.779-10.667,10.667-10.667s10.667,4.779,10.667,10.667
			S133.568,298.027,127.68,298.027z"/>
	</g>
</g>
<g>
	<g>
		<path d="M191.68,276.693c-5.888,0-10.667,4.779-10.667,10.667v21.333c0,17.643-14.357,32-32,32h-42.667
			c-5.888,0-10.667,4.779-10.667,10.667c0,5.888,4.779,10.667,10.667,10.667h42.667c29.397,0,53.333-23.915,53.333-53.333V287.36
			C202.347,281.472,197.568,276.693,191.68,276.693z"/>
	</g>
</g>
<g>
	<g>
		<path d="M362.347,276.693h-128c-5.888,0-10.667,4.779-10.667,10.667v64c0,5.888,4.779,10.667,10.667,10.667h170.667
			c5.888,0,10.667-4.757,10.667-10.667v-21.333C415.68,300.629,391.744,276.693,362.347,276.693z M394.347,340.693H245.013v-42.667
			h117.333c17.643,0,32,14.357,32,32V340.693z"/>
	</g>
</g>
<g>
</g>
<g>
</g>
<g>
</g>
<g>
</g>
<g>
</g>
<g>
</g>
<g>
</g>
<g>
</g>
<g>
</g>
<g>
</g>
<g>
</g>
<g>
</g>
<g>
</g>
<g>
</g>
<g>
</g>
</svg>
