<?xml version="1.0" encoding="iso-8859-1"?>
<!-- Generator: Adobe Illustrator 19.0.0, SVG Export Plug-In . SVG Version: 6.00 Build 0)  -->
<svg version="1.1" id="Capa_1" xmlns="http://www.w3.org/2000/svg" xmlns:xlink="http://www.w3.org/1999/xlink" x="0px" y="0px"
	 viewBox="0 0 490.667 490.667" style="enable-background:new 0 0 490.667 490.667;" xml:space="preserve">
<g>
	<g>
		<path d="M480,352H10.667C4.779,352,0,356.779,0,362.667V448c0,5.888,4.779,10.667,10.667,10.667S21.333,453.888,21.333,448
			v-74.667h448V448c0,5.888,4.779,10.667,10.667,10.667s10.667-4.779,10.667-10.667v-85.333C490.667,356.779,485.888,352,480,352z"
			/>
	</g>
</g>
<g>
	<g>
		<path d="M480,416H10.667C4.779,416,0,420.779,0,426.667c0,5.888,4.779,10.667,10.667,10.667H480
			c5.888,0,10.667-4.779,10.667-10.667C490.667,420.779,485.888,416,480,416z"/>
	</g>
</g>
<g>
	<g>
		<path d="M480,266.667c-5.888,0-10.667,4.779-10.667,10.667v35.072l-64.917-146.069c-2.411-5.397-8.683-7.851-14.08-5.419
			c-5.397,2.389-7.808,8.704-5.419,14.08l85.333,192c1.749,3.904,5.611,6.336,9.749,6.336c0.725,0,1.472-0.064,2.219-0.235
			c4.928-1.045,8.448-5.397,8.448-10.432v-85.333C490.667,271.445,485.888,266.667,480,266.667z"/>
	</g>
</g>
<g>
	<g>
		<path d="M128,160H96c-4.224,0-8.021,2.475-9.749,6.336L21.333,312.405v-35.072c0-5.888-4.779-10.667-10.667-10.667
			S0,271.445,0,277.333v85.333c0,5.035,3.52,9.387,8.448,10.432c0.747,0.171,1.493,0.235,2.219,0.235c4.139,0,8-2.432,9.749-6.336
			l82.517-185.664H128c5.888,0,10.667-4.779,10.667-10.667S133.888,160,128,160z"/>
	</g>
</g>
<g>
	<g>
		<path d="M352,32H138.667c-29.397,0-53.333,23.936-53.333,53.333v85.333c0,5.888,4.779,10.667,10.667,10.667
			s10.667-4.779,10.667-10.667V85.333c0-17.643,14.357-32,32-32H352c17.643,0,32,14.357,32,32V160h-21.333
			c-5.888,0-10.667,4.779-10.667,10.667s4.779,10.667,10.667,10.667h32c5.888,0,10.667-4.779,10.667-10.667V85.333
			C405.333,55.936,381.397,32,352,32z"/>
	</g>
</g>
<g>
	<g>
		<path d="M202.667,117.333h-45.163c-16.107,0-29.76,12.053-31.744,28.032l-5.333,42.667c-1.152,9.109,1.685,18.261,7.744,25.152
			c6.08,6.869,14.827,10.816,24,10.816h50.496c17.643,0,32-14.357,32-32v-42.667C234.667,131.691,220.309,117.333,202.667,117.333z
			 M213.333,192c0,5.888-4.779,10.667-10.667,10.667h-50.496c-3.115,0-5.952-1.28-8-3.605c-2.048-2.325-2.965-5.291-2.581-8.384
			l5.333-42.667c0.661-5.333,5.205-9.344,10.581-9.344h45.163c5.888,0,10.667,4.779,10.667,10.667V192z"/>
	</g>
</g>
<g>
	<g>
		<path d="M370.24,188.032l-5.333-42.667c-1.984-15.979-15.637-28.032-31.744-28.032H288c-17.643,0-32,14.357-32,32V192
			c0,17.643,14.357,32,32,32h50.496c9.173,0,17.92-3.947,23.979-10.816C368.555,206.293,371.371,197.141,370.24,188.032z
			 M346.496,199.061c-2.048,2.325-4.885,3.605-8,3.605H288c-5.888,0-10.667-4.779-10.667-10.667v-42.667
			c0-5.888,4.779-10.667,10.667-10.667h45.163c5.376,0,9.92,4.011,10.581,9.344l5.333,42.667
			C349.461,193.749,348.544,196.736,346.496,199.061z"/>
	</g>
</g>
<g>
	<g>
		<path d="M266.667,160H224c-5.888,0-10.667,4.779-10.667,10.667s4.779,10.667,10.667,10.667h42.667
			c5.888,0,10.667-4.779,10.667-10.667S272.555,160,266.667,160z"/>
	</g>
</g>
<g>
</g>
<g>
</g>
<g>
</g>
<g>
</g>
<g>
</g>
<g>
</g>
<g>
</g>
<g>
</g>
<g>
</g>
<g>
</g>
<g>
</g>
<g>
</g>
<g>
</g>
<g>
</g>
<g>
</g>
</svg>
