<?xml version="1.0" encoding="iso-8859-1"?>
<!-- Generator: Adobe Illustrator 19.0.0, SVG Export Plug-In . SVG Version: 6.00 Build 0)  -->
<svg xmlns="http://www.w3.org/2000/svg" xmlns:xlink="http://www.w3.org/1999/xlink" version="1.1" id="Layer_1" x="0px" y="0px" viewBox="0 0 512 512" style="enable-background:new 0 0 512 512;" xml:space="preserve">
<rect x="8.603" y="58.387" style="fill:#466D77;" width="494.798" height="317.584"/>
<rect x="41.871" y="91.649" style="fill:#E6E6E6;" width="428.255" height="251.053"/>
<g>
	<polygon style="fill:#FFFFFF;" points="308.134,91.649 135.153,342.702 62.714,342.702 235.695,91.649  "/>
	<polygon style="fill:#FFFFFF;" points="390.989,91.649 218.007,342.702 170.908,342.702 343.889,91.649  "/>
</g>
<g>
	<path style="fill:#466D77;" d="M371.856,416.907H140.144c-20.273,0-36.707,16.434-36.707,36.707l0,0h305.126l0,0   C408.563,433.342,392.129,416.907,371.856,416.907z"/>
	<rect x="169.965" y="375.972" style="fill:#466D77;" width="172.064" height="40.94"/>
</g>
<path d="M503.397,49.784H90.383c-4.752,0-8.603,3.852-8.603,8.603s3.851,8.603,8.603,8.603h404.411v300.373H17.206V66.99h47.174  c4.752,0,8.603-3.852,8.603-8.603s-3.851-8.603-8.603-8.603H8.603C3.851,49.784,0,53.636,0,58.387v317.579  c0,4.751,3.851,8.603,8.603,8.603h152.762v23.733h-21.221c-24.984,0-45.31,20.326-45.31,45.31c0,4.751,3.851,8.603,8.603,8.603  h305.126c4.752,0,8.603-3.852,8.603-8.603c0-24.984-20.326-45.31-45.31-45.31h-21.221v-23.733h152.762  c4.752,0,8.603-3.852,8.603-8.603V58.387C512,53.636,508.148,49.784,503.397,49.784z M398.613,445.011H113.387  c3.642-11.302,14.261-19.501,26.757-19.501h231.713C384.353,425.51,394.971,433.71,398.613,445.011z M333.429,408.304H178.571  v-23.733h154.857V408.304z"/>
<path d="M470.13,263.388c4.752,0,8.603-3.852,8.603-8.603V91.653c0-4.751-3.851-8.603-8.603-8.603H41.868  c-4.752,0-8.603,3.852-8.603,8.603v251.049c0,4.751,3.851,8.603,8.603,8.603H470.13c4.752,0,8.603-3.852,8.603-8.603v-60.385  c0-4.751-3.851-8.603-8.603-8.603s-8.603,3.852-8.603,8.603v51.782H50.471V100.256h411.056v154.529  C461.527,259.536,465.378,263.388,470.13,263.388z"/>
<path d="M189.848,292.694c4.752,0,8.603-3.852,8.603-8.603V158.867h32.692c4.752,0,8.603-3.852,8.603-8.603  s-3.851-8.603-8.603-8.603h-84.12c-4.752,0-8.603,3.852-8.603,8.603s3.851,8.603,8.603,8.603h34.221v125.225  C181.245,288.842,185.096,292.694,189.848,292.694z"/>
<path d="M283.473,173.801l-9.856-26.533c-1.653-4.454-6.608-6.723-11.06-5.069c-4.454,1.654-6.723,6.606-5.069,11.06l9.856,26.533  c1.287,3.467,4.572,5.609,8.065,5.609c0.995,0,2.007-0.174,2.994-0.54C282.858,183.207,285.127,178.255,283.473,173.801z"/>
<path d="M307.199,287.086c1.251,3.371,4.469,5.607,8.064,5.607c3.595,0,6.813-2.237,8.064-5.607l49.712-133.828  c1.654-4.454-0.615-9.406-5.069-11.06c-4.452-1.655-9.406,0.615-11.06,5.069l-41.647,112.116l-23.843-64.192  c-1.653-4.454-6.608-6.723-11.06-5.069c-4.454,1.654-6.723,6.606-5.069,11.06L307.199,287.086z"/>
<g>
</g>
<g>
</g>
<g>
</g>
<g>
</g>
<g>
</g>
<g>
</g>
<g>
</g>
<g>
</g>
<g>
</g>
<g>
</g>
<g>
</g>
<g>
</g>
<g>
</g>
<g>
</g>
<g>
</g>
</svg>
