<?xml version="1.0" encoding="iso-8859-1"?>
<!-- Generator: Adobe Illustrator 19.0.0, SVG Export Plug-In . SVG Version: 6.00 Build 0)  -->
<svg xmlns="http://www.w3.org/2000/svg" xmlns:xlink="http://www.w3.org/1999/xlink" version="1.1" id="Layer_1" x="0px" y="0px" viewBox="0 0 512 512" style="enable-background:new 0 0 512 512;" xml:space="preserve">
<rect x="104.755" y="9.298" style="fill:#E6E6E6;" width="302.489" height="493.404"/>
<polygon style="fill:#FC583D;" points="256,82.183 179.118,215.346 332.882,215.346 "/>
<polygon style="fill:#FFCA6C;" points="256,429.817 332.882,296.654 179.118,296.654 "/>
<path d="M179.117,224.644h153.764c3.322,0,6.391-1.773,8.052-4.649c1.661-2.876,1.661-6.422,0-9.298L264.052,77.534  c-1.661-2.876-4.729-4.649-8.052-4.649c-3.322,0-6.391,1.773-8.052,4.649l-76.883,133.163c-1.661,2.876-1.661,6.422,0,9.298  C172.726,222.871,175.796,224.644,179.117,224.644z M256,100.778l60.777,105.27H195.221L256,100.778z"/>
<path d="M190.864,335.596c2.569,4.448,8.256,5.972,12.701,3.403c4.447-2.567,5.97-8.254,3.403-12.701l-11.747-20.346h121.556  L256,411.222l-30.656-53.097c-2.566-4.447-8.256-5.97-12.701-3.403c-4.447,2.567-5.97,8.254-3.403,12.701l38.707,67.044  c1.661,2.876,4.729,4.649,8.052,4.649c3.322,0,6.391-1.773,8.052-4.649l76.882-133.163c1.661-2.876,1.661-6.422,0-9.298  c-1.661-2.876-4.73-4.649-8.052-4.649H179.117c-3.322,0-6.391,1.773-8.052,4.649c-1.661,2.876-1.661,6.422,0,9.298L190.864,335.596z  "/>
<path d="M407.245,0H187.816c-5.136,0-9.298,4.163-9.298,9.298s4.162,9.298,9.298,9.298h210.131v399.806  c0,5.135,4.162,9.298,9.298,9.298c5.136,0,9.298-4.163,9.298-9.298V9.298C416.542,4.163,412.381,0,407.245,0z"/>
<path d="M407.245,441.337c-5.136,0-9.298,4.163-9.298,9.298v42.77H114.053V18.596h34.092c5.136,0,9.298-4.163,9.298-9.298  S153.281,0,148.145,0h-43.39c-5.136,0-9.298,4.163-9.298,9.298v493.404c0,5.135,4.162,9.298,9.298,9.298h302.489  c5.136,0,9.298-4.163,9.298-9.298v-52.068C416.542,445.5,412.381,441.337,407.245,441.337z"/>
<g>
</g>
<g>
</g>
<g>
</g>
<g>
</g>
<g>
</g>
<g>
</g>
<g>
</g>
<g>
</g>
<g>
</g>
<g>
</g>
<g>
</g>
<g>
</g>
<g>
</g>
<g>
</g>
<g>
</g>
</svg>
