<?xml version="1.0" encoding="iso-8859-1"?>
<!-- Generator: Adobe Illustrator 19.0.0, SVG Export Plug-In . SVG Version: 6.00 Build 0)  -->
<svg xmlns="http://www.w3.org/2000/svg" xmlns:xlink="http://www.w3.org/1999/xlink" version="1.1" id="Layer_1" x="0px" y="0px" viewBox="0 0 512 512" style="enable-background:new 0 0 512 512;" xml:space="preserve">
<rect x="26.24" y="8.733" style="fill:#FC583D;" width="288.771" height="398.225"/>
<rect x="218.36" y="320.793" style="fill:#E6E6E6;" width="267.393" height="182.473"/>
<circle style="fill:#FFFFFF;" cx="296.375" cy="391.821" r="36.096"/>
<path style="fill:#FFCA6C;" d="M332.477,464.014c0-19.936-16.161-36.096-36.096-36.096c-19.936,0-36.096,16.161-36.096,36.096  H332.477z"/>
<path d="M189.256,398.225H34.973V104.214c0-4.823-3.91-8.733-8.733-8.733s-8.733,3.91-8.733,8.733v302.744  c0,4.823,3.91,8.733,8.733,8.733h163.016c4.823,0,8.733-3.91,8.733-8.733C197.989,402.135,194.079,398.225,189.256,398.225z"/>
<path d="M26.24,83.837c4.823,0,8.733-3.91,8.733-8.733V17.466h271.305v273.052c0,4.823,3.91,8.733,8.733,8.733  s8.733-3.91,8.733-8.733V8.733c0-4.823-3.91-8.733-8.733-8.733H26.24c-4.823,0-8.733,3.91-8.733,8.733v66.371  C17.507,79.928,21.417,83.837,26.24,83.837z"/>
<path d="M72.234,207.846c0,54.253,44.139,98.392,98.392,98.392s98.392-44.139,98.392-98.392s-44.139-98.392-98.392-98.392  S72.234,153.593,72.234,207.846z M251.073,199.113h-17.04c-1.171-21.008-6.553-40.675-15.487-56.427  C236.336,155.803,248.582,176.014,251.073,199.113z M234.034,216.579h17.04c-2.491,23.098-14.737,43.31-32.526,56.427  C227.48,257.253,232.863,237.587,234.034,216.579z M179.359,128.456c19.432,6.823,34.923,35.807,37.172,70.657h-37.172V128.456z   M179.359,216.579h37.172c-2.25,34.851-17.742,63.834-37.172,70.657V216.579z M90.178,216.579h17.04  c1.171,21.008,6.553,40.675,15.487,56.427C104.915,259.889,92.669,239.677,90.178,216.579z M161.893,128.456v70.657H124.72  C126.97,164.262,142.461,135.279,161.893,128.456z M161.893,216.579v70.657c-19.432-6.823-34.923-35.807-37.172-70.657H161.893z   M122.705,142.686c-8.933,15.752-14.316,35.419-15.487,56.427h-17.04C92.669,176.014,104.915,155.803,122.705,142.686z"/>
<path d="M221.859,80.344c4.823,0,8.733-3.91,8.733-8.733s-3.91-8.733-8.733-8.733H119.392c-4.823,0-8.733,3.91-8.733,8.733  s3.91,8.733,8.733,8.733H221.859z"/>
<path d="M485.76,312.06h-71.775c-4.823,0-8.733,3.91-8.733,8.733c0,4.823,3.91,8.733,8.733,8.733h63.042v165.008H227.099V329.526  h157.776c4.823,0,8.733-3.91,8.733-8.733c0-4.823-3.91-8.733-8.733-8.733H218.366c-4.823,0-8.733,3.91-8.733,8.733v182.474  c0,4.823,3.91,8.733,8.733,8.733H485.76c4.823,0,8.733-3.91,8.733-8.733V320.793C494.493,315.97,490.583,312.06,485.76,312.06z"/>
<path d="M341.21,391.821c0-24.719-20.11-44.829-44.829-44.829c-24.719,0-44.829,20.11-44.829,44.829  c0,14.791,7.204,27.927,18.283,36.096c-11.079,8.169-18.283,21.305-18.283,36.096c0,4.823,3.91,8.733,8.733,8.733h72.193  c4.823,0,8.733-3.91,8.733-8.733c0-14.791-7.204-27.927-18.283-36.096C334.006,419.748,341.21,406.612,341.21,391.821z   M270.446,455.281c3.653-10.82,13.898-18.63,25.935-18.63s22.282,7.811,25.935,18.63H270.446z M296.381,419.184  c-15.088,0-27.363-12.275-27.363-27.363s12.275-27.363,27.363-27.363s27.363,12.275,27.363,27.363S311.469,419.184,296.381,419.184z  "/>
<path d="M454.739,356.307h-85.001c-4.823,0-8.733,3.91-8.733,8.733s3.91,8.733,8.733,8.733h85.001c4.823,0,8.733-3.91,8.733-8.733  S459.562,356.307,454.739,356.307z"/>
<path d="M454.739,389.298h-38.425c-4.823,0-8.733,3.91-8.733,8.733c0,4.823,3.91,8.733,8.733,8.733h38.425  c4.823,0,8.733-3.91,8.733-8.733C463.472,393.208,459.562,389.298,454.739,389.298z"/>
<path d="M369.738,406.764h17.466c4.823,0,8.733-3.91,8.733-8.733c0-4.823-3.91-8.733-8.733-8.733h-17.466  c-4.823,0-8.733,3.91-8.733,8.733C361.005,402.854,364.915,406.764,369.738,406.764z"/>
<path d="M454.739,455.281h-16.302c-4.823,0-8.733,3.91-8.733,8.733c0,4.823,3.91,8.733,8.733,8.733h16.302  c4.823,0,8.733-3.91,8.733-8.733C463.472,459.191,459.562,455.281,454.739,455.281z"/>
<path d="M369.738,455.281c-4.823,0-8.733,3.91-8.733,8.733c0,4.823,3.91,8.733,8.733,8.733h39.59c4.823,0,8.733-3.91,8.733-8.733  c0-4.823-3.91-8.733-8.733-8.733H369.738z"/>
<path d="M454.739,422.29h-85.001c-4.823,0-8.733,3.91-8.733,8.733c0,4.823,3.91,8.733,8.733,8.733h85.001  c4.823,0,8.733-3.91,8.733-8.733C463.472,426.2,459.562,422.29,454.739,422.29z"/>
<g>
</g>
<g>
</g>
<g>
</g>
<g>
</g>
<g>
</g>
<g>
</g>
<g>
</g>
<g>
</g>
<g>
</g>
<g>
</g>
<g>
</g>
<g>
</g>
<g>
</g>
<g>
</g>
<g>
</g>
</svg>
