<?xml version="1.0" encoding="iso-8859-1"?>
<!-- Generator: Adobe Illustrator 19.0.0, SVG Export Plug-In . SVG Version: 6.00 Build 0)  -->
<svg xmlns="http://www.w3.org/2000/svg" xmlns:xlink="http://www.w3.org/1999/xlink" version="1.1" id="Layer_1" x="0px" y="0px" viewBox="0 0 512 512" style="enable-background:new 0 0 512 512;" xml:space="preserve">
<path style="fill:#E6E6E6;" d="M234.957,247.818V79.874c0-34.449,28.026-62.462,62.462-62.462s62.462,28.013,62.462,62.462v38.021  H316.43V79.874c0-10.483-8.527-19.01-19.01-19.01c-10.483,0-19.01,8.527-19.01,19.01v167.944"/>
<path style="fill:#ABDAEF;" d="M9.23,247.818c0,136.288,110.483,246.77,246.77,246.77s246.77-110.483,246.77-246.77L9.23,247.818  L9.23,247.818z"/>
<path style="fill:#95C7D8;" d="M110.147,247.818H9.23c0,136.288,110.483,246.77,246.77,246.77c17.294,0,34.169-1.787,50.458-5.171  C194.373,466.126,110.147,366.812,110.147,247.818z"/>
<rect x="315.29" y="184" style="fill:#47A7DD;" width="63.821" height="63.821"/>
<rect x="132.89" y="184" style="fill:#FC583D;" width="63.821" height="63.821"/>
<path d="M502.77,238.588H388.342v-54.59c0-5.098-4.131-9.23-9.23-9.23h-63.82c-5.099,0-9.23,4.133-9.23,9.23v54.59h-18.422V79.874  c0-5.393,4.386-9.78,9.779-9.78s9.78,4.387,9.78,9.78v38.021c0,5.098,4.131,9.23,9.23,9.23h43.453c5.099,0,9.23-4.133,9.23-9.23  V79.874c0-39.531-32.162-71.693-71.694-71.693c-39.531,0-71.693,32.162-71.693,71.693v47.479c0,5.098,4.131,9.23,9.23,9.23  s9.23-4.133,9.23-9.23V79.874c0-29.352,23.879-53.232,53.232-53.232c29.353,0,53.233,23.88,53.233,53.232v28.791h-24.993V79.874  c0-15.572-12.669-28.241-28.241-28.241c-15.571,0-28.239,12.669-28.239,28.241v158.713h-24.993V158.12c0-5.098-4.131-9.23-9.23-9.23  c-5.099,0-9.23,4.133-9.23,9.23v80.467h-19.788v-54.59c0-5.098-4.131-9.23-9.23-9.23h-63.82c-5.099,0-9.23,4.133-9.23,9.23v54.59  H9.23c-5.099,0-9.23,4.133-9.23,9.23c0,141.159,114.841,256.001,256.001,256.001c55.251,0,107.861-17.323,152.145-50.098  c4.097-3.032,4.96-8.813,1.927-12.91c-3.031-4.098-8.812-4.961-12.91-1.928c-41.083,30.404-89.896,46.476-141.163,46.476  c-127.886,0-232.492-101.595-237.363-228.31h114.251h63.82h118.583h63.82h114.254c-0.617,16.315-2.883,32.325-6.691,47.853h-134.26  c-5.099,0-9.23,4.133-9.23,9.23s4.131,9.23,9.23,9.23h128.939c-11.752,35.192-31.779,67.343-59.105,94.123  c-3.642,3.568-3.701,9.411-0.132,13.053c3.569,3.643,9.412,3.699,13.051,0.132C484.714,382.116,512,317.177,512,247.818  C512,242.72,507.869,238.588,502.77,238.588z M142.119,238.588v-45.359h45.36v45.359H142.119z M324.522,238.588v-45.359h45.359  v45.359H324.522z"/>
<path d="M57.754,304.901c-5.099,0-9.23,4.133-9.23,9.23c0,5.098,4.131,9.23,9.23,9.23h260.714c5.099,0,9.23-4.133,9.23-9.23  c0-5.098-4.131-9.23-9.23-9.23L57.754,304.901L57.754,304.901z"/>
<g>
</g>
<g>
</g>
<g>
</g>
<g>
</g>
<g>
</g>
<g>
</g>
<g>
</g>
<g>
</g>
<g>
</g>
<g>
</g>
<g>
</g>
<g>
</g>
<g>
</g>
<g>
</g>
<g>
</g>
</svg>
