<?xml version="1.0" encoding="iso-8859-1"?>
<!-- Generator: Adobe Illustrator 19.0.0, SVG Export Plug-In . SVG Version: 6.00 Build 0)  -->
<svg xmlns="http://www.w3.org/2000/svg" xmlns:xlink="http://www.w3.org/1999/xlink" version="1.1" id="Layer_1" x="0px" y="0px" viewBox="0 0 511.999 511.999" style="enable-background:new 0 0 511.999 511.999;" xml:space="preserve">
<circle style="fill:#FFCA6C;" cx="255.999" cy="268.023" r="200.671"/>
<path style="fill:#F2F2F2;" d="M413.068,268.025c0,86.755-70.32,157.076-157.064,157.076c-19.731,0-38.614-3.636-56.007-10.278  C140.9,392.268,98.929,335.049,98.929,268.025c0-86.743,70.32-157.076,157.076-157.076c23.295,0,45.402,5.078,65.291,14.18  C375.447,149.916,413.068,204.577,413.068,268.025z"/>
<path style="fill:#FFFFFF;" d="M413.068,268.025c0,86.755-70.32,157.076-157.064,157.076c-19.731,0-38.614-3.636-56.007-10.278  L321.295,125.13C375.447,149.916,413.068,204.577,413.068,268.025z"/>
<path style="fill:#FFCA6C;" d="M475.74,179.731l-51.51-51.498c-0.048-0.048-0.085-0.085-0.121-0.133l-14.096-14.083l-65.727-65.727  c29.04-29.04,72.502-34.845,107.311-17.429v0.012c8.702,4.339,16.871,10.157,24.143,17.416  C512.028,84.589,512.028,143.444,475.74,179.731z"/>
<path style="fill:#E2AE5A;" d="M451.597,30.861v0.012c0,0-78.732,45.777-27.488,97.227l-14.096-14.083l-65.727-65.727  C373.326,19.25,416.789,13.444,451.597,30.861z"/>
<path style="fill:#FFCA6C;" d="M36.266,179.737c-36.297-36.297-36.297-95.147,0-131.444s95.147-36.297,131.444,0l-65.722,65.722  L36.266,179.737z"/>
<path style="fill:#E2AE5A;" d="M78.077,48.293c12.794-12.794,28.394-21.057,44.816-24.832c-30.169-6.935-63.125,1.328-86.628,24.832  c-36.297,36.297-36.297,95.147,0,131.444l24.321-24.321C43.279,120.635,49.092,77.278,78.077,48.293z"/>
<path d="M121.548,186.269c-4.431-2.36-9.936-0.68-12.296,3.75c-12.701,23.846-19.415,50.822-19.415,78.008  c0,91.623,74.539,166.162,166.162,166.162s166.162-74.539,166.162-166.162c0-91.621-74.539-166.162-166.162-166.162  c-46.274,0-89.237,18.558-120.976,52.256c-3.442,3.654-3.269,9.408,0.384,12.85c3.655,3.441,9.408,3.271,12.851-0.384  c26.177-27.791,60.929-44.01,98.652-46.259v17.933c0,5.02,4.069,9.09,9.09,9.09c5.021,0,9.09-4.07,9.09-9.09v-17.927  c74.371,4.53,134.074,64.234,138.605,138.605h-17.927c-5.021,0-9.09,4.07-9.09,9.09s4.069,9.09,9.09,9.09h17.927  c-4.53,74.372-64.233,134.075-138.605,138.605v-17.927c0-5.02-4.069-9.09-9.09-9.09s-9.09,4.07-9.09,9.09v17.927  c-74.371-4.529-134.074-64.233-138.605-138.605h17.926c5.021,0,9.09-4.07,9.09-9.09c0-5.02-4.069-9.09-9.09-9.09h-17.933  c1.3-21.103,7.111-41.807,17-60.372C127.658,194.133,125.979,188.628,121.548,186.269z"/>
<path d="M482.163,41.866c-19.272-19.272-44.896-29.886-72.149-29.886c-27.254,0-52.878,10.614-72.151,29.886  c-3.55,3.55-3.55,9.306,0,12.855l50.831,50.831c-37.359-30.626-83.746-47.28-132.694-47.28c-48.946,0-95.331,16.653-132.689,47.277  l50.828-50.828c1.704-1.704,2.662-4.017,2.662-6.427c0-2.411-0.957-4.723-2.662-6.427c-24.007-24.006-58.261-34.48-91.632-28.019  c-4.928,0.954-8.151,5.723-7.197,10.652c0.954,4.928,5.721,8.148,10.652,7.197c24.424-4.728,49.428,1.577,68.544,16.945  L36.611,166.535C10.141,133.637,12.17,85.243,42.694,54.72c4.553-4.553,9.604-8.57,15.012-11.939  c4.261-2.654,5.563-8.26,2.909-12.522c-2.654-4.261-8.261-5.562-12.522-2.909c-6.581,4.1-12.722,8.983-18.255,14.515  c-39.783,39.783-39.783,104.516,0,144.299c1.776,1.774,4.103,2.663,6.428,2.663c2.326,0,4.653-0.887,6.428-2.663l50.932-50.932  c-67.42,82.312-62.739,204.322,14.053,281.115c5.568,5.568,11.401,10.77,17.458,15.623l-21.033,55.757  c-1.772,4.697,0.6,9.941,5.296,11.713c1.057,0.399,2.142,0.588,3.207,0.588c3.672,0,7.133-2.243,8.507-5.884l19.254-51.041  c34.009,22.561,73.887,34.681,115.632,34.681s81.624-12.12,115.632-34.681l19.253,51.041c1.374,3.641,4.832,5.884,8.507,5.884  c1.067,0,2.15-0.189,3.207-0.587c4.697-1.772,7.068-7.016,5.296-11.714l-21.033-55.757c6.056-4.853,11.89-10.055,17.456-15.623  c10.06-10.06,19.101-21.129,26.871-32.899c2.766-4.19,1.612-9.828-2.577-12.594c-4.191-2.767-9.827-1.613-12.595,2.577  c-7.097,10.75-15.36,20.863-24.556,30.06c-36.183,36.183-84.292,56.111-135.464,56.111s-99.281-19.928-135.466-56.111  c-74.696-74.696-74.696-196.234,0-270.93c36.187-36.181,84.296-56.108,135.468-56.108s99.28,19.928,135.464,56.111  c27.728,27.727,46.066,62.698,53.029,101.133c6.807,37.567,2.399,75.858-12.751,110.732c-2,4.604,0.112,9.959,4.716,11.959  c4.607,2.001,9.96-0.113,11.959-4.716c16.586-38.183,21.415-80.1,13.965-121.217c-6.375-35.192-21.46-67.724-43.973-95.188  l50.898,50.898c1.705,1.705,4.017,2.663,6.428,2.663c2.412,0,4.722-0.957,6.428-2.663  C521.945,146.381,521.945,81.648,482.163,41.866z M475.389,166.535L357.491,48.638c32.899-26.469,81.292-24.442,111.816,6.082  C499.83,85.244,501.858,133.637,475.389,166.535z"/>
<path d="M256.001,277.117c5.021,0,9.09-4.07,9.09-9.09v-73.412c0-5.02-4.069-9.09-9.09-9.09s-9.09,4.07-9.09,9.09v64.322h-34.491  c-5.021,0-9.09,4.07-9.09,9.09s4.069,9.09,9.09,9.09H256.001z"/>
<g>
</g>
<g>
</g>
<g>
</g>
<g>
</g>
<g>
</g>
<g>
</g>
<g>
</g>
<g>
</g>
<g>
</g>
<g>
</g>
<g>
</g>
<g>
</g>
<g>
</g>
<g>
</g>
<g>
</g>
</svg>
