<?xml version="1.0" encoding="iso-8859-1"?>
<!-- Generator: Adobe Illustrator 19.0.0, SVG Export Plug-In . SVG Version: 6.00 Build 0)  -->
<svg xmlns="http://www.w3.org/2000/svg" xmlns:xlink="http://www.w3.org/1999/xlink" version="1.1" id="Layer_1" x="0px" y="0px" viewBox="0 0 512 512" style="enable-background:new 0 0 512 512;" xml:space="preserve">
<path style="fill:#47A7DD;" d="M437.243,87.063H74.757c-18.997,0-34.396,15.4-34.396,34.396v227.568  c0,18.997,15.4,34.396,34.396,34.396h362.487c18.997,0,34.396-15.399,34.396-34.396V121.459  C471.64,102.463,456.239,87.063,437.243,87.063z"/>
<path style="fill:#3F9EC9;" d="M70.342,349.027V121.459c0-18.996,15.399-34.396,34.396-34.396H74.757  c-18.997,0-34.396,15.4-34.396,34.396v227.568c0,18.997,15.399,34.396,34.396,34.396h29.982  C85.742,383.423,70.342,368.024,70.342,349.027z"/>
<rect x="12.203" y="383.423" style="fill:#E6E6E6;" width="487.599" height="42.667"/>
<g>
	<circle style="fill:#999999;" cx="84.18" cy="464.721" r="38.631"/>
	<circle style="fill:#999999;" cx="427.82" cy="464.721" r="38.631"/>
	<path style="fill:#999999;" d="M348.829,26.834v60.229h-29.198V52.468H192.369v34.595h-29.198V26.834   c0-10.044,8.141-18.185,18.185-18.185h149.287C340.688,8.649,348.829,16.79,348.829,26.834z"/>
</g>
<rect x="93.399" y="150.491" transform="matrix(-0.9484 0.317 -0.317 -0.9484 334.8353 314.5384)" style="fill:#EADAC5;" width="96.863" height="68.034"/>
<path d="M499.797,374.775h-28.079c5.381-7.185,8.57-16.102,8.57-25.748V210.45c0-4.776-3.871-8.649-8.649-8.649  s-8.649,3.872-8.649,8.649v138.577c0,14.198-11.551,25.748-25.748,25.748H74.757c-14.196,0-25.748-11.55-25.748-25.748V121.459  c0-14.198,11.551-25.748,25.748-25.748h362.487c14.198,0,25.748,11.55,25.748,25.748v59.009c0,4.776,3.871,8.649,8.649,8.649  s8.649-3.872,8.649-8.649v-59.009c0-23.735-19.31-43.045-43.045-43.045h-79.766V26.834C357.477,12.038,345.44,0,330.642,0H181.356  c-14.797,0-26.834,12.038-26.834,26.834v51.581H74.757c-23.735,0-43.045,19.31-43.045,43.045v227.568  c0,9.647,3.19,18.562,8.57,25.748H12.203c-4.778,0-8.649,3.872-8.649,8.649v42.667c0,4.776,3.871,8.649,8.649,8.649h35.449  c-6.714,8.165-10.751,18.611-10.751,29.982C36.901,490.79,58.111,512,84.18,512s47.279-21.21,47.279-47.279  c0-11.371-4.037-21.817-10.751-29.982h34.967c4.778,0,8.649-3.872,8.649-8.649c0-4.776-3.871-8.649-8.649-8.649H20.851v-25.369  h470.297v25.369H190.27c-4.778,0-8.649,3.872-8.649,8.649c0,4.776,3.871,8.649,8.649,8.649h201.021  c-6.714,8.165-10.751,18.611-10.751,29.982c0,26.069,21.21,47.279,47.279,47.279s47.279-21.21,47.279-47.279  c0-11.371-4.037-21.817-10.751-29.982h35.449c4.778,0,8.649-3.872,8.649-8.649v-42.667  C508.446,378.647,504.575,374.775,499.797,374.775z M310.982,78.414H201.018V61.117h109.964v17.297H310.982z M171.82,26.834  c0-5.258,4.278-9.537,9.537-9.537h149.287c5.26,0,9.538,4.278,9.538,9.537v51.581h-11.901V52.468c0-4.776-3.871-8.649-8.649-8.649  H192.369c-4.778,0-8.649,3.872-8.649,8.649v25.946H171.82V26.834z M114.162,464.721c0,16.532-13.449,29.982-29.982,29.982  s-29.982-13.45-29.982-29.982c0-16.532,13.449-29.982,29.982-29.982S114.162,448.189,114.162,464.721z M457.802,464.721  c0,16.532-13.449,29.982-29.982,29.982c-16.533,0-29.982-13.45-29.982-29.982c0-16.532,13.449-29.982,29.982-29.982  C444.353,434.739,457.802,448.189,457.802,464.721z"/>
<path d="M143.182,219.924c1.514,4.531,6.415,6.975,10.945,5.46l47.171-15.768c4.53-1.514,6.974-6.414,5.46-10.945l-21.569-64.527  c-0.728-2.175-2.289-3.973-4.342-4.997c-2.053-1.024-4.426-1.191-6.604-0.464l-91.868,30.708c-4.53,1.514-6.974,6.414-5.46,10.945  l21.569,64.527c0.728,2.175,2.289,3.973,4.342,4.997c1.211,0.604,2.533,0.91,3.862,0.91c0.924,0,1.85-0.148,2.742-0.446  l14.955-4.999c4.53-1.514,6.975-6.414,5.46-10.945c-1.515-4.531-6.41-6.974-10.945-5.46l-6.752,2.257l-16.084-48.121l75.462-25.225  l16.084,48.122l-38.969,13.026C144.114,210.493,141.668,215.393,143.182,219.924z"/>
<g>
</g>
<g>
</g>
<g>
</g>
<g>
</g>
<g>
</g>
<g>
</g>
<g>
</g>
<g>
</g>
<g>
</g>
<g>
</g>
<g>
</g>
<g>
</g>
<g>
</g>
<g>
</g>
<g>
</g>
</svg>
