<?xml version="1.0" encoding="iso-8859-1"?>
<!-- Generator: Adobe Illustrator 19.0.0, SVG Export Plug-In . SVG Version: 6.00 Build 0)  -->
<svg xmlns="http://www.w3.org/2000/svg" xmlns:xlink="http://www.w3.org/1999/xlink" version="1.1" id="Layer_1" x="0px" y="0px" viewBox="0 0 512 512" style="enable-background:new 0 0 512 512;" xml:space="preserve">
<rect x="60.269" y="8.661" style="fill:#E6E6E6;" width="391.452" height="116.669"/>
<rect x="27.586" y="149.985" style="fill:#FFCA6C;" width="456.825" height="353.355"/>
<g>
	<path style="fill:#E6E6E6;" d="M152.74,416.734L152.74,416.734c-15.085,0-27.314,12.229-27.314,27.314v59.292h54.628v-59.292   C180.054,428.963,167.825,416.734,152.74,416.734z"/>
	<path style="fill:#E6E6E6;" d="M359.26,416.734L359.26,416.734c-15.085,0-27.314,12.229-27.314,27.314v59.292h54.628v-59.292   C386.574,428.963,374.345,416.734,359.26,416.734z"/>
	<path style="fill:#E6E6E6;" d="M256.001,416.734L256.001,416.734c-15.085,0-27.314,12.229-27.314,27.314v59.292h54.628v-59.292   C283.314,428.963,271.086,416.734,256.001,416.734z"/>
	<path style="fill:#E6E6E6;" d="M85.388,344.564L85.388,344.564c-8.609,0-15.589,6.98-15.589,15.589v32.91h31.178v-32.91   C100.976,351.543,93.997,344.564,85.388,344.564z"/>
	<path style="fill:#E6E6E6;" d="M221.878,344.564L221.878,344.564c-8.609,0-15.589,6.98-15.589,15.589v32.91h31.178v-32.91   C237.466,351.543,230.488,344.564,221.878,344.564z"/>
	<path style="fill:#E6E6E6;" d="M153.633,344.564L153.633,344.564c-8.609,0-15.589,6.98-15.589,15.589v32.91h31.178v-32.91   C169.221,351.543,162.242,344.564,153.633,344.564z"/>
	<path style="fill:#E6E6E6;" d="M290.122,344.564L290.122,344.564c-8.609,0-15.589,6.98-15.589,15.589v32.91h31.178v-32.91   C305.711,351.543,298.733,344.564,290.122,344.564z"/>
	<path style="fill:#E6E6E6;" d="M426.612,344.564L426.612,344.564c-8.609,0-15.589,6.98-15.589,15.589v32.91h31.178v-32.91   C442.202,351.543,435.222,344.564,426.612,344.564z"/>
	<path style="fill:#E6E6E6;" d="M358.367,344.564L358.367,344.564c-8.609,0-15.589,6.98-15.589,15.589v32.91h31.178v-32.91   C373.956,351.543,366.978,344.564,358.367,344.564z"/>
	<path style="fill:#E6E6E6;" d="M85.388,260.556L85.388,260.556c-8.609,0-15.589,6.98-15.589,15.589v32.91h31.178v-32.91   C100.976,267.536,93.997,260.556,85.388,260.556z"/>
	<path style="fill:#E6E6E6;" d="M221.878,260.556L221.878,260.556c-8.609,0-15.589,6.98-15.589,15.589v32.91h31.178v-32.91   C237.466,267.536,230.488,260.556,221.878,260.556z"/>
	<path style="fill:#E6E6E6;" d="M153.633,260.556L153.633,260.556c-8.609,0-15.589,6.98-15.589,15.589v32.91h31.178v-32.91   C169.221,267.536,162.242,260.556,153.633,260.556z"/>
	<path style="fill:#E6E6E6;" d="M290.122,260.556L290.122,260.556c-8.609,0-15.589,6.98-15.589,15.589v32.91h31.178v-32.91   C305.711,267.536,298.733,260.556,290.122,260.556z"/>
	<path style="fill:#E6E6E6;" d="M426.612,260.556L426.612,260.556c-8.609,0-15.589,6.98-15.589,15.589v32.91h31.178v-32.91   C442.202,267.536,435.222,260.556,426.612,260.556z"/>
	<path style="fill:#E6E6E6;" d="M358.367,260.556L358.367,260.556c-8.609,0-15.589,6.98-15.589,15.589v32.91h31.178v-32.91   C373.956,267.536,366.978,260.556,358.367,260.556z"/>
	<path style="fill:#E6E6E6;" d="M85.388,176.55L85.388,176.55c-8.609,0-15.589,6.98-15.589,15.589v32.91h31.178v-32.91   C100.976,183.529,93.997,176.55,85.388,176.55z"/>
	<path style="fill:#E6E6E6;" d="M221.878,176.55L221.878,176.55c-8.609,0-15.589,6.98-15.589,15.589v32.91h31.178v-32.91   C237.466,183.529,230.488,176.55,221.878,176.55z"/>
	<path style="fill:#E6E6E6;" d="M153.633,176.55L153.633,176.55c-8.609,0-15.589,6.98-15.589,15.589v32.91h31.178v-32.91   C169.221,183.529,162.242,176.55,153.633,176.55z"/>
	<path style="fill:#E6E6E6;" d="M290.122,176.55L290.122,176.55c-8.609,0-15.589,6.98-15.589,15.589v32.91h31.178v-32.91   C305.711,183.529,298.733,176.55,290.122,176.55z"/>
	<path style="fill:#E6E6E6;" d="M426.612,176.55L426.612,176.55c-8.609,0-15.589,6.98-15.589,15.589v32.91h31.178v-32.91   C442.202,183.529,435.222,176.55,426.612,176.55z"/>
	<path style="fill:#E6E6E6;" d="M358.367,176.55L358.367,176.55c-8.609,0-15.589,6.98-15.589,15.589v32.91h31.178v-32.91   C373.956,183.529,366.978,176.55,358.367,176.55z"/>
</g>
<rect x="12.761" y="125.33" style="fill:#4D4D4D;" width="486.469" height="24.663"/>
<path d="M151.755,105.472c4.783,0,8.661-3.878,8.661-8.661V40.867c0-4.783-3.878-8.661-8.661-8.661s-8.661,3.878-8.661,8.661v19.312  h-14.147V40.867c0-4.783-3.878-8.661-8.661-8.661c-4.783,0-8.661,3.878-8.661,8.661v55.944c0,4.783,3.878,8.661,8.661,8.661  c4.783,0,8.661-3.878,8.661-8.661v-19.31h14.147v19.31C143.094,101.594,146.972,105.472,151.755,105.472z"/>
<path d="M176.998,56.602v24.474c0,13.451,10.944,24.395,24.395,24.395c13.452,0,24.396-10.944,24.396-24.395V56.602  c0-13.452-10.944-24.396-24.396-24.396C187.942,32.206,176.998,43.15,176.998,56.602z M208.468,56.602v24.474  c0,3.9-3.173,7.073-7.074,7.073c-3.9,0-7.073-3.173-7.073-7.073V56.602c0-3.901,3.173-7.074,7.073-7.074  C205.295,49.528,208.468,52.701,208.468,56.602z"/>
<path d="M338.466,49.528c4.783,0,8.661-3.878,8.661-8.661s-3.878-8.661-8.661-8.661h-31.469c-4.783,0-8.661,3.878-8.661,8.661  v55.944c0,4.783,3.878,8.661,8.661,8.661h31.469c4.783,0,8.661-3.878,8.661-8.661s-3.878-8.661-8.661-8.661h-22.808V77.74h12.796  c4.783,0,8.661-3.878,8.661-8.661s-3.878-8.661-8.661-8.661h-12.796v-10.89H338.466z"/>
<path d="M371.793,105.472h31.469c4.783,0,8.661-3.878,8.661-8.661s-3.878-8.661-8.661-8.661h-22.808V40.867  c0-4.783-3.878-8.661-8.661-8.661c-4.783,0-8.661,3.878-8.661,8.661v55.944C363.132,101.594,367.01,105.472,371.793,105.472z"/>
<path d="M259.329,105.472c4.783,0,8.661-3.878,8.661-8.661V49.528h7.074c4.783,0,8.661-3.878,8.661-8.661s-3.878-8.661-8.661-8.661  h-31.469c-4.783,0-8.661,3.878-8.661,8.661s3.878,8.661,8.661,8.661h7.073v47.283C250.668,101.594,254.546,105.472,259.329,105.472z  "/>
<path d="M484.414,234.103c-4.783,0-8.661,3.878-8.661,8.661v251.914h-80.519v-50.63c0-19.837-16.138-35.975-35.974-35.975  c-19.837,0-35.975,16.138-35.975,35.975v50.63h-31.31v-50.63c0-19.837-16.138-35.975-35.974-35.975l0,0  c-19.836,0-35.974,16.138-35.974,35.975v50.63h-31.31v-50.63c0-19.837-16.138-35.975-35.975-35.975  c-19.836,0-35.974,16.138-35.974,35.975v50.63h-80.52v-48.67c0-4.783-3.878-8.661-8.661-8.661s-8.661,3.878-8.661,8.661v57.331  c0,4.783,3.878,8.661,8.661,8.661h456.829c4.783,0,8.661-3.878,8.661-8.661V242.764  C493.075,237.981,489.197,234.103,484.414,234.103z M134.088,494.678v-50.63c0-10.286,8.368-18.653,18.652-18.653  c10.286,0,18.653,8.368,18.653,18.653v50.63H134.088z M237.347,494.678v-50.63c0-10.286,8.368-18.653,18.653-18.653  c10.285,0,18.652,8.368,18.652,18.653v50.63H237.347z M340.607,494.678v-50.63c0-10.286,8.368-18.653,18.653-18.653  c10.285,0,18.652,8.368,18.652,18.653v50.63H340.607z"/>
<path d="M61.138,393.063c0,4.783,3.878,8.661,8.661,8.661h31.178c4.783,0,8.661-3.878,8.661-8.661v-32.91  c0-13.371-10.878-24.251-24.25-24.251s-24.251,10.878-24.251,24.251V393.063z M78.46,360.153c0-3.82,3.108-6.929,6.929-6.929  s6.928,3.108,6.928,6.929v24.25H78.46V360.153z"/>
<path d="M197.628,393.063c0,4.783,3.878,8.661,8.661,8.661h31.178c4.783,0,8.661-3.878,8.661-8.661v-32.91  c0-13.371-10.878-24.251-24.251-24.251c-13.373,0-24.25,10.878-24.25,24.251V393.063z M214.95,360.153  c0-3.82,3.108-6.929,6.928-6.929c3.82,0,6.929,3.108,6.929,6.929v24.25H214.95V360.153z"/>
<path d="M129.383,393.063c0,4.783,3.878,8.661,8.661,8.661h31.178c4.783,0,8.661-3.878,8.661-8.661v-32.91  c0-13.371-10.878-24.251-24.251-24.251c-13.373,0-24.25,10.878-24.25,24.251V393.063z M146.705,360.153  c0-3.82,3.108-6.929,6.928-6.929c3.82,0,6.929,3.108,6.929,6.929v24.25h-13.856V360.153z"/>
<path d="M265.873,393.063c0,4.783,3.878,8.661,8.661,8.661h31.178c4.783,0,8.661-3.878,8.661-8.661v-32.91  c0-13.371-10.878-24.251-24.25-24.251s-24.251,10.878-24.251,24.251L265.873,393.063L265.873,393.063z M283.195,360.153  c0-3.82,3.108-6.929,6.929-6.929s6.928,3.108,6.928,6.929v24.25h-13.856L283.195,360.153L283.195,360.153z"/>
<path d="M402.363,393.063c0,4.783,3.878,8.661,8.661,8.661h31.178c4.783,0,8.661-3.878,8.661-8.661v-32.91  c0-13.371-10.878-24.251-24.251-24.251s-24.25,10.878-24.25,24.251V393.063z M419.685,360.153c0-3.82,3.108-6.929,6.928-6.929  s6.929,3.108,6.929,6.929v24.25h-13.856V360.153z"/>
<path d="M334.118,393.063c0,4.783,3.878,8.661,8.661,8.661h31.178c4.783,0,8.661-3.878,8.661-8.661v-32.91  c0-13.371-10.878-24.251-24.25-24.251s-24.251,10.878-24.251,24.251V393.063z M351.44,360.153c0-3.82,3.108-6.929,6.929-6.929  s6.928,3.108,6.928,6.929v24.25H351.44V360.153z"/>
<path d="M61.138,309.055c0,4.783,3.878,8.661,8.661,8.661h31.178c4.783,0,8.661-3.878,8.661-8.661v-32.91  c0-13.371-10.878-24.25-24.25-24.25s-24.251,10.878-24.251,24.25V309.055z M78.46,276.145c0-3.82,3.108-6.928,6.929-6.928  s6.928,3.108,6.928,6.928v24.25H78.46V276.145z"/>
<path d="M197.628,309.055c0,4.783,3.878,8.661,8.661,8.661h31.178c4.783,0,8.661-3.878,8.661-8.661v-32.91  c0-13.371-10.878-24.25-24.251-24.25c-13.373,0-24.25,10.878-24.25,24.25V309.055z M214.95,276.145c0-3.82,3.108-6.928,6.928-6.928  c3.82,0,6.929,3.108,6.929,6.928v24.25H214.95V276.145z"/>
<path d="M129.383,309.055c0,4.783,3.878,8.661,8.661,8.661h31.178c4.783,0,8.661-3.878,8.661-8.661v-32.91  c0-13.371-10.878-24.25-24.251-24.25c-13.373,0-24.25,10.878-24.25,24.25V309.055z M146.705,276.145c0-3.82,3.108-6.928,6.928-6.928  c3.82,0,6.929,3.108,6.929,6.928v24.25h-13.856V276.145z"/>
<path d="M265.873,309.055c0,4.783,3.878,8.661,8.661,8.661h31.178c4.783,0,8.661-3.878,8.661-8.661v-32.91  c0-13.371-10.878-24.25-24.25-24.25s-24.251,10.878-24.251,24.25L265.873,309.055L265.873,309.055z M283.195,276.145  c0-3.82,3.108-6.928,6.929-6.928s6.928,3.108,6.928,6.928v24.25h-13.856L283.195,276.145L283.195,276.145z"/>
<path d="M402.363,309.055c0,4.783,3.878,8.661,8.661,8.661h31.178c4.783,0,8.661-3.878,8.661-8.661v-32.91  c0-13.371-10.878-24.25-24.251-24.25s-24.25,10.878-24.25,24.25V309.055z M419.685,276.145c0-3.82,3.108-6.928,6.928-6.928  s6.929,3.108,6.929,6.928v24.25h-13.856V276.145z"/>
<path d="M334.118,309.055c0,4.783,3.878,8.661,8.661,8.661h31.178c4.783,0,8.661-3.878,8.661-8.661v-32.91  c0-13.371-10.878-24.25-24.25-24.25s-24.251,10.878-24.251,24.25V309.055z M351.44,276.145c0-3.82,3.108-6.928,6.929-6.928  s6.928,3.108,6.928,6.928v24.25H351.44V276.145z"/>
<path d="M100.976,233.71c4.783,0,8.661-3.878,8.661-8.661v-32.91c0-13.371-10.878-24.251-24.25-24.251s-24.251,10.878-24.251,24.251  v32.91c0,4.783,3.878,8.661,8.661,8.661L100.976,233.71L100.976,233.71z M78.46,192.138c0-3.82,3.108-6.929,6.929-6.929  s6.928,3.108,6.928,6.929v24.25H78.46V192.138z"/>
<path d="M237.466,233.71c4.783,0,8.661-3.878,8.661-8.661v-32.91c0-13.371-10.878-24.251-24.251-24.251  c-13.373,0-24.25,10.878-24.25,24.251v32.91c0,4.783,3.878,8.661,8.661,8.661L237.466,233.71L237.466,233.71z M214.95,192.138  c0-3.82,3.108-6.929,6.928-6.929c3.82,0,6.929,3.108,6.929,6.929v24.25H214.95V192.138z"/>
<path d="M169.221,233.71c4.783,0,8.661-3.878,8.661-8.661v-32.91c0-13.371-10.878-24.251-24.251-24.251  c-13.373,0-24.25,10.878-24.25,24.251v32.91c0,4.783,3.878,8.661,8.661,8.661L169.221,233.71L169.221,233.71z M146.705,192.138  c0-3.82,3.108-6.929,6.928-6.929c3.82,0,6.929,3.108,6.929,6.929v24.25h-13.856V192.138z"/>
<path d="M305.711,233.71c4.783,0,8.661-3.878,8.661-8.661v-32.91c0-13.371-10.878-24.251-24.25-24.251s-24.251,10.878-24.251,24.251  v32.91c0,4.783,3.878,8.661,8.661,8.661L305.711,233.71L305.711,233.71z M283.195,192.138c0-3.82,3.108-6.929,6.929-6.929  s6.928,3.108,6.928,6.929v24.25h-13.856L283.195,192.138L283.195,192.138z"/>
<path d="M442.202,233.71c4.783,0,8.661-3.878,8.661-8.661v-32.91c0-13.371-10.878-24.251-24.251-24.251s-24.25,10.878-24.25,24.251  v32.91c0,4.783,3.878,8.661,8.661,8.661L442.202,233.71L442.202,233.71z M419.685,192.138c0-3.82,3.108-6.929,6.928-6.929  s6.929,3.108,6.929,6.929v24.25h-13.856V192.138z"/>
<path d="M373.956,233.71c4.783,0,8.661-3.878,8.661-8.661v-32.91c0-13.371-10.878-24.251-24.25-24.251s-24.251,10.878-24.251,24.251  v32.91c0,4.783,3.878,8.661,8.661,8.661L373.956,233.71L373.956,233.71z M351.44,192.138c0-3.82,3.108-6.929,6.929-6.929  s6.928,3.108,6.928,6.929v24.25H351.44V192.138z"/>
<path d="M499.235,116.665h-38.846V8.661c0-4.783-3.878-8.661-8.661-8.661h-70.049c-4.783,0-8.661,3.878-8.661,8.661  s3.878,8.661,8.661,8.661h61.388v99.343H68.933V17.322h283.876c4.783,0,8.661-3.878,8.661-8.661S357.592,0,352.809,0H60.272  c-4.783,0-8.661,3.878-8.661,8.661v108.004H12.765c-4.783,0-8.661,3.878-8.661,8.661v24.663c0,4.783,3.878,8.661,8.661,8.661h6.16  v258.487c0,4.783,3.878,8.661,8.661,8.661s8.661-3.878,8.661-8.661V158.651h439.507v55.243c0,4.783,3.878,8.661,8.661,8.661  c4.783,0,8.661-3.878,8.661-8.661v-55.243h6.16c4.783,0,8.661-3.878,8.661-8.661v-24.663  C507.896,120.543,504.018,116.665,499.235,116.665z M21.426,141.33v-7.341h469.148v7.341H21.426z"/>
<g>
</g>
<g>
</g>
<g>
</g>
<g>
</g>
<g>
</g>
<g>
</g>
<g>
</g>
<g>
</g>
<g>
</g>
<g>
</g>
<g>
</g>
<g>
</g>
<g>
</g>
<g>
</g>
<g>
</g>
</svg>
