<?xml version="1.0" encoding="iso-8859-1"?>
<!-- Generator: Adobe Illustrator 19.0.0, SVG Export Plug-In . SVG Version: 6.00 Build 0)  -->
<svg xmlns="http://www.w3.org/2000/svg" xmlns:xlink="http://www.w3.org/1999/xlink" version="1.1" id="Layer_1" x="0px" y="0px" viewBox="0 0 512 512" style="enable-background:new 0 0 512 512;" xml:space="preserve">
<path style="fill:#47A7DD;" d="M246.278,454.558l-18.382-169.79l-3.262-30.064l-86.539,7.383c-3.439,0.291-6.865,0.443-10.253,0.443  c-6.17,0-12.238-0.48-18.18-1.403l3.338,30.81l18.281,168.855c1.58,14.665,13.97,25.791,28.724,25.791h57.536  C234.735,486.582,248.124,471.664,246.278,454.558z"/>
<path style="fill:#F2F2F2;" d="M193.723,350.112c1.188,9.002-5.828,16.992-14.918,16.992c-7.548,0-13.919-5.601-14.906-13.085  l-4.273-32.491c-1.176-9.002,5.828-17.004,14.918-17.004c3.78,0,7.257,1.403,9.924,3.73c2.655,2.339,4.501,5.613,4.981,9.356  L193.723,350.112z"/>
<path style="fill:#3D98C1;" d="M227.895,284.768l-3.262-30.064l-78.908,6.732v-0.004l-7.63,0.651  c-3.439,0.291-6.865,0.443-10.253,0.443c-6.17,0-12.238-0.48-18.18-1.403v0.004l0,0l1.411,13.028l20.208,186.633  c1.58,14.665,13.97,25.791,28.724,25.791h36.03c-14.754,0-27.144-11.125-28.724-25.791L148.98,291.5l75.652-6.454L227.895,284.768z"/>
<polygon style="fill:#47A7DD;" points="502.518,34.192 502.518,253.781 414.715,238.496 414.715,49.477 "/>
<path style="fill:#3D98C1;" d="M502.518,253.781l-87.803-15.285V49.477C414.715,49.477,417.117,225.145,502.518,253.781z"/>
<path style="fill:#F2F2F2;" d="M232.327,33.908l-94.232-8.041c-34.034-2.908-65.716,8.825-89.105,29.773  C24.817,77.247,9.482,108.702,9.482,143.975c0,35.286,15.335,66.728,39.508,88.334c16.714,14.981,37.662,25.235,60.672,28.812  c5.942,0.923,12.01,1.403,18.18,1.403c3.388,0,6.814-0.152,10.253-0.442l86.539-7.383l190.081-16.208V49.471L276.108,37.644  L232.327,33.908z"/>
<path style="fill:#E6E6E6;" d="M291.004,230.047l-86.539,7.383c-3.439,0.291-6.865,0.443-10.253,0.443  c-6.17,0-12.238-0.48-18.18-1.403c-23.01-3.578-43.958-13.831-60.672-28.812c-24.173-21.606-39.508-53.048-39.508-88.334  c0-35.273,15.335-66.728,39.508-88.334c2.096-1.877,4.262-3.678,6.487-5.403c-27.783,1.401-53.239,12.483-72.858,30.055  C24.817,77.247,9.482,108.702,9.482,143.975c0,35.286,15.335,66.728,39.508,88.334c16.714,14.981,37.662,25.235,60.672,28.812  c5.942,0.923,12.01,1.403,18.18,1.403c3.388,0,6.814-0.152,10.253-0.442l86.539-7.383l190.081-16.208v-18.993L291.004,230.047z"/>
<path d="M508.622,26.93c-2.142-1.8-4.972-2.565-7.728-2.084L414.299,39.92L220.344,23.371c-5.206-0.45-9.809,3.424-10.253,8.641  c-0.446,5.218,3.424,9.808,8.641,10.253l186.501,15.913v171.604l-267.937,22.85c-3.21,0.271-6.391,0.408-9.455,0.408  c-5.583,0-11.209-0.435-16.724-1.291c-20.764-3.229-40.059-12.394-55.811-26.513c-23.094-20.644-36.342-50.263-36.342-81.263  s13.248-60.619,36.353-81.27c22.604-20.246,51.716-29.972,81.973-27.389l52.014,4.439c5.214,0.442,9.809-3.424,10.253-8.641  c0.446-5.218-3.424-9.808-8.641-10.253l-52.013-4.439c-35.528-3.033-69.7,8.386-96.232,32.151C15.553,72.811,0,107.583,0,143.975  s15.553,71.165,42.661,95.395c16.644,14.92,36.689,25.112,58.332,29.766l20.86,192.667c2.105,19.529,18.506,34.256,38.152,34.256  h57.538c10.879,0,21.289-4.642,28.557-12.739c7.273-8.1,10.774-18.956,9.606-29.789l-6.342-58.554  c-0.564-5.206-5.244-8.978-10.448-8.406c-5.206,0.564-8.97,5.242-8.405,10.448l6.34,58.552c0.602,5.564-1.126,10.919-4.862,15.08  c-3.731,4.156-8.861,6.444-14.447,6.444h-57.538c-9.936,0-18.232-7.448-19.298-17.329l-20.356-188.003  c2.498,0.147,4.998,0.244,7.491,0.244c3.596,0,7.312-0.161,11.06-0.477l77.303-6.593l9.976,92.113  c0.526,4.86,4.636,8.462,9.415,8.462c0.341,0,0.685-0.018,1.032-0.056c5.206-0.564,8.97-5.242,8.405-10.448l-9.93-91.683  l179.195-15.281l86.594,15.074c0.541,0.095,1.085,0.14,1.626,0.14c2.215,0,4.381-0.778,6.103-2.225  c2.142-1.802,3.379-4.458,3.379-7.257V34.187C512,31.388,510.764,28.731,508.622,26.93z M493.036,242.501l-68.839-11.984V57.445  l68.839-11.984V242.501z"/>
<path d="M190.7,301.106c-4.486-3.91-10.223-6.063-16.156-6.063c-7.055,0-13.772,3.042-18.427,8.345  c-4.66,5.307-6.808,12.367-5.891,19.377l4.273,32.494c1.603,12.16,12.052,21.328,24.307,21.328c7.068,0,13.793-3.047,18.452-8.361  c4.652-5.306,6.79-12.361,5.869-19.349l-4.269-32.475C198.096,310.504,195.214,305.083,190.7,301.106z M182.995,355.725  c-0.621,0.709-1.992,1.898-4.191,1.898c-2.774,0-5.14-2.081-5.505-4.84l-4.272-32.483c-0.284-2.178,0.718-3.693,1.341-4.402  c0.619-0.707,1.987-1.893,4.176-1.893c1.731,0,2.965,0.759,3.658,1.362c1.019,0.898,1.674,2.123,1.848,3.478l4.274,32.508  C184.608,353.515,183.614,355.02,182.995,355.725z"/>
<g>
</g>
<g>
</g>
<g>
</g>
<g>
</g>
<g>
</g>
<g>
</g>
<g>
</g>
<g>
</g>
<g>
</g>
<g>
</g>
<g>
</g>
<g>
</g>
<g>
</g>
<g>
</g>
<g>
</g>
</svg>
