<?xml version="1.0" encoding="iso-8859-1"?>
<!-- Generator: Adobe Illustrator 19.0.0, SVG Export Plug-In . SVG Version: 6.00 Build 0)  -->
<svg xmlns="http://www.w3.org/2000/svg" xmlns:xlink="http://www.w3.org/1999/xlink" version="1.1" id="Layer_1" x="0px" y="0px" viewBox="0 0 512.001 512.001" style="enable-background:new 0 0 512.001 512.001;" xml:space="preserve">
<path style="fill:#FFCA6C;" d="M238.596,92.047c0,147.03-104.052,122.148-101.79,221.677c1.004,44.161,30.43,73.486,68.752,87.053  c10.934,3.87,20.873-7.836,15.493-18.112c-15.794-30.166-26.249-79.228,35.641-120.967c2.795,56.598,49.764,65.599,49.764,106.314  c0,5.14-0.325,9.773-0.892,13.948c-1.364,10.036,9.064,17.57,18.214,13.227c32.211-15.29,57.016-42.99,61.848-83.725  C401.461,178.005,238.596,92.047,238.596,92.047z"/>
<path style="fill:#FC583D;" d="M256.001,8.608C119.37,8.608,8.609,119.369,8.609,256.001S119.37,503.393,256.001,503.393  s247.392-110.761,247.392-247.392S392.632,8.608,256.001,8.608z M256.001,53.401c47.878,0,91.867,16.618,126.541,44.386  L97.788,382.541c-27.769-34.674-44.386-78.663-44.386-126.541C53.402,144.108,144.108,53.401,256.001,53.401z M256.001,458.6  c-47.878,0-91.867-16.618-126.541-44.386L414.214,129.46c27.769,34.673,44.386,78.663,44.386,126.541  C458.601,367.893,367.894,458.6,256.001,458.6z"/>
<path d="M470.043,115.514c-26.749-40.676-64.265-72.768-108.491-92.808c-4.334-1.964-9.434-0.042-11.394,4.288  c-1.963,4.329-0.042,9.431,4.287,11.394c41.256,18.694,76.256,48.634,101.214,86.586c25.597,38.923,39.126,84.23,39.126,131.026  c0,131.666-107.117,238.784-238.783,238.784S17.217,387.666,17.217,256.001S124.335,17.217,256.001,17.217  c24.579,0,48.808,3.718,72.016,11.049c4.536,1.437,9.372-1.082,10.802-5.615c1.432-4.534-1.081-9.369-5.615-10.802  C308.316,3.986,282.341,0,256.001,0c-68.38,0-132.668,26.629-181.02,74.981S0.001,187.62,0.001,256.001  s26.629,132.667,74.981,181.02c48.352,48.352,112.64,74.981,181.02,74.981s132.667-26.629,181.019-74.981  s74.981-112.64,74.981-181.02C512.001,205.833,497.492,157.254,470.043,115.514z"/>
<path d="M387.924,91.067c-37.263-29.842-84.113-46.274-131.923-46.274c-116.461,0-211.209,94.747-211.209,211.208  c0,48.501,16.001,94.119,46.274,131.922c1.53,1.911,3.803,3.08,6.245,3.215c0.16,0.008,0.317,0.013,0.474,0.013  c2.276,0,4.468-0.903,6.088-2.522L388.63,103.874c1.731-1.731,2.643-4.116,2.508-6.561  C391.002,94.869,389.834,92.597,387.924,91.067z M323.322,144.833c-38.887-38.101-78.938-59.463-80.712-60.398  c-2.665-1.407-5.878-1.317-8.463,0.241c-2.584,1.558-4.163,4.355-4.163,7.372c0,45.395-9.759,77.476-31.64,104.019  c-3.024,3.668-2.502,9.094,1.167,12.118c1.603,1.322,3.543,1.966,5.472,1.966c2.482,0,4.945-1.069,6.647-3.132  c22.081-26.786,33.183-58.1,35.225-100.152c14.535,9.021,39.854,26.243,64.295,50.138L146.026,322.128  c-0.339-2.816-0.547-5.685-0.613-8.603c-0.939-41.332,17.235-58.339,40.244-79.869c2.47-2.312,4.965-4.646,7.462-7.038  c3.434-3.288,3.551-8.738,0.263-12.171c-3.287-3.433-8.737-3.551-12.171-0.262c-2.448,2.345-4.895,4.634-7.316,6.899  c-23.012,21.534-46.807,43.8-45.694,92.829c0.178,7.938,1.229,15.626,3.102,22.936l-32.641,32.641  c-24.012-33.141-36.654-72.177-36.654-113.492c0-106.966,87.023-193.991,193.992-193.991c41.315,0,80.351,12.641,113.492,36.653  L323.322,144.833z"/>
<path d="M256.001,449.992c-7.103,0-14.259-0.388-21.271-1.152c-4.727-0.517-8.976,2.898-9.492,7.625  c-0.515,4.727,2.898,8.976,7.625,9.491c7.631,0.832,15.416,1.255,23.138,1.255c116.461,0,211.208-94.747,211.208-211.208  c0-48.503-16.001-94.121-46.276-131.922c-1.53-1.911-3.802-3.08-6.244-3.214c-2.463-0.129-4.83,0.779-6.562,2.509L123.372,408.127  c-1.731,1.731-2.643,4.116-2.508,6.561c0.134,2.445,1.304,4.715,3.214,6.245c21.965,17.591,46.75,30.42,73.667,38.132  c4.566,1.306,9.336-1.334,10.646-5.904c1.31-4.57-1.334-9.337-5.905-10.647c-21.628-6.197-41.761-15.997-59.975-29.177  l23.942-23.942c10.397,8.093,22.53,14.655,36.232,19.503c2.343,0.829,4.748,1.232,7.127,1.232c6.036,0,11.888-2.593,16.036-7.373  c5.847-6.739,6.959-16.189,2.834-24.076c-7.261-13.879-10.989-27.448-11.122-40.39l39.593-39.593  c5.997,12.406,14.028,21.919,21.326,30.554c10.825,12.807,19.375,22.924,19.375,38.762c0,4.47-0.275,8.774-0.817,12.786  c-1.054,7.752,2.228,15.448,8.567,20.084c3.757,2.749,8.21,4.154,12.692,4.154c3.122,0,6.257-0.682,9.178-2.068  c38.243-18.154,61.932-50.291,66.701-90.494c4.83-40.721-5.612-80.985-31.019-119.782l50.184-50.184  c24.013,33.139,36.654,72.174,36.654,113.49C449.992,362.967,362.968,449.992,256.001,449.992z M213.425,386.659  c1.22,2.332,0,4.144-0.582,4.814c-0.683,0.787-2.164,1.989-4.413,1.195c-11.198-3.962-21.139-9.186-29.7-15.548l23.121-23.121  C203.816,364.749,207.68,375.675,213.425,386.659z M377.075,310.447c-5.186,43.719-33.851,65.987-56.983,76.968  c-2.05,0.972-3.707,0.024-4.326-0.428c-0.746-0.546-1.956-1.774-1.67-3.876c0.646-4.782,0.973-9.861,0.973-15.098  c0-22.141-11.918-36.24-23.443-49.876c-8.035-9.507-16.306-19.315-21.387-32.528l80.457-80.457  C372.412,239.534,381.291,274.912,377.075,310.447z"/>
<g>
</g>
<g>
</g>
<g>
</g>
<g>
</g>
<g>
</g>
<g>
</g>
<g>
</g>
<g>
</g>
<g>
</g>
<g>
</g>
<g>
</g>
<g>
</g>
<g>
</g>
<g>
</g>
<g>
</g>
</svg>
