<?xml version="1.0" encoding="iso-8859-1"?>
<!-- Generator: Adobe Illustrator 19.0.0, SVG Export Plug-In . SVG Version: 6.00 Build 0)  -->
<svg xmlns="http://www.w3.org/2000/svg" xmlns:xlink="http://www.w3.org/1999/xlink" version="1.1" id="Layer_1" x="0px" y="0px" viewBox="0 0 512.001 512.001" style="enable-background:new 0 0 512.001 512.001;" xml:space="preserve">
<circle style="fill:#4D4D4D;" cx="306.784" cy="344.816" r="158.476"/>
<path style="fill:#333333;" d="M215.645,344.816c0-75.969,53.459-139.442,124.807-154.879c-10.852-2.348-22.114-3.597-33.669-3.597  c-87.524,0-158.476,70.952-158.476,158.476s70.952,158.476,158.476,158.476c11.555,0,22.817-1.248,33.669-3.597  C269.103,484.258,215.645,420.785,215.645,344.816z"/>
<path style="fill:#F2F2F2;" d="M128.293,8.707c14.678,0,40.774,10.601,40.774,41.589S156.02,119.204,156.02,163.24  s53.822,96.226,53.822,177.773s-41.59,162.28-41.59,162.28h-39.958H88.335c0,0-41.589-80.732-41.589-162.28  s53.822-133.738,53.822-177.773S87.518,81.285,87.518,50.297S113.614,8.707,128.293,8.707z"/>
<path style="fill:#E6E6E6;" d="M128.296,8.712c-4.697,0-13.052,10.593-13.052,41.589c0,30.984,4.183,68.904,4.183,112.94  s-17.222,96.229-17.222,177.768c0,81.551,13.309,162.283,13.309,162.283H88.335c0,0-41.589-80.732-41.589-162.283  c0-81.539,53.822-133.734,53.822-177.77S87.528,81.285,87.528,50.3C87.526,19.305,113.618,8.712,128.296,8.712z"/>
<g>
	<path style="fill:#FC583D;" d="M162.832,100.244c-1.725,9.945-3.474,20.342-4.771,31.191H98.552   c-1.297-10.85-3.045-21.247-4.783-31.191H162.832z"/>
	<path style="fill:#FC583D;" d="M171.713,214.492H84.9c5.186-11.021,9.689-21.358,12.513-31.191h61.785   C162.024,193.135,166.525,203.472,171.713,214.492z"/>
</g>
<g>
	<path style="fill:#DB4531;" d="M97.415,183.301h21.002c-0.906,9.835-2.349,20.171-4.012,31.191H84.9   C90.088,203.472,94.589,193.135,97.415,183.301z"/>
	<path style="fill:#DB4531;" d="M98.552,131.437c-1.297-10.85-3.045-21.247-4.783-31.191h23.486   c0.55,9.945,1.113,20.342,1.529,31.191H98.552z"/>
</g>
<path d="M184.658,221.43c-10.695-22.278-19.932-41.52-19.932-58.19c0-23.194,3.686-44.34,7.249-64.789  c2.981-17.106,5.798-33.265,5.798-48.155c0-20.703-9.915-32.788-18.232-39.279C150.702,4.118,139.02,0,128.293,0  c-10.728,0-22.411,4.118-31.249,11.018c-8.317,6.491-18.232,18.576-18.232,39.279c0,14.89,2.817,31.047,5.798,48.155  c3.563,20.45,7.249,41.595,7.249,64.789c0,16.672-9.238,35.915-19.934,58.196c-2.644,5.507-5.378,11.201-8.097,17.114  c-2.009,4.369-0.095,9.54,4.274,11.548c4.373,2.011,9.542,0.096,11.55-4.274c2.659-5.782,5.359-11.41,7.973-16.853  c0.935-1.948,1.854-3.867,2.764-5.774h75.809c0.909,1.904,1.827,3.822,2.761,5.767c15.081,31.415,32.175,67.023,32.175,112.046  c0,67.42-29.744,135.367-38.331,153.572H93.778c-8.591-18.193-38.328-86.048-38.328-153.572c0-22.794,4.249-44.852,13.374-69.418  c1.673-4.508-0.623-9.52-5.132-11.194c-4.513-1.678-9.52,0.623-11.195,5.13c-9.731,26.204-14.461,50.895-14.461,75.482  c0,82.707,40.818,162.894,42.556,166.267c1.493,2.899,4.479,4.719,7.74,4.719h79.916c3.261,0,6.247-1.822,7.74-4.719  c1.738-3.373,42.556-83.559,42.556-166.267C218.547,292.026,199.757,252.883,184.658,221.43z M150.404,122.729H106.18  c-0.654-4.699-1.37-9.291-2.11-13.778h48.444C151.775,113.438,151.057,118.031,150.404,122.729z M108.193,140.144h40.197  c-0.669,7.495-1.08,15.202-1.08,23.096c0,3.77,0.341,7.548,0.96,11.353h-39.958c0.618-3.806,0.96-7.584,0.96-11.353  C109.273,155.345,108.863,147.639,108.193,140.144z M107.758,24.746c6.932-5.41,15.395-7.331,20.535-7.331  c8.319,0,32.066,6.041,32.066,32.882c0,12.304-2.278,26.356-4.859,41.24h-54.416c-2.58-14.885-4.858-28.936-4.858-41.24  C96.226,39.315,100.106,30.718,107.758,24.746z M98.381,205.786c2.018-4.683,3.838-9.267,5.392-13.778h49.041  c1.553,4.51,3.374,9.094,5.392,13.778H98.381z"/>
<path d="M306.783,177.633c-37.506,0-72.942,12.132-102.481,35.084c-3.798,2.951-4.484,8.421-1.533,12.218  c2.949,3.798,8.421,4.484,12.217,1.534c26.456-20.557,58.197-31.421,91.797-31.421c82.583,0,149.769,67.186,149.769,149.769  c0,49.833-24.687,96.263-66.036,124.197c-3.986,2.692-5.033,8.105-2.342,12.089c1.682,2.492,4.427,3.835,7.224,3.835  c1.676,0,3.372-0.484,4.866-1.493c46.151-31.177,73.702-83.001,73.702-138.628C473.967,252.631,398.97,177.633,306.783,177.633z"/>
<path d="M368.683,481.239c-19.487,8.855-40.313,13.346-61.9,13.346c-33.042,0-64.368-10.545-90.593-30.496  c-3.828-2.913-9.29-2.17-12.202,1.658c-2.912,3.828-2.17,9.29,1.658,12.202c29.282,22.277,64.254,34.052,101.137,34.052  c24.088,0,47.337-5.016,69.104-14.906c4.378-1.99,6.315-7.152,4.326-11.53C378.222,481.186,373.062,479.249,368.683,481.239z"/>
<path d="M391.843,275.922c1.959,3.055,5.868,4.486,9.355,3.613c3.532-0.884,6.183-3.967,6.554-7.589  c0.776-7.6-8.348-12.346-14.192-7.58C390.156,267.141,389.377,272.275,391.843,275.922z"/>
<path d="M343.683,293.337c4.329,6.493,14.689,4.16,15.855-3.549c0.542-3.59-1.305-7.247-4.507-8.952  c-3.172-1.69-7.166-1.218-9.865,1.155C341.956,284.813,341.285,289.777,343.683,293.337z"/>
<path d="M388.638,318.611c7.257,2.911,14.611-4.771,11.15-11.865c-1.485-3.044-4.717-4.971-8.099-4.875  c-3.933,0.113-7.346,2.969-8.207,6.792C382.559,312.765,384.78,316.983,388.638,318.611z"/>
<g>
</g>
<g>
</g>
<g>
</g>
<g>
</g>
<g>
</g>
<g>
</g>
<g>
</g>
<g>
</g>
<g>
</g>
<g>
</g>
<g>
</g>
<g>
</g>
<g>
</g>
<g>
</g>
<g>
</g>
</svg>
