<?xml version="1.0" encoding="iso-8859-1"?>
<!-- Generator: Adobe Illustrator 19.0.0, SVG Export Plug-In . SVG Version: 6.00 Build 0)  -->
<svg xmlns="http://www.w3.org/2000/svg" xmlns:xlink="http://www.w3.org/1999/xlink" version="1.1" id="Layer_1" x="0px" y="0px" viewBox="0 0 512.003 512.003" style="enable-background:new 0 0 512.003 512.003;" xml:space="preserve">
<path style="fill:#DD852C;" d="M357.666,430.513c0,7.128-1.056,14.242-3.138,21.096c-0.26,0.868-0.549,1.735-0.839,2.589  c-10.05,29.107-37.509,48.816-68.51,48.816H92.101c-15.949,0-30.972-5.22-43.162-14.257c-12.189-9.037-21.544-21.892-26.186-37.147  c-3.08-10.136-3.904-20.822-2.415-31.305l38.129-267.704c4.121-28.847,28.817-50.291,57.968-50.291h79.672l156.019,284.159v0.014  l4.815,33.821C357.42,423.688,357.666,427.101,357.666,430.513z"/>
<g>
	<path style="fill:#C16D21;" d="M356.943,420.305l-1.176-8.258c-0.363,1.563-0.772,3.116-1.239,4.655   c-0.26,0.868-0.549,1.735-0.839,2.589c-10.049,29.108-37.509,48.816-68.51,48.816H139.968c-24.582,0-45.061-19.476-45.575-44.052   c-0.03-1.435,0.022-2.7,0.171-3.749l38.131-267.704c4.121-28.846,28.819-50.291,57.968-50.291h-74.226   c-29.151,0-53.847,21.444-57.968,50.291L20.338,420.305c-1.49,10.483-0.665,21.169,2.415,31.305   c4.642,15.255,13.996,28.109,26.186,37.147s27.213,14.257,43.162,14.257l0,0l0,0h74.226H285.18c31.001,0,58.46-19.708,68.51-48.816   c0.289-0.853,0.579-1.721,0.839-2.589c2.082-6.854,3.138-13.968,3.138-21.096C357.666,427.101,357.42,423.688,356.943,420.305z"/>
	<path style="fill:#C16D21;" d="M357.666,430.513c0,7.128-1.056,14.242-3.138,21.096c-0.26,0.868-20.184,32.162-20.184,32.162   c23.323-53.26-52.887-162.951-52.887-162.951c-1.306-2.411-4.319-3.308-6.73-2.003l0,0c-2.412,1.306-5.425,0.409-6.732-2.003   l-19.119-35.317c-2.924-5.401-8.248-9.025-14.319-9.954c-32.168-4.92-61.738-24.296-78.429-55.122   c-20.301-37.48-16.065-81.683,7.259-114.115h32.722l156.019,284.159v0.014l4.815,33.821   C357.42,423.688,357.666,427.101,357.666,430.513z"/>
</g>
<path style="fill:#FFCA6C;" d="M492.373,447.5l-33.52,55.511l-49.363-10.63l-96.33-177.847l-8.725,4.722l-12.428-22.95  l-13.89-25.658c-9.096-0.575-18.072-2.301-26.689-5.117c-7.502-2.445-14.729-5.705-21.548-9.743  c-10.462-6.196-19.978-14.225-27.983-23.933c-4.374-5.297-8.305-11.085-11.697-17.353c-28.307-52.264-8.88-117.578,43.371-145.873  c22.003-11.912,46.307-15.376,69.197-11.493c12.164,2.061,23.933,6.208,34.731,12.26c6.843,3.823,13.303,8.425,19.235,13.746  c8.94,8.018,16.67,17.689,22.722,28.858c3.332,6.148,6.004,12.476,8.041,18.911c9.132,28.942,5.381,59.874-9.048,85.4l26.318,48.608  l-8.725,4.722l27.168,50.154l2.577,39.896l31.998,23.957l2.589,39.884L492.373,447.5z"/>
<g>
	<path style="fill:#FFEEA9;" d="M337.5,69.395L229.88,255.787c-10.462-6.196-19.978-14.225-27.983-23.933L302.769,57.135   C314.933,59.196,326.702,63.343,337.5,69.395z"/>
	<path style="fill:#FFEEA9;" d="M387.498,130.91l-95.491,165.396l-13.89-25.658c-9.096-0.575-18.072-2.301-26.689-5.117   L356.734,83.141c8.94,8.018,16.67,17.689,22.722,28.858C382.788,118.147,385.461,124.475,387.498,130.91z"/>
</g>
<circle style="fill:#845521;" cx="267.047" cy="130.415" r="28.81"/>
<path d="M240.606,494.025H92.101c-13.715,0-26.789-4.319-37.809-12.489c-11.014-8.166-18.947-19.419-22.939-32.54  c-2.68-8.82-3.412-18.304-2.116-27.424l4.573-32.11c0.7-4.915-2.717-9.465-7.63-10.166c-4.908-0.697-9.465,2.717-10.166,7.63  l-4.573,32.112c-1.662,11.704-0.724,23.869,2.714,35.186c5.122,16.837,15.3,31.273,29.432,41.751  c14.14,10.484,30.917,16.025,48.515,16.025h148.505c4.964,0,8.988-4.024,8.988-8.988C249.595,498.05,245.57,494.025,240.606,494.025  z"/>
<path d="M497.761,440.298l-28.688-21.476l-2.313-35.76c-0.17-2.623-1.479-5.041-3.582-6.615l-28.688-21.476l-2.313-35.76  c-0.084-1.297-0.447-2.559-1.067-3.701l-22.882-42.25l0.821-0.445c4.365-2.365,5.986-7.819,3.622-12.184l-24.017-44.346  c7.914-15.538,12.309-32.796,12.751-50.224c0.125-4.963-3.795-9.088-8.758-9.214c-5.017-0.144-9.089,3.795-9.214,8.757  c-0.41,16.174-4.842,32.175-12.814,46.276c-1.523,2.694-1.554,5.983-0.079,8.704l22.044,40.702L350.5,284.083l-16.694-30.824  c-2.364-4.365-7.817-5.987-12.184-3.623c-4.365,2.365-5.986,7.819-3.622,12.184l16.694,30.824l-25.799,13.973  c-0.004,0.002-0.007,0.004-0.012,0.006c-0.005,0.002-0.007,0.005-0.011,0.006l-0.809,0.437l-22.046-40.702  c-1.473-2.722-4.245-4.494-7.333-4.689c-34.183-2.17-64.307-21.405-80.581-51.455c-12.546-23.166-15.321-49.83-7.813-75.082  c7.07-23.776,22.462-43.613,43.573-56.324c3.656,8.26,6.648,16.121,8.86,22.653c-5.634,4.713-9.77,10.973-11.911,18.175  c-2.877,9.679-1.814,19.899,2.995,28.778c6.836,12.622,19.866,19.794,33.304,19.793c6.075,0,12.234-1.466,17.941-4.556  c18.328-9.927,25.162-32.915,15.237-51.244c-8.201-15.141-25.314-22.427-41.353-18.911c-2.018-5.695-5.035-13.636-8.981-22.502  c20.099-7.645,42.027-8.521,62.986-2.288c25.251,7.509,46.068,24.401,58.614,47.567c3.006,5.548,5.483,11.382,7.366,17.339  c1.497,4.733,6.542,7.358,11.278,5.863c4.733-1.496,7.358-6.546,5.863-11.278c-2.225-7.044-5.153-13.937-8.701-20.485  c-14.833-27.388-39.443-47.36-69.297-56.236c-25.308-7.526-51.815-6.311-75.985,3.268c-1.17-2.215-2.385-4.435-3.652-6.649  c-14.832-25.918-39.204-55.046-71.114-46.619c-16.369,4.324-23.039,14.279-25.751,21.869c-7.802,21.832,6.718,52.145,17.291,69.969  h-42.416c-33.395,0-62.142,24.938-66.867,58.011L19.805,360.307c-0.7,4.915,2.717,9.466,7.632,10.166  c0.43,0.061,0.857,0.091,1.279,0.091c4.402,0,8.249-3.237,8.888-7.721l29.764-208.969c3.467-24.271,24.563-42.573,49.071-42.573  h64.007c-2.953,5.965-5.447,12.208-7.384,18.718c-8.877,29.854-5.597,61.379,9.236,88.767c18.44,34.046,51.911,56.351,90.224,60.408  l24.017,44.341c1.626,3.004,4.719,4.71,7.912,4.71c1.445,0,2.912-0.35,4.272-1.086l0.82-0.445l33.912,62.613l4.589,32.235  c0.422,2.985,0.635,5.998,0.635,8.952c0,6.258-0.924,12.478-2.749,18.481c-8.191,26.935-32.605,45.031-60.749,45.031H270.57  c-4.965,0-8.988,4.024-8.988,8.988c0,4.964,4.023,8.988,8.988,8.988h14.611c36.114,0,67.438-23.218,77.948-57.78  c2.185-7.192,3.35-14.624,3.497-22.115l34.964,64.557c1.25,2.308,3.447,3.955,6.013,4.506l49.355,10.623  c0.632,0.137,1.266,0.201,1.892,0.201c3.102,0,6.042-1.611,7.693-4.342l33.527-55.513  C502.455,448.188,501.458,443.067,497.761,440.298z M284.481,120.976c5.206,9.613,1.621,21.67-7.991,26.876  c-9.614,5.206-21.67,1.621-26.876-7.991l0,0c-2.521-4.656-3.08-10.016-1.571-15.093c1.509-5.077,4.905-9.26,9.561-11.783  c2.994-1.621,6.222-2.39,9.41-2.39C274.061,110.595,280.895,114.357,284.481,120.976z M180.087,93.323  C167.9,75.243,152.946,44.9,158.495,29.395c1.185-3.312,3.866-8.009,13.41-10.531c21.219-5.603,40.409,18.058,54.094,43.746  c-13.631,7.954-25.304,18.383-34.528,30.711h-11.384V93.323z M459.271,484.917l-49.757-91.869  c-2.364-4.365-7.819-5.987-12.184-3.623c-4.365,2.365-5.986,7.819-3.622,12.184l47.931,88.501l-26.213-5.642L325.35,318.152  l17.906-9.698l35.272,65.126c1.626,3.004,4.719,4.71,7.912,4.71c1.445,0,2.912-0.35,4.272-1.086  c4.365-2.365,5.986-7.819,3.622-12.184l-35.272-65.126l33.362-18.069l21.943,40.515l2.452,37.926  c0.17,2.623,1.479,5.041,3.582,6.615l28.688,21.476l2.313,35.76c0.17,2.623,1.479,5.041,3.582,6.615l25.489,19.081L459.271,484.917z  "/>
<g>
</g>
<g>
</g>
<g>
</g>
<g>
</g>
<g>
</g>
<g>
</g>
<g>
</g>
<g>
</g>
<g>
</g>
<g>
</g>
<g>
</g>
<g>
</g>
<g>
</g>
<g>
</g>
<g>
</g>
</svg>
