<?xml version="1.0" encoding="iso-8859-1"?>
<!-- Generator: Adobe Illustrator 19.0.0, SVG Export Plug-In . SVG Version: 6.00 Build 0)  -->
<svg xmlns="http://www.w3.org/2000/svg" xmlns:xlink="http://www.w3.org/1999/xlink" version="1.1" id="Layer_1" x="0px" y="0px" viewBox="0 0 512 512" style="enable-background:new 0 0 512 512;" xml:space="preserve">
<polygon style="fill:#47A7DD;" points="479.485,119.743 208.243,119.743 237.532,494.132 450.196,494.132 "/>
<polygon style="fill:#3D98C1;" points="208.243,119.743 237.532,494.132 297.458,494.132 272.957,119.743 "/>
<path style="fill:#FFCA6C;" d="M328.59,415.179H8.958v37.293c0,23.009,18.651,41.66,41.66,41.66H286.93  c23.009,0,41.66-18.651,41.66-41.66V415.179z"/>
<path style="fill:#E2AE5A;" d="M66.263,452.471v-37.292H8.958v37.293c0,23.009,18.651,41.66,41.66,41.66h57.305  C84.915,494.132,66.263,475.48,66.263,452.471z"/>
<path style="fill:#FFCA6C;" d="M8.958,356.601H328.59v-37.293c0-23.009-18.651-41.66-41.66-41.66H50.618  c-23.009,0-41.66,18.651-41.66,41.66V356.601z"/>
<path style="fill:#E2AE5A;" d="M66.263,319.309v37.293H8.958v-37.293c0-23.009,18.651-41.66,41.66-41.66h57.305  C84.915,277.649,66.263,296.3,66.263,319.309z"/>
<path style="fill:#DD852C;" d="M281.473,356.601H56.076c-16.175,0-29.289,13.113-29.289,29.289l0,0  c0,16.175,13.113,29.289,29.289,29.289h225.398c16.175,0,29.289-13.113,29.289-29.289l0,0  C310.761,369.715,297.649,356.601,281.473,356.601z"/>
<path style="fill:#C16D21;" d="M85.365,385.89L85.365,385.89c0-16.176,13.114-29.289,29.289-29.289H56.076  c-16.175,0-29.289,13.113-29.289,29.289l0,0c0,16.176,13.114,29.289,29.289,29.289h58.578  C98.478,415.179,85.365,402.066,85.365,385.89z"/>
<g>
	<polygon style="fill:#F2F2F2;" points="486.869,58.618 200.859,58.618 184.685,119.743 503.043,119.743  "/>
	<polygon style="fill:#F2F2F2;" points="456.585,17.868 231.143,17.868 226.071,58.618 461.656,58.618  "/>
</g>
<polyline style="fill:#E6E6E6;" points="273.189,17.868 231.143,17.868 226.071,58.618 200.859,58.618 184.685,119.743   271.915,119.743 293.564,58.618 273.189,57.344 "/>
<path d="M337.548,415.179c0-4.947-4.01-8.958-8.958-8.958h-14.743c3.716-5.895,5.874-12.863,5.874-20.331s-2.16-14.436-5.874-20.331  h14.743c4.949,0,8.958-4.011,8.958-8.958v-37.292c0-27.912-22.708-50.618-50.618-50.618H50.618C22.708,268.689,0,291.397,0,319.309  v37.292c0,4.947,4.01,8.958,8.958,8.958h14.744c-3.715,5.895-5.874,12.863-5.874,20.331s2.16,14.436,5.874,20.331H8.958  c-4.949,0-8.958,4.011-8.958,8.958v37.292c0,27.912,22.708,50.618,50.618,50.618h157.813c4.949,0,8.958-4.011,8.958-8.958  s-4.01-8.958-8.958-8.958H50.618c-18.033,0.001-32.702-14.669-32.702-32.702v-28.334h301.715v28.334  c0,18.033-14.669,32.702-32.702,32.702h-48.637c-4.949,0-8.958,4.011-8.958,8.958s4.01,8.958,8.958,8.958h48.637  c27.911,0,50.618-22.708,50.618-50.618V415.179z M56.075,406.221c-11.21,0-20.331-9.121-20.331-20.331s9.121-20.331,20.331-20.331  h30.523c4.949,0,8.958-4.011,8.958-8.958s-4.01-8.958-8.958-8.958H17.917v-28.334c0-18.033,14.669-32.702,32.702-32.702H286.93  c18.033,0,32.702,14.67,32.702,32.702v28.334H114.653c-4.949,0-8.958,4.011-8.958,8.958s4.01,8.958,8.958,8.958h166.819  c11.211,0,20.331,9.121,20.331,20.331s-9.121,20.331-20.331,20.331H56.075z"/>
<path d="M470.439,235.352c-4.939-0.387-9.244,3.3-9.631,8.232l-18.897,241.59H341.514c-4.949,0-8.958,4.011-8.958,8.958  c0,4.947,4.01,8.958,8.958,8.958h108.682c4.676,0,8.567-3.598,8.932-8.26l19.545-249.849  C479.057,240.049,475.372,235.738,470.439,235.352z"/>
<path d="M511.701,117.452l-16.174-61.125c-1.039-3.93-4.595-6.667-8.66-6.667h-17.299l-4.095-32.898  c-0.558-4.485-4.369-7.852-8.889-7.852H303.988c-4.949,0-8.958,4.011-8.958,8.958s4.01,8.958,8.958,8.958h144.685l2.842,22.833  h-215.3l2.842-22.833h35.07c4.949,0,8.958-4.011,8.958-8.958s-4.01-8.958-8.958-8.958h-42.984c-4.52,0-8.332,3.367-8.889,7.852  l-4.093,32.898h-17.302c-4.065,0-7.621,2.738-8.66,6.667l-16.174,61.125c-0.712,2.688-0.135,5.553,1.561,7.757  c1.696,2.203,4.319,3.494,7.099,3.494h15.273l9.127,116.669c0.368,4.695,4.292,8.261,8.923,8.261c0.233,0,0.471-0.01,0.708-0.027  c4.933-0.386,8.618-4.698,8.233-9.63l-9.018-115.272h251.868l-6.466,82.643c-0.385,4.932,3.3,9.244,8.233,9.63  c4.949,0.388,9.245-3.3,9.631-8.232l6.574-84.04h15.272c2.779,0,5.402-1.291,7.099-3.494  C511.838,123.005,512.413,120.139,511.701,117.452z M196.322,110.784l11.432-43.208h272.216l11.432,43.208H196.322z"/>
<g>
</g>
<g>
</g>
<g>
</g>
<g>
</g>
<g>
</g>
<g>
</g>
<g>
</g>
<g>
</g>
<g>
</g>
<g>
</g>
<g>
</g>
<g>
</g>
<g>
</g>
<g>
</g>
<g>
</g>
</svg>
