<?xml version="1.0" encoding="iso-8859-1"?>
<!-- Generator: Adobe Illustrator 19.0.0, SVG Export Plug-In . SVG Version: 6.00 Build 0)  -->
<svg xmlns="http://www.w3.org/2000/svg" xmlns:xlink="http://www.w3.org/1999/xlink" version="1.1" id="Layer_1" x="0px" y="0px" viewBox="0 0 512 512" style="enable-background:new 0 0 512 512;" xml:space="preserve">
<path style="fill:#DB4531;" d="M108.649,254.048V387.78h70.233v-36.414v-45.45v-51.868c0-15.08-12.227-27.307-27.307-27.307h-15.617  C120.877,226.741,108.649,238.968,108.649,254.048z"/>
<path style="fill:#FC583D;" d="M403.345,254.047v249.486H178.878V254.047c0-15.083-12.227-27.31-27.299-27.31h224.467  C391.118,226.736,403.345,238.963,403.345,254.047z"/>
<path style="fill:#DB4531;" d="M403.345,254.047v2.292H178.878v-2.292c0-15.083-12.227-27.31-27.299-27.31h224.467  C391.118,226.736,403.345,238.963,403.345,254.047z"/>
<path d="M450.806,181.178l-186.34-63.106V88.339c0-4.676-3.79-8.467-8.467-8.467c-17.352,0-31.469-14.116-31.469-31.469  S238.648,16.935,256,16.935s31.469,14.117,31.469,31.469c0,4.676,3.79,8.467,8.467,8.467s8.467-3.791,8.467-8.467  C304.402,21.714,282.689,0,256,0s-48.403,21.714-48.403,48.403c0,23.802,17.269,43.646,39.936,47.662v22.006L61.198,181.176  c-8.569,2.896-15.879,8.307-21.138,15.649c-5.261,7.345-8.043,16.002-8.043,25.037c0,23.683,19.267,42.949,42.949,42.949h25.215  v122.967c0,4.676,3.791,8.467,8.467,8.467h41.557c4.676,0,8.467-3.791,8.467-8.467s-3.791-8.467-8.467-8.467h-33.09V264.812h53.298  v238.721c0,4.676,3.791,8.467,8.467,8.467h30.942c4.676,0,8.467-3.791,8.467-8.467s-3.791-8.467-8.467-8.467h-22.475V254.048  c0-6.909-1.975-13.364-5.381-18.841h194.075c10.388,0,18.841,8.452,18.841,18.841v92.256c0,4.676,3.79,8.467,8.467,8.467  c4.677,0,8.467-3.791,8.467-8.467v-81.492h25.214c11.48,0,22.268-4.466,30.377-12.575c8.108-8.108,12.574-18.896,12.574-30.376  C479.983,203.429,468.256,187.079,450.806,181.178z M169.355,247.877h-51.18c2.563-7.362,9.556-12.67,17.781-12.67h15.617  C159.8,235.207,166.792,240.515,169.355,247.877z M455.434,240.263c-4.91,4.91-11.445,7.614-18.402,7.614h-25.758  c-2.934-16.794-17.61-29.605-35.231-29.605H135.957c-17.621,0-32.297,12.81-35.23,29.605H74.968  c-14.345,0-26.014-11.67-26.014-26.014c0-5.476,1.686-10.723,4.875-15.175c3.18-4.441,7.605-7.714,12.798-9.47l189.375-64.134  l189.378,64.135c10.569,3.576,17.67,13.478,17.67,24.644C463.048,228.818,460.344,235.353,455.434,240.263z"/>
<path d="M403.351,367.062c-4.677,0-8.467,3.791-8.467,8.467v119.536H241.387c-4.676,0-8.467,3.791-8.467,8.467  s3.791,8.467,8.467,8.467h161.964c4.677,0,8.467-3.791,8.467-8.467V375.529C411.819,370.852,408.027,367.062,403.351,367.062z"/>
<g>
</g>
<g>
</g>
<g>
</g>
<g>
</g>
<g>
</g>
<g>
</g>
<g>
</g>
<g>
</g>
<g>
</g>
<g>
</g>
<g>
</g>
<g>
</g>
<g>
</g>
<g>
</g>
<g>
</g>
</svg>
