<?xml version="1.0" encoding="iso-8859-1"?>
<!-- Generator: Adobe Illustrator 19.0.0, SVG Export Plug-In . SVG Version: 6.00 Build 0)  -->
<svg xmlns="http://www.w3.org/2000/svg" xmlns:xlink="http://www.w3.org/1999/xlink" version="1.1" id="Layer_1" x="0px" y="0px" viewBox="0 0 512 512" style="enable-background:new 0 0 512 512;" xml:space="preserve">
<circle style="fill:#49DB95;" cx="256.007" cy="255.994" r="246.406"/>
<circle style="fill:#F2F2F2;" cx="256.007" cy="255.994" r="193.564"/>
<path style="fill:#CCCCCC;" d="M256.001,62.432c-5.17,0-10.292,0.207-15.36,0.605c99.722,7.829,178.208,91.228,178.208,192.962  s-78.484,185.132-178.208,192.962c5.068,0.398,10.19,0.605,15.36,0.605c106.905,0,193.568-86.663,193.568-193.568  S362.904,62.432,256.001,62.432z"/>
<g>
	<path style="fill:#47A7DD;" d="M238.796,239.266l3.024-3.024l64.864-64.864c9.373-9.373,24.57-9.373,33.943,0l0,0   c9.373,9.373,9.373,24.57,0,33.943l-50.68,50.68"/>
	<path style="fill:#47A7DD;" d="M370.582,370.582L370.582,370.582c9.373-9.373,9.373-24.569,0-33.942l-97.843-97.843   c-9.373-9.373-24.569-9.373-33.942,0l0,0c-9.373,9.373-9.373,24.569,0,33.942l97.843,97.843   C346.013,379.955,361.209,379.955,370.582,370.582z"/>
</g>
<path d="M470.525,116.251c-26.432-40.497-63.554-72.588-107.354-92.806c-4.82-2.221-10.52-0.12-12.741,4.694  c-2.222,4.814-0.122,10.519,4.693,12.741c40.52,18.704,74.865,48.395,99.324,85.867c25.091,38.44,38.353,83.136,38.353,129.253  c0,130.571-106.226,236.799-236.799,236.799c-130.571,0-236.799-106.228-236.799-236.799c0-130.57,106.228-236.798,236.798-236.798  c21.344,0,42.498,2.838,62.872,8.433c5.118,1.406,10.396-1.601,11.801-6.715c1.404-5.113-1.603-10.396-6.715-11.8  C301.927,3.068,279.062,0,255.999,0C114.84,0,0,114.84,0,255.999S114.84,512,255.999,512S512,397.158,512,255.999  C512,206.146,497.658,157.821,470.525,116.251z"/>
<path d="M142.4,424.464c33.605,22.704,72.888,34.703,113.6,34.703c112.028,0,203.168-91.142,203.168-203.168  S368.029,52.831,255.999,52.831c-112.028,0-203.168,91.141-203.168,203.168c0,55.82,22.176,107.862,62.445,146.542  c3.824,3.673,9.902,3.55,13.574-0.274c3.674-3.824,3.551-9.902-0.273-13.574c-36.462-35.023-56.545-82.149-56.545-132.694  c0-101.44,82.527-183.967,183.967-183.967s183.967,82.527,183.967,183.967s-82.528,183.967-183.967,183.967  c-36.867,0-72.432-10.863-102.851-31.414c-4.395-2.967-10.361-1.814-13.331,2.581C136.85,415.528,138.006,421.497,142.4,424.464z"/>
<path d="M347.418,164.589c-13.103-13.103-34.419-13.101-47.522,0l-64.324,64.325c-1.247,0.942-2.44,1.971-3.564,3.095  c-4.544,4.544-7.509,10.079-8.901,15.915l-103.749,20.47c-5.202,1.027-8.587,6.075-7.56,11.278c0.902,4.575,4.916,7.745,9.409,7.745  c0.616,0,1.242-0.059,1.869-0.183l101.136-19.954c1.623,4.473,4.218,8.67,7.8,12.251l43.493,43.494  c3.749,3.749,9.827,3.749,13.578,0c3.749-3.749,3.749-9.829,0-13.577l-43.494-43.495c-2.72-2.72-4.218-6.335-4.218-10.182  c0-3.847,1.498-7.463,4.218-10.183s6.336-4.217,10.182-4.217s7.463,1.498,10.182,4.217l97.844,97.843  c5.614,5.615,5.614,14.749,0.001,20.364c-5.616,5.616-14.752,5.613-20.365,0l-33.229-33.229c-3.749-3.749-9.827-3.751-13.578,0  c-3.749,3.749-3.749,9.829,0,13.577l33.23,33.23c6.55,6.55,15.155,9.825,23.76,9.825c8.605,0,17.21-3.276,23.761-9.826  c13.099-13.101,13.099-34.418,0-47.52l-73.849-73.848l43.893-43.893C360.518,199.008,360.518,177.691,347.418,164.589z   M333.84,198.533l-43.893,43.893l-10.417-10.417c-3.493-3.493-7.622-6.116-12.124-7.774l46.068-46.068  c5.612-5.612,14.751-5.615,20.365,0C339.454,183.781,339.454,192.917,333.84,198.533z"/>
<g>
</g>
<g>
</g>
<g>
</g>
<g>
</g>
<g>
</g>
<g>
</g>
<g>
</g>
<g>
</g>
<g>
</g>
<g>
</g>
<g>
</g>
<g>
</g>
<g>
</g>
<g>
</g>
<g>
</g>
</svg>
