<?xml version="1.0" encoding="iso-8859-1"?>
<!-- Generator: Adobe Illustrator 19.0.0, SVG Export Plug-In . SVG Version: 6.00 Build 0)  -->
<svg xmlns="http://www.w3.org/2000/svg" xmlns:xlink="http://www.w3.org/1999/xlink" version="1.1" id="Layer_1" x="0px" y="0px" viewBox="0 0 512 512" style="enable-background:new 0 0 512 512;" xml:space="preserve">
<path style="fill:#FFCA6C;" d="M443.253,361.007H68.747c-33.39,0-60.457,27.068-60.457,60.457v35.193H503.71v-35.193  C503.71,388.074,476.642,361.007,443.253,361.007z"/>
<path style="fill:#E5B05C;" d="M183.695,361.007H68.747c-33.39,0-60.457,27.068-60.457,60.457v35.193h114.948v-35.193  C123.238,388.074,150.306,361.007,183.695,361.007z"/>
<path style="fill:#FFCA6C;" d="M458.571,361.007c0-111.877-90.694-202.571-202.571-202.571S53.429,249.13,53.429,361.007"/>
<path style="fill:#E5B05C;" d="M289.546,161.217c-10.913-1.819-22.117-2.781-33.546-2.781  c-111.877,0-202.571,90.694-202.571,202.571h67.092C120.521,260.56,193.636,177.203,289.546,161.217z"/>
<circle style="fill:#FFCA6C;" cx="256.003" cy="91.914" r="36.573"/>
<path style="fill:#E5B05C;" d="M248.161,91.917c0-15.099,9.151-28.057,22.207-33.641c-4.411-1.887-9.268-2.933-14.369-2.933  c-20.2,0-36.576,16.376-36.576,36.576S235.8,128.494,256,128.494c5.101,0,9.957-1.048,14.369-2.933  C257.312,119.975,248.161,107.015,248.161,91.917z"/>
<g>
	<path style="fill:#FFFFFF;" d="M416.586,311.918c-3.402,0-6.591-2.109-7.804-5.495c-18.773-52.38-64.137-92.222-118.39-103.977   c-4.474-0.969-7.316-5.383-6.346-9.857c0.969-4.475,5.384-7.315,9.857-6.346c29.624,6.419,57.377,20.48,80.256,40.663   c22.707,20.03,40.076,45.593,50.229,73.924c1.544,4.309-0.696,9.055-5.007,10.601C418.459,311.762,417.514,311.918,416.586,311.918   z"/>
	<path style="fill:#FFFFFF;" d="M466.456,403.436c-2.509,0-4.988-1.134-6.617-3.289c-1.635-2.162-5.574-3.656-6.824-3.957   c-4.452-1.069-7.195-5.543-6.127-9.995s5.547-7.193,9.995-6.127c1.07,0.256,10.615,2.721,16.178,10.076   c2.762,3.651,2.041,8.85-1.61,11.612C469.954,402.889,468.198,403.436,466.456,403.436z"/>
</g>
<path d="M466.808,356.875c-2.156-111.604-91.447-202.234-202.518-206.551v-14.323c20.79-3.902,36.576-22.178,36.576-44.084  c0-7.583-1.93-15.081-5.579-21.682c-2.215-4.007-7.258-5.458-11.266-3.243c-4.007,2.215-5.458,7.259-3.243,11.266  c2.296,4.153,3.509,8.875,3.509,13.66c0,15.597-12.689,28.286-28.286,28.286c-15.598,0-28.285-12.689-28.285-28.286  S240.404,63.632,256,63.632c3.861,0,7.599,0.762,11.111,2.264c4.21,1.8,9.082-0.153,10.881-4.363  c1.799-4.21-0.154-9.081-4.363-10.881c-5.584-2.387-11.515-3.599-17.629-3.599c-24.738,0-44.864,20.126-44.864,44.865  c0,21.905,15.784,40.183,36.575,44.084v14.321c-27.564,1.053-54.18,7.348-79.228,18.79c-4.165,1.902-5.998,6.82-4.096,10.984  c1.901,4.165,6.818,5.998,10.984,4.096c25.375-11.59,52.502-17.467,80.63-17.467c104.465,0,189.921,82.879,194.106,186.335  c-2.255-0.224-4.54-0.343-6.853-0.343H68.747c-2.311,0-4.595,0.118-6.848,0.343c2.538-62.794,35.024-120.239,88.026-154.849  c3.833-2.503,4.912-7.64,2.408-11.473c-2.503-3.834-7.64-4.911-11.473-2.408c-58.778,38.382-94.304,102.646-95.656,172.542  C18.857,366.505,0,391.823,0,421.464v35.193c0,4.578,3.712,8.29,8.29,8.29H503.71c4.578,0,8.29-3.711,8.29-8.29v-35.193  C512,391.828,493.148,366.512,466.808,356.875z M16.579,448.368v-26.903c0-28.766,23.402-52.168,52.168-52.168h374.505  c25.944,0,47.518,19.039,51.502,43.878h-65.227c-4.578,0-8.29,3.712-8.29,8.29s3.712,8.29,8.29,8.29h65.893v18.614H16.579z"/>
<path d="M400.791,413.175H149.894c-4.578,0-8.29,3.712-8.29,8.29s3.712,8.29,8.29,8.29h250.897c4.578,0,8.29-3.712,8.29-8.29  S405.369,413.175,400.791,413.175z"/>
<path d="M123.238,413.175H52.63c-4.578,0-8.29,3.712-8.29,8.29s3.712,8.29,8.29,8.29h70.608c4.578,0,8.29-3.712,8.29-8.29  S127.817,413.175,123.238,413.175z"/>
<g>
</g>
<g>
</g>
<g>
</g>
<g>
</g>
<g>
</g>
<g>
</g>
<g>
</g>
<g>
</g>
<g>
</g>
<g>
</g>
<g>
</g>
<g>
</g>
<g>
</g>
<g>
</g>
<g>
</g>
</svg>
