<?xml version="1.0" encoding="iso-8859-1"?>
<!-- Generator: Adobe Illustrator 19.0.0, SVG Export Plug-In . SVG Version: 6.00 Build 0)  -->
<svg xmlns="http://www.w3.org/2000/svg" xmlns:xlink="http://www.w3.org/1999/xlink" version="1.1" id="Layer_1" x="0px" y="0px" viewBox="0 0 512 512" style="enable-background:new 0 0 512 512;" xml:space="preserve">
<g>
	<path style="fill:#247396;" d="M503.495,375.731H8.505v22.789c0,18.796,15.237,34.033,34.033,34.033h426.923   c18.796,0,34.033-15.237,34.033-34.033L503.495,375.731L503.495,375.731z"/>
	<path style="fill:#247396;" d="M453.702,79.447H58.298c-15.742,0-28.502,12.761-28.502,28.502v267.782h452.41V107.951   C482.205,92.209,469.444,79.447,453.702,79.447z"/>
</g>
<path style="fill:#E6E6E6;" d="M446.717,116.28v223.964H65.278V116.28c0-0.748,0.601-1.35,1.35-1.35h378.751  C446.116,114.931,446.717,115.532,446.717,116.28z"/>
<g>
	<polygon style="fill:#FFFFFF;" points="332.212,114.931 135.329,340.244 65.278,340.244 65.278,337.681 259.927,114.931  "/>
	<path style="fill:#FFFFFF;" d="M446.717,116.28v38.127L284.321,340.244H174.442l196.894-225.314h74.042   C446.116,114.931,446.717,115.532,446.717,116.28z"/>
</g>
<path style="fill:#4799B5;" d="M288.976,407.666h-65.952c-14.122,0-25.572-11.448-25.572-25.572v-6.363h117.094v6.363  C314.547,396.218,303.098,407.666,288.976,407.666z"/>
<path d="M503.495,367.226H490.71V107.951c0-20.406-16.603-37.009-37.009-37.009H120.771c-4.697,0-8.505,3.808-8.505,8.505  c0,4.697,3.808,8.505,8.505,8.505h332.931c11.026,0,19.998,8.971,19.998,19.998v259.275H314.547H197.453H38.3V107.951  c0-11.026,8.971-19.998,19.998-19.998H92.42c4.697,0,8.505-3.808,8.505-8.505c0-4.697-3.808-8.505-8.505-8.505H58.298  c-20.406,0-37.009,16.603-37.009,37.009v259.275H8.505c-4.697,0-8.505,3.808-8.505,8.505v22.789  c0,23.456,19.083,42.538,42.538,42.538h285.754c4.697,0,8.505-3.808,8.505-8.505c0-4.697-3.808-8.505-8.505-8.505H42.538  c-14.076,0-25.528-11.452-25.528-25.528v-14.283h12.784h159.227c1.11,17.796,15.932,31.935,34.002,31.935h65.952  c18.07,0,32.892-14.141,34.002-31.935h159.227h12.784v14.283c0,14.076-11.452,25.528-25.528,25.528H356.644  c-4.697,0-8.505,3.808-8.505,8.505c0,4.697,3.808,8.505,8.505,8.505h112.818c23.456,0,42.538-19.083,42.538-42.538v-22.789  C512,371.034,508.192,367.226,503.495,367.226z M288.976,399.161h-65.952c-8.685,0-15.876-6.521-16.933-14.924h99.816  C304.85,392.64,297.661,399.161,288.976,399.161z"/>
<path d="M446.721,201.171c4.697,0,8.505-3.808,8.505-8.505v-76.389c0-5.431-4.418-9.849-9.849-9.849H66.624  c-5.431,0-9.849,4.418-9.849,9.849v223.971c0,4.697,3.808,8.505,8.505,8.505h381.44c4.697,0,8.505-3.808,8.505-8.505V221.017  c0-4.697-3.808-8.505-8.505-8.505c-4.697,0-8.505,3.808-8.505,8.505v110.724H73.785V123.437h364.429v69.227  C438.215,197.363,442.022,201.171,446.721,201.171z"/>
<path d="M217.198,270.967c-3.322,3.322-3.322,8.706,0,12.028c3.322,3.323,8.707,3.322,12.028,0  c14.764-14.762,38.785-14.762,53.547,0c1.66,1.66,3.838,2.492,6.014,2.492c2.176,0,4.354-0.83,6.014-2.492  c3.322-3.322,3.322-8.707,0-12.028C273.407,249.573,238.595,249.572,217.198,270.967z"/>
<path d="M317.673,256.601c2.176,0,4.354-0.83,6.014-2.492c3.322-3.322,3.322-8.707,0-12.028  c-18.079-18.08-42.119-28.037-67.688-28.037c-25.568,0-49.608,9.957-67.688,28.037c-3.322,3.322-3.322,8.707,0,12.028  c3.322,3.322,8.707,3.322,12.028,0c14.867-14.867,34.634-23.055,55.659-23.055s40.792,8.188,55.659,23.055  C313.32,255.771,315.497,256.601,317.673,256.601z"/>
<path d="M346.766,227.508c2.176,0,4.354-0.83,6.014-2.492c3.322-3.322,3.322-8.707,0-12.028c-53.364-53.364-140.195-53.365-193.56,0  c-3.322,3.322-3.322,8.707,0,12.028c3.322,3.322,8.707,3.322,12.028,0c46.733-46.732,122.773-46.731,169.504,0  C342.413,226.678,344.589,227.508,346.766,227.508z"/>
<g>
</g>
<g>
</g>
<g>
</g>
<g>
</g>
<g>
</g>
<g>
</g>
<g>
</g>
<g>
</g>
<g>
</g>
<g>
</g>
<g>
</g>
<g>
</g>
<g>
</g>
<g>
</g>
<g>
</g>
</svg>
