<?xml version="1.0" encoding="iso-8859-1"?>
<!-- Generator: Adobe Illustrator 19.0.0, SVG Export Plug-In . SVG Version: 6.00 Build 0)  -->
<svg xmlns="http://www.w3.org/2000/svg" xmlns:xlink="http://www.w3.org/1999/xlink" version="1.1" id="Layer_1" x="0px" y="0px" viewBox="0 0 512 512" style="enable-background:new 0 0 512 512;" xml:space="preserve">
<path style="fill:#CCCCCC;" d="M481.462,93.867H151.133c-12.15,0-22,9.85-22,22v199.484c0,12.15,9.85,22,22,22h330.329  c12.15,0,22-9.85,22-22V115.867C503.462,103.716,493.612,93.867,481.462,93.867z"/>
<rect x="129.138" y="142.791" style="fill:#4D4D4D;" width="374.329" height="56.889"/>
<path style="fill:#FFCA6C;" d="M360.862,174.649H30.533c-12.15,0-22,9.85-22,22v199.484c0,12.15,9.85,22,22,22h330.329  c12.15,0,22-9.85,22-22V196.649C382.862,184.499,373.012,174.649,360.862,174.649z"/>
<rect x="8.533" y="223.573" style="fill:#4D4D4D;" width="374.329" height="56.889"/>
<circle style="fill:#47A7DD;" cx="116.622" cy="352.142" r="34.133"/>
<circle style="fill:#FC583D;" cx="82.489" cy="352.142" r="34.133"/>
<path d="M481.462,85.333H379.449c-4.713,0-8.533,3.821-8.533,8.533s3.821,8.533,8.533,8.533h102.013  c7.429,0,13.471,6.044,13.471,13.471v18.386H137.671v-18.386c0-7.427,6.044-13.471,13.471-13.471h199.862  c4.713,0,8.533-3.821,8.533-8.533s-3.821-8.533-8.533-8.533H151.142c-16.838,0-30.538,13.7-30.538,30.538v50.244H30.533  C13.698,166.116,0,179.813,0,196.649v138.427c0,4.713,3.821,8.533,8.533,8.533s8.533-3.821,8.533-8.533v-46.08h357.262v107.138  c0,7.425-6.042,13.467-13.467,13.467H30.533c-7.425,0-13.467-6.042-13.467-13.467V363.52c0-4.713-3.821-8.533-8.533-8.533  S0,358.807,0,363.52v32.613c0,16.836,13.698,30.533,30.533,30.533h330.329c16.836,0,30.533-13.698,30.533-30.533V196.649  c0-16.836-13.698-30.533-30.533-30.533H137.671v-14.791h357.262v39.822h-84.764c-4.713,0-8.533,3.821-8.533,8.533  s3.821,8.533,8.533,8.533h84.764v107.133c0,7.427-6.044,13.471-13.471,13.471h-70.155c-4.713,0-8.533,3.821-8.533,8.533  c0,4.713,3.821,8.533,8.533,8.533h70.155c16.839,0,30.538-13.7,30.538-30.538V115.871C512,99.033,498.3,85.333,481.462,85.333z   M374.329,196.649v18.391H62.009c-4.713,0-8.533,3.821-8.533,8.533c0,4.713,3.821,8.533,8.533,8.533h312.32v39.822H17.067v-39.822  h16.498c4.713,0,8.533-3.821,8.533-8.533c0-4.713-3.821-8.533-8.533-8.533H17.067v-18.391c0-7.425,6.042-13.467,13.467-13.467  h330.329C368.287,183.182,374.329,189.224,374.329,196.649z"/>
<path d="M99.566,391.231c5.346,2.34,11.155,3.578,17.056,3.578c23.527,0,42.667-19.14,42.667-42.667s-19.14-42.667-42.667-42.667  c-5.902,0-11.71,1.239-17.055,3.578c-5.234-2.295-11.007-3.578-17.078-3.578c-23.527,0-42.667,19.14-42.667,42.667  s19.14,42.667,42.667,42.667C88.559,394.809,94.333,393.525,99.566,391.231z M142.222,352.142c0,14.116-11.484,25.6-25.6,25.6  c-0.008,0-0.015-0.001-0.023-0.001c5.369-7.136,8.556-16.002,8.556-25.599c0-9.597-3.187-18.464-8.556-25.599  c0.008,0,0.015-0.001,0.023-0.001C130.739,326.542,142.222,338.026,142.222,352.142z M56.889,352.142  c0-14.116,11.484-25.6,25.6-25.6s25.6,11.484,25.6,25.6s-11.484,25.6-25.6,25.6S56.889,366.259,56.889,352.142z"/>
<path d="M341.492,325.7c4.713,0,8.533-3.821,8.533-8.533s-3.821-8.533-8.533-8.533H215.205c-4.713,0-8.533,3.821-8.533,8.533  s3.821,8.533,8.533,8.533H341.492z"/>
<g>
</g>
<g>
</g>
<g>
</g>
<g>
</g>
<g>
</g>
<g>
</g>
<g>
</g>
<g>
</g>
<g>
</g>
<g>
</g>
<g>
</g>
<g>
</g>
<g>
</g>
<g>
</g>
<g>
</g>
</svg>
