<?xml version="1.0" encoding="iso-8859-1"?>
<!-- Generator: Adobe Illustrator 19.0.0, SVG Export Plug-In . SVG Version: 6.00 Build 0)  -->
<svg xmlns="http://www.w3.org/2000/svg" xmlns:xlink="http://www.w3.org/1999/xlink" version="1.1" id="Layer_1" x="0px" y="0px" viewBox="0 0 512.001 512.001" style="enable-background:new 0 0 512.001 512.001;" xml:space="preserve">
<rect x="34.893" y="9.015" style="fill:#247396;" width="459.693" height="459.693"/>
<g>
	<polygon style="fill:#3D8AA5;" points="381.649,9.015 39.53,468.707 34.89,468.707 34.89,329.98 273.763,9.015  "/>
	<polygon style="fill:#3D8AA5;" points="467.371,9.015 125.24,468.707 78.857,468.707 420.965,9.015  "/>
</g>
<g>
	<rect x="17.414" y="102.766" style="fill:#4091AD;" width="74.604" height="90.734"/>
	<rect x="17.414" y="284.222" style="fill:#4091AD;" width="74.604" height="90.734"/>
</g>
<circle style="fill:#E6E6E6;" cx="268.609" cy="238.777" r="89.761"/>
<g>
	<rect x="80.256" y="468.707" style="fill:#247396;" width="94.761" height="34.278"/>
	<rect x="354.464" y="468.707" style="fill:#247396;" width="94.761" height="34.278"/>
</g>
<path d="M494.587,0h-351.71c-4.978,0-9.015,4.036-9.015,9.015s4.036,9.015,9.015,9.015h342.695v441.665H43.909v-75.723h22.297  v44.412c0,4.978,4.036,9.015,9.015,9.015h51.943c4.978,0,9.015-4.036,9.015-9.015s-4.036-9.015-9.015-9.015H84.235v-35.397h7.78  c4.978,0,9.015-4.036,9.015-9.015v-90.729c0-4.978-4.036-9.015-9.015-9.015h-7.78v-72.7h7.78c4.978,0,9.015-4.036,9.015-9.015  v-90.731c0-4.978-4.036-9.015-9.015-9.015h-7.78V58.355h361.011v48.699c0,4.978,4.036,9.015,9.015,9.015s9.015-4.036,9.015-9.015  V49.341c0-4.978-4.036-9.015-9.015-9.015H75.22c-4.978,0-9.015,4.036-9.015,9.015v44.41H43.909V18.029h67.544  c4.978,0,9.015-4.036,9.015-9.015S116.431,0,111.453,0H34.894c-4.978,0-9.015,4.036-9.015,9.015v84.738h-8.465  c-4.978,0-9.015,4.036-9.015,9.015v90.731c0,4.978,4.036,9.015,9.015,9.015h8.465v72.7h-8.465c-4.978,0-9.015,4.036-9.015,9.015  v90.729c0,4.978,4.036,9.015,9.015,9.015h8.465v84.738c0,4.978,4.036,9.015,9.015,9.015h36.348v25.264  c0,4.978,4.036,9.015,9.015,9.015h94.762c4.978,0,9.015-4.036,9.015-9.015v-25.264h161.414v25.264c0,4.978,4.036,9.015,9.015,9.015  h94.762c4.978,0,9.015-4.036,9.015-9.015v-25.264h36.349c4.978,0,9.015-4.036,9.015-9.015V9.015C503.601,4.036,499.567,0,494.587,0z   M26.429,293.241h56.57v72.7h-56.57V293.241z M26.429,184.482v-72.7h56.57v72.702h-56.57V184.482z M43.909,202.511h22.297v72.7  H43.909V202.511z M166.005,493.971H89.271v-16.249h76.733v16.249H166.005z M440.21,493.971h-76.733v-16.249h76.733V493.971z"/>
<path d="M149.573,428.382c0,4.978,4.036,9.015,9.015,9.015h295.673c4.978,0,9.015-4.036,9.015-9.015V138.479  c0-4.978-4.036-9.015-9.015-9.015s-9.015,4.036-9.015,9.015v280.889H158.588C153.609,419.368,149.573,423.404,149.573,428.382z"/>
<path d="M367.385,238.783c0-54.466-44.312-98.778-98.778-98.778s-98.778,44.312-98.778,98.778s44.312,98.778,98.778,98.778  C323.074,337.559,367.385,293.247,367.385,238.783z M239.309,238.783c0-16.155,13.143-29.3,29.298-29.3  c16.155,0,29.3,13.144,29.3,29.3s-13.144,29.298-29.3,29.298C252.452,268.081,239.309,254.938,239.309,238.783z M277.622,285.239  c6.359-1.232,12.273-3.732,17.455-7.24l23.861,23.86c-11.6,9.275-25.796,15.423-41.314,17.155v-33.774H277.622z M307.824,265.251  c3.508-5.182,6.008-11.094,7.24-17.453h33.776c-1.732,15.518-7.881,29.713-17.155,41.314L307.824,265.251z M315.064,229.768  c-1.232-6.361-3.732-12.273-7.24-17.453l23.861-23.861c9.275,11.6,15.423,25.796,17.155,41.314H315.064z M295.076,199.566  c-5.182-3.508-11.094-6.008-17.453-7.24V158.55c15.518,1.732,29.714,7.881,41.314,17.155L295.076,199.566z M259.593,192.326  c-6.359,1.232-12.273,3.732-17.453,7.24l-23.86-23.86c11.6-9.275,25.796-15.423,41.314-17.155v33.774H259.593z M229.392,212.314  c-3.508,5.182-6.008,11.094-7.24,17.455h-33.776c1.732-15.518,7.881-29.714,17.155-41.314L229.392,212.314z M222.151,247.797  c1.232,6.359,3.732,12.273,7.24,17.453l-23.86,23.86c-9.275-11.6-15.423-25.796-17.155-41.314h33.774V247.797z M242.139,277.998  c5.182,3.508,11.094,6.008,17.453,7.24v33.776c-15.518-1.732-29.713-7.881-41.314-17.155L242.139,277.998z"/>
<g>
</g>
<g>
</g>
<g>
</g>
<g>
</g>
<g>
</g>
<g>
</g>
<g>
</g>
<g>
</g>
<g>
</g>
<g>
</g>
<g>
</g>
<g>
</g>
<g>
</g>
<g>
</g>
<g>
</g>
</svg>
