<?xml version="1.0" encoding="iso-8859-1"?>
<!-- Generator: Adobe Illustrator 19.0.0, SVG Export Plug-In . SVG Version: 6.00 Build 0)  -->
<svg xmlns="http://www.w3.org/2000/svg" xmlns:xlink="http://www.w3.org/1999/xlink" version="1.1" id="Layer_1" x="0px" y="0px" viewBox="0 0 512 512" style="enable-background:new 0 0 512 512;" xml:space="preserve">
<path style="fill:#47A7DD;" d="M235.95,503.293h-45.627H9.08V176.444c0-19.542,15.842-35.383,35.383-35.383h156.105  c19.542,0,35.383,15.842,35.383,35.383v168.082"/>
<path style="fill:#3F9EC9;" d="M94.324,141.061H44.462c-19.542,0-35.383,15.842-35.383,35.383v326.849h49.86V176.444  C58.941,156.903,74.782,141.061,94.324,141.061z"/>
<path style="fill:#F4819A;" d="M405.398,434.387H159.034c-0.65-2.856-0.998-5.828-0.998-8.882c0-7.709,2.218-14.907,6.037-20.979  l115.392-18.495h80.387L405.398,434.387z"/>
<path style="fill:#E6E6E6;" d="M359.852,434.387H159.034h-20.259v17.357c0,28.468,23.081,51.548,51.548,51.548h45.627h123.902  h29.454"/>
<path style="fill:#CCCCCC;" d="M190.018,451.744v-17.357h-30.984h-20.259v17.357c0,28.468,23.081,51.548,51.548,51.548h45.627h5.615  C213.098,503.293,190.018,480.212,190.018,451.744z"/>
<path style="fill:#49DB95;" d="M502.922,175.949v327.343h-143.07V175.949c0-16.126,13.084-29.211,29.211-29.211h84.648  C489.837,146.739,502.922,159.823,502.922,175.949z"/>
<path style="fill:#42C684;" d="M427.446,146.74h-38.378c-16.134,0-29.214,13.08-29.214,29.214v327.339h38.378V175.954  C398.231,159.819,411.311,146.74,427.446,146.74z"/>
<path style="fill:#C0EFFF;" d="M502.922,175.949v74.246h-143.07v-74.246c0-16.126,13.084-29.211,29.211-29.211h84.648  C489.837,146.739,502.922,159.823,502.922,175.949z"/>
<path style="fill:#ACDDEA;" d="M427.445,146.739c-16.138,0-29.211,13.084-29.211,29.211v74.246h-38.383v-74.246  c0-16.126,13.084-29.211,29.211-29.211H427.445z"/>
<rect x="54.017" y="86.494" style="fill:#E6E6E6;" width="136.998" height="54.567"/>
<rect x="54.017" y="86.494" style="fill:#CCCCCC;" width="42.606" height="54.567"/>
<rect x="88.852" y="8.707" style="fill:#E6E6E6;" width="67.338" height="77.787"/>
<rect x="88.852" y="8.707" style="fill:#CCCCCC;" width="33.669" height="77.787"/>
<path style="fill:#E6E6E6;" d="M260.273,359.588c-3.717,0-7.188,1.022-10.18,2.775c-2.681-11.754-13.19-20.528-25.756-20.528  c-5.668,0-10.915,1.79-15.217,4.827c-2.868-7.658-10.232-13.12-18.891-13.12c-10.607,0-19.285,8.185-20.106,18.581  c-1.503-0.266-3.049-0.412-4.628-0.412c-14.594,0-26.425,11.831-26.425,26.425s11.831,26.425,26.425,26.425  c6.329,0,12.136-2.227,16.686-5.937c3.524,3.002,8.085,4.824,13.077,4.824c7.908,0,14.733-4.557,18.047-11.177  c3.359,1.546,7.094,2.415,11.034,2.415c6.726,0,12.86-2.517,17.524-6.654c3.157,7.03,10.205,11.934,18.411,11.934  c11.15,0,20.189-9.038,20.189-20.189C280.464,368.627,271.423,359.588,260.273,359.588z"/>
<path d="M9.08,438.054c4.81,0,8.707-3.899,8.707-8.707V176.444c0-14.709,11.966-26.675,26.675-26.675h156.105  c14.709,0,26.675,11.966,26.675,26.675v140.873c0,4.809,3.897,8.707,8.707,8.707c4.81,0,8.707-3.899,8.707-8.707V176.444  c0-24.311-19.779-44.09-44.09-44.09h-0.846V86.494c0-4.809-3.897-8.707-8.707-8.707h-26.122V42.108h59.508  c2.817,0,5.106,2.291,5.106,5.106v3.601c0,4.809,3.897,8.707,8.707,8.707c4.81,0,8.707-3.899,8.707-8.707v-3.601  c0-12.418-10.103-22.521-22.521-22.521h-59.508V8.707c0-4.809-3.897-8.707-8.707-8.707H88.846c-4.81,0-8.707,3.899-8.707,8.707  v69.079H54.016c-4.81,0-8.707,3.899-8.707,8.707v45.859h-0.846c-24.311,0-44.091,19.779-44.091,44.09v252.902  C0.372,434.155,4.27,438.054,9.08,438.054z M97.555,17.415h49.923v60.372H97.555V17.415z M62.725,95.202h119.583v37.152H62.725  V95.202z"/>
<path d="M473.707,138.032h-84.639c-20.911,0-37.922,17.012-37.922,37.922v318.631h-86.172c-4.81,0-8.707,3.899-8.707,8.707  c0,4.809,3.897,8.707,8.707,8.707h237.947c4.81,0,8.707-3.899,8.707-8.707V327.766c0-4.809-3.897-8.707-8.707-8.707  c-4.81,0-8.707,3.899-8.707,8.707v166.819H368.562V258.902h29.674c4.81,0,8.707-3.899,8.707-8.707c0-4.809-3.897-8.707-8.707-8.707  h-29.674v-65.534c0-11.308,9.2-20.507,20.507-20.507h84.639c11.307,0,20.507,9.2,20.507,20.507v65.534h-66.955  c-4.81,0-8.707,3.899-8.707,8.707c0,4.809,3.897,8.707,8.707,8.707h66.955v37.518c0,4.809,3.897,8.707,8.707,8.707  c4.81,0,8.707-3.899,8.707-8.707V175.954C511.629,155.043,494.618,138.032,473.707,138.032z"/>
<path d="M235.95,494.585h-45.627c-23.623,0-42.841-19.218-42.841-42.841v-8.649h184.233c4.81,0,8.707-3.899,8.707-8.707  s-3.897-8.707-8.707-8.707H166.749c0-0.058-0.005-0.116-0.005-0.174c0-4.326,0.904-8.565,2.637-12.467  c4.497-0.504,8.862-1.862,12.83-4.008c4.021,2.038,8.489,3.123,13.046,3.123c8.368,0,16.1-3.546,21.494-9.585  c2.474,0.547,5.009,0.823,7.587,0.823c5.322,0,10.522-1.205,15.237-3.477c5.35,5.494,12.78,8.756,20.698,8.756  c10.459,0,19.639-5.587,24.712-13.932h46.73c4.81,0,8.707-3.899,8.707-8.707c0-4.809-3.897-8.707-8.707-8.707h-42.656  c-1.249-14.789-13.678-26.444-28.785-26.444c-1.718,0-3.431,0.156-5.114,0.461c-6.022-11.061-17.652-18.214-30.821-18.214  c-4.126,0-8.16,0.712-11.963,2.091c-5.4-6.435-13.484-10.384-22.145-10.384c-12.017,0-22.538,7.536-26.826,18.23  c-18.403,1.086-33.041,16.401-33.041,35.071c0,14.501,8.832,26.976,21.397,32.334c-1.585,4.825-2.431,9.889-2.431,15.037  c0,0.058,0.005,0.116,0.005,0.174h-10.559c-4.81,0-8.707,3.899-8.707,8.707v17.357c0,16.744,6.871,31.91,17.934,42.841H17.787  v-36.214c0-4.809-3.897-8.707-8.707-8.707s-8.707,3.899-8.707,8.707v44.92c0,4.809,3.897,8.707,8.707,8.707H235.95  c4.81,0,8.707-3.899,8.707-8.707C244.658,498.484,240.76,494.585,235.95,494.585z M165.495,360.418c1.016,0,2.063,0.094,3.114,0.28  c2.414,0.428,4.902-0.186,6.844-1.688c1.941-1.502,3.159-3.755,3.352-6.201c0.468-5.921,5.487-10.558,11.427-10.558  c4.75,0,9.065,3,10.737,7.466c0.945,2.527,3.01,4.473,5.589,5.269c2.583,0.795,5.382,0.349,7.586-1.207  c2.997-2.115,6.522-3.233,10.195-3.233c8.32,0,15.419,5.656,17.266,13.755c0.617,2.705,2.487,4.954,5.033,6.056  c2.545,1.102,5.464,0.924,7.859-0.478c1.79-1.048,3.734-1.58,5.778-1.58c6.331,0,11.481,5.15,11.481,11.48  c0,6.331-5.15,11.481-11.481,11.481c-4.505,0-8.613-2.667-10.468-6.794c-1.137-2.527-3.406-4.364-6.116-4.946  c-2.709-0.582-5.534,0.16-7.606,1.999c-3.244,2.877-7.415,4.461-11.747,4.461c-2.574,0-5.061-0.545-7.393-1.617  c-4.271-1.966-9.326-0.188-11.428,4.014c-1.964,3.928-5.897,6.367-10.26,6.367c-3.478,0-5.961-1.492-7.429-2.745  c-3.201-2.727-7.892-2.777-11.15-0.121c-3.192,2.602-7.059,3.978-11.183,3.978c-9.77,0-17.718-7.948-17.718-17.717  C147.777,368.368,155.725,360.418,165.495,360.418z"/>
<g>
</g>
<g>
</g>
<g>
</g>
<g>
</g>
<g>
</g>
<g>
</g>
<g>
</g>
<g>
</g>
<g>
</g>
<g>
</g>
<g>
</g>
<g>
</g>
<g>
</g>
<g>
</g>
<g>
</g>
</svg>
